<svg id="CLICKANDCOLLECT" xmlns="http://www.w3.org/2000/svg" viewBox="0 0 488 40"><style>.green{fill:#4b844b}</style><path id="CLICK" class="green" d="M1 20.1V20C1 10.1 8.4 2.1 19 2.1c6.5 0 10.4 2.2 13.6 5.3L27.7 13c-2.7-2.4-5.4-3.9-8.8-3.9-5.8 0-10 4.8-10 10.7v.2c0 5.9 4.1 10.8 10 10.8 3.9 0 6.4-1.6 9.1-4l4.8 4.9c-3.6 3.8-7.5 6.1-14.1 6.1C8.5 37.8 1 29.9 1 20.1zM37.9 2.7h7.6v27.6h17.2v6.9H37.9V2.7zm29.9 0h7.6v34.5h-7.6V2.7zm13.7 17.4V20c0-9.8 7.4-17.8 18-17.8 6.5 0 10.4 2.2 13.6 5.3l-4.8 5.6c-2.7-2.4-5.4-3.9-8.8-3.9-5.8 0-10 4.8-10 10.7v.1c0 5.9 4.1 10.8 10 10.8 3.9 0 6.4-1.6 9.1-4l4.8 4.9c-3.6 3.8-7.5 6.1-14.1 6.1-10.3 0-17.8-7.9-17.8-17.7zm37-17.4h7.6v15.1l14-15.1h9.2l-14 14.6L150 37.1h-9.1l-10.7-14.7-4 4.1V37h-7.6l-.1-34.3z"/><path id="COLLECT" d="M172.8 33.8c-2.8 2.3-6.1 3.9-10.1 3.9-6.6 0-11.6-3.9-11.6-10v-.1c0-4.4 2.4-7.5 6.7-9.5-1.7-2.4-2.4-4.5-2.4-6.9v-.1c0-4.7 3.8-9.1 10.4-9.1 5.9 0 9.7 3.9 9.7 8.7v.1c0 4.6-3 7.3-7.2 9l4.6 4.6c1.1-1.8 2.3-3.8 3.3-5.9l5.6 3.1c-1.3 2.4-2.8 5-4.5 7.3l5.1 5.1-5.6 3.9-4-4.1zm-4.2-4.3l-6.6-6.7c-2.3 1.2-3.2 2.9-3.2 4.5v.1c0 2.4 2 4 4.8 4 1.8.1 3.4-.7 5-1.9zm.4-18.2v-.1c0-2-1.3-3.2-3.3-3.2-2 0-3.3 1.4-3.3 3.5v.1c0 1.5.6 2.7 2 4.3 3-1.1 4.6-2.4 4.6-4.6zm16.4 8.8V20c0-9.8 7.4-17.8 18-17.8 6.5 0 10.4 2.2 13.6 5.3l-4.8 5.6c-2.7-2.4-5.4-3.9-8.8-3.9-5.8 0-10 4.8-10 10.7v.1c0 5.9 4.1 10.8 10 10.8 3.9 0 6.4-1.6 9.1-4l4.8 4.9c-3.6 3.8-7.5 6.1-14.1 6.1-10.3 0-17.8-7.9-17.8-17.7zm34.4 0V20c0-9.8 7.7-17.8 18.4-17.8 10.6 0 18.3 7.9 18.3 17.7v.1c0 9.8-7.7 17.8-18.4 17.8s-18.3-8-18.3-17.7zm28.7 0V20c0-5.9-4.3-10.8-10.4-10.8s-10.3 4.8-10.3 10.7v.1c0 5.9 4.3 10.8 10.4 10.8 6.1 0 10.3-4.8 10.3-10.7zm13.8-17.4h7.6v27.6h17.2v6.9h-24.8V2.7zm29.5 0h7.6v27.6h17.2v6.9h-24.8V2.7zm29.6 0h26v6.7h-18.5v7h16.3v6.7h-16.3v7.2h18.7V37h-26.3V2.7h.1zm30.5 17.4V20c0-9.8 7.4-17.8 18-17.8 6.5 0 10.4 2.2 13.6 5.3l-4.8 5.6c-2.7-2.4-5.4-3.9-8.8-3.9-5.8 0-10 4.8-10 10.7v.1c0 5.9 4.1 10.8 10 10.8 3.9 0 6.4-1.6 9.1-4l4.8 4.9c-3.6 3.8-7.5 6.1-14.1 6.1-10.3 0-17.8-7.9-17.8-17.7zm44.9-10.4h-10.5v-7h28.6v7h-10.5v27.5h-7.6V9.7z" fill="#211915"/><path id="ECI-shape" class="green" d="M423.4 38.2l63.2-17.9-63.2-18v35.9z"/></svg>