<svg id="CLICKANDCAR" xmlns="http://www.w3.org/2000/svg" viewBox="0 0 365.2 40"><style>.green{fill:#4b844b}</style><path id="CLICK" class="green" d="M1 20.1V20C1 10.1 8.4 2.1 19 2.1c6.5 0 10.4 2.2 13.6 5.3L27.7 13c-2.7-2.4-5.4-3.9-8.8-3.9-5.8 0-10 4.8-10 10.7v.2c0 5.9 4.1 10.8 10 10.8 3.9 0 6.4-1.6 9.1-4l4.8 4.9c-3.6 3.8-7.5 6.1-14.1 6.1C8.5 37.8 1 29.9 1 20.1zM37.9 2.7h7.6v27.6h17.2v6.9H37.9V2.7zm29.9 0h7.6v34.5h-7.6V2.7zm13.7 17.4V20c0-9.8 7.4-17.8 18-17.8 6.5 0 10.4 2.2 13.6 5.3l-4.8 5.6c-2.7-2.4-5.4-3.9-8.8-3.9-5.8 0-10 4.8-10 10.7v.1c0 5.9 4.1 10.8 10 10.8 3.9 0 6.4-1.6 9.1-4l4.8 4.9c-3.6 3.8-7.5 6.1-14.1 6.1-10.3 0-17.8-7.9-17.8-17.7zm37-17.4h7.6v15.1l14-15.1h9.2l-14 14.6L150 37.1h-9.1l-10.7-14.7-4 4.1V37h-7.6l-.1-34.3z"/><path id="ANDCAR" d="M173.2 33.9c-2.8 2.3-6.2 3.9-10.2 3.9-6.6 0-11.7-3.9-11.7-10v-.1c0-4.4 2.4-7.5 6.8-9.5-1.7-2.4-2.4-4.6-2.4-6.9v-.1c0-4.8 3.8-9.1 10.5-9.1 5.9 0 9.8 3.9 9.8 8.7v.1c0 4.7-3 7.4-7.3 9.1l4.6 4.6c1.1-1.8 2.3-3.8 3.4-6l5.6 3.1c-1.4 2.4-2.8 5-4.6 7.4l5.1 5.1-5.6 3.9-4-4.2zm-4.2-4.3l-6.6-6.8c-2.3 1.2-3.2 2.9-3.2 4.6v.1c0 2.4 2 4.1 4.9 4.1 1.6 0 3.3-.8 4.9-2zm.4-18.3v-.1c0-2-1.3-3.2-3.3-3.2-2 0-3.4 1.4-3.4 3.5v.1c0 1.5.6 2.7 2 4.3 3.1-1.2 4.7-2.5 4.7-4.6zM186 20v-.1c0-9.9 7.4-18 18.1-18 6.6 0 10.5 2.2 13.7 5.4l-4.9 5.6c-2.7-2.4-5.4-3.9-8.9-3.9-5.9 0-10.1 4.9-10.1 10.8v.2c0 6 4.1 10.9 10.1 10.9 4 0 6.4-1.6 9.1-4.1l4.9 4.9c-3.6 3.8-7.5 6.2-14.2 6.2C193.6 37.9 186 30 186 20zm49.1-17.7h7.1l14.9 35h-8l-3.2-7.8h-14.7l-3.2 7.8h-7.8l14.9-35zm8 20.5l-4.6-11.3-4.6 11.3h9.2zm18.3-20.2h15.9c4.4 0 7.8 1.2 10.1 3.5 1.9 1.9 3 4.7 3 7.9v.1c0 5.6-3 9.1-7.4 10.8l8.5 12.4h-8.9l-7.4-11.1h-6v11.1h-7.7V2.6zm15.4 16.8c3.7 0 5.9-2 5.9-4.9v-.1c0-3.3-2.3-5-6-5h-7.6v10h7.7z" fill="#211915"/><path id="ECI-shape" class="green" d="M298.4 38.2l63.2-17.9-63.2-18v35.9z"/></svg>