<svg version="1.2" baseProfile="tiny" xmlns="http://www.w3.org/2000/svg" viewBox="0 0 462.1 105"><path d="M5.1 40.498l.6.6c2.3 1.9 5.2 3.1 8.2 3.3 1.3 0 3.3-.6 3.3-2.1s-1.7-1.7-2.9-1.9l-2.6-.4c-5.2-1-9.4-3.8-9.4-9.6 0-8.6 7.9-13.2 15.5-13.2 4-.1 7.9 1 11.3 3.1l-3.5 9.2c-2.2-1.6-4.9-2.6-7.7-2.7-1.2 0-2.7.4-2.7 1.9 0 1.3 1.5 1.5 2.5 1.7l2.9.6c5.6 1.2 9.6 4.2 9.6 10.3 0 8.6-7.9 12.8-15.5 12.8-4.8 0-9.5-1.1-13.8-3.2l4.2-10.4zm62.7-23.2v21.3c0 10.5-6.5 15.3-16.7 15.3s-16.7-4.8-16.7-15.3v-21.3h13v20.1c0 2.9 0 5.4 3.6 5.4 3.5 0 3.6-2.5 3.6-5.4v-20.1h13.2zm20.4 10h1.2c2.1 0 4.8.2 4.8 2.9 0 2.9-2.5 3.3-4.8 3.3h-1.3l.1-6.2zm-12.6 26.1h12.6v-11h6.7c6.1.5 11.4-4.1 11.9-10.2v-1.7c0-9-6.1-13.2-14.6-13.2H75.8v36.1h-.2zm35.4-36.1h24.1v9.8H124v3.5h10.3v9.4h-10.1v3.5h11.5v9.8H111v-36zm43.8 10h1c2.3 0 4.2.4 4.2 3.1s-2.1 3.1-4.2 3.1h-1v-6.2zm-12.9 26.1h12.8v-11.5h.2l5.7 11.5h15.3l-7.9-11.7-2.1-2.1v-.2c4.5-.8 7.5-4.9 6.9-9.4 0-9-6.9-12.5-14.9-12.5h-16v35.9zm41.6-36.1h13.4l5 19h.4c.1-1.6.5-3.2 1-4.8l4-14.2h13.4l5.9 36H214l-1.7-19.8h-.2c-.2 1.2-.5 2.5-1 3.6l-5.1 16.1h-7.7l-4.6-15.2c-.4-1.4-.7-2.9-.8-4.4h-.4c0 1.5-.2 2.9-.4 4.4l-1.5 15.3H178l5.5-36zm48.3 0h24.1v9.8h-11.1v3.5h10.1v9.4h-10.1v3.5h11.5v9.8h-24.5v-36zm43.9 10h1c2.3 0 4.2.4 4.2 3.1s-2.1 3.1-4.2 3.1h-1v-6.2zm-12.8 26.1h12.8v-11.5h.2l5.7 11.5h15.1l-7.8-11.7-2.1-2.1v-.2c4.5-.8 7.5-4.9 6.9-9.4 0-9-6.9-12.5-14.9-12.5h-15.9v35.9zm63.7-21.3c-2-2.1-4.8-3.4-7.7-3.6-3.8-.1-7 2.9-7.1 6.7-.1 3.8 2.9 7 6.7 7.1h.5c2.8-.1 5.5-1.2 7.5-3.3l-.4 13.4c-3 .9-6.2 1.4-9.4 1.3-9.8.2-18-7.7-18.1-17.7v-.5c-.1-10.3 8.1-18.8 18.5-19h.3c3 0 6 .6 8.8 1.5l.4 14.1zm20.7 8.2l2.3-10.9h.4c.2 1.5.4 3.1.8 4.6l1.5 6.3h-5zm-2.3 8.7h10l1.2 4.6h13.7l-12.8-36h-14.4l-12.5 36H344l1-4.6zm40.8-20.4h.8c4.8 0 7.7 2.1 7.7 7.3 0 4.8-3.3 6.7-7.7 6.7h-.8v-14zm-13 24.8h16.5c9.2.7 17.3-6.2 18-15.4.1-.7.1-1.3 0-2 0-13.2-9.2-18.6-21.3-18.6h-13.4v36h.2z"/><path fill="#31AA47" stroke="#31AA47" stroke-width=".032" stroke-miterlimit="3.864" d="M433.139 20c.2-.6-.4-1.3.2-1.7 3.5.1 7-.3 10.3-1.2 3.6-1.1 6.6-3.6 8.4-6.9.6-.5 1-1.2 1.2-1.9 1.1-1.8 2-3.6 2.9-5.6l-.6-.2c-1.6.8-3.3 1.4-5 1.9-2.3.8-4.8.8-7.3 1.3-4.6 1.3-8.3 4.5-10.3 8.8l-.4.2c-.4-3.3-1.9-6.3-.8-9.8l-.6-.2-4 3.5-.2.4c1.2 2.2 2 4.6 2.5 7.1.3 1.2.4 2.4.4 3.6.1.4.1.9 0 1.3 0 .5.3.9.8 1 .8.3 1.8-.1 2.1-1 .4 0 .4-.2.4-.6z"/><path fill="#E40520" d="M426.239 54.5c-15.9-1-19.9-20.3-13.6-29.3 1.3-2.3 6.5-8.2 20.1-5 .5.2 1 .3 1.5.2 24-3.5 23.4 23.2 10.4 32-3.9 2.9-9 3.7-13.6 2.1-2.3-1-2.9 0-4.8 0"/><path fill="#009446" d="M158.326 68.544l2.3 3.6-8.8 5.7-2.7-3.4 9.2-5.9zm-150.1 16.3c1.3 2.3 4.6 1.9 7.7 0-3.3-19.4 14.7-19 6.1.6-.8 1.2 2.1 1.3 3.8 0v3.8c-2.3 1.7-5.4 1.5-7.5-.4-7.1 4.8-16.7 1.9-15-6.9-6.6-12.4 4.7-18.4 11.8-15.3v5.2c-5.9-2.7-10.1 1.2-8.8 5.7 7.3-5.3 12.2 7.9 1.9 7.3zm0-4c0 .5.4.9.9 1h.1c.5 0 1-.4 1-1 0-.5-.4-1-1-1-.5 0-.9.4-1 .9v.1zm10.7-1.7c-.2 1.5 0 2.7.4 2.7s1-1.2 1.2-2.5c.2-1.5 0-2.7-.4-2.7-.4-.2-1 .9-1.2 2.5zm24.2-7.5c-17.3-4.2-12.5 22.8.6 12.6-1-4.6 4.8-6.1 5-3.1 0 1.5 0 4 1.9 4.2 1.7.2 2.9-1.9 1-2.3-7.7-2.5.8-14.2 5.6-4.8 1.9-.1 3.7.7 4.8 2.3.6-1.1 1.8-1.7 3.1-1.5v4.2c-1.1-.1-2.2.7-2.3 1.8V89.444h-3.8v-3.8c0-1.2-.8-1.9-2.3-1.7-.6 3.6-4 6.1-7.6 5.5-1-.2-1.9-.5-2.7-1.1-21.3 13.8-27.2-24.5-3.1-21.1l-.2 4.4zm8.8 7.5c0 .4.3.8.8.8s.8-.3.8-.8c0-.4-.3-.8-.8-.8-.4.2-.8.4-.8.8zm19.9-8.7l-.8 9.4h1.2c6.1-12.5 18.2-.8 5.2 5 1.7 2.3 4.4 1.3 6.3-.2v4.6c-3 2.5-7.4 2.1-9.9-.9-.6-.8-1.1-1.6-1.4-2.6-.6-1.7-1.7-1.3-1.7-.8v5h-4v-6.7h-1v-4h1.3l.6-8.8h4.2zm5.4 8.8c-.6.8-.6 1.5-.2 1.7.4.2 1-.2 1.5-.8.6-.8.6-1.5.2-1.7-.4-.3-1.1.1-1.5.8zm18-19.1l1.2 14.9c2.9-.5 5.8 1.1 6.9 3.8 1.7-2.5 8.6-4 9.2 5v5.2h-4.6v-5.2c0-2.9-3.3-2.9-3.3 0v6.3h-4.2l-.4-7.7c-.4-2.3-4-3.8-3.1-.4.2 1.3 2.5 17.8-4.8 18.4-6.7-.4-6.1-17.2 0-23.4l-1-16.9h4.1zm-3.3 29.1c0 2.5.2 4.6.6 4.6s1-1.9 1-4.4-.2-4.6-.6-4.6c-.6-.2-1 1.9-1 4.4zm31.1-.8v-1.3c-3.6 2.7-9.6 3.1-9.4-3.5.8-4.4 5.6-8.4 13-8.8v4.6c-5.7.4-8.8 2.9-8 5 .6.6 3.6-1 4.8-4.2h4.2v5.9s1.7-.6 2.7-1c-3.1-8 1-14.8 4.8-14.2 6.3 1 4.8 9.2 1 14.4 1 1.2 2.7 1.5 4 .8-4.2-12.5 13.2-12.1 9-1.9 3.6-1 10.9-7.7 15.5-7.3 8.4-.2 6.3 13.8-5.4 14.4v-4.6c1.9-.5 3.6-1.4 5-2.7 1-1 .2-4-2.9-2.1l-10.1 6.3c-1.9 1.2-4.3 1.3-6.3.4-3.1 2.5-10.5 3.5-12.6-.4l-4.6 3.3c.4 3.3-.4 8.6-5.7 8.2-5.9-.5-6.1-8.6 1-11.3zm-1.2 5.6c0 .6.4 1.2.8 1.2.5 0 .9-.4 1-.9v-.1c0-.6-.4-1.2-.8-1.2-.6-.1-1 .4-1 1zm11.5-15.7c-.2 1.3 0 2.5.4 2.7.4 0 1-1 1.2-2.5.2-1.3 0-2.5-.4-2.7-.4 0-1 1-1.2 2.5zm10.6 3.8c0 1 .4 1.5 1.2 1.5.6 0 1.2-.8 1.2-1.5 0-.8-.4-1.5-1.2-1.5-.8-.2-1.2.6-1.2 1.5z"/></svg>