<?xml version="1.0" standalone="no"?>
<!DOCTYPE svg PUBLIC "-//W3C//DTD SVG 1.1//EN" "http://www.w3.org/Graphics/SVG/1.1/DTD/svg11.dtd" >
<svg xmlns="http://www.w3.org/2000/svg">
<metadata>
<json>
<![CDATA[
{
	"fontFamily": "artwork-font",
	"majorVersion": 1,
	"minorVersion": 0,
	"version": "Version 1.0",
	"fontId": "artwork-font",
	"psName": "artwork-font",
	"subFamily": "Regular",
	"fullName": "artwork-font",
	"description": "Font generated by IcoMoon."
}
]]>
</json>
</metadata>
<defs>
<font id="artwork-font" horiz-adv-x="512">
<font-face units-per-em="512" ascent="384" descent="-128" />
<missing-glyph horiz-adv-x="512" />
<glyph unicode="&#x20;" horiz-adv-x="0" d="" />
<glyph unicode="&#xe600;" glyph-name="cta" data-tags="cta" d="M0 352v-448h512v448h-512zM288 0v-64h-256v384h448v-320h-192z" />
<glyph unicode="&#xe601;" glyph-name="heading" data-tags="header-text" d="M480 192v-128h-448v128h448zM512 224h-512v-192h512v192zM64 160h384v-64h-384v64z" />
<glyph unicode="&#xe602;" glyph-name="image" data-tags="image" d="M480 320v-384h-448v384h448zM512 352h-512v-448h512v448z" />
<glyph unicode="&#xe603;" glyph-name="overlay" data-tags="overlay" d="M480 320v-384h-448v384h448zM512 352h-512v-448h512v448zM384 96v-96h-256v96h256zM416 128h-320v-160h320v160z" />
<glyph unicode="&#xe604;" glyph-name="separator" data-tags="separator-text" d="M480 160v-96h-448v96h448zM512 192h-512v-160h512v160zM96 128.196h320v-32.196h-320v32.196z" />
<glyph unicode="&#xe605;" glyph-name="standard" data-tags="standard" d="M0 352v-448h512v448h-512zM480-64h-448v64h448v-64zM288 96v-64.27h-256v288.27h448v-224h-192z" />
<glyph unicode="&#xe606;" glyph-name="full-overlay" data-tags="full-overlay" d="M480 320v-384h-448v384h448zM512 352h-512v-448h512v448zM416 256v-256h-320v256h320zM448 288h-384v-320h384v320z" />
<glyph unicode="&#xe607;" glyph-name="new-artwork" data-tags="new-artwork" horiz-adv-x="544" d="M512 61.664v290.336h-512v-448h354.050c20.088-19.424 47.424-31.396 77.574-31.396s57.488 11.972 77.576 31.396h2.8v2.808c19.342 20.072 31.258 47.352 31.258 77.43 0 30.076-11.916 57.354-31.258 77.426zM32-64v384h448v-235.128c-14.634 7.048-31.042 10.998-48.376 10.998-61.654 0-111.632-49.978-111.632-111.63 0-17.278 3.928-33.636 10.936-48.238h-298.928zM512-31.84h-64v-64.16h-32v64.16h-64v32h64v63.84h32v-63.84h64v-32z" />
<glyph unicode="&#xe608;" glyph-name="edit-artwork" data-tags="edit-artwork" d="M416 64v-160h-320v288h96v96h224v-32h32v64h-288l-96-96v-352h384v192zM443.226 220.362l45.186-48.254-168.655-157.934-45.186 48.254 168.655 157.934zM501.552 184.134c13.308 12.46 13.994 33.35 1.536 46.656-12.46 13.308-33.35 13.994-46.658 1.534l45.122-48.19zM305.604 12.080c3.008-3.212 2.026-6.89-2.184-8.172l-55.738-16.994c-4.208-1.284-6.404 1.044-4.878 5.172l20.306 54.908c1.528 4.126 5.236 4.876 8.244 1.664l34.25-36.578z" />
<glyph unicode="&#xe609;" glyph-name="rich-text-i" data-tags="type, write, compose, edit, blog" d="M426.666 320v42.666h-128v-42.666h42.666v-384h-42.666v-42.666h128v42.666h-42.666v384zM298.666 270.038c0 2.218-4.16 4.885-6.827 6.784-11.755 8.768-24.747 14.486-39.168 17.13-14.422 2.666-31.254 3.99-50.624 3.99-14.037 0-28.458-2.219-43.2-6.742-14.762-4.502-27.306-9.962-37.674-16.448-12.011-7.594-21.739-16.256-29.227-25.92-7.488-9.685-11.242-19.84-11.242-30.442 0-10.155 2.71-19.306 8.128-27.499s13.888-12.267 25.408-12.267c12.906 0 22.998 3.328 30.272 10.048 7.274 6.656 10.901 14.037 10.901 22.123 0 7.595-1.109 15.893-3.286 24.896-2.219 8.982-3.286 15.786-3.286 20.394 3.691 3.925 10.090 7.659 19.2 11.243 9.088 3.584 18.965 5.355 29.568 5.355 15.446 0 27.37-3.158 35.798-9.494 8.427-6.357 14.934-13.781 19.541-22.314 4.139-7.616 3.050-24.875 3.050-24.875v-50.88c0-5.994-28.95-14.293-60.672-24.896s-51.008-17.856-61.398-21.781c-8.278-3.243-16.256-7.574-25.728-12.971-9.451-5.44-16.64-11.584-22.422-18.517-7.382-8.298-12.694-17.622-16.384-27.99s-5.398-22.123-5.398-35.286c0-25.365 8.298-45.888 24.789-61.568 16.469-15.659 37.546-23.531 63.126-23.531 24.214 0 44.906 9.493 62.080 18.24 17.216 8.81 33.302 21.846 48.278 43.178h2.091c3.008-21.334 9.685-33.514 20.394-41.942l13.909-0.726v312.704zM261.589 16.49c-8.534-10.858-19.029-20.245-31.466-28.245-12.459-7.957-26.88-11.968-43.243-11.968-15.466 0-28.181 4.502-38.208 13.546-10.048 9.002-15.040 23.082-15.040 42.24 0 14.784 3.328 27.584 10.048 38.315 6.656 10.774 15.786 20.053 27.286 27.904 12.714 8.341 26.411 15.253 41.173 20.822 14.742 5.546 29.824 10.624 49.45 16.363v-118.976z" />
<glyph unicode="&#xe60a;" glyph-name="master2" data-tags="atom, physics, science" d="M256 192.022c-35.328 0-64-28.672-64-64s28.672-64 64-64 64 28.672 64 64-28.672 64-64 64zM452.928 184.214c-6.933 2.24-13.184 5.803-18.538 10.518-8.618-15.872-19.243-32.15-30.699-48.47-17.813 22.891-38.144 45.995-60.822 68.672-22.507 22.506-45.696 42.922-68.822 60.886 54.976 38.742 107.819 62.058 145.43 62.058 15.274 0 26.966-3.946 34.731-11.712 8.448-8.448 12.182-21.717 11.52-38.528 1.216 0.085 2.346 0.384 3.584 0.384 6.144 0 11.99-1.258 17.472-3.157 1.322 23.914-4.352 43.243-17.493 56.405-11.925 11.926-28.672 17.963-49.813 17.963-43.584 0-102.656-26.006-163.456-69.91-60.8 43.904-119.872 69.931-163.456 69.931-4.522 0-8.768-0.427-12.886-0.982 5.824-5.632 10.219-12.587 13.013-20.373 37.611-0.043 90.41-23.36 145.344-62.080-23.168-18.005-46.379-38.421-68.864-60.928-22.4-22.422-42.816-45.654-60.928-68.992-18.24 25.834-33.28 51.456-44.053 75.798-7.382 16.619-12.309 31.872-15.19 45.654-2.112-0.278-4.16-0.661-6.336-0.661-5.504 0-10.709 1.088-15.701 2.624 2.858-16.981 8.64-35.797 17.728-56.277 12.096-27.328 29.12-56.149 50.026-85.077-20.885-28.885-37.867-57.707-49.984-85.013-25.792-58.176-26.474-103.702-1.941-128.235 11.925-11.925 28.672-17.962 49.813-17.962 64.427 0 162.688 56.661 250.347 144.363 22.464 22.486 42.901 45.781 60.992 69.184 59.094-83.499 76.032-154.667 50.24-180.458-7.765-7.765-19.456-11.712-34.731-11.712-20.118 0-44.694 6.784-71.552 18.923-2.837-6.827-7.040-12.885-12.267-17.962 31.104-14.4 59.818-22.293 83.818-22.293 21.142 0 37.888 6.038 49.813 17.962 37.077 37.077 13.675 122.262-52.245 213.568 13.546 18.794 25.92 37.568 35.904 55.893zM92.608-81.92c-15.275 0-26.965 3.947-34.73 11.712-17.6 17.6-15.296 55.68 6.357 104.49 10.773 24.32 25.792 49.899 43.99 75.733 18.112-23.317 38.506-46.55 60.886-68.906 22.635-22.635 45.952-42.688 69.248-60.714-55.104-38.912-108.096-62.315-145.75-62.315zM327.872 56.192c-23.339-23.339-47.616-44.416-71.766-62.762-24.214 18.389-48.512 39.402-71.915 62.762-23.339 23.339-44.352 47.552-62.784 71.765 18.432 24.256 39.51 48.49 62.848 71.851 23.317 23.339 47.616 44.416 71.786 62.805 24.149-18.368 48.426-39.446 71.744-62.762 24.235-24.234 45.099-48.32 62.976-71.68-18.432-24.32-39.488-48.576-62.89-71.978zM469.334 256.022c-11.798 0-21.334-9.536-21.334-21.334s9.536-21.334 21.334-21.334 21.334 9.536 21.334 21.334-9.536 21.334-21.334 21.334zM298.666-21.312c-11.798 0-21.334-9.536-21.334-21.334s9.536-21.334 21.334-21.334 21.334 9.536 21.334 21.334-9.536 21.334-21.334 21.334zM42.666 298.688c11.797 0 21.334 9.536 21.334 21.334s-9.536 21.334-21.334 21.334-21.334-9.536-21.334-21.334 9.536-21.334 21.334-21.334z" />
<glyph unicode="&#xe60b;" glyph-name="i-links" data-tags="link-collection" d="M480 352v-256h-448v256h448zM512 384h-512v-320h512v320zM480 64v-160h-448v160h448zM512 96h-512v-224h512v224zM128 31.834h320v-31.668h-320v31.668zM128-32.166h320v-31.668h-320v31.668zM64 32h32v-32h-32v32zM64-32h32v-32h-32v32z" />
<glyph unicode="&#xe60c;" glyph-name="one-piece" data-tags="one-piece" d="M479.926 352.096v-448.096h-448.096v448.096h448.096zM511.926 384.096h-512.096v-512.096h512.096v512.096z" />
<glyph unicode="&#xe60d;" glyph-name="layout-three-b" data-tags="layout-three-b" horiz-adv-x="992" d="M479.926 352.096v-448.096h-448.096v448.096h448.096zM511.926 384.096h-512.096v-512.096h512.096v512.096zM959.974 352.096v-448.096h-448.096v448.096h448.096zM991.974 384.096h-512.096v-512.096h512.096v512.096zM-0.002 128.048h511.88v-32.048h-511.88v32.048z" />
<glyph unicode="&#xe60e;" glyph-name="layout-three-a" data-tags="layout-three-a" horiz-adv-x="992" d="M959.772 352.032v-448.096h-448.098v448.096h448.098zM991.772 384.032h-512.096v-512.096h512.096v512.096zM480.096 352.096v-448.096h-448.096v448.096h448.096zM512.094 384.096h-512.094v-512.096h512.094v512.096zM479.876 128.048h511.88v-32.048h-511.88v32.048z" />
<glyph unicode="&#xe60f;" glyph-name="skyscraper-icon" data-tags="skysraper-icon" d="M352.022 352.048v-448.094h-192.168v448.094h192.168zM384.024 384.048h-256.17v-512.094h256.168v512.094h0.002z" />
<glyph unicode="&#xe610;" glyph-name="i-collapse-all" data-tags="i-collapse-all" horiz-adv-x="640" d="M255.562 385.558l44.579-44.578-255.56-255.56-44.578 44.578 255.56 255.56zM300.14-80.981l-44.58-44.58-255.558 255.558 44.58 44.58 255.558-255.558zM575.555 385.556l44.578-44.578-255.56-255.56-44.579 44.578 255.56 255.56zM620.145-80.981l-44.58-44.58-255.558 255.558 44.58 44.58 255.558-255.558z" />
<glyph unicode="&#xe611;" glyph-name="four-pieces" data-tags="four-pieces" horiz-adv-x="1952" d="M479.926 352.096v-448.096h-448.096v448.096h448.096zM511.926 384.096h-512.096v-512.096h512.096v512.096zM959.974 352.096v-448.096h-448.096v448.096h448.096zM991.974 384.096h-512.096v-512.096h512.096v512.096zM1440.152 352.096v-448.096h-448.096v448.096h448.096zM1472.152 384.096h-512.096v-512.096h512.096v512.096zM1920.14 352.096v-448.096h-448.096v448.096h448.096zM1952.14 384.096h-512.096v-512.096h512.096v512.096z" />
<glyph unicode="&#xe612;" glyph-name="three-pieces" data-tags="three-pieces" horiz-adv-x="1472" d="M479.926 352.096v-448.096h-448.096v448.096h448.096zM511.926 384.096h-512.096v-512.096h512.096v512.096zM959.974 352.096v-448.096h-448.096v448.096h448.096zM991.974 384.096h-512.096v-512.096h512.096v512.096zM1440.152 352.096v-448.096h-448.096v448.096h448.096zM1472.152 384.096h-512.096v-512.096h512.096v512.096z" />
<glyph unicode="&#xe613;" glyph-name="two-pieces" data-tags="two-pieces" horiz-adv-x="992" d="M479.926 352.096v-448.096h-448.096v448.096h448.096zM511.926 384.096h-512.096v-512.096h512.096v512.096zM959.974 352.096v-448.096h-448.096v448.096h448.096zM991.974 384.096h-512.096v-512.096h512.096v512.096z" />
<glyph unicode="&#xe614;" glyph-name="i-collapse-secondary" data-tags="i-collapse-main" d="M140.583 83.416l-44.58 44.58 255.562 255.562 44.58-44.58-255.561-255.561zM96.001 128.004l44.58 44.58 255.56-255.56-44.58-44.58-255.56 255.56z" />
<glyph unicode="&#xe615;" glyph-name="i-collapse-primary" data-tags="i-collapse-secundary" d="M140.583 83.416l-44.58 44.58 255.562 255.562 44.58-44.58-255.561-255.561zM96.001 128.004l44.58 44.58 255.56-255.56-44.58-44.58-255.56 255.56z" />
<glyph unicode="&#xe616;" glyph-name="i-down" data-tags="i-down" d="M270.072-49.678l146.41 145.858-45.212 45.29-83.27-82.952v325.926h-64v-325.428l-82.902 82.668-45.19-45.318 160.348-159.898z" />
<glyph unicode="&#xe617;" glyph-name="i-first" data-tags="i-first" d="M255.794 319.936l-0.040 0.042-12.408-12.444-147.828-147.27 45.212-45.292 83.27 82.954v-325.926h64v325.44l82.912-82.678 45.19 45.32-160.244 159.918zM512 384.444h-512v-64.444h512z" />
<glyph unicode="&#xe618;" glyph-name="i-last" data-tags="i-last" d="M256.256-63.532l13.816 13.854 146.41 145.858-45.212 45.29-83.27-82.952v325.926h-64v-325.428l-82.902 82.668-45.19-45.318 160.302-159.852zM256.142-63.554h-256.142v-64.446h512v64.446z" />
<glyph unicode="&#xe619;" glyph-name="i-up" data-tags="i-up" d="M416.092 160.092l-160.34 159.908-16.198-16.242-144.036-143.494 45.212-45.292 83.27 82.954v-325.926h64v325.454l82.898-82.672z" />
<glyph unicode="&#xe61a;" glyph-name="heading-i" data-tags="heading-i" d="M480 64v-128h-448v128h448zM512 96h-512v-192h512v192zM416 32h-320.334v-64h320.334v64z" />
<glyph unicode="&#xe61b;" glyph-name="button-group-i" data-tags="button-group-i" d="M512 96h-512v-192h512v192zM512 96h-512v-192h512z" />
<glyph unicode="&#xe61c;" glyph-name="nine-three" data-tags="eight-four" horiz-adv-x="1408" d="M1056.054 384.048l-1056.224 0.048v-512.096h1408.256v512.096l-352.032-0.048zM32-96v448.096l991.946-0.048v-448.094l-991.946 0.046zM1376.086-96l-320.032-0.046v448.094l320.032 0.048v-448.096zM462.944 32.792c7.828-0.824 16.892 0 29.25 1.236 21.012 2.884 40.788 11.536 56.030 25.956 17.716 16.068 30.488 39.55 35.43 71.274h-1.236c-14.832-18.126-36.254-28.838-63.034-28.838-48.202 0-79.102 36.254-79.102 81.984 0 50.674 36.666 95.168 91.46 95.168s88.578-44.494 88.578-112.884c0-58.914-19.776-100.114-46.142-125.656-20.6-20.188-49.026-32.546-77.866-35.844-13.184-2.058-24.72-2.47-33.372-2.058v29.662zM476.128 186.876c0-33.372 20.188-56.856 51.498-56.856 24.308 0 43.258 11.95 52.734 28.016 2.060 3.296 3.296 7.416 3.296 13.184 0 45.73-16.892 80.75-54.794 80.75-30.9 0-52.734-27.19-52.734-65.094zM1136.458 48.862c10.298-6.592 34.196-16.892 59.326-16.892 46.554 0 60.974 29.664 60.562 51.91-0.412 37.492-34.196 53.558-69.214 53.558h-20.188v27.192h20.188c26.368 0 59.738 13.596 59.738 45.318 0 21.424-13.596 40.376-46.966 40.376-21.422 0-42.022-9.476-53.558-17.714l-9.474 26.368c14.008 10.298 41.2 20.598 70.038 20.598 52.734 0 76.63-31.31 76.63-63.858 0-27.604-16.48-51.086-49.44-63.034v-0.824c32.958-6.592 59.738-31.31 59.738-68.802 0-42.846-33.372-80.336-97.64-80.336-30.076 0-56.444 9.474-69.626 18.126l9.886 28.014z" />
<glyph unicode="&#xe61d;" glyph-name="three-nine" data-tags="four-eight" horiz-adv-x="1408" d="M351.862-127.998l1056.224-0.048v512.096h-1408.256v-512.096l352.032 0.048zM1375.916 352.050v-448.096l-991.946 0.048v448.094l991.946-0.046zM31.83 352.050l320.032 0.046v-448.094l-320.032-0.048c0 0 0 448.096 0 448.096zM818.944 32.792c7.828-0.824 16.892 0 29.252 1.236 21.012 2.884 40.788 11.536 56.030 25.956 17.716 16.068 30.488 39.55 35.432 71.274h-1.236c-14.832-18.126-36.254-28.838-63.034-28.838-48.204 0-79.102 36.254-79.102 81.984 0 50.674 36.666 95.17 91.46 95.17 54.792 0 88.576-44.496 88.576-112.884 0-58.914-19.776-100.114-46.142-125.656-20.6-20.188-49.026-32.546-77.866-35.844-13.184-2.058-24.718-2.47-33.372-2.058v29.66zM832.128 186.876c0-33.372 20.188-56.856 51.498-56.856 24.308 0 43.26 11.95 52.734 28.016 2.060 3.296 3.296 7.416 3.296 13.184 0 45.73-16.892 80.75-54.794 80.75-30.9 0-52.734-27.19-52.734-65.094zM110.458 48.862c10.3-6.592 34.194-16.892 59.326-16.892 46.554 0 60.974 29.664 60.562 51.91-0.412 37.492-34.194 53.558-69.214 53.558h-20.188v27.192h20.188c26.368 0 59.738 13.596 59.738 45.318 0 21.424-13.596 40.376-46.966 40.376-21.422 0-42.022-9.474-53.558-17.714l-9.476 26.368c14.006 10.298 41.198 20.6 70.038 20.6 52.734 0 76.63-31.312 76.63-63.86 0-27.602-16.48-51.086-49.438-63.034v-0.824c32.958-6.592 59.738-31.31 59.738-68.802 0-42.846-33.372-80.336-97.64-80.336-30.076 0-56.442 9.474-69.626 18.126l9.886 28.014z" />
<glyph unicode="&#xe61e;" glyph-name="three-six-three" data-tags="three-six-three" horiz-adv-x="1408" d="M1056.116 384.096h-1056.286v-512.096h1408.256v512.096h-351.97zM31.83-96v448.096h320.042v-448.096h-320.042zM383.92-96v448.096zM383.92-96v448.096h640.086v-448.096h-640.086zM1376.086-96h-319.97v448.096h319.97v-448.096zM772.78 249.498c-7.416 0.412-16.89 0-27.192-1.648-56.854-9.476-86.928-51.086-93.11-95.168h1.236c12.772 16.892 35.020 30.898 64.682 30.898 47.378 0 80.75-34.196 80.75-86.518 0-49.026-33.372-94.344-88.988-94.344-57.268 0-94.758 44.494-94.758 114.12 0 52.736 18.952 94.346 45.318 120.712 22.248 21.836 51.91 35.43 85.694 39.55 10.712 1.648 19.776 2.060 26.368 2.060v-29.662zM762.48 95.004c0 38.314-21.836 61.384-55.208 61.384-21.836 0-42.022-13.596-51.91-32.958-2.472-4.12-4.12-9.474-4.12-16.066 0.824-44.082 21.010-76.63 58.916-76.63 31.31-0.002 52.322 25.954 52.322 64.27zM1144.458 48.862c10.298-6.592 34.196-16.892 59.326-16.892 46.554 0 60.974 29.664 60.562 51.91-0.412 37.492-34.196 53.558-69.214 53.558h-20.188v27.192h20.188c26.368 0 59.738 13.596 59.738 45.318 0 21.424-13.596 40.376-46.966 40.376-21.422 0-42.022-9.476-53.558-17.714l-9.474 26.368c14.008 10.298 41.2 20.598 70.038 20.598 52.734 0 76.63-31.31 76.63-63.858 0-27.604-16.48-51.086-49.44-63.034v-0.824c32.958-6.592 59.738-31.31 59.738-68.802 0-42.846-33.372-80.336-97.64-80.336-30.076 0-56.444 9.474-69.626 18.126l9.886 28.014zM124.458 48.862c10.298-6.592 34.196-16.892 59.326-16.892 46.554 0 60.974 29.664 60.562 51.91-0.412 37.492-34.196 53.558-69.214 53.558h-20.188v27.192h20.188c26.368 0 59.738 13.596 59.738 45.318 0 21.424-13.596 40.376-46.966 40.376-21.422 0-42.022-9.476-53.558-17.714l-9.474 26.368c14.008 10.298 41.2 20.598 70.038 20.598 52.734 0 76.63-31.31 76.63-63.858 0-27.604-16.48-51.086-49.44-63.034v-0.824c32.958-6.592 59.738-31.31 59.738-68.802 0-42.846-33.372-80.336-97.64-80.336-30.076 0-56.444 9.474-69.626 18.126l9.886 28.014z" />
<glyph unicode="&#xe61f;" glyph-name="two-eight-two" data-tags="two-eight-two" horiz-adv-x="1408" d="M1184.054 384.096h-1184.224v-512.096h1408.256v512.096h-224.032zM31.83-96v448.096h192.146v-448.096h-192.146zM256.024-96v448.096zM256.024-96v448.096h895.92v-448.096h-895.92zM1376.086-96h-192.032v448.096h192.032v-448.096zM602.636 75.228c0 33.784 20.188 57.678 53.146 71.686l-0.412 1.236c-29.664 14.006-42.434 37.078-42.434 60.15 0 42.434 35.842 71.274 82.81 71.274 51.912 0 77.866-32.546 77.866-65.918 0-22.66-11.124-46.966-44.082-62.622v-1.236c33.372-13.184 53.968-36.666 53.968-69.212 0-46.554-39.96-77.866-91.048-77.866-56.030-0.002-89.814 33.37-89.814 72.508zM746.832 76.876c0 32.546-22.66 48.204-58.914 58.504-31.312-9.064-48.204-29.664-48.204-55.208-1.236-27.192 19.364-51.086 53.558-51.086 32.548 0 53.56 20.188 53.56 47.79zM647.13 210.772c0-26.78 20.188-41.198 51.086-49.438 23.072 7.828 40.788 24.306 40.788 48.614 0 21.424-12.772 43.67-45.318 43.67-30.076 0-46.556-19.776-46.556-42.846zM1233.488 65.008v11.438l14.614 14.19c35.156 33.462 51.042 51.254 51.254 72.008 0 13.978-6.778 26.898-27.322 26.898-12.494 0-22.874-6.354-29.226-11.648l-5.93 13.132c9.53 8.048 23.084 13.978 38.968 13.978 29.65 0 42.146-20.332 42.146-40.028 0-25.416-18.426-45.958-47.442-73.916l-11.012-10.166v-0.424h61.842v-15.46h-87.892zM83.488 65.008v11.438l14.614 14.19c35.156 33.462 51.042 51.254 51.254 72.008 0 13.978-6.778 26.898-27.322 26.898-12.494 0-22.874-6.354-29.226-11.648l-5.93 13.132c9.53 8.048 23.084 13.978 38.968 13.978 29.65 0 42.146-20.332 42.146-40.028 0-25.416-18.426-45.958-47.442-73.916l-11.012-10.166v-0.424h61.842v-15.46h-87.892z" />
<glyph unicode="&#xe620;" glyph-name="video-i" data-tags="video-i" d="M176 32v192l192-96zM479.926 352.096v-448.096h-448.096v448.096h448.096zM511.926 384.096h-512.096v-512.096h512.096v512.096z" />
<glyph unicode="&#xe621;" d="M278.87 48h-43.112c-0.122 6.646-0.18 18.532-0.18 19.982 0 15.008 2.476 27.344 7.44 37.026 4.958 9.678 14.882 20.568 29.766 32.666 14.878 12.098 23.772 20.024 26.676 23.774 4.472 5.926 6.714 12.458 6.714 19.6 0 9.92-3.962 18.42-11.886 25.5-7.928 7.078-18.604 10.616-32.032 10.616-12.948 0-23.774-3.692-32.486-11.070-8.712-7.38-14.702-18.634-17.966-33.754l-42.712 5.806c1.33 21.656 10.554 40.044 27.676 55.17 17.116 15.122 35.478 22.684 63.31 22.684 29.276 0 52.564-7.654 69.87-22.958 17.296-15.308 23.040-33.12 23.040-53.446 0-11.252-3.16-21.9-9.512-31.94-6.352-10.046-19.87-23.714-40.674-41.016-10.77-8.956-17.518-16.152-20.118-21.598-2.606-5.444-4.060-23.012-3.814-37.042zM235.032 0v32h43.836v-32h-43.836z" />
<glyph unicode="&#xe622;" d="M255.864-128c-141.010 0-255.734 114.722-255.734 255.734s114.724 255.734 255.734 255.734c141.012 0 255.734-114.722 255.734-255.734s-114.722-255.734-255.734-255.734zM255.864 348.198c-121.562 0-220.46-98.9-220.46-220.462s98.898-220.46 220.46-220.46c121.564 0 220.46 98.898 220.46 220.46s-98.896 220.462-220.46 220.462z" />
<glyph unicode="&#xe623;" glyph-name="product-i" data-tags="product" d="M0 384v-512h512v512h-512zM480 352v-288h-448v288h448zM480-96h-448v128h448v-128zM64 0h384v-64h-384v64z" />
<glyph unicode="&#xe624;" glyph-name="six-pieces" data-tags="six-pieces" horiz-adv-x="1952" d="M319.978 352.096v-448.096h-288.048v448.096h288.048zM351.978 384.096h-352.048v-512.096h352.048v512.096zM639.954 352.096v-448.096h-288.048v448.096h288.048zM671.954 384.096h-352.048v-512.096h352.048v512.096zM959.928 352.096v-448.096h-288.048v448.096h288.048zM991.93 384.096h-352.050v-512.096h352.048v512.096h0.002zM1279.904 352.096v-448.096h-288.048v448.096h288.048zM1311.906 384.096h-352.050v-512.096h352.050v512.096zM1599.878 352.096v-448.096h-288.046v448.096h288.046zM1631.882 384.096h-352.050v-512.096h352.050v512.096zM1919.856 352.096v-448.096h-288.048v448.096h288.048zM1951.86 384.096h-352.052v-512.096h352.052v512.096z" />
<glyph unicode="&#xe625;" glyph-name="menu-i" data-tags="menu-i" d="M128 32.002h352l0.144-63.982h-352zM32 32.002h64v-64.002h-64v64.002zM128 160.004h352v-64.004h-352v64.004zM32 160.004h64v-64.002h-64v64.002zM128 288.002h352v-64h-352v64zM32 288.002h64v-64.002h-64v64.002z" />
<glyph unicode="&#xe626;" glyph-name="quicklink-i" data-tags="quicklink-i" d="M31.926 31.988h448.034l0.184-63.984h-448.034zM32 287.996h224.036v-64h-224.036v64zM32 159.994h320v-63.998h-320v63.998z" />
<glyph unicode="&#xe627;" glyph-name="empty-i" data-tags="empty-i" d="M512 352h-512v-448h512v448z" />
<glyph unicode="&#xe628;" glyph-name="eight-four" data-tags="4" horiz-adv-x="1408" d="M1056.054 384.048l-1056.224 0.048v-512.096h1408.256v512.096l-352.032-0.048zM32-96v448.096l991.946-0.048v-448.094l-991.946 0.046zM1376.086-96l-320.032-0.046v448.094l320.032 0.048v-448.096zM438.636 75.228c0 33.784 20.188 57.678 53.146 71.686l-0.412 1.236c-29.664 14.006-42.434 37.078-42.434 60.15 0 42.434 35.842 71.274 82.81 71.274 51.91 0 77.866-32.546 77.866-65.918 0-22.66-11.124-46.966-44.084-62.624v-1.236c33.372-13.184 53.97-36.666 53.97-69.212 0-46.554-39.962-77.866-91.048-77.866-56.030 0-89.814 33.372-89.814 72.51zM582.832 76.876c0 32.546-22.66 48.204-58.914 58.504-31.312-9.064-48.204-29.664-48.204-55.208-1.236-27.192 19.364-51.086 53.558-51.086 32.548 0 53.56 20.188 53.56 47.79zM483.13 210.772c0-26.78 20.188-41.2 51.086-49.438 23.072 7.826 40.788 24.306 40.788 48.614 0 21.424-12.772 43.672-45.318 43.672-30.076 0-46.556-19.776-46.556-42.848zM1239.866 7.25v72.922h-124.42v23.894l119.476 170.974h39.138v-166.44h37.49v-28.428h-37.49v-72.922h-34.194zM1239.866 108.6v89.4c0 14.008 0.412 28.016 1.236 42.024h-1.236c-8.24-15.656-14.83-27.192-22.248-39.55l-65.504-91.050v-0.822h87.752z" />
<glyph unicode="&#xe629;" glyph-name="four-eight" data-tags="8" horiz-adv-x="1408" d="M351.862-127.998l1056.224-0.048v512.096h-1408.256v-512.096l352.032 0.048zM1375.916 352.050v-448.096l-991.946 0.048v448.094l991.946-0.046zM31.83 352.050l320.032 0.046v-448.094l-320.032-0.048c0 0 0 448.096 0 448.096zM794.636 75.228c0 33.784 20.188 57.678 53.146 71.686l-0.412 1.236c-29.664 14.006-42.436 37.078-42.436 60.15 0 42.434 35.844 71.274 82.81 71.274 51.91 0 77.866-32.546 77.866-65.918 0-22.66-11.124-46.966-44.082-62.624v-1.236c33.372-13.184 53.968-36.666 53.968-69.212 0-46.554-39.96-77.866-91.048-77.866-56.028 0-89.812 33.372-89.812 72.51zM938.832 76.876c0 32.546-22.66 48.204-58.914 58.504-31.31-9.064-48.204-29.664-48.204-55.208-1.236-27.192 19.364-51.086 53.558-51.086 32.548 0 53.56 20.188 53.56 47.79zM839.13 210.772c0-26.78 20.188-41.2 51.086-49.438 23.072 7.826 40.788 24.306 40.788 48.614 0 21.424-12.772 43.672-45.318 43.672-30.074 0-46.556-19.776-46.556-42.848zM213.866 7.25v72.922h-124.42v23.894l119.476 170.974h39.138v-166.44h37.492v-28.428h-37.492v-72.922h-34.194zM213.866 108.6v89.4c0 14.008 0.412 28.016 1.236 42.024h-1.236c-8.24-15.656-14.832-27.192-22.248-39.55l-65.506-91.050v-0.822h87.754z" />
<glyph unicode="&#xe62a;" d="M476.976 51.224l-220.976-143.324-220.976 143.324z" />
<glyph unicode="&#xe62b;" d="M435.454 172.322l73.546 47.7-253 128.314-253-128.314 73.546-47.7-73.546-37.3 71.036-46.072-71.036-36.028 253-164.092 253 164.092-71.036 36.026 71.036 46.072-73.546 37.302zM67.046 216.624l188.954 95.83 188.954-95.83-188.954-122.552-188.954 122.552zM444.954 49.524l-188.954-122.552-188.954 122.552 38.034 19.29 150.92-97.884 152.042 98.612 36.912-20.018z" />
<glyph unicode="&#xe62c;" glyph-name="youtube-video-i" data-tags="youtube-video-i" d="M434 299.1c-13.35 4.45-95.674 8.9-178 8.9s-164.65-4.45-178-8.9c-35.6-11.124-44.5-89-44.5-169.1s8.9-157.974 44.5-169.1c13.35-4.45 95.674-8.9 178-8.9s164.65 4.45 178 8.9c35.6 11.124 44.5 89 44.5 169.1s-8.9 157.976-44.5 169.1zM211.5 29.876v200.248l133.5-100.124-133.5-100.124z" />
<glyph unicode="&#xe62d;" glyph-name="barcode-i" data-tags="barcode-i-3" d="M480 384h-480v-512h512v512h-32zM480-96h-448v448h448v-448zM64 320h64v-384h-64v384zM288 320h64v-384h-64v384zM176 320h32v-384h-32v384zM224 320h32v-384h-32v384zM368 320h32v-384h-32v384zM416 320h32v-384h-32v384z" />
<glyph unicode="&#xe62e;" glyph-name="spinner" data-tags="spinner" horiz-adv-x="533" d="M161.288 300.8l20.614-36.726 70.48 119.926h-137.794l18.416-32.81c-79.204-43.044-133.004-126.86-133.004-223.346 0-114.754 76.062-211.668 180.502-243.274l29.932 51.832c-87.324 19.984-152.738 98.144-152.738 191.442 0 74.746 41.996 139.764 103.592 172.956zM532.442 128.802c0 114.756-76.064 211.666-180.5 243.274l-29.934-51.836c87.324-19.98 152.738-98.142 152.738-191.438 0-74.78-42.036-139.822-103.678-173.002l-20.528 36.77-70.48-120.57h137.794l-18.616 33.344c79.312 43.012 133.204 126.888 133.204 223.458z" />
<glyph unicode="&#xe62f;" glyph-name="solid-circle" data-tags="solid-circle" d="M255.95 384c-141.184 0-256.050-114.77-256.050-255.842s114.866-255.844 256.050-255.844 256.050 114.772 256.050 255.844-114.866 255.842-256.050 255.842z" />
<glyph unicode="&#xe630;" glyph-name="image-rich-text" data-tags="image-rich-text" d="M480 352v-224.002h-448v224.002h448zM512 384h-512v-288.002h512v288.002zM0-0.166h512v-31.668h-512v31.668zM0 63.834h512v-31.668h-512v31.668zM0-64.166h512v-31.668h-512v31.668z" />
<glyph unicode="&#xe631;" glyph-name="i-settings" data-tags="i-settings" d="M197.060-130c-0.292 0-0.584 0-0.876 0-1.462 0.54-2.906 1.138-4.388 1.614-10.25 3.286-20.642 6.184-30.73 9.906-14.348 5.294-27.992 12.146-40.938 20.242 11.27 25.264 9.904 49.334-8.354 70.132-21.53 24.524-48.388 27.892-77.954 15.106-14.832 23.774-25.57 49.052-32.134 76.042 22.422 12.078 26.69 15.168 33.212 24.41 8.26 11.704 12.53 24.772 11.548 39.062-2.020 29.408-18.126 48.19-45.644 58.35 6.316 27.396 16.7 53.076 31.32 76.986 26.532-12.334 51.606-11.054 73.132 8.776 23.898 22.016 26.412 48.858 12.88 78.012 23.966 14.836 49.512 25.592 76.888 32.096 9.614-27.018 27.696-43.972 56.322-45.798 33.46-2.134 54.808 15.318 66.142 45.996 25.544-5.61 61.692-20.636 77.040-32.090-6.406-11.914-9.1-24.714-7.532-38.26 1.592-13.758 6.934-26.016 16.772-35.74 22.632-22.37 48.656-25.164 77.114-11.982 14.668-24.052 25.288-49.53 31.558-76.784-27.708-10.51-44.48-29.494-45.132-59.19-0.688-31.26 16.154-51.42 44.936-62.508-6.612-27.278-17.148-52.758-31.908-76.372-27.286 11.916-52.476 9.708-73.676-11.006-21.776-21.276-24.188-46.918-12.194-74.67-23.792-14.646-49.272-25.212-76.566-31.636-0.426 0.898-0.704 1.4-0.912 1.93-10.534 26.978-33.456 42.566-61.804 42.028-26.25-0.502-49-17.98-58.122-44.652zM256.82 0.702c69.308 0.192 125.174 56.266 124.938 125.402-0.236 69.032-56.22 124.694-125.294 124.57-69.246-0.124-125.254-56.294-125.006-125.362 0.248-68.918 56.47-124.802 125.362-124.61z" />
<glyph unicode="&#xf002;" glyph-name="search" data-tags="search" horiz-adv-x="476" d="M0 128q0 40.857 15.857 78.143t42.857 64.285 64.285 42.857 78.143 15.857 78.143-15.857 64.286-42.857 42.857-64.285 15.857-78.143q0-62.857-35.428-114l98-98q10.572-10.572 10.572-25.714 0-14.857-10.857-25.714t-25.714-10.857q-15.428 0-25.714 10.857l-98 97.715q-51.143-35.428-114-35.428-40.857 0-78.143 15.857t-64.285 42.857-42.857 64.286-15.857 78.143zM73.143 128q0-52.857 37.572-90.428t90.428-37.572 90.429 37.572 37.572 90.428-37.572 90.428-90.428 37.572-90.428-37.572-37.572-90.428z" />
<glyph unicode="&#xf00d;" glyph-name="delete-item" data-tags="times" horiz-adv-x="403" d="M31.428-12q0 11.428 8 19.428l84 84-84 84q-8 8-8 19.428t8 19.428l38.857 38.857q8 8 19.428 8t19.428-8l84-84 84 84q8 8 19.428 8t19.428-8l38.857-38.857q8-8 8-19.428t-8-19.428l-84-84 84-84q8-8 8-19.428t-8-19.428l-38.857-38.857q-8-8-19.428-8t-19.428 8l-84 84-84-84q-8-8-19.428-8t-19.428 8l-38.857 38.857q-8 8-8 19.428z" />
<glyph unicode="&#xf014;" glyph-name="trash" data-tags="trash-o" horiz-adv-x="403" d="M0 228.571v18.285q0 4 2.571 6.572t6.572 2.572h88.285l20 47.714q4.285 10.572 15.428 18t22.571 7.428h91.428q11.428 0 22.572-7.428t15.428-18l20-47.714h88.286q4 0 6.572-2.572t2.572-6.572v-18.285q0-4-2.572-6.571t-6.572-2.571h-27.428v-270.857q0-23.714-13.428-41t-32.286-17.286h-237.714q-18.857 0-32.285 16.714t-13.428 40.428v272h-27.428q-4 0-6.572 2.571t-2.571 6.571zM73.143-51.429q0-6.286 2-11.572t4.143-7.714 3-2.428h237.714q0.857 0 3 2.428t4.143 7.714 2 11.572v270.857h-256v-270.857zM109.715-9.143v164.571q0 4 2.572 6.571t6.572 2.571h18.285q4 0 6.571-2.571t2.571-6.572v-164.572q0-4-2.571-6.572t-6.572-2.572h-18.285q-4 0-6.572 2.572t-2.572 6.572zM137.143 256h128l-13.714 33.428q-2 2.572-4.857 3.143h-90.571q-2.857-0.572-4.857-3.143zM182.857-9.143v164.571q0 4 2.571 6.571t6.572 2.571h18.286q4 0 6.572-2.571t2.571-6.572v-164.572q0-4-2.571-6.572t-6.572-2.572h-18.286q-4 0-6.572 2.572t-2.571 6.572zM256-9.143v164.571q0 4 2.572 6.571t6.572 2.571h18.286q4 0 6.572-2.571t2.572-6.572v-164.572q0-4-2.572-6.572t-6.572-2.572h-18.286q-4 0-6.572 2.572t-2.572 6.572z" />
<glyph unicode="&#xf03e;" glyph-name="images" data-tags="photo, image, picture-o" horiz-adv-x="549" d="M0-64v347.428q0 18.857 13.428 32.286t32.285 13.428h457.143q18.857 0 32.285-13.428t13.428-32.286v-347.428q0-18.857-13.428-32.286t-32.286-13.428h-457.143q-18.857 0-32.285 13.428t-13.428 32.286zM36.572-64q0-3.714 2.715-6.428t6.428-2.714h457.143q3.714 0 6.428 2.714t2.715 6.428v347.428q0 3.714-2.714 6.428t-6.428 2.715h-457.143q-3.715 0-6.428-2.715t-2.715-6.428v-347.428zM73.143-36.571v54.857l91.429 91.428 45.714-45.714 146.286 146.286 118.857-118.857v-128h-402.286zM73.143 201.143q0 22.857 16 38.857t38.857 16 38.857-16 16-38.857-16-38.857-38.857-16-38.857 16-16 38.857z" />
<glyph unicode="&#xf06e;" glyph-name="preview" data-tags="preview" d="M510.97 127.902c-0.014 0.268-0.032 0.538-0.056 0.806-0.026 0.246-0.058 0.488-0.094 0.732-0.042 0.274-0.084 0.548-0.138 0.824-0.048 0.24-0.106 0.476-0.166 0.714-0.066 0.27-0.136 0.54-0.218 0.81-0.072 0.24-0.158 0.476-0.242 0.712-0.064 0.182-0.114 0.366-0.186 0.546-0.054 0.136-0.118 0.27-0.172 0.406-0.004 0.006-0.006 0.014-0.010 0.022-36.994 92.484-138.87 154.594-253.688 154.594-114.992 0-217.014-62.294-253.868-155.014-0.090-0.226-0.154-0.458-0.234-0.686-0.060-0.174-0.124-0.348-0.178-0.524-0.096-0.316-0.18-0.632-0.256-0.952-0.046-0.194-0.094-0.388-0.134-0.584-0.062-0.306-0.112-0.612-0.156-0.916-0.032-0.218-0.060-0.436-0.084-0.656-0.030-0.284-0.048-0.568-0.060-0.852-0.012-0.248-0.020-0.498-0.020-0.748 0-0.252 0.008-0.504 0.020-0.756 0.014-0.282 0.032-0.56 0.060-0.844 0.022-0.222 0.052-0.444 0.084-0.664 0.042-0.302 0.092-0.606 0.154-0.908 0.042-0.2 0.090-0.398 0.138-0.596 0.076-0.314 0.158-0.626 0.254-0.94 0.056-0.182 0.122-0.362 0.184-0.542 0.078-0.224 0.14-0.452 0.23-0.674 36.848-92.716 138.872-155.010 253.866-155.010 114.816 0 216.692 62.106 253.686 154.586 0.004 0.012 0.010 0.022 0.014 0.034 0.054 0.134 0.118 0.266 0.17 0.4 0.070 0.178 0.12 0.358 0.184 0.538 0.086 0.24 0.172 0.48 0.246 0.724 0.082 0.268 0.15 0.534 0.216 0.802 0.058 0.238 0.118 0.476 0.166 0.718 0.054 0.274 0.098 0.546 0.138 0.82 0.036 0.244 0.068 0.488 0.094 0.734 0.026 0.268 0.042 0.538 0.056 0.804 0.012 0.256 0.022 0.512 0.022 0.77s-0.010 0.514-0.022 0.77zM205.66 240.59c40.184 5.102-2.306-60.934-32.542-85.798-14.998-12.33-24.324-3.072-24.288 7.848 0 0-3.284 70.32 56.83 77.95zM256-1.798c-99.492 0-187.604 51.56-221.63 128.932 22.018 50.064 66.694 89.294 122.428 110.77-16.798-21.542-26.83-48.59-26.83-77.992 0-70.25 57.106-127.198 127.552-127.198s127.556 56.948 127.556 127.198c0 28.61-9.476 55.008-25.464 76.258 53.68-21.82 96.582-60.3 118.014-109.038-34.022-77.37-122.132-128.93-221.626-128.93z" />
<glyph unicode="&#xf071;" glyph-name="warning" data-tags="warning, exclamation-triangle" d="M4.572-55.714l219.428 402.286q4.857 8.857 13.428 14t18.572 5.143 18.572-5.143 13.428-14l219.428-402.286q10-18-0.572-36-4.857-8.286-13.286-13.143t-18.143-4.857h-438.857q-9.715 0-18.143 4.857t-13.286 13.143q-10.572 18-0.572 36zM214.857 210.286l4.857-130.571q0-2.857 2.857-4.714t6.857-1.857h52.857q4 0 6.714 1.857t3 4.714l5.143 131.143q0 3.429-2.857 5.429-3.714 3.143-6.857 3.143h-62.857q-3.143 0-6.857-3.143-2.857-2-2.857-6zM219.429-27.143q0-4 2.714-6.714t6.429-2.714h54.857q3.714 0 6.428 2.714t2.714 6.714v54.286q0 4-2.714 6.714t-6.428 2.714h-54.857q-3.714 0-6.429-2.714t-2.714-6.714v-54.286z" />
<glyph unicode="&#xf073;" glyph-name="calendar" data-tags="calendar" horiz-adv-x="476" d="M0-109.714v365.714q0 14.857 10.857 25.714t25.715 10.857h36.572v27.428q0 18.857 13.428 32.286t32.285 13.428h18.285q18.857 0 32.286-13.428t13.428-32.286v-27.428h109.714v27.428q0 18.857 13.428 32.286t32.286 13.428h18.286q18.857 0 32.286-13.428t13.428-32.286v-27.428h36.572q14.857 0 25.714-10.857t10.857-25.714v-365.714q0-14.857-10.857-25.714t-25.714-10.857h-402.286q-14.857 0-25.715 10.857t-10.857 25.714zM36.572-109.714h82.285v82.286h-82.285v-82.286zM36.572-9.143h82.285v91.428h-82.285v-91.428zM36.572 100.571h82.285v82.286h-82.285v-82.286zM109.715 237.714q0-3.714 2.715-6.428t6.428-2.714h18.285q3.714 0 6.429 2.714t2.714 6.428v82.286q0 3.714-2.714 6.428t-6.428 2.715h-18.285q-3.715 0-6.428-2.715t-2.715-6.428v-82.286zM137.143-109.714h91.429v82.286h-91.428v-82.286zM137.143-9.143h91.429v91.428h-91.428v-91.428zM137.143 100.571h91.429v82.286h-91.428v-82.286zM246.857-109.714h91.429v82.286h-91.428v-82.286zM246.857-9.143h91.429v91.428h-91.428v-91.428zM246.857 100.571h91.429v82.286h-91.428v-82.286zM329.143 237.714q0-3.714 2.714-6.428t6.428-2.714h18.286q3.714 0 6.428 2.714t2.714 6.428v82.286q0 3.714-2.714 6.428t-6.428 2.715h-18.286q-3.714 0-6.428-2.715t-2.714-6.428v-82.286zM356.572-109.714h82.286v82.286h-82.286v-82.286zM356.572-9.143h82.286v91.428h-82.286v-91.428zM356.572 100.571h82.286v82.286h-82.286v-82.286z" />
<glyph unicode="&#xf07b;" glyph-name="i-dark-folder" data-tags="folder" horiz-adv-x="476" d="M0-9.143v274.286q0 26.286 18.857 45.143t45.143 18.857h91.428q26.286 0 45.143-18.857t18.857-45.143v-9.143h192q26.286 0 45.143-18.857t18.857-45.143v-201.143q0-26.286-18.857-45.143t-45.143-18.857h-347.428q-26.285 0-45.143 18.857t-18.857 45.143z" />
<glyph unicode="&#xf07c;" glyph-name="i-dark-folder-open" data-tags="folder-open" horiz-adv-x="549" d="M0-9.143v274.286q0 26.286 18.857 45.143t45.143 18.857h91.428q26.286 0 45.143-18.857t18.857-45.143v-9.143h155.428q26.286 0 45.143-18.857t18.857-45.143v-45.715h-237.714q-26.857 0-56.286-13.572t-46.857-34.143l-97.715-114.857q0 1.143-0.143 3.572t-0.143 3.572zM20.857-57.143q0 8.857 8.857 18.857l96 113.143q12.286 14.572 34.428 24.714t41 10.143h310.857q9.715 0 17.285-3.715t7.572-12.286q0-8.857-8.857-18.857l-96-113.143q-12.286-14.572-34.428-24.714t-41-10.143h-310.857q-9.715 0-17.285 3.714t-7.572 12.286z" />
<glyph unicode="&#xf0c1;" glyph-name="links" data-tags="chain, link" horiz-adv-x="476" d="M4.572 237.714q0 34.286 24.285 58l42 41.714q23.715 23.715 58 23.715 34.571 0 58.285-24.286l58.857-59.143q23.715-23.714 23.715-58 0-35.143-25.143-59.714l25.143-25.143q24.572 25.143 59.428 25.143 34.286 0 58.286-24l59.428-59.428q24-24 24-58.286t-24.286-58l-42-41.714q-23.714-23.714-58-23.714-34.572 0-58.286 24.286l-58.857 59.143q-23.715 23.714-23.715 58 0 35.143 25.143 59.714l-25.143 25.143q-24.572-25.143-59.428-25.143-34.285 0-58.285 24l-59.428 59.428q-24 24-24 58.286zM59.428 237.714q0-11.428 8-19.428l59.428-59.428q7.714-7.714 19.429-7.714 12 0 20.572 8.857-0.857 0.857-5.428 5.286t-6.143 6.143-4.286 5.428-3.714 7.286-1 7.857q0 11.429 8 19.429t19.429 8q4.286 0 7.857-1t7.286-3.714 5.429-4.286 6.143-6.143 5.286-5.429q9.429 8.857 9.429 20.857 0 11.429-8 19.429l-58.857 59.143q-8 8-19.429 8-11.143 0-19.428-7.714l-42-41.714q-8-8-8-19.143zM260.286 36.286q0-11.428 8-19.428l58.857-59.143q7.714-7.714 19.428-7.714 11.428 0 19.428 7.428l42 41.714q8 8 8 19.143 0 11.428-8 19.428l-59.428 59.428q-8 8-19.428 8-12 0-20.572-9.143 0.857-0.857 5.428-5.286t6.143-6.143 4.286-5.428 3.714-7.286 1-7.857q0-11.428-8-19.428t-19.428-8q-4.286 0-7.857 1t-7.286 3.714-5.428 4.286-6.143 6.143-5.286 5.428q-9.428-8.857-9.428-20.857z" />
<glyph unicode="&#xf0c3;" glyph-name="i-test" data-tags="flask" horiz-adv-x="476" d="M33-91.571q-9.857 18.143 6.143 43.572l143.714 226.571v114h-18.285q-7.428 0-12.857 5.428t-5.429 12.857 5.428 12.857 12.857 5.428h146.285q7.428 0 12.857-5.428t5.428-12.857-5.428-12.857-12.857-5.428h-18.286v-114l143.714-226.571q16-25.428 6.143-43.572t-40.143-18.143h-329.143q-30.285 0-40.143 18.143zM136 36.571h203.428l-77.714 122.572-5.714 8.857v124.571h-36.572v-124.571l-5.714-8.857z" />
<glyph unicode="&#xf0c7;" glyph-name="save" data-tags="save, floppy-o" d="M0-82.286v384q0 11.428 8 19.428t19.428 8h265.143q11.428 0 25.143-5.714t21.714-13.714l80-80q8-8 13.714-21.714t5.714-25.143v-265.143q0-11.428-8-19.428t-19.428-8h-384q-11.428 0-19.428 8t-8 19.428zM36.572-73.143h36.572v118.857q0 11.428 8 19.428t19.428 8h237.714q11.428 0 19.428-8t8-19.428v-118.857h36.572v256q0 4-2.857 11t-5.714 9.857l-80.286 80.285q-2.857 2.857-9.714 5.715t-11.143 2.857v-118.857q0-11.429-8-19.429t-19.428-8h-164.571q-11.428 0-19.428 8t-8 19.428v118.857h-36.572v-365.714zM109.715-73.143h219.429v109.714h-219.429v-109.714zM182.857 192q0-3.714 2.714-6.428t6.429-2.714h54.857q3.714 0 6.429 2.714t2.714 6.428v91.428q0 3.715-2.714 6.428t-6.428 2.715h-54.857q-3.714 0-6.429-2.715t-2.714-6.428v-91.428z" />
<glyph unicode="&#xf0c9;" glyph-name="navicon" data-tags="navicon, reorder, bars" d="M0-54.857v36.572q0 7.428 5.428 12.857t12.857 5.428h402.286q7.428 0 12.857-5.428t5.428-12.857v-36.572q0-7.428-5.428-12.857t-12.857-5.428h-402.286q-7.428 0-12.857 5.428t-5.428 12.857zM0 91.429v36.572q0 7.428 5.428 12.857t12.857 5.429h402.286q7.428 0 12.857-5.428t5.428-12.857v-36.571q0-7.428-5.428-12.857t-12.857-5.428h-402.286q-7.428 0-12.857 5.428t-5.428 12.857zM0 237.714v36.572q0 7.428 5.428 12.857t12.857 5.429h402.286q7.428 0 12.857-5.429t5.428-12.857v-36.572q0-7.428-5.428-12.857t-12.857-5.429h-402.286q-7.428 0-12.857 5.428t-5.428 12.857z" />
<glyph unicode="&#xf0d0;" glyph-name="styles" data-tags="magic" horiz-adv-x="476" d="M7.715-27.429q0 7.714 5.143 12.857l367.428 367.428q5.143 5.143 12.857 5.143t12.857-5.143l56.572-56.572q5.143-5.143 5.143-12.857t-5.143-12.857l-367.428-367.428q-5.143-5.143-12.857-5.143t-12.857 5.143l-56.572 56.572q-5.143 5.143-5.143 12.857zM36.572 329.143l28 8.572 8.572 28 8.572-28 28-8.572-28-8.571-8.572-28-8.572 28zM91.428 274.286l56 17.143 17.143 56 17.143-56 56-17.143-56-17.143-17.143-56-17.143 56zM219.429 329.143l28 8.572 8.571 28 8.572-28 28-8.572-28-8.571-8.572-28-8.572 28zM309.428 230.286l30.572-30.571 83.714 83.714-30.572 30.572zM402.286 146.286l28 8.571 8.572 28 8.572-28 28-8.572-28-8.572-8.572-28-8.572 28z" />
<glyph unicode="&#xf0d7;" glyph-name="caret-down" data-tags="caret-down" horiz-adv-x="293" d="M0 164.571q0 7.429 5.428 12.857t12.857 5.428h256q7.428 0 12.857-5.428t5.428-12.857-5.428-12.857l-128-128q-5.428-5.428-12.857-5.428t-12.857 5.428l-128 128q-5.428 5.428-5.428 12.857z" />
<glyph unicode="&#xf0d8;" glyph-name="caret-up" data-tags="caret-up" horiz-adv-x="293" d="M0 18.286q0 7.428 5.428 12.857l128 128q5.428 5.428 12.857 5.428t12.857-5.428l128-128q5.428-5.428 5.428-12.857t-5.428-12.857-12.857-5.428h-256q-7.428 0-12.857 5.428t-5.428 12.857z" />
<glyph unicode="&#xf0d9;" glyph-name="caret-left" data-tags="caret-left" horiz-adv-x="183" d="M18.285 109.714q0 7.428 5.428 12.857l128 128q5.428 5.429 12.857 5.429t12.857-5.429 5.428-12.857v-256q0-7.428-5.428-12.857t-12.857-5.428-12.857 5.428l-128 128q-5.428 5.428-5.428 12.857z" />
<glyph unicode="&#xf0da;" glyph-name="caret-right" data-tags="caret-right" horiz-adv-x="183" d="M0-18.286v256q0 7.428 5.428 12.857t12.857 5.429 12.857-5.429l128-128q5.428-5.429 5.428-12.857t-5.428-12.857l-128-128q-5.428-5.428-12.857-5.428t-12.857 5.428-5.428 12.857z" />
<glyph unicode="&#xf0e2;" glyph-name="refresh" data-tags="rotate-left, undo" d="M0 164.571v128q0 12 11.428 16.857 11.143 4.857 19.715-4l37.143-36.857q30.572 28.857 69.857 44.714t81.285 15.857q44.572 0 85.143-17.428t70-46.857 46.857-70 17.428-85.143-17.428-85.143-46.857-70-70-46.857-85.143-17.428q-49.143 0-93.428 20.714t-75.428 58.428q-2 2.857-1.857 6.428t2.428 5.857l39.143 39.428q2.857 2.572 7.143 2.572 4.572-0.572 6.572-3.428 20.857-27.143 51.143-42t64.286-14.857q29.714 0 56.714 11.572t46.714 31.286 31.286 46.714 11.572 56.714-11.572 56.714-31.286 46.714-46.714 31.286-56.714 11.571q-28 0-53.714-10.143t-45.715-29l39.143-39.428q8.857-8.572 4-19.714-4.857-11.428-16.857-11.428h-128q-7.428 0-12.857 5.428t-5.428 12.857z" />
<glyph unicode="&#xf114;" glyph-name="i-folder" data-tags="folder-o" horiz-adv-x="476" d="M0-9.143v274.286q0 26.286 18.857 45.143t45.143 18.857h91.428q26.286 0 45.143-18.857t18.857-45.143v-9.143h192q26.286 0 45.143-18.857t18.857-45.143v-201.143q0-26.286-18.857-45.143t-45.143-18.857h-347.428q-26.285 0-45.143 18.857t-18.857 45.143zM36.572-9.143q0-11.428 8-19.428t19.428-8h347.428q11.428 0 19.428 8t8 19.428v201.143q0 11.429-8 19.429t-19.428 8h-201.143q-11.429 0-19.429 8t-8 19.428v18.286q0 11.428-8 19.428t-19.428 8h-91.428q-11.428 0-19.428-8t-8-19.428v-274.286z" />
<glyph unicode="&#xf115;" glyph-name="i-folder-open" data-tags="folder-open-o" horiz-adv-x="549" d="M0-9.143v274.286q0 26.286 18.857 45.143t45.143 18.857h91.428q26.286 0 45.143-18.857t18.857-45.143v-9.143h155.428q26.286 0 45.143-18.857t18.857-45.143v-45.715h54.857q15.428 0 28.285-7t19.143-20.143q4.285-9.143 4.285-19.428 0-17.714-13.143-34.286l-84.286-103.714q-12.286-15.143-33.143-25t-40-9.857h-310.857q-26.285 0-45.143 18.857t-18.857 45.143zM36.572 21.429l73.143 90q12.572 15.143 33.143 25t40 9.857h219.429v45.715q0 11.428-8 19.428t-19.428 8h-164.571q-11.429 0-19.429 8t-8 19.428v18.286q0 11.428-8 19.428t-19.428 8h-91.428q-11.428 0-19.428-8t-8-19.428v-243.714zM48.857-26.571q0-10 15.143-10h310.857q11.428 0 24.572 6.286t20.286 15.143l84 103.714q5.143 6.286 5.143 11.143 0 10-15.143 10h-310.857q-11.428 0-24.428-6.143t-20.428-15l-84-103.714q-5.143-6.857-5.143-11.428z" />
<glyph unicode="&#xf127;" glyph-name="unlink" data-tags="unlink, chain-broken" horiz-adv-x="476" d="M0 54.857q0 4 2.571 6.572t6.572 2.572h91.428q4 0 6.572-2.572t2.572-6.572-2.572-6.572-6.572-2.572h-91.428q-4 0-6.572 2.572t-2.571 6.572zM4.572 237.714q0 34.286 24.285 58l42 41.714q23.715 23.715 58 23.715 34.571 0 58.285-24.286l95.428-95.715q6-6 12-16l-68.286-5.143-78 78.286q-8 8-19.428 8-11.143 0-19.428-7.714l-42-41.715q-8-8-8-19.143 0-11.428 8-19.428l78.285-78.286-5.143-68.572q-10 6-16 12l-96 96q-24 24.572-24 58.286zM36.572-64q0 3.714 2.572 6.572l73.143 73.143q2.857 2.572 6.572 2.572t6.572-2.572q2.571-2.857 2.571-6.572t-2.572-6.572l-73.143-73.143q-2.857-2.572-6.572-2.572-3.428 0-6.572 2.572-2.572 2.857-2.572 6.572zM155.429-100.571v91.428q0 4 2.571 6.572t6.572 2.572 6.572-2.572 2.571-6.572v-91.428q0-4-2.571-6.572t-6.572-2.572-6.572 2.572-2.571 6.572zM180.857 30.857l68.285 5.143 78-78.286q7.714-7.714 19.428-7.857t19.428 7.572l42 41.714q8 8 8 19.143 0 11.428-8 19.428l-78.286 78.572 5.143 68.286q10-6 16-12l96-96q24-24.572 24-58.286 0-34.286-24.286-58l-42-41.714q-23.714-23.714-58-23.714-34.572 0-58.286 24.286l-95.428 95.714q-6 6-12 16zM301.714 265.143v91.429q0 4 2.572 6.571t6.572 2.572 6.572-2.572 2.572-6.571v-91.429q0-4-2.572-6.571t-6.572-2.572-6.572 2.572-2.572 6.571zM347.428 246.857q0 3.715 2.572 6.571l73.143 73.143q2.857 2.572 6.572 2.572t6.572-2.572q2.572-2.857 2.572-6.572t-2.572-6.572l-73.143-73.143q-3.143-2.572-6.572-2.572t-6.572 2.572q-2.572 2.857-2.572 6.571zM365.714 201.143q0 4 2.572 6.571t6.572 2.571h91.428q4 0 6.572-2.571t2.572-6.572-2.572-6.572-6.572-2.571h-91.428q-4 0-6.572 2.571t-2.572 6.572z" />
<glyph unicode="&#xf12e;" glyph-name="master1" data-tags="puzzle-piece" horiz-adv-x="476" d="M0-73.143v292.572q0.572-0.286 5-1t9.714-1.429 6.143-1q42.857-6.857 70-6.857 22.857 0 33.428 10 13.143 12.572 13.143 25.428 0 6.286-4.286 14.429t-9.572 15.143-9.572 18.428-4.285 23.714q0 23.429 16.857 36.429t41.143 13q22.857 0 38.286-12.714t15.428-35.286q0-11.714-5-22.143t-10.857-16.857-10.857-16.143-5-20.285q0-16.285 12-23.857t29.428-7.572q18.286 0 51.428 4.286t46.572 4.857v-0.571q-0.286-0.571-1-5t-1.428-9.714-1-6.143q-6.857-42.857-6.857-70 0-22.857 10-33.429 12.572-13.143 25.428-13.143 6.286 0 14.428 4.286t15.143 9.572 18.428 9.572 23.714 4.286q23.428 0 36.428-16.857t13-40.857q0-23.143-12.714-38.572t-35.286-15.428q-11.714 0-22.143 5t-16.857 10.857-16.143 10.857-20.286 5q-31.428 0-31.428-35.428 0-11.143 4.572-32.857t4.286-32.857v-1.428q-6.286 0-9.428-0.286-9.714-0.857-27.857-3.286t-33-3.857-28-1.428q-17.428 0-29.428 7.572t-12 23.857q0 10.572 5 20.286t10.857 16.143 10.857 16.857 5 22.143q0 22.572-15.428 35.286t-38.572 12.714q-24 0-40.857-13t-16.857-36.428q0-12.286 4.285-23.714t9.572-18.428 9.571-15.143 4.286-14.428q0-12.857-13.143-25.428-10.572-10-33.428-10-27.143 0-70 6.857-2.572 0.572-7.857 1.143t-7.857 1.143l-3.715 0.572q-0.285 0-0.857 0.286-0.572 0-0.572 0.286z" />
<glyph unicode="&#xf1d8;" glyph-name="post" data-tags="send, paper-plane" d="M0 72q-0.572 11.428 9.143 16.857l475.428 274.286q4.286 2.572 9.143 2.572 5.714 0 10.286-3.143 9.429-6.857 7.714-18.285l-73.143-438.857q-1.428-8.286-9.143-12.857-4-2.286-8.857-2.286-3.143 0-6.857 1.428l-129.429 52.857-69.143-84.286q-5.143-6.572-14-6.572-3.714 0-6.286 1.143-5.429 2-8.714 6.714t-3.286 10.428v99.714l246.857 302.572-305.428-264.286-112.857 46.286q-10.572 4-11.428 15.714z" />
<glyph unicode="&#xf1d9;" glyph-name="post2" data-tags="send-o, paper-plane-o" d="M0 72q-0.857 11.143 9.143 16.857l475.428 274.286q10 6 19.428-0.572 9.428-6.857 7.714-18.285l-73.143-438.857q-1.428-8.286-9.143-12.857-4-2.286-8.857-2.286-3.143 0-6.857 1.428l-150.571 61.428-85.143-93.428q-5.143-6-13.429-6-4 0-6.572 1.143-5.428 2-8.572 6.714t-3.143 10.428v129.143l-134.857 55.143q-10.572 4-11.428 15.714zM59.715 76l96-39.143 246.571 182.571-136.572-227.715 140.572-57.428 63.143 378z" />
</font>
</defs>
</svg>
