<svg data-name="class=&quot;icon alert-black&quot;" xmlns="http://www.w3.org/2000/svg" width="18.056" height="16"><path data-name="Trazado 6516" d="M17.843 13.651L10.386.786a1.574 1.574 0 00-2.725 0L.213 13.651A1.565 1.565 0 001.567 16h14.909a1.565 1.565 0 001.367-2.349zm-8.819-.6a1.074 1.074 0 111-1.071 1.035 1.035 0 01-1 1.068zm1.267-7.381l-.207 3.69a1.016 1.016 0 01-.98.984h-.191a1.011 1.011 0 01-.98-.984l-.191-3.69a1.019 1.019 0 01.98-1.1h.6a1.009 1.009 0 01.969 1.097z" fill="#ff5068"/></svg>