<svg xmlns="http://www.w3.org/2000/svg" width="208" height="90"><path d="M42 52.493a24.891 24.891 0 002.517 11.008 42.32 42.32 0 01-.4-5.966c0-11.233 4.013-21.068 10.045-26.509l-.025-.025A24.6 24.6 0 0042 52.493zm31.43-.874c-2.517-1.148-6.78-2.6-6.78-6.141 0-3 2.443-4.393 5.01-4.393 3.016 0 4.187 1.523 5.035 4.368.125.3.2.949.623.949.274 0 .424-.2.424-.5-.05-1.073-.125-2.147-.15-3.22-.05-.749.05-1.223-.7-1.523a14.919 14.919 0 00-5.184-.9c-3.789 0-7.477 2.646-7.477 6.964 0 3.669 2.792 5.342 5.633 6.665l1.969.9c2.642 1.223 4.736 2.846 4.736 6.141a5.553 5.553 0 01-5.783 5.342c-3.539 0-5.309-2.222-5.708-5.766-.05-.325-.05-1.348-.548-1.348-.424 0-.548.5-.573.824a26.966 26.966 0 00-.125 3.17c0 .749-.125 1.847.548 2.3a11.8 11.8 0 005.857 1.6 9.274 9.274 0 006.209-2.15 7.5 7.5 0 00.847-10.734 13.163 13.163 0 00-3.863-2.548zm31.854-4.244a8.3 8.3 0 00-6.231 2.846 9.6 9.6 0 00-2.492 7.114c0 5.317 3.365 9.785 7.9 9.785a7.1 7.1 0 005.483-2.371c.249-.25 1.346-1.4 1.346-1.922 0-.175-.1-.349-.274-.349-.449 0-1.745 2.771-5.134 2.771-4.187 0-6.73-4.119-6.73-8.886 0-1.4.349-1.323 1.421-1.323h10.493c.349 0 .424-.374.424-.724a8.8 8.8 0 00-1.221-4.293 5.87 5.87 0 00-4.985-2.647zm2.168 6.066a17.794 17.794 0 01-4.013.349h-2.816c-.374 0-1.171.125-1.171-.549a6.22 6.22 0 01.872-2.471 5.323 5.323 0 014.511-2.846 3.7 3.7 0 013.016 1.323 4.6 4.6 0 01.9 2.521 1.6 1.6 0 01-1.299 1.674zm-14.83-16.125a8.051 8.051 0 00-5.558 2.821c-1.3 1.5-1.545 3.644-1.695 5.616-.075 1.3.075 2.471-1.3 2.846-.324.075-.947.2-.947.674 0 .549.872.324 1.2.324 1.221 0 1.147.25 1.047 1.5v11.331c.1 1.8.424 3.22-1.695 3.445-.4.05-1.072-.05-1.072.6 0 .325.249.424.523.424 1.2 0 2.443-.175 3.639-.175 1.271 0 2.517.175 3.863.175.274 0 .474-.075.474-.449 0-.549-.723-.5-1.1-.549-2.144-.2-1.77-1.647-1.869-3.445V51.12c.1-1.5.025-1.5 1.471-1.573h2.767c.523.05 1.072.225 1.072-.474 0-.5 0-.749-.548-.774H89.78c-1.67 0-1.545-.075-1.645-1.872v-2.1c.1-2.047.449-5.791 3.091-5.791 1.147 0 1.944.974 2.642 1.8.249.3.748.924 1.147.924.523 0 1.1-1.972 1.1-2.4-.05-1.173-2.792-1.548-3.489-1.548zM125.1 47.675c-2.742 0-4.287 3.445-4.686 3.445-.274 0-.2-.724-.2-.9v-2.119c0-.3.05-.7-.349-.7-.324 0-.523.349-.723.549a8.907 8.907 0 01-3.29 2.247c-.349.125-.922.225-.922.724 0 .25.249.349.474.349h.523c.324 0 .922.05 1.147.349.449.474.4 2.147.4 2.746v8.088c0 1.847.349 3.32-1.795 3.52-.449.05-1.122-.05-1.122.6 0 .349.274.424.548.424 1.221 0 2.492-.175 3.764-.175 1.2 0 2.468.175 3.739.175a.422.422 0 00.474-.474c0-.549-.723-.524-1.122-.549-2.144-.225-1.795-1.672-1.795-3.52v-6.816c0-1.722-.05-2.846.922-4.318.474-.649 1.147-1.548 2.019-1.548 1.122 0 1.2 1.647 2.542 1.647a1.611 1.611 0 001.67-1.722 2.034 2.034 0 00-2.218-2.022zm22.233 16.1c-.349 0-.8 1.048-1.795 1.048-1.421 0-1.4-2.446-1.4-3.37v-9.96c0-1.148.15-2.247-.8-3.07a5.326 5.326 0 00-3.614-1.1 10.731 10.731 0 00-7.1 2.921 4.721 4.721 0 00-1.67 3c0 .424.2.5.523.5a5.141 5.141 0 001.72-.549c.648-.3.823-.874 1.122-1.523.922-2.147 2.144-3.545 4.561-3.545 2.468 0 2.542 1.722 2.542 3.794v1.847c0 1.6-.05 1.647-1.471 2.371l-3.066 1.523c-2.193 1.148-5.882 2.921-5.882 5.916a3.493 3.493 0 003.739 3.32c3.465 0 6.032-3.2 6.406-3.2.548 0 .748 2.945 2.692 2.945a5.039 5.039 0 002.816-1.223c.274-.25.947-.849.947-1.3a.316.316 0 00-.272-.344zM141.4 57.56v2.521a3.866 3.866 0 01-1 3.17 5.129 5.129 0 01-3.689 1.7 2.489 2.489 0 01-2.742-2.5c0-2.022 1.545-3.12 3.091-3.969l3.614-1.947a1.669 1.669 0 01.449-.175c.401.027.277 1.026.277 1.2zm22.083-10.085a42.321 42.321 0 01.4 5.966c0 11.233-4.038 21.068-10.045 26.534l.025.025A24.566 24.566 0 00166 58.509a25 25 0 00-2.517-11.033z"/><path data-name="MI CUENTA" d="M43.119 18.025l1.847 3.941 1.839-3.941h1.111v5.934h-.872l-.007-4.434-1.767 3.815h-.616l-1.766-3.815v4.434H42v-5.934zm17.581 0v5.934h-.944v-5.934zm27.5 1.619a2.182 2.182 0 00-.716-.555 1.917 1.917 0 00-.844-.2 1.924 1.924 0 00-.788.161 1.968 1.968 0 00-.632.441 2.085 2.085 0 00-.424.661 2.151 2.151 0 00-.156.822 2.151 2.151 0 00.156.822 2.137 2.137 0 00.424.665 1.936 1.936 0 00.632.445 1.924 1.924 0 00.788.161 1.944 1.944 0 00.836-.189 2.526 2.526 0 00.728-.513l.56.661a3.292 3.292 0 01-1 .712 2.751 2.751 0 01-1.167.263 2.826 2.826 0 01-1.149-.233 2.864 2.864 0 01-.924-.64 2.984 2.984 0 01-.616-.958 3.121 3.121 0 01-.224-1.186 3.01 3.01 0 01.228-1.178 2.978 2.978 0 01.624-.945 2.876 2.876 0 01.932-.631 2.921 2.921 0 011.159-.229 2.9 2.9 0 011.159.242 2.887 2.887 0 01.967.674zm11.714 1.857a1.638 1.638 0 00.4 1.178 1.447 1.447 0 001.1.424 1.418 1.418 0 001.087-.42 1.656 1.656 0 00.4-1.182v-3.476h.944V21.5a3.05 3.05 0 01-.169 1.048 2.181 2.181 0 01-.48.784 2.09 2.09 0 01-.764.5 2.823 2.823 0 01-1.023.169 2.823 2.823 0 01-1.019-.176 2.129 2.129 0 01-.768-.5 2.152 2.152 0 01-.484-.784 3.05 3.05 0 01-.168-1.047v-3.469h.944zm18.636-3.476v.9h-3.054v1.61h2.735v.89h-2.735v1.635h3.15v.9h-4.094v-5.935zm12.536 0l3 4.263v-4.263h.928v5.934h-.928l-2.984-4.255v4.255h-.944v-5.934zm18.59 0v.9h-1.777v5.034h-.943v-5.034h-1.767v-.9zm14.781 4.595h-2.823l-.535 1.339h-.983l2.47-5.934h.967L166 23.959h-1.007zm-.36-.89l-1.055-2.636-1.056 2.631z" fill="#484848"/></svg>