<svg xmlns="http://www.w3.org/2000/svg" viewBox="0 0 211.914 23.707"><path d="M12.246 14.67a5.583 5.583 0 0 1-4.085 1.864 4.725 4.725 0 0 1-4.614-5.023 4.7 4.7 0 0 1 4.614-4.98 5.63 5.63 0 0 1 3.977 1.779l.288.267 2.2-2.537-.261-.249A8.229 8.229 0 0 0 8.181 3.33a8.023 8.023 0 0 0-8.18 8.224 7.95 7.95 0 0 0 8.073 8.181 8.2 8.2 0 0 0 6.412-2.8l.257-.267-2.227-2.255-.27.252zM20.532 3.59h-3.416v15.886h11.371v-3.179h-7.953zM31.139 3.59h3.416v15.886h-3.416zM49.91 14.67a5.583 5.583 0 0 1-4.085 1.865 4.725 4.725 0 0 1-4.614-5.023 4.7 4.7 0 0 1 4.614-4.98 5.63 5.63 0 0 1 3.977 1.779l.288.267 2.2-2.537-.261-.249a8.229 8.229 0 0 0-6.185-2.461 8.023 8.023 0 0 0-8.181 8.224 7.95 7.95 0 0 0 8.073 8.181 8.2 8.2 0 0 0 6.412-2.8l.257-.267-2.229-2.252-.27.252zM62.488 10.503l6.685-6.913h-4.319l-6.658 7.033V3.59H54.78v15.886h3.416v-4.612l1.94-1.994 5.018 6.606h4.17zM82.233 16.046a2.3 2.3 0 0 0 2.562 2.209 4.269 4.269 0 0 0 2.77-1.17l-3.458-3.525a2.8 2.8 0 0 0-1.874 2.485zM87.632 7.501A1.529 1.529 0 0 0 86 5.869a1.624 1.624 0 0 0-1.707 1.758 3.15 3.15 0 0 0 1.064 2.194c1.591-.616 2.275-1.317 2.275-2.32z"/><path d="M75.157 0v23.707h23.138V0H75.157zm17.009 21.8l-2.31-2.36a7.935 7.935 0 0 1-5.388 2.141c-3.6 0-6.11-2.234-6.11-5.432 0-2.255 1.191-3.971 3.541-5.1A5.861 5.861 0 0 1 80.646 7.5c0-2.4 1.866-4.829 5.431-4.829 2.928 0 5.054 1.957 5.054 4.652 0 2.139-1.173 3.694-3.581 4.738l2.289 2.326a26.182 26.182 0 0 0 1.6-2.954l.169-.359 3.017 1.59-.165.336a28.619 28.619 0 0 1-2.233 3.814l2.851 2.9-2.912 2.086zM138.456 3.718h-4.453l-5.238 5.087-1.184-5.087h-3.912l2.185 7.619-8.942 8.208h4.453l5.455-5.314 1.283 5.314h3.912l-2.265-7.824zM150.659 5.324c-.97-1.153-2.458-1.605-4.72-1.605h-5.014l-6.762 15.827h3.482l2.047-4.793h3.007c4.318 0 8.042-2.239 8.665-6.173a3.856 3.856 0 0 0-.705-3.256zm-2.982 3.548c-.283 1.786-2.007 2.826-4.314 2.826h-2.373l2.055-4.839h2.261a2.474 2.474 0 0 1 2.059.7 1.588 1.588 0 0 1 .312 1.311zM116.847 13.102l1.32-3.053h-7.348l1.371-3.237h8.365l1.328-3.1h-11.825l-6.757 15.834h11.937l1.328-3.1h-8.499l1.435-3.347zM192.211 3.492c-3.391 0-6.6 1.989-7.113 5.223-.369 2.329 1.288 3.437 3.212 4.274 1.989.859 2.483 1.311 2.362 2.08-.157 1-1.279 1.651-2.681 1.651a4.805 4.805 0 0 1-4.1-2.08l-2.973 2.216c1.188 1.923 3.382 2.916 6.434 2.916 3.323 0 6.594-1.945 7.119-5.268.365-2.305-1.09-3.391-3.121-4.274-2.009-.881-2.584-1.243-2.452-2.08a2.4 2.4 0 0 1 2.56-1.605 4.416 4.416 0 0 1 3.531 1.7l2.776-2.4a6.543 6.543 0 0 0-5.551-2.351zM206.365 3.492c-3.391 0-6.6 1.989-7.113 5.223-.369 2.329 1.288 3.437 3.212 4.274 1.989.859 2.483 1.311 2.36 2.08-.157 1-1.279 1.651-2.681 1.651a4.805 4.805 0 0 1-4.1-2.08l-2.974 2.216c1.188 1.923 3.382 2.916 6.434 2.916 3.323 0 6.594-1.945 7.121-5.268.365-2.305-1.09-3.391-3.121-4.274-2.009-.881-2.584-1.243-2.452-2.08a2.4 2.4 0 0 1 2.56-1.605 4.416 4.416 0 0 1 3.531 1.7l2.776-2.4a6.543 6.543 0 0 0-5.551-2.351zM167.521 8.489a3.876 3.876 0 0 0-.717-3.188c-.895-1.062-2.417-1.583-4.769-1.583h-5.766l-6.757 15.827h3.482l2.158-5.065h2.6l1.639 5.065h3.956l-1.835-5.4c3.494-.791 5.554-2.8 6.005-5.652zm-3.686.294c-.276 1.742-2.089 2.623-4.259 2.623h-3.1l1.94-4.544h2.917a2.837 2.837 0 0 1 2.2.656 1.456 1.456 0 0 1 .3 1.267zM174.841 6.812h8.365l1.328-3.1h-11.825l-6.757 15.827h11.933l1.328-3.1h-8.5l1.435-3.347h7.348l1.32-3.053h-7.349z"/></svg>