<svg xmlns="http://www.w3.org/2000/svg" viewBox="0 0 115.958 65.182">
  <path  fill="#f0f0f0" d="M79.72 47.109a3.534 3.534 0 0 0 3.4 3.624h29.44a3.5 3.5 0 0 0 3.4-3.624 3.534 3.534 0 0 0-3.4-3.624H83.12a3.534 3.534 0 0 0-3.4 3.624z"
  />
  <path d="M94.217 7.746A7.742 7.742 0 0 0 86.471 0H7.746A7.771 7.771 0 0 0 0 7.746v49.69a7.742 7.742 0 0 0 7.746 7.746h78.725a7.771 7.771 0 0 0 7.746-7.746zm-9.059-.634a1.191 1.191 0 0 1 .634 2.174c-4.122 2.944-24.1 18.254-33.383 24.732a8.466 8.466 0 0 1-9.558.091L7.973 9.332a1.2 1.2 0 0 1 .634-2.174h.045c.048-.046 76.505-.046 76.505-.046zm0 51H8.7a1.566 1.566 0 0 1-1.54-1.585V19.749a1.2 1.2 0 0 1 1.857-1L43.077 41.9a8.446 8.446 0 0 0 9.24-.091L84.84 18.8a1.176 1.176 0 0 1 1.857 1v36.781a1.527 1.527 0 0 1-1.54 1.534z"
    fill="#c5c5c5" />
  <path fill="#f0f0f0" d="M72.429 32.75a3.534 3.534 0 0 0 3.4 3.624h29.443a3.5 3.5 0 0 0 3.4-3.624 3.534 3.534 0 0 0-3.4-3.624H75.829a3.475 3.475 0 0 0-3.4 3.624z"
  />
</svg>