<svg xmlns="http://www.w3.org/2000/svg" width="64" height="64" x="0px" y="0px" viewBox="0 0 64 64" focusable="false" ><defs><clipPath id="a"><path fill="none" d="M0 0h64v64H0z"/></clipPath></defs><g clip-path="url(#a)"><path d="M2.667 47.333A1.434 1.434 0 0 0 4 48.667h23.067a1.149 1.149 0 0 1 1.067.4l5.2 5.867v-4.667a1.712 1.712 0 0 1 1.467-1.6H40c1.067 0 1.333-.4 1.333-1.333v-6.667H44V47.6a3.758 3.758 0 0 1-3.867 3.733H36V58c0 .533-.667 1.067-1.067 1.2a2.269 2.269 0 0 1-.933.133 1.44 1.44 0 0 1-.933-.4l-6.8-7.6h-22.4A3.758 3.758 0 0 1 0 47.6V23.067a3.758 3.758 0 0 1 3.867-3.733h14.8V22H4a1.315 1.315 0 0 0-1.333 1.2zm6.666-14.666h5.333V38H9.333zM60.267 6h-35.2a3.727 3.727 0 0 0-3.733 3.733v24.534A3.727 3.727 0 0 0 25.067 38h4.267v6.667A1.4 1.4 0 0 0 30.4 46a1.573 1.573 0 0 0 1.6-.4l6.533-7.6h21.734A3.727 3.727 0 0 0 64 34.267V9.733A3.815 3.815 0 0 0 60.267 6zm1.067 28.133a1.2 1.2 0 0 1-1.2 1.2H37.6a1.21 1.21 0 0 0-.933.4l-4.667 6V36.8a1.567 1.567 0 0 0-1.333-1.467H25.2a1.2 1.2 0 0 1-1.2-1.2V9.867a1.2 1.2 0 0 1 1.2-1.2H60a1.231 1.231 0 0 1 1.333 1.2v24.266zM37.333 22a2.667 2.667 0 1 1-2.667-2.667A2.675 2.675 0 0 1 37.333 22zm8 0a2.667 2.667 0 1 1-2.667-2.667A2.675 2.675 0 0 1 45.333 22zm8 0a2.667 2.667 0 1 1-2.667-2.667A2.675 2.675 0 0 1 53.333 22z"/></g></svg>