<svg xmlns="http://www.w3.org/2000/svg" width="224" height="224"><defs><clipPath id="a"><path fill="none" d="M0 0h224v224H0z"/></clipPath><clipPath id="b"><path fill="none" d="M0 0h117v94.154H0z"/></clipPath></defs><g data-name="_image _unboxing" clip-path="url(#a)"><g clip-path="url(#a)" fill="#45d5d5"><circle data-name="Elipse 499" cx="112" cy="112" r="112" opacity=".077"/><circle cx="75" cy="75" r="75" transform="translate(37 37)" opacity=".08"/><circle data-name="Ellipse" cx="46" cy="46" r="46" transform="translate(66 66)" opacity=".16"/></g><g transform="translate(52.61 65)" clip-path="url(#b)"><path data-name="Trazado 8054" d="M7.615 87.231l54-4.154V21.462L7.615 27z" fill="#dfa666"/><path data-name="Trazado 8055" d="M110.077 87.231l-48.462-4.154V21.462L110.077 27z" fill="#bc7b3f"/><path data-name="Trazado 8052" d="M7.615 27l48.462 4.154v63L7.615 87.231z" fill="#f6c079"/><path data-name="Trazado 8056" d="M61.615 21.462L68.538 0 117 4.154 110.077 27z" fill="#fcd6a5"/><path data-name="Trazado 8057" d="M61.615 21.462L53.913 0 0 4.154 7.7 27z" fill="#f6c079"/><path data-name="Trazado 8053" d="M110.077 27l-54 4.154v63l54-6.923z" fill="#dfa668"/><g data-name="Group 13548"><path data-name="Path 6070" d="M110.769 54.692v6.923l-54.692 6.231V60.23z" fill="#bc7b3f"/><path data-name="Path 6070" d="M89.705 56.824v7.222l-8.013.876v-7.284z" fill="#a76e38"/><path data-name="Path 6072" d="M82.385 31.154h6.923v59.541l-6.923.692z" fill="#bc7b3f"/></g><g data-name="Group 13548"><path data-name="Path 6070" d="M7.158 54.692v6.923l48.919 6.231V60.23z" fill="#dfa666"/><path data-name="Path 6070" d="M25.954 56.817v7.178l7.211.922v-7.284z" fill="#a76e38"/><path data-name="Path 6072" d="M32.545 31.154h-6.192v59.541l6.192.692z" fill="#dfa666"/></g><path data-name="Trazado 8060" d="M0 47.769L7.615 27l48.462 4.154L49.154 54z" fill="#fcd6a5"/><path data-name="Trazado 8061" d="M117 47.769L109.99 27l-53.913 4.154L63.692 54z" fill="#f6c079"/></g></g></svg>