<svg xmlns="http://www.w3.org/2000/svg" viewBox="0 0 17 25"><path d="M8.498 24.994c-.324-.4-.637-.774-.952-1.164a51.411 51.411 0 0 1-4.7-6.8l-.125-.236a23.886 23.886 0 0 1-2.276-5.161l-.046-.17a9.129 9.129 0 0 1-.4-2.7 9.33 9.33 0 0 1 .389-2.68l-.017.064A8.579 8.579 0 0 1 8.511 0a8.449 8.449 0 0 1 6.917 3.637l.017.025a8.626 8.626 0 0 1 1.47 3.74l.006.047a9.98 9.98 0 0 1 .077 1.272 10.264 10.264 0 0 1-.7 3.746l.023-.067a27.282 27.282 0 0 1-2.472 5.159l.064-.111a55.711 55.711 0 0 1-5.291 7.416l.056-.067a2.585 2.585 0 0 1-.181.2z" fill="#4fa04f"/><path d="M13.994 6.192v-.007a.129.129 0 0 0 0-.041.036.036 0 0 0 0-.018.089.089 0 0 0-.009-.032v-.018c0-.008-.009-.023-.014-.037a.019.019 0 0 0 0-.01l-.044-.044-.009-.01-.023-.028-.014-.014c-.009-.01-.018-.014-.027-.023s-.009-.01-.014-.01h-.009a.1.1 0 0 1-.023-.014.015.015 0 0 1-.009 0c-.014-.01-.032-.014-.046-.023L8.616 4.02a.386.386 0 0 0-.248 0L3.24 5.856a.151.151 0 0 0-.046.023.015.015 0 0 0-.009 0 .1.1 0 0 0-.023.014h-.009c-.009 0-.009.01-.014.01s-.018.014-.027.023l-.014.014a.127.127 0 0 0-.023.028l-.012.017-.027.041a.019.019 0 0 1 0 .01c0 .014-.009.023-.014.037s0 .01 0 .018 0 .023-.009.032a.036.036 0 0 1 0 .018.134.134 0 0 1-.013.044v6.088a.367.367 0 0 0 .215.335l5.138 2.36.047.017a.018.018 0 0 1 .014 0c.014 0 .023 0 .037.009h.056a.13.13 0 0 0 .041 0 .018.018 0 0 0 .014 0h.046l.037-.014h.009l5.12-2.36a.37.37 0 0 0 .215-.335V6.208zm-5.5-1.446l1.64.587L6.27 6.898l-1.841-.693 4.066-1.46zM3.728 12.04V6.725l4.396 1.66v5.673l-4.4-2.02zm4.767-4.3l-.481-.184L6.9 7.137l3.884-1.574 1.781.638zm4.762 4.3l-4.391 2.024V8.391l4.4-1.666v5.314z" fill="#fff"/></svg>