<svg xmlns="http://www.w3.org/2000/svg" viewBox="0 0 17 25"><path d="M8.498 24.994c-.324-.4-.637-.774-.952-1.164a51.411 51.411 0 0 1-4.7-6.8l-.125-.236a23.886 23.886 0 0 1-2.276-5.161l-.046-.17a9.129 9.129 0 0 1-.4-2.7 9.33 9.33 0 0 1 .389-2.68l-.017.064A8.579 8.579 0 0 1 8.511 0a8.449 8.449 0 0 1 6.917 3.637l.017.025a8.626 8.626 0 0 1 1.47 3.74l.006.047a9.98 9.98 0 0 1 .077 1.272 10.264 10.264 0 0 1-.7 3.746l.023-.067a27.282 27.282 0 0 1-2.472 5.159l.064-.111a55.711 55.711 0 0 1-5.291 7.416l.056-.067a2.585 2.585 0 0 1-.181.2z" fill="#4fa04f"/><path d="M13.433 8.754l-1.607-1.609V4.566a.088.088 0 0 0-.088-.088h-1.155a.091.091 0 0 0-.091.091v1.248l-1.68-1.674a.488.488 0 0 0-.691 0L3.571 8.73a.242.242 0 0 0 .172.413H4.76V12.793a.322.322 0 0 0 .2.351h2.2v-2.153a.515.515 0 0 1 .515-.515h1.636a.515.515 0 0 1 .515.515v2.151h2.194a.324.324 0 0 0 .2-.353V9.143h1.057a.229.229 0 0 0 .162-.391z" fill="none" stroke="#fff"/></svg>