<svg xmlns="http://www.w3.org/2000/svg" viewBox="0 0 17 25"><path d="M8.502 25.006c-.3-.4-.6-.8-1-1.2-1.7-2.1-3.3-4.4-4.7-6.8l-.1-.2c-.9-1.6-1.7-3.4-2.3-5.2v-.2c-.3-.8-.4-1.7-.4-2.6 0-.9.1-1.8.4-2.7v.1c1.1-3.6 4.4-6.1 8.1-6.1 2.8 0 5.3 1.4 6.9 3.6.8 1.1 1.3 2.4 1.5 3.7.1.5.1.9.1 1.3 0 1.3-.2 2.6-.7 3.7v-.1c-.6 1.8-1.5 3.5-2.5 5.2l.1-.1c-1.6 2.6-3.3 5.1-5.3 7.4l.1-.1c-.1.2-.1.2-.2.3z" fill="#4fa04f"/><path d="M12.302 5.306l-2.5-1.3h-.5l-3.6 1.4c-.2 0-.3.2-.3.4v3.3c-.4.1-1.2.5-1.3.5-.1.1-.1.2-.1.3v4.8c0 .2.1.3.3.3H12.002c.2 0 .4-.2.4-.4v-8.9c.1-.1 0-.3-.1-.4zm-6.9 9h-.7v-4.2c.2-.1.4-.2.7-.3v4.5zm.7-5.1v-3.3l3.2-1.1v9.5h-3.2v-5.1zm5.6 5.1h-1.7v-9.4l1.8.9-.1 8.5zm-5.3-5.9v-2l3.2.5-3.2 1.5z" fill="#fff"/></svg>