<svg xmlns="http://www.w3.org/2000/svg" viewBox="0 0 264.564 242.041"><defs><style>.d{fill:#fff}.h{fill:#001c28}.j{fill:#192345}.l{fill:#f2f2f2}.m{fill:#dfa666}.n{fill:#bc7b3f}.q{fill:#f6c079}.r{fill:#dfa668}.s{fill:#008c2e}</style><clipPath id="a"><path transform="rotate(-30 163.589 43.833)" fill="rgba(250,250,250,.01)" stroke="#fc4965" d="M0 0h175.334v178.256H0z"/></clipPath></defs><g transform="translate(.669)" clip-path="url(#a)"><path d="M14.35 201.66c13.826.1 29.652.211 46.886.342l-.1 98.644-18.9 5.064zm61.583.454l28.331.219-3.24 87.623-25.19 6.75zm40.583.316c10.483.083 21.207.167 32.07.255 1.345 15.585 4.018 47.174 6.184 72.871l-41.367 11.084zm38 40.977a36507.253 36507.253 0 0 0-2.959-34.809l-.507-5.894 32.773.265a7.969 7.969 0 0 1 7.9 7.955l.077 48.583a7.964 7.964 0 0 1-5.9 7.708l-28.722 7.7-2.666-31.507zm51.974 7.921l-.019-11.947a7.967 7.967 0 0 1 8.006-7.98l52.588.256-.325 13.9-50.222 13.455a7.953 7.953 0 0 1-10.029-7.683zm75.247-18.423l17.136 2.709a.672.672 0 0 1 .069 1.312l-17.407 4.664zm49.227-4.62l-48.946-7.733.391-16.772c35.924.3 69.085.579 95.758.8a.667.667 0 0 1 .66.685l-.192 9.8a.672.672 0 0 1-.5.635l-46.9 12.567a.668.668 0 0 1-.173.023.685.685 0 0 1-.102-.007zm-116.61-9.133a7.968 7.968 0 1 1 .1-15.935c18 .148 35.881.3 53.26.44l-.368 15.753zm176.607-7.769l.119-6.022a.672.672 0 0 1 .678-.659l21.667.185a.672.672 0 0 1 .168 1.32l-21.787 5.838a.671.671 0 0 1-.845-.662zm31.988-21.113l-30.886-.264a.672.672 0 0 1-.666-.685l.836-42.449a.67.67 0 0 1 .674-.658l18.625.069a.671.671 0 0 1 .645.5l11.427 42.644a.671.671 0 0 1-.647.844zm-44.478-.381l-40.987-.349a.672.672 0 0 1-.667-.689l1.144-42.187a.671.671 0 0 1 .674-.653l40.679.151a.672.672 0 0 1 .668.685l-.835 42.385a.672.672 0 0 1-.67.658zm-54.581-.463l-40.453-.341a.671.671 0 0 1-.666-.686l.976-41.937a.669.669 0 0 1 .673-.656l40.618.151a.672.672 0 0 1 .669.69l-1.141 42.125a.671.671 0 0 1-.673.653zm-137.09-.914a7.962 7.962 0 0 1-7.9-7.954l-.057-35.045 90.212.235-1 43.209c-18.773-.159-64.17-.308-81.256-.447zm-32.386-.248c-24.1-.2-17.072-.373-37.353-.531l.87-23.535a27.823 27.823 0 0 0 2.917-.617 28.244 28.244 0 0 0 19.4-18.316l22.145.193.057 34.826a7.975 7.975 0 0 1-7.975 7.981zm-79.4-.854l-4.466-44.28 15.569-.568c.085.38.177.755.277 1.129a28 28 0 0 0 19.305 19.723l-.895 24.223q-15.719-.124-29.786-.229zm-39.505-.286l-7.265-42.448 27.585-1.008 4.4 43.634q-13.201-.098-24.719-.179zm-25.1-.168L-.637 145.73l26.412-.966 7.243 42.341q-12.288-.084-22.609-.151zm85.9-45.553a17.231 17.231 0 1 1 16.656 12.78 17.2 17.2 0 0 1-16.654-12.781zm311.569-7.382l-14.711-.055a.671.671 0 0 1-.668-.685l1.007-51.091a.671.671 0 0 1 1.32-.16l13.7 51.145a.672.672 0 0 1-.649.846zm-28.305-.108l-40.579-.151a.671.671 0 0 1-.668-.689l1.37-50.6a.673.673 0 0 1 .668-.653l40.212-.217a.673.673 0 0 1 .675.686l-1 50.965a.671.671 0 0 1-.671.657zm-54.173-.2l-40.672-.152a.672.672 0 0 1-.669-.686l1.162-50.1a.671.671 0 0 1 .668-.656l40.876-.221a.671.671 0 0 1 .675.69l-1.367 50.472a.67.67 0 0 1-.669.653zm-336.582-27.342l62.894-3.537 2.888 28.621-58.489 2.138zm279.867 27.124l-89.275-.233-.04-24.96 89.853 1.378a.671.671 0 0 1 .656.687l-.522 22.473a.669.669 0 0 1-.669.656zm-127.2-.476a27.951 27.951 0 0 0-.753-3.89 28.243 28.243 0 0 0-20.314-19.995l-.032-24.919 41.95 1.556.041 47.436zM64.746 85.601l43.124-.97.3 24.175q-.948.184-1.879.434a28.087 28.087 0 0 0-20.174 21.064l-16.795.613zm204.765 11.832l-88.993-1.383-.021-13.508 89.346-.343a.671.671 0 0 1 .674.687l-.322 13.891a.67.67 0 0 1-.67.656zM-5.708 53.112l21.542-.376 4.164 39.614-26.305 1.48zm24-.418l22.366-.389a3.529 3.529 0 0 1 3.524 2.845l5.561 28.176.738 7.311-28.034 1.576zm43.859 17.589a3.531 3.531 0 0 1 2.137-3.955l57.373-23.267a3.529 3.529 0 0 1 4.853 3.4l-.875 23.063-63.356 1.424zm76.808-28.82a3.53 3.53 0 0 1 3.591-3.395l24.236.44a3.528 3.528 0 0 1 3.462 3.644l-.863 26.393-31.48.708zm43.655-2.667l9.891.18-.8 29.068-10.051.226zm24.587.447l49.3.9a1.6 1.6 0 0 0 1.627-1.586l.342-48.289 14.2-.234c-.583 25.319-1.183 51.348-1.773 76.817a.671.671 0 0 1-.668.655l-63.812.343zm78.394 27.486l.735-31.756 42.231.707-.714 30.858a.671.671 0 0 1-.668.655l-40.909.221a.671.671 0 0 1-.675-.686zm54.5-.3l.707-30.547 29.266.49L369 66.32a.674.674 0 0 1-.668.649l-27.563.148a.671.671 0 0 1-.669-.685zm41.167-.23l.936-26.217a.671.671 0 0 1 1.319-.151l7.014 26.176a.672.672 0 0 1-.645.845l-7.948.042a.672.672 0 0 1-.672-.692zM58.344 50.993l-13.32-67.48a3.528 3.528 0 0 1 2.7-4.13l51.927-11.45a3.531 3.531 0 0 0 2.725-4.01l-6.107-37.765a3.53 3.53 0 0 1 3.049-4.066l52.128-6.481a3.529 3.529 0 0 1 3.96 3.683l-1.3 25.321a3.529 3.529 0 0 1-3.556 3.348l-16.871-.148a3.529 3.529 0 0 0-3.557 3.4l-2.809 74.1a3.53 3.53 0 0 1-2.2 3.137l-61.98 25.131a3.524 3.524 0 0 1-4.789-2.587zm282.52-17.557l1.03-44.548 27.854-.458 1.736 6.478a1.6 1.6 0 0 1 .052.47l-1.375 38.548zm-54.477-.914c.332-14.332.661-28.647.985-42.736l42.267-.7-1.021 44.144zm-42.049-4.856l-36.8-.669.995-35.913 37.681-.62-.251 35.615a1.6 1.6 0 0 1-1.6 1.587zm-56.349-1.023a4.9 4.9 0 0 1-4.812-5.06l1.841-56.42a4.761 4.761 0 0 1 9.517.288l-1.56 56.427a4.905 4.905 0 0 1-4.9 4.768zm-20.7-.376l-1.443-.026a3.53 3.53 0 0 1-3.461-3.709l3.011-58.811a3.53 3.53 0 0 1 3.556-3.349h.356a3.529 3.529 0 0 1 3.5 3.645l-1.924 58.833a3.529 3.529 0 0 1-3.527 3.415zm-20.757-.376l-3.377-.062a3.529 3.529 0 0 1-3.462-3.662l2.225-58.604a3.529 3.529 0 0 1 3.558-3.4l4.155.036a3.53 3.53 0 0 1 3.487 3.714l-3 58.63a3.53 3.53 0 0 1-3.524 3.35z" fill="#e8e0d0"/></g><path class="d" d="M113.976 158.607a22.033 22.033 0 1 1 22.033-22.033 22.033 22.033 0 0 1-22.033 22.033m28.546-22.033a28.545 28.545 0 1 0-47.801 21.072l-3.564 3.563a2.482 2.482 0 0 0 3.51 3.509l4.034-4.033a28.518 28.518 0 0 0 30.55 0l4.033 4.033a2.482 2.482 0 0 0 3.51-3.509l-3.563-3.562a28.471 28.471 0 0 0 9.292-21.073"/><path d="M118.486 153.386a17.86 17.86 0 1 0-21.877-12.625 17.88 17.88 0 0 0 21.877 12.625" fill="#8c8"/><path d="M101.178 131.458a1.368 1.368 0 0 0 .5 1.87l10.67 6.16a1.363 1.363 0 0 0 1.013.143l13.294-3.294a1.37 1.37 0 0 0-.66-2.658l-12.758 3.164-10.19-5.884a1.368 1.368 0 0 0-1.87.5" fill="#606d7c"/><path class="d" d="M126.793 105.913a3.288 3.288 0 0 0 0 4.649l11.543 11.542a3.287 3.287 0 0 0 4.648-4.649l-11.542-11.542a3.286 3.286 0 0 0-4.649 0"/><g><path class="d" d="M96.258 105.913l-11.545 11.544a3.287 3.287 0 0 0 4.647 4.65l11.545-11.545a3.287 3.287 0 0 0-4.647-4.649"/></g><path d="M2.999 195.246h65.69l-9.324-117.18h112.7v61.353l85.156-1.169" fill="none" stroke="#23a8c7" stroke-linecap="round" stroke-linejoin="round" stroke-width="6"/><g transform="translate(168.292 85.032)"><path class="h" d="M80.13 61.365a7.172 7.172 0 0 0 0 14.33h1.891v-14.33zm-44.207 0a7.172 7.172 0 0 0 0 14.33h1.891v-14.33z"/><path class="h" d="M74.037 67.211a6.856 6.856 0 1 0-6.85 7.165 7.013 7.013 0 0 0 6.85-7.165zm-47.149 0a6.857 6.857 0 1 0-6.85 7.165 7.013 7.013 0 0 0 6.851-7.165z"/><path d="M94.733 68.552h-71.5v-4.747h71.5a1.392 1.392 0 0 1 1.05.366 1.524 1.524 0 0 1 .486 1.04v1.934a1.429 1.429 0 0 1-1.536 1.407z" fill="#004059"/><ellipse class="j" cx="6.85" cy="7.165" rx="6.85" ry="7.165" transform="translate(75.171 61.365)"/><path d="M2.642 63.783h21.095a1.3 1.3 0 0 1 .956.407 1.423 1.423 0 0 1 .389 1v1.934a1.423 1.423 0 0 1-.389 1 1.3 1.3 0 0 1-.956.407H2.642a1.3 1.3 0 0 1-.956-.407 1.422 1.422 0 0 1-.389-1V65.19a1.422 1.422 0 0 1 .389-1 1.3 1.3 0 0 1 .956-.407z" fill="#002e3f"/><path class="l" d="M21.298 66.156a.967.967 0 1 1 .967 1.011 1 1 0 0 1-.967-1.011zm-1.639 0a.5.5 0 1 1 .5.527.474.474 0 0 1-.362-.148.52.52 0 0 1-.137-.379zm-14.582 0a.968.968 0 1 1-.967-1.011 1 1 0 0 1 .968 1.011zm1.681 0a.5.5 0 1 1-.5-.527.554.554 0 0 1 .5.527z"/><path class="m" d="M21.173 35.672v5.275h41.9v-5.275z"/><path class="n" d="M38.281 40.942h7.144v-5.27h-7.144z"/><path class="h" d="M38.15 60.046a8.354 8.354 0 0 0-8.152 8.528H46.26a8.676 8.676 0 0 0-2.357-6.031 7.921 7.921 0 0 0-5.753-2.497z"/><path class="j" d="M44.664 68.53a6.857 6.857 0 1 0-6.85 7.165 7.013 7.013 0 0 0 6.85-7.165z"/><path class="l" d="M41.158 67.97a3.383 3.383 0 0 0-3.857-2.907 3.5 3.5 0 0 0-2.78 4.033 3.383 3.383 0 0 0 3.856 2.908 3.5 3.5 0 0 0 2.78-4.033z"/><g transform="translate(62.654 29.495)"><path d="M32.31 34.287H0V0h16.173a9.344 9.344 0 0 1 7.891 4.659l6.588 10.9A11.468 11.468 0 0 1 32.27 21.5v12.792z" fill="#23a8c7"/><path class="l" d="M5.92 17.451V3.341h8.993A6.784 6.784 0 0 1 20.67 6.55l7.018 10.9z"/><path d="M0 34.309h2.1V.022H0z" fill="#087b96"/><ellipse class="j" cx="6.85" cy="7.165" rx="6.85" ry="7.165" transform="translate(12.517 31.869)"/><path class="l" d="M22.714 38.473a3.383 3.383 0 0 0-3.857-2.908 3.5 3.5 0 0 0-2.78 4.033 3.383 3.383 0 0 0 3.856 2.908 3.5 3.5 0 0 0 2.78-4.033z"/></g><g><path class="q" d="M25.259 24.68h37.58v39.428h-37.58z"/><path class="r" d="M0 64.108h25.259V24.68H0z"/><path class="s" d="M51.279 60.331h9.578v1.881h-9.578zM55.514 53.868l-1.53-1.566-1.566 1.566h.477v5.923h2.142v-5.923zM59.714 55.335l-1.152-1.179-1.17 1.179h.36v4.456h1.611v-4.456zM27.251 26.787h6.58v1.26h-6.58zM34.992 26.787h5.032v1.26h-5.032zM27.251 29.407h3.673v1.26h-3.673zM36.342 29.407h3.673v1.26h-3.673zM31.796 29.407h3.673v1.26h-3.673z"/><path class="m" d="M41.276 24.68h5.545v13.553h-5.545z"/><path class="n" d="M15.402 24.68H9.857v13.553h5.545z"/><g><path class="q" d="M25.329 0h21.723v24.68H25.329z"/><path class="r" d="M11.44 24.68h13.889V0H11.44z"/><path class="s" d="M40.37 22.316h5.536v1.178H40.37zM42.816 18.27l-.885-.98-.905.98h.276v3.708h1.238V18.27zM45.247 19.189l-.666-.738-.676.738h.208v2.789h.931v-2.789zM26.48 1.319h3.804v.789H26.48zM30.955 1.319h2.909v.789h-2.909zM26.48 2.959h2.123v.789H26.48zM31.736 2.959h2.123v.789h-2.123zM29.108 2.959h2.123v.789h-2.123z"/><path class="m" d="M34.588 0h3.205v8.484h-3.205z"/><path class="n" d="M19.987 0h-3.205v8.484h3.205z"/></g></g></g></svg>