<?xml version="1.0" encoding="utf-8"?>
<!-- Generator: Adobe Illustrator 23.0.1, SVG Export Plug-In . SVG Version: 6.00 Build 0)  -->
<svg version="1.1" id="Capa_1" xmlns="http://www.w3.org/2000/svg" xmlns:xlink="http://www.w3.org/1999/xlink" x="0px" y="0px"
	 viewBox="0 0 208 90" style="enable-background:new 0 0 208 90;" xml:space="preserve">
<path d="M54.4,42.2c0,3,0.7,6.1,2,8.8c-0.2-1.6-0.3-3.2-0.3-4.8c0-9,3.2-16.8,8-21.2l0,0C58.1,28.6,54.4,35.1,54.4,42.2z M79.6,41.5
	c-2-0.9-5.4-2.1-5.4-4.9c0-2.4,2-3.5,4-3.5c2.4,0,3.3,1.2,4,3.5c0.1,0.2,0.2,0.8,0.5,0.8c0.2,0,0.3-0.2,0.3-0.4
	c0-0.9-0.1-1.7-0.1-2.6c0-0.6,0-1-0.6-1.2c-1.3-0.5-2.7-0.7-4.1-0.7c-3.1-0.2-5.8,2.3-6,5.4c0,0,0,0.1,0,0.1c0,2.9,2.2,4.3,4.5,5.3
	l1.6,0.7c2.1,1,3.8,2.3,3.8,4.9c-0.1,2.4-2.2,4.4-4.6,4.3c0,0,0,0,0,0c-2.8,0-4.2-1.8-4.6-4.6c0-0.3,0-1.1-0.4-1.1
	c-0.3,0-0.4,0.4-0.5,0.7c-0.1,0.8-0.1,1.7-0.1,2.5c0,0.6-0.1,1.5,0.4,1.8c1.4,0.8,3,1.3,4.7,1.3c1.8,0.1,3.6-0.6,5-1.7
	c2.5-2.1,2.9-5.9,0.8-8.4c0,0-0.1-0.1-0.1-0.1C81.7,42.6,80.7,41.9,79.6,41.5L79.6,41.5z M105,38.1c-1.9,0-3.7,0.8-5,2.3
	c-1.4,1.5-2.1,3.6-2,5.7c0,4.2,2.7,7.8,6.3,7.8c1.7,0,3.3-0.6,4.4-1.9c0.2-0.2,1.1-1.1,1.1-1.5c0-0.1-0.1-0.3-0.2-0.3
	c-0.4,0-1.4,2.2-4.1,2.2c-3.3,0-5.4-3.3-5.4-7.1c0-1.1,0.3-1.1,1.1-1.1h8.4c0.3,0,0.3-0.3,0.3-0.6c0-1.2-0.4-2.4-1-3.4
	C108.1,38.8,106.6,38.1,105,38.1z M106.8,42.9c-1.1,0.2-2.1,0.3-3.2,0.3h-2.3c-0.3,0-0.9,0.1-0.9-0.4c0.1-0.7,0.3-1.4,0.7-2
	c0.7-1.3,2.1-2.2,3.6-2.3c0.9,0,1.8,0.3,2.4,1.1c0.4,0.6,0.7,1.3,0.7,2C107.8,42.2,107.4,42.8,106.8,42.9L106.8,42.9z M94.9,30
	c-1.7,0.1-3.3,0.9-4.4,2.3c-0.9,1.3-1.4,2.9-1.4,4.5c-0.1,1,0.1,2-1,2.3c-0.3,0.1-0.8,0.2-0.8,0.5c0,0.4,0.7,0.3,1,0.3
	c1,0,0.9,0.2,0.8,1.2v9c0.1,1.4,0.3,2.6-1.4,2.8c-0.3,0-0.9,0-0.9,0.5c0,0.3,0.2,0.3,0.4,0.3c1,0,2-0.1,2.9-0.1c1,0,2,0.1,3.1,0.1
	c0.2,0,0.4-0.1,0.4-0.4c0-0.4-0.6-0.4-0.9-0.4c-1.7-0.2-1.4-1.3-1.5-2.8v-9.1c0.1-1.2,0-1.2,1.2-1.3h2.2c0.4,0,0.9,0.2,0.9-0.4
	c0-0.4,0-0.6-0.4-0.6h-2.5c-1.3,0-1.2-0.1-1.3-1.5v-1.7c0.1-1.6,0.4-4.6,2.5-4.6c0.9,0,1.6,0.8,2.1,1.4c0.2,0.2,0.6,0.7,0.9,0.7
	c0.4,0,0.9-1.6,0.9-1.9C97.7,30.3,95.5,30,94.9,30L94.9,30z M120.9,38.3c-2.2,0-3.4,2.8-3.7,2.8c-0.2,0-0.2-0.6-0.2-0.7v-1.7
	c0-0.2,0-0.6-0.3-0.6c-0.3,0-0.4,0.3-0.6,0.4c-0.7,0.8-1.6,1.4-2.6,1.8c-0.3,0.1-0.7,0.2-0.7,0.6c0,0.2,0.2,0.3,0.4,0.3h0.4
	c0.3,0,0.7,0,0.9,0.3c0.4,0.4,0.3,1.7,0.3,2.2v6.5c0,1.5,0.3,2.7-1.4,2.8c-0.4,0-0.9,0-0.9,0.5c0,0.3,0.2,0.3,0.4,0.3
	c1,0,2-0.1,3-0.1c1,0,2,0.1,3,0.1c0.2,0,0.4-0.1,0.4-0.3c0,0,0-0.1,0-0.1c0-0.4-0.6-0.4-0.9-0.4c-1.7-0.2-1.4-1.3-1.4-2.8v-5.4
	c-0.2-1.2,0.1-2.4,0.7-3.4c0.4-0.5,0.9-1.2,1.6-1.2c0.9,0,1,1.3,2,1.3c0.7,0,1.3-0.5,1.3-1.2c0,0,0-0.1,0-0.1c0-0.9-0.7-1.6-1.6-1.6
	C121,38.3,120.9,38.3,120.9,38.3L120.9,38.3z M138.6,51.2c-0.3,0-0.6,0.8-1.4,0.8c-1.1,0-1.1-2-1.1-2.7v-8c0-0.9,0.1-1.8-0.6-2.5
	c-0.8-0.6-1.9-0.9-2.9-0.9c-2.1,0.1-4.1,0.9-5.7,2.3c-0.7,0.6-1.2,1.5-1.3,2.4c0,0.3,0.2,0.4,0.4,0.4c0.5-0.1,0.9-0.2,1.4-0.4
	c0.5-0.2,0.7-0.7,0.9-1.2c0.7-1.7,1.7-2.8,3.6-2.8c2,0,2,1.4,2,3v1.5c0,1.3,0,1.3-1.2,1.9l-2.5,1.2c-1.8,0.9-4.7,2.3-4.7,4.7
	c0.1,1.5,1.4,2.7,2.9,2.7c0,0,0,0,0.1,0c2.8,0,4.8-2.6,5.1-2.6c0.4,0,0.6,2.4,2.2,2.4c0.8-0.1,1.6-0.4,2.3-1c0.2-0.2,0.8-0.7,0.8-1
	C138.9,51.3,138.8,51.2,138.6,51.2C138.6,51.2,138.6,51.2,138.6,51.2L138.6,51.2z M133.9,46.2v2c0.1,0.9-0.2,1.9-0.8,2.5
	c-0.8,0.8-1.8,1.3-2.9,1.4c-1.1,0.1-2.1-0.7-2.2-1.8c0-0.1,0-0.1,0-0.2c0-1.6,1.2-2.5,2.5-3.2l2.9-1.6c0.1-0.1,0.2-0.1,0.4-0.1
	C134,45.3,133.9,46.1,133.9,46.2L133.9,46.2z M151.6,38.1c0.2,1.6,0.3,3.2,0.3,4.8c0,9-3.2,16.8-8,21.2l0,0
	c6.1-3.6,9.8-10.1,9.7-17.2C153.6,43.9,152.9,40.9,151.6,38.1L151.6,38.1z"/>
</svg>
