<?xml version="1.0" encoding="utf-8"?>
<!-- Generator: Adobe Illustrator 17.0.0, SVG Export Plug-In . SVG Version: 6.00 Build 0)  -->
<svg version="1.2" baseProfile="tiny" id="Capa_1" xmlns="http://www.w3.org/2000/svg" xmlns:xlink="http://www.w3.org/1999/xlink"
	 x="0px" y="0px" width="227.956px" height="382px" viewBox="0 0 227.956 382" xml:space="preserve">
<g id="jtlgQc.tif">
	<g>
		<path fill="#008C2E" d="M127.26,10.514c0.047,0.339,0.095,0.681,0.133,1.019c0.163,2.012,0.322,4.02,0.502,6.033
			c0.135,1.66,0.255,3.319,0.401,4.979c0.135,1.647,0.279,3.294,0.414,4.945c0.045,0.641,0.099,1.281,0.135,1.935
			c4.069-0.307,7.097,1.195,8.9,4.962c0.635-0.792,1.42-1.366,2.335-1.755c1.695-0.735,3.432-0.889,5.165-0.11
			c1.391,0.626,2.32,1.731,2.977,3.069c0.704,1.435,1.133,2.972,1.201,4.552c0.099,2.157,0.052,4.306,0.077,6.469
			c0.004,0.228,0,0.46,0,0.703c-1.918,0-3.811,0-5.755,0c0-0.127,0-0.239,0-0.365c0-2.057,0.004-4.1-0.004-6.157
			c0-0.604-0.107-1.2-0.414-1.741c-0.401-0.673-0.964-1.064-1.753-1.06c-0.79,0.009-1.399,0.424-1.715,1.146
			c-0.191,0.415-0.324,0.914-0.324,1.376c-0.041,2.608-0.017,5.209-0.017,7.819c0,0.136,0,0.264,0,0.426c-1.837,0-3.644,0-5.472,0
			c-0.03-0.387-0.052-0.77-0.077-1.148c-0.133-2.305-0.24-4.622-0.369-6.925c-0.044-0.628,0-1.286-0.14-1.886
			c-0.329-1.367-1.178-2.333-2.563-2.706c-0.824-0.229-1.418,0.227-1.47,1.085c-0.013,0.311,0.034,0.629,0.064,0.934
			c0.184,1.673,0.42,3.341,0.545,5.013c0.127,1.787,0.197,3.604,0.172,5.396c-0.043,2.651-0.271,5.291-1.054,7.847
			c-0.397,1.305-0.929,2.528-1.792,3.606c-0.824,1.006-1.85,1.696-3.142,1.958c-0.045,0.004-0.073,0.035-0.116,0.045
			c-0.378,0-0.753,0-1.133,0c-0.962-0.23-1.79-0.668-2.498-1.376c-0.961-0.974-1.554-2.165-1.991-3.446
			c-0.502-1.49-0.764-3.019-0.876-4.579c-0.129-1.561-0.129-3.121,0.015-4.678c0.401-4.564,1.509-8.937,3.893-12.889
			c0.571-0.935,1.326-1.761,1.985-2.624c0.137-0.17,0.217-0.311,0.189-0.55c-0.133-1.42-0.227-2.842-0.332-4.262
			c-0.095-1.202-0.204-2.404-0.303-3.607c-0.09-1.143-0.171-2.282-0.255-3.421c-0.122-1.47-0.231-2.941-0.354-4.417
			c-0.069-0.79-0.137-1.58-0.195-2.366c-0.075-1.006-0.148-2.012-0.23-3.069c0.678-0.017,1.329-0.029,1.97-0.052
			c0.996-0.033,1.983-0.075,2.974-0.113C127.063,10.514,127.157,10.514,127.26,10.514z M125.062,46.617
			c-0.052-0.963-0.078-1.911-0.193-2.868c-0.06-0.572-0.241-1.135-0.429-1.681c-0.095-0.284-0.352-0.275-0.505-0.019
			c-0.122,0.185-0.213,0.389-0.274,0.595c-0.406,1.239-0.522,2.524-0.612,3.807c-0.129,1.64-0.139,3.283,0.056,4.921
			c0.073,0.596,0.254,1.166,0.412,1.75c0.032,0.108,0.176,0.241,0.266,0.237c0.127-0.004,0.271-0.121,0.322-0.228
			c0.137-0.288,0.27-0.591,0.344-0.886C124.912,50.41,125.036,48.527,125.062,46.617z"/>
		<path fill="#008C2E" d="M7.635,27.832c0.134-0.63,0.224-1.273,0.407-1.885c0.965-3.236,3.074-5.486,6.077-6.928
			c2.001-0.964,4.131-1.376,6.344-1.305c1.428,0.046,2.82,0.321,4.151,0.863c0.154,0.061,0.264,0.118,0.262,0.323
			c-0.007,2.038-0.005,4.082-0.007,6.126c0,0.031-0.011,0.058-0.024,0.137c-0.109-0.042-0.212-0.072-0.308-0.112
			c-1.347-0.557-2.745-0.887-4.208-0.836c-2.768,0.09-5.208,1.62-6.092,4.246c-0.47,1.398-0.413,2.798,0.016,4.238
			c0.114-0.077,0.204-0.136,0.292-0.197c1.204-0.826,2.487-1.412,3.982-1.427c1.723-0.019,3.095,0.693,4.178,1.995
			c0.925,1.109,1.419,2.412,1.394,3.853c-0.036,2.057-1.042,3.532-2.891,4.403c-0.921,0.436-1.9,0.662-2.915,0.703
			c-0.587,0.03-1.174,0.004-1.831,0.004c0.457,0.78,1.028,1.301,1.774,1.608c1.099,0.477,2.241,0.486,3.393,0.282
			c1.536-0.256,2.934-0.871,4.267-1.666c0.184-0.108,0.235-0.228,0.202-0.417c-0.312-1.845-0.468-3.707-0.455-5.558
			c0.018-2.587,0.346-5.125,1.354-7.531c0.629-1.499,1.472-2.846,2.793-3.84c0.843-0.634,1.776-1.019,2.856-0.969
			c1.138,0.048,2.013,0.592,2.719,1.444c0.832,1.01,1.219,2.21,1.413,3.483c0.349,2.264,0.092,4.498-0.407,6.713
			c-0.537,2.388-1.36,4.669-2.34,6.894c-0.054,0.129-0.119,0.232-0.188,0.357c-0.217,0.387-0.141,0.685,0.268,0.868
			c0.255,0.108,0.537,0.181,0.811,0.196c1.359,0.067,2.579-0.32,3.661-1.145c0.025-0.024,0.055-0.033,0.112-0.049
			c0.007,0.118,0.018,0.213,0.018,0.312c0,1.434-0.002,2.881,0.004,4.312c0.002,0.202-0.046,0.327-0.224,0.432
			c-2.538,1.533-5.16,1.787-7.857,0.467c-0.514-0.246-0.962-0.636-1.45-0.963c-0.656,0.37-1.33,0.778-2.033,1.133
			c-1.692,0.847-3.479,1.393-5.364,1.61c-2.217,0.258-4.379,0.061-6.436-0.825c-3.112-1.35-4.919-3.717-5.358-7.11
			c-0.156-1.195-0.088-2.386,0.092-3.573c0.017-0.116,0.002-0.247-0.048-0.353c-0.987-1.921-1.78-3.909-2.186-6.044
			C7.774,31.677,7.348,30.111,7.635,27.832z M32.361,33.428c-0.046-0.311-0.101-0.823-0.206-1.33
			c-0.062-0.302-0.148-0.668-0.522-0.694c-0.36-0.027-0.527,0.299-0.661,0.578c-0.796,1.664-0.979,3.42-0.719,5.229
			c0.033,0.23,0.13,0.46,0.242,0.673c0.174,0.32,0.457,0.365,0.708,0.09c0.158-0.176,0.292-0.389,0.391-0.598
			C32.153,36.193,32.292,34.929,32.361,33.428z M17.809,38.169c0.706,0,1.297-0.589,1.297-1.28c0.002-0.687-0.612-1.299-1.295-1.295
			c-0.694,0.004-1.288,0.607-1.281,1.307C16.54,37.59,17.126,38.169,17.809,38.169z"/>
		<path fill="#008C2E" d="M84.642,36.602c0.602-1.33,2.43-2.002,3.68-1.832c0.144,0.021,0.258,0.042,0.258,0.231
			c-0.004,1.647-0.002,3.292-0.002,4.951c-0.338,0.06-0.663,0.114-0.982,0.2c-1.266,0.335-1.891,1.161-1.891,2.472
			c0,1.606,0,3.236,0,4.842c0,0.116,0,0.23,0,0.347c-1.525,0-3.019,0-4.555,0c0-0.121,0-0.228,0-0.329
			c0-1.479-0.031-2.969,0.006-4.448c0.038-1.529-0.921-2.206-2.145-2.386c-0.283-0.045-0.573-0.045-0.872-0.069
			c-0.05,0.353-0.075,0.686-0.147,1.01c-0.392,1.699-1.363,3.014-2.673,4.098c-1.548,1.286-3.342,1.974-5.35,1.997
			c-1.673,0.037-3.246-0.415-4.692-1.262c-0.336-0.202-0.56-0.176-0.881,0.034c-2.26,1.424-4.651,2.565-7.276,3.154
			c-2.963,0.669-5.857,0.546-8.619-0.834c-2.055-1.027-3.635-2.571-4.862-4.497c-1.353-2.135-2.131-4.461-2.441-6.974
			c-0.398-3.212-0.048-6.334,1.258-9.31c1.969-4.489,5.392-7.256,10.124-8.418c2.386-0.59,4.808-0.641,7.241-0.39
			c0.361,0.038,0.721,0.075,1.092,0.117c0,1.941,0,3.841,0,5.772c-0.479-0.096-0.952-0.199-1.424-0.277
			c-2.103-0.361-4.198-0.423-6.263,0.196c-2.965,0.889-4.967,2.824-5.911,5.758c-1.145,3.562-0.721,6.971,1.336,10.125
			c1.13,1.72,2.72,2.836,4.793,3.167c1.479,0.232,2.892-0.047,4.267-0.581c1.33-0.503,2.527-1.243,3.653-2.12
			c0.078-0.051,0.138-0.223,0.124-0.322c-0.187-1.354-0.09-2.67,0.74-3.812c0.912-1.268,2.117-2.012,3.732-1.899
			c1.099,0.076,1.873,0.906,1.908,2.021c0.019,0.687-0.009,1.394,0.065,2.082c0.061,0.576,0.185,1.148,0.38,1.698
			c0.647,1.787,2.409,1.879,3.576,1.165c0.305-0.198,0.592-0.477,0.786-0.78c0.428-0.677,0.173-1.309-0.574-1.553
			c-0.451-0.15-0.916-0.258-1.355-0.438c-0.981-0.411-1.816-1.006-2.418-1.886c-0.75-1.106-0.903-2.339-0.635-3.623
			c0.352-1.66,1.244-2.983,2.642-3.947c1.694-1.162,3.76-1.077,5.421,0.191c1.149,0.878,1.945,2.04,2.61,3.302
			c0.103,0.198,0.209,0.275,0.444,0.284c1.875,0.073,3.615,0.524,5.014,1.874C84.117,35.985,84.367,36.3,84.642,36.602z
			 M73.97,34.762c0.002-0.525-0.394-0.926-0.916-0.926c-0.525-0.004-0.958,0.426-0.952,0.945c0.006,0.508,0.424,0.92,0.937,0.929
			C73.574,35.71,73.97,35.312,73.97,34.762z"/>
		<path fill="#008C2E" d="M90.144,40.071c0-1.686,0-3.341,0-5.03c0.564,0,1.119,0,1.694,0c0.245-3.789,0.484-7.547,0.727-11.345
			c1.675,0,3.321,0,4.993,0c-0.305,3.959-0.613,7.934-0.925,11.956c0.497,0,0.971,0.009,1.446-0.013
			c0.081-0.004,0.177-0.139,0.229-0.238c0.758-1.469,1.632-2.854,2.793-4.045c1.265-1.294,2.723-2.269,4.54-2.616
			c2.885-0.543,5.768,1.132,6.364,4.023c0.323,1.574-0.088,3.008-0.932,4.337c-0.997,1.565-2.401,2.696-3.975,3.625
			c-0.695,0.413-1.434,0.748-2.153,1.118c-0.071,0.043-0.142,0.073-0.247,0.133c0.721,0.963,1.613,1.604,2.814,1.741
			c1.395,0.15,2.634-0.327,3.823-0.985c0.503-0.28,0.985-0.596,1.516-0.933c0,0.138,0,0.228,0,0.331
			c0,1.694-0.008,3.375,0.006,5.065c0.002,0.288-0.107,0.46-0.309,0.633c-1.165,0.976-2.532,1.496-4.018,1.69
			c-1.989,0.267-3.892-0.047-5.674-0.984c-2.099-1.127-3.459-2.872-4.305-5.07c-0.182-0.468-0.417-0.928-0.699-1.337
			c-0.15-0.228-0.429-0.413-0.688-0.503c-0.48-0.176-0.845,0.121-0.845,0.63c0,1.913,0,3.827,0,5.742c0,0.131,0,0.249,0,0.406
			c-1.663,0-3.309,0-4.988,0c0-2.724,0-5.459,0-8.215C90.928,40.129,90.551,40.099,90.144,40.071z M106.422,34.519
			c0.009-0.645-0.356-0.91-0.941-0.631c-0.303,0.141-0.589,0.356-0.822,0.596c-0.547,0.568-0.958,1.23-0.975,2.055
			c-0.011,0.542,0.336,0.779,0.843,0.607C105.422,36.846,106.409,35.475,106.422,34.519z"/>
		<path fill="#008C2E" d="M195.848,41.139c0.431-0.165,0.837-0.309,1.223-0.468c1.67-0.727,3.194-1.698,4.721-2.647
			c2.518-1.563,4.983-3.206,7.64-4.529c1.451-0.727,2.936-1.382,4.55-1.624c1.513-0.229,3.039-0.189,4.472,0.404
			c1.985,0.825,3.089,2.396,3.404,4.48c0.418,2.887-0.412,5.485-2.116,7.8c-2.152,2.918-5.082,4.597-8.61,5.274
			c-0.775,0.142-1.55,0.225-2.352,0.323c-0.012-0.181-0.021-0.28-0.021-0.383c0-1.703,0.004-3.423-0.004-5.126
			c-0.004-0.232,0.077-0.323,0.313-0.404c1.867-0.572,3.661-1.303,5.241-2.485c0.502-0.374,1.026-0.748,1.236-1.408
			c0.369-1.167-0.18-2.416-1.236-2.736c-0.58-0.181-1.159-0.127-1.678,0.138c-0.828,0.408-1.63,0.86-2.425,1.337
			c-3.747,2.296-7.481,4.616-11.218,6.927c-1.906,1.172-3.977,1.707-6.202,1.569c-0.715-0.047-1.41-0.237-2.03-0.636
			c-0.073-0.047-0.239-0.056-0.316-0.017c-1.706,1.238-3.637,1.926-5.691,2.339c-1.184,0.228-2.382,0.365-3.597,0.318
			c-1.884-0.077-3.721-0.413-5.266-1.608c-0.536-0.419-0.978-0.969-1.509-1.509c-0.23,0.147-0.522,0.348-0.82,0.564
			c-1.599,1.101-3.174,2.201-4.764,3.302c-0.148,0.103-0.221,0.198-0.198,0.404c0.217,2.128,0.112,4.222-0.697,6.23
			c-0.871,2.157-2.406,3.532-4.73,3.853c-2.12,0.297-4.112-0.03-5.743-1.556c-0.987-0.933-1.523-2.099-1.648-3.438
			c-0.262-2.904,0.966-5.183,3.065-7.069c1.03-0.92,2.214-1.597,3.481-2.09c0.216-0.081,0.262-0.185,0.253-0.391
			c-0.012-0.493-0.004-0.966-0.004-1.516c-0.373,0.234-0.687,0.456-1.039,0.649c-1.386,0.807-2.872,1.372-4.464,1.542
			c-1.498,0.153-2.953,0.011-4.223-0.916c-1.069-0.778-1.618-1.879-1.944-3.134c-0.601-2.358,0.045-4.457,1.322-6.428
			c1.403-2.162,3.343-3.705,5.613-4.867c2.427-1.242,5.005-1.931,7.713-2.217c0.554-0.058,1.114-0.102,1.694-0.157
			c0,1.931,0,3.819,0,5.715c-0.756,0.093-1.509,0.158-2.243,0.275c-2.187,0.341-4.305,0.909-6.142,2.224
			c-0.932,0.666-1.691,1.471-1.891,2.64c-0.045,0.321-0.037,0.667,0.009,0.983c0.054,0.415,0.197,0.506,0.607,0.465
			c0.704-0.049,1.311-0.391,1.875-0.781c1.67-1.122,2.881-2.621,3.619-4.497c0.06-0.149,0.118-0.255,0.32-0.253
			c1.681,0.009,3.342,0.009,5.02,0.009c0.047,0,0.082,0.004,0.146,0.013c0,2.468,0,4.932,0,7.494
			c1.144-0.411,2.232-0.791,3.318-1.174c-0.223-0.69-0.427-1.344-0.612-2.004c-0.59-2.088-0.828-4.222-0.685-6.386
			c0.142-2.292,0.7-4.475,1.923-6.453c0.713-1.168,1.622-2.155,2.869-2.796c1.356-0.7,2.734-0.563,4.108-0.05
			c2.296,0.855,3.526,2.571,3.891,4.949c0.324,2.103-0.045,4.142-0.676,6.14c-0.747,2.378-1.878,4.542-3.346,6.555
			c-0.116,0.148-0.077,0.239,0.026,0.378c0.58,0.686,1.326,1.053,2.189,1.215c0.869,0.152,1.708-0.011,2.528-0.321
			c0.193-0.069,0.239-0.147,0.172-0.365c-0.47-1.404-0.773-2.838-0.769-4.313c0.007-2.087,0.556-3.991,2.086-5.505
			c1.054-1.037,2.337-1.636,3.801-1.84c1.77-0.251,3.427,0.055,4.899,1.087c1.447,1.01,2.185,2.44,2.318,4.19
			c0.098,1.359-0.18,2.668-0.67,3.93c-0.032,0.082-0.051,0.159-0.082,0.228C195.844,41.015,195.848,41.028,195.848,41.139z
			 M177.808,32.586c0-0.084,0.013-0.169,0-0.248c-0.081-0.478-0.118-0.968-0.253-1.424c-0.151-0.464-0.502-0.498-0.816-0.113
			c-0.137,0.166-0.249,0.357-0.339,0.555c-0.622,1.376-0.777,2.83-0.687,4.318c0.032,0.343,0.146,0.689,0.298,1.005
			c0.135,0.311,0.414,0.331,0.665,0.086c0.14-0.15,0.286-0.33,0.38-0.528C177.606,35.087,177.795,33.857,177.808,32.586z
			 M191.727,38.659c-0.004-0.703-0.131-1.208-0.42-1.649c-0.503-0.754-1.352-0.754-1.872-0.002c-0.545,0.8-0.558,2.116-0.017,2.924
			c0.534,0.817,1.444,0.791,1.949-0.045C191.62,39.454,191.736,38.99,191.727,38.659z M161.035,53.822c0,0.058-0.009,0.131,0,0.185
			c0.069,0.509,0.309,0.939,0.811,1.133c0.395,0.148,0.837,0.013,1.146-0.333c0.412-0.46,0.5-1.185,0.202-1.757
			c-0.373-0.718-1.193-0.851-1.764-0.269C161.138,53.061,161.035,53.416,161.035,53.822z"/>
		<path fill="#008C2E" d="M210.295,25.98c-3.708,2.382-7.378,4.747-11.095,7.129c-1.163-1.438-2.33-2.873-3.513-4.335
			c3.903-2.536,7.803-5.059,11.711-7.597C208.372,22.778,209.321,24.36,210.295,25.98z"/>
	</g>
</g>
<g>
	<g>
		<path fill="#B7B7B7" d="M20.094,86.795c-1.245,1.163-2.37,1.883-4.126,1.883c-2.656,0-4.659-2.181-4.659-5.074
			c0-2.868,2.003-5.03,4.659-5.03c1.44,0,2.679,0.554,4.017,1.797l0.29,0.27l2.224-2.561l-0.264-0.252
			c-1.287-1.229-3.035-2.485-6.246-2.485c-4.71,0-8.263,3.571-8.263,8.306c0,4.71,3.505,8.263,8.154,8.263
			c2.637,0,4.573-0.845,6.475-2.824l0.259-0.269l-2.248-2.277L20.094,86.795z"/>
		<polygon fill="#B7B7B7" points="28.463,75.604 25.012,75.604 25.012,91.649 36.496,91.649 36.496,88.438 28.463,88.438 		"/>
		<rect x="39.176" y="75.604" fill="#B7B7B7" width="3.451" height="16.045"/>
		<path fill="#B7B7B7" d="M58.133,86.795c-1.246,1.163-2.371,1.883-4.126,1.883c-2.656,0-4.659-2.181-4.659-5.074
			c0-2.868,2.003-5.03,4.659-5.03c1.44,0,2.679,0.554,4.017,1.797l0.29,0.27l2.224-2.561l-0.264-0.252
			c-1.287-1.229-3.035-2.485-6.246-2.485c-4.71,0-8.263,3.571-8.263,8.306c0,4.71,3.505,8.263,8.154,8.263
			c2.637,0,4.573-0.845,6.475-2.824l0.259-0.269l-2.248-2.277L58.133,86.795z"/>
		<polygon fill="#B7B7B7" points="70.836,82.586 77.587,75.604 73.223,75.604 66.502,82.707 66.502,75.604 63.051,75.604 
			63.051,91.649 66.502,91.649 66.502,86.99 68.462,84.976 73.525,91.649 77.741,91.649 		"/>
	</g>
	<g>
		<path fill="#B7B7B7" d="M90.778,88.185c0,1.314,1.064,2.232,2.587,2.232c0.941,0,1.881-0.397,2.798-1.182l-3.493-3.56
			C91.431,86.273,90.778,87.137,90.778,88.185z"/>
		<path fill="#B7B7B7" d="M96.232,79.553c0-1.001-0.647-1.648-1.648-1.648c-1.047,0-1.724,0.697-1.724,1.775
			c0,0.733,0.265,1.293,1.074,2.215C95.541,81.274,96.232,80.566,96.232,79.553z"/>
		<path fill="#B7B7B7" d="M83.632,71.978v23.943H107V71.978H83.632z M100.81,93.993l-2.333-2.383
			c-1.661,1.454-3.445,2.162-5.442,2.162c-3.633,0-6.171-2.256-6.171-5.486c0-2.278,1.203-4.01,3.576-5.154
			c-0.884-1.248-1.266-2.339-1.266-3.579c0-2.423,1.884-4.876,5.486-4.876c2.958,0,5.105,1.976,5.105,4.699
			c0,2.16-1.185,3.73-3.617,4.786l2.311,2.35c0.546-0.856,1.089-1.857,1.617-2.983l0.171-0.363l3.047,1.606l-0.168,0.335
			c-0.777,1.554-1.499,2.788-2.254,3.853l2.88,2.932L100.81,93.993z"/>
	</g>
	<g>
		<path fill="#B7B7B7" d="M126.963,86.795c-1.245,1.163-2.37,1.883-4.126,1.883c-2.656,0-4.659-2.181-4.659-5.074
			c0-2.868,2.003-5.03,4.659-5.03c1.44,0,2.679,0.554,4.017,1.797l0.29,0.27l2.224-2.561l-0.264-0.252
			c-1.286-1.229-3.034-2.485-6.245-2.485c-4.71,0-8.263,3.571-8.263,8.306c0,4.71,3.505,8.263,8.154,8.263
			c2.637,0,4.573-0.845,6.475-2.824l0.258-0.269l-2.248-2.277L126.963,86.795z"/>
		<path fill="#B7B7B7" d="M139.162,75.342c-4.707,0-8.393,3.648-8.393,8.306c0,4.71,3.59,8.263,8.35,8.263
			c4.707,0,8.393-3.648,8.393-8.306C147.512,78.894,143.922,75.342,139.162,75.342z M139.162,88.678
			c-2.743,0-4.811-2.181-4.811-5.074c0-2.868,2.05-5.03,4.768-5.03c2.743,0,4.812,2.181,4.812,5.074
			C143.93,86.515,141.88,88.678,139.162,88.678z"/>
		<polygon fill="#B7B7B7" points="153.948,75.604 150.497,75.604 150.497,91.649 161.981,91.649 161.981,88.438 153.948,88.438 		
			"/>
		<polygon fill="#B7B7B7" points="167.959,75.604 164.509,75.604 164.509,91.649 175.992,91.649 175.992,88.438 167.959,88.438 		
			"/>
		<polygon fill="#B7B7B7" points="181.97,85.144 189.632,85.144 189.632,81.977 181.97,81.977 181.97,78.771 190.614,78.771 
			190.614,75.604 178.519,75.604 178.519,91.649 190.723,91.649 190.723,88.481 181.97,88.481 		"/>
		<path fill="#B7B7B7" d="M205.334,86.795c-1.245,1.163-2.37,1.883-4.126,1.883c-2.656,0-4.659-2.181-4.659-5.074
			c0-2.868,2.003-5.03,4.659-5.03c1.44,0,2.679,0.554,4.017,1.797l0.29,0.27l2.224-2.561l-0.264-0.252
			c-1.286-1.229-3.034-2.485-6.245-2.485c-4.71,0-8.263,3.571-8.263,8.306c0,4.71,3.505,8.263,8.154,8.263
			c2.637,0,4.573-0.845,6.475-2.824l0.258-0.269l-2.248-2.277L205.334,86.795z"/>
		<polygon fill="#B7B7B7" points="209.16,75.604 209.16,78.858 214.006,78.858 214.006,91.649 217.479,91.649 217.479,78.858 
			222.324,78.858 222.324,75.604 		"/>
	</g>
</g>
<g>
	<g>
		<path fill="#E99292" d="M20.094,120.738c-1.245,1.163-2.37,1.883-4.126,1.883c-2.656,0-4.659-2.181-4.659-5.074
			c0-2.868,2.003-5.03,4.659-5.03c1.44,0,2.679,0.554,4.017,1.797l0.29,0.27l2.224-2.561l-0.264-0.252
			c-1.287-1.229-3.035-2.485-6.246-2.485c-4.71,0-8.263,3.571-8.263,8.306c0,4.71,3.505,8.263,8.154,8.263
			c2.637,0,4.573-0.845,6.475-2.824l0.259-0.269l-2.248-2.277L20.094,120.738z"/>
		<polygon fill="#E99292" points="28.463,109.547 25.012,109.547 25.012,125.592 36.496,125.592 36.496,122.381 28.463,122.381 		
			"/>
		<rect x="39.176" y="109.547" fill="#E99292" width="3.451" height="16.045"/>
		<path fill="#E99292" d="M58.133,120.738c-1.246,1.163-2.371,1.883-4.126,1.883c-2.656,0-4.659-2.181-4.659-5.074
			c0-2.868,2.003-5.03,4.659-5.03c1.44,0,2.679,0.554,4.017,1.797l0.29,0.27l2.224-2.561l-0.264-0.252
			c-1.287-1.229-3.035-2.485-6.246-2.485c-4.71,0-8.263,3.571-8.263,8.306c0,4.71,3.505,8.263,8.154,8.263
			c2.637,0,4.573-0.845,6.475-2.824l0.259-0.269l-2.248-2.277L58.133,120.738z"/>
		<polygon fill="#E99292" points="70.836,116.529 77.587,109.547 73.223,109.547 66.502,116.65 66.502,109.547 63.051,109.547 
			63.051,125.592 66.502,125.592 66.502,120.933 68.462,118.919 73.525,125.592 77.741,125.592 		"/>
	</g>
	<g>
		<path fill="#E99292" d="M90.778,122.128c0,1.314,1.064,2.232,2.587,2.232c0.941,0,1.881-0.397,2.798-1.182l-3.493-3.56
			C91.431,120.216,90.778,121.08,90.778,122.128z"/>
		<path fill="#E99292" d="M96.232,113.496c0-1.001-0.647-1.648-1.648-1.648c-1.047,0-1.724,0.697-1.724,1.775
			c0,0.733,0.265,1.293,1.074,2.215C95.541,115.217,96.232,114.509,96.232,113.496z"/>
		<path fill="#E99292" d="M83.632,105.921v23.943H107v-23.943H83.632z M100.81,127.936l-2.333-2.383
			c-1.661,1.454-3.445,2.162-5.442,2.162c-3.633,0-6.171-2.256-6.171-5.486c0-2.278,1.203-4.01,3.576-5.154
			c-0.884-1.248-1.266-2.339-1.266-3.579c0-2.423,1.884-4.876,5.486-4.876c2.958,0,5.105,1.976,5.105,4.699
			c0,2.16-1.185,3.73-3.617,4.786l2.311,2.35c0.546-0.856,1.089-1.857,1.617-2.983l0.171-0.363l3.047,1.606l-0.168,0.335
			c-0.777,1.554-1.499,2.788-2.254,3.853l2.88,2.932L100.81,127.936z"/>
	</g>
	<g>
		<path fill="#E99292" d="M126.963,120.738c-1.245,1.163-2.37,1.883-4.126,1.883c-2.656,0-4.659-2.181-4.659-5.074
			c0-2.868,2.003-5.03,4.659-5.03c1.44,0,2.679,0.554,4.017,1.797l0.29,0.27l2.224-2.561l-0.264-0.252
			c-1.286-1.229-3.034-2.485-6.245-2.485c-4.71,0-8.263,3.571-8.263,8.306c0,4.71,3.505,8.263,8.154,8.263
			c2.637,0,4.573-0.845,6.475-2.824l0.258-0.269l-2.248-2.277L126.963,120.738z"/>
		<path fill="#E99292" d="M139.162,109.285c-4.707,0-8.393,3.648-8.393,8.306c0,4.71,3.59,8.263,8.35,8.263
			c4.707,0,8.393-3.648,8.393-8.306C147.512,112.837,143.922,109.285,139.162,109.285z M139.162,122.621
			c-2.743,0-4.811-2.181-4.811-5.074c0-2.868,2.05-5.03,4.768-5.03c2.743,0,4.812,2.181,4.812,5.074
			C143.93,120.458,141.88,122.621,139.162,122.621z"/>
		<polygon fill="#E99292" points="153.948,109.547 150.497,109.547 150.497,125.592 161.981,125.592 161.981,122.381 
			153.948,122.381 		"/>
		<polygon fill="#E99292" points="167.959,109.547 164.509,109.547 164.509,125.592 175.992,125.592 175.992,122.381 
			167.959,122.381 		"/>
		<polygon fill="#E99292" points="181.97,119.087 189.632,119.087 189.632,115.92 181.97,115.92 181.97,112.714 190.614,112.714 
			190.614,109.547 178.519,109.547 178.519,125.592 190.723,125.592 190.723,122.424 181.97,122.424 		"/>
		<path fill="#E99292" d="M205.334,120.738c-1.245,1.163-2.37,1.883-4.126,1.883c-2.656,0-4.659-2.181-4.659-5.074
			c0-2.868,2.003-5.03,4.659-5.03c1.44,0,2.679,0.554,4.017,1.797l0.29,0.27l2.224-2.561l-0.264-0.252
			c-1.286-1.229-3.034-2.485-6.245-2.485c-4.71,0-8.263,3.571-8.263,8.306c0,4.71,3.505,8.263,8.154,8.263
			c2.637,0,4.573-0.845,6.475-2.824l0.258-0.269l-2.248-2.277L205.334,120.738z"/>
		<polygon fill="#E99292" points="209.16,109.547 209.16,112.801 214.006,112.801 214.006,125.592 217.479,125.592 217.479,112.801 
			222.324,112.801 222.324,109.547 		"/>
	</g>
</g>
<g>
	<g>
		<path fill="#B7B7B7" d="M97.096,147.468c0-1.005-0.649-1.654-1.654-1.654c-1.051,0-1.731,0.699-1.731,1.782
			c0,0.736,0.266,1.298,1.078,2.224C96.403,149.196,97.096,148.485,97.096,147.468z"/>
		<path fill="#B7B7B7" d="M91.621,156.134c0,1.319,1.068,2.24,2.597,2.24c0.945,0,1.888-0.399,2.809-1.186l-3.506-3.574
			C92.277,154.214,91.621,155.082,91.621,156.134z"/>
		<path fill="#B7B7B7" d="M84.447,139.864V163.9h23.459v-24.036H84.447z M101.692,161.964l-2.342-2.392
			c-1.668,1.46-3.458,2.17-5.463,2.17c-3.647,0-6.195-2.265-6.195-5.507c0-2.287,1.207-4.026,3.59-5.174
			c-0.887-1.253-1.271-2.348-1.271-3.593c0-2.433,1.891-4.895,5.507-4.895c2.97,0,5.125,1.984,5.125,4.717
			c0,2.169-1.189,3.745-3.631,4.805l2.32,2.359c0.548-0.86,1.093-1.865,1.624-2.994l0.171-0.365l3.059,1.612l-0.168,0.337
			c-0.78,1.561-1.505,2.8-2.263,3.868l2.891,2.944L101.692,161.964z"/>
	</g>
	<g>
		<path fill="#B7B7B7" d="M20.663,154.738c-1.25,1.167-2.379,1.891-4.142,1.891c-2.666,0-4.677-2.19-4.677-5.093
			c0-2.879,2.011-5.05,4.677-5.05c1.446,0,2.69,0.556,4.033,1.804l0.291,0.271l2.233-2.571l-0.265-0.253
			c-1.292-1.234-3.046-2.495-6.27-2.495c-4.729,0-8.295,3.585-8.295,8.338c0,4.729,3.519,8.295,8.185,8.295
			c2.647,0,4.591-0.848,6.5-2.835l0.26-0.27l-2.257-2.286L20.663,154.738z"/>
		<polygon fill="#B7B7B7" points="29.065,143.504 25.601,143.504 25.601,159.611 37.129,159.611 37.129,156.388 29.065,156.388 		
			"/>
		<rect x="39.819" y="143.504" fill="#B7B7B7" width="3.465" height="16.107"/>
		<path fill="#B7B7B7" d="M58.85,154.738c-1.251,1.168-2.38,1.891-4.142,1.891c-2.666,0-4.677-2.19-4.677-5.093
			c0-2.879,2.011-5.05,4.677-5.05c1.446,0,2.69,0.556,4.033,1.804l0.291,0.271l2.233-2.571L61,145.736
			c-1.292-1.234-3.046-2.495-6.27-2.495c-4.729,0-8.295,3.585-8.295,8.338c0,4.729,3.519,8.295,8.185,8.295
			c2.647,0,4.591-0.848,6.5-2.835l0.26-0.27l-2.257-2.286L58.85,154.738z"/>
		<polygon fill="#B7B7B7" points="78.379,143.504 73.998,143.504 67.252,150.635 67.252,143.504 63.787,143.504 63.787,159.611 
			67.252,159.611 67.252,154.934 69.219,152.913 74.301,159.611 78.534,159.611 71.602,150.513 		"/>
		<path fill="#B7B7B7" d="M127.947,154.738c-1.25,1.167-2.379,1.891-4.142,1.891c-2.666,0-4.677-2.19-4.677-5.093
			c0-2.879,2.011-5.05,4.677-5.05c1.446,0,2.69,0.556,4.033,1.804l0.291,0.271l2.232-2.571l-0.265-0.253
			c-1.291-1.234-3.046-2.495-6.27-2.495c-4.729,0-8.295,3.585-8.295,8.338c0,4.729,3.519,8.295,8.185,8.295
			c2.647,0,4.591-0.848,6.5-2.835l0.259-0.27l-2.257-2.286L127.947,154.738z"/>
		<path fill="#B7B7B7" d="M138.451,143.394l-7.085,16.217h3.603l1.577-3.703h6.743l1.556,3.703h3.691l-7.085-16.217H138.451z
			 M141.974,152.75h-4.112l2.048-4.778L141.974,152.75z"/>
		<path fill="#B7B7B7" d="M160.574,153.626c2.184-0.79,3.424-2.541,3.424-4.874c0-3.238-2.33-5.249-6.082-5.249h-7.221v16.107h3.464
			v-5.346h2.79l3.769,5.346h4.123L160.574,153.626z M154.16,146.727h3.538c1.274,0,2.793,0.378,2.793,2.179
			c0,1.357-1.062,2.201-2.771,2.201h-3.56V146.727z"/>
	</g>
</g>
<g>
	<g>
		<path fill="#A6D09F" d="M97.096,181.504c0-1.005-0.649-1.654-1.654-1.654c-1.051,0-1.731,0.699-1.731,1.782
			c0,0.736,0.266,1.298,1.078,2.224C96.403,183.232,97.096,182.521,97.096,181.504z"/>
		<path fill="#A6D09F" d="M91.621,190.169c0,1.319,1.068,2.24,2.597,2.24c0.945,0,1.888-0.399,2.809-1.186l-3.506-3.574
			C92.277,188.25,91.621,189.117,91.621,190.169z"/>
		<path fill="#A6D09F" d="M84.447,173.9v24.036h23.459V173.9H84.447z M101.692,196l-2.342-2.392c-1.668,1.46-3.458,2.17-5.463,2.17
			c-3.647,0-6.195-2.265-6.195-5.507c0-2.287,1.207-4.026,3.59-5.174c-0.887-1.253-1.271-2.348-1.271-3.593
			c0-2.433,1.891-4.895,5.507-4.895c2.97,0,5.125,1.984,5.125,4.717c0,2.169-1.189,3.745-3.631,4.805l2.32,2.359
			c0.548-0.86,1.093-1.865,1.624-2.994l0.171-0.365l3.059,1.612l-0.168,0.337c-0.78,1.561-1.505,2.8-2.263,3.868l2.891,2.944
			L101.692,196z"/>
	</g>
	<g>
		<path fill="#A6D09F" d="M20.663,188.774c-1.25,1.167-2.379,1.891-4.142,1.891c-2.666,0-4.677-2.19-4.677-5.093
			c0-2.879,2.011-5.05,4.677-5.05c1.446,0,2.69,0.556,4.033,1.804l0.291,0.271l2.233-2.571l-0.265-0.253
			c-1.292-1.234-3.046-2.495-6.27-2.495c-4.729,0-8.295,3.585-8.295,8.338c0,4.729,3.519,8.295,8.185,8.295
			c2.647,0,4.591-0.848,6.5-2.835l0.26-0.27l-2.257-2.286L20.663,188.774z"/>
		<polygon fill="#A6D09F" points="29.065,177.539 25.601,177.539 25.601,193.647 37.129,193.647 37.129,190.424 29.065,190.424 		
			"/>
		<rect x="39.819" y="177.539" fill="#A6D09F" width="3.465" height="16.107"/>
		<path fill="#A6D09F" d="M58.85,188.774c-1.251,1.168-2.38,1.891-4.142,1.891c-2.666,0-4.677-2.19-4.677-5.093
			c0-2.879,2.011-5.05,4.677-5.05c1.446,0,2.69,0.556,4.033,1.804l0.291,0.271l2.233-2.571L61,179.771
			c-1.292-1.234-3.046-2.495-6.27-2.495c-4.729,0-8.295,3.585-8.295,8.338c0,4.729,3.519,8.295,8.185,8.295
			c2.647,0,4.591-0.848,6.5-2.835l0.26-0.27l-2.257-2.286L58.85,188.774z"/>
		<polygon fill="#A6D09F" points="78.379,177.539 73.998,177.539 67.252,184.671 67.252,177.539 63.787,177.539 63.787,193.647 
			67.252,193.647 67.252,188.97 69.219,186.949 74.301,193.647 78.534,193.647 71.602,184.549 		"/>
		<path fill="#A6D09F" d="M127.947,188.774c-1.25,1.167-2.379,1.891-4.142,1.891c-2.666,0-4.677-2.19-4.677-5.093
			c0-2.879,2.011-5.05,4.677-5.05c1.446,0,2.69,0.556,4.033,1.804l0.291,0.271l2.232-2.571l-0.265-0.253
			c-1.291-1.234-3.046-2.495-6.27-2.495c-4.729,0-8.295,3.585-8.295,8.338c0,4.729,3.519,8.295,8.185,8.295
			c2.647,0,4.591-0.848,6.5-2.835l0.259-0.27l-2.257-2.286L127.947,188.774z"/>
		<path fill="#A6D09F" d="M138.451,177.43l-7.085,16.217h3.603l1.577-3.703h6.743l1.556,3.703h3.691l-7.085-16.217H138.451z
			 M141.974,186.786h-4.112l2.048-4.778L141.974,186.786z"/>
		<path fill="#A6D09F" d="M160.574,187.662c2.184-0.79,3.424-2.541,3.424-4.874c0-3.238-2.33-5.249-6.082-5.249h-7.221v16.107h3.464
			V188.3h2.79l3.769,5.346h4.123L160.574,187.662z M154.16,180.763h3.538c1.274,0,2.793,0.378,2.793,2.179
			c0,1.357-1.062,2.201-2.771,2.201h-3.56V180.763z"/>
	</g>
</g>
<g>
	<g>
		<path fill="#B7B7B7" d="M20.466,222.859c-1.252,1.169-2.382,1.893-4.147,1.893c-2.67,0-4.683-2.192-4.683-5.1
			c0-2.882,2.013-5.056,4.683-5.056c1.448,0,2.693,0.557,4.038,1.806l0.292,0.271l2.235-2.575l-0.266-0.253
			c-1.293-1.235-3.05-2.498-6.278-2.498c-4.735,0-8.305,3.589-8.305,8.349c0,4.735,3.523,8.305,8.196,8.305
			c2.651,0,4.597-0.849,6.508-2.839l0.26-0.27l-2.26-2.289L20.466,222.859z"/>
		<polygon fill="#B7B7B7" points="28.878,211.61 25.41,211.61 25.41,227.738 36.952,227.738 36.952,224.511 28.878,224.511 		"/>
		<rect x="39.646" y="211.61" fill="#B7B7B7" width="3.469" height="16.127"/>
		<path fill="#B7B7B7" d="M58.701,222.859c-1.252,1.169-2.383,1.893-4.147,1.893c-2.67,0-4.683-2.192-4.683-5.1
			c0-2.882,2.013-5.056,4.683-5.056c1.448,0,2.693,0.557,4.038,1.806l0.292,0.271l2.235-2.575l-0.266-0.253
			c-1.293-1.235-3.05-2.498-6.278-2.498c-4.735,0-8.305,3.589-8.305,8.349c0,4.735,3.523,8.305,8.196,8.305
			c2.651,0,4.597-0.849,6.508-2.839l0.26-0.27l-2.26-2.289L58.701,222.859z"/>
		<polygon fill="#B7B7B7" points="71.469,218.629 78.255,211.61 73.868,211.61 67.113,218.751 67.113,211.61 63.645,211.61 
			63.645,227.738 67.113,227.738 67.113,223.055 69.083,221.031 74.172,227.738 78.409,227.738 		"/>
	</g>
	<g>
		<path fill="#B7B7B7" d="M91.514,224.256c0,1.321,1.069,2.243,2.601,2.243c0.946,0,1.891-0.399,2.812-1.188l-3.511-3.578
			C92.17,222.334,91.514,223.203,91.514,224.256z"/>
		<path fill="#B7B7B7" d="M96.995,215.58c0-1.006-0.65-1.656-1.656-1.656c-1.053,0-1.733,0.7-1.733,1.784
			c0,0.737,0.267,1.3,1.079,2.227C96.301,217.31,96.995,216.598,96.995,215.58z"/>
		<path fill="#B7B7B7" d="M84.331,207.966v24.066h23.489v-24.066H84.331z M101.597,230.094l-2.345-2.395
			c-1.67,1.462-3.463,2.173-5.47,2.173c-3.652,0-6.203-2.267-6.203-5.514c0-2.29,1.209-4.031,3.595-5.181
			c-0.888-1.254-1.273-2.351-1.273-3.598c0-2.436,1.894-4.901,5.514-4.901c2.973,0,5.131,1.986,5.131,4.723
			c0,2.171-1.191,3.749-3.636,4.811l2.323,2.362c0.549-0.861,1.095-1.867,1.626-2.998l0.171-0.365l3.063,1.614l-0.168,0.337
			c-0.781,1.563-1.507,2.803-2.266,3.872l2.895,2.947L101.597,230.094z"/>
	</g>
	<g>
		<polygon fill="#B7B7B7" points="148.588,211.741 144.067,211.741 138.75,216.905 137.548,211.741 133.577,211.741 
			135.795,219.476 126.718,227.808 131.239,227.808 136.776,222.414 138.079,227.808 142.05,227.808 139.75,219.866 		"/>
		<path fill="#B7B7B7" d="M160.977,213.371c-0.985-1.171-2.496-1.63-4.791-1.63h-5.095l-6.86,16.067h3.535l2.079-4.866h3.053
			c4.384,0,8.164-2.272,8.796-6.266C161.914,215.276,161.672,214.197,160.977,213.371z M157.95,216.974
			c-0.287,1.813-2.038,2.869-4.379,2.869h-2.41l2.086-4.912h2.295c1.056,0,1.685,0.229,2.091,0.711
			C157.923,215.987,158.034,216.446,157.95,216.974z"/>
		<polygon fill="#B7B7B7" points="126.652,221.266 127.992,218.168 120.533,218.168 121.925,214.886 130.417,214.886 
			131.764,211.741 119.76,211.741 112.9,227.808 125.019,227.808 126.367,224.663 117.736,224.663 119.192,221.266 		"/>
		<path fill="#B7B7B7" d="M203.159,211.512c-3.443,0-6.701,2.02-7.22,5.302c-0.374,2.364,1.307,3.489,3.261,4.338
			c2.019,0.872,2.521,1.331,2.397,2.112c-0.16,1.01-1.298,1.676-2.721,1.676c-1.836,0-3.12-0.735-4.164-2.112l-3.019,2.249
			c1.206,1.951,3.433,2.961,6.532,2.961c3.374,0,6.693-1.974,7.228-5.348c0.371-2.341-1.107-3.443-3.169-4.338
			c-2.039-0.895-2.623-1.262-2.489-2.112c0.127-0.803,1.107-1.63,2.599-1.63c1.561,0,2.545,0.597,3.583,1.721l2.818-2.433
			C207.669,212.453,205.913,211.512,203.159,211.512z"/>
		<path fill="#B7B7B7" d="M217.527,211.512c-3.443,0-6.701,2.02-7.221,5.302c-0.374,2.364,1.307,3.489,3.261,4.338
			c2.019,0.872,2.52,1.331,2.397,2.112c-0.16,1.01-1.298,1.676-2.721,1.676c-1.836,0-3.12-0.735-4.164-2.112l-3.019,2.249
			c1.206,1.951,3.433,2.961,6.531,2.961c3.374,0,6.693-1.974,7.228-5.348c0.371-2.341-1.107-3.443-3.169-4.338
			c-2.039-0.895-2.623-1.262-2.489-2.112c0.127-0.803,1.107-1.63,2.599-1.63c1.561,0,2.545,0.597,3.583,1.721l2.818-2.433
			C222.037,212.453,220.281,211.512,217.527,211.512z"/>
		<path fill="#B7B7B7" d="M178.095,216.584c0.207-1.308-0.051-2.433-0.727-3.236c-0.908-1.079-2.454-1.607-4.841-1.607h-5.853
			l-6.86,16.067h3.535l2.191-5.141h2.639l1.665,5.141h4.017l-1.862-5.486C175.546,221.519,177.637,219.476,178.095,216.584z
			 M174.352,216.882c-0.28,1.767-2.12,2.663-4.324,2.663h-3.145l1.97-4.613h2.961c1.125,0,1.869,0.229,2.236,0.666
			C174.341,215.941,174.44,216.331,174.352,216.882z"/>
		<polygon fill="#B7B7B7" points="185.525,214.886 194.017,214.886 195.365,211.741 183.361,211.741 176.501,227.808 
			188.62,227.808 189.967,224.663 181.337,224.663 182.793,221.266 190.252,221.266 191.593,218.168 184.133,218.168 		"/>
	</g>
</g>
<g>
	<g>
		<path fill="#61BBCC" d="M20.466,256.925c-1.252,1.169-2.382,1.893-4.147,1.893c-2.67,0-4.683-2.192-4.683-5.1
			c0-2.882,2.013-5.056,4.683-5.056c1.448,0,2.693,0.557,4.038,1.806l0.292,0.271l2.235-2.575l-0.266-0.253
			c-1.293-1.235-3.05-2.498-6.278-2.498c-4.735,0-8.305,3.589-8.305,8.349c0,4.735,3.523,8.305,8.196,8.305
			c2.651,0,4.597-0.849,6.508-2.839l0.26-0.27l-2.26-2.289L20.466,256.925z"/>
		<polygon fill="#61BBCC" points="28.878,245.677 25.41,245.677 25.41,261.804 36.952,261.804 36.952,258.577 28.878,258.577 		"/>
		<rect x="39.646" y="245.677" fill="#61BBCC" width="3.469" height="16.127"/>
		<path fill="#61BBCC" d="M58.701,256.925c-1.252,1.169-2.383,1.893-4.147,1.893c-2.67,0-4.683-2.192-4.683-5.1
			c0-2.882,2.013-5.056,4.683-5.056c1.448,0,2.693,0.557,4.038,1.806l0.292,0.271l2.235-2.575l-0.266-0.253
			c-1.293-1.235-3.05-2.498-6.278-2.498c-4.735,0-8.305,3.589-8.305,8.349c0,4.735,3.523,8.305,8.196,8.305
			c2.651,0,4.597-0.849,6.508-2.839l0.26-0.27l-2.26-2.289L58.701,256.925z"/>
		<polygon fill="#61BBCC" points="71.469,252.695 78.255,245.677 73.868,245.677 67.113,252.817 67.113,245.677 63.645,245.677 
			63.645,261.804 67.113,261.804 67.113,257.122 69.083,255.097 74.172,261.804 78.409,261.804 		"/>
	</g>
	<g>
		<path fill="#61BBCC" d="M91.514,258.322c0,1.321,1.069,2.243,2.601,2.243c0.946,0,1.891-0.399,2.812-1.188l-3.511-3.578
			C92.17,256.401,91.514,257.269,91.514,258.322z"/>
		<path fill="#61BBCC" d="M96.995,249.646c0-1.006-0.65-1.656-1.656-1.656c-1.053,0-1.733,0.7-1.733,1.784
			c0,0.737,0.267,1.3,1.079,2.227C96.301,251.376,96.995,250.664,96.995,249.646z"/>
		<path fill="#61BBCC" d="M84.331,242.033v24.066h23.489v-24.066H84.331z M101.597,264.16l-2.345-2.395
			c-1.67,1.462-3.463,2.173-5.47,2.173c-3.652,0-6.203-2.267-6.203-5.514c0-2.29,1.209-4.031,3.595-5.181
			c-0.888-1.254-1.273-2.351-1.273-3.598c0-2.436,1.894-4.901,5.514-4.901c2.973,0,5.131,1.986,5.131,4.723
			c0,2.171-1.191,3.749-3.636,4.811l2.323,2.362c0.549-0.861,1.095-1.867,1.626-2.998l0.171-0.365l3.063,1.614l-0.168,0.337
			c-0.781,1.563-1.507,2.803-2.266,3.872l2.895,2.947L101.597,264.16z"/>
	</g>
	<g>
		<polygon fill="#61BBCC" points="148.588,245.807 144.067,245.807 138.75,250.971 137.548,245.807 133.577,245.807 
			135.795,253.542 126.718,261.874 131.239,261.874 136.776,256.48 138.079,261.874 142.05,261.874 139.75,253.932 		"/>
		<path fill="#61BBCC" d="M160.977,247.437c-0.985-1.171-2.496-1.63-4.791-1.63h-5.095l-6.86,16.067h3.535l2.079-4.866h3.053
			c4.384,0,8.164-2.272,8.796-6.266C161.914,249.342,161.672,248.263,160.977,247.437z M157.95,251.04
			c-0.287,1.813-2.038,2.869-4.379,2.869h-2.41l2.086-4.912h2.295c1.056,0,1.685,0.229,2.091,0.711
			C157.923,250.053,158.034,250.512,157.95,251.04z"/>
		<polygon fill="#61BBCC" points="126.652,255.333 127.992,252.234 120.533,252.234 121.925,248.952 130.417,248.952 
			131.764,245.807 119.76,245.807 112.9,261.874 125.019,261.874 126.367,258.729 117.736,258.729 119.192,255.333 		"/>
		<path fill="#61BBCC" d="M203.159,245.578c-3.443,0-6.701,2.02-7.22,5.302c-0.374,2.364,1.307,3.489,3.261,4.338
			c2.019,0.872,2.521,1.331,2.397,2.112c-0.16,1.01-1.298,1.676-2.721,1.676c-1.836,0-3.12-0.735-4.164-2.112l-3.019,2.249
			c1.206,1.951,3.433,2.961,6.532,2.961c3.374,0,6.693-1.974,7.228-5.348c0.371-2.341-1.107-3.443-3.169-4.338
			c-2.039-0.895-2.623-1.262-2.489-2.112c0.127-0.803,1.107-1.63,2.599-1.63c1.561,0,2.545,0.597,3.583,1.721l2.818-2.433
			C207.669,246.519,205.913,245.578,203.159,245.578z"/>
		<path fill="#61BBCC" d="M217.527,245.578c-3.443,0-6.701,2.02-7.221,5.302c-0.374,2.364,1.307,3.489,3.261,4.338
			c2.019,0.872,2.52,1.331,2.397,2.112c-0.16,1.01-1.298,1.676-2.721,1.676c-1.836,0-3.12-0.735-4.164-2.112l-3.019,2.249
			c1.206,1.951,3.433,2.961,6.531,2.961c3.374,0,6.693-1.974,7.228-5.348c0.371-2.341-1.107-3.443-3.169-4.338
			c-2.039-0.895-2.623-1.262-2.489-2.112c0.127-0.803,1.107-1.63,2.599-1.63c1.561,0,2.545,0.597,3.583,1.721l2.818-2.433
			C222.037,246.519,220.281,245.578,217.527,245.578z"/>
		<path fill="#61BBCC" d="M178.095,250.65c0.207-1.308-0.051-2.433-0.727-3.236c-0.908-1.079-2.454-1.607-4.841-1.607h-5.853
			l-6.86,16.067h3.535l2.191-5.141h2.639l1.665,5.141h4.017l-1.862-5.486C175.546,255.585,177.637,253.542,178.095,250.65z
			 M174.352,250.949c-0.28,1.767-2.12,2.663-4.324,2.663h-3.145l1.97-4.613h2.961c1.125,0,1.869,0.229,2.236,0.666
			C174.341,250.008,174.44,250.398,174.352,250.949z"/>
		<polygon fill="#61BBCC" points="185.525,248.952 194.017,248.952 195.365,245.807 183.361,245.807 176.501,261.874 
			188.62,261.874 189.967,258.729 181.337,258.729 182.793,255.333 190.252,255.333 191.593,252.234 184.133,252.234 		"/>
	</g>
</g>
<g>
	<g>
		<path fill="#B7B7B7" d="M76.955,276.668h-5.891v15.638h5.891c4.807,0,8.296-3.298,8.296-7.841
			C85.251,279.948,81.762,276.668,76.955,276.668z M81.983,284.509c0,2.93-2.021,4.898-5.028,4.898h-2.753v-9.839h2.753
			C79.915,279.568,81.983,281.6,81.983,284.509z"/>
		<polygon fill="#B7B7B7" points="100.327,289.45 91.639,289.45 91.639,285.85 99.244,285.85 99.244,282.994 91.639,282.994 
			91.639,279.524 100.218,279.524 100.218,276.668 88.502,276.668 88.502,292.306 100.327,292.306 		"/>
		<polygon fill="#B7B7B7" points="114.356,276.668 109.967,287.911 105.558,276.668 102.097,276.668 108.536,292.268 
			108.596,292.415 111.252,292.415 117.752,276.668 		"/>
		<path fill="#B7B7B7" d="M126.842,276.408c-4.591,0-8.187,3.558-8.187,8.1c0,4.594,3.501,8.057,8.144,8.057
			c4.668,0,8.187-3.483,8.187-8.1C134.986,279.872,131.485,276.408,126.842,276.408z M126.842,289.645
			c-2.804,0-4.919-2.227-4.919-5.18c0-2.928,2.097-5.136,4.876-5.136c2.805,0,4.92,2.227,4.92,5.18
			C131.719,287.437,129.622,289.645,126.842,289.645z"/>
		<polygon fill="#B7B7B7" points="149.347,289.407 141.375,289.407 141.375,276.668 138.237,276.668 138.237,292.306 
			149.347,292.306 		"/>
		<path fill="#B7B7B7" d="M164.922,285.506v-8.837h-3.137v8.967c0,2.572-1.27,3.988-3.577,3.988c-2.32,0-3.598-1.455-3.598-4.096
			v-8.859h-3.138v8.967c0,4.391,2.439,6.909,6.693,6.909C162.459,292.545,164.922,289.979,164.922,285.506z"/>
		<path fill="#B7B7B7" d="M175.884,292.566c2.575,0,4.466-0.825,6.323-2.759l0.16-0.166l-2.035-2.061l-0.168,0.157
			c-1.262,1.178-2.404,1.908-4.194,1.908c-2.718,0-4.768-2.227-4.768-5.18c0-2.928,2.05-5.136,4.768-5.136
			c1.469,0,2.729,0.562,4.086,1.822l0.179,0.167l2.02-2.326l-0.163-0.156c-1.256-1.2-2.964-2.427-6.1-2.427
			c-4.594,0-8.058,3.483-8.058,8.1C167.935,289.102,171.352,292.566,175.884,292.566z"/>
		<rect x="185.243" y="276.668" fill="#B7B7B7" width="3.138" height="15.638"/>
		<path fill="#B7B7B7" d="M199.972,276.408c-4.668,0-8.187,3.483-8.187,8.1c0,4.594,3.501,8.057,8.144,8.057
			c4.668,0,8.187-3.882,8.187-8.5C208.116,279.473,204.614,276.408,199.972,276.408z M204.848,284.509
			c0,2.928-2.097,5.136-4.876,5.136c-2.804,0-4.919-2.227-4.919-5.18c0-2.928,2.096-5.136,4.876-5.136
			C202.733,279.329,204.848,281.556,204.848,284.509z"/>
		<polygon fill="#B7B7B7" points="204.119,273.085 201.226,271.797 198.584,275.885 201.149,275.885 		"/>
		<polygon fill="#B7B7B7" points="221.961,276.269 221.961,286.3 214.188,276.269 211.367,276.269 211.367,291.907 214.461,291.907 
			214.461,281.573 222.471,291.907 225.055,291.907 225.055,276.269 		"/>
		<polygon fill="#B7B7B7" points="102.45,309.308 110.054,309.308 110.054,306.452 102.45,306.452 102.45,302.982 111.029,302.982 
			111.029,300.126 99.312,300.126 99.312,315.764 111.137,315.764 111.137,312.908 102.45,312.908 		"/>
		<polygon fill="#B7B7B7" points="124.917,310.156 117.145,300.126 114.324,300.126 114.324,315.764 117.418,315.764 
			117.418,305.43 125.428,315.764 128.012,315.764 128.012,300.126 124.917,300.126 		"/>
		<polygon fill="#B7B7B7" points="137.848,303.069 142.657,303.069 142.657,315.764 145.817,315.764 145.817,303.069 
			150.626,303.069 150.626,300.126 137.848,300.126 		"/>
		<rect x="153.618" y="300.126" fill="#B7B7B7" width="3.137" height="15.638"/>
		<polygon fill="#B7B7B7" points="163.968,309.308 171.573,309.308 171.573,306.452 163.968,306.452 163.968,302.982 
			172.547,302.982 172.547,300.126 160.83,300.126 160.83,315.764 172.656,315.764 172.656,312.908 163.968,312.908 		"/>
		<polygon fill="#B7B7B7" points="186.436,310.156 178.664,300.126 175.842,300.126 175.842,315.764 178.937,315.764 
			178.937,305.43 186.947,315.764 189.531,315.764 189.531,300.126 186.436,300.126 		"/>
		<path fill="#B7B7B7" d="M199.345,300.126h-5.891v15.638h5.891c4.807,0,8.295-3.697,8.295-8.24
			C207.64,303.006,204.151,300.126,199.345,300.126z M204.372,307.967c0,2.929-2.02,4.898-5.027,4.898h-2.753v-9.839h2.753
			C202.305,303.025,204.372,305.057,204.372,307.967z"/>
		<path fill="#B7B7B7" d="M215.306,299.618l-6.879,15.747h3.247l1.56-3.662h6.858l1.538,3.662h3.335l-6.879-15.747H215.306
			L215.306,299.618z M218.914,308.869h-4.502l2.242-5.232L218.914,308.869z"/>
	</g>
	<g>
		<path fill="#B7B7B7" d="M31.901,302.807h-3.708v4.705h3.73c1.812,0,2.937-0.906,2.937-2.364
			C34.859,303.213,33.25,302.807,31.901,302.807z"/>
		<polygon fill="#B7B7B7" points="46.074,309.165 50.666,309.165 48.361,303.83 		"/>
		<path fill="#B7B7B7" d="M1.863,296.183v23.765H94.83v-23.765H1.863z M21.451,313.499l-0.083,0.071
			c-1.311,1.122-3.519,2.459-6.588,2.459c-4.849,0-8.236-3.368-8.236-8.192c0-4.618,3.598-8.235,8.191-8.235
			c2.517,0,4.279,0.623,6.081,2.149l0.179,0.152l-2.023,2.412l-0.181-0.154c-1.157-0.986-2.257-1.596-4.166-1.596
			c-2.672,0-4.765,2.297-4.765,5.228c0,3.117,2.059,5.294,5.008,5.294c1.276,0,2.54-0.382,3.488-1.052v-2.53h-3.945v-2.831h7.04
			V313.499z M35.017,315.764l-3.79-5.377h-3.035v5.377h-3.183v-15.898h7.112c3.68,0,5.966,1.965,5.966,5.128
			c0,2.343-1.282,4.086-3.532,4.825l4.24,5.945L35.017,315.764L35.017,315.764z M53.425,315.764l-1.565-3.724H44.88l-1.586,3.724
			h-3.295l6.994-16.008h2.821l6.994,16.008H53.425z M69.264,302.851h-4.892v12.913h-3.205v-12.913h-4.892v-2.985h12.989V302.851z
			 M75.499,315.764h-3.184v-15.898h3.184V315.764z M85.288,315.985c-2.459,0-4.739-0.874-6.592-2.528l-0.171-0.153l1.933-2.299
			l0.181,0.157c1.577,1.365,2.987,1.948,4.715,1.948c1.54,0,2.496-0.661,2.496-1.725c0-0.96-0.476-1.498-3.299-2.15
			c-3.369-0.814-5.318-1.869-5.318-4.858c0-2.786,2.263-4.732,5.503-4.732c2.197,0,4.076,0.651,5.745,1.991l0.174,0.139
			l-1.724,2.429l-0.194-0.145c-1.389-1.036-2.712-1.539-4.045-1.539c-1.361,0-2.276,0.649-2.276,1.615
			c0,1.022,0.525,1.511,3.477,2.216c2.67,0.649,5.139,1.677,5.139,4.769C91.034,314.075,88.779,315.985,85.288,315.985z"/>
	</g>
</g>
<g>
	<g>
		<path fill="#CAC9AA" d="M76.955,330.236h-5.891v15.638h5.891c4.807,0,8.296-3.298,8.296-7.841
			C85.251,333.515,81.762,330.236,76.955,330.236z M81.983,338.077c0,2.93-2.021,4.898-5.028,4.898h-2.753v-9.839h2.753
			C79.915,333.136,81.983,335.167,81.983,338.077z"/>
		<polygon fill="#CAC9AA" points="100.327,343.018 91.639,343.018 91.639,339.418 99.244,339.418 99.244,336.562 91.639,336.562 
			91.639,333.092 100.218,333.092 100.218,330.236 88.502,330.236 88.502,345.874 100.327,345.874 		"/>
		<polygon fill="#CAC9AA" points="114.356,330.236 109.967,341.479 105.558,330.236 102.097,330.236 108.536,345.836 
			108.596,345.982 111.252,345.982 117.752,330.236 		"/>
		<path fill="#CAC9AA" d="M126.842,329.976c-4.591,0-8.187,3.558-8.187,8.1c0,4.594,3.501,8.057,8.144,8.057
			c4.668,0,8.187-3.483,8.187-8.1C134.986,333.44,131.485,329.976,126.842,329.976z M126.842,343.213
			c-2.804,0-4.919-2.227-4.919-5.18c0-2.928,2.097-5.136,4.876-5.136c2.805,0,4.92,2.227,4.92,5.18
			C131.719,341.005,129.622,343.213,126.842,343.213z"/>
		<polygon fill="#CAC9AA" points="149.347,342.975 141.375,342.975 141.375,330.236 138.237,330.236 138.237,345.874 
			149.347,345.874 		"/>
		<path fill="#CAC9AA" d="M164.922,339.073v-8.837h-3.137v8.967c0,2.572-1.27,3.988-3.577,3.988c-2.32,0-3.598-1.455-3.598-4.096
			v-8.859h-3.138v8.967c0,4.391,2.439,6.909,6.693,6.909C162.459,346.112,164.922,343.547,164.922,339.073z"/>
		<path fill="#CAC9AA" d="M175.884,346.134c2.575,0,4.466-0.825,6.323-2.759l0.16-0.166l-2.035-2.061l-0.168,0.157
			c-1.262,1.178-2.404,1.908-4.194,1.908c-2.718,0-4.768-2.227-4.768-5.18c0-2.928,2.05-5.136,4.768-5.136
			c1.469,0,2.729,0.562,4.086,1.822l0.179,0.167l2.02-2.326l-0.163-0.156c-1.256-1.2-2.964-2.427-6.1-2.427
			c-4.594,0-8.058,3.483-8.058,8.1C167.935,342.67,171.352,346.134,175.884,346.134z"/>
		<rect x="185.243" y="330.236" fill="#CAC9AA" width="3.138" height="15.638"/>
		<path fill="#CAC9AA" d="M199.972,329.976c-4.668,0-8.187,3.483-8.187,8.1c0,4.594,3.501,8.057,8.144,8.057
			c4.668,0,8.187-3.882,8.187-8.5C208.116,333.041,204.614,329.976,199.972,329.976z M204.848,338.077
			c0,2.928-2.097,5.136-4.876,5.136c-2.804,0-4.919-2.227-4.919-5.18c0-2.928,2.096-5.136,4.876-5.136
			C202.733,332.897,204.848,335.124,204.848,338.077z"/>
		<polygon fill="#CAC9AA" points="204.119,326.653 201.226,325.365 198.584,329.453 201.149,329.453 		"/>
		<polygon fill="#CAC9AA" points="221.961,329.837 221.961,339.867 214.188,329.837 211.367,329.837 211.367,345.475 
			214.461,345.475 214.461,335.141 222.471,345.475 225.055,345.475 225.055,329.837 		"/>
		<polygon fill="#CAC9AA" points="102.45,362.876 110.054,362.876 110.054,360.019 102.45,360.019 102.45,356.55 111.029,356.55 
			111.029,353.694 99.312,353.694 99.312,369.332 111.137,369.332 111.137,366.476 102.45,366.476 		"/>
		<polygon fill="#CAC9AA" points="124.917,363.724 117.145,353.694 114.324,353.694 114.324,369.332 117.418,369.332 
			117.418,358.998 125.428,369.332 128.012,369.332 128.012,353.694 124.917,353.694 		"/>
		<polygon fill="#CAC9AA" points="137.848,356.637 142.657,356.637 142.657,369.332 145.817,369.332 145.817,356.637 
			150.626,356.637 150.626,353.694 137.848,353.694 		"/>
		<rect x="153.618" y="353.694" fill="#CAC9AA" width="3.137" height="15.638"/>
		<polygon fill="#CAC9AA" points="163.968,362.876 171.573,362.876 171.573,360.019 163.968,360.019 163.968,356.55 172.547,356.55 
			172.547,353.694 160.83,353.694 160.83,369.332 172.656,369.332 172.656,366.476 163.968,366.476 		"/>
		<polygon fill="#CAC9AA" points="186.436,363.724 178.664,353.694 175.842,353.694 175.842,369.332 178.937,369.332 
			178.937,358.998 186.947,369.332 189.531,369.332 189.531,353.694 186.436,353.694 		"/>
		<path fill="#CAC9AA" d="M199.345,353.694h-5.891v15.638h5.891c4.807,0,8.295-3.697,8.295-8.24
			C207.64,356.574,204.151,353.694,199.345,353.694z M204.372,361.534c0,2.929-2.02,4.898-5.027,4.898h-2.753v-9.839h2.753
			C202.305,356.593,204.372,358.625,204.372,361.534z"/>
		<path fill="#CAC9AA" d="M215.306,353.186l-6.879,15.747h3.247l1.56-3.662h6.858l1.538,3.662h3.335l-6.879-15.747H215.306
			L215.306,353.186z M218.914,362.437h-4.502l2.242-5.232L218.914,362.437z"/>
	</g>
	<g>
		<path fill="#CAC9AA" d="M31.901,356.375h-3.708v4.705h3.73c1.812,0,2.937-0.906,2.937-2.364
			C34.859,356.781,33.25,356.375,31.901,356.375z"/>
		<polygon fill="#CAC9AA" points="46.074,362.733 50.666,362.733 48.361,357.398 		"/>
		<path fill="#CAC9AA" d="M1.863,349.751v23.765H94.83v-23.765H1.863z M21.451,367.067l-0.083,0.071
			c-1.311,1.122-3.519,2.459-6.588,2.459c-4.849,0-8.236-3.368-8.236-8.192c0-4.618,3.598-8.235,8.191-8.235
			c2.517,0,4.279,0.623,6.081,2.149l0.179,0.152l-2.023,2.412l-0.181-0.154c-1.157-0.986-2.257-1.596-4.166-1.596
			c-2.672,0-4.765,2.297-4.765,5.228c0,3.117,2.059,5.294,5.008,5.294c1.276,0,2.54-0.382,3.488-1.052v-2.53h-3.945v-2.831h7.04
			V367.067z M35.017,369.332l-3.79-5.377h-3.035v5.377h-3.183v-15.898h7.112c3.68,0,5.966,1.965,5.966,5.128
			c0,2.343-1.282,4.086-3.532,4.825l4.24,5.945L35.017,369.332L35.017,369.332z M53.425,369.332l-1.565-3.724H44.88l-1.586,3.724
			h-3.295l6.994-16.008h2.821l6.994,16.008H53.425z M69.264,356.419h-4.892v12.913h-3.205v-12.913h-4.892v-2.985h12.989V356.419z
			 M75.499,369.332h-3.184v-15.898h3.184V369.332z M85.288,369.552c-2.459,0-4.739-0.874-6.592-2.528l-0.171-0.153l1.933-2.299
			l0.181,0.157c1.577,1.365,2.987,1.948,4.715,1.948c1.54,0,2.496-0.661,2.496-1.725c0-0.96-0.476-1.498-3.299-2.15
			c-3.369-0.814-5.318-1.869-5.318-4.858c0-2.786,2.263-4.732,5.503-4.732c2.197,0,4.076,0.651,5.745,1.991l0.174,0.139
			l-1.724,2.429l-0.194-0.145c-1.389-1.036-2.712-1.539-4.045-1.539c-1.361,0-2.276,0.649-2.276,1.615
			c0,1.022,0.525,1.511,3.477,2.216c2.67,0.649,5.139,1.677,5.139,4.769C91.034,367.643,88.779,369.552,85.288,369.552z"/>
	</g>
</g>
</svg>
