<?xml version="1.0" encoding="utf-8"?>
<!-- Generator: Adobe Illustrator 17.0.0, SVG Export Plug-In . SVG Version: 6.00 Build 0)  -->
<svg version="1.2" baseProfile="tiny" id="Capa_1" xmlns="http://www.w3.org/2000/svg" xmlns:xlink="http://www.w3.org/1999/xlink"
	 x="0px" y="0px" width="228px" height="382px" viewBox="0 0 228 382" xml:space="preserve">
<style type="text/css">
	.st0{fill:#FFFFFF;}
	.st1{fill:#B7B7B7;}
	.st2{fill:#E99292;}
	.st3{fill:#A6D09F;}
	.st4{fill:#61BBCC;}
	.st5{fill:#CAC9AA;}
</style>
<g id="elcorteingles">
	<g>
		<path class="st0" d="M127.3,10.5c0,0.3,0.1,0.7,0.1,1c0.2,2,0.3,4,0.5,6c0.1,1.7,0.3,3.3,0.4,5c0.1,1.6,0.3,3.3,0.4,4.9
			c0,0.6,0.1,1.3,0.1,1.9c4.1-0.3,7.1,1.2,8.9,5c0.6-0.8,1.4-1.4,2.3-1.8c1.7-0.7,3.4-0.9,5.2-0.1c1.4,0.6,2.3,1.7,3,3.1
			c0.7,1.4,1.1,3,1.2,4.6c0.1,2.2,0.1,4.3,0.1,6.5c0,0.2,0,0.5,0,0.7c-1.9,0-3.8,0-5.8,0c0-0.1,0-0.2,0-0.4c0-2.1,0-4.1,0-6.2
			c0-0.6-0.1-1.2-0.4-1.7c-0.4-0.7-1-1.1-1.8-1.1c-0.8,0-1.4,0.4-1.7,1.1c-0.2,0.4-0.3,0.9-0.3,1.4c0,2.6,0,5.2,0,7.8
			c0,0.1,0,0.3,0,0.4c-1.8,0-3.6,0-5.5,0c0-0.4-0.1-0.8-0.1-1.1c-0.1-2.3-0.2-4.6-0.4-6.9c0-0.6,0-1.3-0.1-1.9
			c-0.3-1.4-1.2-2.3-2.6-2.7c-0.8-0.2-1.4,0.2-1.5,1.1c0,0.3,0,0.6,0.1,0.9c0.2,1.7,0.4,3.3,0.5,5c0.1,1.8,0.2,3.6,0.2,5.4
			c0,2.7-0.3,5.3-1.1,7.8c-0.4,1.3-0.9,2.5-1.8,3.6c-0.8,1-1.8,1.7-3.1,2c0,0-0.1,0-0.1,0c-0.4,0-0.8,0-1.1,0
			c-1-0.2-1.8-0.7-2.5-1.4c-1-1-1.6-2.2-2-3.4c-0.5-1.5-0.8-3-0.9-4.6c-0.1-1.6-0.1-3.1,0-4.7c0.4-4.6,1.5-8.9,3.9-12.9
			c0.6-0.9,1.3-1.8,2-2.6c0.1-0.2,0.2-0.3,0.2-0.5c-0.1-1.4-0.2-2.8-0.3-4.3c-0.1-1.2-0.2-2.4-0.3-3.6c-0.1-1.1-0.2-2.3-0.3-3.4
			c-0.1-1.5-0.2-2.9-0.4-4.4c-0.1-0.8-0.1-1.6-0.2-2.4c-0.1-1-0.1-2-0.2-3.1c0.7,0,1.3,0,2-0.1c1,0,2-0.1,3-0.1
			C127.1,10.5,127.2,10.5,127.3,10.5z M125.1,46.6c-0.1-1-0.1-1.9-0.2-2.9c-0.1-0.6-0.2-1.1-0.4-1.7c-0.1-0.3-0.4-0.3-0.5,0
			c-0.1,0.2-0.2,0.4-0.3,0.6c-0.4,1.2-0.5,2.5-0.6,3.8c-0.1,1.6-0.1,3.3,0.1,4.9c0.1,0.6,0.3,1.2,0.4,1.8c0,0.1,0.2,0.2,0.3,0.2
			c0.1,0,0.3-0.1,0.3-0.2c0.1-0.3,0.3-0.6,0.3-0.9C124.9,50.4,125,48.5,125.1,46.6z"/>
		<path class="st0" d="M7.6,27.8c0.1-0.6,0.2-1.3,0.4-1.9c1-3.2,3.1-5.5,6.1-6.9c2-1,4.1-1.4,6.3-1.3c1.4,0,2.8,0.3,4.2,0.9
			c0.2,0.1,0.3,0.1,0.3,0.3c0,2,0,4.1,0,6.1c0,0,0,0.1,0,0.1c-0.1,0-0.2-0.1-0.3-0.1c-1.3-0.6-2.7-0.9-4.2-0.8
			c-2.8,0.1-5.2,1.6-6.1,4.2c-0.5,1.4-0.4,2.8,0,4.2c0.1-0.1,0.2-0.1,0.3-0.2c1.2-0.8,2.5-1.4,4-1.4c1.7,0,3.1,0.7,4.2,2
			c0.9,1.1,1.4,2.4,1.4,3.9c0,2.1-1,3.5-2.9,4.4c-0.9,0.4-1.9,0.7-2.9,0.7c-0.6,0-1.2,0-1.8,0c0.5,0.8,1,1.3,1.8,1.6
			c1.1,0.5,2.2,0.5,3.4,0.3c1.5-0.3,2.9-0.9,4.3-1.7c0.2-0.1,0.2-0.2,0.2-0.4c-0.3-1.8-0.5-3.7-0.5-5.6c0-2.6,0.3-5.1,1.4-7.5
			c0.6-1.5,1.5-2.8,2.8-3.8c0.8-0.6,1.8-1,2.9-1c1.1,0,2,0.6,2.7,1.4c0.8,1,1.2,2.2,1.4,3.5c0.3,2.3,0.1,4.5-0.4,6.7
			C35.8,38,35,40.3,34,42.5c-0.1,0.1-0.1,0.2-0.2,0.4c-0.2,0.4-0.1,0.7,0.3,0.9c0.3,0.1,0.5,0.2,0.8,0.2c1.4,0.1,2.6-0.3,3.7-1.1
			c0,0,0.1,0,0.1,0c0,0.1,0,0.2,0,0.3c0,1.4,0,2.9,0,4.3c0,0.2,0,0.3-0.2,0.4c-2.5,1.5-5.2,1.8-7.9,0.5c-0.5-0.2-1-0.6-1.5-1
			c-0.7,0.4-1.3,0.8-2,1.1c-1.7,0.8-3.5,1.4-5.4,1.6c-2.2,0.3-4.4,0.1-6.4-0.8c-3.1-1.3-4.9-3.7-5.4-7.1c-0.2-1.2-0.1-2.4,0.1-3.6
			c0-0.1,0-0.2,0-0.4c-1-1.9-1.8-3.9-2.2-6C7.8,31.7,7.3,30.1,7.6,27.8z M32.4,33.4c0-0.3-0.1-0.8-0.2-1.3c-0.1-0.3-0.1-0.7-0.5-0.7
			c-0.4,0-0.5,0.3-0.7,0.6c-0.8,1.7-1,3.4-0.7,5.2c0,0.2,0.1,0.5,0.2,0.7c0.2,0.3,0.5,0.4,0.7,0.1c0.2-0.2,0.3-0.4,0.4-0.6
			C32.2,36.2,32.3,34.9,32.4,33.4z M17.8,38.2c0.7,0,1.3-0.6,1.3-1.3c0-0.7-0.6-1.3-1.3-1.3c-0.7,0-1.3,0.6-1.3,1.3
			C16.5,37.6,17.1,38.2,17.8,38.2z"/>
		<path class="st0" d="M84.6,36.6c0.6-1.3,2.4-2,3.7-1.8c0.1,0,0.3,0,0.3,0.2c0,1.6,0,3.3,0,5c-0.3,0.1-0.7,0.1-1,0.2
			c-1.3,0.3-1.9,1.2-1.9,2.5c0,1.6,0,3.2,0,4.8c0,0.1,0,0.2,0,0.3c-1.5,0-3,0-4.6,0c0-0.1,0-0.2,0-0.3c0-1.5,0-3,0-4.4
			c0-1.5-0.9-2.2-2.1-2.4c-0.3,0-0.6,0-0.9-0.1c-0.1,0.4-0.1,0.7-0.1,1c-0.4,1.7-1.4,3-2.7,4.1c-1.5,1.3-3.3,2-5.3,2
			c-1.7,0-3.2-0.4-4.7-1.3c-0.3-0.2-0.6-0.2-0.9,0c-2.3,1.4-4.7,2.6-7.3,3.2c-3,0.7-5.9,0.5-8.6-0.8c-2.1-1-3.6-2.6-4.9-4.5
			c-1.4-2.1-2.1-4.5-2.4-7c-0.4-3.2,0-6.3,1.3-9.3c2-4.5,5.4-7.3,10.1-8.4c2.4-0.6,4.8-0.6,7.2-0.4c0.4,0,0.7,0.1,1.1,0.1
			c0,1.9,0,3.8,0,5.8c-0.5-0.1-1-0.2-1.4-0.3c-2.1-0.4-4.2-0.4-6.3,0.2c-3,0.9-5,2.8-5.9,5.8c-1.1,3.6-0.7,7,1.3,10.1
			c1.1,1.7,2.7,2.8,4.8,3.2c1.5,0.2,2.9,0,4.3-0.6c1.3-0.5,2.5-1.2,3.7-2.1c0.1-0.1,0.1-0.2,0.1-0.3c-0.2-1.4-0.1-2.7,0.7-3.8
			c0.9-1.3,2.1-2,3.7-1.9c1.1,0.1,1.9,0.9,1.9,2c0,0.7,0,1.4,0.1,2.1c0.1,0.6,0.2,1.1,0.4,1.7c0.6,1.8,2.4,1.9,3.6,1.2
			c0.3-0.2,0.6-0.5,0.8-0.8c0.4-0.7,0.2-1.3-0.6-1.6c-0.5-0.2-0.9-0.3-1.4-0.4c-1-0.4-1.8-1-2.4-1.9c-0.8-1.1-0.9-2.3-0.6-3.6
			c0.4-1.7,1.2-3,2.6-3.9c1.7-1.2,3.8-1.1,5.4,0.2c1.1,0.9,1.9,2,2.6,3.3c0.1,0.2,0.2,0.3,0.4,0.3c1.9,0.1,3.6,0.5,5,1.9
			C84.1,36,84.4,36.3,84.6,36.6z M74,34.8c0-0.5-0.4-0.9-0.9-0.9c-0.5,0-1,0.4-1,0.9c0,0.5,0.4,0.9,0.9,0.9
			C73.6,35.7,74,35.3,74,34.8z"/>
		<path class="st0" d="M90.1,40.1c0-1.7,0-3.3,0-5c0.6,0,1.1,0,1.7,0c0.2-3.8,0.5-7.5,0.7-11.3c1.7,0,3.3,0,5,0
			c-0.3,4-0.6,7.9-0.9,12c0.5,0,1,0,1.4,0c0.1,0,0.2-0.1,0.2-0.2c0.8-1.5,1.6-2.9,2.8-4c1.3-1.3,2.7-2.3,4.5-2.6
			c2.9-0.5,5.8,1.1,6.4,4c0.3,1.6-0.1,3-0.9,4.3c-1,1.6-2.4,2.7-4,3.6c-0.7,0.4-1.4,0.7-2.2,1.1c-0.1,0-0.1,0.1-0.2,0.1
			c0.7,1,1.6,1.6,2.8,1.7c1.4,0.2,2.6-0.3,3.8-1c0.5-0.3,1-0.6,1.5-0.9c0,0.1,0,0.2,0,0.3c0,1.7,0,3.4,0,5.1c0,0.3-0.1,0.5-0.3,0.6
			c-1.2,1-2.5,1.5-4,1.7c-2,0.3-3.9,0-5.7-1c-2.1-1.1-3.5-2.9-4.3-5.1c-0.2-0.5-0.4-0.9-0.7-1.3c-0.2-0.2-0.4-0.4-0.7-0.5
			c-0.5-0.2-0.8,0.1-0.8,0.6c0,1.9,0,3.8,0,5.7c0,0.1,0,0.2,0,0.4c-1.7,0-3.3,0-5,0c0-2.7,0-5.5,0-8.2
			C90.9,40.1,90.6,40.1,90.1,40.1z M106.4,34.5c0-0.6-0.4-0.9-0.9-0.6c-0.3,0.1-0.6,0.4-0.8,0.6c-0.5,0.6-1,1.2-1,2.1
			c0,0.5,0.3,0.8,0.8,0.6C105.4,36.8,106.4,35.5,106.4,34.5z"/>
		<path class="st0" d="M195.8,41.1c0.4-0.2,0.8-0.3,1.2-0.5c1.7-0.7,3.2-1.7,4.7-2.6c2.5-1.6,5-3.2,7.6-4.5c1.5-0.7,2.9-1.4,4.6-1.6
			c1.5-0.2,3-0.2,4.5,0.4c2,0.8,3.1,2.4,3.4,4.5c0.4,2.9-0.4,5.5-2.1,7.8c-2.2,2.9-5.1,4.6-8.6,5.3c-0.8,0.1-1.6,0.2-2.4,0.3
			c0-0.2,0-0.3,0-0.4c0-1.7,0-3.4,0-5.1c0-0.2,0.1-0.3,0.3-0.4c1.9-0.6,3.7-1.3,5.2-2.5c0.5-0.4,1-0.7,1.2-1.4
			c0.4-1.2-0.2-2.4-1.2-2.7c-0.6-0.2-1.2-0.1-1.7,0.1c-0.8,0.4-1.6,0.9-2.4,1.3c-3.7,2.3-7.5,4.6-11.2,6.9c-1.9,1.2-4,1.7-6.2,1.6
			c-0.7,0-1.4-0.2-2-0.6c-0.1,0-0.2-0.1-0.3,0c-1.7,1.2-3.6,1.9-5.7,2.3c-1.2,0.2-2.4,0.4-3.6,0.3c-1.9-0.1-3.7-0.4-5.3-1.6
			c-0.5-0.4-1-1-1.5-1.5c-0.2,0.1-0.5,0.3-0.8,0.6c-1.6,1.1-3.2,2.2-4.8,3.3c-0.1,0.1-0.2,0.2-0.2,0.4c0.2,2.1,0.1,4.2-0.7,6.2
			c-0.9,2.2-2.4,3.5-4.7,3.9c-2.1,0.3-4.1,0-5.7-1.6c-1-0.9-1.5-2.1-1.6-3.4c-0.3-2.9,1-5.2,3.1-7.1c1-0.9,2.2-1.6,3.5-2.1
			c0.2-0.1,0.3-0.2,0.3-0.4c0-0.5,0-1,0-1.5c-0.4,0.2-0.7,0.5-1,0.6c-1.4,0.8-2.9,1.4-4.5,1.5c-1.5,0.2-3,0-4.2-0.9
			c-1.1-0.8-1.6-1.9-1.9-3.1c-0.6-2.4,0-4.5,1.3-6.4c1.4-2.2,3.3-3.7,5.6-4.9c2.4-1.2,5-1.9,7.7-2.2c0.6-0.1,1.1-0.1,1.7-0.2
			c0,1.9,0,3.8,0,5.7c-0.8,0.1-1.5,0.2-2.2,0.3c-2.2,0.3-4.3,0.9-6.1,2.2c-0.9,0.7-1.7,1.5-1.9,2.6c0,0.3,0,0.7,0,1
			c0.1,0.4,0.2,0.5,0.6,0.5c0.7,0,1.3-0.4,1.9-0.8c1.7-1.1,2.9-2.6,3.6-4.5c0.1-0.1,0.1-0.3,0.3-0.3c1.7,0,3.3,0,5,0
			c0,0,0.1,0,0.1,0c0,2.5,0,4.9,0,7.5c1.1-0.4,2.2-0.8,3.3-1.2c-0.2-0.7-0.4-1.3-0.6-2c-0.6-2.1-0.8-4.2-0.7-6.4
			c0.1-2.3,0.7-4.5,1.9-6.5c0.7-1.2,1.6-2.2,2.9-2.8c1.4-0.7,2.7-0.6,4.1,0c2.3,0.9,3.5,2.6,3.9,4.9c0.3,2.1,0,4.1-0.7,6.1
			c-0.7,2.4-1.9,4.5-3.3,6.6c-0.1,0.1-0.1,0.2,0,0.4c0.6,0.7,1.3,1.1,2.2,1.2c0.9,0.2,1.7,0,2.5-0.3c0.2-0.1,0.2-0.1,0.2-0.4
			c-0.5-1.4-0.8-2.8-0.8-4.3c0-2.1,0.6-4,2.1-5.5c1.1-1,2.3-1.6,3.8-1.8c1.8-0.3,3.4,0.1,4.9,1.1c1.4,1,2.2,2.4,2.3,4.2
			c0.1,1.4-0.2,2.7-0.7,3.9c0,0.1-0.1,0.2-0.1,0.2C195.8,41,195.8,41,195.8,41.1z M177.8,32.6c0-0.1,0-0.2,0-0.2
			c-0.1-0.5-0.1-1-0.3-1.4c-0.2-0.5-0.5-0.5-0.8-0.1c-0.1,0.2-0.2,0.4-0.3,0.6c-0.6,1.4-0.8,2.8-0.7,4.3c0,0.3,0.1,0.7,0.3,1
			c0.1,0.3,0.4,0.3,0.7,0.1c0.1-0.2,0.3-0.3,0.4-0.5C177.6,35.1,177.8,33.9,177.8,32.6z M191.7,38.7c0-0.7-0.1-1.2-0.4-1.6
			c-0.5-0.8-1.4-0.8-1.9,0c-0.5,0.8-0.6,2.1,0,2.9c0.5,0.8,1.4,0.8,1.9,0C191.6,39.5,191.7,39,191.7,38.7z M161,53.8
			c0,0.1,0,0.1,0,0.2c0.1,0.5,0.3,0.9,0.8,1.1c0.4,0.1,0.8,0,1.1-0.3c0.4-0.5,0.5-1.2,0.2-1.8c-0.4-0.7-1.2-0.9-1.8-0.3
			C161.1,53.1,161,53.4,161,53.8z"/>
		<path class="st0" d="M210.3,26c-3.7,2.4-7.4,4.7-11.1,7.1c-1.2-1.4-2.3-2.9-3.5-4.3c3.9-2.5,7.8-5.1,11.7-7.6
			C208.4,22.8,209.3,24.4,210.3,26z"/>
	</g>
</g>
<g>
	<g>
		<path class="st1" d="M20.1,86.8c-1.2,1.2-2.4,1.9-4.1,1.9c-2.7,0-4.7-2.2-4.7-5.1c0-2.9,2-5,4.7-5c1.4,0,2.7,0.6,4,1.8l0.3,0.3
			l2.2-2.6l-0.3-0.3c-1.3-1.2-3-2.5-6.2-2.5c-4.7,0-8.3,3.6-8.3,8.3c0,4.7,3.5,8.3,8.2,8.3c2.6,0,4.6-0.8,6.5-2.8l0.3-0.3l-2.2-2.3
			L20.1,86.8z"/>
		<polygon class="st1" points="28.5,75.6 25,75.6 25,91.6 36.5,91.6 36.5,88.4 28.5,88.4 		"/>
		<rect x="39.2" y="75.6" class="st1" width="3.5" height="16"/>
		<path class="st1" d="M58.1,86.8c-1.2,1.2-2.4,1.9-4.1,1.9c-2.7,0-4.7-2.2-4.7-5.1c0-2.9,2-5,4.7-5c1.4,0,2.7,0.6,4,1.8l0.3,0.3
			l2.2-2.6l-0.3-0.3c-1.3-1.2-3-2.5-6.2-2.5c-4.7,0-8.3,3.6-8.3,8.3c0,4.7,3.5,8.3,8.2,8.3c2.6,0,4.6-0.8,6.5-2.8l0.3-0.3l-2.2-2.3
			L58.1,86.8z"/>
		<polygon class="st1" points="70.8,82.6 77.6,75.6 73.2,75.6 66.5,82.7 66.5,75.6 63.1,75.6 63.1,91.6 66.5,91.6 66.5,87 68.5,85 
			73.5,91.6 77.7,91.6 		"/>
	</g>
	<g>
		<path class="st1" d="M90.8,88.2c0,1.3,1.1,2.2,2.6,2.2c0.9,0,1.9-0.4,2.8-1.2l-3.5-3.6C91.4,86.3,90.8,87.1,90.8,88.2z"/>
		<path class="st1" d="M96.2,79.6c0-1-0.6-1.6-1.6-1.6c-1,0-1.7,0.7-1.7,1.8c0,0.7,0.3,1.3,1.1,2.2C95.5,81.3,96.2,80.6,96.2,79.6z"
			/>
		<path class="st1" d="M83.6,72v23.9H107V72H83.6z M100.8,94l-2.3-2.4c-1.7,1.5-3.4,2.2-5.4,2.2c-3.6,0-6.2-2.3-6.2-5.5
			c0-2.3,1.2-4,3.6-5.2c-0.9-1.2-1.3-2.3-1.3-3.6c0-2.4,1.9-4.9,5.5-4.9c3,0,5.1,2,5.1,4.7c0,2.2-1.2,3.7-3.6,4.8l2.3,2.3
			c0.5-0.9,1.1-1.9,1.6-3l0.2-0.4l3,1.6l-0.2,0.3c-0.8,1.6-1.5,2.8-2.3,3.9l2.9,2.9L100.8,94z"/>
	</g>
	<g>
		<path class="st1" d="M127,86.8c-1.2,1.2-2.4,1.9-4.1,1.9c-2.7,0-4.7-2.2-4.7-5.1c0-2.9,2-5,4.7-5c1.4,0,2.7,0.6,4,1.8l0.3,0.3
			l2.2-2.6l-0.3-0.3c-1.3-1.2-3-2.5-6.2-2.5c-4.7,0-8.3,3.6-8.3,8.3c0,4.7,3.5,8.3,8.2,8.3c2.6,0,4.6-0.8,6.5-2.8l0.3-0.3l-2.2-2.3
			L127,86.8z"/>
		<path class="st1" d="M139.2,75.3c-4.7,0-8.4,3.6-8.4,8.3c0,4.7,3.6,8.3,8.4,8.3c4.7,0,8.4-3.6,8.4-8.3
			C147.5,78.9,143.9,75.3,139.2,75.3z M139.2,88.7c-2.7,0-4.8-2.2-4.8-5.1c0-2.9,2.1-5,4.8-5c2.7,0,4.8,2.2,4.8,5.1
			C143.9,86.5,141.9,88.7,139.2,88.7z"/>
		<polygon class="st1" points="153.9,75.6 150.5,75.6 150.5,91.6 162,91.6 162,88.4 153.9,88.4 		"/>
		<polygon class="st1" points="168,75.6 164.5,75.6 164.5,91.6 176,91.6 176,88.4 168,88.4 		"/>
		<polygon class="st1" points="182,85.1 189.6,85.1 189.6,82 182,82 182,78.8 190.6,78.8 190.6,75.6 178.5,75.6 178.5,91.6 
			190.7,91.6 190.7,88.5 182,88.5 		"/>
		<path class="st1" d="M205.3,86.8c-1.2,1.2-2.4,1.9-4.1,1.9c-2.7,0-4.7-2.2-4.7-5.1c0-2.9,2-5,4.7-5c1.4,0,2.7,0.6,4,1.8l0.3,0.3
			l2.2-2.6l-0.3-0.3c-1.3-1.2-3-2.5-6.2-2.5c-4.7,0-8.3,3.6-8.3,8.3c0,4.7,3.5,8.3,8.2,8.3c2.6,0,4.6-0.8,6.5-2.8l0.3-0.3l-2.2-2.3
			L205.3,86.8z"/>
		<polygon class="st1" points="209.2,75.6 209.2,78.9 214,78.9 214,91.6 217.5,91.6 217.5,78.9 222.3,78.9 222.3,75.6 		"/>
	</g>
</g>
<g>
	<g>
		<path class="st2" d="M20.1,120.7c-1.2,1.2-2.4,1.9-4.1,1.9c-2.7,0-4.7-2.2-4.7-5.1c0-2.9,2-5,4.7-5c1.4,0,2.7,0.6,4,1.8l0.3,0.3
			l2.2-2.6l-0.3-0.3c-1.3-1.2-3-2.5-6.2-2.5c-4.7,0-8.3,3.6-8.3,8.3c0,4.7,3.5,8.3,8.2,8.3c2.6,0,4.6-0.8,6.5-2.8l0.3-0.3l-2.2-2.3
			L20.1,120.7z"/>
		<polygon class="st2" points="28.5,109.5 25,109.5 25,125.6 36.5,125.6 36.5,122.4 28.5,122.4 		"/>
		<rect x="39.2" y="109.5" class="st2" width="3.5" height="16"/>
		<path class="st2" d="M58.1,120.7c-1.2,1.2-2.4,1.9-4.1,1.9c-2.7,0-4.7-2.2-4.7-5.1c0-2.9,2-5,4.7-5c1.4,0,2.7,0.6,4,1.8l0.3,0.3
			l2.2-2.6l-0.3-0.3c-1.3-1.2-3-2.5-6.2-2.5c-4.7,0-8.3,3.6-8.3,8.3c0,4.7,3.5,8.3,8.2,8.3c2.6,0,4.6-0.8,6.5-2.8l0.3-0.3l-2.2-2.3
			L58.1,120.7z"/>
		<polygon class="st2" points="70.8,116.5 77.6,109.5 73.2,109.5 66.5,116.7 66.5,109.5 63.1,109.5 63.1,125.6 66.5,125.6 
			66.5,120.9 68.5,118.9 73.5,125.6 77.7,125.6 		"/>
	</g>
	<g>
		<path class="st2" d="M90.8,122.1c0,1.3,1.1,2.2,2.6,2.2c0.9,0,1.9-0.4,2.8-1.2l-3.5-3.6C91.4,120.2,90.8,121.1,90.8,122.1z"/>
		<path class="st2" d="M96.2,113.5c0-1-0.6-1.6-1.6-1.6c-1,0-1.7,0.7-1.7,1.8c0,0.7,0.3,1.3,1.1,2.2
			C95.5,115.2,96.2,114.5,96.2,113.5z"/>
		<path class="st2" d="M83.6,105.9v23.9H107v-23.9H83.6z M100.8,127.9l-2.3-2.4c-1.7,1.5-3.4,2.2-5.4,2.2c-3.6,0-6.2-2.3-6.2-5.5
			c0-2.3,1.2-4,3.6-5.2c-0.9-1.2-1.3-2.3-1.3-3.6c0-2.4,1.9-4.9,5.5-4.9c3,0,5.1,2,5.1,4.7c0,2.2-1.2,3.7-3.6,4.8l2.3,2.3
			c0.5-0.9,1.1-1.9,1.6-3l0.2-0.4l3,1.6l-0.2,0.3c-0.8,1.6-1.5,2.8-2.3,3.9l2.9,2.9L100.8,127.9z"/>
	</g>
	<g>
		<path class="st2" d="M127,120.7c-1.2,1.2-2.4,1.9-4.1,1.9c-2.7,0-4.7-2.2-4.7-5.1c0-2.9,2-5,4.7-5c1.4,0,2.7,0.6,4,1.8l0.3,0.3
			l2.2-2.6l-0.3-0.3c-1.3-1.2-3-2.5-6.2-2.5c-4.7,0-8.3,3.6-8.3,8.3c0,4.7,3.5,8.3,8.2,8.3c2.6,0,4.6-0.8,6.5-2.8l0.3-0.3l-2.2-2.3
			L127,120.7z"/>
		<path class="st2" d="M139.2,109.3c-4.7,0-8.4,3.6-8.4,8.3c0,4.7,3.6,8.3,8.4,8.3c4.7,0,8.4-3.6,8.4-8.3
			C147.5,112.8,143.9,109.3,139.2,109.3z M139.2,122.6c-2.7,0-4.8-2.2-4.8-5.1c0-2.9,2.1-5,4.8-5c2.7,0,4.8,2.2,4.8,5.1
			C143.9,120.5,141.9,122.6,139.2,122.6z"/>
		<polygon class="st2" points="153.9,109.5 150.5,109.5 150.5,125.6 162,125.6 162,122.4 153.9,122.4 		"/>
		<polygon class="st2" points="168,109.5 164.5,109.5 164.5,125.6 176,125.6 176,122.4 168,122.4 		"/>
		<polygon class="st2" points="182,119.1 189.6,119.1 189.6,115.9 182,115.9 182,112.7 190.6,112.7 190.6,109.5 178.5,109.5 
			178.5,125.6 190.7,125.6 190.7,122.4 182,122.4 		"/>
		<path class="st2" d="M205.3,120.7c-1.2,1.2-2.4,1.9-4.1,1.9c-2.7,0-4.7-2.2-4.7-5.1c0-2.9,2-5,4.7-5c1.4,0,2.7,0.6,4,1.8l0.3,0.3
			l2.2-2.6l-0.3-0.3c-1.3-1.2-3-2.5-6.2-2.5c-4.7,0-8.3,3.6-8.3,8.3c0,4.7,3.5,8.3,8.2,8.3c2.6,0,4.6-0.8,6.5-2.8l0.3-0.3l-2.2-2.3
			L205.3,120.7z"/>
		<polygon class="st2" points="209.2,109.5 209.2,112.8 214,112.8 214,125.6 217.5,125.6 217.5,112.8 222.3,112.8 222.3,109.5 		"/>
	</g>
</g>
<g>
	<g>
		<path class="st1" d="M97.1,147.5c0-1-0.6-1.7-1.7-1.7c-1.1,0-1.7,0.7-1.7,1.8c0,0.7,0.3,1.3,1.1,2.2
			C96.4,149.2,97.1,148.5,97.1,147.5z"/>
		<path class="st1" d="M91.6,156.1c0,1.3,1.1,2.2,2.6,2.2c0.9,0,1.9-0.4,2.8-1.2l-3.5-3.6C92.3,154.2,91.6,155.1,91.6,156.1z"/>
		<path class="st1" d="M84.4,139.9v24h23.5v-24H84.4z M101.7,162l-2.3-2.4c-1.7,1.5-3.5,2.2-5.5,2.2c-3.6,0-6.2-2.3-6.2-5.5
			c0-2.3,1.2-4,3.6-5.2c-0.9-1.3-1.3-2.3-1.3-3.6c0-2.4,1.9-4.9,5.5-4.9c3,0,5.1,2,5.1,4.7c0,2.2-1.2,3.7-3.6,4.8l2.3,2.4
			c0.5-0.9,1.1-1.9,1.6-3l0.2-0.4l3.1,1.6L104,153c-0.8,1.6-1.5,2.8-2.3,3.9l2.9,2.9L101.7,162z"/>
	</g>
	<g>
		<path class="st1" d="M20.7,154.7c-1.2,1.2-2.4,1.9-4.1,1.9c-2.7,0-4.7-2.2-4.7-5.1c0-2.9,2-5.1,4.7-5.1c1.4,0,2.7,0.6,4,1.8
			l0.3,0.3l2.2-2.6l-0.3-0.3c-1.3-1.2-3-2.5-6.3-2.5c-4.7,0-8.3,3.6-8.3,8.3c0,4.7,3.5,8.3,8.2,8.3c2.6,0,4.6-0.8,6.5-2.8l0.3-0.3
			l-2.3-2.3L20.7,154.7z"/>
		<polygon class="st1" points="29.1,143.5 25.6,143.5 25.6,159.6 37.1,159.6 37.1,156.4 29.1,156.4 		"/>
		<rect x="39.8" y="143.5" class="st1" width="3.5" height="16.1"/>
		<path class="st1" d="M58.8,154.7c-1.3,1.2-2.4,1.9-4.1,1.9c-2.7,0-4.7-2.2-4.7-5.1c0-2.9,2-5.1,4.7-5.1c1.4,0,2.7,0.6,4,1.8
			l0.3,0.3l2.2-2.6l-0.3-0.3c-1.3-1.2-3-2.5-6.3-2.5c-4.7,0-8.3,3.6-8.3,8.3c0,4.7,3.5,8.3,8.2,8.3c2.6,0,4.6-0.8,6.5-2.8l0.3-0.3
			l-2.3-2.3L58.8,154.7z"/>
		<polygon class="st1" points="78.4,143.5 74,143.5 67.3,150.6 67.3,143.5 63.8,143.5 63.8,159.6 67.3,159.6 67.3,154.9 69.2,152.9 
			74.3,159.6 78.5,159.6 71.6,150.5 		"/>
		<path class="st1" d="M127.9,154.7c-1.2,1.2-2.4,1.9-4.1,1.9c-2.7,0-4.7-2.2-4.7-5.1c0-2.9,2-5.1,4.7-5.1c1.4,0,2.7,0.6,4,1.8
			l0.3,0.3l2.2-2.6l-0.3-0.3c-1.3-1.2-3-2.5-6.3-2.5c-4.7,0-8.3,3.6-8.3,8.3c0,4.7,3.5,8.3,8.2,8.3c2.6,0,4.6-0.8,6.5-2.8l0.3-0.3
			l-2.3-2.3L127.9,154.7z"/>
		<path class="st1" d="M138.5,143.4l-7.1,16.2h3.6l1.6-3.7h6.7l1.6,3.7h3.7l-7.1-16.2H138.5z M142,152.8h-4.1l2-4.8L142,152.8z"/>
		<path class="st1" d="M160.6,153.6c2.2-0.8,3.4-2.5,3.4-4.9c0-3.2-2.3-5.2-6.1-5.2h-7.2v16.1h3.5v-5.3h2.8l3.8,5.3h4.1L160.6,153.6
			z M154.2,146.7h3.5c1.3,0,2.8,0.4,2.8,2.2c0,1.4-1.1,2.2-2.8,2.2h-3.6V146.7z"/>
	</g>
</g>
<g>
	<g>
		<path class="st3" d="M97.1,181.5c0-1-0.6-1.7-1.7-1.7c-1.1,0-1.7,0.7-1.7,1.8c0,0.7,0.3,1.3,1.1,2.2
			C96.4,183.2,97.1,182.5,97.1,181.5z"/>
		<path class="st3" d="M91.6,190.2c0,1.3,1.1,2.2,2.6,2.2c0.9,0,1.9-0.4,2.8-1.2l-3.5-3.6C92.3,188.2,91.6,189.1,91.6,190.2z"/>
		<path class="st3" d="M84.4,173.9v24h23.5v-24H84.4z M101.7,196l-2.3-2.4c-1.7,1.5-3.5,2.2-5.5,2.2c-3.6,0-6.2-2.3-6.2-5.5
			c0-2.3,1.2-4,3.6-5.2c-0.9-1.3-1.3-2.3-1.3-3.6c0-2.4,1.9-4.9,5.5-4.9c3,0,5.1,2,5.1,4.7c0,2.2-1.2,3.7-3.6,4.8l2.3,2.4
			c0.5-0.9,1.1-1.9,1.6-3l0.2-0.4l3.1,1.6l-0.2,0.3c-0.8,1.6-1.5,2.8-2.3,3.9l2.9,2.9L101.7,196z"/>
	</g>
	<g>
		<path class="st3" d="M20.7,188.8c-1.2,1.2-2.4,1.9-4.1,1.9c-2.7,0-4.7-2.2-4.7-5.1c0-2.9,2-5.1,4.7-5.1c1.4,0,2.7,0.6,4,1.8
			l0.3,0.3l2.2-2.6l-0.3-0.3c-1.3-1.2-3-2.5-6.3-2.5c-4.7,0-8.3,3.6-8.3,8.3c0,4.7,3.5,8.3,8.2,8.3c2.6,0,4.6-0.8,6.5-2.8l0.3-0.3
			l-2.3-2.3L20.7,188.8z"/>
		<polygon class="st3" points="29.1,177.5 25.6,177.5 25.6,193.6 37.1,193.6 37.1,190.4 29.1,190.4 		"/>
		<rect x="39.8" y="177.5" class="st3" width="3.5" height="16.1"/>
		<path class="st3" d="M58.8,188.8c-1.3,1.2-2.4,1.9-4.1,1.9c-2.7,0-4.7-2.2-4.7-5.1c0-2.9,2-5.1,4.7-5.1c1.4,0,2.7,0.6,4,1.8
			l0.3,0.3l2.2-2.6l-0.3-0.3c-1.3-1.2-3-2.5-6.3-2.5c-4.7,0-8.3,3.6-8.3,8.3c0,4.7,3.5,8.3,8.2,8.3c2.6,0,4.6-0.8,6.5-2.8l0.3-0.3
			l-2.3-2.3L58.8,188.8z"/>
		<polygon class="st3" points="78.4,177.5 74,177.5 67.3,184.7 67.3,177.5 63.8,177.5 63.8,193.6 67.3,193.6 67.3,189 69.2,186.9 
			74.3,193.6 78.5,193.6 71.6,184.5 		"/>
		<path class="st3" d="M127.9,188.8c-1.2,1.2-2.4,1.9-4.1,1.9c-2.7,0-4.7-2.2-4.7-5.1c0-2.9,2-5.1,4.7-5.1c1.4,0,2.7,0.6,4,1.8
			l0.3,0.3l2.2-2.6l-0.3-0.3c-1.3-1.2-3-2.5-6.3-2.5c-4.7,0-8.3,3.6-8.3,8.3c0,4.7,3.5,8.3,8.2,8.3c2.6,0,4.6-0.8,6.5-2.8l0.3-0.3
			l-2.3-2.3L127.9,188.8z"/>
		<path class="st3" d="M138.5,177.4l-7.1,16.2h3.6l1.6-3.7h6.7l1.6,3.7h3.7l-7.1-16.2H138.5z M142,186.8h-4.1l2-4.8L142,186.8z"/>
		<path class="st3" d="M160.6,187.7c2.2-0.8,3.4-2.5,3.4-4.9c0-3.2-2.3-5.2-6.1-5.2h-7.2v16.1h3.5v-5.3h2.8l3.8,5.3h4.1L160.6,187.7
			z M154.2,180.8h3.5c1.3,0,2.8,0.4,2.8,2.2c0,1.4-1.1,2.2-2.8,2.2h-3.6V180.8z"/>
	</g>
</g>
<g>
	<g>
		<path class="st1" d="M20.5,222.9c-1.3,1.2-2.4,1.9-4.1,1.9c-2.7,0-4.7-2.2-4.7-5.1c0-2.9,2-5.1,4.7-5.1c1.4,0,2.7,0.6,4,1.8
			l0.3,0.3l2.2-2.6l-0.3-0.3c-1.3-1.2-3-2.5-6.3-2.5c-4.7,0-8.3,3.6-8.3,8.3c0,4.7,3.5,8.3,8.2,8.3c2.7,0,4.6-0.8,6.5-2.8l0.3-0.3
			l-2.3-2.3L20.5,222.9z"/>
		<polygon class="st1" points="28.9,211.6 25.4,211.6 25.4,227.7 37,227.7 37,224.5 28.9,224.5 		"/>
		<rect x="39.6" y="211.6" class="st1" width="3.5" height="16.1"/>
		<path class="st1" d="M58.7,222.9c-1.3,1.2-2.4,1.9-4.1,1.9c-2.7,0-4.7-2.2-4.7-5.1c0-2.9,2-5.1,4.7-5.1c1.4,0,2.7,0.6,4,1.8
			l0.3,0.3l2.2-2.6l-0.3-0.3c-1.3-1.2-3-2.5-6.3-2.5c-4.7,0-8.3,3.6-8.3,8.3c0,4.7,3.5,8.3,8.2,8.3c2.7,0,4.6-0.8,6.5-2.8l0.3-0.3
			l-2.3-2.3L58.7,222.9z"/>
		<polygon class="st1" points="71.5,218.6 78.3,211.6 73.9,211.6 67.1,218.8 67.1,211.6 63.6,211.6 63.6,227.7 67.1,227.7 
			67.1,223.1 69.1,221 74.2,227.7 78.4,227.7 		"/>
	</g>
	<g>
		<path class="st1" d="M91.5,224.3c0,1.3,1.1,2.2,2.6,2.2c0.9,0,1.9-0.4,2.8-1.2l-3.5-3.6C92.2,222.3,91.5,223.2,91.5,224.3z"/>
		<path class="st1" d="M97,215.6c0-1-0.7-1.7-1.7-1.7c-1.1,0-1.7,0.7-1.7,1.8c0,0.7,0.3,1.3,1.1,2.2C96.3,217.3,97,216.6,97,215.6z"
			/>
		<path class="st1" d="M84.3,208V232h23.5V208H84.3z M101.6,230.1l-2.3-2.4c-1.7,1.5-3.5,2.2-5.5,2.2c-3.7,0-6.2-2.3-6.2-5.5
			c0-2.3,1.2-4,3.6-5.2c-0.9-1.3-1.3-2.4-1.3-3.6c0-2.4,1.9-4.9,5.5-4.9c3,0,5.1,2,5.1,4.7c0,2.2-1.2,3.7-3.6,4.8l2.3,2.4
			c0.5-0.9,1.1-1.9,1.6-3l0.2-0.4l3.1,1.6l-0.2,0.3c-0.8,1.6-1.5,2.8-2.3,3.9l2.9,2.9L101.6,230.1z"/>
	</g>
	<g>
		<polygon class="st1" points="148.6,211.7 144.1,211.7 138.8,216.9 137.5,211.7 133.6,211.7 135.8,219.5 126.7,227.8 131.2,227.8 
			136.8,222.4 138.1,227.8 142.1,227.8 139.8,219.9 		"/>
		<path class="st1" d="M161,213.4c-1-1.2-2.5-1.6-4.8-1.6h-5.1l-6.9,16.1h3.5l2.1-4.9h3.1c4.4,0,8.2-2.3,8.8-6.3
			C161.9,215.3,161.7,214.2,161,213.4z M157.9,217c-0.3,1.8-2,2.9-4.4,2.9h-2.4l2.1-4.9h2.3c1.1,0,1.7,0.2,2.1,0.7
			C157.9,216,158,216.4,157.9,217z"/>
		<polygon class="st1" points="126.7,221.3 128,218.2 120.5,218.2 121.9,214.9 130.4,214.9 131.8,211.7 119.8,211.7 112.9,227.8 
			125,227.8 126.4,224.7 117.7,224.7 119.2,221.3 		"/>
		<path class="st1" d="M203.2,211.5c-3.4,0-6.7,2-7.2,5.3c-0.4,2.4,1.3,3.5,3.3,4.3c2,0.9,2.5,1.3,2.4,2.1c-0.2,1-1.3,1.7-2.7,1.7
			c-1.8,0-3.1-0.7-4.2-2.1l-3,2.2c1.2,2,3.4,3,6.5,3c3.4,0,6.7-2,7.2-5.3c0.4-2.3-1.1-3.4-3.2-4.3c-2-0.9-2.6-1.3-2.5-2.1
			c0.1-0.8,1.1-1.6,2.6-1.6c1.6,0,2.5,0.6,3.6,1.7l2.8-2.4C207.7,212.5,205.9,211.5,203.2,211.5z"/>
		<path class="st1" d="M217.5,211.5c-3.4,0-6.7,2-7.2,5.3c-0.4,2.4,1.3,3.5,3.3,4.3c2,0.9,2.5,1.3,2.4,2.1c-0.2,1-1.3,1.7-2.7,1.7
			c-1.8,0-3.1-0.7-4.2-2.1l-3,2.2c1.2,2,3.4,3,6.5,3c3.4,0,6.7-2,7.2-5.3c0.4-2.3-1.1-3.4-3.2-4.3c-2-0.9-2.6-1.3-2.5-2.1
			c0.1-0.8,1.1-1.6,2.6-1.6c1.6,0,2.5,0.6,3.6,1.7l2.8-2.4C222,212.5,220.3,211.5,217.5,211.5z"/>
		<path class="st1" d="M178.1,216.6c0.2-1.3-0.1-2.4-0.7-3.2c-0.9-1.1-2.5-1.6-4.8-1.6h-5.9l-6.9,16.1h3.5l2.2-5.1h2.6l1.7,5.1h4
			l-1.9-5.5C175.5,221.5,177.6,219.5,178.1,216.6z M174.4,216.9c-0.3,1.8-2.1,2.7-4.3,2.7h-3.1l2-4.6h3c1.1,0,1.9,0.2,2.2,0.7
			C174.3,215.9,174.4,216.3,174.4,216.9z"/>
		<polygon class="st1" points="185.5,214.9 194,214.9 195.4,211.7 183.4,211.7 176.5,227.8 188.6,227.8 190,224.7 181.3,224.7 
			182.8,221.3 190.3,221.3 191.6,218.2 184.1,218.2 		"/>
	</g>
</g>
<g>
	<g>
		<path class="st4" d="M20.5,256.9c-1.3,1.2-2.4,1.9-4.1,1.9c-2.7,0-4.7-2.2-4.7-5.1c0-2.9,2-5.1,4.7-5.1c1.4,0,2.7,0.6,4,1.8
			l0.3,0.3l2.2-2.6l-0.3-0.3c-1.3-1.2-3-2.5-6.3-2.5c-4.7,0-8.3,3.6-8.3,8.3c0,4.7,3.5,8.3,8.2,8.3c2.7,0,4.6-0.8,6.5-2.8L23,259
			l-2.3-2.3L20.5,256.9z"/>
		<polygon class="st4" points="28.9,245.7 25.4,245.7 25.4,261.8 37,261.8 37,258.6 28.9,258.6 		"/>
		<rect x="39.6" y="245.7" class="st4" width="3.5" height="16.1"/>
		<path class="st4" d="M58.7,256.9c-1.3,1.2-2.4,1.9-4.1,1.9c-2.7,0-4.7-2.2-4.7-5.1c0-2.9,2-5.1,4.7-5.1c1.4,0,2.7,0.6,4,1.8
			l0.3,0.3l2.2-2.6l-0.3-0.3c-1.3-1.2-3-2.5-6.3-2.5c-4.7,0-8.3,3.6-8.3,8.3c0,4.7,3.5,8.3,8.2,8.3c2.7,0,4.6-0.8,6.5-2.8l0.3-0.3
			l-2.3-2.3L58.7,256.9z"/>
		<polygon class="st4" points="71.5,252.7 78.3,245.7 73.9,245.7 67.1,252.8 67.1,245.7 63.6,245.7 63.6,261.8 67.1,261.8 
			67.1,257.1 69.1,255.1 74.2,261.8 78.4,261.8 		"/>
	</g>
	<g>
		<path class="st4" d="M91.5,258.3c0,1.3,1.1,2.2,2.6,2.2c0.9,0,1.9-0.4,2.8-1.2l-3.5-3.6C92.2,256.4,91.5,257.3,91.5,258.3z"/>
		<path class="st4" d="M97,249.6c0-1-0.7-1.7-1.7-1.7c-1.1,0-1.7,0.7-1.7,1.8c0,0.7,0.3,1.3,1.1,2.2C96.3,251.4,97,250.7,97,249.6z"
			/>
		<path class="st4" d="M84.3,242v24.1h23.5V242H84.3z M101.6,264.2l-2.3-2.4c-1.7,1.5-3.5,2.2-5.5,2.2c-3.7,0-6.2-2.3-6.2-5.5
			c0-2.3,1.2-4,3.6-5.2c-0.9-1.3-1.3-2.4-1.3-3.6c0-2.4,1.9-4.9,5.5-4.9c3,0,5.1,2,5.1,4.7c0,2.2-1.2,3.7-3.6,4.8l2.3,2.4
			c0.5-0.9,1.1-1.9,1.6-3l0.2-0.4l3.1,1.6l-0.2,0.3c-0.8,1.6-1.5,2.8-2.3,3.9l2.9,2.9L101.6,264.2z"/>
	</g>
	<g>
		<polygon class="st4" points="148.6,245.8 144.1,245.8 138.8,251 137.5,245.8 133.6,245.8 135.8,253.5 126.7,261.9 131.2,261.9 
			136.8,256.5 138.1,261.9 142.1,261.9 139.8,253.9 		"/>
		<path class="st4" d="M161,247.4c-1-1.2-2.5-1.6-4.8-1.6h-5.1l-6.9,16.1h3.5l2.1-4.9h3.1c4.4,0,8.2-2.3,8.8-6.3
			C161.9,249.3,161.7,248.3,161,247.4z M157.9,251c-0.3,1.8-2,2.9-4.4,2.9h-2.4l2.1-4.9h2.3c1.1,0,1.7,0.2,2.1,0.7
			C157.9,250.1,158,250.5,157.9,251z"/>
		<polygon class="st4" points="126.7,255.3 128,252.2 120.5,252.2 121.9,249 130.4,249 131.8,245.8 119.8,245.8 112.9,261.9 
			125,261.9 126.4,258.7 117.7,258.7 119.2,255.3 		"/>
		<path class="st4" d="M203.2,245.6c-3.4,0-6.7,2-7.2,5.3c-0.4,2.4,1.3,3.5,3.3,4.3c2,0.9,2.5,1.3,2.4,2.1c-0.2,1-1.3,1.7-2.7,1.7
			c-1.8,0-3.1-0.7-4.2-2.1l-3,2.2c1.2,2,3.4,3,6.5,3c3.4,0,6.7-2,7.2-5.3c0.4-2.3-1.1-3.4-3.2-4.3c-2-0.9-2.6-1.3-2.5-2.1
			c0.1-0.8,1.1-1.6,2.6-1.6c1.6,0,2.5,0.6,3.6,1.7l2.8-2.4C207.7,246.5,205.9,245.6,203.2,245.6z"/>
		<path class="st4" d="M217.5,245.6c-3.4,0-6.7,2-7.2,5.3c-0.4,2.4,1.3,3.5,3.3,4.3c2,0.9,2.5,1.3,2.4,2.1c-0.2,1-1.3,1.7-2.7,1.7
			c-1.8,0-3.1-0.7-4.2-2.1l-3,2.2c1.2,2,3.4,3,6.5,3c3.4,0,6.7-2,7.2-5.3c0.4-2.3-1.1-3.4-3.2-4.3c-2-0.9-2.6-1.3-2.5-2.1
			c0.1-0.8,1.1-1.6,2.6-1.6c1.6,0,2.5,0.6,3.6,1.7l2.8-2.4C222,246.5,220.3,245.6,217.5,245.6z"/>
		<path class="st4" d="M178.1,250.6c0.2-1.3-0.1-2.4-0.7-3.2c-0.9-1.1-2.5-1.6-4.8-1.6h-5.9l-6.9,16.1h3.5l2.2-5.1h2.6l1.7,5.1h4
			l-1.9-5.5C175.5,255.6,177.6,253.5,178.1,250.6z M174.4,250.9c-0.3,1.8-2.1,2.7-4.3,2.7h-3.1l2-4.6h3c1.1,0,1.9,0.2,2.2,0.7
			C174.3,250,174.4,250.4,174.4,250.9z"/>
		<polygon class="st4" points="185.5,249 194,249 195.4,245.8 183.4,245.8 176.5,261.9 188.6,261.9 190,258.7 181.3,258.7 
			182.8,255.3 190.3,255.3 191.6,252.2 184.1,252.2 		"/>
	</g>
</g>
<g>
	<g>
		<path class="st1" d="M77,276.7h-5.9v15.6H77c4.8,0,8.3-3.3,8.3-7.8C85.3,279.9,81.8,276.7,77,276.7z M82,284.5c0,2.9-2,4.9-5,4.9
			h-2.8v-9.8H77C79.9,279.6,82,281.6,82,284.5z"/>
		<polygon class="st1" points="100.3,289.5 91.6,289.5 91.6,285.9 99.2,285.9 99.2,283 91.6,283 91.6,279.5 100.2,279.5 
			100.2,276.7 88.5,276.7 88.5,292.3 100.3,292.3 		"/>
		<polygon class="st1" points="114.4,276.7 110,287.9 105.6,276.7 102.1,276.7 108.5,292.3 108.6,292.4 111.3,292.4 117.8,276.7 		
			"/>
		<path class="st1" d="M126.8,276.4c-4.6,0-8.2,3.6-8.2,8.1c0,4.6,3.5,8.1,8.1,8.1c4.7,0,8.2-3.5,8.2-8.1
			C135,279.9,131.5,276.4,126.8,276.4z M126.8,289.6c-2.8,0-4.9-2.2-4.9-5.2c0-2.9,2.1-5.1,4.9-5.1c2.8,0,4.9,2.2,4.9,5.2
			C131.7,287.4,129.6,289.6,126.8,289.6z"/>
		<polygon class="st1" points="149.3,289.4 141.4,289.4 141.4,276.7 138.2,276.7 138.2,292.3 149.3,292.3 		"/>
		<path class="st1" d="M164.9,285.5v-8.8h-3.1v9c0,2.6-1.3,4-3.6,4c-2.3,0-3.6-1.5-3.6-4.1v-8.9h-3.1v9c0,4.4,2.4,6.9,6.7,6.9
			C162.5,292.5,164.9,290,164.9,285.5z"/>
		<path class="st1" d="M175.9,292.6c2.6,0,4.5-0.8,6.3-2.8l0.2-0.2l-2-2.1l-0.2,0.2c-1.3,1.2-2.4,1.9-4.2,1.9
			c-2.7,0-4.8-2.2-4.8-5.2c0-2.9,2.1-5.1,4.8-5.1c1.5,0,2.7,0.6,4.1,1.8l0.2,0.2l2-2.3l-0.2-0.2c-1.3-1.2-3-2.4-6.1-2.4
			c-4.6,0-8.1,3.5-8.1,8.1C167.9,289.1,171.4,292.6,175.9,292.6z"/>
		<rect x="185.2" y="276.7" class="st1" width="3.1" height="15.6"/>
		<path class="st1" d="M200,276.4c-4.7,0-8.2,3.5-8.2,8.1c0,4.6,3.5,8.1,8.1,8.1c4.7,0,8.2-3.9,8.2-8.5
			C208.1,279.5,204.6,276.4,200,276.4z M204.8,284.5c0,2.9-2.1,5.1-4.9,5.1c-2.8,0-4.9-2.2-4.9-5.2c0-2.9,2.1-5.1,4.9-5.1
			C202.7,279.3,204.8,281.6,204.8,284.5z"/>
		<polygon class="st1" points="204.1,273.1 201.2,271.8 198.6,275.9 201.1,275.9 		"/>
		<polygon class="st1" points="222,276.3 222,286.3 214.2,276.3 211.4,276.3 211.4,291.9 214.5,291.9 214.5,281.6 222.5,291.9 
			225.1,291.9 225.1,276.3 		"/>
		<polygon class="st1" points="102.4,309.3 110.1,309.3 110.1,306.5 102.4,306.5 102.4,303 111,303 111,300.1 99.3,300.1 
			99.3,315.8 111.1,315.8 111.1,312.9 102.4,312.9 		"/>
		<polygon class="st1" points="124.9,310.2 117.1,300.1 114.3,300.1 114.3,315.8 117.4,315.8 117.4,305.4 125.4,315.8 128,315.8 
			128,300.1 124.9,300.1 		"/>
		<polygon class="st1" points="137.8,303.1 142.7,303.1 142.7,315.8 145.8,315.8 145.8,303.1 150.6,303.1 150.6,300.1 137.8,300.1 
					"/>
		<rect x="153.6" y="300.1" class="st1" width="3.1" height="15.6"/>
		<polygon class="st1" points="164,309.3 171.6,309.3 171.6,306.5 164,306.5 164,303 172.5,303 172.5,300.1 160.8,300.1 
			160.8,315.8 172.7,315.8 172.7,312.9 164,312.9 		"/>
		<polygon class="st1" points="186.4,310.2 178.7,300.1 175.8,300.1 175.8,315.8 178.9,315.8 178.9,305.4 186.9,315.8 189.5,315.8 
			189.5,300.1 186.4,300.1 		"/>
		<path class="st1" d="M199.3,300.1h-5.9v15.6h5.9c4.8,0,8.3-3.7,8.3-8.2C207.6,303,204.2,300.1,199.3,300.1z M204.4,308
			c0,2.9-2,4.9-5,4.9h-2.8V303h2.8C202.3,303,204.4,305.1,204.4,308z"/>
		<path class="st1" d="M215.3,299.6l-6.9,15.7h3.2l1.6-3.7h6.9l1.5,3.7h3.3l-6.9-15.7H215.3L215.3,299.6z M218.9,308.9h-4.5l2.2-5.2
			L218.9,308.9z"/>
	</g>
	<g>
		<path class="st1" d="M31.9,302.8h-3.7v4.7h3.7c1.8,0,2.9-0.9,2.9-2.4C34.9,303.2,33.2,302.8,31.9,302.8z"/>
		<polygon class="st1" points="46.1,309.2 50.7,309.2 48.4,303.8 		"/>
		<path class="st1" d="M1.9,296.2v23.8h93v-23.8L1.9,296.2L1.9,296.2z M21.5,313.5L21.5,313.5c-1.4,1.2-3.6,2.5-6.7,2.5
			c-4.8,0-8.2-3.4-8.2-8.2c0-4.6,3.6-8.2,8.2-8.2c2.5,0,4.3,0.6,6.1,2.1l0.2,0.2l-2,2.4l-0.2-0.2c-1.2-1-2.3-1.6-4.2-1.6
			c-2.7,0-4.8,2.3-4.8,5.2c0,3.1,2.1,5.3,5,5.3c1.3,0,2.5-0.4,3.5-1.1v-2.5h-3.9v-2.8h7V313.5z M35,315.8l-3.8-5.4h-3v5.4H25v-15.9
			h7.1c3.7,0,6,2,6,5.1c0,2.3-1.3,4.1-3.5,4.8l4.2,5.9H35L35,315.8z M53.4,315.8l-1.6-3.7h-7l-1.6,3.7H40l7-16h2.8l7,16H53.4z
			 M69.3,302.9h-4.9v12.9h-3.2v-12.9h-4.9v-3h13V302.9z M75.5,315.8h-3.2v-15.9h3.2V315.8z M85.3,316c-2.5,0-4.7-0.9-6.6-2.5
			l-0.2-0.2l1.9-2.3l0.2,0.2c1.6,1.4,3,1.9,4.7,1.9c1.5,0,2.5-0.7,2.5-1.7c0-1-0.5-1.5-3.3-2.1c-3.4-0.8-5.3-1.9-5.3-4.9
			c0-2.8,2.3-4.7,5.5-4.7c2.2,0,4.1,0.7,5.7,2l0.2,0.1l-1.7,2.4l-0.2-0.1c-1.4-1-2.7-1.5-4-1.5c-1.4,0-2.3,0.6-2.3,1.6
			c0,1,0.5,1.5,3.5,2.2c2.7,0.6,5.1,1.7,5.1,4.8C91,314.1,88.8,316,85.3,316z"/>
	</g>
</g>
<g>
	<g>
		<path class="st5" d="M77,330.2h-5.9v15.6H77c4.8,0,8.3-3.3,8.3-7.8C85.3,333.5,81.8,330.2,77,330.2z M82,338.1c0,2.9-2,4.9-5,4.9
			h-2.8v-9.8H77C79.9,333.1,82,335.2,82,338.1z"/>
		<polygon class="st5" points="100.3,343 91.6,343 91.6,339.4 99.2,339.4 99.2,336.6 91.6,336.6 91.6,333.1 100.2,333.1 
			100.2,330.2 88.5,330.2 88.5,345.9 100.3,345.9 		"/>
		<polygon class="st5" points="114.4,330.2 110,341.5 105.6,330.2 102.1,330.2 108.5,345.8 108.6,346 111.3,346 117.8,330.2 		"/>
		<path class="st5" d="M126.8,330c-4.6,0-8.2,3.6-8.2,8.1c0,4.6,3.5,8.1,8.1,8.1c4.7,0,8.2-3.5,8.2-8.1
			C135,333.4,131.5,330,126.8,330z M126.8,343.2c-2.8,0-4.9-2.2-4.9-5.2c0-2.9,2.1-5.1,4.9-5.1c2.8,0,4.9,2.2,4.9,5.2
			C131.7,341,129.6,343.2,126.8,343.2z"/>
		<polygon class="st5" points="149.3,343 141.4,343 141.4,330.2 138.2,330.2 138.2,345.9 149.3,345.9 		"/>
		<path class="st5" d="M164.9,339.1v-8.8h-3.1v9c0,2.6-1.3,4-3.6,4c-2.3,0-3.6-1.5-3.6-4.1v-8.9h-3.1v9c0,4.4,2.4,6.9,6.7,6.9
			C162.5,346.1,164.9,343.5,164.9,339.1z"/>
		<path class="st5" d="M175.9,346.1c2.6,0,4.5-0.8,6.3-2.8l0.2-0.2l-2-2.1l-0.2,0.2c-1.3,1.2-2.4,1.9-4.2,1.9
			c-2.7,0-4.8-2.2-4.8-5.2c0-2.9,2.1-5.1,4.8-5.1c1.5,0,2.7,0.6,4.1,1.8l0.2,0.2l2-2.3l-0.2-0.2c-1.3-1.2-3-2.4-6.1-2.4
			c-4.6,0-8.1,3.5-8.1,8.1C167.9,342.7,171.4,346.1,175.9,346.1z"/>
		<rect x="185.2" y="330.2" class="st5" width="3.1" height="15.6"/>
		<path class="st5" d="M200,330c-4.7,0-8.2,3.5-8.2,8.1c0,4.6,3.5,8.1,8.1,8.1c4.7,0,8.2-3.9,8.2-8.5C208.1,333,204.6,330,200,330z
			 M204.8,338.1c0,2.9-2.1,5.1-4.9,5.1c-2.8,0-4.9-2.2-4.9-5.2c0-2.9,2.1-5.1,4.9-5.1C202.7,332.9,204.8,335.1,204.8,338.1z"/>
		<polygon class="st5" points="204.1,326.7 201.2,325.4 198.6,329.5 201.1,329.5 		"/>
		<polygon class="st5" points="222,329.8 222,339.9 214.2,329.8 211.4,329.8 211.4,345.5 214.5,345.5 214.5,335.1 222.5,345.5 
			225.1,345.5 225.1,329.8 		"/>
		<polygon class="st5" points="102.4,362.9 110.1,362.9 110.1,360 102.4,360 102.4,356.5 111,356.5 111,353.7 99.3,353.7 
			99.3,369.3 111.1,369.3 111.1,366.5 102.4,366.5 		"/>
		<polygon class="st5" points="124.9,363.7 117.1,353.7 114.3,353.7 114.3,369.3 117.4,369.3 117.4,359 125.4,369.3 128,369.3 
			128,353.7 124.9,353.7 		"/>
		<polygon class="st5" points="137.8,356.6 142.7,356.6 142.7,369.3 145.8,369.3 145.8,356.6 150.6,356.6 150.6,353.7 137.8,353.7 
					"/>
		<rect x="153.6" y="353.7" class="st5" width="3.1" height="15.6"/>
		<polygon class="st5" points="164,362.9 171.6,362.9 171.6,360 164,360 164,356.5 172.5,356.5 172.5,353.7 160.8,353.7 
			160.8,369.3 172.7,369.3 172.7,366.5 164,366.5 		"/>
		<polygon class="st5" points="186.4,363.7 178.7,353.7 175.8,353.7 175.8,369.3 178.9,369.3 178.9,359 186.9,369.3 189.5,369.3 
			189.5,353.7 186.4,353.7 		"/>
		<path class="st5" d="M199.3,353.7h-5.9v15.6h5.9c4.8,0,8.3-3.7,8.3-8.2C207.6,356.6,204.2,353.7,199.3,353.7z M204.4,361.5
			c0,2.9-2,4.9-5,4.9h-2.8v-9.8h2.8C202.3,356.6,204.4,358.6,204.4,361.5z"/>
		<path class="st5" d="M215.3,353.2l-6.9,15.7h3.2l1.6-3.7h6.9l1.5,3.7h3.3l-6.9-15.7H215.3L215.3,353.2z M218.9,362.4h-4.5l2.2-5.2
			L218.9,362.4z"/>
	</g>
	<g>
		<path class="st5" d="M31.9,356.4h-3.7v4.7h3.7c1.8,0,2.9-0.9,2.9-2.4C34.9,356.8,33.2,356.4,31.9,356.4z"/>
		<polygon class="st5" points="46.1,362.7 50.7,362.7 48.4,357.4 		"/>
		<path class="st5" d="M1.9,349.8v23.8h93v-23.8L1.9,349.8L1.9,349.8z M21.5,367.1L21.5,367.1c-1.4,1.2-3.6,2.5-6.7,2.5
			c-4.8,0-8.2-3.4-8.2-8.2c0-4.6,3.6-8.2,8.2-8.2c2.5,0,4.3,0.6,6.1,2.1l0.2,0.2l-2,2.4l-0.2-0.2c-1.2-1-2.3-1.6-4.2-1.6
			c-2.7,0-4.8,2.3-4.8,5.2c0,3.1,2.1,5.3,5,5.3c1.3,0,2.5-0.4,3.5-1.1v-2.5h-3.9v-2.8h7V367.1z M35,369.3l-3.8-5.4h-3v5.4H25v-15.9
			h7.1c3.7,0,6,2,6,5.1c0,2.3-1.3,4.1-3.5,4.8l4.2,5.9H35L35,369.3z M53.4,369.3l-1.6-3.7h-7l-1.6,3.7H40l7-16h2.8l7,16H53.4z
			 M69.3,356.4h-4.9v12.9h-3.2v-12.9h-4.9v-3h13V356.4z M75.5,369.3h-3.2v-15.9h3.2V369.3z M85.3,369.6c-2.5,0-4.7-0.9-6.6-2.5
			l-0.2-0.2l1.9-2.3l0.2,0.2c1.6,1.4,3,1.9,4.7,1.9c1.5,0,2.5-0.7,2.5-1.7c0-1-0.5-1.5-3.3-2.1c-3.4-0.8-5.3-1.9-5.3-4.9
			c0-2.8,2.3-4.7,5.5-4.7c2.2,0,4.1,0.7,5.7,2l0.2,0.1l-1.7,2.4l-0.2-0.1c-1.4-1-2.7-1.5-4-1.5c-1.4,0-2.3,0.6-2.3,1.6
			c0,1,0.5,1.5,3.5,2.2c2.7,0.6,5.1,1.7,5.1,4.8C91,367.6,88.8,369.6,85.3,369.6z"/>
	</g>
</g>
</svg>
