<svg xmlns="http://www.w3.org/2000/svg" viewBox="0 0 568.515 350.509"><defs><style>.b{fill:none;stroke:#77e4ff;stroke-linecap:round;stroke-miterlimit:10;stroke-width:3px;stroke-dasharray:3 6}.c{fill:#007f29}.d{fill:#001c28}.f{fill:#192345}.h{fill:#f2f2f2}.i{fill:#f6c079}.k{fill:#dfa666}.l{fill:#bc7b3f}</style></defs><path d="M0 350.509s64.354-108.182 100.124-107.922 27.306 30.462 66.911 29.64 95.8-209.533 141.412-209.4 53.955 66.817 91.7 65.143 59.737-112.584 87.407-111.456 50.721 56.034 50.721 56.034l30.235 84.574-.515 193.383z" fill="#77e4ff" opacity=".173"/><path class="b" d="M533.516 63.726c3.835 20.083 1.415 35.244-47.49 64.267-9.818 4.835-12.828 9.977-66.6 10.027-58.037-2.131-66.584-73.39-107.941-74.294-23.408-1.209-28.496 23.3-61.073 74.3"/><path class="b" d="M492.567 18.45c5.628.853 25.488 5.405 29.383 28.248 2.529 17.272-30.521 32.872-65.057 21.989-8.651-4.151-4.007-13.4 1.9-17.391"/><path class="c" d="M491.837 1.744a5.954 5.954 0 0 0-9.536 6.873v.062c.124.186.186.372.31.557l5.016 8.607 5.016-8.607a2.51 2.51 0 0 0 .31-.557v-.063a5.96 5.96 0 0 0-1.115-6.873zm-4.211 7.059a2.786 2.786 0 1 1 2.787-2.787 2.815 2.815 0 0 1-2.787 2.787zM254.464 120.864a5.954 5.954 0 0 0-9.536 6.872v.062c.124.186.186.372.31.557l5.016 8.607 5.016-8.607a2.51 2.51 0 0 0 .31-.557v-.062a5.96 5.96 0 0 0-1.115-6.873zm-4.211 7a2.775 2.775 0 1 1 1.974-.813 2.786 2.786 0 0 1-1.974.81z"/><g transform="rotate(-2.98 1649.23 -7607.01)"><path class="d" d="M54.054 54.924a3.558 3.558 0 1 0 0 7.116h.989v-7.116zm-23.132 0a3.558 3.558 0 1 0 0 7.116h.989v-7.116z"/><path class="d" d="M50.866 57.827a3.584 3.584 0 1 0-3.584 3.558 3.571 3.571 0 0 0 3.584-3.558zm-24.671 0a3.584 3.584 0 1 0-3.584 3.558 3.571 3.571 0 0 0 3.584-3.558z"/><path d="M61.696 58.493H24.283v-2.358h37.413a.753.753 0 0 1 .55.182.742.742 0 0 1 .255.517v.96a.732.732 0 0 1-.805.699z" fill="#004059"/><ellipse class="f" cx="3.584" cy="3.558" rx="3.584" ry="3.558" transform="translate(51.46 54.924)"/><path d="M13.504 56.124h11.038a.7.7 0 0 1 .5.2.687.687 0 0 1 .2.5v.96a.687.687 0 0 1-.2.5.7.7 0 0 1-.5.2H13.504a.7.7 0 0 1-.5-.2.687.687 0 0 1-.2-.5v-.96a.687.687 0 0 1 .2-.5.7.7 0 0 1 .5-.2z" fill="#002e3f"/><path class="h" d="M23.272 57.301a.506.506 0 1 1 .506.5.51.51 0 0 1-.506-.5zm-.858 0a.264.264 0 1 1 .264.262.255.255 0 0 1-.19-.074.251.251 0 0 1-.074-.188zm-7.63 0a.506.506 0 1 1-.506-.5.51.51 0 0 1 .506.5zm.88 0a.264.264 0 1 1-.264-.262.282.282 0 0 1 .263.262z"/><path class="i" d="M23.361 56.135H44.91V30.377H23.361z"/><path d="M39.192 36.839L29.05 33.845v5.8z" fill="#4d9d54"/><path class="k" d="M23.204 42.165v2.619h21.925v-2.619z"/><path class="l" d="M32.156 44.784h3.738v-2.619h-3.738z"/><path class="k" d="M32.816 56.354h2.639V30.159h-2.639z"/><path d="M9.728 56.135h13.633V30.377H9.728z" fill="#dfa668"/><path d="M21.096 36.839l-10.142-2.994v5.8z" fill="#008c2e"/><g><path class="l" d="M9.508 42.165v2.619h13.853v-2.619z"/><path d="M14.466 44.75h3.838v-2.8h-3.838z" fill="#a76e38"/><path class="l" d="M17.644 30.159h-2.639v26.195h2.639z"/></g><path class="d" d="M32.088 54.269a4.254 4.254 0 0 0-4.266 4.235h8.51a4.191 4.191 0 0 0-1.233-3 4.253 4.253 0 0 0-3.011-1.235z"/><path class="f" d="M35.496 58.482a3.584 3.584 0 1 0-3.584 3.558 3.571 3.571 0 0 0 3.584-3.558z"/><path class="h" d="M33.662 58.204a1.759 1.759 0 0 0-3.473.559 1.759 1.759 0 0 0 3.472-.563z"/><g transform="translate(44.91 39.098)"><path d="M16.907 17.027H0V0h8.463a4.939 4.939 0 0 1 4.129 2.314l3.447 5.414a5.476 5.476 0 0 1 .846 2.947v6.352z" fill="#3f9"/><path class="h" d="M3.098 8.666V1.659h4.706a3.6 3.6 0 0 1 3.012 1.594l3.672 5.414z"/><path class="c" d="M0 17.038h1.1V.011H0z"/><ellipse class="f" cx="3.584" cy="3.558" rx="3.584" ry="3.558" transform="translate(6.55 15.826)"/><path class="h" d="M11.885 19.105a1.759 1.759 0 0 0-3.473.559 1.759 1.759 0 0 0 3.472-.563z"/></g><path class="i" d="M44.91 39.977v-9.6h-6.377z"/></g></svg>