<?xml version="1.0" encoding="utf-8"?>
<!-- Generator: Adobe Illustrator 21.0.2, SVG Export Plug-In . SVG Version: 6.00 Build 0)  -->
<svg version="1.1" id="truck" xmlns="http://www.w3.org/2000/svg" xmlns:xlink="http://www.w3.org/1999/xlink" x="0px" y="0px"
	 viewBox="0 0 300 200" style="enable-background:new 0 0 300 200;" xml:space="preserve">
<style type="text/css">
	.st0{fill:#FFFFFF;stroke:#88CC88;stroke-width:3;stroke-miterlimit:10;}
	.st1{fill:#88CC88;}
	.st2{fill:#009900;}
</style>
<path id="box" class="st0" d="M135.8,147.5c-2.9-14.9-11.3-22.8-24.2-22.7c-12.2,0.3-20.8,8.6-22.8,22.6c-5.1,0-10,0.4-15-0.1
	c-3.8-0.4-5.6-4.4-4.8-8.7c2.9-14.2,5.9-28.6,8.7-42.8c3-14.9,6-29.8,9-44.7c1.4-6.6,5.3-10,12-10h98.8c6.6,0,9.3,3.3,7.9,9.8
	c-6.3,31.6-12.7,63-19.1,94.4c-0.3,1.2-0.4,2.5-2.2,2.3c-15.9-0.1-31.7-0.1-47.7-0.1C136.3,147.5,136.1,147.5,135.8,147.5z"/>
<path id="wheel" class="st0" d="M112.3,164c-4.4,0.1-8.7-1.6-11.9-4.6c-6.6-6.3-6.7-16.7-0.4-23.1c3.3-3.3,7.7-5.2,12.3-5.1
	c9.4,0,17.2,7.5,17.1,16.5c-0.1,4.4-1.9,8.6-5.2,11.8C121.1,162.5,116.7,164.2,112.3,164z"/>
<path id="whell" class="st0" d="M239.4,135.7c-3.3-3.4-7.8-5.2-12.6-5.2h-0.1c-9.3-0.1-16.9,7.2-17.1,16.5c0,4.5,1.8,8.7,4.9,11.9
	c3.3,3.1,7.5,4.9,12.2,4.9h0.1c4.5,0.1,8.7-1.5,12-4.6c3.3-3.1,5.2-7.4,5.2-11.9C244.1,143.1,242.5,138.9,239.4,135.7L239.4,135.7z"
	/>
<path id="cabine" class="st0" d="M268.6,113.6c-5.9-14.2-11.8-23.9-17.6-38.1c-1.1-3.3-4.2-5.3-7.7-5.2c-9,0.1-18,0-27.2,0
	c-4.4,0-6,1.5-6.8,5.9c-3.8,19.1-7.5,33.9-11.3,53c-1.2,5.9-2.2,11.9-3.4,17.9h8.2c0.5-3,1.4-5.9,2.3-8.7c4.2-9.8,14.5-15.6,25-13.9
	c10.7,1.4,18.9,9.8,20,20.5c0.1,1.9,0.8,2.6,2.7,2.5c2.2-0.1,4.5,0,6.8,0c3.7-0.1,5.6-1.6,6.3-5.2c1.2-5.7,2.3-11.3,3.6-17.1
	C270.5,121.1,270.1,117.1,268.6,113.6L268.6,113.6z M218.9,92.4l1.9-11.8h20.6l8.7,18.3L218.9,92.4z"/>
<path id="line_3_" class="st1" d="M38.1,83.9h33.2c1,0,1.6,0.7,1.6,1.6v1c0,1-0.7,1.6-1.6,1.6H38.1c-1,0-1.6-0.7-1.6-1.6v-1
	C36.6,84.6,37.3,83.9,38.1,83.9z"/>
<path id="line_2_" class="st1" d="M38.4,101.6h26.4c1,0,1.6,0.7,1.6,1.6v1c0,1-0.7,1.6-1.6,1.6H38.4c-1,0-1.6-0.7-1.6-1.6v-1
	C36.7,102.4,37.6,101.6,38.4,101.6z"/>
<path id="line_1_" class="st1" d="M57,64.4h14.9c1,0,1.6,0.7,1.6,1.6v1c0,1-0.7,1.6-1.6,1.6H57c-1,0-1.6-0.7-1.6-1.6v-1
	C55.3,65.2,56.2,64.4,57,64.4z"/>
<path id="line" class="st1" d="M27,121.1h33.2c1,0,1.6,0.7,1.6,1.6l0,0c0,1-0.7,1.6-1.6,1.6H27c-1,0-1.6-0.7-1.6-1.6l0,0
	C25.4,121.9,26.1,121.2,27,121.1z"/>
<path id="logo" class="st2" d="M93.2,95.7l8.2-32.9l65.1,20.8L93.2,95.7z"/>
</svg>
