<?xml version="1.0" encoding="utf-8"?>
<!-- Generator: Adobe Illustrator 21.0.2, SVG Export Plug-In . SVG Version: 6.00 Build 0)  -->
<svg version="1.1" id="promo_full" xmlns="http://www.w3.org/2000/svg" xmlns:xlink="http://www.w3.org/1999/xlink" x="0px" y="0px"
	 viewBox="0 0 300 500" style="enable-background:new 0 0 300 500;" xml:space="preserve">
<style type="text/css">
	.st0{fill:none;stroke:#88CC88;stroke-width:5;stroke-linecap:round;stroke-miterlimit:10;}
	.st1{fill:#FFFFFF;stroke:#88CC88;stroke-width:2;stroke-miterlimit:10;}
	.st2{fill:#FFFFFF;stroke:#88CC88;stroke-width:3;stroke-miterlimit:10;}
	.st3{fill:#88CC88;}
	.st4{fill:#009900;}
	.st5{fill:#D5EFD5;}
	.st6{fill:none;stroke:#88CC88;stroke-width:2;stroke-miterlimit:10;}
	.st7{fill:#88CC88;stroke:#88CC88;stroke-width:4;stroke-miterlimit:10;}
	.st8{fill:#8BCE86;stroke:#8BCE86;stroke-width:4;stroke-miterlimit:10;}
	.st9{fill:#FFFFFF;}
	.st10{clip-path:url(#SVGID_2_);}
	.st11{fill:none;stroke:#FFFFFF;stroke-width:33;stroke-miterlimit:10;}
	.st12{opacity:0.48;fill:none;stroke:#FFFFFF;stroke-width:32;stroke-miterlimit:10;enable-background:new    ;}
	.st13{fill:#C0DDC0;}
	.st14{fill:none;stroke:#88CC88;stroke-width:0.25;stroke-miterlimit:10;}
	.st15{fill:none;stroke:#88CC88;stroke-width:0.34;stroke-linecap:round;stroke-linejoin:round;}
	.st16{fill:none;stroke:#88CC88;stroke-width:0.25;stroke-linecap:round;stroke-linejoin:round;}
	.st17{fill:none;stroke:#88CC88;stroke-width:0.35;stroke-linecap:round;stroke-linejoin:round;}
	.st18{fill:none;stroke:#C0DDC0;stroke-width:0.5;stroke-miterlimit:10;}
	.st19{fill:#FFFFFF;stroke:#88CC88;stroke-width:0.15;stroke-miterlimit:10;}
	.st20{fill:#FFFFFF;stroke:#88CC88;stroke-width:0.25;stroke-miterlimit:10;}
	.st21{clip-path:url(#SVGID_4_);}
	.st22{fill:none;stroke:#FFFFFF;stroke-width:9;stroke-miterlimit:10;}
	.st23{opacity:0.48;fill:none;stroke:#FFFFFF;stroke-width:9;stroke-miterlimit:10;enable-background:new    ;}
</style>
<g id="sonrie">
	<path id="Path_270" class="st0" d="M70.5,447.6C70.5,471,91,484,116.2,484s45.6-13.1,45.8-36.4"/>
	<path id="Path_271" class="st0" d="M106.9,428.2c0-12.3-8.1-22.3-18.2-22.3s-18.2,10-18.2,22.3"/>
	<path id="Path_272" class="st0" d="M161.8,428.4c0-12.3-8.1-22.3-18.2-22.3s-18.2,10-18.2,22.3"/>
</g>
<path id="Path_253" class="st1" d="M146.5,321.1L146.5,321.1c-0.2,0-0.5,0-0.7,0.1s-0.5,0.1-0.7,0.2l-0.6,0.3
	c-0.2,0.1-0.4,0.3-0.5,0.5c-0.2,0.1-0.3,0.3-0.4,0.5c-0.1,0.2-0.2,0.4-0.2,0.6s-0.1,0.3-0.1,0.5s0.1,0.3,0.1,0.5
	c1.1,2.5,2,5,2.8,7.6c1.3,4.2,2.3,8.5,2.9,12.8c0.7,5,0.7,10.1,0.1,15.2c-0.7,5.4-2.3,10.6-4.8,15.5c0,0.1-0.1,0.1-0.1,0.2
	c-0.1,0.1-0.1,0.1-0.2,0.1c-0.1,0-0.1,0.1-0.2,0.1h-0.2l-13.5,0.9l0,0c-0.2,0-0.4,0.1-0.6,0.1c-0.2,0-0.4,0.1-0.6,0.2
	c-0.2,0.1-0.3,0.2-0.5,0.3c-0.2,0.1-0.3,0.2-0.5,0.3l-0.4,0.4c-0.1,0.1-0.2,0.2-0.2,0.4c0,0.1-0.1,0.3-0.1,0.4s0,0.3,0.1,0.4l8.3,19
	c0,0.1,0.1,0.2,0.2,0.2c0.1,0.1,0.2,0.1,0.3,0.2s0.2,0.1,0.3,0.1s0.3,0.1,0.4,0.1h0.5l0.3-0.1l0.3-0.1l0.3-0.1l0.3-0.2l36.6-19.8
	c0.2-0.1,0.4-0.2,0.6-0.4c0.2-0.1,0.3-0.3,0.4-0.4c0.1-0.2,0.2-0.3,0.3-0.5c0.1-0.1,0.1-0.3,0.1-0.5c0-0.3-0.2-0.6-0.4-0.7
	c-0.1-0.1-0.3-0.1-0.5-0.2h-0.6l-6.6,0.6h-0.3l-0.1-0.1v-0.4c0-0.1,0-0.1,0.1-0.1l0,0c1.1-1.3,3-3.4,5.1-6.3
	c6.2-8.2,11.3-17.2,15.3-26.7c2.8-6.7,4.9-13.6,6.4-20.6c0.1-0.2,0.1-0.5,0-0.7c0-0.2-0.1-0.4-0.3-0.5c-0.1-0.2-0.3-0.3-0.5-0.4
	c-0.3-0.1-0.5-0.1-0.8-0.1L146.5,321.1"/>
<g id="camion">
	<path id="Path_261" class="st2" d="M141.3,314.5c-12.4,0-13.2,12.2-13.2,12.2s-0.1,0.4-0.9,0.4c-1.4,0-4.3,0.1-6.4-0.1
		s-3-2.3-2.5-4.6c1.5-7.5,3.1-15,4.6-22.5c1.6-7.8,3.2-15.7,4.8-23.5c0.7-3.4,2.8-5.2,6.3-5.2h52.1c3.5,0,4.9,1.7,4.2,5.2
		c-3.3,16.6-6.7,33.1-10.1,49.6c-0.1,0.7-0.2,1.3-1.2,1.2c-7.4,0-22.6-0.1-23.1,0c-0.3,0-0.7-0.2-0.8-0.5
		C155.1,326.7,153.7,314.5,141.3,314.5z"/>
	<path id="Path_262" class="st2" d="M141.2,335.9c-4.8,0.1-8.8-3.7-8.9-8.5v-0.1c-0.2-5,3.6-9.2,8.6-9.4c5-0.2,9.2,3.6,9.4,8.6
		s-3.6,9.2-8.6,9.4H141.2z"/>
	<path id="Path_263" class="st2" d="M208.1,321.1c-1.7-1.8-4.1-2.8-6.6-2.7l0,0c-4.9-0.1-8.9,3.8-9,8.7l0,0c0,2.3,0.9,4.6,2.6,6.2
		c1.7,1.7,4,2.6,6.4,2.6l0,0c4.9,0.1,9-3.7,9.1-8.6l0,0l0,0C210.6,325,209.7,322.8,208.1,321.1z"/>
	<path id="Path_264" class="st2" d="M223.4,309.4c-1.5-2.9-5.9-12.6-9.3-20c-0.6-1.7-2.2-2.8-4-2.7h-14.3c-2.3,0-3.2,0.8-3.6,3.1
		c-2,10-4,17.8-5.9,27.8c-0.6,3.1-1.2,6.2-1.8,9.4h4.3c0.3-1.6,0.7-3.1,1.2-4.6c2.2-5.2,7.6-8.2,13.2-7.3c5.6,0.7,9.4,4,10.5,10.8
		c0.6,1.2,1.4,1.3,1.4,1.3h3.6c2.6,0,2.8-1.1,3.3-2.7l1.9-9C224.4,313.5,224.2,311.4,223.4,309.4z M197.3,298.3l1-6.2h10.9l4.6,9.6
		L197.3,298.3z"/>
	<path id="Path_265" class="st3" d="M102.1,293.8h17.5c0.5,0,0.9,0.4,0.9,0.9l0,0v0.5c0,0.5-0.4,0.9-0.9,0.9h-17.5
		c-0.5,0-0.9-0.4-0.9-0.9l0,0v-0.5C101.3,294.3,101.6,293.9,102.1,293.8z"/>
	<path id="Path_266" class="st3" d="M102.3,303.1h13.9c0.5,0,0.9,0.4,0.9,0.9l0,0v0.5c0,0.5-0.4,0.9-0.9,0.9h-13.9
		c-0.5,0-0.9-0.4-0.9-0.9l0,0V304C101.4,303.5,101.8,303.1,102.3,303.1L102.3,303.1z"/>
	<path id="Path_267" class="st3" d="M112.1,283.6h7.8c0.5,0,0.9,0.4,0.9,0.9l0,0v0.5c0,0.5-0.4,0.9-0.9,0.9h-7.8
		c-0.5,0-0.9-0.4-0.9-0.9l0,0v-0.5C111.2,284,111.6,283.6,112.1,283.6z"/>
	<path id="Path_268" class="st3" d="M96.3,313.4h17.5c0.5,0,0.9,0.4,0.9,0.9l0,0c0,0.5-0.4,0.9-0.9,0.9H96.3c-0.5,0-0.9-0.4-0.9-0.9
		l0,0C95.4,313.8,95.8,313.4,96.3,313.4z"/>
	<path id="Path_269" class="st4" d="M131.1,300l4.3-17.3l34.3,10.9L131.1,300z"/>
</g>
<path id="flecha_02" class="st1" d="M146.2,185H194c0.7-0.1,1.3,0.4,1.4,1.1c0.5,15.9-1.4,31.8-5.7,47.1c-0.2,0.6,0.4,1.1,1.1,1.1
	h14.8c1,0,1.5,1,0.7,1.6c-11,8.7-22.8,17.3-35.3,25.8c-0.5,0.4-1.2,0.4-1.7,0.1c-10-8.6-20.6-17.2-32.1-26c-0.7-0.6-0.2-1.6,0.9-1.6
	h16.6c0.7,0,1.3-0.5,1.2-1c-1.3-16.1-4.9-31.9-10.8-47C145,185.6,145.5,185.1,146.2,185L146.2,185z"/>
<g id="edificio">
	<path id="Path_255" class="st5" d="M201,185.8c0,0,15.7,2.5,19.2,0.2c2.1-2.8,16.7-95.8,17.3-108.1c-2.6-11.9-26.8-33.1-26.8-33.1
		L201,185.8z"/>
	<path id="Path_256" class="st5" d="M169.6,4.6v182.1h26.6l4.6-2.3l11-148.1l-2.1-7.2L169.6,1.6V4.6z"/>
	<path id="Path_257" class="st6" d="M212.7,45.8c-1.5-1.7-2.7-1.3-2.7,1l-8.5,135.7c-0.1,2.2,1.7,4.1,3.9,4.2h11.7
		c2.3,0,4.2-1.9,4.2-4.2c0,0,16.9-99.7,16.1-104.2C233.7,65.9,212.7,45.8,212.7,45.8z"/>
	<path id="Path_258" class="st6" d="M115.3,186.7c2.2,0,4-1.8,4-4v-0.1v-0.1l-5.6-96c-0.1-2.3-1.6-3-3.5-1.7L91.7,97.4
		c-2,1.7-3.2,4.1-3.2,6.7l9.5,78.4c0.1,2.3,2,4.2,4.3,4.2H115.3z"/>
	<path id="Path_259" class="st6" d="M207.9,27.7L173.5,3.2c-2.4-1.4-5.2-1.6-7.8-0.6l-51.3,25.7c-2.2,1.2-3.5,3.5-3.6,6l8.8,148.2
		c0.1,2.3,2,4.2,4.3,4.2H197c2.3,0,4.2-1.9,4.3-4.2l9.8-148.2C211,31.7,209.8,29.3,207.9,27.7z"/>
	<path id="Path_260" class="st4" d="M122.6,61.5V44.2l34.3,3.1L122.6,61.5z"/>
</g>
<g id="portatil">
	<path id="Path_273" class="st7" d="M141.7,191.6c1.4,1.2,5.3,1.7,7.8,0.9c0,0,66.4-28.4,67-28.6c0.6-0.4,1.1-0.9,1.4-1.6
		c0.1-0.3,0.1-1.1,0.2-1.7c0.1-0.8-0.9-1.7-1.9-2.1l-38-16.6c-1-0.2-2-0.2-3,0.1l-2.8,0.8l2.5,1.7L120,159.4l-2.4-1.6l-5.7,1.6
		c-0.4,0.1-0.8,0.5-0.7,0.9v0.1l0.3,1.9c0.1,0.4,0.2,0.7,0.5,1L141.7,191.6z"/>
	<path id="Path_274" class="st8" d="M104.8,92.6l63.3-4c2.4,0,4.1-0.7,4.2,2.6l4.9,51.9c0,0-66.2,18.9-66.6,18.3
		C110,160.6,99.7,98,99.7,98C98.8,92.7,101.8,92.7,104.8,92.6z"/>
	<path id="Path_275" class="st9" d="M104.8,92.6l63.3-4c2.4,0,4.1-0.7,4.2,2.6l4.9,52l-64.8,18c-0.6,0.1-1.2,0.5-1.8,0.1
		s-11-63.2-11-63.2C98.8,92.8,101.8,92.8,104.8,92.6L104.8,92.6z"/>
	<path id="Path_276" class="st5" d="M104.8,92.6l63.3-4c2.4,0,4.1-0.7,4.2,2.6l4.9,52l-64.8,18c-0.6,0.1-1.2,0.5-1.8,0.1
		s-11-63.2-11-63.2C98.8,92.8,101.8,92.8,104.8,92.6L104.8,92.6z"/>
	<g>
		<g>
			<defs>
				<polygon id="SVGID_1_" points="106.1,100.1 173.3,94.6 178.2,143.1 115.4,159.8 				"/>
			</defs>
			<clipPath id="SVGID_2_">
				<use xlink:href="#SVGID_1_"  style="overflow:visible;"/>
			</clipPath>
			<g class="st10">
				<g id="Group_21">
					<path id="Path_277" class="st5" d="M102.8,97l67.2-5.4l4.9,48.5l-62.8,16.6L102.8,97z"/>
					<path id="Path_278" class="st11" d="M89.9,159.6c7.9-34.7,56.9-64.9,82.8-71.1"/>
					<path id="Path_279" class="st12" d="M88.9,130.4c7.1-25.8,41.6-52,67.1-53.2"/>
				</g>
			</g>
		</g>
	</g>
	<path id="Path_281" class="st13" d="M141.7,191.6c1.4,1.2,5.3,1.7,7.8,0.9c0,0,66.4-28.4,67-28.6c0.6-0.4,1.1-0.9,1.4-1.6
		c0.1-0.3,0.1-1.1,0.2-1.7c0.1-0.8-0.9-1.7-1.9-2.1l-38-16.6c-1-0.2-2-0.2-3,0.1l-2.8,0.8l2.8,1.5l-55.2,15l-2.4-1.6l-5.7,1.6
		c-0.4,0.1-0.8,0.5-0.7,0.9v0.1l0.3,1.9c0.1,0.4,0.2,0.7,0.5,1L141.7,191.6z"/>
	<path id="Path_282" class="st9" d="M142.1,188.8c2.2,1.4,4.9,1.8,7.4,1.1c0,0,68.5-28.9,68.6-29.5c0.1-0.8-0.9-1.5-1.9-1.9
		l-38-16.6c-1-0.2-2-0.2-3,0.1l-2.7,0.9l2.7,1.5l-55.2,15l-2.1-1.5l-6.6,1.8C110.6,159.9,142.1,188.8,142.1,188.8z"/>
	<path id="Path_283" class="st14" d="M216.3,158.5l-37.9-16.6c-1-0.2-2-0.2-3,0.1l-2.9,0.8l2.9,1.4L120,159.4l-2.4-1.6l-5.6,1.7
		c-0.4,0.1-0.8,0.5-0.7,0.9v0.1l0.3,1.9c0.1,0.4,0.2,0.7,0.5,1l29.8,28.3c1.4,1.2,5.3,1.7,7.8,0.9c0,0,66.4-28.4,67-28.6
		c0.6-0.4,1.1-0.9,1.4-1.6c0.1-0.3,0.1-1.1,0.2-1.7C218.3,159.8,217.3,158.9,216.3,158.5L216.3,158.5z"/>
	<path id="Path_284" class="st15" d="M136.5,174.7l-13.6-11.2c-0.1-0.1-0.3-0.3,0.1-0.4l57.4-17.3c0.3,0,0.5,0,0.8,0.1
		c0.2,0.1,16.8,7.3,17.2,7.5c0.2,0.1,0.3,0.3,0.2,0.4s-0.1,0.1-0.1,0.2L138,174.9C137.5,175,137,174.9,136.5,174.7L136.5,174.7z"/>
	<path id="Path_285" class="st16" d="M134,172.7l61.5-20.6 M131.5,170.5l60.6-19.9 M129,168.4l52.2-16.7l7.5-2.6 M126.6,166.5
		l59-18.6 M124.3,164.7l58.2-18.1"/>
	<path id="Path_286" class="st17" d="M186.2,152.7l2.9,1.5 M192,153.2l-3.1-1.5l-9.1-4.3 M182,154.1l3,1.5 M156.7,162.4l2.7,1.7
		 M152.6,163.7l2.7,1.7 M148.8,165l2.6,1.7 M143.2,169.7l3.1,2.2 M140.4,167.7l2.6,1.9 M144.5,166.3l2.7,1.9 M139,171l3,2.2
		 M151.5,166.8l3.3,2.1 M147.5,168.3l3,2.1 M160.4,161.1l2.6,1.7 M164.3,159.8l2.8,1.6 M175.3,156.3l2.8,1.5 M179,155.2l2.9,1.5
		 M182.3,156.7l3.4,1.6 M178.4,157.9l3.3,1.7 M186.2,155.3l3.5,1.7 M192.2,153.3l3.5,1.6 M189.2,154.3l3.4,1.7 M175.2,159l3.3,1.7
		 M171.9,157.3l2.8,1.6 M168.2,158.5l2.8,1.6 M181.2,151.7l2.8,1.5 M177.2,150.5l2.9,1.5 M177.7,153l2.8,1.4 M174.2,154l2.8,1.5
		 M170.7,155.2l2.8,1.6 M167.1,156.3l2.8,1.6 M163.3,157.5l2.8,1.6 M159.7,158.7l2.7,1.6 M155.6,159.9l2.6,1.6 M151.8,161.2l2.6,1.7
		 M147.8,162.5l2.7,1.7 M143.8,163.8l2.6,1.7 M139.7,165.1l2.6,1.7 M135.7,166.4l2.5,1.8 M132,164.9l2.4,1.7 M136.1,163.6l2.5,1.7
		 M140.3,162.3l2.3,1.6 M144.1,161l2.4,1.7 M148.1,159.8l2.4,1.6 M152,158.6l2.4,1.6 M155.8,157.3l2.8,1.6 M159.3,156.2l2.9,1.6
		 M163.1,155l2.8,1.6 M166.7,153.8l2.8,1.6 M170.3,152.8l2.9,1.5 M173.8,151.7l2.9,1.5 M175.9,148.7l2.5,1.3 M177.4,146.7l1.8,0.9
		 M172.7,149.7l2.6,1.3 M169.2,150.8l2.5,1.3 M165.7,151.8l2.5,1.3 M162.4,153l2.5,1.4 M158.8,154.1l2.5,1.4 M155.1,155.2l2.4,1.4
		 M174.4,147.7l1.8,0.9 M171.3,148.6l1.7,0.9 M168.1,149.6l1.7,0.9 M164.6,150.6l1.7,0.9 M161.4,151.6l1.7,0.9 M158.1,152.6l1.7,0.9
		 M154.9,153.7l1.6,0.9 M151.4,154.6l1.7,1 M147.8,155.7l1.7,1 M144.3,156.7l1.6,1 M151.3,156.4l2.4,1.5 M147.3,157.6l2.4,1.5
		 M143.7,158.7l2.4,1.5 M139.8,159.9l2.4,1.5 M135.7,161.2l2.3,1.6 M131.7,162.5l2.2,1.6 M127.7,163.7l2.2,1.7 M140.7,157.9l1.7,1.1
		 M137.1,159l1.6,1.1 M133.4,160.1l1.7,1.1 M129.6,161.2l1.7,1.1 M125.7,162.3l1.6,1.3"/>
	<path id="Path_287" class="st3" d="M172.3,142.8l0.3,2.1l2.5-0.7L172.3,142.8z"/>
	<path id="Path_288" class="st3" d="M117.7,167.2l-1.9-1.7l0,0v0.5l1.9,1.7l0,0V167.2z"/>
	<path id="Path_289" class="st3" d="M115.2,164.8l-1.7-1.7l0,0v0.5l1.7,1.7l0,0V164.8z"/>
	<path id="Path_290" class="st18" d="M170.6,176.3c0.3,0.2,0.7,0.3,1.1,0.2l16.2-6.4c0.6-0.3,0.7-0.6,0.3-0.7l-10.9-5.9
		c-0.4-0.2-0.8-0.2-1.2-0.1l-15.4,5.5c-0.4,0.1-0.5,0.4-0.2,0.6L170.6,176.3z"/>
</g>
<g id="telephone">
	<path id="_Trazado_" class="st7" d="M201,104.7c1.6-2.7,3.7-3.5,5.8-2.9l14.7,4.2c2.1,0.5,3.4,3.3,1.7,6.2l-28.3,47.4
		c-2.6,4.3-5.4,3.3-7.1,2.3l-5.5-3.4l-0.9-0.6c-0.3-0.2-0.6-0.4-1-0.5l-5-3c-1.9-1.1-2.1-3.4-1-5.4L201,104.7z"/>
	<path id="_Trazado_2" class="st13" d="M201,104.7c1.6-2.7,3.7-3.5,5.8-2.9l14.7,4.2c2.1,0.5,3.4,3.3,1.7,6.2l-28.3,47.4
		c-2.6,4.3-5.4,3.3-7.1,2.3l-5.5-3.4l-0.9-0.6c-0.3-0.2-0.6-0.4-1-0.5l-5-3c-1.9-1.1-2.1-3.4-1-5.4L201,104.7z"/>
	<path id="_Trazado_2-2" class="st19" d="M200.9,104.8c1.6-2.7,3.5-3.4,5.5-2.9l14.5,4.2c1.6,0.4,2.7,1.9,0.9,5l-28.5,47.8
		c-2,3.3-4.2,3.3-5.7,2.3l-12.5-7.5c-1.7-1-1.6-3.1-0.4-5.1L200.9,104.8z"/>
	<path id="Path_291" class="st20" d="M181.6,153.2c-0.7,0.9-0.6,2.1,0.3,2.8c0.9,0.9,2.3,0.9,3.2,0s0.9-2.3,0-3.2s-2.3-0.9-3.2,0
		C181.8,152.9,181.7,153.1,181.6,153.2z"/>
	<path id="Path_292" class="st3" d="M208.7,134.9L208.7,134.9c0.1,0.2,0.4,0.1,0.5-0.2l3-5c0.2-0.2,0.2-0.5,0.1-0.8l0,0
		c-0.1-0.2-0.4-0.1-0.5,0.2l-2.9,4.9C208.6,134.3,208.5,134.6,208.7,134.9L208.7,134.9z"/>
	<path id="Path_293" class="st3" d="M215.6,123.4L215.6,123.4c0.1,0.2,0.3,0.1,0.5-0.1l2.2-3.6c0.1-0.2,0.1-0.4,0-0.6l0,0
		c-0.1-0.2-0.4-0.1-0.5,0.1l-2.1,3.5C215.5,122.8,215.5,123.1,215.6,123.4z"/>
	<path id="_Trazado_3" class="st3" d="M209.6,106.4l3.1,0.9c0.1,0,0.2,0,0.3-0.1l0,0c0-0.1,0-0.2-0.1-0.2l0,0l-3-0.9
		c-0.1,0-0.2,0-0.3,0.1l0,0C209.5,106.2,209.5,106.3,209.6,106.4z"/>
	<path id="_Trazado_4" class="st3" d="M207.7,105.2c-0.2,0.2-0.3,0.4-0.2,0.7c0.1,0.2,0.4,0.2,0.6-0.1c0.2-0.2,0.3-0.4,0.2-0.7
		C208.1,105,207.8,105,207.7,105.2z"/>
	<path id="Path_294" class="st3" d="M212.2,104.8c-0.1,0.1-0.2,0.2-0.1,0.4c0.1,0.1,0.2,0.1,0.3,0l0,0l0,0c0.1-0.1,0.2-0.2,0.1-0.4
		C212.4,104.7,212.3,104.7,212.2,104.8L212.2,104.8z"/>
	<g>
		<g>
			<defs>
				<path id="SVGID_3_" d="M180.1,152l-0.1-0.1v-0.1l23.6-39.4c0-0.1,0.1-0.1,0.2-0.1l18.7,5.9h0.1c0.1,0.1,0.1,0.2,0.1,0.3
					l-25.8,42.7c0,0.1-0.1,0.1-0.2,0.1L180.1,152L180.1,152z"/>
			</defs>
			<clipPath id="SVGID_4_">
				<use xlink:href="#SVGID_3_"  style="overflow:visible;"/>
			</clipPath>
			<g class="st21">
				<g id="Group_22">
					<path id="Path_295" class="st5" d="M177,146.8l-0.1-0.1v-0.1l23.6-39.4c0-0.1,0.1-0.1,0.2-0.1l18.7,5.9h0.1
						c0.1,0.1,0.1,0.2,0.1,0.3L193.8,156c0,0.1-0.1,0.1-0.2,0.1L177,146.8L177,146.8z"/>
					<path id="Path_296" class="st22" d="M156.6,170.1c0-27.7,43.3-56,69.9-56"/>
					<path id="Path_297" class="st23" d="M165.6,161.8c0-27.7,38-54.4,64.6-54.4"/>
				</g>
			</g>
		</g>
	</g>
</g>
</svg>
