<?xml version="1.0" encoding="utf-8"?>
<!-- Generator: Adobe Illustrator 21.0.2, SVG Export Plug-In . SVG Version: 6.00 Build 0)  -->
<svg version="1.1" id="promo_full" xmlns="http://www.w3.org/2000/svg" xmlns:xlink="http://www.w3.org/1999/xlink" x="0px" y="0px"
	 viewBox="0 0 300 600" style="enable-background:new 0 0 300 600;" xml:space="preserve">
<style type="text/css">
	.st0{fill:none;stroke:#88CC88;stroke-width:5;stroke-linecap:round;stroke-miterlimit:10;}
	.st1{fill:#FFFFFF;stroke:#88CC88;stroke-width:2;stroke-miterlimit:10;}
	.st2{fill:#FFFFFF;stroke:#88CC88;stroke-width:3;stroke-miterlimit:10;}
	.st3{fill:#88CC88;}
	.st4{fill:#009900;}
	.st5{fill:#D5EFD5;}
	.st6{fill:none;stroke:#88CC88;stroke-width:2;stroke-miterlimit:10;}
	.st7{fill:#88CC88;stroke:#88CC88;stroke-width:4;stroke-miterlimit:10;}
	.st8{fill:#8BCE86;stroke:#8BCE86;stroke-width:4;stroke-miterlimit:10;}
	.st9{fill:#FFFFFF;}
	.st10{clip-path:url(#SVGID_2_);}
	.st11{fill:none;stroke:#FFFFFF;stroke-width:33;stroke-miterlimit:10;}
	.st12{opacity:0.48;fill:none;stroke:#FFFFFF;stroke-width:32;stroke-miterlimit:10;enable-background:new    ;}
	.st13{fill:#C0DDC0;}
	.st14{fill:none;stroke:#88CC88;stroke-width:0.25;stroke-miterlimit:10;}
	.st15{fill:none;stroke:#88CC88;stroke-width:0.34;stroke-linecap:round;stroke-linejoin:round;}
	.st16{fill:none;stroke:#88CC88;stroke-width:0.25;stroke-linecap:round;stroke-linejoin:round;}
	.st17{fill:none;stroke:#88CC88;stroke-width:0.35;stroke-linecap:round;stroke-linejoin:round;}
	.st18{fill:none;stroke:#C0DDC0;stroke-width:0.5;stroke-miterlimit:10;}
	.st19{fill:#FFFFFF;stroke:#88CC88;stroke-width:0.15;stroke-miterlimit:10;}
	.st20{fill:#FFFFFF;stroke:#88CC88;stroke-width:0.25;stroke-miterlimit:10;}
	.st21{clip-path:url(#SVGID_4_);}
	.st22{fill:none;stroke:#FFFFFF;stroke-width:9;stroke-miterlimit:10;}
	.st23{opacity:0.48;fill:none;stroke:#FFFFFF;stroke-width:9;stroke-miterlimit:10;enable-background:new    ;}
</style>
<g id="sonrie">
	<path id="Path_270" class="st0" d="M70.5,548.6C70.5,572,91,585,116.2,585s45.6-13.1,45.8-36.4"/>
	<path id="Path_271" class="st0" d="M106.9,529.2c0-12.3-8.1-22.3-18.2-22.3s-18.2,10-18.2,22.3"/>
	<path id="Path_272" class="st0" d="M161.8,529.4c0-12.3-8.1-22.3-18.2-22.3s-18.2,10-18.2,22.3"/>
</g>
<path id="Path_253" class="st1" d="M146.5,422.1L146.5,422.1c-0.2,0-0.5,0-0.7,0.1c-0.2,0.1-0.5,0.1-0.7,0.2l-0.6,0.3
	c-0.2,0.1-0.4,0.3-0.5,0.5c-0.2,0.1-0.3,0.3-0.4,0.5c-0.1,0.2-0.2,0.4-0.2,0.6c0,0.2-0.1,0.3-0.1,0.5c0,0.2,0.1,0.3,0.1,0.5
	c1.1,2.5,2,5,2.8,7.6c1.3,4.2,2.3,8.5,2.9,12.8c0.7,5,0.7,10.1,0.1,15.2c-0.7,5.4-2.3,10.6-4.8,15.5c0,0.1-0.1,0.1-0.1,0.2
	c-0.1,0.1-0.1,0.1-0.2,0.1c-0.1,0-0.1,0.1-0.2,0.1h-0.2l-13.5,0.9l0,0c-0.2,0-0.4,0.1-0.6,0.1c-0.2,0-0.4,0.1-0.6,0.2
	c-0.2,0.1-0.3,0.2-0.5,0.3c-0.2,0.1-0.3,0.2-0.5,0.3l-0.4,0.4c-0.1,0.1-0.2,0.2-0.2,0.4c0,0.1-0.1,0.3-0.1,0.4c0,0.1,0,0.3,0.1,0.4
	l8.3,19c0,0.1,0.1,0.2,0.2,0.2c0.1,0.1,0.2,0.1,0.3,0.2c0.1,0.1,0.2,0.1,0.3,0.1c0.1,0,0.3,0.1,0.4,0.1h0.5l0.3-0.1l0.3-0.1l0.3-0.1
	l0.3-0.2l36.6-19.8c0.2-0.1,0.4-0.2,0.6-0.4c0.2-0.1,0.3-0.3,0.4-0.4c0.1-0.2,0.2-0.3,0.3-0.5c0.1-0.1,0.1-0.3,0.1-0.5
	c0-0.3-0.2-0.6-0.4-0.7c-0.1-0.1-0.3-0.1-0.5-0.2h-0.6l-6.6,0.6h-0.3l-0.1-0.1v-0.4c0-0.1,0-0.1,0.1-0.1h0c1.1-1.3,3-3.4,5.1-6.3
	c6.2-8.2,11.3-17.2,15.3-26.7c2.8-6.7,4.9-13.6,6.4-20.6c0.1-0.2,0.1-0.5,0-0.7c0-0.2-0.1-0.4-0.3-0.5c-0.1-0.2-0.3-0.3-0.5-0.4
	c-0.3-0.1-0.5-0.1-0.8-0.1L146.5,422.1"/>
<g id="camion">
	<path id="Path_261" class="st2" d="M141.3,415.5c-12.4,0-13.2,12.2-13.2,12.2s-0.1,0.4-0.9,0.4c-1.4,0-4.3,0.1-6.4-0.1
		s-3-2.3-2.5-4.6c1.5-7.5,3.1-15,4.6-22.5c1.6-7.8,3.2-15.7,4.8-23.5c0.7-3.4,2.8-5.2,6.3-5.2h52.1c3.5,0,4.9,1.7,4.2,5.2
		c-3.3,16.6-6.7,33.1-10.1,49.6c-0.1,0.7-0.2,1.3-1.2,1.2c-7.4,0-22.6-0.1-23.1,0c-0.3,0-0.7-0.2-0.8-0.5
		C155.1,427.7,153.7,415.5,141.3,415.5z"/>
	<path id="Path_262" class="st2" d="M141.2,436.9c-4.8,0.1-8.8-3.7-8.9-8.5v-0.1c-0.2-5,3.6-9.2,8.6-9.4c5-0.2,9.2,3.6,9.4,8.6
		c0.2,5-3.6,9.2-8.6,9.4H141.2z"/>
	<path id="Path_263" class="st2" d="M208.1,422.1c-1.7-1.8-4.1-2.8-6.6-2.7l0,0c-4.9-0.1-8.9,3.8-9,8.7c0,0,0,0,0,0
		c0,2.3,0.9,4.6,2.6,6.2c1.7,1.7,4,2.6,6.4,2.6l0,0c4.9,0.1,9-3.7,9.1-8.6c0,0,0,0,0,0l0,0C210.6,426,209.7,423.8,208.1,422.1z"/>
	<path id="Path_264" class="st2" d="M223.4,410.4c-1.5-2.9-5.9-12.6-9.3-20c-0.6-1.7-2.2-2.8-4-2.7h-14.3c-2.3,0-3.2,0.8-3.6,3.1
		c-2,10-4,17.8-5.9,27.8c-0.6,3.1-1.2,6.2-1.8,9.4h4.3c0.3-1.6,0.7-3.1,1.2-4.6c2.2-5.2,7.6-8.2,13.2-7.3c5.6,0.7,9.4,4,10.5,10.8
		c0.6,1.2,1.4,1.3,1.4,1.3h3.6c2.6,0,2.8-1.1,3.3-2.7l1.9-9C224.4,414.5,224.2,412.4,223.4,410.4z M197.3,399.3l1-6.2h10.9l4.6,9.6
		L197.3,399.3z"/>
	<path id="Path_265" class="st3" d="M102.1,394.8h17.5c0.5,0,0.9,0.4,0.9,0.9l0,0v0.5c0,0.5-0.4,0.9-0.9,0.9h-17.5
		c-0.5,0-0.9-0.4-0.9-0.9l0,0v-0.5C101.3,395.3,101.6,394.9,102.1,394.8z"/>
	<path id="Path_266" class="st3" d="M102.3,404.1h13.9c0.5,0,0.9,0.4,0.9,0.9l0,0v0.5c0,0.5-0.4,0.9-0.9,0.9h-13.9
		c-0.5,0-0.9-0.4-0.9-0.9l0,0V405C101.4,404.5,101.8,404.1,102.3,404.1L102.3,404.1z"/>
	<path id="Path_267" class="st3" d="M112.1,384.6h7.8c0.5,0,0.9,0.4,0.9,0.9l0,0v0.5c0,0.5-0.4,0.9-0.9,0.9h-7.8
		c-0.5,0-0.9-0.4-0.9-0.9l0,0v-0.5C111.2,385,111.6,384.6,112.1,384.6z"/>
	<path id="Path_268" class="st3" d="M96.3,414.4h17.5c0.5,0,0.9,0.4,0.9,0.9l0,0c0,0.5-0.4,0.9-0.9,0.9H96.3c-0.5,0-0.9-0.4-0.9-0.9
		l0,0C95.4,414.8,95.8,414.4,96.3,414.4z"/>
	<path id="Path_269" class="st4" d="M131.1,401l4.3-17.3l34.3,10.9L131.1,401z"/>
</g>
<path id="flecha_02" class="st1" d="M146.2,286H194c0.7-0.1,1.3,0.4,1.4,1.1c0.5,15.9-1.4,31.8-5.7,47.1c-0.2,0.6,0.4,1.1,1.1,1.1
	h14.8c1,0,1.5,1,0.7,1.6c-11,8.7-22.8,17.3-35.3,25.8c-0.5,0.4-1.2,0.4-1.7,0.1c-10-8.6-20.6-17.2-32.1-26c-0.7-0.6-0.2-1.6,0.9-1.6
	h16.6c0.7,0,1.3-0.5,1.2-1c-1.3-16.1-4.9-31.9-10.8-47c-0.1-0.6,0.4-1.1,1-1.2C146.1,286,146.2,286,146.2,286z"/>
<g id="edificio">
	<path id="Path_255" class="st5" d="M201,286.8c0,0,15.7,2.5,19.2,0.2c2.1-2.8,16.7-95.8,17.3-108.1c-2.6-11.9-26.8-33.1-26.8-33.1
		L201,286.8z"/>
	<path id="Path_256" class="st5" d="M169.6,105.6v182.1h26.6l4.6-2.3l11-148.1l-2.1-7.2l-40.1-27.5V105.6z"/>
	<path id="Path_257" class="st6" d="M212.7,146.8c-1.5-1.7-2.7-1.3-2.7,1l-8.5,135.7c-0.1,2.2,1.7,4.1,3.9,4.2h11.7
		c2.3,0,4.2-1.9,4.2-4.2c0,0,16.9-99.7,16.1-104.2C233.7,166.9,212.7,146.8,212.7,146.8z"/>
	<path id="Path_258" class="st6" d="M115.3,287.7c2.2,0,4-1.8,4-4c0,0,0-0.1,0-0.1v-0.1l-5.6-96c-0.1-2.3-1.6-3-3.5-1.7l-18.5,12.6
		c-2,1.7-3.2,4.1-3.2,6.7l9.5,78.4c0.1,2.3,2,4.2,4.3,4.2H115.3z"/>
	<path id="Path_259" class="st6" d="M207.9,128.7l-34.4-24.5c-2.4-1.4-5.2-1.6-7.8-0.6l-51.3,25.7c-2.2,1.2-3.5,3.5-3.6,6l8.8,148.2
		c0.1,2.3,2,4.2,4.3,4.2H197c2.3,0,4.2-1.9,4.3-4.2l9.8-148.2C211,132.7,209.8,130.3,207.9,128.7z"/>
	<path id="Path_260" class="st4" d="M122.6,162.5v-17.3l34.3,3.1L122.6,162.5z"/>
</g>
<g id="portatil">
	<path id="Path_273" class="st7" d="M141.7,292.6c1.4,1.2,5.3,1.7,7.8,0.9c0,0,66.4-28.4,67-28.6c0.6-0.4,1.1-0.9,1.4-1.6
		c0.1-0.3,0.1-1.1,0.2-1.7c0.1-0.8-0.9-1.7-1.9-2.1l-38-16.6c-1-0.2-2-0.2-3,0.1l-2.8,0.8l2.5,1.7L120,260.4l-2.4-1.6l-5.7,1.6
		c-0.4,0.1-0.8,0.5-0.7,0.9c0,0,0,0.1,0,0.1l0.3,1.9c0.1,0.4,0.2,0.7,0.5,1L141.7,292.6z"/>
	<path id="Path_274" class="st8" d="M104.8,193.6l63.3-4c2.4,0,4.1-0.7,4.2,2.6l4.9,51.9c0,0-66.2,18.9-66.6,18.3
		C110,261.6,99.7,199,99.7,199C98.8,193.7,101.8,193.7,104.8,193.6z"/>
	<path id="Path_275" class="st9" d="M104.8,193.6l63.3-4c2.4,0,4.1-0.7,4.2,2.6l4.9,52l-64.8,18c-0.6,0.1-1.2,0.5-1.8,0.1
		s-11-63.2-11-63.2C98.8,193.8,101.8,193.8,104.8,193.6L104.8,193.6z"/>
	<path id="Path_276" class="st5" d="M104.8,193.6l63.3-4c2.4,0,4.1-0.7,4.2,2.6l4.9,52l-64.8,18c-0.6,0.1-1.2,0.5-1.8,0.1
		s-11-63.2-11-63.2C98.8,193.8,101.8,193.8,104.8,193.6L104.8,193.6z"/>
	<g>
		<defs>
			<polygon id="SVGID_1_" points="106.1,201.1 173.3,195.6 178.2,244.1 115.4,260.8 			"/>
		</defs>
		<clipPath id="SVGID_2_">
			<use xlink:href="#SVGID_1_"  style="overflow:visible;"/>
		</clipPath>
		<g class="st10">
			<g id="Group_21">
				<path id="Path_277" class="st5" d="M102.8,198l67.2-5.4l4.9,48.5l-62.8,16.6L102.8,198z"/>
				<path id="Path_278" class="st11" d="M89.9,260.6c7.9-34.7,56.9-64.9,82.8-71.1"/>
				<path id="Path_279" class="st12" d="M88.9,231.4c7.1-25.8,41.6-52,67.1-53.2"/>
			</g>
		</g>
	</g>
	<path id="Path_281" class="st13" d="M141.7,292.6c1.4,1.2,5.3,1.7,7.8,0.9c0,0,66.4-28.4,67-28.6c0.6-0.4,1.1-0.9,1.4-1.6
		c0.1-0.3,0.1-1.1,0.2-1.7c0.1-0.8-0.9-1.7-1.9-2.1l-38-16.6c-1-0.2-2-0.2-3,0.1l-2.8,0.8l2.8,1.5l-55.2,15l-2.4-1.6l-5.7,1.6
		c-0.4,0.1-0.8,0.5-0.7,0.9c0,0,0,0.1,0,0.1l0.3,1.9c0.1,0.4,0.2,0.7,0.5,1L141.7,292.6z"/>
	<path id="Path_282" class="st9" d="M142.1,289.8c2.2,1.4,4.9,1.8,7.4,1.1c0,0,68.5-28.9,68.6-29.5c0.1-0.8-0.9-1.5-1.9-1.9
		l-38-16.6c-1-0.2-2-0.2-3,0.1l-2.7,0.9l2.7,1.5l-55.2,15l-2.1-1.5l-6.6,1.8C110.6,260.9,142.1,289.8,142.1,289.8z"/>
	<path id="Path_283" class="st14" d="M216.3,259.5l-37.9-16.6c-1-0.2-2-0.2-3,0.1l-2.9,0.8l2.9,1.4L120,260.4l-2.4-1.6l-5.6,1.7
		c-0.4,0.1-0.8,0.5-0.7,0.9c0,0,0,0.1,0,0.1l0.3,1.9c0.1,0.4,0.2,0.7,0.5,1l29.8,28.3c1.4,1.2,5.3,1.7,7.8,0.9
		c0,0,66.4-28.4,67-28.6c0.6-0.4,1.1-0.9,1.4-1.6c0.1-0.3,0.1-1.1,0.2-1.7C218.3,260.8,217.3,259.9,216.3,259.5L216.3,259.5z"/>
	<path id="Path_284" class="st15" d="M136.5,275.7l-13.6-11.2c-0.1-0.1-0.3-0.3,0.1-0.4l57.4-17.3c0.3,0,0.5,0,0.8,0.1
		c0.2,0.1,16.8,7.3,17.2,7.5c0.2,0.1,0.3,0.3,0.2,0.4s-0.1,0.1-0.1,0.2L138,275.9C137.5,276,137,275.9,136.5,275.7L136.5,275.7z"/>
	<path id="Path_285" class="st16" d="M134,273.7l61.5-20.6 M131.5,271.5l60.6-19.9 M129,269.4l52.2-16.7l7.5-2.6 M126.6,267.5
		l59-18.6 M124.3,265.7l58.2-18.1"/>
	<path id="Path_286" class="st17" d="M186.2,253.7l2.9,1.5 M192,254.2l-3.1-1.5l-9.1-4.3 M182,255.1l3,1.5 M156.7,263.4l2.7,1.7
		 M152.6,264.7l2.7,1.7 M148.8,266l2.6,1.7 M143.2,270.7l3.1,2.2 M140.4,268.7l2.6,1.9 M144.5,267.3l2.7,1.9 M139,272l3,2.2
		 M151.5,267.8l3.3,2.1 M147.5,269.3l3,2.1 M160.4,262.1l2.6,1.7 M164.3,260.8l2.8,1.6 M175.3,257.3l2.8,1.5 M179,256.2l2.9,1.5
		 M182.3,257.7l3.4,1.6 M178.4,258.9l3.3,1.7 M186.2,256.3l3.5,1.7 M192.2,254.3l3.5,1.6 M189.2,255.3l3.4,1.7 M175.2,260l3.3,1.7
		 M171.9,258.3l2.8,1.6 M168.2,259.5l2.8,1.6 M181.2,252.7l2.8,1.5 M177.2,251.5l2.9,1.5 M177.7,254l2.8,1.4 M174.2,255l2.8,1.5
		 M170.7,256.2l2.8,1.6 M167.1,257.3l2.8,1.6 M163.3,258.5l2.8,1.6 M159.7,259.7l2.7,1.6 M155.6,260.9l2.6,1.6 M151.8,262.2l2.6,1.7
		 M147.8,263.5l2.7,1.7 M143.8,264.8l2.6,1.7 M139.7,266.1l2.6,1.7 M135.7,267.4l2.5,1.8 M132,265.9l2.4,1.7 M136.1,264.6l2.5,1.7
		 M140.3,263.3l2.3,1.6 M144.1,262l2.4,1.7 M148.1,260.8l2.4,1.6 M152,259.6l2.4,1.6 M155.8,258.3l2.8,1.6 M159.3,257.2l2.9,1.6
		 M163.1,256l2.8,1.6 M166.7,254.8l2.8,1.6 M170.3,253.8l2.9,1.5 M173.8,252.7l2.9,1.5 M175.9,249.7l2.5,1.3 M177.4,247.7l1.8,0.9
		 M172.7,250.7l2.6,1.3 M169.2,251.8l2.5,1.3 M165.7,252.8l2.5,1.3 M162.4,254l2.5,1.4 M158.8,255.1l2.5,1.4 M155.1,256.2l2.4,1.4
		 M174.4,248.7l1.8,0.9 M171.3,249.6l1.7,0.9 M168.1,250.6l1.7,0.9 M164.6,251.6l1.7,0.9 M161.4,252.6l1.7,0.9 M158.1,253.6l1.7,0.9
		 M154.9,254.7l1.6,0.9 M151.4,255.6l1.7,1 M147.8,256.7l1.7,1 M144.3,257.7l1.6,1 M151.3,257.4l2.4,1.5 M147.3,258.6l2.4,1.5
		 M143.7,259.7l2.4,1.5 M139.8,260.9l2.4,1.5 M135.7,262.2l2.3,1.6 M131.7,263.5l2.2,1.6 M127.7,264.7l2.2,1.7 M140.7,258.9l1.7,1.1
		 M137.1,260l1.6,1.1 M133.4,261.1l1.7,1.1 M129.6,262.2l1.7,1.1 M125.7,263.3l1.6,1.3"/>
	<path id="Path_287" class="st3" d="M172.3,243.8l0.3,2.1l2.5-0.7L172.3,243.8z"/>
	<path id="Path_288" class="st3" d="M117.7,268.2l-1.9-1.7l0,0v0.5l1.9,1.7l0,0V268.2z"/>
	<path id="Path_289" class="st3" d="M115.2,265.8l-1.7-1.7l0,0v0.5l1.7,1.7l0,0V265.8z"/>
	<path id="Path_290" class="st18" d="M170.6,277.3c0.3,0.2,0.7,0.3,1.1,0.2l16.2-6.4c0.6-0.3,0.7-0.6,0.3-0.7l-10.9-5.9
		c-0.4-0.2-0.8-0.2-1.2-0.1l-15.4,5.5c-0.4,0.1-0.5,0.4-0.2,0.6L170.6,277.3z"/>
</g>
<g id="telephone">
	<path id="_Trazado_" class="st7" d="M201,205.7c1.6-2.7,3.7-3.5,5.8-2.9l14.7,4.2c2.1,0.5,3.4,3.3,1.7,6.2l-28.3,47.4
		c-2.6,4.3-5.4,3.3-7.1,2.3l-5.5-3.4l-0.9-0.6c-0.3-0.2-0.6-0.4-1-0.5l-5-3c-1.9-1.1-2.1-3.4-1-5.4L201,205.7z"/>
	<path id="_Trazado_2" class="st13" d="M201,205.7c1.6-2.7,3.7-3.5,5.8-2.9l14.7,4.2c2.1,0.5,3.4,3.3,1.7,6.2l-28.3,47.4
		c-2.6,4.3-5.4,3.3-7.1,2.3l-5.5-3.4l-0.9-0.6c-0.3-0.2-0.6-0.4-1-0.5l-5-3c-1.9-1.1-2.1-3.4-1-5.4L201,205.7z"/>
	<path id="_Trazado_2-2" class="st19" d="M200.9,205.8c1.6-2.7,3.5-3.4,5.5-2.9l14.5,4.2c1.6,0.4,2.7,1.9,0.9,5l-28.5,47.8
		c-2,3.3-4.2,3.3-5.7,2.3l-12.5-7.5c-1.7-1-1.6-3.1-0.4-5.1L200.9,205.8z"/>
	<path id="Path_291" class="st20" d="M181.6,254.2c-0.7,0.9-0.6,2.1,0.3,2.8c0.9,0.9,2.3,0.9,3.2,0s0.9-2.3,0-3.2
		c-0.9-0.9-2.3-0.9-3.2,0C181.8,253.9,181.7,254.1,181.6,254.2z"/>
	<path id="Path_292" class="st3" d="M208.7,235.9L208.7,235.9c0.1,0.2,0.4,0.1,0.5-0.2l3-5c0.2-0.2,0.2-0.5,0.1-0.8l0,0
		c-0.1-0.2-0.4-0.1-0.5,0.2l-2.9,4.9C208.6,235.3,208.5,235.6,208.7,235.9L208.7,235.9z"/>
	<path id="Path_293" class="st3" d="M215.6,224.4L215.6,224.4c0.1,0.2,0.3,0.1,0.5-0.1l2.2-3.6c0.1-0.2,0.1-0.4,0-0.6l0,0
		c-0.1-0.2-0.4-0.1-0.5,0.1l-2.1,3.5C215.5,223.8,215.5,224.1,215.6,224.4z"/>
	<path id="_Trazado_3" class="st3" d="M209.6,207.4l3.1,0.9c0.1,0,0.2,0,0.3-0.1l0,0c0-0.1,0-0.2-0.1-0.2l0,0l-3-0.9
		c-0.1,0-0.2,0-0.3,0.1l0,0C209.5,207.2,209.5,207.3,209.6,207.4z"/>
	<path id="_Trazado_4" class="st3" d="M207.7,206.2c-0.2,0.2-0.3,0.4-0.2,0.7c0.1,0.2,0.4,0.2,0.6-0.1c0.2-0.2,0.3-0.4,0.2-0.7
		C208.1,206,207.8,206,207.7,206.2z"/>
	<path id="Path_294" class="st3" d="M212.2,205.8c-0.1,0.1-0.2,0.2-0.1,0.4c0.1,0.1,0.2,0.1,0.3,0c0,0,0,0,0,0l0,0
		c0.1-0.1,0.2-0.2,0.1-0.4C212.4,205.7,212.3,205.7,212.2,205.8C212.2,205.8,212.2,205.8,212.2,205.8z"/>
	<g>
		<defs>
			<path id="SVGID_3_" d="M180.1,253l-0.1-0.1v-0.1l23.6-39.4c0-0.1,0.1-0.1,0.2-0.1l18.7,5.9h0.1c0.1,0.1,0.1,0.2,0.1,0.3
				l-25.8,42.7c0,0.1-0.1,0.1-0.2,0.1L180.1,253L180.1,253z"/>
		</defs>
		<clipPath id="SVGID_4_">
			<use xlink:href="#SVGID_3_"  style="overflow:visible;"/>
		</clipPath>
		<g class="st21">
			<g id="Group_22">
				<path id="Path_295" class="st5" d="M177,247.8l-0.1-0.1v-0.1l23.6-39.4c0-0.1,0.1-0.1,0.2-0.1l18.7,5.9h0.1
					c0.1,0.1,0.1,0.2,0.1,0.3l-25.8,42.7c0,0.1-0.1,0.1-0.2,0.1L177,247.8L177,247.8z"/>
				<path id="Path_296" class="st22" d="M156.6,271.1c0-27.7,43.3-56,69.9-56"/>
				<path id="Path_297" class="st23" d="M165.6,262.8c0-27.7,38-54.4,64.6-54.4"/>
			</g>
		</g>
	</g>
</g>
<path id="flecha_01" class="st6" d="M143.7,15.5h-0.1l-42.9,18.3v0.3c0.1,0.2,0.2,0.3,0.4,0.3c32.1,5.1,42.2,24.4,46.4,32.7l1.8,3.3
	c0.3,0.4,0.4,1,0.1,1.5c-0.2,0.5-0.6,0.8-1.1,1l-0.1,0.1l-13.4,3.8V77c0,0.2,0.2,0.3,0.3,0.4h0.1l31.5,17.9h0.2L167,95l22.2-34.7
	c0-0.2-0.1-0.3-0.2-0.4c-0.1-0.1-0.2-0.1-0.3-0.1h-0.1l-10.4,3.8c-0.3,0.1-0.5,0.1-0.8,0.1c-0.7,0-1.4-0.4-1.7-1.1
	c-0.3-1-0.6-2.7-1-4.8C172.6,45.5,167.6,17.2,143.7,15.5"/>
</svg>
