<?xml version="1.0" encoding="utf-8"?>
<!-- Generator: Adobe Illustrator 21.0.2, SVG Export Plug-In . SVG Version: 6.00 Build 0)  -->
<svg version="1.1" id="Capa_1" xmlns="http://www.w3.org/2000/svg" xmlns:xlink="http://www.w3.org/1999/xlink" x="0px" y="0px"
	 viewBox="0 0 300 300" style="enable-background:new 0 0 300 300;" xml:space="preserve">
<style type="text/css">
	.st0{fill:#D5EFD5;}
	.st1{fill:none;stroke:#88CC88;stroke-width:2;stroke-miterlimit:10;}
	.st2{fill:#009900;}
	.st3{fill:#88CC88;stroke:#88CC88;stroke-width:2;stroke-miterlimit:10;}
	.st4{fill:#8BCE86;stroke:#8BCE86;stroke-width:2;stroke-miterlimit:10;}
	.st5{fill:#FFFFFF;}
	.st6{clip-path:url(#SVGID_2_);}
	.st7{fill:none;stroke:#FFFFFF;stroke-width:33;stroke-miterlimit:10;}
	.st8{opacity:0.48;fill:none;stroke:#FFFFFF;stroke-width:32;stroke-miterlimit:10;enable-background:new    ;}
	.st9{fill:#C0DDC0;}
	.st10{fill:none;stroke:#88CC88;stroke-width:0.25;stroke-miterlimit:10;}
	.st11{fill:none;stroke:#88CC88;stroke-width:0.34;stroke-linecap:round;stroke-linejoin:round;}
	.st12{fill:none;stroke:#88CC88;stroke-width:0.25;stroke-linecap:round;stroke-linejoin:round;}
	.st13{fill:none;stroke:#88CC88;stroke-width:0.35;stroke-linecap:round;stroke-linejoin:round;}
	.st14{fill:#88CC88;}
	.st15{fill:none;stroke:#C0DDC0;stroke-width:0.5;stroke-miterlimit:10;}
	.st16{fill:#88CC88;stroke:#88CC88;stroke-miterlimit:10;}
	.st17{fill:#FFFFFF;stroke:#88CC88;stroke-miterlimit:10;}
	.st18{clip-path:url(#SVGID_4_);}
	.st19{fill:#D5EFD5;stroke:#88CC88;}
	.st20{fill:none;stroke:#FFFFFF;stroke-width:9;stroke-miterlimit:10;}
	.st21{opacity:0.48;fill:none;stroke:#FFFFFF;stroke-width:9;stroke-miterlimit:10;enable-background:new    ;}
</style>
<g id="edificio" transform="translate(0)">
	<path id="Path_895" class="st0" d="M203.7,270.4c0,0,21,3.4,25.6,0.4c2.8-3.7,22.4-127.6,23.1-144.1c-3.5-15.9-35.8-44.1-35.8-44.1
		L203.7,270.4z"/>
	<path id="Path_896" class="st0" d="M161.7,28.9v242.8h35.6l6.2-3l14.6-197.4l-2.8-9.7L161.7,25V28.9z"/>
	<path id="Path_897" class="st1" d="M219.4,83.9c-1.9-2.3-3.7-1.8-3.7,1.2L204.4,266c-0.2,3,2.3,5.5,5.3,5.6c0,0,0,0,0.2,0h15.5
		c3,0,5.6-2.5,5.6-5.6c0,0,22.6-132.8,21.5-138.8C247.5,110.7,219.4,83.9,219.4,83.9z"/>
	<path id="Path_898" class="st1" d="M89,271.6c3,0,5.5-2.5,5.5-5.5c0,0,0,0,0-0.2l-7.4-127.9c-0.2-3-2.1-4.1-4.6-2.3l-24.7,16.8
		c-2.6,2.3-4.2,5.5-4.4,9L66.1,266c0.2,3.2,2.6,5.6,5.8,5.6L89,271.6z"/>
	<path id="Path_899" class="st1" d="M212.9,59.8l-46-32.6c-3.2-1.8-7.1-2.1-10.4-0.7L87.8,60.6C85,62.2,83,65.4,83,68.8l11.8,197.4
		c0.2,3,2.6,5.5,5.6,5.6h97.7c3.2,0,5.6-2.5,5.8-5.6l13.1-197.4C217.1,65,215.5,61.9,212.9,59.8z"/>
	<path id="Path_900" class="st2" d="M98.9,104.7V81.6l45.9,4.1L98.9,104.7z"/>
</g>
<g id="portatil" transform="translate(10.124 61.422)">
	<path id="Path_913" class="st3" d="M107.7,185.6c2.6,1.4,5.8,1.8,8.6,0.9c0,0,73.6-31.2,74.1-31.6c0.7-0.4,1.2-1.1,1.6-1.8
		c0-0.4,0.2-1.2,0.2-1.9c0.2-0.9-1.1-1.9-2.1-2.3l-42-18.3c-1.1-0.2-2.3-0.2-3.4,0l-3.2,0.9l2.8,1.9l-60.9,16.6l-2.6-1.8l-6.4,1.8
		c-0.5,0-0.9,0.5-0.9,1.1l0.4,2.1c0,0.4,0.2,0.9,0.5,1.1L107.7,185.6z"/>
	<path id="Path_914" class="st4" d="M66.8,76.3l70-4.4c2.6,0,4.6-0.7,4.6,2.8l5.5,57.2c0,0-73.2,20.8-73.7,20.1
		c-0.7-0.9-12-69.9-12-69.9C60.2,76.5,63.4,76.5,66.8,76.3L66.8,76.3z"/>
	<path id="Path_915" class="st5" d="M66.8,76.3l70-4.4c2.6,0,4.6-0.7,4.6,2.8l5.5,57.3l-71.6,19.8c-0.7,0.2-1.4,0.5-1.9,0.2
		s-12-69.9-12-69.9C60.2,76.5,63.4,76.5,66.8,76.3L66.8,76.3z"/>
	<path id="Path_916" class="st0" d="M66.8,76.3l70-4.4c2.6,0,4.6-0.7,4.6,2.8l5.5,57.3l-71.6,19.8c-0.7,0.2-1.4,0.5-1.9,0.2
		s-12-69.9-12-69.9C60.2,76.5,63.4,76.5,66.8,76.3L66.8,76.3z"/>
	<g>
		<g>
			<defs>
				<polygon id="SVGID_1_" points="68.1,84.6 142.5,78.6 148,132.1 78.5,150.5 				"/>
			</defs>
			<clipPath id="SVGID_2_">
				<use xlink:href="#SVGID_1_"  style="overflow:visible;"/>
			</clipPath>
			<g id="Group_90" transform="translate(2.048 1.903)" class="st6">
				<path id="Path_917" class="st0" d="M62.5,79.4l74.4-6l5.5,53.5l-69.5,18.3L62.5,79.4z"/>
				<path id="Path_918" class="st7" d="M48.2,148.4c8.6-38.3,63-71.6,91.7-78.5"/>
				<path id="Path_919" class="st8" d="M47.2,116.3c7.8-28.4,46-57.3,74.3-58.6"/>
			</g>
		</g>
	</g>
	<path id="Path_921" class="st9" d="M107.7,185.6c2.6,1.4,5.8,1.8,8.6,0.9c0,0,73.6-31.2,74.1-31.6c0.7-0.4,1.2-1.1,1.6-1.8
		c0-0.4,0.2-1.2,0.2-1.9c0.2-0.9-1.1-1.9-2.1-2.3l-42-18.3c-1.1-0.2-2.3-0.2-3.4,0l-3.2,0.9l3.2,1.8l-61.2,16.8l-2.6-1.8l-6.4,1.8
		c-0.5,0-0.9,0.5-0.9,1.1l0.4,2.1c0,0.4,0.2,0.9,0.5,1.1L107.7,185.6z"/>
	<path id="Path_922" class="st5" d="M108.1,182.4c2.5,1.6,5.5,1.9,8.3,1.2c0,0,75.9-31.9,76-32.6c0.2-0.9-1.1-1.6-2.1-2.1l-42-18.3
		c-1.1-0.2-2.3-0.2-3.4,0l-3,0.9l3,1.6l-61.2,16.8l-2.3-1.6l-7.2,1.9C73.1,150.6,108.1,182.4,108.1,182.4z"/>
	<path id="Path_923" class="st10" d="M190.3,149l-42-18.3c-1.1-0.2-2.3-0.2-3.4,0l-3.2,0.9l3.2,1.6l-61.2,16.8l-2.6-1.8l-6.2,1.9
		c-0.5,0-0.9,0.5-0.9,1.1l0.4,2.1c0,0.4,0.2,0.9,0.5,1.1l33,31.2c2.6,1.4,5.8,1.8,8.6,0.9c0,0,73.6-31.2,74.1-31.6
		c0.7-0.4,1.2-1.1,1.6-1.8c0-0.4,0.2-1.2,0.2-1.9C192.6,150.4,191.3,149.4,190.3,149L190.3,149z"/>
	<path id="Path_924" class="st11" d="M101.9,166.9l-15-12.3c-0.2,0-0.4-0.4,0.2-0.5l63.5-19.1c0.4,0,0.5,0,0.9,0.2
		c0.2,0.2,18.7,8.1,19.1,8.3c0.2,0,0.4,0.4,0.2,0.5c0,0,0,0.2-0.2,0.2l-67,22.9C102.9,167.2,102.4,167.2,101.9,166.9L101.9,166.9z"
		/>
	<path id="Path_925" class="st12" d="M99.1,164.7l68.1-22.8 M96.4,162.3l67-21.9 M93.6,160l57.7-18.3l8.3-2.8 M90.9,157.9l65.3-20.6
		 M88.5,155.9l64.4-19.9"/>
	<path id="Path_926" class="st13" d="M156.9,142.7l3.2,1.6 M163.4,143.2l-3.4-1.6l-10.1-4.8 M152.3,144.1l3.4,1.6 M124.3,153.4
		l3,1.9 M119.7,154.9l3,1.8 M115.5,156.3l2.8,1.9 M109.3,161.4l3.4,2.3 M106.3,159.1l2.8,2.1 M110.7,157.7l3,2.1 M104.7,162.8
		l3.4,2.5 M118.6,158.2l3.7,2.3 M114.1,159.8l3.4,2.3 M128.3,151.9l3,1.8 M132.8,150.4l3,1.8 M144.9,146.6l3.2,1.8 M149,145.3
		l3.2,1.6 M152.7,147.1l3.7,1.8 M148.3,148.3l3.7,1.9 M156.9,145.5l3.9,1.9 M163.6,143.4l3.9,1.8 M160.3,144.4l3.7,1.8 M144.7,149.6
		l3.5,1.9 M141,147.8l3.2,1.8 M137,149l3.2,1.8 M151.5,141.4l3.2,1.6 M147,140.2l3.2,1.6 M147.6,142.9l3,1.6 M143.7,144.1l3.2,1.6
		 M139.8,145.3l3.2,1.8 M135.8,146.6l3.2,1.8 M131.7,148l3,1.8 M127.6,149.4l3,1.8 M123,150.6l2.8,1.8 M118.8,152l2.8,1.8
		 M114.4,153.4l3,1.9 M110,154.9l2.8,1.9 M105.4,156.3l2.8,1.9 M101,157.7l2.8,1.9 M96.9,156.1l2.6,1.9 M101.5,154.7l2.8,1.9
		 M106.1,153.3l2.5,1.8 M110.3,151.9l2.6,1.8 M114.8,150.4l2.6,1.8 M119.2,149l2.6,1.8 M123.2,147.8l3,1.8 M127.1,146.4l3.2,1.8
		 M131.3,145.2l3.2,1.8 M135.4,143.9l3.2,1.8 M139.3,142.7l3.2,1.8 M143.2,141.4l3.2,1.8 M145.6,138.1l2.8,1.4 M147.2,136l1.9,0.9
		 M141.9,139.3l2.8,1.4 M138.2,140.6l2.8,1.4 M134.3,141.6l2.8,1.4 M130.6,142.9l2.8,1.6 M126.6,144.1l2.6,1.6 M122.5,145.5l2.6,1.6
		 M143.9,137l1.9,0.9 M140.5,138.1l1.9,0.9 M136.8,139.2l1.9,0.9 M133.1,140.4l1.9,0.9 M129.6,141.4l1.9,1.1 M125.9,142.5l1.9,1.1
		 M122.2,143.7l1.8,0.9 M118.5,144.8l1.8,1.2 M114.4,145.9l1.9,1.1 M110.5,147.1l1.8,1.1 M118.3,146.7l2.6,1.6 M113.9,148l2.6,1.6
		 M109.8,149.2l2.6,1.6 M105.6,150.6l2.6,1.8 M101,152l2.6,1.8 M96.6,153.4l2.5,1.8 M92.2,154.7l2.5,1.8 M106.6,148.3l1.9,1.2
		 M102.6,149.6l1.8,1.2 M98.5,150.8l1.9,1.2 M94.3,152l1.9,1.2 M90.1,153.3l1.8,1.4"/>
	<path id="Path_927" class="st14" d="M141.6,131.7l0.4,2.3l2.8-0.7L141.6,131.7z"/>
	<path id="Path_928" class="st14" d="M81.1,158.6l-2.1-1.9l0,0v0.4c0,0,0,0,0,0.2l2.1,1.9l0,0V158.6L81.1,158.6z"/>
	<path id="Path_929" class="st14" d="M78.2,155.9l-1.9-1.8l0,0v0.4c0,0,0,0,0,0.2l1.9,1.8l0,0V155.9
		C78.2,156.1,78.2,156.1,78.2,155.9L78.2,155.9z"/>
	<path id="Path_930" class="st15" d="M139.6,168.6c0.4,0.2,0.9,0.4,1.2,0.2l18-7.1c0.7-0.4,0.7-0.5,0.4-0.9l-12-6.5
		c-0.4-0.2-0.9-0.2-1.4-0.2l-17.1,6c-0.5,0.2-0.5,0.5-0.2,0.7L139.6,168.6z"/>
</g>
<g id="telephone" transform="translate(46.729 51.425)">
	<path id="_Trazado_" class="st16" d="M135.3,69.6c2.8-4.6,6.4-6,9.9-4.9l25.1,7.2c3.5,0.9,5.8,5.5,3,10.6l-48.3,80.4
		c-4.4,7.2-9.2,5.6-12,3.9l-9.4-5.6l-1.4-1.1c-0.5-0.4-1.1-0.7-1.8-0.9l-8.5-5.1c-3.2-1.9-3.7-5.8-1.6-9.2L135.3,69.6z"/>
	<path id="_Trazado_2" class="st9" d="M135.3,69.6c2.8-4.6,6.4-6,9.9-4.9l25.1,7.2c3.5,0.9,5.8,5.5,3,10.6l-48.3,80.4
		c-4.4,7.2-9.2,5.6-12,3.9l-9.4-5.6l-1.4-1.1c-0.5-0.4-1.1-0.7-1.8-0.9l-8.5-5.1c-3.2-1.9-3.7-5.8-1.6-9.2L135.3,69.6z"/>
	<path id="_Trazado_2-2" class="st17" d="M135.3,69.6c2.8-4.6,6-5.8,9.5-4.9l24.7,7.1c2.6,0.7,4.6,3.4,1.6,8.5l-48.7,81.3
		c-3.4,5.5-7.1,5.5-9.7,3.9l-21.3-12.7c-2.8-1.8-2.6-5.3-0.7-8.6L135.3,69.6z"/>
	<path id="Path_931" class="st17" d="M102.3,152c-1.1,1.4-0.9,3.5,0.5,4.8c1.6,1.6,3.9,1.6,5.5,0c1.6-1.6,1.6-3.9,0-5.5
		c-1.6-1.6-3.9-1.6-5.5,0C102.7,151.5,102.5,151.6,102.3,152z"/>
	<path id="Path_932" class="st14" d="M148.4,120.8L148.4,120.8c0.2,0.4,0.7,0.2,0.9-0.4l5.1-8.6c0.4-0.4,0.4-0.9,0.2-1.4l0,0
		c-0.2-0.4-0.7-0.2-0.9,0.4l-4.9,8.3C148.4,119.7,148.2,120.4,148.4,120.8L148.4,120.8z"/>
	<path id="Path_933" class="st14" d="M160.2,101.2L160.2,101.2c0.2,0.4,0.5,0.2,0.9-0.2l3.7-6.2c0.2-0.4,0.2-0.7,0-1.1l0,0
		c-0.2-0.4-0.7-0.2-0.9,0.2l-3.5,6C160,100.3,160,100.8,160.2,101.2z"/>
	<path id="_Trazado_3" class="st14" d="M150,72.6l5.3,1.6c0.2,0,0.4,0,0.5-0.2l0,0c0-0.2,0-0.4,0-0.4l0,0l-5.1-1.6
		c-0.2,0-0.4,0-0.5,0.2l0,0C149.8,72.2,149.8,72.2,150,72.6C150,72.4,150,72.4,150,72.6L150,72.6z"/>
	<path id="_Trazado_4" class="st14" d="M146.6,70.3c-0.4,0.4-0.5,0.7-0.4,1.2c0.2,0.4,0.7,0.4,1.1,0c0.4-0.4,0.5-0.7,0.4-1.2
		C147.5,70.1,147,70.1,146.6,70.3z"/>
	<path id="Path_934" class="st14" d="M154.4,69.8c-0.2,0.2-0.2,0.4-0.2,0.7c0.2,0.2,0.4,0.2,0.5,0l0,0l0,0c0.2-0.2,0.2-0.4,0.2-0.7
		C154.9,69.6,154.6,69.6,154.4,69.8L154.4,69.8z"/>
	<g>
		<g>
			<defs>
				<path id="SVGID_3_" d="M99.7,149.9l-0.2-0.2v-0.2l40.2-67c0-0.2,0.2-0.2,0.4-0.2L172,92.4h0.2c0.2,0.2,0.2,0.4,0.2,0.4
					l-43.8,72.7c0,0.2-0.2,0.2-0.4,0L99.7,149.9L99.7,149.9z"/>
			</defs>
			<clipPath id="SVGID_4_">
				<use xlink:href="#SVGID_3_"  style="overflow:visible;"/>
			</clipPath>
			<g id="Group_91" transform="translate(2.985 5.121)" class="st18">
				<path id="Path_935" class="st19" d="M91.4,135.8l-0.2-0.2v-0.2l40.2-67c0-0.2,0.2-0.2,0.4-0.2l31.9,10.1h0.2
					c0.2,0.2,0.2,0.4,0.2,0.4l-43.8,72.7c0,0.2-0.2,0.2-0.4,0L91.4,135.8L91.4,135.8z"/>
				<path id="Path_936" class="st20" d="M56.6,175.7c0-47.1,73.7-95.1,119.3-95.1"/>
				<path id="Path_937" class="st21" d="M72,161.4c0-47.1,64.7-92.4,110.3-92.4"/>
			</g>
		</g>
	</g>
</g>
</svg>
