<?xml version="1.0" encoding="utf-8"?>
<!-- Generator: Adobe Illustrator 21.0.2, SVG Export Plug-In . SVG Version: 6.00 Build 0)  -->
<svg version="1.1" id="smile" xmlns="http://www.w3.org/2000/svg" xmlns:xlink="http://www.w3.org/1999/xlink" x="0px" y="0px"
	 viewBox="0 0 293 216" style="enable-background:new 0 0 293 216;" xml:space="preserve">
<style type="text/css">
	.st0{fill:#FFFFFF;stroke:#88CC88;stroke-width:10;stroke-miterlimit:10;}
	.st1{fill:none;stroke:#88CC88;stroke-width:10;stroke-miterlimit:10;}
	.st2{fill:none;stroke:#FB9D91;stroke-width:10;stroke-linecap:round;stroke-linejoin:round;stroke-miterlimit:10;}
	.st3{fill:none;stroke:#FB9D91;stroke-width:10;stroke-miterlimit:10;}
	.st4{fill:none;stroke:#C5C5C5;stroke-width:5;stroke-linecap:round;stroke-miterlimit:10;}
	.st5{fill:none;stroke:#88CC88;stroke-width:5;stroke-miterlimit:10;}
</style>
<path id="frame" class="st0" d="M275.2,211.3H17.9c-7.1,0-12.9-5.8-12.9-12.9V17.9C5,10.8,10.7,5,17.8,5c0,0,0,0,0.1,0h257.4
	c7.1,0,12.9,5.8,12.9,12.9v180.6C288.1,205.6,282.3,211.3,275.2,211.3z"/>
<path id="line" class="st1" d="M6.3,45.1h283.1H6.3z"/>
<g id="face" transform="translate(77.091 74.087)">
	<path id="tongue" class="st2" d="M23.2,81.2c0.6,1.6,0.9,3.3,0.9,4.9v17.4c0,7.9-6.4,14.3-14.3,14.4c0,0,0,0,0,0l0,0
		c-7.9,0-14.3-6.4-14.4-14.3c0,0,0,0,0,0v-17"/>
	<line id="lip" class="st2" x1="-5" y1="85.8" x2="143.9" y2="60.4"/>
	<path id="eye_1_" class="st3" d="M28.6,36.4H8.8C2.8,36.4-2,31.6-2,25.6c0,0,0,0,0,0V5.8C-2-0.2,2.8-5,8.8-5c0,0,0,0,0,0h19.8
		c6,0,10.8,4.8,10.8,10.8c0,0,0,0,0,0v19.8C39.4,31.5,34.5,36.4,28.6,36.4z"/>
	<path id="eye" class="st3" d="M130.7,36.4H111c-6,0-10.8-4.8-10.8-10.8c0,0,0,0,0,0V5.8C100.1-0.2,105-5,111-5c0,0,0,0,0,0h19.8
		c6,0,10.8,4.8,10.8,10.8c0,0,0,0,0,0v19.8C141.5,31.5,136.7,36.4,130.7,36.4z"/>
</g>
<line id="url" class="st4" x1="22.4" y1="26.4" x2="122.5" y2="26.4"/>
<path id="dot_2_" class="st5" d="M216.3,34.4L216.3,34.4c-4.2,0-7.7-3.4-7.7-7.6c0,0,0-0.1,0-0.1l0,0c0-4.2,3.4-7.7,7.6-7.7
	c0,0,0.1,0,0.1,0l0,0c4.2,0,7.7,3.4,7.7,7.6c0,0,0,0.1,0,0.1l0,0C224,30.9,220.6,34.4,216.3,34.4C216.3,34.4,216.3,34.4,216.3,34.4z
	"/>
<path id="dot_1_" class="st5" d="M241,34.4L241,34.4c-4.2,0-7.7-3.4-7.7-7.6c0,0,0-0.1,0-0.1l0,0c0-4.2,3.4-7.7,7.6-7.7
	c0,0,0.1,0,0.1,0l0,0c4.2,0,7.7,3.4,7.7,7.6c0,0,0,0.1,0,0.1l0,0C248.7,30.9,245.3,34.4,241,34.4C241,34.4,241,34.4,241,34.4z"/>
<path id="dot" class="st5" d="M265.7,34.4L265.7,34.4c-4.2,0-7.7-3.4-7.7-7.6c0,0,0-0.1,0-0.1l0,0c0-4.2,3.4-7.7,7.6-7.7
	c0,0,0.1,0,0.1,0l0,0c4.2,0,7.7,3.4,7.7,7.6c0,0,0,0.1,0,0.1l0,0C273.4,30.9,270,34.4,265.7,34.4C265.7,34.4,265.7,34.4,265.7,34.4z
	"/>
</svg>
