<?xml version="1.0" encoding="UTF-8" standalone="no"?>
<svg
   xmlns:dc="http://purl.org/dc/elements/1.1/"
   xmlns:cc="http://creativecommons.org/ns#"
   xmlns:rdf="http://www.w3.org/1999/02/22-rdf-syntax-ns#"
   xmlns:svg="http://www.w3.org/2000/svg"
   xmlns="http://www.w3.org/2000/svg"
   xmlns:sodipodi="http://sodipodi.sourceforge.net/DTD/sodipodi-0.dtd"
   xmlns:inkscape="http://www.inkscape.org/namespaces/inkscape"
   viewBox="0 0 198.74767 55.397202"
   width="198.74767"
   height="55.397202"
   version="1.1"
   id="svg3899"
   sodipodi:docname="brand_flixole_no_padding.svg"
   inkscape:version="0.92.2 5c3e80d, 2017-08-06">
  <metadata
     id="metadata3903">
    <rdf:RDF>
      <cc:Work
         rdf:about="">
        <dc:format>image/svg+xml</dc:format>
        <dc:type
           rdf:resource="http://purl.org/dc/dcmitype/StillImage" />
        <dc:title></dc:title>
      </cc:Work>
    </rdf:RDF>
  </metadata>
  <sodipodi:namedview
     pagecolor="#ffffff"
     bordercolor="#666666"
     borderopacity="1"
     objecttolerance="10"
     gridtolerance="10"
     guidetolerance="10"
     inkscape:pageopacity="0"
     inkscape:pageshadow="2"
     inkscape:window-width="1440"
     inkscape:window-height="855"
     id="namedview3901"
     showgrid="false"
     showborder="true"
     fit-margin-top="16"
     fit-margin-left="16"
     fit-margin-right="16"
     fit-margin-bottom="16"
     inkscape:zoom="1.8125"
     inkscape:cx="99.860935"
     inkscape:cy="13.791368"
     inkscape:window-x="1440"
     inkscape:window-y="181"
     inkscape:window-maximized="0"
     inkscape:current-layer="svg3899" />
  <defs
     id="defs3885">
    <clipPath
       id="a">
      <path
         d="m 150.692,36.692 c 0,7.153 -19.368,13.646 -45.575,14.815 -3.6,0.161 -0.8,-8.927 -0.8,-8.927 l 3.764,-8 37.845,-2.513 c 2.815,1.767 4.766,2.604 4.766,4.625 z"
         id="path3879"
         inkscape:connector-curvature="0"
         style="fill:none" />
    </clipPath>
    <clipPath
       id="b">
      <path
         d="m 104.1,51.57 c -4.373,0.266 -8.931,0.392 -13.612,0.392 a 208.83,208.83 0 0 1 -31.015,-2.18 c -0.379,-3.054 3.67,-15.34 3.67,-15.34 l 40.945,2.14 c 0,0 1.029,14.925 0.012,14.988 z"
         id="path3882"
         inkscape:connector-curvature="0"
         style="fill:none" />
    </clipPath>
  </defs>
  <path
     d="m 166.21341,37.823282 a 6.3341541,6.3341541 0 0 0 5.92549,7.151463 12.090061,12.090061 0 0 0 8.17311,-1.71635 c 0.73762,-0.46178 1.76538,-1.068633 2.45193,-0.872479 a 5.191963,5.191963 0 0 1 2.76046,1.963588 c 0.83774,1.319955 0.0817,2.656258 -1.03594,3.573688 a 16.370724,16.370724 0 0 1 -13.1117,3.361189 c -7.46,-1.001205 -11.21554,-4.989679 -12.2004,-12.537539 a 20.377586,20.377586 0 0 1 1.75109,-12.617226 12.02059,12.02059 0 0 1 10.59234,-6.689683 22.165453,22.165453 0 0 1 5.40038,0.179808 12.745953,12.745953 0 0 1 9.6034,15.481897 c -0.46996,1.89003 -1.63463,2.703254 -4.11517,2.717557 -4.71383,0.03065 -9.42562,0.01021 -14.13946,0.01021 z m 13.31603,-6.066486 a 5.9438884,5.9438884 0 0 0 -5.97659,-6.634515 6.5384815,6.5384815 0 0 0 -7.21275,6.634515 z M 178.2299,5.5783517 a 2.1699585,2.1699585 0 0 0 -3.16094,0.1185101 c -1.79195,2.0575782 -4.41756,5.5515792 -5.58018,7.0452132 a 2.0575784,2.0575784 0 0 0 0.20432,3.095562 c 1.03595,0.941951 2.0065,0.588464 2.90758,-0.243148 1.36696,-1.260702 4.66276,-4.086552 6.61613,-5.9254997 a 2.1679153,2.1679153 0 0 0 0.0307,-3.1200821 z M 144.47295,6.027872 c -0.0164,8.064809 -0.0511,33.231833 0,37.55949 a 7.0002618,7.0002618 0 0 0 7.45796,7.598941 3.0649132,3.0649132 0 0 0 3.32032,-2.572484 2.8095039,2.8095039 0 0 0 -2.48053,-3.355057 c 0,0 -1.73475,0.204327 -1.71227,-1.10337 0.045,-2.486666 0,-29.795043 -0.0266,-38.12752 a 3.2815005,3.2815005 0 0 0 -3.28967,-3.2692409 3.2835437,3.2835437 0 0 0 -3.27332,3.2774145 z m -7.65411,31.345888 c -1.80012,8.671662 -8.61649,13.651125 -17.517,14.002568 A 35.990254,35.990254 0 0 1 110.6547,50.810341 17.004139,17.004139 0 0 1 96.735907,36.952847 36.304919,36.304919 0 0 1 97.338671,16.928746 16.861109,16.861109 0 0 1 113.16793,4.7794305 37.628961,37.628961 0 0 1 123.68671,5.3311154 c 7.54991,1.5998844 12.47829,7.5294706 13.64295,15.7332206 a 48.454235,48.454235 0 0 1 -0.5149,16.317598 z M 129.8104,22.253523 c -1.02163,-6.70603 -5.3268,-10.829361 -11.61193,-11.158327 -7.59894,-0.408655 -12.35568,2.784984 -14.05773,9.568658 a 29.866558,29.866558 0 0 0 -0.3351,13.029968 c 1.20758,6.248337 4.45434,9.785246 9.86494,10.739456 a 20.314245,20.314245 0 0 0 5.00807,0.151202 10.484047,10.484047 0 0 0 9.87514,-7.141248 33.546497,33.546497 0 0 0 1.25253,-15.191753 z"
     id="path3887"
     inkscape:connector-curvature="0"
     style="fill:#d8003b;stroke-width:2.04327559" />
  <g
     clip-path="url(#a)"
     transform="matrix(2.0432755,0,0,2.0432755,-119.43651,-66.17944)"
     id="g3891"
     style="opacity:0.23999999">
    <path
       d="m 139.8,50.9 a 3.1,3.1 0 0 0 2.9,3.5 5.917,5.917 0 0 0 4,-0.84 c 0.361,-0.226 0.864,-0.523 1.2,-0.427 a 2.541,2.541 0 0 1 1.351,0.961 c 0.41,0.646 0.04,1.3 -0.507,1.749 a 8.012,8.012 0 0 1 -6.417,1.645 c -3.651,-0.49 -5.489,-2.442 -5.971,-6.136 a 9.973,9.973 0 0 1 0.857,-6.175 5.883,5.883 0 0 1 5.184,-3.274 10.848,10.848 0 0 1 2.643,0.088 6.238,6.238 0 0 1 4.7,7.577 c -0.23,0.925 -0.8,1.323 -2.014,1.33 -2.307,0.015 -4.613,0.005 -6.92,0.005 z m 6.517,-2.969 a 2.909,2.909 0 0 0 -2.925,-3.247 3.2,3.2 0 0 0 -3.53,3.247 z m -0.636,-12.812 a 1.062,1.062 0 0 0 -1.547,0.058 c -0.877,1.007 -2.162,2.717 -2.731,3.448 a 1.007,1.007 0 0 0 0.1,1.515 c 0.507,0.461 0.982,0.288 1.423,-0.119 0.669,-0.617 2.282,-2 3.238,-2.9 a 1.061,1.061 0 0 0 0.015,-1.527 z m -16.521,0.22 c -0.008,3.947 -0.025,16.264 0,18.382 a 3.426,3.426 0 0 0 3.65,3.719 1.5,1.5 0 0 0 1.625,-1.259 1.375,1.375 0 0 0 -1.214,-1.642 c 0,0 -0.849,0.1 -0.838,-0.54 0.022,-1.217 0,-14.582 -0.013,-18.66 a 1.606,1.606 0 0 0 -1.61,-1.6 1.607,1.607 0 0 0 -1.602,1.604 z m -3.746,15.341 c -0.881,4.244 -4.217,6.681 -8.573,6.853 a 17.614,17.614 0 0 1 -4.232,-0.277 8.322,8.322 0 0 1 -6.812,-6.782 17.768,17.768 0 0 1 0.295,-9.8 8.252,8.252 0 0 1 7.747,-5.946 18.416,18.416 0 0 1 5.148,0.27 c 3.695,0.783 6.107,3.685 6.677,7.7 a 23.714,23.714 0 0 1 -0.252,7.986 z m -3.43,-7.4 c -0.5,-3.282 -2.607,-5.3 -5.683,-5.461 -3.719,-0.2 -6.047,1.363 -6.88,4.683 a 14.617,14.617 0 0 0 -0.164,6.377 c 0.591,3.058 2.18,4.789 4.828,5.256 a 9.942,9.942 0 0 0 2.451,0.074 5.131,5.131 0 0 0 4.833,-3.495 16.418,16.418 0 0 0 0.613,-7.435 z"
       id="path3889"
       inkscape:connector-curvature="0"
       style="fill:#ffffff" />
  </g>
  <path
     d="m 91.564376,45.892177 -6.975743,-9.047625 -4.15398,-5.39016 -5.73956,-7.449783 a 3.2958033,3.2958033 0 0 0 -4.611673,-0.612982 3.2937601,3.2937601 0 0 0 -0.612983,4.628019 l 6.789804,8.810604 4.158067,5.394247 5.925498,7.682716 a 3.2937601,3.2937601 0 0 0 4.619846,0.596637 3.2958033,3.2958033 0 0 0 0.600724,-4.611673 z m -17.094044,4.057944 5.958193,-7.711322 4.170324,-5.398333 6.769373,-8.757479 a 3.2937601,3.2937601 0 0 0 -0.586421,-4.611672 3.2917169,3.2917169 0 0 0 -4.630062,0.586419 l -5.721172,7.406874 -4.164195,5.377901 -7.018652,9.080316 a 3.2958033,3.2958033 0 0 0 0.594594,4.621889 3.2958033,3.2958033 0 0 0 4.628018,-0.594593 z M 42.121196,10.619112 c -0.01839,8.064808 -0.05313,28.579294 0,32.906952 a 7.0002618,7.0002618 0 0 0 7.457954,7.59894 3.0649132,3.0649132 0 0 0 3.320324,-2.572482 2.8074605,2.8074605 0 0 0 -2.480537,-3.353015 c 0,0 -1.73474,0.204327 -1.712265,-1.105413 0.04495,-2.486666 0,-25.142505 -0.02657,-33.474982 a 3.2815005,3.2815005 0 0 0 -3.289669,-3.2692408 3.2692407,3.2692407 0 0 0 -3.26924,3.2692408 z m 21.709801,37.216219 v -21.88348 a 3.2937601,3.2937601 0 0 0 -3.2815,-3.29376 3.2937601,3.2937601 0 0 0 -3.30602,3.29376 v 21.88348 a 3.2937601,3.2937601 0 0 0 3.29376,3.293761 3.2937601,3.2937601 0 0 0 3.29376,-3.293761 z m 0.72332,-31.891443 v -1.021637 a 3.567559,3.567559 0 0 0 -3.569603,-3.577776 h -0.612982 a 3.567559,3.567559 0 0 0 -3.56756,3.567559 v 1.021637 a 3.567559,3.567559 0 0 0 3.56756,3.573689 h 0.612982 a 3.567559,3.567559 0 0 0 3.569603,-3.567559 z m -34.37811,17.572169 a 3.0363074,3.0363074 0 0 0 3.036307,-3.038351 3.040394,3.040394 0 0 0 -3.038351,-3.040394 H 18.872806 V 16.023576 l 15.469639,0.02044 A 3.130298,3.130298 0 0 0 37.47683,12.913712 3.1262115,3.1262115 0 0 0 34.352662,9.7854573 c -4.773092,0 -13.769634,-0.01635 -17.931786,0 -3.218159,0 -4.515639,1.2259657 -4.523812,4.4768167 v 33.368733 a 3.4878713,3.4878713 0 0 0 3.487871,3.487872 3.4878713,3.4878713 0 0 0 3.487871,-3.487872 v -14.11495 z"
     id="path3893"
     inkscape:connector-curvature="0"
     style="stroke-width:2.04327559" />
  <g
     clip-path="url(#b)"
     transform="matrix(2.0432755,0,0,2.0432755,-119.43651,-66.17944)"
     id="g3897"
     style="opacity:0.23999999">
    <path
       d="M 103.266,54.849 99.852,50.421 97.819,47.783 95.01,44.137 a 1.613,1.613 0 0 0 -2.257,-0.3 1.612,1.612 0 0 0 -0.3,2.265 l 3.323,4.312 2.035,2.64 2.9,3.76 a 1.612,1.612 0 0 0 2.261,0.292 1.613,1.613 0 0 0 0.294,-2.257 z m -8.366,1.986 2.916,-3.774 2.041,-2.642 3.313,-4.286 a 1.612,1.612 0 0 0 -0.287,-2.257 1.611,1.611 0 0 0 -2.266,0.287 l -2.8,3.625 -2.038,2.632 -3.435,4.444 a 1.613,1.613 0 0 0 0.291,2.262 1.613,1.613 0 0 0 2.265,-0.291 z M 79.068,37.586 c -0.009,3.947 -0.026,13.987 0,16.105 a 3.426,3.426 0 0 0 3.65,3.719 1.5,1.5 0 0 0 1.625,-1.259 1.374,1.374 0 0 0 -1.214,-1.641 c 0,0 -0.849,0.1 -0.838,-0.541 0.022,-1.217 0,-12.305 -0.013,-16.383 a 1.606,1.606 0 0 0 -1.61,-1.6 1.6,1.6 0 0 0 -1.6,1.6 z M 89.693,55.8 V 45.09 A 1.612,1.612 0 0 0 88.087,43.478 1.612,1.612 0 0 0 86.469,45.09 V 55.8 a 1.612,1.612 0 0 0 1.612,1.612 1.612,1.612 0 0 0 1.612,-1.612 z m 0.354,-15.608 v -0.5 A 1.746,1.746 0 0 0 88.3,37.941 H 88 a 1.746,1.746 0 0 0 -1.746,1.746 v 0.5 A 1.746,1.746 0 0 0 88,41.936 h 0.3 a 1.746,1.746 0 0 0 1.747,-1.746 z m -16.825,8.6 a 1.486,1.486 0 0 0 1.486,-1.487 1.488,1.488 0 0 0 -1.487,-1.488 H 67.69 v -5.586 l 7.571,0.01 a 1.532,1.532 0 0 0 1.534,-1.532 1.53,1.53 0 0 0 -1.529,-1.531 c -2.336,0 -6.739,-0.008 -8.776,0 -1.575,0 -2.21,0.6 -2.214,2.191 V 55.7 a 1.707,1.707 0 0 0 1.707,1.707 1.707,1.707 0 0 0 1.707,-1.707 v -6.908 z"
       id="path3895"
       inkscape:connector-curvature="0"
       style="fill:#ffffff" />
  </g>
</svg>
