<svg xmlns="http://www.w3.org/2000/svg" width="219" height="50" viewBox="0 0 219 50">
  <g id="MYA-BRAND-SFERA__movil" data-name="MYA-BRAND-SFERA _movil" transform="translate(-1009 -391)">
    <path id="BG" d="M.5.5h219v50H.5Z" transform="translate(1008.5 390.5)" fill="#fff" opacity="0"/>
    <g id="SFERA-LOGO-MOVIL" transform="translate(301 322)">
      <path id="sfera" d="M48.7,67.8a13.414,13.414,0,0,0,1.36,5.94,22.8,22.8,0,0,1-.216-3.219c0-6.061,2.169-11.368,5.428-14.3L55.26,56.2A13.268,13.268,0,0,0,48.7,67.8Zm16.985-.471c-1.36-.62-3.664-1.4-3.664-3.313a2.426,2.426,0,0,1,2.707-2.371c1.63,0,2.263.822,2.721,2.357.067.162.108.512.337.512.148,0,.229-.108.229-.269-.027-.579-.067-1.158-.081-1.737-.027-.4.027-.66-.377-.822a8.073,8.073,0,0,0-2.8-.485,3.855,3.855,0,0,0-4.041,3.758c0,1.98,1.509,2.882,3.044,3.6l1.064.485c1.428.66,2.559,1.535,2.559,3.313a3,3,0,0,1-3.125,2.882c-1.913,0-2.869-1.2-3.084-3.111-.027-.175-.027-.727-.3-.727-.229,0-.3.269-.31.444a14.531,14.531,0,0,0-.067,1.711c0,.4-.067,1,.3,1.239a6.381,6.381,0,0,0,3.165.862,5.016,5.016,0,0,0,3.354-1.158,4.044,4.044,0,0,0,.458-5.792A7.114,7.114,0,0,0,65.685,67.325ZM82.9,65.036a4.487,4.487,0,0,0-3.367,1.535,5.174,5.174,0,0,0-1.347,3.839c0,2.869,1.818,5.28,4.27,5.28a3.84,3.84,0,0,0,2.963-1.28c.135-.135.727-.754.727-1.037A.169.169,0,0,0,86,73.184c-.242,0-.943,1.5-2.775,1.5-2.263,0-3.637-2.222-3.637-4.795,0-.754.189-.714.768-.714h5.671c.189,0,.229-.2.229-.391a4.743,4.743,0,0,0-.66-2.317A3.174,3.174,0,0,0,82.9,65.036Zm1.172,3.273A9.63,9.63,0,0,1,81.9,68.5H80.38c-.2,0-.633.067-.633-.3a3.353,3.353,0,0,1,.471-1.333,2.877,2.877,0,0,1,2.438-1.535,2,2,0,0,1,1.63.714,2.481,2.481,0,0,1,.485,1.36A.864.864,0,0,1,84.07,68.309Zm-8.014-8.7a4.353,4.353,0,0,0-3,1.522,5.132,5.132,0,0,0-.916,3.031c-.04.7.04,1.333-.7,1.535-.175.04-.512.108-.512.364,0,.3.471.175.647.175.66,0,.62.135.566.808v6.115c.054.97.229,1.738-.916,1.859-.216.027-.579-.027-.579.323,0,.175.135.229.283.229.647,0,1.32-.094,1.967-.094.687,0,1.36.094,2.088.094.148,0,.256-.04.256-.242,0-.3-.391-.269-.593-.3-1.158-.108-.956-.889-1.01-1.859V67.056c.054-.808.013-.808.795-.849h1.5c.283.027.579.121.579-.256,0-.269,0-.4-.3-.418H74.521c-.9,0-.835-.04-.889-1.01V63.392c.054-1.1.242-3.125,1.67-3.125.62,0,1.051.525,1.428.97.135.162.4.5.62.5.283,0,.593-1.064.593-1.293-.027-.633-1.509-.835-1.886-.835Zm17.55,5.59c-1.482,0-2.317,1.859-2.532,1.859-.148,0-.108-.391-.108-.485V65.426c0-.162.027-.377-.189-.377-.175,0-.283.189-.391.3a4.813,4.813,0,0,1-1.778,1.212c-.189.067-.5.121-.5.391,0,.135.135.189.256.189h.283c.175,0,.5.027.62.189.242.256.216,1.158.216,1.482v4.364c0,1,.189,1.791-.97,1.9-.242.027-.606-.027-.606.323,0,.189.148.229.3.229.66,0,1.347-.094,2.034-.094.647,0,1.333.094,2.02.094a.228.228,0,0,0,.256-.256c0-.3-.391-.283-.606-.3-1.158-.121-.97-.9-.97-1.9V69.494a3.594,3.594,0,0,1,.5-2.33c.256-.35.62-.835,1.091-.835.606,0,.647.889,1.374.889a.87.87,0,0,0,.9-.929,1.1,1.1,0,0,0-1.2-1.091Zm12.015,8.687c-.189,0-.431.566-.97.566-.768,0-.754-1.32-.754-1.818V67.258c0-.62.081-1.212-.431-1.657a2.881,2.881,0,0,0-1.953-.593,5.8,5.8,0,0,0-3.839,1.576,2.547,2.547,0,0,0-.9,1.616c0,.229.108.269.283.269a2.781,2.781,0,0,0,.929-.3c.35-.162.444-.471.606-.822a2.564,2.564,0,0,1,2.465-1.913c1.333,0,1.374.929,1.374,2.047v1c0,.862-.027.889-.795,1.28l-1.657.822c-1.185.62-3.179,1.576-3.179,3.192a1.887,1.887,0,0,0,2.02,1.791c1.872,0,3.26-1.724,3.462-1.724.3,0,.4,1.589,1.455,1.589a2.725,2.725,0,0,0,1.522-.66c.148-.135.512-.458.512-.7A.17.17,0,0,0,105.621,73.885Zm-3.206-3.354v1.36a2.084,2.084,0,0,1-.539,1.711,2.773,2.773,0,0,1-1.993.916A1.344,1.344,0,0,1,98.4,73.171c0-1.091.835-1.684,1.67-2.142l1.953-1.051a.9.9,0,0,1,.242-.094C102.483,69.9,102.415,70.437,102.415,70.531Zm11.934-5.441a22.8,22.8,0,0,1,.216,3.219c0,6.061-2.182,11.368-5.428,14.318l.013.013a13.252,13.252,0,0,0,6.56-11.6A13.472,13.472,0,0,0,114.349,65.09Z" transform="translate(795.299 24.8)"/>
    </g>
    <g id="MYA-TEXT-MOVIL_negro" transform="translate(-74 321)">
      <g id="a" transform="translate(1197.001 92.024)">
        <path id="A-2" data-name="A" d="M74.86-1.264H72.036L71.5,0h-.984l2.472-5.6h.968L76.4,0H75.4ZM74.5-2.1,73.444-4.592,72.388-2.1Z" transform="translate(-70.516 5.6)" fill="#484848"/>
      </g>
      <g id="t" transform="translate(1185 92.024)">
        <path id="T-2" data-name="T" d="M57.068-5.6v.848H55.292V0h-.944V-4.752H52.58V-5.6Z" transform="translate(-52.58 5.6)" fill="#484848"/>
      </g>
      <g id="n" transform="translate(1172 92.024)">
        <path id="N-2" data-name="N" d="M34.468-5.6l3,4.024V-5.6H38.4V0h-.928L34.484-4.016V0H33.54V-5.6Z" transform="translate(-33.54 5.6)" fill="#484848"/>
      </g>
      <g id="e" transform="translate(1160 92.024)">
        <path id="E-2" data-name="E" d="M18.924-5.6v.848H15.868v1.52H18.6v.84H15.868V-.848H19.02V0h-4.1V-5.6Z" transform="translate(-14.924 5.6)" fill="#484848"/>
      </g>
      <g id="u" transform="translate(1147.001 92.024)">
        <path id="U-2" data-name="U" d="M-3.724-2.32a1.494,1.494,0,0,0,.4,1.112,1.5,1.5,0,0,0,1.1.4,1.465,1.465,0,0,0,1.084-.4A1.509,1.509,0,0,0-.74-2.32V-5.6H.2v3.28a2.732,2.732,0,0,1-.168.988,2.043,2.043,0,0,1-.48.74,2.108,2.108,0,0,1-.764.468A2.976,2.976,0,0,1-2.228.04a2.976,2.976,0,0,1-1.02-.164,2.148,2.148,0,0,1-.768-.468,2.017,2.017,0,0,1-.484-.74,2.732,2.732,0,0,1-.168-.988V-5.6h.944Z" transform="translate(4.668 5.6)" fill="#484848"/>
      </g>
      <g id="c" transform="translate(1134 92)">
        <path id="C-2" data-name="C" d="M-19.444-4.072A2.171,2.171,0,0,0-20.16-4.6,2.013,2.013,0,0,0-21-4.784a2.024,2.024,0,0,0-.788.152,1.974,1.974,0,0,0-.632.416,1.959,1.959,0,0,0-.424.624A1.93,1.93,0,0,0-23-2.816a1.93,1.93,0,0,0,.156.776,2.007,2.007,0,0,0,.424.628,1.941,1.941,0,0,0,.632.42A2.024,2.024,0,0,0-21-.84a2.043,2.043,0,0,0,.832-.18,2.533,2.533,0,0,0,.728-.484l.56.624a3.3,3.3,0,0,1-1,.672A2.891,2.891,0,0,1-21.052.04,2.974,2.974,0,0,1-22.2-.18a2.875,2.875,0,0,1-.924-.6,2.8,2.8,0,0,1-.616-.9,2.8,2.8,0,0,1-.224-1.12,2.7,2.7,0,0,1,.228-1.112,2.8,2.8,0,0,1,.624-.892,2.891,2.891,0,0,1,.932-.6,3.074,3.074,0,0,1,1.16-.216,3.048,3.048,0,0,1,1.16.228,2.9,2.9,0,0,1,.968.636Z" transform="translate(23.964 5.624)" fill="#484848"/>
      </g>
      <g id="m" transform="translate(1099 92.024)">
        <path id="M-2" data-name="M" d="M-74.556-5.6l1.848,3.72,1.84-3.72h1.112V0h-.872l-.008-4.184L-72.4-.584h-.616l-1.768-3.6V0h-.888V-5.6Z" transform="translate(75.676 5.6)" fill="#484848"/>
      </g>
      <g id="i" transform="translate(1112.768 92.024)">
        <path id="I-2" data-name="I" d="M-53.964-5.6V0h-.944V-5.6Z" transform="translate(54.908 5.6)" fill="#484848"/>
      </g>
    </g>
  </g>
</svg>
