<svg xmlns="http://www.w3.org/2000/svg" width="257" height="50" viewBox="0 0 257 50"><g data-name="ECI-LOGO-MOVIL _verde"><g data-name="ECI-LOGO _movil" fill="#008c2e"><path data-name="Trazado 1" d="M195.038 12.999c.023.164.046.33.065.493.08.974.157 1.946.245 2.921.066.8.125 1.607.2 2.411s.136 1.595.2 2.394c.022.31.048.62.066.937a4.059 4.059 0 0 1 4.346 2.4 2.872 2.872 0 0 1 1.14-.849 3.03 3.03 0 0 1 2.522-.053 2.987 2.987 0 0 1 1.454 1.486 5.513 5.513 0 0 1 .587 2.2c.048 1.044.025 2.085.038 3.132v.34h-2.811v-.177-2.981a1.668 1.668 0 0 0-.2-.843.948.948 0 0 0-.856-.513.887.887 0 0 0-.837.555 1.645 1.645 0 0 0-.158.666c-.02 1.263-.008 2.522-.008 3.786v.206h-2.672c-.015-.188-.025-.373-.038-.556-.065-1.116-.117-2.238-.18-3.353a5.859 5.859 0 0 0-.068-.913 1.684 1.684 0 0 0-1.251-1.31.529.529 0 0 0-.718.525 3.249 3.249 0 0 0 .031.452c.09.81.205 1.617.266 2.427.062.865.1 1.745.084 2.613a13.522 13.522 0 0 1-.515 3.8 5.08 5.08 0 0 1-.875 1.746 2.62 2.62 0 0 1-1.534.948c-.022 0-.036.017-.056.022h-.567a2.5 2.5 0 0 1-1.22-.666 4.259 4.259 0 0 1-.972-1.669 8.8 8.8 0 0 1-.428-2.217 12.864 12.864 0 0 1 .007-2.265 14.192 14.192 0 0 1 1.9-6.24 15.38 15.38 0 0 1 .969-1.27.319.319 0 0 0 .092-.266c-.065-.687-.111-1.376-.162-2.063-.046-.582-.1-1.164-.148-1.746-.044-.553-.084-1.1-.125-1.656-.06-.712-.113-1.424-.173-2.138l-.1-1.145c-.037-.487-.072-.974-.112-1.486.331-.008.649-.014.962-.025.486-.016.968-.036 1.452-.055a.949.949 0 0 1 .158-.005zm-1.076 17.478c-.025-.466-.038-.925-.094-1.389a3.7 3.7 0 0 0-.21-.814c-.046-.137-.172-.133-.246-.009a1.1 1.1 0 0 0-.134.288 7.505 7.505 0 0 0-.3 1.843 12.01 12.01 0 0 0 .027 2.383 6.073 6.073 0 0 0 .2.847c.016.052.086.117.13.115a.21.21 0 0 0 .157-.11 2.346 2.346 0 0 0 .168-.429 11.617 11.617 0 0 0 .302-2.725z"/><path data-name="Trazado 2" d="M137.047 21.441c.065-.307.11-.62.2-.919a5.334 5.334 0 0 1 2.967-3.377 6.569 6.569 0 0 1 3.1-.636 5.852 5.852 0 0 1 2.027.421c.075.03.129.058.128.158v2.986a.633.633 0 0 1-.012.067c-.053-.02-.1-.035-.151-.055a4.907 4.907 0 0 0-2.055-.408 3.131 3.131 0 0 0-2.975 2.07 3.323 3.323 0 0 0 .008 2.066l.143-.1a3.462 3.462 0 0 1 1.945-.7 2.512 2.512 0 0 1 2.04.973 2.8 2.8 0 0 1 .681 1.878 2.278 2.278 0 0 1-1.412 2.146 3.642 3.642 0 0 1-1.424.343c-.287.015-.573 0-.894 0a1.761 1.761 0 0 0 .866.784 2.827 2.827 0 0 0 1.657.137 5.987 5.987 0 0 0 2.084-.812.172.172 0 0 0 .1-.2 15.582 15.582 0 0 1-.222-2.709 9.526 9.526 0 0 1 .651-3.665 4.352 4.352 0 0 1 1.364-1.872 2.112 2.112 0 0 1 1.395-.472 1.776 1.776 0 0 1 1.328.7 3.386 3.386 0 0 1 .69 1.7 8.716 8.716 0 0 1-.2 3.272 18.277 18.277 0 0 1-1.143 3.361 1.781 1.781 0 0 1-.092.174.264.264 0 0 0 .131.423 1.211 1.211 0 0 0 .4.1 2.654 2.654 0 0 0 1.788-.558.123.123 0 0 1 .055-.024c0 .058.009.1.009.152v2.1a.207.207 0 0 1-.11.211 3.8 3.8 0 0 1-3.837.227 5.986 5.986 0 0 1-.708-.47c-.32.18-.649.379-.993.552a7.813 7.813 0 0 1-2.619.785 6.049 6.049 0 0 1-3.143-.4 4.136 4.136 0 0 1-2.615-3.468 6.183 6.183 0 0 1 .045-1.742.307.307 0 0 0-.024-.172 10.9 10.9 0 0 1-1.066-2.946 5.819 5.819 0 0 1-.107-2.081zm12.075 2.728c-.022-.151-.049-.4-.1-.648-.03-.147-.072-.325-.255-.338s-.257.146-.323.282a4.337 4.337 0 0 0-.351 2.549 1.05 1.05 0 0 0 .118.328.193.193 0 0 0 .346.044 1.236 1.236 0 0 0 .191-.291 4.9 4.9 0 0 0 .374-1.926zm-7.106 2.311a.637.637 0 0 0 .634-.624.649.649 0 0 0-.632-.631.642.642 0 0 0-.626.637.635.635 0 0 0 .624.618z"/><path data-name="Trazado 3" d="M174.509 25.645a1.836 1.836 0 0 1 1.8-.893c.07.01.126.02.126.113v2.413c-.165.029-.324.055-.479.1a1.131 1.131 0 0 0-.923 1.205v2.529h-2.229v-.161c0-.721-.015-1.447 0-2.168a1.077 1.077 0 0 0-1.048-1.163c-.138-.022-.28-.022-.426-.034-.025.172-.037.334-.072.492a3.618 3.618 0 0 1-1.305 2 4.08 4.08 0 0 1-2.613.974 4.3 4.3 0 0 1-2.291-.615.345.345 0 0 0-.43.017 11.327 11.327 0 0 1-3.553 1.533 6.126 6.126 0 0 1-4.209-.407 5.948 5.948 0 0 1-2.374-2.192 8.088 8.088 0 0 1-1.192-3.4 8.48 8.48 0 0 1 .614-4.538 6.918 6.918 0 0 1 4.944-4.1 10.258 10.258 0 0 1 3.536-.19l.533.057v2.81c-.234-.047-.465-.1-.7-.135a6.618 6.618 0 0 0-3.059.1 4.115 4.115 0 0 0-2.887 2.807 5.537 5.537 0 0 0 .652 4.935 3.354 3.354 0 0 0 2.341 1.544 3.985 3.985 0 0 0 2.084-.283 6.856 6.856 0 0 0 1.784-1.033.2.2 0 0 0 .061-.157 2.449 2.449 0 0 1 .361-1.858 1.985 1.985 0 0 1 1.822-.926.981.981 0 0 1 .932.985c.009.335 0 .68.032 1.015a3.613 3.613 0 0 0 .185.828 1.139 1.139 0 0 0 1.746.568 1.318 1.318 0 0 0 .384-.38.47.47 0 0 0-.28-.757c-.22-.073-.447-.126-.662-.214a2.593 2.593 0 0 1-1.181-.919 2.219 2.219 0 0 1-.31-1.766 3.033 3.033 0 0 1 1.29-1.924 2.2 2.2 0 0 1 2.647.093 4.721 4.721 0 0 1 1.275 1.61.218.218 0 0 0 .217.138 3.554 3.554 0 0 1 2.449.913c.152.133.274.287.408.434zm-5.211-.9a.44.44 0 0 0-.447-.451.457.457 0 1 0-.007.913.444.444 0 0 0 .454-.459z"/><path data-name="Trazado 4" d="M177.032 27.323v-2.456h.827l.355-5.53h2.438l-.452 5.828c.243 0 .474 0 .706-.006.039 0 .086-.068.112-.116a8.066 8.066 0 0 1 1.364-1.972 4.174 4.174 0 0 1 2.217-1.275 2.614 2.614 0 0 1 3.108 1.961 2.788 2.788 0 0 1-.455 2.114 5.561 5.561 0 0 1-1.941 1.767c-.34.2-.7.365-1.052.545-.035.021-.069.036-.121.065a1.955 1.955 0 0 0 1.374.849 3.123 3.123 0 0 0 1.867-.48c.246-.136.481-.29.74-.455v2.63a.365.365 0 0 1-.151.308 3.738 3.738 0 0 1-1.962.824 4.451 4.451 0 0 1-4.873-2.951 3.213 3.213 0 0 0-.341-.652.69.69 0 0 0-.336-.245.293.293 0 0 0-.412.307v3h-2.436v-4a4.074 4.074 0 0 0-.576-.06zm7.949-2.706c0-.314-.174-.444-.46-.308a1.389 1.389 0 0 0-.4.291 1.479 1.479 0 0 0-.476 1c-.005.264.164.38.412.3a1.652 1.652 0 0 0 .924-1.288z"/><path data-name="Trazado 5" d="M228.245 27.757c.21-.08.409-.151.6-.228a18.193 18.193 0 0 0 2.306-1.29c1.229-.762 2.433-1.563 3.731-2.208a7.489 7.489 0 0 1 2.222-.792 4.056 4.056 0 0 1 2.184.2 2.651 2.651 0 0 1 1.662 2.184 5.023 5.023 0 0 1-1.033 3.8 6.555 6.555 0 0 1-4.2 2.571c-.378.069-.757.11-1.149.157-.006-.088-.01-.137-.01-.186v-2.5c0-.113.038-.157.153-.2a8.187 8.187 0 0 0 2.559-1.212 1.435 1.435 0 0 0 .6-.687 1.038 1.038 0 0 0-.6-1.334 1.071 1.071 0 0 0-.82.067c-.4.2-.8.419-1.184.652-1.83 1.119-3.653 2.25-5.478 3.377a5.075 5.075 0 0 1-3.029.765 2.055 2.055 0 0 1-.991-.31.2.2 0 0 0-.154-.008 6.969 6.969 0 0 1-2.779 1.14 7.712 7.712 0 0 1-1.756.155 4.337 4.337 0 0 1-2.572-.784 8.2 8.2 0 0 1-.737-.736c-.112.071-.255.17-.4.275-.781.537-1.55 1.073-2.327 1.61a.183.183 0 0 0-.1.2 6.266 6.266 0 0 1-.34 3.037 2.8 2.8 0 0 1-2.31 1.878 3.23 3.23 0 0 1-2.8-.758 2.564 2.564 0 0 1-.8-1.676 3.984 3.984 0 0 1 1.5-3.446 5.55 5.55 0 0 1 1.7-1.019.161.161 0 0 0 .124-.19c-.006-.24 0-.471 0-.739-.182.114-.335.222-.507.316a5.493 5.493 0 0 1-2.18.751 2.859 2.859 0 0 1-2.062-.447 2.584 2.584 0 0 1-.949-1.528 3.819 3.819 0 0 1 .646-3.133 6.9 6.9 0 0 1 2.718-2.37 10.628 10.628 0 0 1 3.766-1.08c.271-.028.544-.05.827-.077v2.786c-.369.045-.737.077-1.1.134a6.808 6.808 0 0 0-3 1.084 2.01 2.01 0 0 0-.923 1.287 1.74 1.74 0 0 0 0 .479c.026.2.1.246.3.227a1.863 1.863 0 0 0 .916-.381 4.628 4.628 0 0 0 1.767-2.192c.029-.073.058-.124.156-.123h2.451a.5.5 0 0 1 .071.006v3.653c.559-.2 1.09-.386 1.62-.572a26.58 26.58 0 0 1-.3-.977 9.139 9.139 0 0 1-.334-3.113 6.635 6.635 0 0 1 .939-3.146 3.545 3.545 0 0 1 1.4-1.363 2.38 2.38 0 0 1 2.006-.025 2.844 2.844 0 0 1 1.9 2.412 6.53 6.53 0 0 1-.33 2.993 10.956 10.956 0 0 1-1.634 3.2c-.057.072-.038.116.013.184a1.769 1.769 0 0 0 1.069.592 2.322 2.322 0 0 0 1.235-.156c.094-.034.116-.071.084-.178a6.533 6.533 0 0 1-.375-2.1 3.605 3.605 0 0 1 1.019-2.683 3.441 3.441 0 0 1 4.248-.367 2.608 2.608 0 0 1 1.132 2.043 4.382 4.382 0 0 1-.327 1.916c-.016.04-.025.078-.04.111a.29.29 0 0 0 .006.072zm-8.81-4.169a.777.777 0 0 0 0-.121 5.937 5.937 0 0 0-.124-.694c-.074-.226-.245-.243-.4-.055a1.215 1.215 0 0 0-.166.27 4.365 4.365 0 0 0-.335 2.1 1.464 1.464 0 0 0 .145.49c.066.151.2.161.325.042a1.072 1.072 0 0 0 .186-.257 4.146 4.146 0 0 0 .37-1.775zm6.8 2.96a1.4 1.4 0 0 0-.205-.8.517.517 0 0 0-.914 0 1.376 1.376 0 0 0-.008 1.425.526.526 0 0 0 .952-.022 1.2 1.2 0 0 0 .173-.603zm-14.988 7.391a.647.647 0 0 0 .4.642.511.511 0 0 0 .56-.162.772.772 0 0 0 .1-.856.515.515 0 0 0-.861-.131.661.661 0 0 0-.201.508z"/><path data-name="Trazado 6" d="M235.3 20.492c-1.811 1.161-3.6 2.314-5.418 3.475-.568-.7-1.138-1.4-1.715-2.113q2.859-1.854 5.719-3.7c.475.778.938 1.549 1.414 2.338z"/></g><path data-name="A" d="M118.345 27.361h-2.824l-.536 1.264h-.984l2.472-5.6h.968l2.444 5.6h-1zm-.36-.836l-1.056-2.492-1.056 2.492z" fill="#484848"/><path data-name="T" d="M106.488 23.025v.848h-1.776v4.752h-.944v-4.752H102v-.848z" fill="#484848"/><path data-name="N" d="M89.928 23.025l3 4.024v-4.024h.932v5.6h-.928l-2.988-4.016v4.016H89v-5.6z" fill="#484848"/><path data-name="E" d="M81 23.025v.848h-3.056v1.52h2.732v.84h-2.732v1.544h3.152v.848h-4.1v-5.6z" fill="#484848"/><path data-name="U" d="M64.945 26.305a1.494 1.494 0 0 0 .4 1.112 1.5 1.5 0 0 0 1.1.4 1.465 1.465 0 0 0 1.084-.4 1.509 1.509 0 0 0 .4-1.112v-3.28h.94v3.28a2.732 2.732 0 0 1-.168.988 2.043 2.043 0 0 1-.48.74 2.108 2.108 0 0 1-.764.468 2.976 2.976 0 0 1-1.016.164 2.976 2.976 0 0 1-1.02-.164 2.148 2.148 0 0 1-.768-.468 2.017 2.017 0 0 1-.484-.74 2.732 2.732 0 0 1-.168-.988v-3.28h.944z" fill="#484848"/><path data-name="C" d="M55.52 24.553a2.171 2.171 0 0 0-.716-.528 2.013 2.013 0 0 0-.84-.184 2.024 2.024 0 0 0-.788.152 1.974 1.974 0 0 0-.632.416 1.959 1.959 0 0 0-.424.624 1.93 1.93 0 0 0-.156.776 1.93 1.93 0 0 0 .156.776 2.007 2.007 0 0 0 .424.628 1.941 1.941 0 0 0 .632.42 2.024 2.024 0 0 0 .788.152 2.043 2.043 0 0 0 .832-.18 2.533 2.533 0 0 0 .728-.484l.56.624a3.3 3.3 0 0 1-1 .672 2.891 2.891 0 0 1-1.172.248 2.974 2.974 0 0 1-1.148-.22 2.875 2.875 0 0 1-.924-.6 2.8 2.8 0 0 1-.616-.9 2.8 2.8 0 0 1-.224-1.12 2.7 2.7 0 0 1 .228-1.112 2.8 2.8 0 0 1 .624-.892 2.891 2.891 0 0 1 .932-.6 3.074 3.074 0 0 1 1.16-.216 3.048 3.048 0 0 1 1.16.228 2.9 2.9 0 0 1 .968.636z" fill="#484848"/><path data-name="M" d="M17.12 23.025l1.848 3.72 1.84-3.72h1.112v5.6h-.872l-.008-4.184-1.764 3.6h-.616l-1.768-3.6v4.184h-.888v-5.6z" fill="#484848"/><path data-name="I" d="M30.712 23.025v5.6h-.944v-5.6z" fill="#484848"/></g></svg>