<svg xmlns="http://www.w3.org/2000/svg" width="24" height="24" viewBox="0 0 24 24"><defs><style>.a{fill:#fff;opacity:0;}</style></defs><path class="a" d="M.5.5h24v24H.5Z" transform="translate(-0.5 -0.5)"/><g transform="translate(2.424 8.052)"><path d="M1345.1,770.005h-10v-1h10v1Z" transform="translate(-1332.529 -760.057)"/><path d="M1327.175,685.678a.535.535,0,0,1,.293.272c1.556-.643,3.173-1.294,4.673-1.867q-1.431-.215-2.556-.39a41.41,41.41,0,0,0-4.817-.611,2.112,2.112,0,0,0-.822.125c-.507.216-.844.389-.859.4l-.489.251.512.2C1323.143,684.072,1326.441,685.379,1327.175,685.678Zm13.166-2.181c-.127-.509-.74-.592-2.22-.794a1.02,1.02,0,0,0-.141-.009c-1.538,0-8.449,2.82-11.985,4.3l-.463-.183a9.122,9.122,0,0,0-2.813-.865,1.54,1.54,0,0,0-.522.086l-.014.005-.821.408,3,2.125s1.355-.032,1.62-.04a18.605,18.605,0,0,0,5.9-1.051c1.4-.484,2.11-.738,4.627-1.656C1339.927,684.579,1340.482,684.063,1340.341,683.5Z" transform="translate(-1270.109 -773.205) rotate(4)"/></g></svg>