<svg xmlns="http://www.w3.org/2000/svg" width="16" height="16" viewBox="0 0 16 16"><defs><style>.a{fill:#fff;opacity:0;}</style></defs><g transform="translate(16 16) rotate(180)"><g transform="translate(19 18) rotate(180)"><path class="a" d="M.5.5h16v16H.5Z" transform="translate(2.5 1.5)"/><g transform="translate(5 6)"><path d="M1346.1,770.005h-11v-1h11v1Z" transform="translate(-1334.105 -763.005)"/><path d="M3.672,1.884a.338.338,0,0,1,.185.172c.983-.406,2-.817,2.952-1.179Q5.9.741,5.194.631A26.157,26.157,0,0,0,2.152.245a1.333,1.333,0,0,0-.519.079c-.32.136-.533.246-.542.25L.782.733,1.1.861C1.126.87,3.209,1.7,3.672,1.884ZM11.988.507c-.08-.321-.467-.374-1.4-.5A.641.641,0,0,0,10.5,0C9.525,0,5.16,1.781,2.927,2.719L2.635,2.6A5.76,5.76,0,0,0,.858,2.057a.971.971,0,0,0-.33.054l-.009,0L0,2.372,1.895,3.714l1.023-.025a11.751,11.751,0,0,0,3.723-.664c.883-.306,1.333-.466,2.922-1.046C11.726,1.19,12.077.864,11.988.507Z" transform="matrix(0.94, 0.342, -0.342, 0.94, 1.27, 0)"/></g></g></g></svg>