<svg xmlns="http://www.w3.org/2000/svg" viewBox="0 0 24 24" width="24" height="24"><path d="M8.507 12.3h7.058a.512.512 0 0 0 .513-.513V7.316a.512.512 0 0 0-.513-.513H8.507a.512.512 0 0 0-.513.513v4.491a.521.521 0 0 0 .513.493zm6.838-4.436v3.373a.329.329 0 0 1-.33.33H9.057a.329.329 0 0 1-.33-.33V7.866a.329.329 0 0 1 .33-.33h5.94a.333.333 0 0 1 .348.33zm4.528 13.566l-2.035-3.575a1.106 1.106 0 0 0 .11-.348c0-.037.018-.055.018-.092 0-2.09-.018-10.376 0-11.7a.876.876 0 0 0-.7-.752h-4.95v-2.23h2.2a.367.367 0 0 0 0-.733H9.385a.367.367 0 0 0 0 .733h2.2V4.97h-4c-.733 0-1.613.055-1.613 1.027v10.082a4.645 4.645 0 0 0 .11 1.8L4.053 21.45a.37.37 0 0 0 .642.367c.293-.532.6-1.063.9-1.595h12.756c.293.532.6 1.063.9 1.595.219.383.86.018.622-.385zM7.316 5.7h9.4a.532.532 0 0 1 .532.532v10.874a.532.532 0 0 1-.532.532h-9.4a.532.532 0 0 1-.532-.532V6.235a.532.532 0 0 1 .532-.535zm-1.32 13.77c.22-.385.44-.752.642-1.137a4.6 4.6 0 0 0 1.595.11h7.809a4.518 4.518 0 0 0 1.228-.092c.22.385.422.752.642 1.137-3.979-.018-7.938-.018-11.916-.018zm4.821-4.2a1.412 1.412 0 1 1-1.412-1.412 1.412 1.412 0 0 1 1.412 1.414zm-1.412-.642a.642.642 0 1 0 .642.642.638.638 0 0 0-.642-.639zm6.673.642a1.412 1.412 0 1 1-1.412-1.412 1.412 1.412 0 0 1 1.412 1.414zm-1.412-.642a.642.642 0 1 0 .642.642.65.65 0 0 0-.641-.639z"/></svg>