<svg xmlns="http://www.w3.org/2000/svg" viewBox="0 0 24 24" width="24" height="24"><path d="M20.898 10.986c-.776-.647-1.569-1.294-2.345-1.941-.016-.016-.032-.016-.032-.032-.582-.485-1.181-.97-1.763-1.455-.938-.776-1.876-1.552-2.83-2.329a11.31 11.31 0 0 0-1.278-1.051c-.744-.437-1.261.016-1.827.469L8.397 6.636c-.97.809-1.924 1.6-2.895 2.393-.016.016-.032.016-.032.032L3.303 10.84a1.713 1.713 0 0 0-.194.162c-.323.259.146.728.453.453.6-.5 1.2-.986 1.811-1.488v8.183c0 .647.049 1.472.922 1.472h11.336c.776 0 .986-.615.986-1.261V9.967c.6.5 1.2.986 1.811 1.488.324.258.777-.194.47-.469zm-2.911 3.962v3.2c0 .615-.113.825-.744.825H7.184c-.453 0-1.148.162-1.148-.485v-9.04c1.908-1.6 3.816-3.17 5.741-4.738.42-.34 1.439.809 1.682 1 .938.776 1.876 1.552 2.83 2.329.566.469 1.132.938 1.714 1.407-.016 1.815-.016 3.658-.016 5.502zm-4.593-4.463v2.49h-2.83v-2.49a.324.324 0 0 0-.647 0v5.611a.324.324 0 0 0 .647 0v-2.49h2.83v2.49a.324.324 0 0 0 .647 0v-5.612a.324.324 0 0 0-.647 0z"/></svg>