<svg xmlns="http://www.w3.org/2000/svg" viewBox="0 0 24 24" width="24" height="24"><path d="M8.471 17.078a1.064 1.064 0 0 0-1.053-.916 1.076 1.076 0 1 0 0 2.152 1.047 1.047 0 0 0 1.053-.961c0-.046.023-.069.023-.114 0-.069 0-.139-.023-.161zm-1.4.137c-.023-.458.664-.435.687 0a.344.344 0 0 1-.683.001zm11.217-.137a1.064 1.064 0 0 0-1.053-.916 1.076 1.076 0 0 0 0 2.152 1.047 1.047 0 0 0 1.053-.961c0-.046.023-.069.023-.114a.516.516 0 0 1-.019-.161zm-1.4.137c-.023-.458.664-.435.687 0a.344.344 0 0 1-.675.001zm-2.282-1.075h-4.555a.3665.3665 0 0 0 0 .733h4.555a.367.367 0 0 0 0-.733zm0 .984h-4.555a.3665.3665 0 0 0 0 .733h4.555a.367.367 0 0 0 0-.733zM20.7 8.586a.762.762 0 0 1-.755-.755V6.273a.762.762 0 0 1 .755-.755.762.762 0 0 1 .755.755V7.83a.778.778 0 0 1-.755.756zM3.76 8.54a.762.762 0 0 1-.755-.755V6.228a.762.762 0 0 1 .755-.755.762.762 0 0 1 .755.755v1.557a.778.778 0 0 1-.76.755zm3.251-5.517c-.916 0-2.014.069-2.014 1.282l-.229 14.719a.86.86 0 0 0 .847.847h.16v1.236a.894.894 0 0 0 .893.893h.481a.894.894 0 0 0 .893-.893v-1.236l8.47.046v1.19a.894.894 0 0 0 .893.893h.481a.894.894 0 0 0 .893-.893v-1.19h.069a.845.845 0 0 0 .847-.847c0-3.113-.252-13.712-.229-15.131a1.094 1.094 0 0 0-.87-.939m-11.927.939h11.279a.664.664 0 0 1 .664.664l.229 13.575a.664.664 0 0 1-.664.664H6.434a.664.664 0 0 1-.664-.664L6 4.6a.664.664 0 0 1 .663-.661zm12.515 10.324H5.7a.3665.3665 0 0 0 0 .733h13.484a.3665.3665 0 0 0 0-.733zm-1.3-9.935H6.686c-.481 0-.481.961 0 .961H17.88c.48 0 .48-.961 0-.961z"/></svg>