<svg xmlns="http://www.w3.org/2000/svg" viewBox="0 0 24 24" width="24" height="24"><path d="M20.975 15.422a.248.248 0 0 0 .018-.158.223.223 0 0 0-.018-.105c-.088-1.036-.158-2.073-.246-3.109-.053-.58-.105-1.229-.58-1.528-.123-.334-.263-.667-.386-1h.773a.351.351 0 0 0 0-.7h-1.054c-.088-.246-.193-.492-.281-.738-.211-.562-.439-1.142-.65-1.7a2.58 2.58 0 0 0-.4-.861c-.562-.6-1.229-.509-1.985-.509H8.927c-.773 0-1.51-.105-2.108.509a2.466 2.466 0 0 0-.351.755c-.211.544-.422 1.089-.632 1.651-.123.3-.228.6-.351.9H4.449a.351.351 0 0 0 0 .7h.773c-.141.351-.263.7-.4 1.036a1.17 1.17 0 0 0-.4.422 3.009 3.009 0 0 0-.158 1.054c-.053.7-.105 1.405-.176 2.108-.053.738-.3 1.6.474 2.037a.592.592 0 0 0 .211.07v1.853a.352.352 0 0 0 .351.351h2.758a.381.381 0 0 0 .246-.088l.018-.018.003-.015a.347.347 0 0 0 .088-.246V16.23h8.5v1.862a.352.352 0 0 0 .351.351h2.761a.381.381 0 0 0 .246-.088l.018-.018.018-.018a.347.347 0 0 0 .088-.246V16.16a.874.874 0 0 0 .756-.738zM7.328 6.078c.228-.58 1.423-.369 1.879-.369h6.642c.439 0 1.651-.211 1.879.369.544 1.423 1.107 2.863 1.651 4.286H5.695c.527-1.425 1.089-2.846 1.633-4.286zm.246 11.7H5.519v-1.495h2.055zm11.961 0H17.48v-1.51h.509c.4 0 1 .07 1.528.053.018.471.018.963.018 1.455zm.4-2.213H5.049c-.562 0-.105-2.6-.07-2.916l.105-1.265c.035-.386.58-.3.79-.3h12.115c.439 0 1.967-.263 2.02.439.105 1.247.193 2.494.3 3.741-.019.175-.16.263-.37.299zm-12.049-2.74a1.033 1.033 0 1 0-1.019 1.177 1.015 1.015 0 0 0 1.019-.931c0-.035.018-.07.018-.105a.342.342 0 0 0-.014-.143zm-1.352.141c-.018-.439.65-.422.667 0a.334.334 0 0 1-.663-.003zm12.663-.141a1.033 1.033 0 1 0-1.019 1.177 1.015 1.015 0 0 0 1.019-.931c0-.035.018-.07.018-.105a.342.342 0 0 0-.014-.143zm-1.352.141c-.018-.439.65-.422.667 0a.334.334 0 0 1-.663-.003zm-3.109-.6h-4.422a.351.351 0 0 0 0 .7h4.426a.351.351 0 0 0 0-.7zm0 1.177h-4.422a.351.351 0 0 0 0 .7h4.426a.352.352 0 0 0 0-.704z"/></svg>