<svg xmlns="http://www.w3.org/2000/svg" viewBox="0 0 24 24" width="24" height="24"><path d="M9.75 11.91a.3265.3265 0 0 0 0 .653h4.5a.3265.3265 0 0 0 0-.653zm13.934 1.14h-7.065a5.507 5.507 0 0 0-2.431-4.552h3.019a.3265.3265 0 0 0 0-.653h-4.88V5.318a.3265.3265 0 0 0-.653 0V7.85H6.796a.3265.3265 0 0 0 0 .653h2.937a5.772 5.772 0 0 0-2.35 4.552H.318a.3265.3265 0 0 0 0 .653h3.019a1.765 1.765 0 0 0-.294.848 1.50056023 1.50056023 0 0 0 3 .082c0-.033.016-.065.016-.1a.207.207 0 0 0-.016-.1 1.734 1.734 0 0 0-.277-.767h1.615a4.981 4.981 0 0 0 4.6 4.65c2.578.065 4.275-2.3 4.585-4.65h1.648a1.81 1.81 0 0 0-.277.767c0 .033-.016.065-.016.1a.207.207 0 0 0 .016.1 1.552 1.552 0 0 0 1.5 1.42 1.508 1.508 0 0 0 1.5-1.5 1.256 1.256 0 0 0-.261-.848h2.986a.33018328.33018328 0 0 0 .022-.66zM3.696 14.57c-.065-1.11 1.648-1.093 1.713 0a.857.857 0 0 1-1.713 0zm14.9 0a.857.857 0 0 1 1.713 0c.046 1.093-1.667 1.093-1.716 0zm-6.592 3.133c-2.448.065-3.932-2.431-3.965-4.6a4.364 4.364 0 0 1 3.965-4.6c2.448-.065 3.932 2.431 3.965 4.6-.036 2.266-1.519 4.534-3.968 4.6z"/></svg>