<svg xmlns="http://www.w3.org/2000/svg" xmlns:xlink="http://www.w3.org/1999/xlink" width="208" height="90" viewBox="0 0 208 90"><defs><style>.a{fill:none;}.b{fill:#fff;opacity:0.001;}.c{clip-path:url(#a);}.d{fill:#008c2e;}</style><clipPath id="a"><rect class="a" width="149" height="22.252"/></clipPath></defs><g transform="translate(-1080 -698)"><rect class="b" width="208" height="90" transform="translate(1080 698)"/><g class="c" transform="translate(1110 732)"><path class="d" d="M112.142,35.666c7.184-3.154.526-9.637-2.8-2.8h-.7l.35-5.256h-2.1l-.35,4.906h-.7V34.79h.526V38.47h2.1v-2.8c0-.35.526-.526.876.35a3.977,3.977,0,0,0,6.308,1.927V35.491c-1.051.876-2.628,1.4-3.5.175m-.35-2.1c-.175-.175-.175-.526.175-.876a1.6,1.6,0,0,1,.876-.526c.175.175.175.526-.175.876a1.6,1.6,0,0,1-.876.526m-8.41-.35a3.152,3.152,0,0,0-2.628-1.226c-2.628-5.256-7.359,1.226-2.979,2.628,1.051.175.526,1.226-.526,1.226S96.2,34.44,96.2,33.564c-.175-1.752-3.329-.876-2.8,1.577-7.184,5.607-9.812-9.286-.35-7.008V25.679C79.728,23.752,82.882,44.952,94.8,37.418a3.643,3.643,0,0,0,5.782-2.453c.876,0,1.4.35,1.4,1.051v2.1h1.927V35.842c0-.7.526-1.051,1.227-1.226v-2.1c-.7-.175-1.752.35-1.752.7m-5.081-.35a.35.35,0,1,1,.35-.35c.175.175-.175.35-.35.35m28.209-.526a3.414,3.414,0,0,0-3.855-2.1l-.7-8.235h-2.278l.7,9.286c-3.5,3.5-3.679,12.79,0,12.966,4.03-.35,2.628-9.461,2.628-10.162-.526-1.927,1.577-1.051,1.752.175l.175,4.205h2.453v-3.5c0-1.577,1.752-1.577,1.927,0v2.8h2.453v-2.8c-.526-4.906-4.38-4.03-5.256-2.628M120.9,38.119a3.913,3.913,0,0,1-.526,2.453c-.175,0-.35-1.051-.35-2.453a3.913,3.913,0,0,1,.526-2.453c.35-.175.526,1.051.35,2.453m39.422-7.008c-2.453-.175-6.483,3.5-8.585,4.03,2.278-5.607-7.359-5.957-4.906,1.051a1.725,1.725,0,0,1-2.278-.35c2.1-2.8,2.979-7.359-.526-7.884-2.1-.35-4.38,3.329-2.628,7.884-.526.175-1.4.35-1.4.35V32.863h-2.278c-.7,1.752-2.278,2.628-2.628,2.278-.35-1.226,1.226-2.628,4.38-2.8V29.884c-4.205.175-6.833,2.453-7.184,4.906-.175,3.5,3.154,3.329,5.081,1.927v.7c-3.855,1.4-3.855,5.957-.526,6.308,2.979.175,3.329-2.8,3.154-4.555l2.628-1.752c1.226,2.1,5.256,1.577,7.008.175.876.7,2.453.35,3.5-.175l5.607-3.5c1.752-1.051,2.1.526,1.577,1.226a5.828,5.828,0,0,1-2.8,1.4V39c6.308-.175,7.534-7.884,2.8-7.884m-23.3,10.162c-.35,0-.526-.35-.526-.7a.559.559,0,0,1,.526-.526c.35,0,.526.35.526.7a.465.465,0,0,1-.526.526m6.833-9.111c-.175.7-.35,1.4-.7,1.4-.175,0-.35-.7-.175-1.4s.35-1.4.7-1.4c.175-.175.35.526.175,1.4m5.607,2.8c-.35,0-.526-.35-.526-.876s.175-.876.526-.876.526.35.526.876-.35.876-.526.876m8.585-6.308-1.226-2.1-5.081,3.329,1.577,1.927ZM81.305,35.842c4.731-10.688-5.081-11.038-3.329-.35-1.577,1.051-3.5,1.226-4.205,0,5.782.35,2.979-7.008-1.051-4.03-.7-2.453,1.577-4.555,4.555-3.329V25.5c-3.855-1.577-10.162,1.577-6.483,8.585-.876,4.906,4.38,6.483,8.235,3.855a3.546,3.546,0,0,0,4.205.175v-2.1c-.7.7-2.453.526-1.927-.175M74.3,32.863a.526.526,0,1,1-.526.526.465.465,0,0,1,.526-.526m6.308-.35c-.175.876-.35,1.4-.7,1.4-.175,0-.35-.7-.175-1.577s.35-1.4.7-1.4c.175.175.175.7.175,1.577M18.055,38.47,14.2,30.235h2.278l2.1,4.731,2.1-4.731h2.1L19.106,38.47Zm7.534-8.41h2.1v8.235h-2.1Zm10.863,0H34L30.67,38.295h2.1l.7-1.577h3.679l.7,1.577h2.278Zm-2.278,5.256L35.4,32.162l1.4,3.154Zm10.162,4.731a2.82,2.82,0,0,1-2.628.7V39.171c1.051.175,1.4-.526,1.4-1.4V30.235h2.1v7.534a2.69,2.69,0,0,1-.876,2.278M55.024,38.47H48.892V30.235h5.957v1.577H50.994v1.752h3.679v1.577H50.994v1.927h4.03Zm7.184-2.278c0-1.4-4.205-.876-4.205-3.855,0-1.4,1.226-2.453,3.154-2.453a6.008,6.008,0,0,1,2.8.7v1.577a6.488,6.488,0,0,0-2.628-.7c-.7,0-1.226.35-1.226.7,0,1.226,4.205.876,4.205,3.855,0,1.577-1.4,2.453-3.154,2.453a5.011,5.011,0,0,1-2.979-.876V35.842a5.592,5.592,0,0,0,2.8,1.051c.876.175,1.226-.175,1.226-.7" transform="translate(-14.2 -22)"/></g></g></svg>