<?xml version="1.0" standalone="no"?>
<!DOCTYPE svg PUBLIC "-//W3C//DTD SVG 1.1//EN" "http://www.w3.org/Graphics/SVG/1.1/DTD/svg11.dtd" >
<svg xmlns="http://www.w3.org/2000/svg">
<metadata>Generated by IcoMoon</metadata>
<defs>
<font id="manager-font" horiz-adv-x="1024">
<font-face units-per-em="1024" ascent="960" descent="-64" />
<missing-glyph horiz-adv-x="1024" />
<glyph unicode="&#x20;" horiz-adv-x="512" d="" />
<glyph unicode="&#xe900;" glyph-name="artworks" d="M993.2 960h-962.8c-16.8 0-30.4-14-30.4-30.8v-962.4c0-16.8 13.6-30.4 30.4-30.4h962.8c16.8 0 30.4 13.6 30.4 30.4v962.4c0.4 16.8-13.2 30.8-30.4 30.8zM64 30.8v865.2h896v-29.2c0-0.4 0-0.8 0-1.2v-673.6h-448v-192h-448v30.8z" />
<glyph unicode="&#xe901;" glyph-name="arrow-down" d="M736 563.2l-185.6-160c-25.6-19.2-57.6-19.2-76.8 0l-185.6 160c-19.2 19.2-57.6 19.2-76.8 0v0c-25.6-25.6-25.6-64 0-83.2l211.2-185.6c44.8-44.8 128-44.8 172.8 0l217.6 185.6c25.6 19.2 25.6 57.6 0 83.2v0c-19.2 19.2-57.6 19.2-76.8 0z" />
<glyph unicode="&#xe902;" glyph-name="arrow-top" d="M288 332.8l185.6 160c25.6 19.2 57.6 19.2 76.8 0l185.6-160c19.2-19.2 57.6-19.2 76.8 0v0c25.6 25.6 25.6 64 0 83.2l-211.2 192c-44.8 44.8-128 44.8-172.8 0l-217.6-185.6c-25.6-19.2-25.6-57.6 0-83.2v0c19.2-25.6 57.6-25.6 76.8-6.4z" />
<glyph unicode="&#xe903;" glyph-name="arrow-left" d="M627.2 224l-166.4 185.6c-19.2 25.6-19.2 57.6 0 76.8l160 185.6c19.2 19.2 19.2 57.6 0 76.8v0c-25.6 25.6-64 25.6-83.2 0l-185.6-211.2c-44.8-44.8-44.8-128 0-172.8l185.6-217.6c19.2-25.6 57.6-25.6 83.2 0v0c25.6 19.2 25.6 57.6 6.4 76.8z" />
<glyph unicode="&#xe904;" glyph-name="arrow-right" d="M396.8 672l160-185.6c19.2-25.6 19.2-57.6 0-76.8l-160-185.6c-19.2-19.2-19.2-57.6 0-76.8v0c25.6-25.6 64-25.6 83.2 0l185.6 211.2c44.8 44.8 44.8 128 0 172.8l-185.6 217.6c-19.2 25.6-57.6 25.6-83.2 0v0c-19.2-19.2-19.2-57.6 0-76.8z" />
<glyph unicode="&#xe905;" glyph-name="layer" d="M982.4 350l-136 59.2 138.8 76.4c32.8 18 30.4 65.6-3.6 80.4l-451.2 196.8c-6 2.4-12 3.6-18 3.6s-12.4-1.2-18-3.6l-451.2-196.8c-34-14.8-36.4-62.4-3.6-80.4l139.6-76.8-135.2-58.8c-34-14.8-36.4-62.4-3.6-80.4l451.2-247.6c6.8-3.6 14-5.6 21.6-5.6s14.8 2 21.6 5.6l451.2 247.6c32.8 18 30.4 65.6-3.6 80.4zM512.4 700.8l407.6-178-407.6-223.6-407.6 223.6 407.6 178zM513.2 83.2l-408 223.6 144.8 63.2 240.8-132c6.8-3.6 14-5.6 21.6-5.6s14.8 2 21.6 5.6l241.2 132.4 145.6-63.6-407.6-223.6z" />
<glyph unicode="&#xe906;" glyph-name="calendar" d="M281.6 447.2h-50c-21.6 0-39.2-17.6-39.2-39.2v-50c0-21.6 17.6-39.2 39.2-39.2h50c21.6 0 39.2 17.6 39.2 39.2v50c0 22-17.6 39.2-39.2 39.2zM993.2 860h-161.2v60c0 17.6-14.4 32-32 32v0c-17.6 0-32-14.4-32-32v-60h-512.4v60c0 17.6-14.4 32-32 32s-32-14.4-32-32v-60h-161.2c-16.8 0-30.4-13.6-30.4-30.4v-862.4c0-16.8 13.6-30.4 30.4-30.4h962.8c16.8 0 30.4 13.6 30.4 30.4v862.4c0.4 16.8-13.2 30.4-30.4 30.4zM960 0h-896v575.6h896v-575.6zM537.6 448h-50c-21.6 0-39.2-17.6-39.2-39.2v-50c0-21.6 17.6-39.2 39.2-39.2h50c21.6 0 39.2 17.6 39.2 39.2v50c-0.4 21.6-17.6 39.2-39.2 39.2zM793.2 448h-50c-21.6 0-39.2-17.6-39.2-39.2v-50c0-21.6 17.6-39.2 39.2-39.2h50c21.6 0 39.2 17.6 39.2 39.2v50c0 22-17.6 39.2-39.2 39.2z" />
<glyph unicode="&#xe907;" glyph-name="canvas" d="M960 832v-768h-896v768h896zM979.6 896h-935.2c-24.4 0-44.4-19.6-44.4-44v-807.6c0-24.4 20-44.4 44.4-44.4h935.6c24.4 0 44.4 20 44.4 44.4v807.6c-0.4 24.4-20.4 44-44.8 44v0z" />
<glyph unicode="&#xe908;" glyph-name="copywriting" d="M360 128h-200c-17.6 0-32 14.4-32 32v0c0 17.6 14.4 32 32 32h200v-64zM372.8 129.6c-14.4-4.4-30-0.4-40.8 10.4v0c-10.8 10.8-14.8 26.4-10.4 41.2l34.8 117.2c1.2 3.2 3.2 6.8 6 9.6l457.6 452.4c10 10 24.4 10 34 0l98.4-94.8c10-10 10-24.4 0-34.4l-453.6-460.4c-2.8-2.8-6.4-4.8-9.6-6l-116.4-35.2zM481.2 244l318.8 318.4-45.6 45.6-318.4-318.8 45.2-45.2zM837.2 690.8l-45.6-45.6 45.6-45.6 45.6 45.6-45.6 45.6zM367.6 175.6l67.2 23.6-44 43.6-23.2-67.2zM320 320h-160c-17.6 0-32-14.4-32-32v0c0-17.6 14.4-32 32-32h140l20 64zM576 576h-416c-17.6 0-32-14.4-32-32v0c0-17.6 14.4-32 32-32h352l64 64zM704 320v-320h-640v896h640v-192l64 64v128c0 37.6-26.4 64-64 64h-640c-42.4 0-64-21.6-64-64v-896c0-42.4 21.6-64 64-64h640c42.4 0 64 21.6 64 64v384l-64-64zM640 672v0c0 17.6-14.4 32-32 32h-448c-17.6 0-32-14.4-32-32v0c0-17.6 14.4-32 32-32h448c17.6 0 32 14.4 32 32zM448 448h-288c-17.6 0-32-14.4-32-32v0c0-17.6 14.4-32 32-32h224l64 64z" />
<glyph unicode="&#xe909;" glyph-name="calendar-stroked" d="M281.6 447.2h-50c-21.6 0-39.2-17.6-39.2-39.2v-50c0-21.6 17.6-39.2 39.2-39.2h50c21.6 0 39.2 17.6 39.2 39.2v50c0 22-17.6 39.2-39.2 39.2zM793.2 448h-50c-21.6 0-39.2-17.6-39.2-39.2v-50c0-21.6 17.6-39.2 39.2-39.2h50c21.6 0 39.2 17.6 39.2 39.2v50c0 22-17.6 39.2-39.2 39.2zM1023.6 750.8v66l-1023.6-830.8v-18.8c0-16.8 13.6-30.4 30.4-30.4h962.8c16.8 0 30.4 13.6 30.4 30.4v783.6zM960 0h-852.8l712.4 575.6h140.4v-575.6zM64 126v449.6h553.6l350.4 284.4h-136v60c0 17.6-14.4 32-32 32v0c-17.6 0-32-14.4-32-32v-60h-512.4v60c0 17.6-14.4 32-32 32s-32-14.4-32-32v-60h-161.2c-16.8 0-30.4-13.6-30.4-30.4v-755.6l64 52z" />
<glyph unicode="&#xe90a;" glyph-name="watch" d="M513.2 695.6c174.4 0 316-142 316-316s-142-316-316-316-316 142-316 316 142 316 316 316zM513.2 759.6c-210 0-380-170.4-380-380 0-210 170.4-380 380-380 210 0 380 170.4 380 380 0.4 209.6-170 380-380 380v0zM741.6 409.6h-229.6c-17.6 0-32-14.4-32-32v0c0-17.6 14.4-32 32-32h230c17.6 0 32 14.4 32 32v0c-0.4 17.6-14.8 32-32.4 32zM480 547.6v-170c0-17.6 14.4-32 32-32v0c17.6 0 32 14.4 32 32v170.4c0 17.6-14.4 32-32 32v0c-17.6-0.4-32-14.8-32-32.4zM941.6 747.2l2.4 2c7.6 6.4 4.4 22.8-7.2 36s-27.2 18.8-34.8 12.4l-1.6-1.6c-60.8 48-149.6 43.6-205.6-12.4l219.6-219.6c49.6 49.6 58.8 124.4 27.2 183.2zM149.6 810l-2 1.6c-7.6 6.4-23.2 0.8-34.8-12.4-9.2-10.8-13.2-23.2-10.4-31.2-46-60.8-41.2-148 14.4-203.2l219.6 219.6c-50.8 50.8-127.6 59.2-186.8 25.6z" />
<glyph unicode="&#xe90b;" glyph-name="watch-stroked" d="M149.6 810l-2 1.6c-7.6 6.4-23.2 0.8-34.8-12.4-9.2-10.8-13.2-23.2-10.4-31.2-46-60.8-41.2-148 14.4-203.2l219.6 219.6c-50.8 50.8-127.6 59.2-186.8 25.6zM902.4 794c-2 2.4-2 2.4-2 2.4-60.8 48-149.6 43.6-205.6-12.4l87.6-88 120 98zM227.6 244c-19.6 41.2-30.4 86.8-30.4 135.2 0 174.4 142 316 316 316 71.2 0 137.2-23.6 190-63.6l50.8 41.6c-65.6 54-149.6 86.4-241.2 86.4-210 0-380-170.4-380-380 0-63.6 15.6-124 43.6-176.8l51.2 41.2zM1000.4 756.4c-5.6 6.8-13.6 10.4-21.6 10.4-4 0-8-0.8-11.6-2.8l-894.8-728.8c-7.2-10-7.2-23.6 0.8-33.6v0c5.6-6.8 13.6-10.4 21.6-10.4 6 0 12.4 2 17.6 6.4l134.8 110c68.4-67.2 162.4-108.4 265.6-108.4 210 0 380 170.4 380 380 0 75.6-22 146-60 205.2l33.2 27.2 48.4-47.6c33.6 33.6 48.8 79.2 44.8 123.2l37.2 30.4c12 9.6 13.6 26.8 4 38.8v0zM513.2 63.2c-83.2 0-159.2 32.4-215.6 85.2l242 197.2h202c17.6 0 32 14.4 32 32-0.4 17.6-14.8 32-32.4 32h-123.2l164.8 134.4c29.2-48 46.4-104.4 46.4-164.4 0.4-174.4-141.6-316.4-316-316.4zM544 548c0 17.6-14.4 32-32 32-17.6-0.4-32-14.8-32-32.4v-98l64 52v46.4z" />
<glyph unicode="&#xe90c;" glyph-name="plus" d="M447.6 706.8v-510c0-35.2 28.8-64 64-64v0c35.2 0 64 28.8 64 64v510c0 35.2-28.8 64-64 64v0c-35.6 0-64-28.4-64-64zM767.2 510.8h-511.2c-35.2 0-64-28.8-64-64v0c0-35.2 28.8-64 64-64h511.2c35.2 0 64 28.8 64 64v0c0 35.2-28.4 64-64 64z" />
<glyph unicode="&#xe90d;" glyph-name="plus-circle" d="M767.2 510.8h-191.6v196c0 35.2-28.8 64-64 64-35.6 0-64-28.4-64-64v-196h-191.6c-35.2 0-64-28.8-64-64s28.8-64 64-64h191.6v-186c0-35.2 28.8-64 64-64s64 28.8 64 64v186h191.6c35.2 0 64 28.8 64 64s-28.4 64-64 64zM512.4-62.8c-282.4 0-512 229.6-512 512s229.6 512 512 512 512-229.6 512-512-229.6-512-512-512zM512.4 902c-249.6 0-452.8-203.2-452.8-452.8s203.2-452.8 452.8-452.8 452.8 203.2 452.8 452.8-203.2 452.8-452.8 452.8z" />
<glyph unicode="&#xe90e;" glyph-name="list" d="M892.8 771.6h-572.8c-35.2 0-64-28.8-64-64v0c0-35.2 28.8-64 64-64h572.8c35.2 0 64 28.8 64 64v0c0 35.2-28.8 64-64 64zM133.2 771.6h-5.2c-35.2 0-64-28.8-64-64v0c0-35.2 28.8-64 64-64h5.2c35.2 0 58.8 28.8 58.8 64v0c0 35.2-23.2 64-58.8 64zM133.2 515.2h-5.2c-35.2 0-64-28.8-64-64v0c0-35.2 28.8-64 64-64h5.2c35.2 0 58.8 28.8 58.8 64v0c0 35.2-23.2 64-58.8 64zM133.2 259.2h-5.2c-35.2 0-64-28.8-64-64v0c0-35.2 28.8-64 64-64h5.2c35.2 0 58.8 28.8 58.8 64v0c0 35.2-23.2 64-58.8 64zM892.8 515.2h-572.8c-35.2 0-64-28.8-64-64v0c0-35.2 28.8-64 64-64h572.8c35.2 0 64 28.8 64 64v0c0 35.2-28.8 64-64 64zM892.8 259.6h-572.8c-35.2 0-64-28.8-64-64v0c0-35.2 28.8-64 64-64h572.8c35.2 0 64 28.8 64 64v0c0 35.2-28.8 64-64 64z" />
<glyph unicode="&#xe90f;" glyph-name="zoom-out" d="M767.6-19.2v166.4c0 24.8 20 44.8 44.8 44.8h166c24.8 0 44.8 20 44.8 44.8v37.6c0 24.8-20 44.8-44.8 44.8l-294 0.4c-24.8 0-44.8-20-44.8-44.8v-294.4c0-24.8 20-44.8 44.8-44.8h37.6c25.6 0.4 45.6 20.4 45.6 45.2zM256-19.2v166.4c0 24.8-20 44.8-44.8 44.8h-166.4c-24.8 0-44.8 20-44.8 44.8v37.6c0 24.8 20 44.8 44.8 44.8l211.2 0.8h82.8c24.8 0 44.8-20 44.8-44.8v-294.4c0-24.8-20-44.8-44.8-44.8h-37.6c-25.2 0-45.2 20-45.2 44.8zM767.6 916.4v-166.4c0-24.8 20-44.8 44.8-44.8h166c24.8 0 44.8-20 44.8-44.8v-37.6c0-24.8-20-44.8-44.8-44.8h-294c-24.8 0-44.8 20-44.8 44.8v293.6c0 24.8 20 44.8 44.8 44.8h37.6c25.6 0.4 45.6-20 45.6-44.8zM256 916.4v-166.4c0-24.8-20-44.8-44.8-44.8h-166.4c-24.8 0-44.8-20.4-44.8-45.2v-37.6c0-24.8 20-44.8 44.8-44.8l294-0.4c24.8 0 44.8 20 44.8 44.8v294.4c0 24.8-20 44.8-44.8 44.8h-37.6c-25.2 0.4-45.2-20-45.2-44.8z" />
<glyph unicode="&#xe910;" glyph-name="zoom-in" d="M896 275.2v-166.4c0-24.8-20-44.8-44.8-44.8h-166c-24.8 0-44.8-20-44.8-44.8v-37.6c0-24.8 20-44.8 44.8-44.8l210.8-0.8h82.8c24.8 0 44.8 20 44.8 44.8v294.4c0 24.8-20 44.8-44.8 44.8h-37.6c-25.2 0.4-45.2-20-45.2-44.8zM127.6 275.2v-166.4c0-24.8 20-44.8 44.8-44.8h166c24.8 0 44.8-20 44.8-44.8v-37.6c0-24.8-20-44.8-44.8-44.8l-210.8-0.8h-82.8c-24.8 0-44.8 20-44.8 44.8v294.4c0 24.8 20 44.8 44.8 44.8h37.6c25.2 0.4 45.2-20 45.2-44.8zM896 618.8v166.8c0 24.8-20 44.8-44.8 44.8h-166c-24.8 0-44.8 20-44.8 44.8v37.6c0 24.8 20 44.8 44.8 44.8h293.6c24.8 0 44.8-20 44.8-44.8v-294.4c0-24.8-20-44.8-44.8-44.8h-37.6c-25.2 0.4-45.2 20.4-45.2 45.2zM127.6 618.8v166.8c0 24.8 20 44.8 44.8 44.8h166c24.8 0 44.8 20 44.8 44.8v37.6c0 24.8-20 44.8-44.8 44.8l-210.8 0.8h-82.8c-24.8 0-44.8-20.4-44.8-45.2v-294.4c0-24.8 20-44.8 44.8-44.8h37.6c25.2 0 45.2 20 45.2 44.8z" />
<glyph unicode="&#xe911;" glyph-name="copy" d="M956.8 733.6c0 35.2-28.8 64-64 64h-157.2v65.2c0 35.2-28.8 64-64 64h-367.6c-18 0-35.2-7.6-47.2-20.8l-175.6-192.4c-10.8-12-16.8-27.2-16.8-43.2v-543.6c0-16.8 6.8-33.2 18.8-45.2s28.4-18.8 45.2-18.8h157.2v-65.2c0-16.8 6.8-33.2 18.8-45.2s28.4-18.8 45.2-18.8h544c16.8 0 33.2 6.8 45.2 18.8s18.8 28.4 18.8 45.2l-0.8 736zM288 813.2v-91.6c0-4.8-2-9.6-5.6-13.2s-8-5.6-13.2-5.6h-94.4l113.2 110.4zM128 127.2v512h141.2c22 0 42.8 8.4 58.4 24s24 36.4 24 58.4v141.2h319.6v-64.8h-146c-18 0-35.2-7.6-47.2-20.8l-175.6-192.4c-10.8-12-16.8-27.2-16.8-43.2v-414.4h-157.6zM509.2 683.6v-91.6c0-4.8-2-9.6-5.6-13.2s-8-5.6-13.2-5.6h-94.4l113.2 110.4zM349.2-2.4v512h141.2c22 0 42.8 8.4 58.4 24s24 36.4 24 58.4v141.2h319.6v-131.2l0.4-604.8-543.6 0.4z" />
<glyph unicode="&#xe912;" glyph-name="delete" d="M826.4 640l-53.2-640h-522.4l-53.2 640h628.8zM836.8 704h-649.2c-32 0-56.8-30-54-64.4l54-649.6c2.4-30.4 26-54 54-54h540.8c28 0 51.6 23.2 54 54l54 649.6c3.2 34.4-21.6 64.4-53.6 64.4v0zM480 514v-448.4c0-17.6 14.4-32 32-32v0c17.6 0 32 14.4 32 32v448.8c0 17.6-14.4 32-32 32v0c-17.6-0.4-32-14.8-32-32.4zM640 514v-448.4c0-17.6 14.4-32 32-32v0c17.6 0 32 14.4 32 32v448.8c0 17.6-14.4 32-32 32v0c-17.6-0.4-32-14.8-32-32.4zM319.6 514v-448.4c0-17.6 14.4-32 32-32v0c17.6 0 32 14.4 32 32v448.8c0 17.6-14.4 32-32 32v0c-17.6-0.4-32-14.8-32-32.4zM609.6 866v-63.2c0-0.4 0-1.2 0-1.6v-2.4h-193.6v1.6c0 0.4 0 1.2 0 1.6v64h193.6zM610.8 930h-196c-34.8 0-62.8-28-62.8-62.8v-66.8c0-0.4 0-1.2 0-1.6h-190.8c-17.6 0-32-14.4-32-32 0.4-17.6 14.8-32 32.4-32h702.8c17.6 0 32 14.4 32 32s-14.4 32-32 32h-190.8c0 0.8 0 1.6 0 2.4v66c0 34.8-28.4 62.8-62.8 62.8v0z" />
<glyph unicode="&#xe913;" glyph-name="edit" d="M1019.2 668c-3.6 20.8-6 41.6-11.6 62-7.2 28.4-18 54-32 77.2-0.8 2.8-2.4 5.2-3.6 8-30 50.4-70 77.6-97.2 91.6-4 2-8 3.6-12.4 4-27.6 13.2-58 22-91.2 26.4-31.6 4-62.8 6.8-93.6-2.8-11.2-3.6-22.8-10-31.2-18-176-175.6-352-351.2-527.2-527.6-0.8-0.8-2.4-2.4-3.2-3.6-1.2-1.6-2.4-2.8-3.6-4.8-9.6-11.6-16.4-25.6-18.8-38.4l-84.8-332c-7.2-37.6 22-71.6 59.2-71.6 2.8 0 5.6 0.4 8.4 0.8l346 74c14.8 2.4 31.6 13.6 44 28.8 4 3.2 7.6 6.4 11.2 10 170.8 169.6 338 338 508.8 507.6 18.8 18.8 28.8 39.6 30.8 65.6 0 1.2 0.4 2.4 0.8 3.6 0.8 4 1.6 8 1.6 12.4v18.4c0.4 2.4 0 5.2-0.4 8.4zM298.8 150.4c-0.4 0-0.4 0-0.8 0-13.6 2.4-39.2 8.4-58.4 24-15.2 12.4-19.2 36.4-20.4 50 0 1.6 0.4 2.8 1.6 3.6l630.8 642c1.2 1.2 2.8 1.6 3.6 1.6s1.6-0.4 2.4-0.4c23.2-11.6 56-34.4 81.2-76.4 0.8-1.6 0.8-4-0.8-5.6l-635.6-637.2c-1.2-1.2-2.4-1.6-3.6-1.6zM153.2-4.8c1.2 8.8 2.8 18.8-1.6 25.6-6 8.8-43.2 46.8-52.8 52.8-10.4 6.8-22 5.2-32.4 0.8l54 211.6c1.6-2.8 3.6-5.2 5.2-7.2 10-11.6 21.6-19.2 34.4-23.6 9.2-3.2 16.8-8.4 22.8-15.6-2.4-6-2.8-12.4-2.4-18.8 1.6-22.4 9.2-56.8 34.8-77.6 24.8-20 55.6-28.4 76.4-32 2.4-0.4 4.8-0.8 7.2-0.8 3.2 0 6.4 0.4 9.6 0.8 12.8-5.2 23.6-14.4 28.4-27.6 0-0.4 0-0.4 0.4-0.4 4.8-12.8 8.8-24.4 21.2-37.2 2-2 4-4 6.8-6.8l-212-44z" />
<glyph unicode="&#xe914;" glyph-name="preview" d="M1005.2 504.4v0c-57.2 73.2-131.2 134-214.4 175.6-84.8 42.4-176 64.4-270.8 65.6-2.8 0-13.2 0-16 0-95.2-1.6-186.4-23.6-270.8-65.6-83.2-41.6-157.2-102.4-214.4-175.6-24.8-32-24.8-76.8 0-108.8 57.2-73.2 131.2-134 214.4-175.6 84.8-42.4 176-64.4 270.8-65.6 1.6 0 4.8 0 8 0s6.4 0 7.6 0c95.2 1.2 186.4 23.2 271.2 65.6 82.8 41.6 157.2 102 214.4 175.6 25.2 32 25.2 76.8 0 108.8zM261.6 277.6c-74.4 37.2-141.2 91.6-192.4 157.6-6.8 8.8-6.8 20.8 0 29.6 51.2 66 118 120.4 192.4 157.6 5.6 2.8 10.8 5.2 16.4 8-39.6-51.2-61.6-114.8-61.6-180.4s22-128.8 61.6-180.4c-5.2 2.8-10.8 5.2-16.4 8zM512 218.8c-127.6 0-231.2 103.6-231.2 231.2s103.6 231.2 231.2 231.2 231.2-103.6 231.2-231.2-103.6-231.2-231.2-231.2zM954.8 435.2v0c-51.2-66-118-120.4-192.4-157.6-5.6-2.8-10.8-5.2-16.4-8 39.6 51.2 61.6 114.8 61.6 180.4s-22 128.8-61.6 180.4c5.6-2.4 11.2-5.2 16.4-8 74.4-37.2 141.2-91.6 192.4-157.6 6.8-8.8 6.8-20.8 0-29.6zM512 565.6c-64 0-115.6-52-115.6-115.6 0-64 52-115.6 115.6-115.6 64 0 115.6 52 115.6 115.6s-51.6 115.6-115.6 115.6z" />
<glyph unicode="&#xe915;" glyph-name="doc" d="M736.768 576h-448.384c-17.6 0-32-14.4-32-32v0c0-17.6 14.4-32 32-32h448.832c17.6 0 32 14.4 32 32v0c-0.384 17.6-14.784 32-32.384 32zM736 383.616h-448c-17.6 0-32-14.4-32-32v0c0-17.6 14.4-32 32-32h448c17.6 0 32 14.4 32 32v0c0 17.984-14.4 32-32 32zM735.616 191.616h-446.784c-17.6 0-32-14.4-32-32v0c0-17.6 14.4-32 32-32h447.168c17.6 0 32 14.4 32 32v0c0 17.6-14.4 32-32.384 32zM927.616 896.384c0 35.2-28.8 64-64 64h-527.616c-17.984 0-35.2-7.616-47.168-20.8l-175.616-192.384c-10.816-12.032-16.768-27.2-16.768-43.2v-703.616c0-16.768 6.784-33.216 18.816-45.184s28.416-18.816 45.184-18.816h704c16.768 0 33.216 6.784 45.184 18.816s18.816 28.416 18.816 45.184l-0.768 896zM320 846.4v-91.584c0-4.8-1.984-9.6-5.632-13.184s-8-5.568-13.184-5.568v0h-94.4l113.216 110.4zM160 0.384v672h141.184c22.016 0 42.816 8.384 58.368 24s24 36.416 24 58.432v141.184h479.616v-131.2l0.384-764.8-703.616 0.384z" />
<glyph unicode="&#xe916;" glyph-name="admin" d="M991.6 532.4c-20 3.2-40.4 6-60.8 8.4-9.6 1.2-17.2 8-19.6 16.8-9.2 32.8-22 64.4-39.2 94-4.8 8.4-4 18.4 2 26 12.4 16.4 24.8 32.8 36.8 48.8 11.2 14.8 9.6 36.4-3.6 49.6l-67.2 67.2c-7.2 7.2-16.8 11.2-27.2 11.2-8 0-16-2.8-22.8-7.6-16.4-12.4-32.8-24.8-48.8-36.8-4.4-3.2-9.2-4.8-14.4-4.8-4 0-8 1.2-11.6 3.2-29.6 16.8-61.2 30-94 39.2-9.2 2.4-15.6 10.4-16.8 19.6-2.8 20.4-5.6 40.8-8.4 60.4-2.8 18.4-18.8 32.4-37.6 32.4h-94.4c-18.8 0-34.8-13.6-37.6-32.4-2.8-20-6-40.4-8.4-60.4-1.2-9.6-8-17.2-16.8-19.6-33.2-9.2-65.2-22.4-94.8-39.2-3.6-2-7.6-3.2-11.6-3.2-5.2 0-10.4 1.6-14.4 4.8-15.6 12-32 24.4-48.8 36.8-6.4 4.8-14.4 7.6-22.4 7.6-10 0-19.6-4-26.8-11.2l-67.2-66.8c-13.2-13.2-14.8-34.4-3.6-49.6 12-16 24.4-32.4 36.8-48.8 6-7.6 6.4-17.6 2-26-16.8-29.6-30-61.2-39.2-94-2.4-9.2-10.4-15.6-19.6-16.8-20.4-2.8-40.8-5.6-60.4-8.4-18.4-2.8-32.4-19.2-32.4-37.6v-95.2c0-18.8 14-34.8 32.4-37.6 20-2.8 40.4-6 60.8-8.4 9.6-1.2 17.2-8 19.6-16.8 9.2-32.8 22-64.4 39.2-94 4.8-8.4 4-18.4-2-26-12-15.6-24.4-32-36.8-48.8-11.2-15.2-9.6-36.4 3.6-49.6l66.8-66.8c7.2-7.2 16.8-11.2 26.8-11.2 8 0 16 2.4 22.4 7.2v0 0c16.8 12.4 33.2 24.8 48.8 36.8 4.4 3.2 9.2 4.8 14.4 4.8 4 0 8-1.2 11.6-3.2 29.6-16.8 61.2-30 94-39.2 9.2-2.4 15.6-10.4 16.8-19.6 2.8-20.4 5.6-40.8 8.4-60.4 2.8-18.8 18.8-32.4 37.6-32.4h94.8c18.8 0 35.2 14 37.6 32.4 2.8 18.4 5.6 38.8 8.4 60.4 1.2 9.6 8 17.2 16.8 19.6 32.8 9.2 64.4 22 94 39.2 3.6 2 7.6 3.2 11.6 3.2 5.2 0 10.4-1.6 14.4-4.8 15.6-12 32.4-24.4 48.8-36.8 6.4-4.8 14.4-7.6 22.4-7.6 10 0 20 4 27.2 11.2l66.8 66.8c13.2 13.2 14.8 34.8 3.6 49.6-12 16-24 32.4-36.8 48.8-6 7.6-6.4 17.6-2 26 16.8 29.6 30 61.2 39.2 94 2.4 9.2 10.4 15.6 19.6 16.8 20.4 2.8 40.8 5.6 60.4 8.4 18.4 2.8 32.4 19.2 32.4 37.6v94.8c1.2 19.2-12.4 35.2-30.8 38zM709.2 447.6c0-109.2-88.8-198-198-198s-198 88.8-198 198c0 109.2 88.8 198 198 198s198-88.8 198-198z" />
<glyph unicode="&#xe917;" glyph-name="triggers" d="M960 704.4h-458.8c-26.4 74.8-97.6 128.4-181.2 128.4s-154.8-53.6-181.2-128.4h-74.8c-35.6 0-64-28.8-64-64 0-35.6 28.8-64 64-64h74.8c26.4-74.4 97.6-128 180.8-128s154.4 53.6 180.8 128h459.6c35.6 0 64 28.8 64 64s-28.8 64-64 64zM320 576.4c-35.2 0-64 28.8-64 64s28.8 64 64 64 64-28.8 64-64-28.8-64-64-64zM960 255.2h-74.8c-26.4 74.8-97.6 128.4-181.2 128.4s-154.8-53.6-181.2-128.4h-458.8c-35.6 0-64-28.8-64-64v0c0-35.6 28.8-64 64-64h458.8c26.4-74.4 97.6-128 180.8-128s154.4 53.6 180.8 128h75.6c35.6 0 64 28.8 64 64v0c0 35.2-28.8 64-64 64zM704 127.2c-35.2 0-64 28.8-64 64s28.8 64 64 64 64-28.8 64-64c0-35.6-28.8-64-64-64z" />
<glyph unicode="&#xe918;" glyph-name="profile" d="M760.4 391.2c-23.2 10.4-60.4 8.8-82.8-3.6 0 0-86-46.8-165.6-46.8s-167.6 46.8-167.6 46.8c-22.4 12-59.6 13.2-82.8 3.2l-150.8-66.8c-23.2-10.4-38-39.2-33.2-64l9.6-278.8c4.8-24.8 30-45.2 55.2-45.2h738.8c25.2 0 50.4 20.4 55.2 45.2l9.6 278.8c4.8 24.8-10 53.6-33.2 64l-152.4 67.2zM764.4 654.8c0-140.722-113.003-254.8-252.4-254.8s-252.4 114.078-252.4 254.8c0 140.722 113.003 254.8 252.4 254.8s252.4-114.078 252.4-254.8z" />
<glyph unicode="&#xe919;" glyph-name="users" d="M530 510.4c0-111.562-89.543-202-200-202s-200 90.438-200 202c0 111.562 89.543 202 200 202s200-90.438 200-202zM634.8 249.2l-111.6 49.2c-9.2 4-20.4 6.4-32.8 6.4-15.6 0-29.6-3.2-40.8-9.2-0.8-0.4-60.4-32.4-114.4-32.4s-115.2 32.4-116 32.8c-11.2 6-25.2 9.2-40.4 9.2-12.4 0-24-2.4-33.2-6.4l-110-49.6c-22.8-10.4-37.2-37.2-32.8-62l7.2-204.4 0.4-1.2c5.2-25.2 29.2-45.2 54.8-45.2h541.2c25.6 0 50 19.6 54.8 45.2l0.4 1.2 7.2 204.4c3.6 24.8-10.8 51.6-34 62zM997.2 423.2l-121.2 53.6c-18.4 8.4-48 6.8-65.6-2.8 0 0-68-37.2-131.2-37.2-38.8 0-80 14-106 24.8-8.4-44-28.8-83.2-57.6-114.8 10.8 0 25.6-1.6 40.4-8l120.8-53.2c30.8-14 50.4-50 45.2-83.2l-3.2-86.8h253.2c20 0 40 16.4 44 36l7.6 221.2c3.6 19.6-8.4 42.8-26.4 50.4zM581.6 514.4c0-2.4 0-5.2 0-7.6 29.6-17.6 64.4-28 101.6-28 110.4 0 200 90.4 200 202s-85.6 210-196 210c-102.4 0-191.2-86-202.4-186.8 58.4-42 96.8-111.6 96.8-189.6z" />
<glyph unicode="&#xe91a;" glyph-name="images" d="M993.2 960h-962.8c-16.8 0-30.4-13.6-30.4-30.4v-962.4c0-16.8 13.6-30.4 30.4-30.4h962.8c16.8 0 30.4 13.6 30.4 30.4v962.4c0.4 16.8-13.2 30.4-30.4 30.4zM960 0h-896v896h896v-896zM128 228c0 15.2 8.8 36.8 19.6 48l88.4 88.4c10.8 10.8 28.4 10.8 39.2-0.4l56.8-58c10.8-11.2 27.6-10.4 37.2 1.6l252.8 310.8c9.6 12 26.4 12.8 37.6 2l216.4-216.4c10.8-10.8 19.6-32.4 19.6-48v-264c0-15.2-12.8-28-28-28h-712c-15.2 0-28 12.4-28 28v136zM418 639.6c0-70.692-57.308-128-128-128s-128 57.308-128 128c0 70.692 57.308 128 128 128s128-57.308 128-128z" />
<glyph unicode="&#xe91b;" glyph-name="sheets" d="M992 256h-262.4c-19.2 0-32-12.8-32-32v-256c0-19.2 12.8-32 32-32h262.4c19.2 0 32 12.8 32 32v256c0 19.2-12.8 32-32 32zM960 32c0 0 0 0 0 0v-32h-192v192h192v-32c0 0 0 0 0 0s0-128 0-128zM608 256h-576c-19.2 0-32-12.8-32-32v-256c0-19.2 12.8-32 32-32h576c19.2 0 32 12.8 32 32v256c0 19.2-12.8 32-32 32zM576 160v-160h-512v32c0 0 0 0 0 0v128c0 0 0 0 0 0v32h512v-32zM992 576v0h-960c-19.2 0-32-12.8-32-32v-198.4c0-12.8 12.8-25.6 32-25.6h960c19.2 0 32 12.8 32 32v192c0 19.2-12.8 32-32 32zM960 384h-896v128h25.6c0 0 0 0 6.4 0h832c0 0 0 0 6.4 0h25.6v-128zM288 960h-256c-19.2 0-32-12.8-32-32v-256c0-19.2 12.8-32 32-32h262.4c12.8 0 25.6 12.8 25.6 32v256c0 19.2-12.8 32-32 32zM256 864v-160h-192v32c0 0 0 0 0 0v128c0 0 0 0 0 0v32h192c0 0 0-32 0-32zM992 960h-576c-19.2 0-32-12.8-32-32v-256c0-19.2 12.8-32 32-32h576c19.2 0 32 12.8 32 32v256c0 19.2-12.8 32-32 32zM960 736c0 0 0 0 0 0v-32h-512v192h512v-32c0 0 0 0 0 0v-128z" />
<glyph unicode="&#xe91c;" glyph-name="sticker" d="M512 959.6c-282.8 0-512-229.2-512-512s229.2-512 512-512 512 229.2 512 512-229.2 512-512 512zM64 447.6c0 119.6 46.8 232.4 131.2 316.8 84.8 84.8 197.2 131.2 316.8 131.2s232.4-46.8 316.8-131.2c84.8-84.4 131.2-197.2 131.2-316.8 0-38.4-4.8-76-14-112-34 10.4-69.2 15.6-105.2 15.6-195.6 0-355.2-156.4-360.8-350.4-107.6 7.6-208 53.2-285.2 130-84 84.8-130.8 197.2-130.8 316.8zM828.8 130.8c-76.8-76.8-176.8-122.4-284.4-130 5.6 158.8 136.4 286.4 296.4 286.4 28.8 0 57.2-4 84.8-12.4-22-53.2-54.8-102-96.8-144z" />
<glyph unicode="&#xe91d;" glyph-name="cross" d="M283.2 586.8l360.8-360.8c24.8-24.8 65.6-24.8 90.4 0v0c24.8 24.8 24.8 65.6 0 90.4l-360.8 360.8c-24.8 24.8-65.6 24.8-90.4 0v0c-25.2-25.2-25.2-65.2 0-90.4zM647.6 674.4l-361.6-361.6c-24.8-24.8-24.8-65.6 0-90.4v0c24.8-24.8 65.6-24.8 90.4 0l361.6 361.6c24.8 24.8 24.8 65.6 0 90.4v0c-24.8 24.8-65.2 25.2-90.4 0z" />
<glyph unicode="&#xe91e;" glyph-name="logo-small" horiz-adv-x="1041" d="M976 310.4c-3.2-3.2-3.2 0-3.2-3.2-6.4-3.2-54.4-102.4-86.4-99.2-9.6 0-22.4 3.2-28.8 9.6-12.8 16-25.6 35.2-35.2 54.4-3.2 6.4-6.4 12.8-12.8 19.2-22.4 35.2-51.2 73.6-92.8 73.6-6.4 0-12.8 0-19.2-3.2-41.6-9.6-64-57.6-83.2-102.4-16 64-41.6 176-115.2 176-6.4 0-9.6 0-16-3.2-28.8-6.4-54.4-32-70.4-76.8-12.8-41.6-22.4-86.4-28.8-131.2-16 73.6-25.6 150.4-35.2 220.8-6.4 54.4-16 112-25.6 166.4-6.4 44.8-16 86.4-32 131.2-16 32-32 51.2-57.6 51.2-22.4 0-41.6-9.6-54.4-25.6-19.2-12.8-35.2-28.8-48-48-38.4-48-64-105.6-80-163.2-35.2-128-22.4-252.8 38.4-336l16 12.8c-54.4 80-25.6 201.6-9.6 268.8 3.2 6.4 3.2 12.8 3.2 19.2 9.6 48 28.8 92.8 51.2 134.4 16 32 41.6 60.8 73.6 80 6.4-9.6 12.8-19.2 12.8-32v-3.2c12.8-25.6 19.2-48 22.4-73.6 9.6-51.2 16-105.6 25.6-156.8l3.2-16c9.6-67.2 19.2-134.4 32-204.8 6.4-38.4 12.8-70.4 22.4-102.4l12.8-48c0-3.2 0-6.4 3.2-9.6 0-12.8 6.4-25.6 16-35.2 6.4-6.4 12.8-9.6 19.2-9.6 3.2 0 9.6 0 12.8 3.2 12.8 9.6 19.2 22.4 19.2 35.2v3.2c6.4 28.8 9.6 57.6 12.8 86.4l3.2 28.8c6.4 44.8 16 92.8 28.8 134.4 3.2 12.8 9.6 32 22.4 35.2 6.4 3.2 16-3.2 25.6-16 19.2-38.4 35.2-76.8 41.6-118.4l3.2-12.8c3.2-9.6 3.2-16 6.4-25.6 3.2-19.2 9.6-38.4 16-57.6 3.2-12.8 16-19.2 28.8-19.2 19.2 3.2 25.6 19.2 32 32l6.4 22.4c6.4 22.4 16 44.8 25.6 70.4v3.2c6.4 19.2 19.2 44.8 35.2 51.2s35.2-22.4 41.6-35.2l3.2-3.2c6.4-9.6 9.6-16 16-25.6 9.6-16 19.2-32 32-48 12.8-22.4 35.2-38.4 57.6-44.8 96-16 134.4 118.4 134.4 121.6v6.4c0 6.4-3.2 16-3.2 22.4 0 3.2 0 6.4-3.2 9.6-9.6 6.4-12.8 6.4-16 6.4v0z" />
<glyph unicode="&#xe91f;" glyph-name="logo-big" horiz-adv-x="3168" d="M2192 534.4l-6.4-19.2c-12.8-32-32-54.4-51.2-57.6-3.2 0-6.4 0-9.6 0-25.6 0-48 19.2-60.8 44.8 12.8 9.6 22.4 25.6 28.8 41.6 3.2 9.6 0 19.2-3.2 25.6s-9.6 9.6-16 12.8c-12.8 3.2-22.4-3.2-28.8-16-9.6-16-12.8-35.2-6.4-54.4-6.4-3.2-12.8-6.4-19.2-3.2-3.2 3.2-6.4 9.6-9.6 12.8-3.2 9.6-6.4 16-6.4 25.6v0c0 6.4-3.2 16-9.6 19.2 0 0-3.2 0-6.4 0-9.6 0-16-12.8-22.4-22.4l-3.2-6.4c-3.2-6.4-6.4-12.8-9.6-16l-3.2-3.2c-3.2-3.2-6.4-9.6-9.6-12.8-3.2 6.4-3.2 12.8-3.2 19.2v3.2c0 3.2 0 9.6 0 12.8s0 9.6-3.2 12.8c-3.2 3.2-12.8 3.2-16 0 0 0 0 0 0-3.2-3.2-3.2-3.2-9.6-6.4-12.8 0-3.2-3.2-6.4-3.2-9.6-3.2-6.4-6.4-9.6-9.6-12.8v0c-6.4 0-9.6-3.2-9.6-6.4-3.2 6.4-6.4 12.8-6.4 22.4v3.2c0 6.4 0 9.6-3.2 16 0 3.2-3.2 9.6-6.4 12.8s-9.6 3.2-12.8 0c0 0 0 0 0 0-3.2-6.4-3.2-9.6-3.2-16 0-12.8-3.2-22.4-12.8-32-3.2-3.2-9.6-6.4-16-9.6-3.2 0-6.4 3.2-9.6 6.4s-3.2 9.6-3.2 12.8c-3.2 9.6-6.4 19.2-16 25.6-12.8 6.4-28.8 3.2-41.6-6.4 0 112-9.6 153.6-12.8 166.4v3.2l-16-12.8v-3.2c0-3.2 3.2-9.6 3.2-12.8v-3.2c3.2-22.4 6.4-48 6.4-70.4 0-19.2 0-38.4 0-60.8 0-12.8 0-25.6 0-38.4 0 0 0-3.2 0-3.2 0-9.6-3.2-22.4 9.6-25.6 9.6 0 12.8 9.6 12.8 16 0 3.2 0 3.2 3.2 6.4 3.2 9.6 9.6 16 16 19.2 3.2 3.2 6.4 3.2 9.6 3.2s3.2-6.4 6.4-9.6v-3.2c3.2-6.4 3.2-12.8 9.6-19.2 6.4-9.6 16-16 28.8-12.8 12.8 0 25.6 9.6 32 19.2 3.2-9.6 9.6-22.4 25.6-19.2 12.8 3.2 19.2 16 25.6 25.6 0-6.4 3.2-16 9.6-19.2 6.4-6.4 12.8-6.4 19.2-3.2 9.6 6.4 16 12.8 19.2 19.2 6.4 6.4 9.6 16 12.8 22.4v0c0 0 0 3.2 3.2 3.2 3.2-16 9.6-28.8 19.2-38.4 12.8-9.6 32-12.8 44.8-3.2 16-35.2 48-57.6 80-57.6 6.4 0 9.6 0 16 3.2 35.2 9.6 54.4 57.6 54.4 80l-3.2 19.2zM2067.2 544c-3.2-6.4-6.4-9.6-9.6-16 0 6.4 0 12.8 3.2 19.2 3.2 9.6 6.4 9.6 6.4 9.6v0c0 0 0 0 3.2-3.2 0 0 0-6.4-3.2-9.6v0zM1712 560c-19.2 6.4-38.4 0-48-16l-3.2-3.2c-6.4-9.6-16-19.2-25.6-28.8-3.2 22.4-9.6 38.4-22.4 44.8-3.2 3.2-6.4 3.2-12.8 3.2-16 0-28.8-16-35.2-28.8-6.4 16-19.2 25.6-35.2 25.6-3.2 0-6.4 0-9.6-3.2-19.2 12.8-44.8 6.4-57.6-12.8 0-3.2-3.2-3.2-3.2-6.4-9.6 22.4-35.2 32-54.4 22.4-9.6-3.2-16-9.6-19.2-16-6.4-9.6-9.6-16-16-22.4-3.2-3.2-6.4-6.4-9.6-9.6-3.2 0-6.4 0-9.6 3.2-6.4 6.4-9.6 12.8-12.8 19.2 0 3.2-3.2 6.4-3.2 6.4-9.6 12.8-19.2 28.8-35.2 28.8-3.2 0-3.2 0-6.4 0-16-3.2-25.6-22.4-32-38.4-6.4 25.6-16 67.2-44.8 67.2-3.2 0-3.2 0-6.4 0-12.8-3.2-19.2-12.8-25.6-28.8s-9.6-32-9.6-48c-6.4 28.8-9.6 57.6-12.8 83.2-3.2 19.2-6.4 41.6-9.6 64-3.2 16-6.4 32-12.8 48-19.2 16-25.6 22.4-35.2 22.4-6.4 0-16-3.2-19.2-9.6-6.4-6.4-12.8-12.8-19.2-19.2-12.8-19.2-22.4-38.4-28.8-60.8-12.8-48-9.6-96 16-128l6.4 3.2c-19.2 28.8-9.6 76.8-3.2 102.4 0 3.2 0 6.4 3.2 6.4 3.2 19.2 9.6 35.2 19.2 51.2 6.4 12.8 16 22.4 28.8 32 3.2-3.2 3.2-6.4 6.4-12.8v0c3.2-9.6 3.2-16 6.4-25.6 3.2-19.2 6.4-41.6 9.6-60.8v-6.4c3.2-25.6 6.4-51.2 12.8-76.8 3.2-12.8 6.4-25.6 9.6-38.4 0-6.4 3.2-12.8 3.2-19.2 0 0 0-3.2 0-3.2 0-6.4 3.2-9.6 6.4-12.8s6.4-3.2 6.4-3.2 3.2 0 6.4 0c3.2 3.2 6.4 9.6 6.4 12.8v0c3.2 9.6 3.2 22.4 6.4 32l3.2 9.6c3.2 16 6.4 35.2 9.6 51.2 3.2 3.2 3.2 12.8 9.6 12.8 3.2 0 6.4 0 9.6-6.4 6.4-12.8 12.8-28.8 16-44.8v-6.4c0-3.2 0-6.4 3.2-9.6 0-6.4 3.2-16 6.4-22.4 0-3.2 6.4-6.4 9.6-6.4 6.4 0 9.6 6.4 12.8 12.8l3.2 9.6c3.2 9.6 6.4 16 9.6 25.6v0c3.2 6.4 6.4 16 12.8 19.2s12.8-6.4 16-12.8v0c3.2-3.2 3.2-6.4 6.4-9.6 3.2-6.4 6.4-12.8 12.8-19.2 6.4-9.6 12.8-12.8 22.4-16s19.2 0 25.6 6.4c3.2 3.2 9.6 6.4 12.8 9.6 6.4-12.8 22.4-22.4 38.4-22.4s32 9.6 38.4 25.6c6.4-16 22.4-25.6 38.4-25.6 3.2 0 6.4 0 12.8 3.2 12.8 3.2 22.4 12.8 25.6 22.4 3.2 6.4 6.4 16 3.2 25.6 3.2-3.2 6.4-9.6 9.6-16s3.2-9.6 3.2-16c0 0 0-3.2 0-3.2 0-6.4 3.2-9.6 6.4-12.8s6.4-3.2 9.6 0 6.4 6.4 9.6 12.8c0 0 0 3.2 0 3.2 3.2 9.6 6.4 16 12.8 25.6 3.2 6.4 9.6 9.6 16 9.6s9.6-12.8 9.6-16c0-3.2 3.2-9.6 3.2-12.8 0 0 0-3.2 0-6.4s0-6.4 3.2-9.6c3.2-3.2 6.4-6.4 9.6-6.4s9.6 0 12.8 3.2c12.8 9.6 25.6 19.2 32 32 0 3.2 3.2 3.2 3.2 6.4 3.2 6.4 9.6 12.8 16 16 3.2 0 3.2 0 6.4 0 6.4 0 9.6-3.2 12.8-9.6s3.2-16-3.2-22.4c-6.4-6.4-16-6.4-22.4 0l-12.8 3.2-12.8-19.2 3.2-3.2c9.6-6.4 22.4-12.8 32-9.6 12.8 3.2 22.4 9.6 28.8 22.4 3.2 12.8 3.2 25.6 0 35.2-6.4 12.8-12.8 19.2-22.4 22.4v0zM1491.2 540.8c9.6 0 19.2-6.4 19.2-16-3.2-9.6-12.8-19.2-22.4-16-9.6 0-16 6.4-16 16s12.8 16 19.2 16zM1414.4 540.8c9.6 0 19.2-6.4 19.2-16-3.2-9.6-12.8-19.2-22.4-16-9.6 0-16 6.4-16 16 3.2 6.4 9.6 16 19.2 16zM1859.2 585.6v0c3.2-3.2 6.4-3.2 6.4-3.2 9.6 0 19.2 6.4 22.4 19.2 0 6.4 0 9.6-6.4 12.8-3.2 0-3.2 3.2-6.4 3.2-9.6 0-19.2-6.4-22.4-19.2 0-6.4 0-9.6 6.4-12.8v0zM227.2 310.4l12.8 28.8c-28.8 16-60.8 25.6-92.8 25.6-60.8 0-99.2-28.8-99.2-73.6 0-102.4 163.2-64 163.2-140.8 0-28.8-25.6-44.8-67.2-44.8-35.2 0-70.4 16-96 41.6l-16-28.8c28.8-28.8 70.4-44.8 112-44.8 60.8 0 105.6 32 105.6 80 0 105.6-163.2 67.2-163.2 140.8 0 25.6 25.6 38.4 60.8 38.4 28.8 0 54.4-9.6 80-22.4zM313.6 364.8v-288h32v288h-32zM396.8 364.8v-32h92.8v-259.2h32v259.2h96v32h-220.8zM665.6 364.8v-288h201.6v32h-169.6v99.2h147.2v28.8h-147.2v96h163.2v32h-195.2zM1059.2 364.8v-288h32v240l105.6-211.2h19.2l105.6 211.2v-240h32v288h-41.6l-105.6-211.2-105.6 211.2h-41.6zM1654.4 76.8h35.2l-128 288h-35.2l-131.2-288h35.2l32 73.6h156.8l35.2-73.6zM1478.4 179.2l64 147.2 67.2-147.2h-131.2zM1737.6 364.8v-288h32v233.6l172.8-233.6h35.2v288h-32v-236.8l-172.8 233.6h-35.2zM2278.4 76.8h35.2l-128 288h-35.2l-131.2-288h35.2l32 73.6h156.8l35.2-73.6zM2102.4 179.2l64 147.2 67.2-147.2h-131.2zM2563.2 128c-22.4-16-48-22.4-76.8-25.6-64 0-118.4 51.2-118.4 115.2 0 0 0 0 0 0 0 64 54.4 115.2 118.4 115.2 0 0 0 0 0 0 32 0 64-12.8 86.4-32l19.2 22.4c-28.8 25.6-67.2 38.4-105.6 38.4-86.4 0-153.6-64-153.6-144s67.2-147.2 150.4-147.2c0 0 0 0 3.2 0 38.4 0 76.8 12.8 108.8 38.4v105.6h-28.8v-86.4zM2672 364.8v-288h201.6v32h-169.6v99.2h147.2v28.8h-147.2v96h163.2v32h-195.2zM3168 76.8l-67.2 99.2c41.6 12.8 64 44.8 64 92.8 0 60.8-41.6 96-115.2 96h-108.8v-288h32v92.8h76.8c6.4 0 12.8 0 19.2 0l60.8-92.8h38.4zM2972.8 198.4v137.6h76.8c51.2 0 83.2-22.4 83.2-67.2s-28.8-70.4-83.2-70.4h-76.8zM960 528h-928v16h928v-16zM3168 528h-896v16h896v-16z" />
<glyph unicode="&#xe920;" glyph-name="recharge" d="M535.2 552.4c-38.8 38.8-102.4 38.8-141.2 0s-38.8-102.4 0-141.2 102.4-38.8 141.2 0 38.8 102.4 0 141.2zM375.2 914.4c-83.6-16.4-163.6-56.8-228.8-121.6-172.8-172.8-173.2-453.2-1.2-626.4 0.8-0.8 0.8-2 0-2.4l-100.4-96.4c-1.2-1.2-0.4-3.2 1.2-3.2h272.8c1.2 0 2 0.8 2 2v268.8c0 1.6-2 2.4-3.2 1.2l-90-90c-0.8-0.8-2-0.8-2.8 0-126.8 128.8-126 337.6 2.4 466 129.2 129.2 338.8 129.6 467.2 0.8 128.8-128.8 128.4-338.4-0.8-467.2-38-38-83.2-65.2-131.2-80.8l-52.4-12.4c-30.4-7.2-49.2-38-41.6-68.4 6.8-28 32-47.6 60.8-43.2 0 0 0 0 0.4 0s0.4 0 0.8 0 0.4 0 0.8 0c74.8 12 146.8 43.6 208.4 94 1.2 0.8 2.8 2 4 3.2l184-184c22-22 58-22 80 0s22 58 0 80l-185.2 185.6c-0.8 0.8-0.8 1.6 0 2.4 35.2 49.6 59.2 104.4 71.6 161.6 31.6 143.2-8 298.4-118.8 409.6-109.2 108.4-260 148.4-400 120.8z" />
<glyph unicode="&#xe921;" glyph-name="search" d="M986 70l-191.2 191.2c139.6 176 111.2 432.4-65.2 572.4s-434.8 111.2-576.4-66.8-110.8-432.4 65.2-572.4c70.8-55.6 160.8-88 252.8-88v0c82.4 0 160.8 24.8 227.6 70.8l195.2-195.2c22.8-22.8 59.2-22.8 84.4 0v0l4 4c24.4 20.8 24.4 57.2 3.6 84 0-2 0-2 0 0zM474.8 223.2c-158.8 0-289.2 128.4-289.2 289.2v0c0 158.8 128.4 289.2 289.2 289.2s289.2-128.8 289.2-289.2-130.4-289.2-289.2-289.2v0z" />
<glyph unicode="&#xe922;" glyph-name="grid, tile" d="M394.4 960h-340.8c-29.6 0-53.6-24-53.6-53.6v-340.8c0-29.6 24-53.6 53.6-53.6h340.8c29.6 0 53.6 24 53.6 53.6v340.8c0 29.6-24 53.6-53.6 53.6zM394.4 384h-340.8c-29.6 0-53.6-24-53.6-53.6v-340.8c0-29.6 24-53.6 53.6-53.6h340.8c29.6 0 53.6 24 53.6 53.6v340.8c0 29.6-24 53.6-53.6 53.6zM970.4 384.4h-340.8c-29.6 0-53.6-24-53.6-53.6v-340.8c0-29.6 24-53.6 53.6-53.6h340.8c29.6 0 53.6 24 53.6 53.6v340.8c0 29.6-24 53.6-53.6 53.6zM970.4 960h-340.8c-29.6 0-53.6-24-53.6-53.6v-340.8c0-29.6 24-53.6 53.6-53.6h340.8c29.6 0 53.6 24 53.6 53.6v340.8c0 29.6-24 53.6-53.6 53.6z" />
<glyph unicode="&#xe923;" glyph-name="dot-black" d="M960.8 449.2c0-247.424-200.576-448-448-448s-448 200.576-448 448c0 247.424 200.576 448 448 448s448-200.576 448-448z" />
<glyph unicode="&#xe924;" glyph-name="dot-white" d="M512.8 833.2c211.6 0 384-172.4 384-384s-172.4-384-384-384-384 172.4-384 384 172.4 384 384 384zM512.8 897.2c-247.2 0-448-200.4-448-448s200.4-448 448-448 448 200.4 448 448-200.8 448-448 448v0z" />
<glyph unicode="&#xe925;" glyph-name="tick-white" d="M833.6 704c14 0 27.6-5.6 38.4-16.8l7.6-8c21.2-22.4 21.2-58.4 0-80.8l-412.4-434c-22.8-24.4-53.2-36.4-83.6-36.4s-60.4 12-83.6 36.4l-156 164.4c-21.2 22.4-21.2 58.4 0 80.8l7.2 7.6c10.8 11.6 25.2 17.2 39.2 17.2s27.6-5.6 38-16.8l117.2-123.2c10.4-11.2 24.4-16.8 38.4-16.8s27.6 5.6 38.4 16.8l373.2 392.8c10.4 11.2 24.4 16.8 38 16.8zM833.6 768c-32 0-62.4-13.2-84.8-36.8l-39.6-41.6-325.2-343.2-108.8 114.8c-22.4 24-52.4 37.2-84.8 37.2s-62.8-13.2-85.6-37.2l-7.2-7.6c-21.6-22.8-33.6-52.8-33.6-84.4s12-61.6 33.6-84.4l156-164.4c34.8-36.4 80.8-56.4 130-56.4s95.6 20 130 56.4l412.4 434c21.6 22.8 33.6 52.8 33.6 84.4s-12 61.6-33.6 84.4l-7.6 8c-22.4 23.6-52.4 36.8-84.8 36.8v0z" />
<glyph unicode="&#xe926;" glyph-name="tick" d="M228.8 417.2l117.2-123.2c21.2-22.4 55.6-22.4 76.4 0l373.2 393.2c21.2 22.4 55.6 22.4 76.4 0l7.6-8c21.2-22.4 21.2-58.4 0-80.8l-412.4-434c-46-48.4-120.8-48.4-166.8 0l-156 164.4c-21.2 22.4-21.2 58.4 0 80.8l7.2 7.6c21.6 22.8 56 22.8 77.2 0z" />
<glyph unicode="&#xe927;" glyph-name="history" d="M778 819.2c-65.6 44.4-144.8 70-229.6 70-227.2 0-411.2-184-411.2-411.2h-137.2l192-182 173.6 182h-123.6c0 168.4 137.6 305.6 306.8 305.6s306.8-137.2 306.8-305.6-137.6-305.6-306.8-305.6c-50 0-97.2 12-138.8 33.2l-42.4 26c-24.8 15.2-56.8 7.2-72-17.2-13.6-22.4-8.8-50.8 10.8-67.2l-0.4-0.4c57.6-42 126-69.6 200.8-77.2 11.6-2 25.6-2.8 42-2.8 81.6 0 157.6 23.6 221.6 64.8 114.4 72.8 190.4 200.8 190.4 346.4-0.4 142-72.8 267.6-182.8 341.2zM733.2 475.6h-158v164.4c0 19.6-19.6 35.2-44 35.2h-2.8c-24.4 0-44-15.6-44-35.2v-220c0-9.2 4.4-17.6 11.6-24 6.4-7.2 14.8-11.6 24-11.6h213.6c19.6 0 35.2 19.6 35.2 44v2.8c-0.4 24.8-16 44.4-35.6 44.4z" />
<glyph unicode="&#xe928;" glyph-name="reload-images" d="M370 672.4c0-58.984-47.816-106.8-106.8-106.8s-106.8 47.816-106.8 106.8c0 58.984 47.816 106.8 106.8 106.8s106.8-47.816 106.8-106.8zM392 128h-328v768h768v-328.4c22.4-6 43.6-14.4 64-24.4v386.4c0.4 16.8-13.2 30.4-30.4 30.4h-835.2c-16.8 0-30.4-13.6-30.4-30.4v-835.2c0-16.8 13.6-30.4 30.4-30.4h386c-10 20.4-18.4 41.6-24.4 64zM379.6 222c0 170 118.4 312 277.2 348.8l-85.6 85.6c-9.2 9.2-23.2 8.4-31.2-1.6l-210.8-259.2c-8-10-22-10.8-31.2-1.2l-47.2 48.4c-9.2 9.2-23.6 9.2-32.8 0.4l-73.6-73.6c-9.2-9.2-16.4-27.2-16.4-40h-0.4v-113.6c0-13.2 10.8-23.2 23.2-23.2h230c-0.8 9.2-1.2 19.2-1.2 29.2zM737.2 507.6c-157.6 0-285.6-128-285.6-285.6s128-285.6 285.6-285.6c157.6 0 285.6 128 285.6 285.6s-128 285.6-285.6 285.6zM689.6 59.2l-24.4-44c-86 26.8-148.4 109.2-148.4 207.2 0 82.4 44 153.6 109.2 190.4l-15.2 28h113.2l-58-102.4-16.8 31.2c-50.8-28.4-85.2-84-85.2-147.2 0-79.6 54-146 125.6-163.2zM844.8 32.4l15.2-28.4h-113.2l58 102.4 16.8-31.2c50.8 28.4 85.2 84 85.2 147.6 0 79.6-54 146-125.6 163.2l24.4 44c86-26.8 148.4-109.2 148.4-207.2 0-82.4-44.4-153.6-109.2-190.4z" />
<glyph unicode="&#xe929;" glyph-name="underline" d="M909.6 65.2h-791.2c-29.2 0-52.8-23.6-52.8-52.8v-22.8c0-29.2 23.6-52.8 52.8-52.8h791.2c29.2 0 52.8 23.6 52.8 52.8v22.8c-0.4 29.2-24 52.8-52.8 52.8zM180.8 791.2h11.2v-364c0-93.2 28-166 83.6-219.2s133.6-79.6 234-79.6c67.6 0 125.6 12.4 174 36.4 48.4 24.4 85.6 58.8 111.2 103.6s38.4 97.2 38.4 156.8v366h10.4c29.2 0 52.8 23.6 52.8 52.8v31.6c0 29.2-23.6 52.8-52.8 52.8h-150.8c-29.2 0-52.8-23.6-52.8-52.8v-31.6c0-29.2 23.6-52.8 52.8-52.8h8v-353.2c0-130.8-62-196.4-186.8-196.4-64.4 0-112 16-142.8 47.6s-46.4 80.8-46.4 147.6v354.4h6.8c29.2 0 52.8 23.6 52.8 52.8v31.6c0 29.2-23.6 52.8-52.8 52.8h-150.8c-29.2 0-52.8-23.6-52.8-52.8v-31.6c0.4-29.2 24-52.8 52.8-52.8z" />
<glyph unicode="&#xe92a;" glyph-name="italic" d="M712 896h-186c-16 0-29.6-10.8-33.2-26.4l-16-68.8c-4.8-21.2 11.2-41.6 33.2-41.6h35.6l-132.8-623.2h-45.6c-16 0-29.6-10.8-33.2-26.4l-16-68.8c-4.8-21.2 11.2-41.6 33.2-41.6h186c16 0 29.6 10.8 33.2 26.4l16 68.8c4.8 21.2-11.2 41.6-33.2 41.6h-37.2l132.4 623.2h47.6c16 0 29.6 10.8 33.2 26.4l16 68.8c4.8 21.2-11.6 41.6-33.2 41.6z" />
<glyph unicode="&#xe92b;" glyph-name="bold" d="M850.8 398.4c-24.8 34.4-64.8 57.6-120 70.4-1.6 0.4-2.8 2-2.8 3.6v0c0 1.6 1.2 3.2 3.2 3.6 40 7.6 72.4 28 96.8 61.6 25.2 34 37.6 78 37.6 131.6 0 78.8-28.8 136.4-86 172.4-57.6 36.4-149.6 54.4-276.8 54.4h-88l-218 1.2c-15.2 0-27.6-12-27.6-27.2v-102.4c0-15.2 12.4-27.2 27.2-27.2v0c15.2 0 27.2-12.4 27.2-27.2v-528c0-15.2-12.4-27.2-27.2-27.2v0c-15.2 0-27.2-12.4-27.2-27.2v-102.8c0-15.2 12.4-27.2 27.2-27.2h362.8c101.2 0 181.2 23.2 240.4 68.8 58.8 45.6 88.4 109.6 88.4 191.2 0.4 56.8-12 102.8-37.2 137.6zM414.4 740v0l0.4 0.8h99.6c54.4 0 94-7.6 119.2-22.4 25.2-15.2 37.6-39.6 37.6-74 0-36.8-11.6-63.2-34.8-79.2s-60.4-24-112-24h-82.8c-15.2 0-27.2 12.4-27.2 27.2 0 0 0 171.6 0 171.6zM653.6 186.8c-25.2-20-63.6-30-116-30h-96.4c-15.2 0-27.2 12.4-27.2 27.2v178.8c0 15.2 12.4 27.2 27.2 27.2h90.4c106 0 159.2-37.2 159.2-111.6 0-40.8-12.4-71.6-37.2-91.6z" />
<glyph unicode="&#xe92c;" glyph-name="info" d="M514.8 831.2c102.8 0 199.2-40 271.6-112.4s112.4-168.8 112.4-271.6-40-199.2-112.4-271.6-168.8-112.4-271.6-112.4-199.2 40-271.6 112.4-112.4 168.8-112.4 271.6 40 199.2 112.4 271.6 169.2 112.4 271.6 112.4zM514.8 895.2c-247.6 0-448-200.4-448-448s200.4-448 448-448 448 200.4 448 448-200.4 448-448 448v0zM447.6 738h128v-97.6h-128c0 0 0 97.6 0 97.6zM639.6 192.8h-256v108.4h64v166.4h-64v109.2h192v-275.6h64v-108.4z" />
<glyph unicode="&#xe92d;" glyph-name="info-black" d="M512.8 897.2c-247.6 0-448-200.4-448-448s200.4-448 448-448 448 200.4 448 448-200.4 448-448 448zM447.6 738h128v-97.6h-128v97.6zM639.6 192.8h-256v108.4h64v166.4h-64v109.2h192v-275.6h64v-108.4z" />
<glyph unicode="&#xe92e;" glyph-name="ok" d="M512.8 897.2c-247.6 0-448-200.4-448-448s200.4-448 448-448 448 200.4 448 448-200.4 448-448 448zM788.4 522l-272.8-287.6c-20-20.8-46.4-32.4-74.8-32.4s-54.8 11.6-74.8 32.4l-118 124.4c-22 23.2-22 60 0 83.2l5.6 5.6c10.8 11.6 25.6 18 40.8 18 0 0 0 0 0.4 0 15.2 0 29.6-6.4 40.4-18l88.8-93.2c4.8-5.2 10.8-8 17.6-7.6 6.4 0 12.4 2.8 16.8 7.6l243.2 256.8c10.8 11.6 25.2 17.6 40.8 17.6 15.2 0 29.6-6.4 40.4-18l5.6-6c22-22.8 22-59.6 0-82.8z" />
<glyph unicode="&#xe92f;" glyph-name="error" d="M512.8 897.2c-247.6 0-448-200.4-448-448s200.4-448 448-448 448 200.4 448 448-200.4 448-448 448zM734 312.4c24.8-24.8 24.8-65.6 0-90.4s-65.6-24.8-90.4 0l-132 132-135.6-135.6c-24.8-24.8-65.6-24.8-90.4 0s-24.8 65.6 0 90.4l135.6 135.6-138.4 138.4c-25.2 25.2-25.2 65.2 0 90.4 24.8 24.8 65.6 24.8 90.4 0l138.4-138.4 135.6 135.6c25.2 25.2 65.6 24.8 90.4 0s24.8-65.6 0-90.4l-135.6-135.6 132-132z" />
<glyph unicode="&#xe930;" glyph-name="alert-black" d="M955.2 182.4l-374.4 648.4c-30.4 52.8-106.4 52.8-136.8 0l-374-648.4c-30.4-52.8 7.6-118.4 68-118.4h748.8c60.8 0 98.8 65.6 68.4 118.4zM512.4 212.8c-28 0-50.4 24-50.4 54s22.8 54 50.4 54c28 0 50.4-24 50.4-54 0.4-29.6-22.4-54-50.4-54zM576 584.8l-10.4-186c-1.6-27.6-23.2-49.6-49.2-49.6h-9.6c-26 0-47.6 21.6-49.2 49.6l-9.6 186c-1.6 30 20.8 55.6 49.2 55.6h30c28 0.4 50.4-25.2 48.8-55.6z" />
<glyph unicode="&#xe931;" glyph-name="alert" d="M512.4 806c4 0 9.2-1.2 12.8-7.6l374.4-648.4c3.6-6 2-11.6 0-14.8-2-3.6-5.6-7.6-12.8-7.6h-748.8c-7.2 0-10.8 4-12.8 7.6s-3.6 8.8 0 14.8l374.4 648.4c3.6 6.4 9.2 7.6 12.8 7.6zM512.4 870c-26.4 0-53.2-13.2-68.4-39.6l-374-648c-30.4-52.8 7.6-118.4 68-118.4h748.8c60.8 0 98.8 65.6 68.4 118.4l-374.4 648.4c-15.2 26.4-41.6 39.2-68.4 39.2v0zM527.2 640.8h-30c-28.4 0-50.8-25.6-49.2-55.6l10.4-186c1.6-27.6 23.2-49.6 49.2-49.6h9.6c26 0 47.6 21.6 49.2 49.6l10.4 186c0.8 30-21.6 55.6-49.6 55.6v0zM512.4 320.8c-28 0-50.4-24-50.4-54s22.8-54 50.4-54c28 0 50.4 24 50.4 54 0.4 30-22.4 54-50.4 54v0z" />
<glyph unicode="&#xe932;" glyph-name="bottom" d="M62.8-64h897.2c35.2 0 64 28.8 64 64v0c0 35.2-28.8 64-64 64h-897.2c-35.2 0-64-28.8-64-64v0c0-35.2 28.8-64 64-64zM254.8 380.8l256-252.8c0.8-0.8 2-0.8 2.8 0l254.8 252.8c1.2 1.2 0.4 3.2-1.6 3.2h-190.8v512.4c0 35.2-28.8 64-64 64s-64-28.8-64-64v-512.4h-192c-1.2 0-2-2-1.2-3.2z" />
<glyph unicode="&#xe933;" glyph-name="bottom-simple" d="M254.8 380.8l256-252.8c0.8-0.8 2-0.8 2.8 0l254.8 252.8c1.2 1.2 0.4 3.2-1.6 3.2h-190.8v512.4c0 35.2-28.8 64-64 64s-64-28.8-64-64v-512.4h-192c-1.2 0-2-2-1.2-3.2z" />
<glyph unicode="&#xe934;" glyph-name="top-simple" d="M768 515.6l-256 252.8c-0.8 0.8-2 0.8-2.8 0l-254.8-252.8c-1.2-1.2-0.4-3.2 1.6-3.2h190.8v-512.4c0-35.2 28.8-64 64-64s64 28.8 64 64v512.4h192c1.2 0 2 2 1.2 3.2z" />
<glyph unicode="&#xe935;" glyph-name="top" d="M960 960.4h-897.2c-35.2 0-64-28.8-64-64v0c0-35.2 28.8-64 64-64h897.2c35.2 0 64 28.8 64 64v0c0 35.2-28.8 64-64 64zM768 515.6l-256 252.8c-0.8 0.8-2 0.8-2.8 0l-254.8-252.8c-1.2-1.2-0.4-3.2 1.6-3.2h190.8v-512.4c0-35.2 28.8-64 64-64s64 28.8 64 64v512.4h192c1.2 0 2 2 1.2 3.2z" />
<glyph unicode="&#xe936;" glyph-name="upload" d="M850.4 611.2c-0.4 73.6-29.2 143.2-81.6 195.6-52.8 52.8-122.8 82-197.2 82-100.8 0-194-54.8-243.2-143.2-16.4 6.4-34.4 10-52.4 10-76 0-138.4-59.2-142.8-134.8-83.6-33.6-136.8-116.8-132.8-207.6 5.2-114 100-203.2 216-203.2h81.6c6 0 11.6 2.4 16 6.8s6.4 10 6.4 16l-0.8 29.2c-0.4 10.8-9.2 19.6-20 19.6h-83.6c-72.4 0-138.4 59.6-143.6 130.4-5.2 69.2 39.2 131.6 106.4 148.4 18.4 4.8 30.4 22.4 27.2 40-0.8 4-1.2 8-1.2 12 0 22.4 10.4 43.2 28.4 56.8s40.8 18 63.2 11.6c8.4-2.4 16.8-6.8 26.4-14.4 12.4-9.6 29.2-10 42.4-1.6 6 4 10.8 10.4 13.6 18 30.4 80 108 133.6 193.6 133.6 114 0 206.8-92.8 206.8-206.8 0-9.2-0.8-18.8-2-28.4-2.4-16.4 7.2-32.4 22.8-38.4 4.4-1.6 9.2-2.4 14.8-2 2.4 0 4.8 0.4 7.6 0.4 71.6 0 130-58.4 130-130s-58.4-130-130-130l-78-1.2c-12 0-22-10-22-22.4v-24.4c0-6.4 2.4-12.4 6.8-16.8s10.4-6.8 16.8-6.8h73.2c104 0 197.2 86 204 188 6.8 105.6-68.8 198.8-172.8 213.6zM703.6 323.2l-190 188.8c-0.8 0.8-2 0.8-2.8 0l-190.8-188.8c-1.2-1.2-0.4-3.2 1.6-3.2h126.4v-256c0-35.2 28.8-64 64-64s64 28.8 64 64v256h126c1.6 0 2.8 2 1.6 3.2z" />
<glyph unicode="&#xe937;" glyph-name="dowload" d="M850.4 611.2c-0.4 73.6-29.2 143.2-81.6 195.6-52.8 52.8-122.8 82-197.2 82-100.8 0-194-54.8-243.2-143.2-16.4 6.4-34.4 10-52.4 10-76 0-138.4-59.2-142.8-134.8-83.6-33.6-136.8-116.8-132.8-207.6 5.2-114 100-203.2 216-203.2h81.6c6 0 11.6 2.4 16 6.8s6.4 10 6.4 16l-0.8 29.2c-0.4 10.8-9.2 19.6-20 19.6h-83.6c-72.4 0-138.4 59.6-143.6 130.4-5.2 69.2 39.2 131.6 106.4 148.4 18.4 4.8 30.4 22.4 27.2 40-0.8 4-1.2 8-1.2 12 0 22.4 10.4 43.2 28.4 56.8s40.8 18 63.2 11.6c8.4-2.4 16.8-6.8 26.4-14.4 12.4-9.6 29.2-10 42.4-1.6 6 4 10.8 10.4 13.6 18 30.4 80 108 133.6 193.6 133.6 114 0 206.8-92.8 206.8-206.8 0-9.2-0.8-18.8-2-28.4-2.4-16.4 7.2-32.4 22.8-38.4 4.4-1.6 9.2-2.4 14.8-2 2.4 0 4.8 0.4 7.6 0.4 71.6 0 130-58.4 130-130s-58.4-130-130-130l-78-1.2c-12 0-22-10-22-22.4v-24.4c0-6.4 2.4-12.4 6.8-16.8s10.4-6.8 16.8-6.8h73.2c104 0 197.2 86 204 188 6.8 105.6-68.8 198.8-172.8 213.6zM320 125.6l190-188.8c0.8-0.8 2-0.8 2.8 0l190.4 188.8c1.2 1.2 0.4 3.2-1.6 3.2h-126.4v256c0 35.2-28.8 64-64 64s-64-28.8-64-64v-256h-126c-1.2 0-2-2-1.2-3.2z" />
<glyph unicode="&#xe938;" glyph-name="add-layer" d="M445.2 120.4l-320 175.2c-8.4 4.4-7.6 16.4 0.8 20.4l118.4 51.6c3.2 1.6 6.8 1.2 10-0.4l178-97.6c6.4-3.6 14.8 0 16.4 7.2 3.2 13.2 7.6 26.4 12.4 38.8 2 5.2 0 11.2-5.2 14l-331.6 182c-8.4 4.4-7.6 16.4 0.8 20.4l382.8 166.8c2.8 1.2 6 1.2 9.2 0l382-166.8c8.8-3.6 9.2-16 0.8-20.4v0c-8-4.4-7.6-16.4 0.8-20 14.8-6.8 28.8-14.8 42-23.6 3.6-2.4 8.4-2.8 12-0.4l30.4 18c32.8 18 30.4 65.6-3.6 80.4l-451.2 196.8c-6 2.4-12 3.6-18 3.6s-12.4-1.2-18-3.6l-451.2-196.8c-34-14.8-36.4-62.4-3.6-80.4l119.2-65.6c8.4-4.4 7.6-16.4-0.8-20.4l-114-49.6c-34-14.8-36.4-62.4-3.6-80.4l416.4-228.4c8 7.6 7.6 7.2 15.6 15.2-8.8 18-16 37.2-21.6 57.2-0.8 2.8-2.8 5.2-5.6 6.8zM763.6 457.2c-142.8 0-259.2-116.4-259.2-259.2s116.4-259.2 259.2-259.2c142.8 0 259.2 116.4 259.2 259.2 0 143.2-116.4 259.2-259.2 259.2zM913.2 158.8h-112.4v-109.2c0-20.8-16.8-37.6-37.6-37.6s-37.6 16.8-37.6 37.6v109.2h-112.4c-20.8 0-37.6 16.8-37.6 37.6s16.8 37.6 37.6 37.6h112.4v115.2c0 20.8 16.8 37.6 37.6 37.6s37.6-16.8 37.6-37.6v-115.2h112.4c20.8 0 37.6-16.8 37.6-37.6 0-20.4-16.8-37.6-37.6-37.6z" />
<glyph unicode="&#xe939;" glyph-name="sticker-text, sticker-sticker" d="M512 959.6c-282.8 0-512-229.2-512-512s229.2-512 512-512 512 229.2 512 512-229.2 512-512 512zM64 447.6c0 119.6 46.8 232.4 131.2 316.8 84.8 84.8 197.2 131.2 316.8 131.2s232.4-46.8 316.8-131.2c84.8-84.4 131.2-197.2 131.2-316.8 0-38.4-4.8-76-14-112-34 10.4-69.2 15.6-105.2 15.6-195.6 0-355.2-156.4-360.8-350.4-107.6 7.6-208 53.2-285.2 130-84 84.8-130.8 197.2-130.8 316.8zM828.8 130.8c-76.8-76.8-176.8-122.4-284.4-130 5.6 158.8 136.4 286.4 296.4 286.4 28.8 0 57.2-4 84.8-12.4-22-53.2-54.8-102-96.8-144zM160.4 530.8c0.8 6.4 1.6 12.8 2.8 19.2 6.4 30.8 20.8 57.2 46.8 76 26 18.4 54.8 22.4 85.2 12 9.6-3.2 16.8-9.6 23.6-17.2 0.8-0.8 1.6-2 2.4-2.4 3.6 4.4 6.4 8.8 10.4 12.4 9.2 9.2 20.8 10.4 32.4 6.4 12-4 18.8-12.4 21.6-24.8 0.4-2.4 0.8-5.2 0.8-7.6 0-55.6 0-111.2 0-166.8 0-9.6-3.2-17.6-9.6-24.8-11.6-12.8-39.6-16.4-53.2 8-0.4 1.2-1.2 2-2 3.2-1.2-1.2-2-2.4-3.2-3.6-14.8-16.4-34-22.4-55.6-22-33.6 0.4-58.8 16-78 42.4-14.4 20-22 42.8-24 67.2 0 1.2-0.4 2.4-0.8 3.6 0.4 6.4 0.4 12.8 0.4 18.8zM319.2 521.6c0 14-2.8 25.2-8.8 35.6-15.6 28.8-55.6 27.6-71.6 5.2-15.6-22-16-59.6 0-81.2 17.6-24 53.2-23.2 69.6 1.6 8.4 11.6 10.8 24.8 10.8 38.8zM847.2 441.6c-2-8.8-6.4-16.4-14-22-3.2-2.4-6-4.4-9.6-6.4-36-19.2-87.6-20.8-124.8 9.2-22.8 18.4-36 42.8-41.6 71.2-6 32.8-2.8 64 13.6 93.6 21.2 38 54 56.4 97.2 56.8 17.2 0 34.4-2.4 50.8-9.2 6-2.4 11.2-6 16.4-10 6-4.4 9.2-10.8 10.8-18 0-0.8 0.4-1.6 0.8-2.8 0-3.2 0-6 0-9.2-0.4-2-0.8-3.6-1.6-5.6-4-14.8-16.4-23.6-31.6-20.8-6 1.2-12 3.6-17.6 6-9.2 3.6-18.4 5.2-28 4.8-18.8-0.8-33.2-9.6-40.8-26.8-10-22-8.8-44.4 2.4-66 8-15.2 21.6-23.2 38.8-22.4 8 0.4 16.4 2 24.4 4 7.6 2 15.2 5.2 22.8 7.2 2.8 0.8 5.6 0.8 8.4 0 8-1.6 13.6-6.4 17.6-13.2 2.4-4 3.6-8.4 5.2-12.8 0.4-2.4 0.4-5.2 0.4-7.6zM480.4 424c-3.2-4-6-8.8-10-12-18.4-17.2-48-8-54 16.4-0.8 4-1.2 8-1.2 12 0 87.6 0 175.2 0 262.8 0 11.2 2.8 21.6 12 29.2 10 8.8 21.6 10 34 5.6 12-4.4 18.4-14 20.4-26.4 0.4-3.2 0.8-6 0.8-9.2 0-24.4 0-48.8 0-73.2 0-1.2 0-2.4 0-4.4 4.8 3.2 8.8 6 13.2 8.8 15.2 9.2 32 10.8 48.8 9.6 34-2.8 58.8-20.4 76.4-48.4 17.6-27.6 23.2-58 19.6-90-3.2-31.6-15.6-59.2-39.6-80.8-25.2-22.8-54.4-29.6-87.2-21.6-12 2.8-22 10-30.4 19.2-0.8 0.8-1.6 1.6-2.8 2.4 0 0 0 0 0 0zM574.4 522c0 12.4-2.8 24.4-8.8 35.6-16 28-55.2 26.8-70.8 5.2-8.4-11.2-12-24-12.4-37.6-0.4-15.6 2-30.4 11.2-43.6 16.8-23.6 52-24.4 68.8-1.2 8.8 12.4 11.6 26.4 12 41.6z" />
<glyph unicode="&#xe93a;" glyph-name="sticker-image" d="M512 959.6c-282.8 0-512-229.2-512-512s229.2-512 512-512 512 229.2 512 512-229.2 512-512 512zM828.8 130.8c-76.8-76.8-176.8-122.4-284.4-130 5.6 158.8 136.4 286.4 296.4 286.4 28.8 0 57.2-4 84.8-12.4-22-53.2-54.8-102-96.8-144zM847.2 351.2v88.4c0 12.8-7.2 30.4-16 39.2l-177.6 177.6c-9.2 8.8-22.8 8.4-30.8-1.6l-207.6-254.8c-8-10-21.6-10.4-30.4-1.2l-46.8 47.6c-8.8 9.2-23.2 9.2-32 0.4l-72.4-72.4c-8.8-9.2-16-26.8-16-39.2h-0.4v-111.6c0-12.8 10.4-22.8 22.8-22.8h307.2c-40.4-56.4-65.2-125.2-67.2-199.2-107.6 7.6-208 53.2-285.2 130-84 84-130.8 196.4-130.8 316s46.8 232.4 131.2 316.8c84.8 84.8 197.2 131.2 316.8 131.2s232.4-46.8 316.8-131.2c84.8-84.4 131.2-197.2 131.2-316.8 0-38.4-4.8-76-14-112-32 9.6-65.2 14.8-98.8 15.6zM455.6 672.4c0-58.1-47.1-105.2-105.2-105.2s-105.2 47.1-105.2 105.2c0 58.1 47.1 105.2 105.2 105.2s105.2-47.1 105.2-105.2z" />
<glyph unicode="&#xe93b;" glyph-name="context-analyst" d="M563.2 704v-224c0-12.8 6.4-25.6 6.4-32l262.4-422.4c0-6.4 0-12.8 0-12.8 0-6.4-6.4-6.4-12.8-6.4h-608c-6.4 0-12.8 6.4-12.8 6.4s0 6.4 0 12.8l256 422.4c6.4 12.8 12.8 19.2 12.8 32v224h96zM633.6 768h-243.2c-19.2 0-32-12.8-32-32s12.8-32 32-32h6.4v-224l-262.4-422.4c-25.6-51.2 12.8-115.2 70.4-115.2h608c57.6 0 96 64 70.4 115.2l-256 422.4v224h6.4c19.2 0 32 12.8 32 32s-12.8 32-32 32v0 0zM428.8 281.6h172.8c12.8 0 25.6-6.4 32-19.2l89.6-147.2c12.8-25.6-6.4-51.2-32-51.2h-358.4c-25.6 0-44.8 25.6-32 51.2l96 147.2c6.4 12.8 19.2 19.2 32 19.2v0zM352 614.4c0-38.4-32-64-64-64s-64 32-64 64 32 64 64 64 64-25.6 64-64zM550.4 864c0-32-25.6-57.6-57.6-57.6s-57.6 25.6-57.6 57.6 25.6 57.6 57.6 57.6 57.6-32 57.6-57.6zM339.2 851.2c0-57.6-44.8-108.8-108.8-108.8s-108.8 51.2-108.8 108.8 51.2 108.8 108.8 108.8 108.8-51.2 108.8-108.8z" />
<glyph unicode="&#xe93c;" glyph-name="maps" d="M526 245.6c-10.8-21.6-41.2-21.6-52 0-8.4 17.2-17.2 34.8-23.6 47.6-57.2 114.8-114 229.2-170.4 344-67.6 137.2 22.4 297.6 180 321.2 130.8 19.6 250.8-57.6 277.6-179.2 11.2-49.6 4.4-97.6-18.4-143.6-52.8-106.4-147.6-297.6-193.2-390zM584.8 730.4c-0.4 48-40.8 87.2-89.6 84.4-42.8-2.4-77.6-37.6-79.6-80-2.4-48.8 36.4-89.6 84.4-89.6 46.8 0.4 84.8 38.8 84.8 85.2zM1024 695.2c0 2.4 0 4.8 0 7.2-0.8 11.6-5.6 20.8-16.4 26-8.8 4.4-17.2 2.4-26-0.8-64.8-24-129.6-48-194.8-72-0.4-1.2-1.2-2.4-1.6-3.6-14.4-28.8-28.8-57.6-42.8-86.8 70 26 138.8 52.8 209.2 78.8 2.4 0.8 5.2 1.6 8.8 2.4 0-4.4 0-11.2 0-11.2v-527.6c0 0-1.6-10-8.4-12.4l-239.6-84c-2.4-0.8-4.4-1.2-8-2 0 4 0 7.2 0 10.4 0 165.6 0 308 0 468.8-21.2-43.2-42.8-86.4-64-129.6 0-107.6 0-210.4 0-328.8 0-2.8 0-6 0-10-3.2 0.8-5.6 1.2-7.6 2l-273.2 89.2c-5.2 2-7.6 4.4-7.6 10.4 0 85.6 0 164.4 0 242.8-21.2 42.8-42.4 86-63.6 128.8v-368.8c0 0-2.4-11.6-10-14.4l-206-88.4c-2.4-0.8-4.4-1.2-8.4-2.4 0 4 0 7.6 0 10.8-0.8 150.4 0.4 286.8 0 437.2 0 34.8 0.8 58 0 92.8 0 5.6 1.2 8.8 7.2 10.8 59.6 21.2 99.6 40.8 148.8 61.2-3.6 7.6-7.6 15.2-11.2 22.8-6.4 12.8-11.2 25.2-15.6 38-48.4-19.6-94-39.2-150-58.4-29.6-10.4-43.2-29.2-43.2-60.4 0-100.4 0-201.2 0-301.6 0-101.2 0-202.8 0-304 0-26 17.6-38.4 42-29.6 97.2 36 168.4 72 265.6 107.6 4.4 1.6 19.6 2 24 0.4 98-34.4 212.4-68.8 310.4-103.6 30.8-10.8 61.2-9.6 92 4 77.6 34.4 157.2 62.8 239.6 82.8 32.8 8 50.8 32.4 50.8 64.4-0.8 200.4-0.4 400.8-0.4 600.8z" />
<glyph unicode="&#xe93d;" glyph-name="archive" d="M1024 640h-1024l-0.4 252.8c0 36.8 30.4 67.2 67.6 67.2h890c37.2 0 67.2-30 67.2-67.2v-252.8zM64 704h896v188.8c0 1.6-1.6 3.2-3.2 3.2h-889.6c-1.6 0-3.2-1.6-3.2-3.2v-188.8zM894.4-64.8h-761.6c-37.2 0-68.8 31.6-68.8 68.8v700h896l1.6-701.6c0-36.8-30-67.2-67.2-67.2zM128 640l1.2-637.2c0-2 1.6-3.2 3.2-3.2h762c1.6 0 1.6 1.6 1.6 3.2v637.2h-768zM256 384v-256h512v256h-512zM576 272.4c0 8.8 7.2 15.6 15.6 15.6h0.8c8.8 0 15.6-7.2 15.6-15.6v-0.8c0-8.8-7.2-15.6-15.6-15.6h-0.8c-8.8 0-15.6 7.2-15.6 15.6v0.8zM336 288h160c8.8 0 16-7.2 16-16s-7.2-16-16-16h-160c-8.8 0-16 7.2-16 16s7.2 16 16 16zM528 192h-192c-8.8 0-16 7.2-16 16s7.2 16 16 16h192c8.8 0 16-7.2 16-16s-7.2-16-16-16zM688 192h-96c-8.8 0-16 7.2-16 16s7.2 16 16 16h96c8.8 0 16-7.2 16-16s-7.2-16-16-16zM704 800v0c0 17.6-14.4 32-32 32h-320c-17.6 0-32-14.4-32-32v0c0-17.6 14.4-32 32-32h320c17.6 0 32 14.4 32 32z" />
<glyph unicode="&#xe93e;" glyph-name="archive-out" d="M768 384h-512v-256h512v256zM576 272.4c0 8.8 7.2 15.6 15.6 15.6h0.8c8.8 0 15.6-7.2 15.6-15.6v-0.8c0-8.8-7.2-15.6-15.6-15.6h-0.8c-8.8 0-15.6 7.2-15.6 15.6v0.8zM336 288h160c8.8 0 16-7.2 16-16s-7.2-16-16-16h-160c-8.8 0-16 7.2-16 16s7.2 16 16 16zM528 192h-192c-8.8 0-16 7.2-16 16s7.2 16 16 16h192c8.8 0 16-7.2 16-16s-7.2-16-16-16zM688 192h-96c-8.8 0-16 7.2-16 16s7.2 16 16 16h96c8.8 0 16-7.2 16-16s-7.2-16-16-16zM928 640h-64c-17.6 0-32-14.4-32-32v0c0-17.6 14.4-32 32-32h32v-573.2c0-1.6-1.6-3.2-3.2-3.2h-760.4c-1.6 0-3.2 1.2-3.2 3.2l-1.2 573.2h32c17.6 0 32 14.4 32 32v0c0 17.6-14.4 32-32 32h-64c-17.6 0-32-14.4-32-32v-604c0-38 30.8-68.8 68.8-68.8h761.6c37.2 0 67.2 30.4 67.2 67.2l-1.6 605.6c0 17.6-14.4 32-32 32zM316.4 680l161.6 160.8v-355.2c0-19.2 15.6-34.4 34.8-34.4s34.8 15.2 34.8 34.4v355.2l161.6-160.8c6.8-6.8 15.6-10.4 24.4-10.4 9.2 0 17.6 3.2 24.4 10.4 13.6 13.6 13.6 35.2 0 48.8l-220.8 220c-6.4 6.4-15.6 10.4-24.4 10.4-9.2 0-18-3.6-24.4-10.4l-220.8-220c-13.6-13.6-13.6-35.2 0-48.8 13.2-13.2 35.6-13.2 48.8 0z" />
<glyph unicode="&#xe93f;" glyph-name="archive-in" d="M768 384h-512v-256h512v256zM576 272.4c0 8.8 7.2 15.6 15.6 15.6h0.8c8.8 0 15.6-7.2 15.6-15.6v-0.8c0-8.8-7.2-15.6-15.6-15.6h-0.8c-8.8 0-15.6 7.2-15.6 15.6v0.8zM336 288h160c8.8 0 16-7.2 16-16s-7.2-16-16-16h-160c-8.8 0-16 7.2-16 16s7.2 16 16 16zM528 192h-192c-8.8 0-16 7.2-16 16s7.2 16 16 16h192c8.8 0 16-7.2 16-16s-7.2-16-16-16zM688 192h-96c-8.8 0-16 7.2-16 16s7.2 16 16 16h96c8.8 0 16-7.2 16-16s-7.2-16-16-16zM926.8 640h-62.8c-17.6 0-32-14.4-32-32v0c0-17.6 14.4-32 32-32h32v-573.2c0-1.6-1.6-3.2-3.2-3.2h-760.4c-1.6 0-3.2 1.2-3.2 3.2l-1.2 573.2h32c17.6 0 32 14.4 32 32v0c0 17.6-14.4 32-32 32h-62.4c-18.4 0-33.6-14.8-33.6-33.6v-602.4c0-38 30.8-68.8 68.8-68.8h761.6c37.2 0 67.2 30.4 67.2 67.2l-1.6 604.4c0 18.4-14.8 33.2-33.2 33.2zM709.2 730l-161.6-160.8v355.2c0 19.2-15.6 34.4-34.8 34.4s-34.8-15.2-34.8-34.4v-355.2l-161.6 160.8c-6.8 6.8-15.6 10.4-24.4 10.4-9.2 0-17.6-3.2-24.4-10.4-13.6-13.6-13.6-35.2 0-48.8l220.8-220c6.4-6.4 15.6-10.4 24.4-10.4 9.2 0 18 3.6 24.4 10.4l220.8 220c13.6 13.6 13.6 35.2 0 48.8-13.2 13.2-35.6 13.2-48.8 0z" />
<glyph unicode="&#xe940;" glyph-name="za" d="M1025.272 707.128l-256 252.8c-0.8 0.8-2 0.8-2.8 0l-254.8-252.8c-1.2-1.2-0.4-3.2 1.6-3.2h190.8v-704.104c0-35.2 28.8-64 64-64s64 28.8 64 64v704.104h192c1.2 0 2 2 1.2 3.2zM5.6 538.46c0 5.64 1.956 12.808 5.864 21.504l158.996 359.048c11.732 26.492 31.28 39.752 58.648 39.752h5.864c26.932 0 46.264-13.256 57.996-39.752l159-359.048c3.472-7.82 5.212-14.56 5.212-20.2 0-13.472-4.564-24.876-13.684-34.212-9.124-9.348-20.424-14.012-33.884-14.012-22.156 0-38.232 11.504-48.22 34.536l-30.628 71.68h-200.704l-31.928-74.936c-9.124-20.852-24.548-31.276-46.264-31.276-13.032 0-24.008 4.564-32.908 13.684-8.912 9.12-13.36 20.2-13.36 33.232zM167.204 686.376h126.416l-63.208 150.528-63.208-150.528zM68.756-63.8c-12.168 0-22.592 4.336-31.276 13.032-8.696 8.688-13.032 19.112-13.032 31.28v1.952c0 16.94 6.080 32.584 18.248 46.916l236.54 274.988h-202.656c-12.168 0-22.592 4.236-31.28 12.708-8.692 8.468-13.032 18.784-13.032 30.952 0 12.156 4.336 22.584 13.032 31.276 8.684 8.684 19.112 13.032 31.28 13.032h291.28c12.156 0 22.584-4.348 31.276-13.032 8.684-8.696 13.032-19.12 13.032-31.276v-1.956c0-16.516-6.088-32.152-18.248-46.916l-236.54-274.988h210.476c12.156 0 22.584-4.348 31.276-13.032 8.684-8.696 13.032-19.12 13.032-31.276 0-12.168-4.348-22.48-13.032-30.952-8.696-8.472-19.12-12.708-31.276-12.708h-299.1z" />
<glyph unicode="&#xe941;" glyph-name="translator" d="M690.476 508.524h102.676l-51.336 122.26zM899.932 797.804c-104.596 110.552-236.992 157.556-383.956 160.864-142.328-1.988-266.78-43.032-369.388-139.68-106.584-100.624-154.244-224.416-127.104-370.716 23.168-126.44 99.3-218.456 207.204-285.32 75.468-46.34 158.216-70.832 246.26-76.128 21.184-0.664 39.056-6.62 56.268-19.86 54.284-41.044 109.228-80.764 164.176-121.144 11.252-8.604 22.508-11.916 35.084-3.972 11.916 7.944 15.228 19.196 12.576 33.1-7.944 43.692-13.9 87.384-21.184 131.076-1.984 11.916 0 18.536 12.58 23.832 45.676 18.536 87.384 44.352 125.78 76.128 188.668 155.564 207.864 415.728 41.704 591.82zM472.804 366.628c-32.18-26.144-70.392-39.552-110.612-46.256-16.76-2.68-31.508 7.376-34.188 22.792-2.68 16.088 6.704 28.156 23.464 33.52 23.464 6.704 47.596 13.408 69.048 24.132 33.52 17.428 46.928 45.584 40.892 77.092-6.032 30.836-32.18 53.632-64.356 58.992-24.132-36.2-45.584-71.732-67.708-103.24-27.484-36.2-62.344-64.356-106.592-79.104-61.004-20.112-114.636 13.408-123.352 76.424-4.024 27.484 5.364 52.96 24.804 70.388 23.464 21.452 50.28 38.212 76.424 56.312 6.704 5.364 10.728 8.716 10.728 18.1-0.672 21.452 0 42.904 0 64.356-24.132 4.692-49.608 9.384-75.084 15.42-12.736 2.68-21.452 12.736-19.44 25.476 1.34 9.384 7.376 20.112 14.748 25.476 6.704 4.692 18.1 2.68 27.484 1.34 21.452-2.68 42.904-6.704 65.028-10.728 4.692 16.088 8.044 30.168 12.068 44.244 5.364 18.772 20.112 28.156 36.2 23.464s23.464-20.112 18.772-38.884c-2.012-7.376-4.024-14.076-7.376-24.804 22.792 3.352 43.576 5.364 63.688 9.384 30.836 6.032 61.676 14.080 91.844 21.452 20.78 5.364 36.2-1.34 40.892-18.1 4.692-17.428-4.024-32.848-24.804-36.872-54.972-12.068-110.612-22.124-166.256-32.18-11.396-2.012-18.1-4.024-18.1-17.428 0-12.736-2.012-26.144-3.352-39.552 28.828 4.024 56.984 7.376 83.796 12.736 4.692 0.672 7.376 10.728 11.396 16.088 6.704 8.044 13.408 19.44 22.792 23.464 18.1 6.704 36.2-10.728 34.188-30.168-0.672-5.364-2.012-10.728-3.352-16.088 12.736-5.364 25.476-10.056 36.872-16.088 81.12-43.564 91.848-152.836 19.444-211.16zM887.364 350.272c-17.996 0-31.052 9.344-39.164 28.052l-24.876 58.22h-163.012l-25.932-60.864c-7.412-16.936-19.94-25.404-37.58-25.404-10.584 0-19.5 3.704-26.728 11.116-7.236 7.412-10.848 16.408-10.848 26.992 0 4.58 1.588 10.404 4.764 17.468l129.14 291.624c9.528 21.516 25.404 32.284 47.636 32.284h4.764c21.876 0 37.576-10.768 47.104-32.284l129.14-291.624c2.82-6.352 4.236-11.824 4.236-16.408 0-10.944-3.704-20.204-11.116-27.788-7.416-7.596-16.596-11.384-27.528-11.384zM218.58 509.94c7.376-26.816 14.076-48.936 18.772-71.060 0.672-4.024-1.34-11.396-4.692-13.408-9.384-5.364-20.112-10.728-30.168-13.408-14.748-3.352-28.156 0-36.2 13.408s-8.716 28.156 2.012 38.884c14.744 16.76 32.176 30.164 50.276 45.584zM289.64 473.068c-2.68 4.692-3.352 5.364-3.352 5.364-16.76 51.62-8.716 62.344 50.28 65.696-16.092-24.132-30.84-46.256-46.928-71.060z" />
<glyph unicode="&#xe942;" glyph-name="category-tree" d="M982.4 192h-54.4v116.968c0 23.736-19.24 42.976-42.976 42.976h-341.024v96.14h140.808c46.396 0 83.192 37.544 83.192 83.080v345.092c0 45.532-37.596 83.080-83.192 83.080h-345.572c-45.596 0-83.196-37.544-83.196-83.080v-345.096c0-46.332 37.596-83.080 83.192-83.080h140.768v-96.14h-336.148c-25.324 0-45.856-20.532-45.856-45.856v-18.144h0.004v-95.94h-56.4c-22.88 0-41.6-18.72-41.6-41.6v-172.8c0-23.2 18.8-41.6 41.6-41.6h172.8c23.2 0 41.6 18.8 41.6 41.6v172.8c0 23.2-18.8 41.6-41.6 41.6h-52.4v95.944h318v-95.944h-54.4c-23.2 0-41.6-18.8-41.6-41.6v-172.8c0-23.2 18.8-41.6 41.6-41.6h172.8c23.2 0 41.6 18.8 41.6 41.6v172.8c0 23.2-18.8 41.6-41.6 41.6h-54.4v95.944h320v-95.944h-54.4c-23.2 0-41.6-18.8-41.6-41.6v-172.8c0-23.2 18.8-41.6 41.6-41.6h172.8c23.2 0 41.6 18.8 41.6 41.6v172.8c0 22.88-18.72 41.6-41.6 41.6z" />
<glyph unicode="&#xe943;" glyph-name="az" d="M511.428 189.22l256-252.8c0.8-0.8 2-0.8 2.8 0l254.8 252.8c1.2 1.2 0.4 3.2-1.6 3.2h-190.8v704.108c0 35.2-28.8 64-64 64s-64-28.8-64-64v-704.104h-192c-1.2-0.004-2-2.004-1.2-3.204zM5.6 538.46c0 5.64 1.956 12.808 5.864 21.504l158.996 359.048c11.732 26.492 31.28 39.752 58.648 39.752h5.864c26.932 0 46.264-13.256 57.996-39.752l159-359.048c3.472-7.82 5.212-14.56 5.212-20.2 0-13.472-4.564-24.876-13.684-34.212-9.124-9.348-20.424-14.012-33.884-14.012-22.156 0-38.232 11.504-48.22 34.536l-30.628 71.68h-200.704l-31.928-74.936c-9.124-20.852-24.548-31.276-46.264-31.276-13.032 0-24.008 4.564-32.908 13.684-8.912 9.12-13.36 20.2-13.36 33.232zM167.204 686.376h126.416l-63.208 150.528-63.208-150.528zM68.756-63.8c-12.168 0-22.592 4.336-31.276 13.032-8.696 8.688-13.032 19.112-13.032 31.28v1.952c0 16.94 6.080 32.584 18.248 46.916l236.54 274.988h-202.656c-12.168 0-22.592 4.236-31.28 12.708-8.692 8.468-13.032 18.784-13.032 30.952 0 12.156 4.336 22.584 13.032 31.276 8.684 8.684 19.112 13.032 31.28 13.032h291.28c12.156 0 22.584-4.348 31.276-13.032 8.684-8.696 13.032-19.12 13.032-31.276v-1.956c0-16.516-6.088-32.152-18.248-46.916l-236.54-274.988h210.476c12.156 0 22.584-4.348 31.276-13.032 8.684-8.696 13.032-19.12 13.032-31.276 0-12.168-4.348-22.48-13.032-30.952-8.696-8.472-19.12-12.708-31.276-12.708h-299.1z" />
<glyph unicode="&#xe944;" glyph-name="image-text, image_and_richtext" d="M960 832v-512h-896v512h896zM979.6 896h-935.2c-24.4 0-44.4-19.6-44.4-44v-551.6c0-24.4 20-44.4 44.4-44.4h935.6c24.4 0 44.4 20 44.4 44.4v551.6c-0.4 24.4-20.4 44-44.8 44v0zM33.6 192h957.6c17.6-0.4 32-14.4 32-32v0c0-17.6-14.4-32.4-32-32h-957.6c-17.6-0.4-32 14-32 32v0c0 18 14.4 31.6 32 32zM33.6 64h957.6c17.6 0 32-14 32-31.6v0c0-17.6-14.4-32.4-32-32.4h-957.6c-17.6 0-32 14.4-32 32.4v0c0 18 14.4 31.6 32 31.6z" />
<glyph unicode="&#xe945;" glyph-name="separator-text, separator" d="M224 449.2h576c17.6 0 32-14 32-31.6v0c0-17.6-14.4-32.4-32-32.4h-576c-17.6 0-32 14.4-32 32.4v0c0 18 14.4 31.6 32 31.6zM958.8 513.2v-192h-894.8v192h894.8zM984.4 577.2h-946c-21.2 0-38.4-17.2-38.4-38.4v-243.2c0-21.2 17.2-38.4 38.4-38.4h946c21.2 0 38.4 17.2 38.4 38.4v243.2c0 21.2-17.2 38.4-38.4 38.4v0z" />
<glyph unicode="&#xe946;" glyph-name="link, links" d="M630 424c5.6 4 8.8 6 11.6 8.8 63.6 63.6 127.6 127.2 191.2 191.2 34.4 34.4 34.4 73.2-0.4 108-12.4 12.4-24.4 24.4-36.8 36.8-34 34-73.2 34.4-107.2 0.4-64-64-128-128-191.6-192-2.8-2.8-4.4-6.4-7.6-9.2-10.8 22.8-14.4 44.8-13.2 67.6 2 45.2 18.8 84 51.2 115.6 31.6 31.2 62.4 62.8 94 94 68.4 67.6 174 67.6 242.4-0.4 16-15.6 31.6-31.6 47.2-47.6 65.6-66.4 66-172 0.4-238.8-32.8-33.6-65.6-67.2-99.6-99.2-48.4-45.6-105.6-58-169.2-40-2.8 1.2-5.6 2.4-12.4 4.8zM394.4 472.4c-3.6-2.8-7.2-4.8-10-7.2-64-64-128-128-192-191.6-33.6-33.6-33.2-72.8 0-106.4 13.6-14 27.6-27.6 41.2-41.2 29.6-29.2 70.8-29.2 100.4 0.4 65.2 64.8 130 130 194.8 194.8 2.8 2.8 4.4 6.4 7.6 8.8 10.4-20.4 13.6-40.4 13.2-60.8-0.4-45.2-15.2-84.8-46.8-117.6-33.6-34.4-67.6-68.8-102.4-102.4-64.4-63.2-168.4-62.8-234 0-18 17.6-36 35.2-53.2 53.6-62.8 65.2-62.8 169.6 0 234.8 33.6 34.8 67.2 69.2 102.4 102 48.4 45.2 105.6 56.4 168.8 38.8 2-0.4 4-1.2 6-2 0.4-0.4 1.2-1.2 4-4zM713.6 580.8c0.4-18-6-33.6-18.4-46-88.8-88.8-177.2-177.6-266.4-266.4-26.4-26.4-68.4-25.2-94.8 1.6s-27.6 68-0.8 94.8c88.4 88.8 176.8 177.2 265.6 265.6 20 20 48.4 24.8 73.6 13.6 24.8-10.8 41.2-35.6 41.2-63.2z" />
<glyph unicode="&#xe947;" glyph-name="text, richtext" d="M73.2 183.6c0 7.2 2.4 16 7.2 26.8l198 447.2c14.4 32.8 38.8 49.6 73.2 49.6h7.2c33.6 0 57.6-16.4 72-49.6l198-446.8c4.4-9.6 6.4-18 6.4-25.2 0-16.8-5.6-30.8-17.2-42.4-11.2-11.6-25.6-17.6-42-17.6-27.6 0-47.6 14.4-60 42.8l-38 89.2h-250l-39.6-93.2c-11.2-26-30.4-38.8-57.6-38.8-16.4 0-30 5.6-40.8 17.2-11.2 10.8-16.8 24.8-16.8 40.8zM274.4 368h157.2l-78.8 187.2-78.4-187.2zM864.4 128h-32.4v576h32.4c17.6 0 32 14.4 32 32s-14.4 32-32 32h-128c-17.6 0-32-14.4-32-32s14.4-32 32-32h32v-576h-32c-17.6 0-32-14.4-32-32v0c0-17.6 14.4-32 32-32h128c17.6 0 32 14.4 32 32v0c0 17.6-14.4 32-32 32z" />
<glyph unicode="&#xe948;" glyph-name="product, product_store" d="M742.4 256h-460.8c-12.8 0-25.6-12.8-25.6-25.6v-83.2c0-12.8 12.8-19.2 25.6-19.2h460.8c12.8 0 25.6 6.4 25.6 19.2v83.2c0 12.8-12.8 25.6-25.6 25.6zM64 851.2v-812.8c0-19.2 19.2-38.4 44.8-38.4h806.4c25.6 0 44.8 19.2 44.8 44.8v812.8c-6.4 19.2-25.6 38.4-44.8 38.4h-812.8c-19.2 0-38.4-19.2-38.4-44.8zM896 832v-448h-768v448h768zM896 320v-256h-768v256h768z" />
<glyph unicode="&#xe949;" glyph-name="vertical, vertical_text" d="M979.6 704h-807.2c-24.4 0-44.4-19.6-44.4-44v-423.6c0-24.4 20-44.4 44.4-44.4h807.6c24.4 0 44.4 20 44.4 44.4v423.6c-0.4 24.4-20.4 44-44.8 44zM960 256h-768v384h768v-384zM192 640h768zM0 225.2v448c0 17.6 14 32 31.6 32v0c17.6 0 32.4-14.4 32.4-32v-448c0-17.6-14.4-32-32.4-32v0c-18 0-31.6 14.4-31.6 32z" />
<glyph unicode="&#xe94a;" glyph-name="vertical-big, vertical_text_big" d="M979.6 896h-807.2c-24.4 0-44.4-19.6-44.4-44v-807.6c0-24.4 20-44.4 44.4-44.4h807.6c24.4 0 44.4 20 44.4 44.4v807.6c-0.4 24.4-20.4 44-44.8 44zM960 64h-768v192h768v-192zM960 448.8v-128.8h-768v512h768v-383.2zM0 289.2v576c0 17.6 14 32 31.6 32v0c17.6 0 32.4-14.4 32.4-32v-576c0-17.6-14.4-32-32.4-32v0c-18 0-31.6 14.4-31.6 32z" />
<glyph unicode="&#xe94b;" glyph-name="video" d="M979.2 896h-934.4c-25.6 0-44.8-19.2-44.8-44.8v-806.4c0-25.6 19.2-44.8 44.8-44.8h934.4c25.6 0 44.8 19.2 44.8 44.8v806.4c0 25.6-19.2 44.8-44.8 44.8zM960 64h-896v768h896v-768zM320 614.4c0 19.2 19.2 32 38.4 25.6l332.8-166.4c19.2-6.4 19.2-38.4 0-51.2l-313.6-160c-32-6.4-57.6 6.4-57.6 38.4v313.6z" />
<glyph unicode="&#xe94c;" glyph-name="cache" d="M490.8-64c-271.2 0.8-491.2 230.4-491.2 512s220 511.2 491.2 512c30.4 0 56.4-23.6 57.6-54 1.2-32-24.4-58-56-58-210 0-380.8-179.6-380.8-400s170.8-400 380.8-400c31.6 0 57.2-26.4 56-58-1.2-30.4-27.2-54-57.6-54zM314.4 161.6c-15.2 0-30.8 6.4-41.6 18.8-62.4 69.6-96.8 159.2-96.8 252 0 209.2 171.2 379.6 382 379.6 22.8 0 45.6-2 68.4-6 30.4-5.2 52.4-33.2 48-63.6-4.8-31.6-34.4-52.8-65.6-47.2-16.8 3.2-34 4.8-50.8 4.8-148.8 0-270-120-270-267.6 0-65.2 24-127.6 67.6-176.8 20-22.4 19.6-57.2-2-78.4-11.2-10.4-25.2-15.6-39.2-15.6zM402 342.4c-30.8 0-56 25.2-56 56 0 94 46 172 123.2 209.6 76.4 36.8 167.2 28.8 236.4-20.8 25.2-18 31.2-53.2 12.8-78.4-18-24.8-53.6-29.6-78.8-12-36 25.2-82.4 29.2-121.6 10-54.4-26-60-84.4-60-108.4 0-30.8-24.8-56-56-56v0z" />
<glyph unicode="&#xe94d;" glyph-name="button" d="M912.4 577.2h-800.8c-26.4 0-47.6-21.2-47.6-47.6v-160.8c0-26.4 21.2-47.6 47.6-47.6h800.8c26.4 0 47.6 21.2 47.6 47.6v160.8c0 26.4-21.2 47.6-47.6 47.6z" />
<glyph unicode="&#xe94e;" glyph-name="hero" d="M979.2 639.6h-934.8c-24.4 0-44.4-19.6-44.4-44v-359.2c0-24.4 20-44.4 44.4-44.4h935.2c24.4 0 44.4 20 44.4 44.4v359.2c-0.4 24.4-20.4 44-44.8 44zM960 256h-896v64h896v-64zM960 384h-896v192h896v-192z" />
<glyph unicode="&#xe94f;" glyph-name="full-overlay, full_overlay" d="M979.6 896h-935.2c-24.4 0-44.4-19.6-44.4-44v-807.6c0-24.4 20-44.4 44.4-44.4h935.6c24.4 0 44.4 20 44.4 44.4v807.6c-0.4 24.4-20.4 44-44.8 44zM960 64h-896v192h896v-192zM960 448.8v-128.8h-896v512h896v-383.2z" />
<glyph unicode="&#xe950;" glyph-name="youtube" d="M868 790c-26.8 8.8-191.2 18-356 18s-329.2-8.8-356-18c-71.2-22-88.8-177.6-88.8-338s18-316 88.8-338.4c26.8-8.8 191.2-17.6 356-17.6s329.2 8.8 356 17.6c71.2 22.4 88.8 178 88.8 338.4s-17.6 316-88.8 338zM423.2 251.6v400.8l267.2-200.4-267.2-200.4z" />
<glyph unicode="&#xe951;" glyph-name="cta" d="M979.6 896h-935.2c-24.4 0-44.4-19.6-44.4-44v-807.6c0-24.4 20-44.4 44.4-44.4h935.6c24.4 0 44.4 20 44.4 44.4v807.6c-0.4 24.4-20.4 44-44.8 44zM64 832h896v-639.2h-398.4c-27.2 0-49.2-22-49.2-49.2v-79.6h-448.4v768z" />
<glyph unicode="&#xe952;" glyph-name="standard" d="M979.6 896h-935.2c-24.4 0-44.4-19.6-44.4-44v-807.6c0-24.4 20-44.4 44.4-44.4h935.6c24.4 0 44.4 20 44.4 44.4v807.6c-0.4 24.4-20.4 44-44.8 44zM64 832h896v-383.2h-398.4c-27.2 0-49.2-22-49.2-49.2v-80h-448.4v512.4zM64 64v192h896v-192h-896z" />
<glyph unicode="&#xe953;" glyph-name="image" d="M960 896c37.6 0 64-26.4 64-64v-768c0-42.4-21.6-64-64-64h-896c-42.4 0-64 21.6-64 64v768c0 42.4 21.6 64 64 64h896v-64h-896v-768h896v832zM256 576c-35.2 0-64-28.8-64-64s28.8-64 64-64 64 28.8 64 64-28.8 64-64 64zM128 256v-128h768v320l-256 192-256-320-128 64-128-128z" />
<glyph unicode="&#xe954;" glyph-name="preview-stroked" d="M256.936 280.016c-72.52 37.124-137.612 90.572-187.736 155.184-6.8 8.8-6.8 20.8 0 29.6 51.2 66 118 120.4 192.4 157.6 5.6 2.8 10.8 5.2 16.4 8-39.6-51.2-61.6-114.8-61.6-180.4 0-57.988 17.216-114.084 48.556-161.964l46.7 46.7c-19.588 33.948-30.856 73.288-30.856 115.264 0 127.6 103.6 231.2 231.2 231.2 41.976 0 81.316-11.268 115.264-30.856l67.968 67.968c-56.488 17.376-115.132 26.528-175.232 27.288-2.8 0-13.2 0-16 0-95.2-1.6-186.4-23.6-270.8-65.6-83.2-41.6-157.2-102.4-214.4-175.6-24.8-32-24.8-76.8 0-108.8 51.7-66.164 117.16-122.144 190.7-163.024l47.436 47.44zM1005.2 504.4c-50.076 64.080-113.024 118.66-183.752 159.172l103.12 103.12-45.256 45.256-722.66-722.664 45.256-45.256 135.204 135.204c53.916-15.768 109.74-24.112 166.888-24.836 1.6 0 4.8 0 8 0s6.4 0 7.6 0c95.2 1.2 186.4 23.2 271.2 65.6 82.8 41.6 157.2 102 214.4 175.6 25.2 32.004 25.2 76.804 0 108.804zM512 218.8c-39.148 0-76.012 9.776-108.332 26.992l312.54 312.54c17.216-32.316 26.992-69.184 26.992-108.332 0-127.6-103.6-231.2-231.2-231.2zM954.8 435.2c-51.2-66-118-120.4-192.4-157.6-5.6-2.8-10.8-5.2-16.4-8 39.6 51.2 61.6 114.8 61.6 180.4 0 55.34-15.708 108.94-44.38 155.344l10.96 10.96c69.66-36.94 132.14-89.008 180.62-151.5 6.8-8.804 6.8-20.804 0-29.604zM433.056 365.624c20.7-19.368 48.48-31.224 78.944-31.224 64 0 115.6 52 115.6 115.6 0 30.46-11.856 58.244-31.224 78.944l-163.32-163.32zM539.26 562.336c-8.74 2.112-17.86 3.264-27.26 3.264-64 0-115.6-52-115.6-115.6 0-9.4 1.152-18.52 3.264-27.26l139.596 139.596z" />
<glyph unicode="&#xe955;" glyph-name="gondola, gondola_end" d="M960 832v-768h-896v768h896zM979.6 896h-935.2c-24.4 0-44.4-19.6-44.4-44v-807.6c0-24.4 20-44.4 44.4-44.4h935.6c24.4 0 44.4 20 44.4 44.4v807.6c-0.4 24.4-20.4 44-44.8 44v0zM484.124 593.244c0-20.232-3.612-38.296-10.836-54.912-7.224-16.62-16.62-31.068-28.9-42.628-12.284-11.56-26.012-20.952-41.908-27.456s-32.512-10.116-49.856-10.116c-18.784 0-36.848 3.612-52.744 10.116s-29.624 15.896-41.184 27.456c-11.56 11.56-20.952 26.012-27.456 42.628-6.504 16.62-10.116 34.68-10.116 54.912 0 20.952 3.612 39.74 10.116 56.356 6.504 16.62 15.896 31.068 27.456 43.352s25.288 21.676 41.184 28.18c15.896 6.504 33.236 10.116 52.744 10.116 18.784 0 36.848-3.612 52.744-10.116s30.348-15.896 41.908-28.18c11.56-12.284 20.952-26.732 27.456-43.352 5.78-16.62 9.392-35.404 9.392-56.356zM656.088 708.124c3.612 4.336 8.672 7.948 13.728 11.56 5.78 3.612 13.004 5.78 23.12 5.78h85.26l-412.568-531.060c-3.612-5.056-8.672-8.672-14.452-11.56-5.78-2.892-12.284-5.056-20.232-5.056h-87.424l412.568 530.336zM394.528 593.244c0 13.004-0.724 23.12-2.892 31.792s-5.056 15.172-8.672 20.232c-3.612 5.056-7.948 8.672-13.004 10.836-5.056 2.168-10.84 2.892-16.62 2.892s-11.56-0.724-16.62-2.892c-5.056-2.168-9.392-5.78-13.004-10.836s-6.504-11.56-7.948-20.232c-2.168-8.672-2.892-18.784-2.892-31.792 0-12.284 0.724-22.4 2.892-30.348s5.056-14.452 7.948-19.508c3.612-5.056 7.948-7.948 13.004-10.116s10.84-2.892 16.62-2.892 11.56 0.724 16.62 2.892c5.056 2.168 9.392 5.056 13.004 10.116 3.612 5.056 6.504 10.836 8.672 19.508 2.172 7.948 2.892 18.064 2.892 30.348zM799.148 306.396c0-20.232-3.612-38.296-10.84-54.912-7.224-16.62-16.62-31.068-28.9-42.628-12.284-11.56-26.012-20.952-41.908-27.456s-32.512-10.116-49.856-10.116c-18.784 0-36.848 3.612-52.744 10.116s-29.624 15.896-41.184 27.456c-11.56 11.56-20.952 26.012-27.456 42.628-6.504 16.62-10.116 34.68-10.116 54.912 0 20.952 2.892 39.74 10.116 56.356 6.504 16.62 15.896 31.068 27.456 43.352s25.288 21.676 41.184 28.18 33.236 10.116 52.744 10.116 36.848-3.612 52.744-10.116 30.348-15.896 41.908-28.18 20.952-26.732 27.456-43.352c5.784-16.616 9.396-35.4 9.396-56.356zM709.556 306.396c0 12.284-0.724 23.12-2.892 31.068-2.168 8.672-5.056 15.172-8.672 20.232-3.612 5.056-7.948 8.672-13.004 10.836-5.056 2.168-10.84 2.892-16.62 2.892s-11.56-0.724-16.62-2.892c-5.056-2.168-9.392-5.78-13.004-10.836s-6.504-11.56-7.948-20.232c-2.168-8.672-2.892-18.784-2.892-31.068s0.724-22.4 2.892-30.348c2.168-7.948 5.056-14.452 7.948-19.508 3.612-5.056 7.948-7.948 13.004-10.116s10.84-2.892 16.62-2.892 11.56 0.724 16.62 2.892c5.056 2.168 9.392 5.056 13.004 10.116 3.612 5.056 6.504 10.84 8.672 19.508 2.168 8.672 2.892 18.788 2.892 30.348z" />
<glyph unicode="&#xe956;" glyph-name="home" d="M986.304 421.46l-154.304 154.492-0.032 247.604c0 4.656-3.776 8.428-8.432 8.432l-110.816 0.012c-4.816 0-8.72-3.904-8.72-8.72l0.008-119.64-161.408 160.496c-18.356 18.32-48.104 18.248-66.372-0.164l-436.852-440.268c-14.552-14.664-4.164-39.608 16.496-39.608h97.74c0 0 0-11.608 0-19.096 0-110.428 0.212-220.856-0.236-331.28-0.064-15.704 3.56-27.576 18.976-33.72h211.648v206.552c0 27.308 22.14 49.448 49.448 49.448h157.104c27.308 0 49.448-22.14 49.448-49.448v-206.552h210.624c15.336 6.248 18.932 18.164 18.868 33.828-0.44 109.784-0.232 219.568-0.232 329.352 0 7.552 0 20.8 0 20.8h101.504c19.56 0 29.36 23.644 15.54 37.48z" />
<glyph unicode="&#xe957;" glyph-name="overlay" d="M960 832v-768h-896v768h896zM979.6 896h-935.2c-24.4 0-44.4-19.6-44.4-44v-807.6c0-24.4 20-44.4 44.4-44.4h935.6c24.4 0 44.4 20 44.4 44.4v807.6c-0.4 24.4-20.4 44-44.8 44v0zM768 384v-192h-512v192h512zM779.2 448h-534.8c-29.2 0-52.8-23.6-52.8-52.8v-214.8c0-29.2 23.6-52.8 52.8-52.8h534.8c29.2 0 52.8 23.6 52.8 52.8v214.8c0 29.2-23.6 52.8-52.8 52.8v0z" />
<glyph unicode="&#xe958;" glyph-name="enter" d="M959.792 637.26c0.136 1.704 0.264 3.412 0.264 5.148 0 35.2-28.8 64-64 64h-258.304c-35.2 0-64-28.8-64-64s28.8-64 64-64h194.044v-194.252h-511.036v192l-3.204 1.2-252.8-256c-0.8-0.8-0.8-2 0-2.8l252.8-254.8c1.2-1.2 3.2-0.4 3.2 1.6v190.536l575.188 0.008c6.024 0.016 11.84 0.916 17.376 2.508 0.464 0.128 0.956 0.224 1.412 0.364 0.476 0.148 0.924 0.348 1.396 0.508 1.216 0.416 2.436 0.828 3.592 1.32 23.428 9.528 40.076 32.544 40.076 59.292v258.312c0 0 0 0.004 0 0.004v59.052z" />
<glyph unicode="&#xe959;" glyph-name="header" d="M960 192l-895.936-0.008c-37.44-0.064-64.064 26.652-64.064 64.016v384c0 37.368 26.636 63.992 63.936 63.992h896.064c37.428 0 64-26.624 64-63.992v-384.020c0-37.36-26.688-63.988-64-63.988zM71.564 640c-4.156 0-7.564-3.368-7.564-7.52v-369.020c0-4.152 3.376-7.528 7.592-7.468h880.972c4.088-0.064 7.468 3.316 7.468 7.468v369.020c0 4.152-3.38 7.52-7.528 7.52h-880.94zM448 320h-256c-39.624 0-64 24.364-64 64.064v128c0 39.7 24.3 63.936 64 63.936h256c39.7 0 64-24.216 64-63.916v-128c0-39.7-24.168-64.084-64-64.084zM200 512c-4.412 0-8-3.588-8-8v-112c0-4.412 3.588-8 8-8h240c4.412 0 8 3.588 8 8v111.916c0 4.412-3.712 8.084-8.124 8.084h-239.876z" />
<glyph unicode="&#xe95a;" glyph-name="iframe" d="M877.6 134l-680.4 679.6h263.2l417.2-416.8v-262.8zM154.8 82.4c-4.8 0-8.4 3.6-8.4 8.4v305.6l314.4-314h-306zM564.4 82.4l-418 417.2v261.6l679.6-678.8h-261.6zM564 813.6h305.6c4.8 0 8.4-3.6 8.4-8.4v-305.2l-314 313.6zM950.8-64h-877.6c-36.8 0-73.2 36.4-73.2 73.2v877.6c0 36.8 36.4 73.2 73.2 73.2h877.6c36.4 0 73.2-36.4 73.2-73.2v-877.6c0-36.4-36.4-73.2-73.2-73.2v0zM950.8 877.6c0 4.8-4.4 9.2-9.2 9.2h-859.6c-4.4 0-9.2-4.4-9.2-8.8v-859.6c0-4.4 4.4-9.2 9.2-9.2h859.6c4.4 0 9.2 4.8 9.2 9.2v859.2z" />
<glyph unicode="&#xe95b;" glyph-name="redirect" d="M958.8 358.4l-114 113.6c-24.8 24.8-64.8 24.8-89.2 0l-114.4-114.4c-11.2-11.2-10.8-28.8 0-40l5.2-5.2c11.2-10.8 28.8-10.8 39.6 0.4l81.6 81.6v-250.4c0-61.6-50.4-112-112-112s-112 50.4-112 112v608c0 97.2-78.8 176-176 176s-175.6-78.8-175.6-176v-293.6l-81.6 81.6c-10.8 10.8-28.8 10.8-39.6 0l-5.2-5.2c-11.2-11.2-10.8-28.8 0-39.6l113.6-113.2c24.8-24.8 64.8-24.8 89.2 0l114.4 114c11.2 11.2 10.8 28.8 0 40l-5.2 5.2c-11.2 10.8-28.8 10.8-39.6-0.4l-82-81.6v292.8c0 61.6 50.4 112 112 112s112-50.4 112-112v-608c0-97.2 78.8-176 176-176s176 78.8 176 176v251.2l81.6-81.6c10.8-10.8 28.8-10.8 39.6 0l5.2 5.2c11.2 11.2 11.2 28.8 0.4 39.6z" />
<glyph unicode="&#xe95c;" glyph-name="post-cta" d="M458.4 387.2l177.2 400c27.2 59.6 108.4 59.2 136.8 0l177.2-400c21.6-54.8-80.4-96-103.2-40l-34.4 85.6h-222l-34.4-85.6c-25.2-56.8-122.4-14.4-97.2 40zM635.6 530.4h142.8l-74 165.6-68.8-165.6zM1002.8-64h-981.6c-11.6 0-21.2 9.6-21.2 21.2v149.6c0 11.6 9.6 21.2 21.2 21.2h981.6c11.6 0 21.2-9.6 21.2-21.2v-149.6c0-11.6-9.6-21.2-21.2-21.2zM365.2 832.4h-282.8c-10 0-18-8-18-18v-283.2c0-10 8-18 18-18h283.2c10 0 18 8 18 18v283.2c-0.4 10-8.4 18-18.4 18zM320 587.6c0-6-4.8-10.8-10.8-10.8h-170.8c-6 0-10.8 4.8-10.8 10.8v170.8c0 6 4.8 10.8 10.8 10.8h170.8c6 0 10.8-4.8 10.8-10.8v-170.8z" />
<glyph unicode="&#xe95d;" glyph-name="post-full" d="M0.8 328.4c0 5.6 0 11.6 5.6 22.8l177.2 400c17.2 34.4 34.4 45.6 68.4 45.6h5.6c28.4 0 51.6-17.2 62.8-45.6l177.2-400c5.6-5.6 5.6-17.2 5.6-22.8 0-17.2-5.6-28.4-17.2-40s-22.8-17.2-40-17.2c-22.8 0-40 11.6-51.6 40l-34.4 85.6h-222l-34.4-85.6c-11.6-22.8-28.4-34.4-51.6-34.4-16.8 0.4-51.2 17.2-51.2 51.6zM183.6 494.4h142.8l-74 165.6-68.8-165.6zM1008 960h-424c-8 0-16-7.6-16-15.2v-993.2c0-7.6 8-15.2 16-15.2h424c8 0 16 7.6 16 15.2v993.2c0 7.6-8 15.2-16 15.2zM934 34c0-4-4-7.6-8-7.6h-260c-4 0-8 4-8 7.6v828c0 4 4 7.6 8 7.6h260c4 0 8-4 8-7.6v-828zM482.8-64h-461.6c-11.6 0-21.2 9.6-21.2 21.2v101.6c0 11.6 9.6 21.2 21.2 21.2h461.6c11.6 0 21.2-9.6 21.2-21.2v-101.6c0-11.6-9.6-21.2-21.2-21.2z" />
<glyph unicode="&#xe95e;" glyph-name="post-simple" d="M398 204.8l198.8 448.8c30.4 66.8 122 66.4 153.6 0l198.8-448.8c24.4-61.6-90.4-107.6-116-44.8l-38.8 96h-249.2l-38.8-96c-27.6-63.6-136.8-16-108.4 44.8zM596.8 365.6h160.4l-83.2 186-77.2-186zM365.2 704.4h-282.8c-10 0-18-8-18-18v-283.2c0-10 8-18 18-18h283.2c10 0 18 8 18 18v283.2c-0.4 10-8.4 18-18.4 18zM320 459.6c0-6-4.8-10.8-10.8-10.8h-170.8c-6 0-10.8 4.8-10.8 10.8v170.8c0 6 4.8 10.8 10.8 10.8h170.8c6 0 10.8-4.8 10.8-10.8v-170.8z" />
<glyph unicode="&#xe95f;" glyph-name="custom-templates" d="M993.2 255.6h-259.6c-16.8 0-30.4-13.6-30.4-30.4v-258.8c0-16.8 13.6-30.4 30.4-30.4h259.6c16.8 0 30.4 13.6 30.4 30.4v258.8c0.4 17.2-13.2 30.4-30.4 30.4zM609.6 255.6h-579.2c-16.8 0-30.4-13.6-30.4-30.4v-258.8c0-16.8 13.6-30.4 30.4-30.4h578.8c16.8 0 30.4 13.6 30.4 30.4v258.8c0.4 16.4-13.2 30.4-30 30.4zM993.2 576.8v0h-962c-16.8 0-30.4-13.6-30.4-30.4v-196.8c0-16.8 13.6-30.4 30.4-30.4h962c16.8 0 30.4 13.6 30.4 30.4v196.8c0.4 16.4-13.2 30.4-30.4 30.4zM290 960h-259.6c-16.8 0-30.4-13.6-30.4-30.4v-258.8c0-17.2 13.6-30.8 30.4-30.8h259.6c16.8 0 30.4 13.6 30.4 30.4v259.2c0 16.8-13.6 30.4-30.4 30.4zM993.2 960h-578.8c-16.8 0-30.4-14-30.4-30.8v-258.8c0-16.8 13.6-30.4 30.4-30.4h578.8c16.8 0 30.4 13.6 30.4 30.4v258.8c0.4 16.8-13.2 30.8-30.4 30.8z" />
<glyph unicode="&#xe960;" glyph-name="product-simulated, product_group_super" d="M742.4 256h-460.8c-12.8 0-25.6-12.8-25.6-25.6v-83.2c0-12.8 12.8-19.2 25.6-19.2h460.8c12.8 0 25.6 6.4 25.6 19.2v83.2c0 12.8-12.8 25.6-25.6 25.6zM64 851.2v-812.8c0-19.2 19.2-38.4 44.8-38.4h812.8c25.6 0 44.8 19.2 44.8 44.8v812.8c-6.4 19.2-25.6 38.4-44.8 38.4h-819.2c-19.2 0-38.4-19.2-38.4-44.8zM896 832v-448h-768v448h768zM896 320v-256h-768v256h768zM659.2 704l-243.2-243.2c-12.8-12.8-38.4-12.8-51.2 0v0c-19.2 12.8-19.2 38.4 0 51.2l243.2 243.2c12.8 12.8 38.4 12.8 51.2 0v0c19.2-12.8 19.2-38.4 0-51.2zM614.4 460.8l-249.6 249.6c-12.8 12.8-12.8 38.4 0 51.2v0c12.8 12.8 38.4 12.8 51.2 0l249.6-249.6c12.8-12.8 12.8-38.4 0-51.2v0c-19.2-19.2-38.4-19.2-51.2 0z" />
<glyph unicode="&#xe961;" glyph-name="clean" d="M940.8 947.2c0 0-160-256-166.4-268.8s0-25.6 12.8-32c6.4 0 128-51.2 128-51.2 6.4 0 19.2 6.4 19.2 12.8l89.6 326.4c0 0 6.4 12.8-6.4 19.2-6.4 0-44.8 0-57.6 6.4-12.8 0-19.2-12.8-19.2-12.8v0zM332.8 704c32 0 51.2-19.2 51.2-51.2s-19.2-44.8-51.2-44.8c-25.6 0-44.8 19.2-44.8 44.8s19.2 51.2 44.8 51.2zM96 704c51.2 0 96-44.8 96-96s-44.8-96-96-96-96 44.8-96 96 44.8 96 96 96zM147.2 416c25.6 0 44.8-19.2 44.8-51.2 0-25.6-19.2-44.8-44.8-44.8s-51.2 19.2-51.2 44.8c0 32 19.2 51.2 51.2 51.2zM665.6 518.4c-147.2-262.4-326.4-352-326.4-352s70.4-25.6 83.2-19.2c76.8 19.2 217.6 172.8 217.6 172.8s-102.4-166.4-147.2-204.8c0 0 96-32 102.4-32 32 0 179.2 204.8 172.8 211.2-12.8-76.8-121.6-230.4-121.6-230.4s51.2-25.6 83.2-19.2c83.2 19.2 185.6 396.8 185.6 396.8l108.8-38.4c0 0-89.6-480-262.4-460.8-153.6 19.2-544 153.6-620.8 198.4-6.4 6.4-6.4 12.8 0 19.2 76.8 51.2 416 326.4 422.4 409.6l102.4-51.2zM985.6 550.4c51.2-32 38.4-115.2 38.4-115.2l-460.8 153.6c0 0 6.4 70.4 89.6 70.4 0-6.4 326.4-102.4 332.8-108.8z" />
<glyph unicode="&#xe962;" glyph-name="robot" d="M320 512c-70.8 0-128-57.2-128-128s57.2-128 128-128 128 57.2 128 128-57.2 128-128 128zM320 320c-35.2 0-64 28.8-64 64s28.8 63.6 64 63.6v0.4c35.2 0 64-28.8 64-64s-28.8-64-64-64zM704 512c-70.8 0-128-57.2-128-128s57.2-128 128-128 128 57.2 128 128-57.2 128-128 128zM704 320c-35.2 0-64 28.8-64 64s28.8 63.6 64 63.6v0.4c35.2 0 64-28.8 64-64s-28.8-64-64-64zM958.4 512v51.2c0 141.2-169.2 141.6-169.2 141.6h-241.6v46.4c56 17.6 87.2 77.6 69.6 133.6s-77.2 87.2-133.6 69.6c-56-17.6-87.2-77.6-69.6-133.6 10.4-33.2 36.4-59.2 69.6-69.6v-44.8h-253.6c0 0-165.6-2.8-165.6-141.2v-437.2c0-192.4 165.6-192 165.6-192h559.2c0 0 169.2 2 169.2 189.6v386.4zM473.6 844c-4.8 29.2 20 54 49.2 49.2 17.6-2.8 32-17.2 34.8-34.8 4.8-29.2-20-54-49.2-49.2-17.6 2.8-31.6 17.2-34.8 34.8zM897.2 131.2c0-128-113.2-129.2-113.2-129.2h-551.2c0 0-104.8 1.2-104.8 129.2 0 82 0 339.2 0 420 0 88.4 104.8 88.8 104.8 88.8h551.2c0 0 113.2-3.6 113.2-89.2 0-10.8 0-23.6 0-38 0-81.6 0-362.8 0-381.6zM580 160.4v-65.2c0-17.2 14.4-31.6 32-31.6s32 14 32 31.6v65.2c0 17.2-14.4 31.6-32 31.6s-32-14-32-31.6zM384 160.4v-65.2c0-17.2 14.4-31.6 32-31.6s32 14 32 31.6v65.2c0 17.2-14.4 31.6-32 31.6s-32-14-32-31.6zM674.8 160.4h-324.8c-17.2 0-31.6-14.4-31.6-32s14-32 31.6-32h325.2c17.2 0 31.6 14.4 31.6 32s-14.4 32-32 32z" />
<glyph unicode="&#xe963;" glyph-name="feedback" d="M960 896h-4c37.6 0 68-30.4 68-68v-622.8c0-42.4-34.4-77.2-77.2-77.2h-654.8l-87.2-111.6c-8-10.4-20.8-16.4-34-16.4v0c-23.6 0-43.2 19.2-43.2 43.2v84.8h-50.4c-42.8 0-77.2 34.4-77.2 77.2v613.6c0 42.8 34.4 77.2 77.2 77.2h882.8v-64h-896v-640h128v-80c0-2.4 3.2-2 4 0l60 80h704v704zM320 576c-35.2 0-64-28.8-64-64s28.8-64 64-64 64 28.8 64 64-28.8 64-64 64zM512 576c-35.2 0-64-28.8-64-64s28.8-64 64-64 64 28.8 64 64-28.8 64-64 64zM704 576c-35.2 0-64-28.8-64-64s28.8-64 64-64 64 28.8 64 64-28.8 64-64 64z" />
<glyph unicode="&#xe964;" glyph-name="exe" d="M150.8 312h92.8v49.2h-92.8v33.2h103.6v49.2h-156v-214.4h159.2v49.2h-106.8zM474 443.6h-62.4l-40-58.8-39.6 58.8h-62l69.6-104.8-74-109.6h62l44 64.4 44.8-64.4h63.2l-75.2 111.2zM550.8 278.4v33.6h93.2v49.2h-93.2v33.2h103.6v49.2h-156v-214.4h159.2v49.2zM872 453.6v0c-12.4-12.4-12.4-32.8 0-45.2l40-40h-176c-17.6 0-32-14.4-32-32s14.4-32 32-32h176l-40-40c-12.4-12.4-12.4-32.8 0-45.2s32.8-12.4 45.2 0l92.4 92.4c7.2 6 12 14.8 12 24.8s-4.8 19.2-12 25.2l-92 92c-12.8 12.4-33.2 12.4-45.6 0zM928 82v0l-0.4 29.6c0 17.6-14.4 32.4-32.4 32.4s-32.4-14.4-32.4-32.4v-46.4c0-1.6 0-2.8 0.4-4.4v-61.6h-703.6v68.8h451.2c80 0 145.2 65.2 145.2 145.2v233.2c0 80-65.2 145.2-145.2 145.2h-451.2v80.4h141.2c22 0 42.8 8.4 58.4 24s24 36.4 24 58.4v141.2h479.6v-174.8c0 0 0-0.4 0-0.4v-157.6c0-17.6 14.4-32.4 32.4-32.4s32.4 14.4 32.4 32.4v157.6c0 0.8 0 1.6 0 2.8v173.2c0 35.2-28.8 64-64 64h-528c-18 0-35.2-7.6-47.2-20.8l-175.6-192.4c-10.8-12-16.8-27.2-16.8-43.2v-120.4c-56-20.4-96-74-96-136.8v-233.2c0-62.8 40-116.4 96-136.8v-76.8c0-16.8 6.8-33.2 18.8-45.2s28.4-18.8 45.2-18.8h704c16.8 0 33.2 6.8 45.2 18.8s18.8 28.4 18.8 45.2v82zM319.6 846v-91.6c0-4.8-2-9.6-5.6-13.2s-8-5.6-13.2-5.6h-94.4l113.2 110.4zM96 148.8c-19.6 14.8-32 38.4-32 64.4v233.2c0 26.4 12.4 49.6 32 64.4 13.6 10.4 30.8 16.8 49.2 16.8h465.6c44.8 0 81.2-36.4 81.2-81.2v-233.2c0-44.8-36.4-81.2-81.2-81.2h-465.6c-18.4 0-35.6 6.4-49.2 16.8z" />
<glyph unicode="&#xe965;" glyph-name="copy-full, copy-blue" d="M960 748.8v0c0 32-32 64-64 64h-160v64c0 32-32 64-64 64h-364.8c-19.2 6.4-38.4-6.4-51.2-19.2l-172.8-192c-12.8-12.8-19.2-25.6-19.2-38.4v-544c0-19.2 6.4-32 19.2-44.8s25.6-19.2 44.8-19.2h160v-64c0-19.2 6.4-32 19.2-44.8s25.6-19.2 44.8-19.2h544c19.2 0 32 6.4 44.8 19.2s19.2 25.6 19.2 44.8v729.6zM288 832v0-89.6c0-6.4 0-12.8-6.4-12.8 0-6.4-6.4-6.4-12.8-6.4h-89.6l108.8 108.8zM300.8 601.6c-6.4-12.8-12.8-25.6-12.8-44.8v-416h-160v512h140.8c19.2 0 44.8 6.4 57.6 25.6 12.8 12.8 25.6 38.4 25.6 57.6v147.2h320v-64h-147.2c-19.2 0-32-6.4-44.8-19.2l-179.2-198.4zM512 704v-89.6c0-6.4 0-6.4-6.4-12.8s-6.4-12.8-12.8-12.8h-96l115.2 115.2zM352 12.8v0 512h140.8c19.2 0 44.8 6.4 57.6 25.6s25.6 38.4 25.6 57.6v140.8h320v-736h-544zM761.6 300.8v0c-12.8 6.4-25.6 12.8-32 12.8 0 6.4 0 12.8 0 12.8 0 19.2-12.8 32-32 25.6-6.4-6.4-12.8-12.8-19.2-25.6-6.4-6.4-6.4-12.8-12.8-12.8-25.6-6.4-51.2-6.4-76.8-12.8 0 12.8 6.4 25.6 6.4 38.4s6.4 12.8 19.2 19.2c51.2 12.8 102.4 19.2 153.6 32 19.2 6.4 25.6 19.2 25.6 32-6.4 12.8-19.2 19.2-38.4 19.2-25.6-6.4-57.6-12.8-89.6-19.2-25.6-6.4-44.8-6.4-70.4-6.4 0 12.8 6.4 19.2 6.4 25.6 6.4 19.2 0 32-19.2 38.4-12.8 0-25.6-12.8-32-32 0-12.8-6.4-25.6-6.4-38.4-19.2 6.4-38.4 6.4-64 12.8-6.4 0-19.2 6.4-25.6 0s-12.8-19.2-12.8-25.6c-6.4-12.8 6.4-25.6 19.2-25.6 25.6-6.4 51.2-12.8 70.4-12.8 0-19.2 0-38.4 0-64 0-6.4-6.4-12.8-12.8-19.2-25.6-19.2-51.2-32-70.4-51.2s-25.6-38.4-25.6-64c6.4-57.6 57.6-89.6 115.2-70.4 38.4 12.8 76.8 38.4 102.4 76.8 19.2 32 38.4 64 64 96 32-6.4 57.6-25.6 64-57.6s-6.4-57.6-38.4-70.4c-19.2-12.8-44.8-19.2-64-25.6-12.8-6.4-25.6-19.2-19.2-32 0-12.8 19.2-25.6 32-19.2 38.4 6.4 76.8 19.2 102.4 44.8 64 51.2 57.6 153.6-19.2 198.4zM550.4 153.6c-6.4-6.4-19.2-12.8-25.6-12.8-12.8 0-25.6 0-32 12.8s-6.4 25.6 0 38.4c12.8 12.8 32 25.6 44.8 44.8 6.4-25.6 12.8-44.8 19.2-64 0-6.4 0-19.2-6.4-19.2zM601.6 198.4c0 6.4 0 6.4 0 0-19.2 51.2-12.8 64 44.8 64-12.8-19.2-25.6-38.4-44.8-64z" />
<glyph unicode="&#xe966;" glyph-name="star, star_fill" d="M938 574.8l-265.2 40.4c-8.4 1.2-16 6.8-19.6 14.8l-117.6 251.2c-9.2 20-37.6 20-47.2 0l-117.6-251.2c-3.6-8-11.2-13.6-19.6-14.8l-265.2-40.4c-20.8-3.2-29.6-28.8-14.8-44l193.6-198.8c5.6-6 8.4-14.4 7.2-22.4l-45.6-279.2c-3.6-21.6 19.2-37.6 38.4-27.2l234.8 130c8 4.4 17.2 4.4 25.2 0l234.8-130c19.2-10.4 42 5.6 38.4 27.2l-46 279.2c-1.2 8 1.2 16.4 7.2 22.4l193.2 198.8c14.8 14.8 6.4 40.4-14.4 44z" />
<glyph unicode="&#xe967;" glyph-name="star-line" d="M271.6-4.4c-11.2 0-22.4 3.2-32 10-18 12.4-27.2 33.6-23.6 55.2l42 256.8-177.6 182.8c-14.8 15.2-20 37.6-13.2 57.6s24 34.4 45.2 37.2l242.8 37.2 108.4 230.4c9.2 20 28.8 32.4 50.8 32.4 0 0 0 0 0 0 22 0 41.6-12.4 50.8-32.4l107.6-230.4 243.6-37.6c21.2-3.6 38.4-18.4 44.8-38.4s0.8-41.6-14.4-56.8l-177.2-182.4 41.6-256.4c3.6-21.6-5.2-42.8-22.8-55.2-18-12.8-40.8-14-60-3.2l-214.8 118.8-215.2-119.2c-8-4-17.6-6.4-26.8-6.4zM267.6 58.8c0 0 0 0 0 0v0zM760 58.8v0c0 0 0 0 0 0zM321.6 310.8l-39.6-244 204.8 113.6c16.8 9.2 37.6 9.2 54.8 0l204.8-113.6-40 244.8c-2.8 18 2.8 36 15.2 48.4l170.4 175.2-232 35.6c-18 2.8-34 14.4-42 30.8l-0.4 0.8-102.8 219.6-103.2-220.4c-8.4-16.8-24-28.4-42.4-30.8l-232.4-35.6 170.8-175.6c11.6-14 17.2-32 14-48.8zM121.6 532.4v0c0 0 0 0 0 0zM359.2 633.6c0 0 0 0 0 0v0zM669.2 633.6v0c0 0 0 0 0 0z" />
<glyph unicode="&#xe968;" glyph-name="open-out" d="M864 448v0c-17.6 0-32-14.4-32-32v-413.2c0-1.6-1.6-3.2-3.2-3.2h-760.4c-1.6 0-3.2 1.2-3.2 3.2l-1.2 765.2h416c17.6 0 32 14.4 32 32v0c0 17.6-14.4 32-32 32h-448c-17.6 0-32-14.4-32-32v-796c0-38 30.8-68.8 68.8-68.8h761.6c37.2 0 67.2 30.4 67.2 67.2l-1.6 413.6c0 17.6-14.4 32-32 32zM671.6 895.6l244-0.4-265.2-262.4c-12.4-12.8-12-33.2 0.4-45.6 12.4-12.8 32.4-12.8 44.8-0.4l265.2 262.4 0.4-240.8c0-8.8 3.2-17.2 9.2-22.8 6-6 13.6-9.6 22.4-9.2 17.6 0 31.6 14.4 31.6 32.4l-0.4 319.2c0 8.4-3.2 17.2-9.2 22.8-6 6-14 9.6-22.4 9.2h-320.8c-17.6 0-31.6-14.4-31.6-32.4 0-17.2 14.4-32 31.6-32z" />
<glyph unicode="&#xe969;" glyph-name="folder, folder_fill" d="M330 885.6l108.4-109.2c6.4-6.8 15.6-10.4 24.8-10.4h526c19.2 0 35.2-15.6 35.2-35.2v-696c0-19.2-15.6-35.2-35.2-35.2h-954c-19.2 0-35.2 15.6-35.2 35.2v826c0 19.6 15.6 35.2 35.2 35.2h270c9.2 0 18-3.6 24.8-10.4z" />
<glyph unicode="&#xe96a;" glyph-name="folder-line" d="M293.2 832l99.6-100.4c18.4-18.8 44-29.6 70.8-29.6h497.2v-638.4h-896.8v768.4h229.2zM305.2 896h-270c-19.6 0-35.2-15.6-35.2-35.2v-825.6c0-19.6 16-35.2 35.2-35.2h953.6c19.6 0 35.2 16 35.2 35.2v695.6c0 19.6-16 35.2-35.2 35.2h-525.6c-9.2 0-18.4 3.6-24.8 10.4l-108.4 109.2c-6.8 6.8-15.6 10.4-24.8 10.4v0z" />
<glyph unicode="&#xe96b;" glyph-name="folder-in" d="M705.2 347.2l-160.8-160.8v355.2c0 19.2-15.6 34.4-34.8 34.4s-34.8-15.2-34.8-34.4v-355.2l-160.8 160.8c-6.8 6.8-15.6 10.4-24.4 10.4-9.2 0-17.6-3.2-24.4-10.4-13.6-13.6-13.6-35.2 0-48.8l219.6-220c6.4-6.4 15.6-10.4 24.4-10.4 9.2 0 18 3.6 24.4 10.4l219.6 220c13.6 13.6 13.6 35.2 0 48.8-12.4 13.2-34.8 13.2-48 0zM330 885.6l108.4-109.2c6.4-6.8 15.6-10.4 24.8-10.4h525.6c19.2 0 35.2-15.6 35.2-35.2v-695.6c0-19.2-15.6-35.2-35.2-35.2h-953.6c-19.2 0-35.2 15.6-35.2 35.2v825.6c0 19.6 15.6 35.2 35.2 35.2h270c9.2 0 18-3.6 24.8-10.4z" />
<glyph unicode="&#xe96c;" glyph-name="folder-out" d="M314.8 424.8l160.8 160.8v-355.2c0-19.2 15.6-34.4 34.8-34.4s34.8 15.2 34.8 34.4v355.2l160.8-160.8c6.8-6.8 15.6-10.4 24.4-10.4 9.2 0 17.6 3.2 24.4 10.4 13.6 13.6 13.6 35.2 0 48.8l-219.6 220c-6.4 6.4-15.6 10.4-24.4 10.4-9.2 0-18-3.6-24.4-10.4l-219.6-220c-13.6-13.6-13.6-35.2 0-48.8 12.4-13.2 34.8-13.2 48 0zM330 885.6l108.4-109.2c6.4-6.8 15.6-10.4 24.8-10.4h525.6c19.2 0 35.2-15.6 35.2-35.2v-695.6c0-19.2-15.6-35.2-35.2-35.2h-953.6c-19.2 0-35.2 15.6-35.2 35.2v825.6c0 19.6 15.6 35.2 35.2 35.2h270c9.2 0 18-3.6 24.8-10.4z" />
<glyph unicode="&#xe96d;" glyph-name="hamburger" d="M896 640h-768c-35.2 0-64 28.8-64 64v0c0 35.2 28.8 64 64 64h768c35.2 0 64-28.8 64-64v0c0-35.2-28.8-64-64-64zM960 448v0c0 35.2-28.8 64-64 64h-768c-35.2 0-64-28.8-64-64v0c0-35.2 28.8-64 64-64h768c35.2 0 64 28.8 64 64zM960 192v0c0 35.2-28.8 64-64 64h-768c-35.2 0-64-28.8-64-64v0c0-35.2 28.8-64 64-64h768c35.2 0 64 28.8 64 64z" />
<glyph unicode="&#xe96e;" glyph-name="double-arrow-left" d="M531.6 230.8l-178 178.8c-21.6 21.6-21.6 56.8 0 78.8l176.8 177.2c21.6 21.6 21.6 56.8 0 78.8l-7.6 7.6c-21.6 21.6-56.8 21.6-78.4 0l-216.4-217.6c-47.2-47.2-47.2-124.4 0-171.6l218-218.4c21.6-21.6 56.8-21.6 78.4 0l7.2 7.2c21.6 22 21.6 57.6 0 79.2zM815.6 230.8l-178 178.8c-21.6 21.6-21.6 56.8 0 78.8l176.8 177.2c21.6 21.6 21.6 56.8 0 78.8l-7.6 7.6c-21.6 21.6-56.8 21.6-78.4 0l-216.4-217.6c-47.2-47.2-47.2-124.4 0-171.6l218-218.4c21.6-21.6 56.8-21.6 78.4 0l7.2 7.2c21.6 22 21.6 57.6 0 79.2z" />
<glyph unicode="&#xe96f;" glyph-name="double-arrow-right" d="M492 665.2l178-178.8c21.6-21.6 21.6-56.8 0-78.8l-176.8-177.2c-21.6-21.6-21.6-56.8 0-78.8l7.6-7.6c21.6-21.6 56.8-21.6 78.4 0l216.4 217.6c47.2 47.2 47.2 124.4 0 171.6l-218 218.4c-21.6 21.6-56.8 21.6-78.4 0l-7.2-7.2c-21.6-22-21.6-57.6 0-79.2zM208 665.2l178-178.8c21.6-21.6 21.6-56.8 0-78.8l-176.8-177.2c-21.6-21.6-21.6-56.8 0-78.8l7.6-7.6c21.6-21.6 56.8-21.6 78.4 0l216.4 217.6c47.2 47.2 47.2 124.4 0 171.6l-217.2 218.4c-21.6 21.6-56.8 21.6-78.4 0l-7.2-7.2c-22.4-22-22.4-57.6-0.8-79.2z" />
<glyph unicode="&#xe970;" glyph-name="dots-horizontal" d="M256 352v0c52.8 0 96 43.2 96 96v0c0 52.8-43.2 96-96 96v0c-52.8 0-96-43.2-96-96v0c0-52.8 43.2-96 96-96zM512 352v0c52.8 0 96 43.2 96 96v0c0 52.8-43.2 96-96 96v0c-52.8 0-96-43.2-96-96v0c0-52.8 43.2-96 96-96zM768 352v0c52.8 0 96 43.2 96 96v0c0 52.8-43.2 96-96 96v0c-52.8 0-96-43.2-96-96v0c0-52.8 43.2-96 96-96z" />
<glyph unicode="&#xe971;" glyph-name="dots-vertical" d="M416 704v0c0-52.8 43.2-96 96-96v0c52.8 0 96 43.2 96 96v0c0 52.8-43.2 96-96 96v0c-52.8 0-96-43.2-96-96zM416 448v0c0-52.8 43.2-96 96-96v0c52.8 0 96 43.2 96 96v0c0 52.8-43.2 96-96 96v0c-52.8 0-96-43.2-96-96zM416 192v0c0-52.8 43.2-96 96-96v0c52.8 0 96 43.2 96 96v0c0 52.8-43.2 96-96 96v0c-52.8 0-96-43.2-96-96z" />
<glyph unicode="&#xe972;" glyph-name="clipboard" d="M320 896l18.4 42.4c6 13.2 18.8 21.6 33.2 21.6h280.4c14.4 0 27.6-8.4 33.2-21.6l18.8-42.4h155.6c20 0 36.4-16.4 36.4-36.4v-887.6c0-20-16.4-36.4-36.4-36.4h-695.2c-20 0-36.4 16.4-36.4 36.4v887.6c0 20 16.4 36.4 36.4 36.4h155.6zM192 832v-832h640v832h-112l5.2-16.8c7.2-23.2-10-47.2-34.8-47.2h-357.2c-24.4 0-42 23.6-34.8 47.2l5.6 16.8h-112zM384 896l-16-64h288l-16 64h-256z" />
<glyph unicode="&#xe973;" glyph-name="arrow-fold" d="M736 819.2l-185.6-160c-25.6-19.2-57.6-19.2-76.8 0l-185.6 160c-19.2 19.2-57.6 19.2-76.8 0v0c-25.6-25.6-25.6-64 0-83.2l211.2-185.6c44.8-44.8 128-44.8 172.8 0l217.6 185.6c25.6 19.2 25.6 57.6 0 83.2v0c-19.2 19.2-57.6 19.2-76.8 0zM288 83.2l185.6 160c19.2 19.2 57.6 19.2 76.8 0l185.6-160c19.2-19.2 57.6-19.2 76.8 0v0c25.6 25.6 25.6 64 0 83.2l-211.2 185.6c-44.8 44.8-128 44.8-172.8 0l-217.6-185.6c-25.6-19.2-25.6-57.6 0-83.2v0c19.2-25.6 51.2-25.6 76.8 0z" />
<glyph unicode="&#xe974;" glyph-name="arrow-unfold" d="M736 371.2l-185.6-160c-19.2-19.2-57.6-19.2-76.8 0l-185.6 160c-19.2 19.2-57.6 19.2-76.8 0v0c-25.6-25.6-25.6-64 0-83.2l211.2-185.6c44.8-44.8 128-44.8 172.8 0l217.6 185.6c25.6 19.2 25.6 57.6 0 83.2v0c-19.2 19.2-57.6 19.2-76.8 0zM288 531.2l185.6 160c25.6 12.8 57.6 12.8 76.8-6.4l185.6-160c19.2-19.2 57.6-19.2 76.8 0v0c25.6 25.6 25.6 64 0 83.2l-211.2 192c-44.8 44.8-128 44.8-172.8 0l-217.6-185.6c-25.6-19.2-25.6-57.6 0-83.2v0c19.2-25.6 51.2-25.6 76.8 0z" />
<glyph unicode="&#xe975;" glyph-name="up, option-close, options-close" d="M768 320l-256 256-256-256h512z" />
<glyph unicode="&#xe976;" glyph-name="down, option-open, options-open" d="M256 576l256-256 256 256h-512z" />
<glyph unicode="&#xe977;" glyph-name="composition" d="M992 256h-262.4c-19.2 0-32-12.8-32-32v-256c0-19.2 12.8-32 32-32h262.4c19.2 0 32 12.8 32 32v256c0 19.2-12.8 32-32 32zM960 32c0 0 0 0 0 0v-32h-192v192h192v-32c0 0 0 0 0 0s0-128 0-128zM608 256h-576c-19.2 0-32-12.8-32-32v-256c0-19.2 12.8-32 32-32h576c19.2 0 32 12.8 32 32v256c0 19.2-12.8 32-32 32zM576 160v-160h-512v32c0 0 0 0 0 0v128c0 0 0 0 0 0v32h512v-32zM992 576v0h-960c-19.2 0-32-12.8-32-32v-198.4c0-12.8 12.8-25.6 32-25.6h960c19.2 0 32 12.8 32 32v192c0 19.2-12.8 32-32 32zM960 384h-896v128h25.6c0 0 0 0 6.4 0h832c0 0 0 0 6.4 0h25.6v-128zM288 960h-256c-19.2 0-32-12.8-32-32v-256c0-19.2 12.8-32 32-32h262.4c12.8 0 25.6 12.8 25.6 32v256c0 19.2-12.8 32-32 32zM992 960h-576c-19.2 0-32-12.8-32-32v-256c0-19.2 12.8-32 32-32h576c19.2 0 32 12.8 32 32v256c0 19.2-12.8 32-32 32z" />
<glyph unicode="&#xe978;" glyph-name="drag" d="M768-64h-320v64h320v-64zM1024 192h-64v320h64v-320zM1024 640h-64v32c0 19.2-12.8 32-32 32h-32v64h32c57.6 0 96-38.4 96-96v-32zM774.4 128h-652.8c-32 0-57.6 25.6-57.6 57.6v652.8c0 32 25.6 57.6 57.6 57.6h659.2c25.6 0 51.2-25.6 51.2-57.6v-659.2c0-25.6-25.6-51.2-57.6-51.2zM768 236.8v550.4c0 25.6-19.2 44.8-44.8 44.8h-550.4c-25.6 0-44.8-19.2-44.8-44.8v-550.4c0-25.6 19.2-44.8 44.8-44.8h550.4c25.6 0 44.8 19.2 44.8 44.8zM896-64v64h32c19.2 0 32 12.8 32 32v32h64v-32c0-57.6-38.4-96-96-96h-32zM192 64h64v-32c0-19.2 12.8-32 32-32h32v-64h-32c-57.6 0-96 38.4-96 96v32z" />
<glyph unicode="&#xe979;" glyph-name="menu" d="M896 640h-768c-70.4 0-128 57.6-128 128v0c0 70.4 57.6 128 128 128h768c70.4 0 128-57.6 128-128v0c0-70.4-57.6-128-128-128zM960 768v0c0 38.4-25.6 64-64 64h-768c-38.4 0-64-25.6-64-64v0c0-38.4 25.6-64 64-64h768c38.4 0 64 32 64 64zM896 320h-768c-70.4 0-128 57.6-128 128v0c0 70.4 57.6 128 128 128h768c70.4 0 128-57.6 128-128v0c0-70.4-57.6-128-128-128zM960 448v0c0 38.4-25.6 64-64 64h-768c-38.4 0-64-25.6-64-64v0c0-38.4 25.6-64 64-64h768c38.4 0 64 25.6 64 64zM896 0h-768c-70.4 0-128 57.6-128 128v0c0 70.4 57.6 128 128 128h768c70.4 0 128-57.6 128-128v0c0-70.4-57.6-128-128-128zM960 128v0c0 38.4-25.6 64-64 64h-768c-38.4 0-64-25.6-64-64v0c0-38.4 25.6-64 64-64h768c38.4 0 64 32 64 64z" />
<glyph unicode="&#xe97a;" glyph-name="logo-med" horiz-adv-x="3392" d="M1360 412.8l89.6-179.2 89.6 179.2h54.4v-268.8h-41.6v201.6l-86.4-172.8h-28.8l-86.4 172.8v-201.6h-41.6v268.8h51.2zM1833.6 204.8h-134.4l-25.6-60.8h-48l118.4 268.8h48l118.4-268.8h-48l-28.8 60.8zM1817.6 246.4l-51.2 118.4-51.2-118.4h102.4zM1990.4 412.8l144-192v192h44.8v-268.8h-44.8l-144 192v-192h-44.8v268.8h44.8zM2422.4 204.8h-134.4l-25.6-60.8h-48l118.4 268.8h48l118.4-268.8h-48l-28.8 60.8zM2406.4 246.4l-51.2 118.4-51.2-118.4h102.4zM2716.8 278.4h38.4v-99.2c-6.4-6.4-16-9.6-22.4-12.8-9.6-3.2-16-9.6-25.6-9.6-9.6-3.2-19.2-6.4-28.8-6.4-9.6-3.2-19.2-3.2-28.8-3.2-19.2 0-38.4 3.2-54.4 9.6s-32 16-44.8 28.8c-12.8 12.8-22.4 25.6-28.8 44.8-6.4 16-9.6 35.2-9.6 54.4s3.2 35.2 9.6 54.4c6.4 16 16 32 28.8 41.6 12.8 12.8 28.8 22.4 44.8 28.8 19.2 6.4 38.4 9.6 57.6 9.6s38.4-3.2 57.6-9.6c16-6.4 32-16 48-28.8l-25.6-32c-9.6 9.6-22.4 16-35.2 22.4s-28.8 9.6-41.6 9.6c-12.8 0-25.6-3.2-38.4-6.4s-22.4-12.8-32-19.2c-9.6-9.6-16-19.2-19.2-28.8-6.4-12.8-6.4-25.6-6.4-38.4s3.2-25.6 6.4-38.4c6.4-12.8 12.8-22.4 22.4-28.8 9.6-9.6 19.2-16 32-19.2 12.8-6.4 25.6-6.4 38.4-6.4 9.6 0 22.4 3.2 32 3.2 9.6 3.2 22.4 6.4 32 12.8l-6.4 67.2zM3011.2 412.8v-41.6h-147.2v-73.6h131.2v-41.6h-131.2v-73.6h150.4v-41.6h-195.2v268.8h192zM3241.6 144l-48 80c-3.2 0-3.2 0-6.4 0h-70.4v-80h-44.8v268.8h108.8c28.8 3.2 57.6-6.4 80-22.4 19.2-16 28.8-41.6 28.8-67.2 0-19.2-3.2-38.4-12.8-54.4s-25.6-25.6-41.6-32l60.8-89.6h-54.4zM3180.8 265.6c16 0 35.2 3.2 48 12.8s19.2 25.6 16 41.6c0 16-6.4 28.8-16 38.4-12.8 9.6-32 12.8-48 12.8h-64v-105.6h64zM1468.8 700.8c-12.8 9.6-28.8 16-41.6 19.2s-22.4 6.4-35.2 6.4c-9.6 0-22.4-3.2-32-6.4-6.4-3.2-12.8-12.8-12.8-19.2 0-9.6 3.2-16 9.6-22.4 9.6-6.4 16-9.6 25.6-12.8s22.4-6.4 35.2-9.6c12.8-3.2 22.4-9.6 35.2-12.8 9.6-6.4 19.2-12.8 25.6-22.4 6.4-12.8 12.8-25.6 9.6-38.4 0-12.8-3.2-22.4-6.4-32-6.4-9.6-12.8-19.2-19.2-25.6-9.6-6.4-19.2-12.8-32-16s-25.6-6.4-41.6-6.4c-19.2 0-41.6 3.2-60.8 12.8-19.2 6.4-35.2 19.2-48 32l19.2 38.4c12.8-12.8 28.8-22.4 44.8-28.8s28.8-9.6 44.8-9.6c12.8 0 25.6 3.2 38.4 9.6 9.6 6.4 12.8 12.8 12.8 25.6 0 9.6-3.2 19.2-9.6 22.4-9.6 6.4-16 9.6-25.6 12.8s-22.4 6.4-35.2 9.6c-12.8 3.2-22.4 6.4-35.2 12.8-9.6 6.4-19.2 12.8-25.6 22.4s-12.8 25.6-9.6 38.4c0 9.6 3.2 22.4 6.4 32 6.4 9.6 12.8 16 19.2 22.4 9.6 6.4 19.2 12.8 32 16 9.6-3.2 22.4-3.2 38.4-3.2s35.2-3.2 51.2-6.4c16-3.2 28.8-12.8 41.6-19.2l-19.2-41.6zM1590.4 764.8v-268.8h-44.8v268.8h44.8zM1843.2 764.8v-41.6h-83.2v-227.2h-44.8v230.4h-86.4v38.4h214.4zM2073.6 764.8v-41.6h-147.2v-73.6h131.2v-41.6h-131.2v-73.6h153.6v-41.6h-195.2v272h188.8zM851.2 352c-3.2 0-3.2 0-3.2-3.2-3.2-3.2-41.6-86.4-67.2-86.4-9.6 0-16 3.2-22.4 9.6-12.8 12.8-22.4 28.8-28.8 44.8-3.2 6.4-6.4 12.8-9.6 16-16 28.8-41.6 64-73.6 64-3.2 0-9.6 0-12.8-3.2-35.2-9.6-51.2-48-67.2-86.4-12.8 54.4-35.2 150.4-92.8 150.4-3.2 0-9.6 0-12.8 0-25.6-6.4-41.6-25.6-54.4-67.2-9.6-35.2-19.2-73.6-22.4-112-12.8 64-19.2 128-28.8 188.8-6.4 48-12.8 92.8-19.2 140.8-3.2 38.4-12.8 73.6-25.6 112-19.2 32-35.2 44.8-51.2 48-19.2 0-35.2-9.6-44.8-22.4-16-12.8-28.8-25.6-41.6-41.6-28.8-41.6-51.2-89.6-60.8-137.6-28.8-108.8-19.2-214.4 32-288l12.8 9.6c-44.8 67.2-19.2 172.8-6.4 227.2 0 6.4 3.2 12.8 3.2 16 9.6 38.4 22.4 76.8 41.6 112 12.8 28.8 32 51.2 57.6 67.2 6.4-6.4 9.6-16 9.6-25.6v-3.2c6.4-19.2 9.6-38.4 12.8-60.8 6.4-44.8 12.8-89.6 19.2-134.4l3.2-16c6.4-57.6 16-115.2 25.6-172.8 6.4-32 9.6-60.8 16-86.4l9.6-41.6c0-3.2 0-6.4 3.2-9.6 0-9.6 6.4-22.4 12.8-28.8 3.2-3.2 9.6-6.4 16-6.4 3.2 0 6.4 0 9.6 3.2 9.6 6.4 16 19.2 16 28.8v3.2c3.2 22.4 9.6 48 12.8 73.6l3.2 25.6c3.2 38.4 12.8 76.8 22.4 115.2 3.2 9.6 9.6 25.6 19.2 32 6.4 3.2 12.8-3.2 19.2-12.8 16-32 25.6-64 32-99.2l3.2-12.8c0-6.4 3.2-16 3.2-22.4 3.2-16 6.4-35.2 12.8-51.2 3.2-9.6 12.8-16 22.4-16 16 0 22.4 16 25.6 28.8l6.4 19.2c6.4 19.2 12.8 38.4 19.2 57.6v3.2c6.4 16 12.8 35.2 28.8 41.6 12.8 6.4 28.8-19.2 35.2-28.8v-3.2c3.2-6.4 9.6-12.8 12.8-22.4 6.4-12.8 16-28.8 25.6-41.6 9.6-19.2 28.8-32 48-38.4 76.8-12.8 105.6 99.2 105.6 102.4v6.4c0 6.4-3.2 12.8-3.2 19.2 0 3.2 0 6.4-3.2 9.6 0 9.6-3.2 9.6-6.4 6.4v0zM1056-32v960h32v-960h-32z" />
<glyph unicode="&#xe97b;" glyph-name="quicklinks, quicklink" d="M896 768h-576c-35.2 0-64-28.8-64-64v0c0-35.2 28.8-64 64-64h576c35.2 0 64 28.8 64 64v0c0 35.2-28.8 64-64 64zM134.4 768h-6.4c-35.2 0-64-28.8-64-64v0c0-35.2 28.8-64 64-64h6.4c35.2 0 57.6 28.8 57.6 64v0c0 35.2-22.4 64-57.6 64zM134.4 512h-6.4c-35.2 0-64-28.8-64-64v0c0-35.2 28.8-64 64-64h6.4c35.2 0 57.6 28.8 57.6 64v0c0 35.2-22.4 64-57.6 64zM134.4 256h-6.4c-35.2 0-64-28.8-64-64v0c0-35.2 28.8-64 64-64h6.4c35.2 0 57.6 28.8 57.6 64v0c0 35.2-22.4 64-57.6 64zM640 448l64 64h-384c-35.2 0-64-28.8-64-64v0c0-35.2 28.8-64 64-64h288c0 0 0 25.6 32 64zM448 256h-128c-35.2 0-64-28.8-64-64v0c0-35.2 28.8-64 64-64h64c0 0-16 41.6 19.2 83.2zM768 291.2l-137.6-134.4c-12.8-12.8-32-12.8-44.8 0v0c-12.8 12.8-12.8 32 0 44.8l134.4 134.4c12.8 12.8 32 12.8 44.8 0v0c16-12.8 16-32 3.2-44.8zM585.6 64l134.4 134.4c22.4-22.4-12.8-102.4-54.4-147.2l-25.6-25.6c-41.6-41.6-112-41.6-156.8 0l-25.6 25.6c-41.6 41.6-41.6 112 0 156.8l25.6 25.6c41.6 41.6 124.8 80 147.2 54.4l-134.4-134.4c-12.8-12.8-12.8-32 0-44.8l44.8-44.8c12.8-12.8 32-12.8 44.8 0zM790.4 448l-134.4-134.4c-22.4 22.4 12.8 102.4 54.4 147.2l25.6 25.6c41.6 41.6 112 41.6 156.8 0l25.6-25.6c41.6-41.6 41.6-112 0-156.8l-25.6-25.6c-41.6-41.6-124.8-80-147.2-54.4l134.4 134.4c12.8 12.8 12.8 32 0 44.8l-44.8 44.8c-12.8 12.8-32 12.8-44.8 0z" />
<glyph unicode="&#xe97c;" glyph-name="widget_bv_curations" d="M211.2 256h-166.4c-25.6 0-44.8-19.2-44.8-45.2v-230c0-25.6 19.2-45.2 44.8-45.2h166.8c25.6 0 44.8 19.2 44.8 45.2v230c-0.4 26-19.6 45.2-45.2 45.2zM704 210.8v-230c0-25.6-19.2-45.2-44.8-45.2h-294.4c-25.6 0-44.8 19.2-44.8 45.2v147.2l63.6 0.4v-128h256.4v191.6h-64v64h83.2c25.6 0 44.8-19.2 44.8-45.2zM979.2 256h-166.8c-25.6 0-44.8-19.2-44.8-45.2v-230c0-25.6 19.2-45.2 44.8-45.2h166.8c25.6 0 44.8 19.2 44.8 45.2v230c0 26-19.2 45.2-44.8 45.2zM864 768h-192c-17.6 0-32 14.4-32 32v0c0 17.6 14.4 32 32 32h192c17.6 0 32-14.4 32-32v0c0-17.6-14.4-32-32-32zM768 640h-96c-17.6 0-32 14.4-32 32v0c0 17.6 14.4 32 32 32h96c17.6 0 32-14.4 32-32v0c0-17.6-14.4-32-32-32zM974 960h-732c-27.6 0-50-22.4-50-50v-540.4c0-27.6 22.4-50 50-50h142v-78.8c0-10 3.2-19.2 8.8-26.4 5.6-7.6 13.6-13.2 23.2-16 14.8-4.4 30.8-0.4 42.4 10.4l117.6 111.2h398c27.6 0 50 22.4 50 50v540c0 27.6-22.4 50-50 50zM500.4 589.6c-6.4-6.4-14.4-9.2-22.8-9.2-8 0-16.4 3.2-22.8 9.2l-68.8 69.2-69.2-69.2c-12.4-12.4-32.8-12.4-45.2 0-6.4 6.4-9.2 14.4-9.2 22.8 0 8 3.2 16.4 9.2 22.8l69.2 68.8-69.2 69.2c-12.4 12.4-12.4 32.8 0 45.2 6.4 6.4 14.4 9.2 22.8 9.2 8 0 16.4-3.2 22.8-9.2l69.2-69.2 69.2 69.2c12.4 12.4 32.8 12.4 45.2 0 6.4-6.4 9.2-14.4 9.2-22.8 0-8-3.2-16.4-9.2-22.8l-69.6-68.8 69.2-69.2c12.8-12.8 12.8-32.8 0-45.2zM960 384h-384v512h384v-512zM864 640v0c-17.6 0-32 14.4-32 32v0c0 17.6 14.4 32 32 32v0c17.6 0 32-14.4 32-32v0c0-17.6-14.4-32-32-32z" />
<glyph unicode="&#xe97d;" glyph-name="briefing" d="M700 128h-444l-60-80c-1.2-2-4-2.4-4 0v80h-128v384h128v64h-114.8c-42.8 0-77.2-34.4-77.2-77.2v-357.6c0-42.8 34.4-77.2 77.2-77.2h50.8v-84.8c0-23.6 19.2-43.2 43.2-43.2v0c13.2 0 25.6 6 34 16.4l86.8 111.6h398.8c42.4 0 77.2 34.4 77.2 77.2v242.8h-64l-4-256zM256 384v-128h-128v128h128zM640 384v-128h-128v64l64 64h64zM960 512h-448l-60-80c-1.2-2-4-2.4-4 0v80h-128v384h640v64h-626.8c-42.8 0-77.2-34.4-77.2-77.2v-357.6c0-42.4 34.4-77.2 77.2-77.2h50.8v-84.8c0-23.6 19.2-43.2 43.2-43.2v0c13.2 0 25.6 6 34 16.4l86.8 111.6h398.8c42.4 0 77.2 34.4 77.2 77.2v366.8c0 37.6-30.4 68-68 68h4v-448zM512 704c0-35.2-28.8-64-64-64s-64 28.8-64 64 28.8 64 64 64 64-28.8 64-64zM704 704c0-35.2-28.8-64-64-64s-64 28.8-64 64 28.8 64 64 64 64-28.8 64-64zM896 704c0-35.2-28.8-64-64-64s-64 28.8-64 64 28.8 64 64 64 64-28.8 64-64z" />
</font>
</defs>
</svg>
