<?xml version="1.0" standalone="no"?>
<!DOCTYPE svg PUBLIC "-//W3C//DTD SVG 1.1//EN" "http://www.w3.org/Graphics/SVG/1.1/DTD/svg11.dtd" >
<svg xmlns="http://www.w3.org/2000/svg">
<metadata>
<json>
<![CDATA[
{
	"fontFamily": "moonshine-font",
	"majorVersion": 1,
	"minorVersion": 0,
	"fontURL": "",
	"designer": "Moonshiners",
	"version": "Version 1.0",
	"fontId": "moonshine-font",
	"psName": "moonshine-font",
	"subFamily": "Regular",
	"fullName": "moonshine-font",
	"description": "Font generated by IcoMoon."
}
]]>
</json>
</metadata>
<defs>
<font id="moonshine-font" horiz-adv-x="512">
<font-face units-per-em="512" ascent="435.2" descent="-76.8" />
<missing-glyph horiz-adv-x="512" />
<glyph unicode="&#x20;" horiz-adv-x="0" d="" />
<glyph unicode="&#xe641;" glyph-name="i-babies" data-tags="i-babies" d="M249.676-13.828c-65.326 2.396-63.828-44.248-63.792-45.1 4.148-1.364 7.186-1.738 7.186-1.738l119.23-0.608c2.23 0.148 4.322 0.774 6.334 1.56 0.366 3.474 3.45 46.572-68.958 45.886zM321.252 438.178c-70.32-35.624-138.746 0.708-138.746 0.708 71.706-85.354 138.746-0.708 138.746-0.708zM403.524 425.562l-70.778 10.854c-77.62-88.716-148.098-20.092-156.724 1.522l-74.082-10.838-95.386-47.998 40.698-91.69 55.55 9.78 9.41-8.586-5.788-239.396c77.18 14.554 106.19-52.12 106.19-52.12l-10.544-3.132c-36.8 59.816-92.586 43.996-92.586 43.996l-3.22 4.626c0 0 51.87-77.144 61.566-89.392 2.644-3.34 5.718-5.834 8.798-7.774-0.81 0.594-1.626 1.24-2.434 1.994 0 0-0.37 50.114 75.418 47.416 75.786-2.698 76.724-32.686 78.956-48.372 0 0-0.024-0.030-0.028-0.036 3.982 3.484 6.398 6.832 6.398 6.832l60.298 84.72c-1.276 0.352-56.152 15.102-92.526-44.014l-10.544 3.132c0 0 29.028 66.728 106.276 52.108l-2.644 237.656 8.582 8.496 55.454-8.82 41.626 90.054-97.936 48.982z" />
<glyph unicode="&#xe642;" glyph-name="i-belt" data-tags="i-belt" d="M504.758 230.576c-226.656 88.196-473.66 12.85-486.292 7.94-12.632-4.912-14.034-19.016-14.034-19.016v-106.59c0-9.122 8.15-14.034 8.15-14.034 51.602-15.496 95.1-25.336 140.452-31.18-0.154 1.082-0.266 1.978-0.32 2.426l-0.024 0.4c-0.014 4.15-0.344 101.724 0.008 106.986 0.356 5.33 2.054 14.882 2.126 15.286l0.038 0.19c0.27 1.144 0.644 2.178 0.97 3.258-39.088 4.040-75.076 10.794-117.72 21.448 0 0 211.92 67.586 434.364 0 0 0-104.488-35.612-265.564-25.138-2.964-3.934-4.718-8.032-5.248-9.41l-0.684-49.3-0.694-17.42c-0.010-0.34-0.992-39.108 1.97-50.624 0.226-0.882 0.614-1.718 1.050-2.538 176.026-15.642 281.286 29.728 290.926 35.62 12.632 7.718 13.334 14.034 13.334 14.034s0 99.644 0 104.778c-0.002 5.128-2.808 12.884-2.808 12.884zM255.826 106.782c-10.622 0-19.234 8.612-19.234 19.234s8.61 19.234 19.234 19.234c10.624 0 19.234-8.61 19.234-19.234s-8.612-19.234-19.234-19.234zM351.554 110.73c-10.622 0-19.234 8.61-19.234 19.234s8.612 19.234 19.234 19.234 19.234-8.612 19.234-19.234-8.61-19.234-19.234-19.234zM446.082 126.018c-10.622 0-19.234 8.61-19.234 19.234s8.612 19.234 19.234 19.234c10.622 0 19.234-8.612 19.234-19.234 0.002-10.622-8.612-19.234-19.234-19.234zM323.558 53.942c-2.458-2.562-8.9-8.476-16.812-9.426-1.232-0.148-4.98-0.596-42.088-0.596-25.974 0-54.76 0.224-55.046 0.226l-0.526 0.004-0.5 0.158c-0.84 0.266-20.614 6.638-24.18 20.494-3.202 12.462-2.232 50.97-2.188 52.604l0.002 0.048 86.694 0.938v16.288h-86.004l0.004 0.102 0.7 50.368 0.178 0.524c0.314 0.93 7.928 22.778 26.12 23.174 2.988 0.066 8.476 0.098 16.306 0.098 28.61 0 80.318-0.438 80.836-0.444l0.484-0.004 0.466-0.136c1.362-0.398 7.54-2.312 11.1-5.302l22.71 1.602c-3.902 6.944-13.474 19.848-31.508 21.772h-105.206c-3.23-0.604-31.358-6.666-38.114-34.978-0.178-1.010-1.704-9.748-2.016-14.424-0.268-4.006-0.112-71.158 0.008-106.294 0.636-5.28 1.936-11.942 2.966-13.656 0.188-0.31 0.454-0.796 0.796-1.43 10.19-18.764 22.732-28.674 37.276-29.45 7.604-0.404 20.346-0.612 37.87-0.612 28.844 0 61.356 0.568 63.952 0.614 2.192 0.264 25.886 3.674 37.23 29.048l-21.51-1.31z" />
<glyph unicode="&#xe643;" glyph-name="i-bra" data-tags="i-bra" d="M96 227.318v138.536h-14.264v-151.406l-10.88-22.598h-70.78l-0.076-31.85h78c13.864-33.492 48.226-59.766 86.726-59.766 51.004 0 91.274 40.762 91.274 91.766-1.076-0.584-113.918 59.57-160 35.318zM441.142 191.85l-10.88 22.598v151.406h-14.262v-138.536c-46.082 24.252-158.924-35.902-160-35.318 0-51.004 40.27-91.766 91.274-91.766 38.5 0 72.862 26.274 86.726 59.766h78l-0.076 31.85h-70.782z" />
<glyph unicode="&#xe644;" glyph-name="i-bshoes" data-tags="i-bshoes" d="M443.23 127.324c-14.088 6.056-116.842 58.842-127.496 68.816-1.336 1.25-3.202 2.738-5.448 4.384 21.552 13.506 30.31 35.524 31.376 66.144 3.208 92.406-49.474 99.314-98.666 106.602-66.364 10.376-213.080 2.98-211.862-61.258 1.048-55.19 23.256-93.89 29.506-103.72-18.978-67.672-11.6-154.82-11.6-154.82s4.51-28.6 10.992-35.768c6.478-7.164 91.204-12.898 91.204-12.898l35.516-1.314c0 0 63.312-15.548 164.054-14.994 100.744 0.556 113.682 29.432 126.622 45.536 12.94 16.102-13.204 87.324-34.198 93.29zM178.932 317.576c-59.52 0-107.766 8.148-107.766 18.196 0 10.052 55.778 25.448 115.298 25.448s100.238-15.398 100.238-25.448c-0.004-10.048-48.25-18.196-107.77-18.196z" />
<glyph unicode="&#xe645;" glyph-name="i-gloves" data-tags="i-gloves" d="M51.802 45.016c0 0-57.704 180.562-46.080 229.136 0 0 4.256 67.832 68.944 75.51s92.338-32.45 101.554-68.452c9.216-36.002 12.288-92.834 12.288-92.834s25.6 40.448 46.594 37.376 26.114-33.282 19.456-46.080c-6.658-12.802-58.37-100.354-62.464-118.786l-140.292-15.87zM58.456-49.736l144.388 16.384c0 0 24.064 43.52-10.752 80.386l-140.292-15.874c0.002 0.002-29.184-39.424 6.656-80.896zM460.198 128.134c0 0 57.704 180.562 46.080 229.136 0 0-4.256 67.832-68.944 75.51s-92.338-32.45-101.554-68.452c-9.216-35.998-12.288-92.834-12.288-92.834s-25.6 40.448-46.594 37.376c-20.992-3.072-26.114-33.282-19.456-46.080 6.658-12.802 58.37-100.354 62.464-118.786l140.292-15.87zM453.544 33.382l-144.388 16.384c0 0-24.064 43.52 10.752 80.386l140.292-15.874c-0.002 0.002 29.184-39.424-6.656-80.896z" />
<glyph unicode="&#xe646;" glyph-name="i-hat" data-tags="i-hat" d="M436.136 168.020c-5.086 28.768-12.692 66.548-21.646 94.242-16.488 50.994-39.798 46.226-61.26 49.586-21.462 3.358-11.198-22.156-91.83 2.328s-138.968-31.806-138.968-31.806l-32.202-134.712c176.734-32.462 347.822 3.43 347.822 3.43l4.864-23.468c-186.248-49.58-358.592-4.664-358.592-4.664l5.69 23.804c-9.972-1.244-15.774-2.010-15.774-2.010s-71.19-10.234-74.084-30.7 47.696-44.344 137.49-50.032c89.792-5.684 350.39-10.234 372.16 68.224-0.002 0 11.99 24.152-73.67 35.778z" />
<glyph unicode="&#xe649;" glyph-name="i-jewelry" data-tags="i-jewelry" d="M228.076 379.566l59.792 0.008-1.802 48.468c-18.178 0.042-36.354 0.036-54.532-0.008l-3.458-48.468zM302.75 292.272c20.898 28.684 41.944 57.57 63.616 87.316l-71.898-3.636-15.396-76.13 8.66 75.792-3.696-0.188h-55.836l9.76-75.604-16.642 75.604h-0.386l-71.040 4.13c21.536-29.552 42.734-58.636 63.61-87.28-17.588-4.682-34.060-12.074-48.978-21.686-1.476-0.758-2.952-1.508-4.402-2.308l1.026 0.132c-45.938-31.126-76.13-83.74-76.13-143.412 0-95.604 77.504-173.11 173.11-173.11s173.11 77.504 173.11 173.11c0 80.17-54.512 147.584-128.488 167.27zM258.128-12.416c-75.772 0-137.416 61.644-137.416 137.416s61.644 137.416 137.416 137.416 137.416-61.644 137.416-137.416-61.644-137.416-137.416-137.416zM231.512 428.034c-12.048-0.026-24.092 0.062-36.14-0.006-3.11-0.018-7.232-1.494-9.144-3.76-12.24-14.498-23.994-29.404-36.34-44.718l71.534 0.012 10.090 48.472zM321.448 428.046c-11.788 0.056-23.574-0.032-35.362-0.006l7.95-48.466 72.326 0.012c-12.28 15.214-24.292 30.362-36.714 45.17-1.686 2.020-5.41 3.278-8.2 3.29z" />
<glyph unicode="&#xe64a;" glyph-name="i-kids" data-tags="i-kids" d="M185.202 254.824l44.806-13.364c4.834 6.636 12.608 10.996 21.446 10.996 8.876 0 16.682-4.392 21.51-11.074l45.064 13.44c0 0 3.408-8.18 4.676-19.354 24.388 3.386 49.384 8.924 74.242 17.496l8.984 8.894 14.522-2.31 36.992 104.446-52.414 34.178-86.124 13.208c-73.004-76.32-145.242 0.742-145.242 0.742l-84.34-12.338-43.766-24.324 30.51-114.162 14.158 2.494 9.85-8.988c0.708-0.238 32.504-11.072 80.612-18.012 1.374 10.486 4.514 18.032 4.514 18.032zM396.948 252.968l3.436-7.762c-26.496-9.134-52.114-14.518-77.226-17.614 0.016-7.57-1.236-15.832-5.128-23.618l-44.622 6.92c-4.788-7.004-12.828-11.608-21.95-11.608-9.104 0-17.122 4.588-21.914 11.564l-44.336-6.876c-4.208 8.418-5.346 17.404-5.11 25.454-49.966 6.774-82.204 17.474-82.94 17.722l-96.586-252.802c0 0 220.29-97.034 510.858 0l-114.482 258.62z" />
<glyph unicode="&#xe64b;" glyph-name="i-kshoes" data-tags="i-kshoes" d="M500.238 143.256l-8.272 2.584c7.238 14.472 2.366 42.82-29.98 47.554-48.464-6.182-83.734 12.924-83.734 12.924-85.274-18.978-103.132 5.592-111.836 28.946 7.544 12.77 15.698 27.974 15.698 27.974l-36.184 26.812c-4.842-9.776-9.256-17.496-13.524-23.754-1.602-0.492-3.202-0.982-4.972-1.7-56.058-22.84-184.642 25.454-183.28 28.782l-1.372-3.35c-32.032-64.094-21.698-165.38-21.698-165.38l-6.204-5.17c-3.618-1.034-10.336-20.158-2.584-40.316 7.754-20.158 163.336-15.002 163.336-15.002l-0.518 13.97c0 0 70.814-14.472 183.494-13.958 112.68 0.518 127.152 27.396 141.626 42.384 14.476 14.994 0.004 36.7 0.004 36.7zM155.994 236.812c-38.064-4.454-85.826 30.654-104.786 46.11 30.066-11.336 121.372-42.714 172.85-27.112-16.704-17.57-33.746-14.98-68.064-18.998zM254.716 218.204c1.272 0.706 3.908 4.432 7.048 9.412 7.738-17.824 22.658-35.954 65.494-35.95 11.45 0 25.014 1.376 40.846 4.318-51.594-44.114-113.388 22.22-113.388 22.22z" />
<glyph unicode="&#xe64c;" glyph-name="i-mbsize" data-tags="i-mbsize" d="M195.928 447.638h120.876c0.002 0-58.302-41.52-120.876 0zM462.208 260.368l-29.772 127.782-15.51 20.256-86.47 36.668c-77.79-62.646-151.41-0.472-151.41-0.472l-85.616-32.68c0 0-9.544-14.066-15.070-24.112s-27.836-126.406-27.836-126.406l70.326-2.792 1.212-44.106 4.018-278.79h257.19l4.52 290.342-0.68 34.306 75.098 0.004zM247.294 183.826l-25.206 41.234-25.652-41.234h-11.542l31.166 48.994-29.046 44.764h12.056l23.276-37.13 23.47 37.13h11.604l-29.046-44.376 31.294-49.38-12.376-0.002zM325.336 183.826h-52.262v93.758h10.898v-83.88h41.366v-9.878h-0.002z" />
<glyph unicode="&#xe64d;" glyph-name="i-mshoes" data-tags="i-mshoes" d="M8.536 108.002c0 0 76.132-4.552 168.812-9.93 92.682-5.38 104.388-7.174 119.576-9.516 23.17-0.828 139.436 0 187.846 19.448l22.756 10.344v-9.93c0 0-13.24-7.862-23.998-12.414-10.756-4.552-58.754-13.654-124.126-18.618-53.776-1.148-37.272-0.676-123.3 7.862-79.026 2.482-161.364 6.694-177.088 7.898s-48.404 4.634-48.404 4.634-0.004-0.002-2.074 10.222zM163.284 92.486l-154.748 15.516-1.182-23.998 155.93-4.138zM494.322 158.348c-10.49 3.718-21.104 8.098-32.006 9.474-46.794 5.904-91.79 18.146-135.212 36.278-6.012 2.51-9.316 1.358-13.37-3.258-4.888-5.566-10.658-10.402-16.382-15.15-1.444-1.194-4.168-0.844-6.306-1.202 0.832 1.99 1.168 4.484 2.582 5.88 6.050 5.97 12.418 11.616 19.634 18.268-7.17 3.242-12.402 5.61-17.49 7.91-7.182-6.708-13.808-13.238-20.868-19.264-1.932-1.65-5.164-1.778-7.8-2.606 1.28 2.318 2.096 5.13 3.924 6.87 6.218 5.912 12.792 11.446 19.918 17.728-6.268 4.494-10.256 7.354-15.84 11.358-4.892-5.294-9.076-10.278-13.734-14.774-9.684-9.344-9.788-9.238-15.704-6.518 8.404 7.928 16.716 15.774 25.576 24.134-6.094 4.812-10.656 8.416-15.234 12.030-7.698-7.354-14.948-14.576-22.598-21.35-1.66-1.468-4.746-1.326-7.174-1.928 1.008 2.15 1.498 4.856 3.112 6.356 7.206 6.694 14.732 13.044 22.68 19.988-21.090 18.402-39.794 34.656-58.412 51.010-5.688 4.996-9.9 3.846-14.822-1.618-9.194-10.206-13.51-21.474-14.016-33.878-7.996-14.162-18.576-22.494-31.556-24.694-38.306-6.514-86.026 41.040-86.506 41.52l-0.746-0.742c-0.010 0.010-0.020 0.018-0.030 0.030-0.584-0.648-1.218-1.274-1.852-1.896l-1.002-0.996 0.002-0.002c-2.084-2.016-4.17-4.032-5.4-6.48-17.1-34.018-28.95-69.908-35.674-107.32-1.824-10.154-1.076-20.992-0.048-31.37 0.828-8.376 6.12-14.268 15.364-14.742 31.588-1.616 63.17-3.394 94.774-4.59 31.896-1.208 63.892-0.696 95.698-2.966 31.846-2.274 63.438-7.922 95.272-10.526 40.768-3.336 81.286 1.726 121.442 8.13 23.486 3.746 46.614 9.984 69.67 16.002 7.684 2.006 15.67 6.352 15.734 16.168 0.070 10.13-6.986 15.684-15.6 18.736zM163.202 237.158c-16.662-22.814-55.094-27.256-77.252-6.936-9.476 8.69-16.6 19.93-24.046 30.85 16.196-12.428 40.51-27.408 63.808-27.408 2.81 0 5.604 0.218 8.364 0.684 12.392 2.096 22.764 9.038 30.992 20.612 0.176-1.786 0.372-3.576 0.688-5.408 0.674-3.93-0.258-9.25-2.554-12.394z" />
<glyph unicode="&#xe64e;" glyph-name="i-pants" data-tags="i-pants" d="M85.69 435.644h333.958l80.962-499.644h-146.742l-60.718 318.694h-65.782l-65.78-318.694h-151.8z" />
<glyph unicode="&#xe64f;" glyph-name="i-petitte" data-tags="i-petitte" d="M171.392 422.018c1.078-5.388 0-84.050 0-84.050l43.102 36.638c0 0-12.93 48.49-11.854 61.422l-31.248-14.010zM340.572 422.018c-1.078-5.388 0-84.050 0-84.050l-43.102 36.638c0 0 12.93 48.49 11.854 61.422l31.248-14.010zM16.292-13.35l6.396 29.124 63.576-21.552-15.198-30.5zM495.546-7.714l-6.62 31.432-62.558-25.454 14.404-28.908zM209.754 436.026c0 0 43.394 23.876 92.026 0 0 0-6.412-80.030-42.284-79.618s-47.738 49.972-49.742 79.618zM171.508 422.822c1.080-5.398 0-84.196 0-84.196l43.178 36.7c0 0-12.954 48.574-11.874 61.528l-31.304-14.032zM340.978 422.822c-1.080-5.398 0-84.196 0-84.196l-43.178 36.7c0 0 12.954 48.574 11.874 61.528l31.304-14.032zM16.14-13.298l6.406 29.174 63.686-21.588-15.224-30.554zM496.22-7.652l-6.632 31.488-62.664-25.498 14.428-28.958zM485.076 34.582l-97.682 369.89-39.794 15.732 1.158-98.81-56.838 46.458c0 0-28.174-45.938-71.35 1.558l-56.626-48.238-1.798 97.948-37.052-14.648-98.112-377.8 63.686-21.588 52.776 177.026c0 0-19.43-173.788-31.304-205.092 0 0 173.080-95.72 284.256 7.15l-25.194 196.862 51.266-172.59 62.608 26.142zM245.238 186.066l-25.014 40.92-25.456-40.92h-11.456l30.928 48.62-28.826 44.42h11.964l23.098-36.848 23.292 36.848h11.516l-28.826-44.038 31.056-49.002h-12.276zM314.412 191.666c-5.938-4.582-14-6.874-24.184-6.874-11.028 0-19.518 1.422-25.456 4.264v10.436c3.818-1.614 7.974-2.886 12.474-3.818s8.954-1.4 13.364-1.4c7.21 0 12.644 1.37 16.292 4.104 3.646 2.74 5.472 6.546 5.472 11.424 0 3.224-0.648 5.866-1.942 7.922-1.294 2.058-3.458 3.956-6.492 5.698s-7.648 3.714-13.84 5.918c-8.654 3.096-14.836 6.768-18.55 11.010s-5.568 9.778-5.568 16.61c0 7.17 2.69 12.878 8.080 17.12s12.518 6.364 21.382 6.364c9.248 0 17.752-1.696 25.522-5.092l-3.376-9.418c-7.68 3.224-15.146 4.836-22.402 4.836-5.728 0-10.204-1.232-13.426-3.692-3.226-2.46-4.836-5.876-4.836-10.246 0-3.224 0.592-5.866 1.782-7.924 1.184-2.056 3.188-3.946 6.010-5.662 2.822-1.722 7.138-3.62 12.95-5.698 9.762-3.478 16.474-7.214 20.144-11.2 3.668-3.988 5.506-9.164 5.506-15.528 0.004-8.186-2.968-14.572-8.906-19.154zM209.936 436.854c0 0 43.468 23.916 92.184 0 0 0-6.422-80.168-42.356-79.756-35.934 0.414-47.82 50.058-49.828 79.756z" />
<glyph unicode="&#xe650;" glyph-name="i-polo" data-tags="i-polo" d="M248.356 376.266l3.87 3.696-50.158 64.356-18.454-16.090 0.208-0.444 36.7-78.106zM326.452 428.228l-18.454 16.090-50.158-64.356 31.704-30.284zM210.024 448.238h90.018l-45.128-54.89zM246.548 374.854l3.858 3.686-49.994 64.142-18.394-16.036 0.208-0.442 36.58-77.85zM324.388 426.646l-18.394 16.036-49.994-64.142 31.6-30.186zM208.342 446.59h89.722l-44.98-54.708zM449.268 242.226l-27.956 119.976-14.562 19.018-76.884 32.606-39.678-82.968-31.846 31.796-7.664-0.010-32.312-32.33-39.64 83.066 0.272 0.148-75.982-29.006c0 0-8.962-13.206-14.148-22.638-5.19-9.432-26.136-118.684-26.136-118.684l66.030-2.622 1.138-41.41 3.774-261.758h241.478l4.244 272.606-0.638 32.21c0 0 70.51 0 70.51 0zM254.412 313.79c-1.924 0-3.484 1.56-3.484 3.484s1.56 3.482 3.484 3.482 3.482-1.56 3.482-3.482c0-1.924-1.56-3.484-3.482-3.484zM254.412 341.752c-1.924 0-3.484 1.56-3.484 3.482 0 1.924 1.56 3.484 3.484 3.484s3.482-1.56 3.482-3.484-1.56-3.482-3.482-3.482z" />
<glyph unicode="&#xe651;" glyph-name="i-premama" data-tags="i-premama" d="M371.558 215.808l-42.47 3.202c149.042 5.734 56.606 141.16 56.606 141.16v83.122h-7.882l-1.432-83.12c-21.496-60.19-120.38-55.892-120.38-55.892s-98.884-4.298-120.38 55.892l-1.432 83.12h-7.882v-83.12c0 0-92.434-135.428 56.608-141.16l-42.47-3.202c0 0 1.626-30.474-4.104-44.090-5.734-13.616-38.374-58.758-23.126-114.646 15.244-55.892 36.024-111.782 142.792-121.098 106.766 9.314 127.546 65.206 142.792 121.098 15.244 55.892-17.394 101.034-23.126 114.646-5.74 13.612-4.114 44.088-4.114 44.088z" />
<glyph unicode="&#xe652;" glyph-name="i-shirt" data-tags="i-shirt" d="M491.23-21.89h-67.508l-1.056 7.78h68.066l-7.34 114.726-61.102 262.942-14.61 19.082-77.212 32.744-39.506-84.906-32.678 33.532-5.898-0.010-2.75-2.828v-423.808h-10.758v412.746l-19.636-20.192-39.586 85.256 0.332 0.186-77.042-29.41c0 0-8.99-13.25-14.196-22.714s-56.31-264.040-56.31-264.040l-11.356-150.21 66.246-2.63 2.78 32.63-0.074-0.874h-66.75l0.588 7.78h66.824l9.41 110.468 29.812 103.63 3.786-262.622h242.274l4.258 273.504 27.446-114.512 20.348-150.002 65.064 2.63-1.866 29.122zM78.788-35.194c2.334 0 4.228-1.892 4.228-4.228 0-2.334-1.892-4.228-4.228-4.228-2.334 0-4.228 1.892-4.228 4.228 0.002 2.336 1.894 4.228 4.228 4.228zM258.516-51.014c-2.334 0-4.228 1.892-4.228 4.228 0 2.334 1.892 4.228 4.228 4.228 2.334 0 4.228-1.892 4.228-4.228s-1.894-4.228-4.228-4.228zM258.516 18.944c-2.334 0-4.228 1.892-4.228 4.228 0 2.334 1.892 4.228 4.228 4.228 2.334 0 4.228-1.892 4.228-4.228s-1.894-4.228-4.228-4.228zM258.516 96.208c-2.334 0-4.228 1.892-4.228 4.228 0 2.334 1.892 4.228 4.228 4.228 2.334 0 4.228-1.892 4.228-4.228s-1.894-4.228-4.228-4.228zM258.516 173.472c-2.334 0-4.228 1.892-4.228 4.228 0 2.334 1.892 4.228 4.228 4.228 2.334 0 4.228-1.892 4.228-4.228s-1.894-4.228-4.228-4.228zM258.516 250.736c-2.334 0-4.228 1.892-4.228 4.228 0 2.334 1.892 4.228 4.228 4.228 2.334 0 4.228-1.892 4.228-4.228 0-2.334-1.894-4.228-4.228-4.228zM258.516 328c-2.334 0-4.228 1.892-4.228 4.228 0 2.334 1.892 4.228 4.228 4.228 2.334 0 4.228-1.892 4.228-4.228 0-2.334-1.894-4.228-4.228-4.228zM435.118-43.648c-2.334 0-4.228 1.892-4.228 4.228 0 2.334 1.892 4.228 4.228 4.228 2.334 0 4.228-1.892 4.228-4.228 0-2.334-1.894-4.228-4.228-4.228zM248.356 376.266l3.87 3.696-50.158 64.356-18.454-16.090 0.208-0.444 36.7-78.106zM326.452 428.228l-18.454 16.090-50.158-64.356 31.704-30.284zM210.024 448.238h90.018l-45.128-54.89z" />
<glyph unicode="&#xe653;" glyph-name="i-suit" data-tags="i-suit" d="M246.030 374.906l3.916 3.742-50.754 65.12-18.674-16.28 0.21-0.45 37.138-79.034zM207.242 447.734h91.088l-45.664-55.54zM325.056 427.488l-18.674 16.28-50.756-65.12 32.082-30.644zM488.162-18.93l-67.554-2.156-0.826 4.396 6.69-38.26 67.388 2.66zM300.362 56.444h62.96v-16.33h-62.96v16.33zM269.812 91.478c0-3.316-2.688-6.004-6.004-6.004s-6.004 2.688-6.004 6.004c0 3.316 2.688 6.004 6.004 6.004s6.004-2.688 6.004-6.004zM247.978 149.254l-103.308 213.242 16.17 15.064-17.496 11.606 26.378 27.678-70.652-26.968c0 0-9.098-13.408-14.364-22.984-5.268-9.576-68.472-419.182-68.472-419.182l67.036-2.662 5.686 33.866-67.534 2.154 1.066 6.75 67.504-2.738 36.372 216.616 3.83-265.746h125.178c-19.424 21.36-21.924 92.974-7.394 213.304zM213.616 34.672h-73.846v27.216h73.846v-27.216zM277.47-64.048h97.88l4.31 276.76 39.812-227.634 67.538 2.738-64.796 379.4-14.784 19.308-71.658 30.388 29.182-27.6-17.716-11.752 16.228-15.12-97.232-188.122-9.998-24.726c-21.1-173.776-0.362-208.108 9.222-213.638zM263.808-11.056c-6.312 0-11.446 5.134-11.446 11.446s5.134 11.446 11.446 11.446 11.446-5.134 11.446-11.446c0-6.31-5.134-11.446-11.446-11.446zM263.808 80.032c-6.312 0-11.446 5.134-11.446 11.446s5.134 11.446 11.446 11.446 11.446-5.134 11.446-11.446-5.134-11.446-11.446-11.446zM368.766 34.672h-73.846v27.216h73.846v-27.216zM334.1 378.644l17.786 11.796-24.646 23.308-52.78-205.738 78.914 152.676zM193.616 382.998l59.404-219.586 4.296 10.626 51.978 202.618-19.968-42.916-33.066 33.932-5.97-0.008-33.538-34.49-23.136 49.824zM251.078 363.634l5.716-0.090 9.89-13.156c0 0-4.374-2.936-12.984-2.512s-12.966 4.326-12.966 4.326l10.344 11.432zM240.1 347.138c0 0 6.046-5.144 13.412-5.144s13.172 3.494 13.172 3.494l10.144-72.282-23.050-85.176-21.856 85.176 8.178 73.932zM155.974 390.586l18.006-11.942-19.332-18.014 82.794-170.902-60.334 223.028zM269.812 0.392c0-3.316-2.688-6.004-6.004-6.004s-6.004 2.688-6.004 6.004c0 3.316 2.688 6.004 6.004 6.004s6.004-2.688 6.004-6.004zM145.212 56.444h62.96v-16.33h-62.96v16.33z" />
<glyph unicode="&#xe654;" glyph-name="i-trunks" data-tags="i-trunks" d="M0 7.914l3.612 27.046h206.246l-5.058-27.046zM512 7.914l-3.612 27.046h-206.246l5.058-27.046zM227.39 328.16c-2.962 0.906-5.158 3.556-5.158 6.812 0 3.994 3.236 7.23 7.23 7.23s7.23-3.236 7.23-7.23c0-3.258-2.196-5.91-5.158-6.812v-14.348h57.724v14.348c-2.962 0.906-5.158 3.556-5.158 6.812 0 3.994 3.236 7.23 7.23 7.23s7.23-3.236 7.23-7.23c0-3.258-2.196-5.91-5.158-6.812v-14.348h159.166l-4.582 47.224h-385.456l-7.466-47.224h172.324v14.348h0.002zM455.118 304.492h-161.758v-67.264h-4.148v67.264h-57.724v-86.224h-4.148v86.224h-175.012l-45.22-255.208h206.248l9.854 36.96h67.462l11.472-36.96h204.302l-51.328 255.208zM230.334 203.388h-1.844v8.048h1.844v-8.048zM292.21 222.116h-1.85v8.048h1.85v-8.048z" />
<glyph unicode="&#xe655;" glyph-name="i-tshirt" data-tags="i-tshirt" d="M459.616 257.306l-29.338 125.912-15.282 19.96-85.204 36.132c-76.648-61.73-149.194-0.466-149.194-0.466l-84.364-32.202c0 0-9.404-13.858-14.85-23.76-5.444-9.898-27.428-124.556-27.428-124.556l69.296-2.75 1.194-43.458 3.96-274.708h253.424l4.454 286.094-0.67 33.804h74.002zM197.018 441.834h119.108c0 0-57.45-40.912-119.108 0z" />
<glyph unicode="&#xe656;" glyph-name="i-underwear" data-tags="i-underwear" d="M7.598 278.516h496.804v-26.158h-496.804v26.158zM7.598 230.188h496.804l-0.836-61.122c0 0-148.716 28.028-174.802-56.896-15.826-51.52-128.342-52.62-147.052-0.026-18.714 52.596-22.43 74.898-174.114 58.090 0 0.002 0 59.954 0 59.954z" />
<glyph unicode="&#xe657;" glyph-name="i-wbottom" data-tags="i-wbottom" d="M414.406 400.364h-319.038l-1.944-14.726 323.574 1.298zM135.87 303.652l-48.398-317.808c20.104-4.9 43.214-9.642 68.826-13.43l19.284 124.776-5.144-126.714c25.992-3.35 54.178-5.632 84.096-6.040l2.376 293.336 11.064-293.344c27.392 0.146 56.050 1.924 85.596 5.858l-8.69 181.706 22.566-179.796c23.232 3.61 46.948 8.596 70.952 15.238l-50.186 316.218 65.284-311.712c18.872 5.748 37.876 12.412 56.95 20.384l-90.888 361.854-330.082-3.242-86.1-358.612c0 0 26.044-11.26 69.862-22.868l62.632 314.196zM76.284-11.342c2.82-0.734 5.674-1.466 8.632-2.196l-8.632 2.196zM255.588-35.59c2.958-0.036 5.972 0 8.964 0h-8.964z" />
<glyph unicode="&#xe658;" glyph-name="i-wbsizes" data-tags="i-wbsizes" d="M171.392 422.018c1.078-5.388 0-84.050 0-84.050l43.102 36.638c0 0-12.93 48.49-11.854 61.422l-31.248-14.010zM340.572 422.018c-1.078-5.388 0-84.050 0-84.050l-43.102 36.638c0 0 12.93 48.49 11.854 61.422l31.248-14.010zM16.292-13.35l6.396 29.124 63.576-21.552-15.198-30.5zM495.546-7.714l-6.62 31.432-62.558-25.454 14.404-28.908zM484.42 34.446l-97.514 369.252-39.724 15.706 1.156-98.64-56.74 46.378c0 0-28.124-45.858-71.228 1.556l-56.528-48.156-1.796 97.78-36.988-14.624-97.944-377.15 63.576-21.552 52.684 176.722c0 0-19.396-173.488-31.25-204.738 0 0 172.782-95.556 283.766 7.138l-25.15 196.524 51.178-172.294 62.502 26.098zM255 185.67l-24.97 40.85-25.412-40.85h-11.436l30.876 48.536-28.776 44.344h11.944l23.058-36.784 23.252 36.784h11.496l-28.776-43.962 31.002-48.918h-12.258zM332.314 185.67h-51.774v92.88h10.794v-83.098h40.98v-9.782zM209.754 436.026c0 0 43.394 23.876 92.026 0 0 0-6.412-80.030-42.284-79.618s-47.738 49.972-49.742 79.618z" />
<glyph unicode="&#xe659;" glyph-name="i-wshoes" data-tags="i-wshoes" d="M484.946 55.022c-6.61 2.904-13.544 5.38-20.572 6.972-22.104 5.008-44.304 9.608-66.534 14.028-0.020 0.006-0.042-0.006-0.062 0-5.762 2.53-94.242 42.158-123.152 99.984-28.894 57.782-151.346 225.404-198.508 224.146-3.196 0.716-6.654-1.542-11.82-6.476-19.66-18.78-35.598-40.434-48.058-64.528-6.738-13.028-12.45-27.144-7.748-41.828 5.304-16.572 11.868-32.904 19.556-48.516 14.122-28.676 27.186-57.698 29.378-89.968 3.158-46.462 5.232-76.638 7.516-123.156 0.576-11.716 0.546-12.17 12.454-11.674 2.294 0.096 4.568 0.68 7.308 1.11 0 3.222 0.022 5.914-0.002 8.608-0.598 62.67-1.228 108.978-1.782 171.648-0.138 15.848 2.316 18.192 18.336 17.272 3.834-0.222 7.798-1.232 11.358-2.704 21.922-9.082 74.372-97.364 84.476-118.648 11.406-24.026 22.462-48.242 32.776-72.748 3.834-9.108 9.582-14.82 18.242-18.802 22.12-10.174 45.742-11.47 69.326-11.044 64.044 1.164 126.958 12.232 190.284 22.936 3.31 23.91-2.142 34.32-22.772 43.388zM328.936 72.2c-14.378 11.936-28.356 24.824-40.262 39.156-19.122 23.014-71.942 120.966-90.962 144.072-37.62 45.71-82.416 85.408-113.528 136.642-0.164 0.268-0.306 0.448-0.464 0.702 46.212-14.076 156.068-161.35 185.204-219.616 26.758-53.518 99.764-90.66 120.936-100.542-19.698-15.664-41.434-16.6-60.924-0.414z" />
<glyph unicode="&#xe65a;" glyph-name="i-wtop" data-tags="i-wtop" d="M171.592 422.718c1.078-5.394 0-84.158 0-84.158l43.158 36.684c0 0-12.948 48.552-11.868 61.5l-31.29-14.026zM340.986 422.718c-1.078-5.394 0-84.158 0-84.158l-43.158 36.684c0 0 12.948 48.552 11.868 61.5l31.29-14.026zM16.292-13.206l6.404 29.16 63.658-21.578-15.218-30.54zM496.16-7.564l-6.63 31.474-62.638-25.486 14.424-28.944zM125.196 404.376l-98.068-377.632 63.658-21.578 52.752 176.948c0 0-19.422-173.71-31.29-205 0 0 173.002-95.678 284.13 7.146l-25.182 196.774 51.242-172.514 62.58 26.132-97.638 369.724-39.776 15.726 1.158-98.766-56.814 46.438c0 0-28.16-45.916-71.318 1.558l-56.6-48.218-1.798 97.904-37.036-14.642zM210.2 436.746c0 0 43.45 23.906 92.142 0 0 0-6.42-80.132-42.338-79.72-35.916 0.412-47.798 50.034-49.804 79.72z" />
<glyph unicode="&#xe900;" glyph-name="instagram-big" data-tags="instagram" d="M255.542 254.174c-30.206-0.7-54.438-25.698-53.98-55.68 0.468-30.612 25.474-55.084 55.794-54.606 30.478 0.482 55.118 25.892 54.354 56.050-0.774 30.686-25.892 54.938-56.168 54.236zM327.356 333.396c-47.204 1.010-94.462 1.006-141.664-0.010-38.538-0.828-61.802-23.324-62.868-61.776-1.344-48.426-1.38-96.948 0.024-145.372 1.114-38.428 24.44-60.256 63.070-61.65 23.458-0.848 46.972-0.156 70.46-0.176 23.49 0 47.002-0.664 70.462 0.148 39.644 1.372 62.878 23.85 63.758 63.38 1.056 47.452 1.064 94.964-0.016 142.414-0.894 39.176-24.056 62.204-63.226 63.042zM256.266 113.844c-46.808 0.212-84.828 38.656-84.608 85.552 0.22 46.932 38.562 85.042 85.338 84.82 46.806-0.222 84.83-38.664 84.614-85.55-0.214-46.916-38.568-85.034-85.344-84.822zM345.174 267.67c-11.048-0.2-19.838 8.366-20.024 19.512-0.186 11.23 8.204 19.952 19.338 20.104 11.198 0.152 19.94-8.308 20.068-19.416 0.128-11.136-8.378-20-19.382-20.2zM256.708 448c-141.376 0-255.996-114.626-255.996-255.996 0-141.416 114.624-256.004 256-256.004 141.39 0 256 114.616 256 256.004 0.002 141.37-114.618 255.996-256.004 255.996zM422.22 143.332c-0.548-5.87-1.296-11.728-1.61-17.608-2.884-53.786-36.73-89.042-90.608-90.768-49.182-1.576-98.494-1.518-147.678 0.046-52.244 1.662-87.302 36.34-89.148 88.704-1.768 50.164-1.74 100.486-0.002 150.652 1.766 50.948 35.752 86.406 85.454 88.362 51.87 2.042 103.936 1.906 155.82 0.038 46.628-1.678 78.398-33.124 84.866-79.37 1.33-9.504 1.956-19.106 2.906-28.664 0-37.13 0-74.262 0-111.392z" />
<glyph unicode="&#xe901;" glyph-name="android" data-tags="android" horiz-adv-x="431" d="M30.72 282.356c-17.252 0-31.252-13.988-31.252-31.242v0-131.284c0-17.258 14.004-31.232 31.252-31.232 17.268 0 31.252 13.994 31.252 31.232v0 131.28c-0.004 17.254-13.988 31.246-31.252 31.246zM429.744 251.11c0 17.26-14.006 31.24-31.268 31.24-17.264 0-31.232-13.984-31.232-31.24v0-131.29c0-17.258 13.978-31.22 31.232-31.22 17.268 0 31.268 13.994 31.268 31.22v0 131.29zM74.726 276.892h-1.546v-206.028c0-17.186 14.060-31.258 31.252-31.258h26.344v-71.804c0.020-17.244 13.99-31.232 31.268-31.232 17.258 0 31.238 14.014 31.248 31.232v0 71.784h42.662v-71.79c0-17.258 13.994-31.236 31.242-31.236 17.258 0 31.248 14.010 31.248 31.236v71.79h26.356c17.176 0 31.258 14.082 31.258 31.258v206.048h-281.332zM355.764 287.834v15.066c-0.386 4.268-1.048 8.498-1.924 12.63-7.722 36.642-33.294 67.702-68.356 85.722l21.57 39.802c1.334 2.454 0.422 5.536-2.066 6.876-2.456 1.338-5.53 0.432-6.858-2.030l-21.854-40.32c-18.566 7.998-39.398 12.46-61.38 12.46-22.17 0-43.124-4.546-61.812-12.622l-21.952 40.496c-1.338 2.458-4.418 3.366-6.888 2.026-2.464-1.338-3.38-4.418-2.052-6.876l21.692-40.026c-33.426-17.3-58.156-46.484-66.944-81.040-2.276-8.96-3.492-18.296-3.492-27.868 0-1.44 0.046-2.87 0.112-4.292l282.204-0.004zM278.934 364.408c7.336 0 13.296-5.938 13.296-13.292 0-7.326-5.96-13.274-13.296-13.274-7.32 0-13.292 5.954-13.292 13.274 0.014 7.354 5.972 13.292 13.292 13.292zM150.268 364.408c7.352 0 13.278-5.938 13.278-13.292 0-7.326-5.926-13.274-13.278-13.274-7.336 0-13.272 5.954-13.272 13.274-0.010 7.354 5.936 13.292 13.272 13.292z" />
<glyph unicode="&#xe902;" glyph-name="apple" data-tags="apple" horiz-adv-x="442" d="M441.866 72.368c-12.046-26.64-17.852-38.53-33.398-62.080-21.718-32.894-52.292-73.836-90.19-74.206-33.68-0.292-42.338 21.842-88.052 21.574-45.732-0.242-55.25-21.922-88.928-21.656-37.896 0.358-66.9 37.312-88.592 70.184-60.682 91.974-67.034 199.898-29.61 257.262 26.612 40.774 68.558 64.636 108.022 64.636 40.186 0 65.438-21.924 98.66-21.924 32.218 0 51.866 21.958 98.316 21.958 35.096 0 72.306-19.044 98.806-51.924-86.858-47.358-72.772-170.806 14.966-203.824v0zM292.822 364.862c16.872 21.58 29.698 52.004 25.052 83.136-27.572-1.904-59.802-19.35-78.626-42.12-17.094-20.654-31.18-51.3-25.72-81.078 30.102-0.924 61.23 16.97 79.294 40.062v0z" />
<glyph unicode="&#xe903;" glyph-name="facebook" data-tags="facebook-small" horiz-adv-x="431" d="M330.056 174.498l11.54 89.442h-88.574v57.096c0 25.892 7.222 43.532 44.348 43.532l47.316 0.024v79.998c-8.158 1.098-36.254 3.532-68.994 3.532-68.282 0-115.006-41.692-115.006-118.232v-65.956h-77.24v-89.442h77.24v-238.37l92.336 24.714v213.662h77.034z" />
<glyph unicode="&#xe904;" glyph-name="whatsapp-small" data-tags="whatsapp-small" horiz-adv-x="582" d="M290.854 448c5.409 0 10.817 0 16.827 0 1.803-0.601 3.606-0.601 5.409-1.202 4.808-0.601 9.615-0.601 13.822-1.202 42.666-5.409 82.329-19.23 116.582-45.071 71.512-53.483 106.366-124.995 103.362-214.535-0.601-25.24-6.010-49.878-14.423-73.315-37.258-102.76-137.615-169.465-246.385-164.056-37.258 1.803-72.113 11.418-105.165 28.845-1.202 1.803-4.207 1.803-6.611 1.202-40.864-13.221-82.329-26.442-123.192-39.061-3.005-1.202-6.611-2.404-10.216-3.606 0.601 2.404 0.601 3.606 1.202 4.207 13.822 41.465 27.643 82.93 42.066 124.394 1.202 3.005 0.601 5.409-0.601 8.413-32.45 55.887-41.465 115.981-28.244 179.080 7.212 34.254 21.634 66.103 42.666 94.348 45.070 58.892 103.962 92.544 177.878 99.756 5.409 0.601 10.216 1.202 15.024 1.803zM103.963-1.502c3.005 0.601 4.808 1.202 6.611 1.803 23.436 7.212 46.273 15.024 69.709 22.235 3.005 0.601 4.808 0.601 7.212-0.601 58.291-35.455 120.188-42.666 184.488-18.629 101.558 37.258 157.446 149.033 127.399 252.394-33.051 113.577-152.639 177.277-265.014 140.619-91.343-29.446-150.234-118.385-143.625-212.732 3.005-37.859 15.023-72.714 36.657-103.962 1.803-2.404 2.404-4.808 1.202-7.812-7.212-21.634-14.422-43.267-21.634-64.901-1.202-2.404-1.803-4.808-3.004-8.413zM174.273 257.502c0 23.436 9.014 42.065 25.84 56.488 6.010 5.409 13.22 6.010 21.033 4.808 1.803 0 3.606-0.601 5.409-0.601 8.413 0 10.817-1.803 13.822-9.615 4.207-10.216 7.812-21.033 11.418-31.249 2.404-6.010 4.808-12.619 7.212-18.629 1.803-3.606 1.803-7.812-0.601-10.817-5.409-6.611-10.817-13.822-16.226-20.432-5.409-6.010-6.010-8.413-2.404-15.024 19.831-36.056 48.075-62.498 85.334-78.723 5.409-2.404 8.413-1.803 12.019 2.404 6.611 7.212 13.221 15.024 19.831 22.235 5.409 6.611 7.812 7.812 16.226 3.606 13.822-7.212 27.643-14.423 41.465-21.634 1.202-0.601 2.404-1.202 4.207-2.404 9.014-4.808 9.615-6.010 8.413-16.226-1.803-19.23-12.019-32.45-29.446-40.864-16.827-7.812-34.254-10.817-52.281-4.808-24.038 8.413-48.075 16.827-69.709 31.249-28.244 19.23-51.080 44.469-70.31 72.714-10.216 15.024-20.432 30.047-26.441 48.075-2.404 10.216-4.808 20.432-4.808 29.446z" />
<glyph unicode="&#xe905;" glyph-name="facebook-big" data-tags="facebook" d="M255.826 448.168c-141.39 0-255.994-114.622-255.994-256.006 0-141.396 114.6-255.994 255.994-255.994 7.656 0 15.19 0.49 22.66 1.168v182.666h-59.592v68.978h59.582v50.89c0 59.062 36.038 91.222 88.748 91.222 25.244 0 46.946-1.884 53.25-2.72v-61.718l-36.51-0.022c-28.664 0-34.216-13.6-34.216-33.584v-44.070h68.324l-8.892-68.978h-59.46v-165.808c94.9 37.438 162.112 129.786 162.112 237.968 0.020 141.386-114.612 256.008-256.006 256.008z" />
<glyph unicode="&#xe906;" glyph-name="kedin" data-tags="kedin" d="M256.114 449.286c-141.394 0-256.014-114.624-256.014-255.992 0.006-141.382 114.62-256.008 256.014-256.008 141.368 0 255.986 114.636 255.986 256.008-0.012 141.382-114.628 255.992-255.986 255.992zM418.036 50.34c-30.986 0.010-61.99 0.208-92.966-0.106-5.616-0.080-8.178 1.956-10.522 6.646-13.068 25.97-26.398 51.814-39.646 77.67-3.934 7.678-7.908 15.316-12.198 23.634-13.918-14.47-27.242-28.292-40.378-42.274-1.194-1.24-1.442-3.734-1.46-5.648-0.108-17.932-0.026-35.852-0.082-53.792 0-1.934-0.148-3.908-0.264-5.584-27.492 0-54.266 0-80.942 0 0 87.774 0 175.066 0 262.336 27.206 0 53.988 0 81.528 0 0-32.472 0-64.57 0-98.090 2.318 2.712 3.662 4.224 4.974 5.754 25.334 29.664 50.686 59.306 75.952 89.052 2.26 2.666 4.528 3.746 8.048 3.722 32.656-0.128 65.332-0.076 97.996-0.098 1.518 0 3.038-0.22 5.22-0.376-32.112-33.286-63.56-65.872-94.99-98.432 0.888-1.61 1.476-2.752 2.184-3.872 29.226-47.896 58.422-95.83 87.71-143.678 3.046-4.996 6.524-9.728 9.814-14.616 0.022-0.754 0.022-1.504 0.022-2.248z" />
<glyph unicode="&#xe907;" glyph-name="tuenti" data-tags="tuenti-small" d="M332.872-63.836c-49.462 0-98.892-0.44-148.356 0.122-50.688 0.542-95.91 15.234-132.68 52.202-33.462 33.6-49.67 74.554-50.886 120.892-1.458 54.446-1 108.976-0.2 163.46 1.392 94.116 68.75 166.504 167.354 172.798 64.96 4.14 130.788 2.586 195.722-2.708 81.214-6.624 144.5-81.492 145.236-163.022 0.686-77.708 2.482-155.41 2.928-233.1 0.182-31.168-2.374-62.316-2.904-93.456-0.228-13.796-7.11-17.322-19.364-17.28-52.27 0.242-104.578 0.104-156.85 0.092zM365.792 195.196c-0.126 53.178-17.86 112.576-42.798 146.674-7.438 10.18-13.894 13.664-24.836 5.018-9.846-7.762-21.944-12.582-12.256-29.314 47.924-82.864 48.512-166.228-0.902-248.576-11.458-19.098 4.142-21.576 13.314-29.182 10.688-8.876 17.412-5.368 24.436 5.39 29.826 45.688 42.91 95.906 43.042 149.99zM187.792 56.964c4.284 0.65 19.34 4.026 22.6 11.902 11.694 28.242 20.334 57.724 29.588 86.918 1.132 3.612 0.422 9.844-2.012 12.192-11.99 11.636-50.090 0.468-54.404-15.764-6.55-24.68-12.648-49.484-18.738-74.25-5-20.306-1.126-16.864 22.966-20.998zM206.156 236.13c18.4-0.386 34.504 15.546 35.042 34.668 0.482 17.45-17.056 35.896-34.208 35.994-17.27 0.072-35.006-17.63-35.21-35.15-0.206-18.232 16.17-35.152 34.376-35.512z" />
<glyph unicode="&#xe908;" glyph-name="tuenti-big" data-tags="tuenti" d="M209.666 169.194c-4.164-15.636-8.008-31.326-11.874-47.042-3.144-12.88-0.704-10.67 14.542-13.3 2.716 0.408 12.236 2.534 14.296 7.516 7.432 17.874 12.89 36.558 18.714 55.078 0.716 2.306 0.266 6.252-1.268 7.734-7.582 7.38-31.678 0.314-34.41-9.986zM224.472 267.132c-10.92 0.070-22.15-11.154-22.282-22.264-0.134-11.568 10.222-22.282 21.752-22.512 11.622-0.236 21.828 9.872 22.136 21.976 0.348 11.062-10.744 22.758-21.606 22.8zM256.806 449.096c-141.378 0-255.996-114.626-255.996-255.994 0-141.416 114.624-256.006 256-256.006 141.39 0 256 114.616 256 256.006 0.002 141.368-114.62 255.994-256.004 255.994zM415.614 43.178c-0.12-8.728-4.466-10.978-12.244-10.936-33.092 0.146-66.172 0.086-99.274 0.086-31.278 0-62.584-0.29-93.864 0.054-32.078 0.354-60.692 9.662-83.958 33.092-21.178 21.298-31.424 47.24-32.202 76.612-0.916 34.494-0.608 69.044-0.104 103.564 0.88 59.652 43.51 105.496 105.896 109.5 41.108 2.636 82.766 1.626 123.846-1.712 51.41-4.204 91.468-51.632 91.932-103.284 0.424-49.238 1.56-98.474 1.856-147.686 0.090-19.796-1.536-39.544-1.884-59.29zM282.164 292.548c-6.226-4.928-13.88-7.982-7.762-18.578 30.35-52.512 30.704-105.336-0.568-157.51-7.218-12.076 2.63-13.632 8.428-18.486 6.752-5.61 11.004-3.366 15.454 3.436 18.898 28.958 27.154 60.79 27.268 95.036-0.114 33.676-11.332 71.336-27.112 92.914-4.714 6.446-8.794 8.664-15.708 3.188z" />
<glyph unicode="&#xe909;" glyph-name="twitter" data-tags="twitter-small" horiz-adv-x="630" d="M630.064 387.394c-23.176-10.282-48.104-17.24-74.23-20.366 26.66 16.008 47.19 41.332 56.834 71.512-24.942-14.81-52.588-25.592-82.058-31.378-23.584 25.138-57.202 40.838-94.366 40.838-71.394 0-129.282-57.886-129.282-129.28 0-10.144 1.146-19.978 3.332-29.436-107.394 5.37-202.63 56.84-266.408 135.078-11.124-19.128-17.51-41.318-17.51-65.016 0-44.814 22.802-84.414 57.492-107.578-21.19 0.652-41.102 6.496-58.538 16.166v-1.646c0-62.612 44.55-114.864 103.688-126.752-10.842-2.922-22.308-4.554-34.090-4.554-8.288 0-16.43 0.842-24.29 2.35 16.43-51.356 64.172-88.692 120.73-89.766-44.222-34.67-99.95-55.346-160.56-55.346-10.4 0-20.696 0.658-30.806 1.804 57.216-36.638 125.16-58.026 198.172-58.026 237.76 0 367.772 196.928 367.772 367.764 0 5.588-0.138 11.164-0.364 16.74 25.232 18.196 47.11 40.964 64.482 66.892z" />
<glyph unicode="&#xe90a;" glyph-name="twitter-big" data-tags="twitter" d="M255.956 448.424c-141.376 0-256.002-114.62-256.002-255.998 0-141.36 114.62-256.002 256.002-256.002 141.384 0 256 114.63 256 256.002 0 141.384-114.616 255.998-256 255.998zM406.342 251.278c0.114-3.060 0.19-6.088 0.19-9.142 0-93.318-71.018-200.888-200.91-200.888-39.888 0-77.010 11.698-108.262 31.71 5.53-0.636 11.138-0.988 16.834-0.988 33.106 0 63.552 11.304 87.708 30.202-30.902 0.588-56.97 20.986-65.958 49.064 4.304-0.804 8.752-1.266 13.286-1.266 6.428 0 12.686 0.858 18.6 2.482-32.286 6.492-56.64 35.026-56.64 69.24v0.886c9.532-5.28 20.412-8.474 31.986-8.824-18.952 12.646-31.408 34.28-31.408 58.764 0 12.942 3.48 25.072 9.55 35.508 34.842-42.74 86.87-70.854 145.566-73.784-1.214 5.162-1.838 10.534-1.838 16.078 0 38.994 31.632 70.626 70.628 70.626 20.298 0 38.648-8.574 51.552-22.308 16.102 3.166 31.204 9.050 44.826 17.136-5.244-16.482-16.476-30.322-31.058-39.066 14.276 1.71 27.876 5.502 40.544 11.12-9.462-14.168-21.41-26.6-35.196-36.55z" />
<glyph unicode="&#xe90b;" glyph-name="youtube-big" data-tags="youtube" d="M253.652 250.35c6.042 0 8.912 4.772 8.912 14.31v43.392c0 9.552-2.87 14.308-8.912 14.308-6.052 0-8.93-4.754-8.93-14.308v-43.392c0-9.534 2.878-14.31 8.93-14.31zM256.236 447.754c-141.376 0-255.992-114.612-255.992-255.992s114.612-256.010 255.992-256.010c141.39 0 256.010 114.628 256.010 256.010 0.010 141.388-114.614 255.992-256.010 255.992zM296.646 337.926h18.618v-75.914c0-4.402 0-6.682 0.258-7.282 0.37-2.906 1.842-4.38 4.358-4.38 3.75 0 7.658 2.894 11.812 8.752v78.824h18.694v-103.13h-18.694v11.256c-7.442-8.542-14.532-12.69-21.364-12.69-6.046 0-10.164 2.458-12.022 7.678-1.034 3.12-1.676 8.064-1.676 15.34l0.016 81.546zM226.048 304.32c0 11.014 1.868 19.062 5.844 24.288 5.176 7.036 12.462 10.584 21.76 10.584 9.364 0 16.624-3.548 21.806-10.584 3.942-5.226 5.826-13.268 5.826-24.288v-36.134c0-10.966-1.902-19.086-5.826-24.272-5.15-7.030-12.444-10.556-21.806-10.556-9.298 0-16.584 3.526-21.76 10.556-3.976 5.186-5.844 13.306-5.844 24.272v36.134zM176.074 373.19l14.71-54.35 14.146 54.35h20.95l-24.928-82.346v-56.054h-20.734v56.058c-1.87 9.94-6.038 24.486-12.672 43.792-4.358 12.83-8.924 25.732-13.29 38.558l21.818-0.008zM405.542 37.276c-3.742-16.288-17.016-28.244-33.048-30.048-37.952-4.23-76.386-4.24-114.574-4.23-38.258-0.032-76.644 0-114.58 4.23-16.032 1.804-29.342 13.802-33.088 30.048-5.32 23.186-5.32 48.496-5.32 72.328 0 23.872 0.062 49.154 5.388 72.334 3.74 16.252 17.054 28.256 33.076 30.042 37.936 4.26 76.35 4.268 114.58 4.26 38.232 0.008 76.646 0 114.572-4.26 16.042-1.786 29.342-13.79 33.068-30.042 5.344-23.19 5.302-48.462 5.302-72.334-0.006-23.832-0.018-49.134-5.376-72.328zM183.436 164.242v19.296h-64.496v-19.296h21.75v-117.704h20.568v117.704h22.178zM220.794 46.54v11.122c-7.35-8.39-14.33-12.502-21.134-12.502-5.964 0-10.066 2.404-11.908 7.56-1.020 3.122-1.632 7.966-1.632 15.196v80.686h18.478v-75.128c0-4.316 0-6.598 0.174-7.192 0.466-2.854 1.848-4.294 4.326-4.294 3.704 0 7.618 2.854 11.702 8.642v77.972h18.522v-102.062h-18.528zM291.072 75.726c0-9.258-2.72-13.784-8.068-13.784-3.046 0-6.13 1.472-9.226 4.526v62.236c3.078 3.046 6.18 4.482 9.226 4.482 5.348 0 8.068-4.728 8.068-13.928v-43.532zM309.544 77.166v40.652c0 9.67-0.622 16.384-1.868 20.53-2.448 7.646-7.428 11.524-14.764 11.524-6.762 0-13.134-3.716-19.1-11.084v44.708h-18.478v-136.958h18.474v9.916c6.19-7.656 12.518-11.296 19.104-11.296 7.384 0 12.316 3.822 14.758 11.448 1.254 4.316 1.874 11.12 1.874 20.56zM360.87 109.604h-18.494v9.484c0 9.424 3.078 14.156 9.258 14.156 6.104 0 9.236-4.732 9.236-14.156v-9.484zM379.364 79.212v2.694h-18.87c0-7.422-0.224-11.536-0.39-12.526-1.044-4.91-3.738-7.42-8.28-7.42-6.34 0-9.45 4.69-9.45 14.156v18.066h36.988v21.14c0 10.924-1.858 18.87-5.746 24.086-5.15 6.982-12.524 10.442-21.818 10.442-9.446 0-16.788-3.458-22.122-10.442-3.966-5.162-5.716-13.14-5.716-24.086v-35.756c0-10.85 2.002-18.89 5.932-23.978 5.356-6.97 12.674-10.442 22.392-10.442 9.66 0 17.246 3.652 22.362 11.056 2.2 3.31 3.694 7.010 4.278 11.084 0.202 1.87 0.44 5.984 0.44 11.926z" />
<glyph unicode="&#xe90c;" glyph-name="google-plus-big" data-tags="googleplus" d="M255.706 448.036c-141.392 0-256-114.606-256-255.996 0-141.382 114.608-256.004 256.006-256.004 141.39 0 255.994 114.624 255.994 256.004-0.002 141.39-114.626 255.996-256 255.996zM271.878 313.224c3.44-3.536 6.774-7.938 10.064-13.108 3.172-4.898 5.95-10.662 8.406-17.332 1.976-6.662 2.98-14.444 2.98-23.332-0.256-16.296-3.868-29.318-10.8-39.086-3.38-4.744-6.974-9.118-10.778-13.108-4.22-3.984-8.692-8.070-13.42-12.194-2.736-2.82-5.236-6.008-7.538-9.566-2.698-3.718-4.076-7.98-4.076-12.874 0-4.76 1.4-8.674 4.196-11.784 2.368-2.964 4.67-5.57 6.884-7.772l15.468-12.652c9.594-7.864 18.022-16.516 25.222-25.99 6.826-9.652 10.368-22.214 10.672-37.742 0-22.070-9.738-41.592-29.266-58.678-20.174-17.642-49.346-26.744-87.46-27.326-31.91 0.314-55.718 7.11-71.444 20.398-15.858 12.434-23.814 27.284-23.814 44.566 0 8.396 2.568 17.818 7.766 28.148 4.994 10.358 14.066 19.448 27.234 27.274 14.718 8.416 30.208 14.036 46.458 16.824 16.070 2.382 29.42 3.722 40.052 3.99-3.298 4.332-6.206 8.936-8.772 13.86-2.992 4.76-4.484 10.512-4.484 17.206 0 3.99 0.564 7.396 1.708 10.042 1.018 2.852 1.936 5.426 2.792 7.842-5.162-0.572-10.058-0.886-14.624-0.886-24.266 0.314-42.726 7.932-55.456 22.888-13.324 13.94-19.958 30.152-19.958 48.658 0 22.376 9.414 42.66 28.288 60.88 12.932 10.644 26.402 17.598 40.354 20.878 13.802 2.814 26.768 4.214 38.834 4.214h91.066l-28.11-16.418h-28.090c2.862-1.818 6.068-4.408 9.646-7.82zM394.034 264.532v-47.778h-23.138v47.778h-47.794v23.15h47.772v47.792h23.15v-47.782h47.772v-23.144l-47.762-0.016zM223.926 314.116c-7.176 5.166-15.428 7.91-24.76 8.214-12.35-0.304-22.6-5.26-30.786-14.922-6.904-10.096-10.196-21.362-9.89-33.844 0-16.482 4.802-33.596 14.446-51.41 4.682-8.294 10.674-15.346 18.082-21.114 7.39-5.806 15.824-8.7 25.318-8.7 11.98 0.438 21.976 4.764 29.958 12.92 3.868 5.78 6.346 11.718 7.44 17.796 0.648 6.090 1.004 11.216 1.004 15.382 0 17.92-4.604 36.058-13.788 54.294-4.33 8.756-9.978 15.882-17.024 21.384zM220.88 119.504c-2.324 0.288-8.286 0-17.85-0.898-9.424-1.324-19.064-3.488-28.928-6.458-2.336-0.898-5.584-2.208-9.776-3.984-4.216-1.94-8.5-4.674-12.87-8.226-4.208-3.696-7.75-8.316-10.626-13.792-3.36-5.784-5-12.744-5-20.862 0-16.014 7.208-29.18 21.742-39.542 13.79-10.382 32.624-15.712 56.544-16.040 21.466 0.326 37.858 5.042 49.148 14.234 11.050 9.038 16.522 20.654 16.522 34.9 0 11.546-3.762 21.61-11.288 30.2-7.968 8.134-20.428 18.124-37.406 30.018-2.912 0.314-6.314 0.45-10.212 0.45z" />
<glyph unicode="&#xe90d;" glyph-name="google-plus" data-tags="googleplus-small" d="M247.162 423.748c4.276-2.618 9.036-6.44 14.334-11.474 5.118-5.238 10.098-11.72 14.958-19.356 4.71-7.21 8.856-15.744 12.492-25.584 2.98-9.826 4.452-21.32 4.452-34.436-0.406-24.064-5.744-43.294-16.018-57.742-5.044-6.996-10.392-13.436-16.042-19.334-6.264-5.888-12.898-11.916-19.938-18.048-4.044-4.142-7.78-8.842-11.196-14.098-4.020-5.484-6.042-11.788-6.042-19.036 0-7.010 2.070-12.802 6.212-17.382 3.502-4.348 6.906-8.192 10.234-11.496l22.952-18.692c14.266-11.61 26.768-24.344 37.524-38.344 10.098-14.25 15.384-32.804 15.858-55.746 0-32.594-14.488-61.438-43.476-86.64-29.974-26.008-73.328-39.458-129.94-40.34-47.396 0.434-82.758 10.48-106.15 30.11-23.562 18.356-35.376 40.274-35.376 65.808 0 12.414 3.81 26.316 11.53 41.602 7.434 15.258 20.912 28.672 40.43 40.27 21.898 12.406 44.918 20.706 69.048 24.858 23.884 3.486 43.708 5.462 59.516 5.888-4.876 6.386-9.236 13.168-13.050 20.468-4.452 7.012-6.652 15.484-6.652 25.376 0 5.924 0.8 10.892 2.502 14.844 1.492 4.204 2.886 8.014 4.13 11.554-7.668-0.894-14.932-1.318-21.726-1.318-36.016 0.424-63.452 11.714-82.352 33.788-19.81 20.57-29.686 44.506-29.686 71.824 0 33.046 14.008 62.982 42.034 89.888 19.236 15.708 39.222 25.976 59.93 30.83 20.54 4.142 39.786 6.21 57.718 6.21h135.314l-41.806-24.248-41.718-0.004zM273.3 36.672c0 17.074-5.614 31.926-16.792 44.59-11.848 12.032-30.364 26.812-55.59 44.304-4.328 0.458-9.382 0.648-15.178 0.648-3.454 0.41-12.27 0-26.498-1.296-14.018-1.954-28.346-5.132-42.994-9.536-3.466-1.316-8.28-3.288-14.524-5.894-6.264-2.832-12.602-6.902-19.086-12.144-6.24-5.464-11.536-12.23-15.82-20.316-4.98-8.554-7.422-18.832-7.422-30.852 0-23.644 10.74-43.086 32.28-58.39 20.492-15.308 48.482-23.192 84.018-23.656 31.898 0.456 56.25 7.458 73.042 21.030 16.388 13.336 24.564 30.512 24.564 51.512zM178.97 233.77c17.804 0.662 32.65 7.052 44.536 19.098 5.72 8.54 9.408 17.306 11.048 26.294 0.96 8.992 1.454 16.534 1.454 22.662 0 26.52-6.824 53.262-20.454 80.182-6.438 12.92-14.834 23.452-25.264 31.55-10.704 7.636-22.96 11.71-36.806 12.152-18.334-0.43-33.574-7.792-45.744-22.026-10.246-14.9-15.154-31.552-14.686-49.956 0-24.324 7.152-49.6 21.466-75.926 6.942-12.258 15.87-22.658 26.854-31.202 10.968-8.546 23.49-12.828 37.596-12.828zM416 448h32v-160h-32v160zM352 384h160v-32h-160v32z" />
<glyph unicode="&#xe90e;" glyph-name="pinterest-big" data-tags="pinterest" d="M256.004 447.878c-141.408 0-256.026-114.606-256.026-255.984 0-141.386 114.624-256.014 256.026-256.014 141.386 0 255.974 114.618 255.974 256.020 0.010 141.386-114.588 255.978-255.974 255.978zM257.754 5.134c-18.386 0-36.114 2.71-52.92 7.644 7.090 11.208 14.836 25.614 18.786 39.98 2.278 8.31 13.13 51.33 13.13 51.33 6.488-12.386 25.448-23.27 45.62-23.27 60.042 0 100.792 54.724 100.792 127.976 0 55.386-46.956 106.996-118.252 106.996-88.75 0-133.5-63.622-133.5-116.66 0-32.138 12.18-60.686 38.248-71.346 4.268-1.728 8.098-0.106 9.336 4.664 0.876 3.286 2.94 11.512 3.788 14.98 1.274 4.678 0.794 6.29-2.658 10.386-7.512 8.866-12.302 20.374-12.302 36.638 0 47.186 35.286 89.42 91.918 89.42 50.15 0 77.71-30.634 77.71-71.562 0-53.832-23.79-99.3-59.22-99.3-19.478 0-34.132 16.16-29.454 35.978 5.576 23.644 16.5 49.198 16.5 66.268 0 15.266-8.216 28.016-25.154 28.016-19.992 0-36.072-20.672-36.072-48.342 0-17.63 6.002-29.518 6.002-29.518s-20.444-86.6-24.044-101.804c-3.33-14.158-3.762-29.8-3.234-42.876-65.814 28.954-111.802 94.62-111.802 171.096 0 103.144 83.628 186.764 186.766 186.764 103.15 0 186.752-83.622 186.752-186.764 0.004-103.092-83.586-186.694-186.736-186.694z" />
<glyph unicode="&#xe90f;" glyph-name="pinterest" data-tags="pinterest-small" d="M256.348 448.008c-141.376 0-256.008-114.608-256.008-256.014 0-104.844 63.030-194.886 153.26-234.484-0.74 17.91-0.144 39.37 4.426 58.774 4.956 20.806 32.962 139.556 32.962 139.556s-8.188 16.292-8.188 40.464c0 37.916 22.030 66.244 49.406 66.244 23.234 0 34.486-17.47 34.486-38.406 0-23.39-14.908-58.416-22.594-90.834-6.414-27.182 13.618-49.306 40.366-49.306 48.534 0 81.178 62.272 81.178 136.108 0 56.082-37.788 98.064-106.5 98.064-77.636 0-126.010-57.894-126.010-122.562 0-22.318 6.568-38.064 16.858-50.224 4.744-5.624 5.436-7.84 3.678-14.264-1.198-4.73-4.016-16.056-5.22-20.53-1.692-6.54-6.936-8.834-12.794-6.414-35.762 14.554-52.42 53.728-52.42 97.782 0 72.71 61.296 159.938 182.966 159.938 97.708 0.006 162.062-70.738 162.062-146.662 0-100.436-55.866-175.448-138.134-175.448-27.648 0-53.676 14.944-62.544 31.896 0 0-14.882-58.964-18.014-70.362-5.43-19.724-16.050-39.466-25.762-54.842 22.994-6.802 47.334-10.494 72.548-10.494 141.348 0 255.984 114.602 255.984 256.014-0.006 141.398-114.646 256.006-255.992 256.006z" />
<glyph unicode="&#xe910;" glyph-name="rss" data-tags="rss" d="M256.282 447.91c-141.394 0-256.010-114.62-256.010-256 0-141.384 114.612-256 256.010-256 141.368 0 255.99 114.594 255.99 256.004 0 141.382-114.632 255.996-255.99 255.996zM175.652 57.608c-21.196 0-38.372 17.142-38.372 38.348 0 21.208 17.176 38.412 38.372 38.412s38.384-17.206 38.384-38.412c0.002-21.196-17.188-38.348-38.384-38.348zM271.984 57.292c0 36.232-14.006 70.29-39.452 95.872-25.454 25.512-59.238 39.58-95.224 39.58v55.426c104.816 0 190.090-85.642 190.090-190.878h-55.414zM369.884 57.24c0 128.86-104.288 233.758-232.518 233.758v55.414c158.768 0 287.914-129.74 287.914-289.16l-55.396-0.012z" />
<glyph unicode="&#xe911;" glyph-name="eci" data-tags="eci" horiz-adv-x="2136" d="M1192.606 447.87c0.472-3.368 0.946-6.768 1.328-10.132 1.624-20.010 3.208-39.976 5.004-59.986 1.348-16.504 2.542-33.006 3.996-49.51 1.348-16.376 2.782-32.75 4.124-49.168 0.45-6.37 0.984-12.742 1.348-19.24 40.532 3.056 70.696-11.886 88.656-49.34 6.324 7.876 14.148 13.584 23.258 17.446 16.886 7.312 34.184 8.84 51.454 1.090 13.856-6.22 23.11-17.208 29.652-30.518 7.012-14.266 11.286-29.556 11.968-45.266 0.984-21.446 0.516-42.82 0.77-64.328 0.042-2.266 0-4.574 0-6.988-19.11 0-37.964 0-57.332 0 0 1.262 0 2.372 0 3.632 0 20.458 0.042 40.77-0.042 61.226 0 6.008-1.066 11.93-4.124 17.316-3.996 6.692-9.598 10.582-17.464 10.54-7.868-0.086-13.938-4.214-17.082-11.394-1.902-4.124-3.226-9.086-3.226-13.684-0.406-25.934-0.172-51.796-0.172-77.75 0-1.348 0-2.628 0-4.234-18.296 0-36.296 0-54.512 0-0.296 3.852-0.516 7.656-0.77 11.414-1.328 22.922-2.394 45.964-3.676 68.86-0.434 6.242 0 12.786-1.39 18.75-3.274 13.594-11.734 23.196-25.528 26.912-8.208 2.278-14.128-2.254-14.64-10.786-0.128-3.090 0.34-6.25 0.64-9.286 1.836-16.632 4.188-33.218 5.43-49.852 1.262-17.766 1.964-35.832 1.71-53.66-0.43-26.356-2.7-52.61-10.5-78.028-3.958-12.976-9.258-25.14-17.852-35.852-8.208-10.008-18.426-16.868-31.296-19.472-0.45-0.042-0.726-0.344-1.152-0.45-3.762 0-7.5 0-11.286 0-9.578 2.286-17.832 6.644-24.886 13.68-9.574 9.684-15.476 21.528-19.836 34.27-5.004 14.816-7.614 30.016-8.722 45.536-1.282 15.52-1.282 31.036 0.152 46.516 3.992 45.386 15.028 88.868 38.778 128.162 5.688 9.3 13.208 17.508 19.774 26.092 1.368 1.688 2.16 3.088 1.878 5.472-1.324 14.12-2.266 28.262-3.308 42.38-0.942 11.95-2.036 23.902-3.020 35.862-0.894 11.362-1.708 22.692-2.542 34.012-1.218 14.622-2.304 29.246-3.528 43.918-0.684 7.856-1.368 15.712-1.946 23.526-0.746 10.004-1.476 20.010-2.29 30.516 6.758 0.17 13.234 0.29 19.624 0.522 9.918 0.332 19.754 0.748 29.628 1.124 0.988 0.15 1.93 0.15 2.95 0.15zM1170.718 88.876c-0.516 9.578-0.774 19.004-1.922 28.52-0.602 5.684-2.398 11.286-4.278 16.714-0.942 2.82-3.504 2.734-5.028 0.192-1.214-1.836-2.118-3.872-2.734-5.918-4.040-12.316-5.196-25.098-6.094-37.86-1.282-16.312-1.386-32.644 0.554-48.934 0.73-5.922 2.528-11.59 4.106-17.402 0.32-1.070 1.754-2.394 2.652-2.352 1.262 0.042 2.696 1.2 3.208 2.266 1.368 2.868 2.692 5.878 3.422 8.808 4.618 18.254 5.856 36.98 6.114 55.966zM0.978 275.672c1.334 6.262 2.234 12.656 4.050 18.748 9.61 32.174 30.622 54.546 60.532 68.888 19.936 9.588 41.15 13.682 63.192 12.976 14.226-0.458 28.088-3.196 41.354-8.582 1.53-0.61 2.628-1.176 2.608-3.216-0.072-20.266-0.052-40.586-0.072-60.918 0-0.31-0.108-0.578-0.236-1.358-1.090 0.416-2.108 0.716-3.070 1.112-13.416 5.538-27.34 8.82-41.922 8.316-27.576-0.898-51.874-16.108-60.68-42.22-4.68-13.906-4.116-27.824 0.16-42.144 1.134 0.768 2.032 1.356 2.908 1.956 11.992 8.21 24.778 14.044 39.666 14.186 17.168 0.192 30.828-6.894 41.614-19.84 9.212-11.030 14.14-23.984 13.884-38.31-0.354-20.458-10.378-35.122-28.794-43.782-9.172-4.34-18.93-6.582-29.042-6.988-5.846-0.296-11.694-0.042-18.236-0.042 4.554-7.758 10.242-12.934 17.67-15.988 10.946-4.746 22.32-4.832 33.798-2.8 15.296 2.542 29.224 8.656 42.51 16.566 1.836 1.070 2.34 2.266 2.008 4.148-3.11 18.344-4.66 36.856-4.534 55.262 0.182 25.728 3.442 50.962 13.488 74.884 6.266 14.91 14.666 28.304 27.824 38.18 8.402 6.308 17.692 10.134 28.454 9.632 11.34-0.482 20.050-5.89 27.086-14.356 8.292-10.046 12.142-21.976 14.076-34.632 3.476-22.51 0.92-44.722-4.050-66.752-5.346-23.744-13.552-46.422-23.312-68.552-0.536-1.278-1.188-2.304-1.872-3.546-2.16-3.848-1.4-6.816 2.672-8.632 2.544-1.070 5.346-1.796 8.080-1.946 13.534-0.664 25.694 3.184 36.472 11.39 0.246 0.238 0.544 0.324 1.112 0.492 0.074-1.176 0.182-2.118 0.182-3.102 0-14.258-0.022-28.644 0.042-42.878 0.020-2.012-0.46-3.254-2.236-4.296-25.278-15.242-51.402-17.766-78.264-4.64-5.12 2.442-9.586 6.328-14.44 9.578-6.53-3.676-13.244-7.738-20.254-11.266-16.858-8.426-34.652-13.856-53.432-16.012-22.084-2.566-43.62-0.602-64.112 8.208-30.998 13.422-48.998 36.96-53.37 70.696-1.558 11.886-0.876 23.726 0.92 35.528 0.17 1.156 0.022 2.458-0.482 3.508-9.83 19.1-17.728 38.872-21.778 60.1-0.792 4.212-5.030 19.778-2.174 42.444zM247.29 220.026c-0.458 3.088-1.002 8.188-2.050 13.222-0.622 3.004-1.476 6.638-5.196 6.896-3.59 0.268-5.248-2.97-6.582-5.75-7.932-16.546-9.75-34.004-7.164-51.994 0.332-2.29 1.294-4.574 2.406-6.692 1.73-3.184 4.554-3.632 7.054-0.898 1.572 1.754 2.91 3.872 3.89 5.946 5.568 11.78 6.946 24.348 7.642 39.27zM102.328 172.886c7.036 0 12.924 5.86 12.924 12.73 0.022 6.834-6.094 12.914-12.902 12.872-6.914-0.042-12.828-6.040-12.762-13 0.096-6.852 5.932-12.602 12.74-12.602zM768.072 188.46c5.996 13.224 24.208 19.904 36.662 18.214 1.434-0.212 2.566-0.416 2.566-2.298-0.042-16.376-0.024-32.732-0.024-49.232-3.368-0.598-6.606-1.132-9.78-1.988-12.616-3.336-18.834-11.542-18.834-24.582 0-15.972 0-32.176 0-48.144 0-1.152 0-2.29 0-3.446-15.188 0-30.078 0-45.376 0 0 1.2 0 2.27 0 3.274 0 14.708-0.31 29.524 0.064 44.23 0.374 15.2-9.174 21.934-21.37 23.726-2.82 0.45-5.706 0.45-8.688 0.688-0.502-3.508-0.75-6.82-1.464-10.046-3.9-16.89-13.574-29.972-26.626-40.746-15.422-12.786-33.294-19.624-53.292-19.86-16.664-0.368-32.336 4.124-46.742 12.546-3.346 2.008-5.582 1.75-8.776-0.34-22.51-14.156-46.328-25.508-72.482-31.364-29.512-6.648-58.34-5.434-85.854 8.296-20.468 10.214-36.212 25.562-48.43 44.718-13.48 21.226-21.228 44.36-24.318 69.348-3.966 31.942-0.482 62.978 12.528 92.578 19.614 44.638 53.71 72.148 100.848 83.706 23.772 5.87 47.896 6.372 72.128 3.88 3.592-0.376 7.182-0.75 10.88-1.166 0-19.304 0-38.19 0-57.398-4.776 0.95-9.48 1.976-14.184 2.758-20.95 3.59-41.814 4.21-62.39-1.946-29.534-8.838-49.48-28.080-58.884-57.26-11.406-35.42-7.182-69.316 13.306-100.678 11.254-17.102 27.096-28.196 47.748-31.488 14.728-2.308 28.804 0.468 42.51 5.774 13.244 5 25.17 12.356 36.384 21.078 0.78 0.512 1.376 2.222 1.24 3.204-1.862 13.468-0.898 26.55 7.374 37.906 9.086 12.612 21.090 20.008 37.174 18.886 10.95-0.756 18.654-9.010 19.006-20.096 0.192-6.828-0.086-13.864 0.652-20.704 0.61-5.73 1.84-11.418 3.784-16.886 6.446-17.766 23.996-18.684 35.626-11.586 3.036 1.964 5.898 4.742 7.832 7.758 4.268 6.734 1.72 13.020-5.716 15.438-4.488 1.496-9.126 2.566-13.498 4.36-9.77 4.082-18.086 10.004-24.084 18.75-7.47 11-8.998 23.258-6.328 36.024 3.508 16.502 12.388 29.66 26.318 39.248 16.878 11.554 37.454 10.71 54-1.904 11.448-8.734 19.37-20.28 26.004-32.836 1.030-1.966 2.086-2.736 4.426-2.822 18.674-0.728 36.012-5.214 49.95-18.63 2.902-2.804 5.392-5.936 8.13-8.942zM661.768 206.76c0.024 5.216-3.922 9.204-9.124 9.204-5.228 0.042-9.546-4.232-9.482-9.394 0.062-5.056 4.22-9.15 9.332-9.236 5.334 0 9.274 3.954 9.274 9.426zM822.882 153.968c0 16.762 0 33.222 0 50.014 5.614 0 11.15 0 16.878 0 2.436 37.678 4.822 75.044 7.246 112.81 16.688 0 33.084 0 49.736 0-3.038-39.368-6.104-78.894-9.214-118.89 4.95 0 9.674-0.086 14.408 0.126 0.802 0.042 1.764 1.378 2.278 2.362 7.546 14.604 16.26 28.38 27.822 40.224 12.6 12.87 27.12 22.566 45.224 26.008 28.74 5.396 57.462-11.256 63.396-39.998 3.214-15.648-0.876-29.906-9.288-43.13-9.934-15.566-23.922-26.808-39.594-36.042-6.926-4.102-14.28-7.442-21.45-11.118-0.708-0.426-1.412-0.726-2.46-1.324 7.184-9.578 16.066-15.95 28.028-17.316 13.896-1.496 26.24 3.25 38.084 9.79 5.014 2.782 9.81 5.922 15.102 9.278 0-1.368 0-2.266 0-3.29 0-16.848-0.082-33.562 0.064-50.364 0.022-2.868-1.068-4.578-3.078-6.29-11.608-9.704-25.226-14.878-40.020-16.8-19.816-2.656-38.766 0.464-56.522 9.786-20.908 11.204-34.458 28.562-42.884 50.41-1.814 4.656-4.158 9.23-6.958 13.292-1.496 2.27-4.276 4.106-6.852 5.004-4.78 1.754-8.414-1.2-8.414-6.266 0-19.024 0-38.050 0-57.098 0-1.304 0-2.48 0-4.040-16.566 0-32.962 0-49.692 0 0 27.086 0 54.278 0 81.684-4.028 0.6-7.788 0.898-11.84 1.178zM985.034 209.176c0.086 6.412-3.548 9.052-9.376 6.274-3.014-1.398-5.868-3.538-8.188-5.93-5.452-5.644-9.544-12.228-9.716-20.438-0.106-5.386 3.346-7.75 8.402-6.032 8.916 2.986 18.75 16.624 18.878 26.126zM1875.84 143.348c4.292 1.64 8.336 3.074 12.184 4.656 16.632 7.226 31.812 16.886 47.032 26.316 25.078 15.542 49.64 31.876 76.102 45.032 14.454 7.224 29.246 13.744 45.32 16.15 15.074 2.276 30.274 1.88 44.55-4.020 19.778-8.208 30.766-23.824 33.906-44.55 4.168-28.71-4.106-54.536-21.078-77.558-21.442-29.012-50.622-45.708-85.766-52.442-7.718-1.41-15.438-2.242-23.434-3.208-0.124 1.796-0.21 2.786-0.21 3.804 0 16.938 0.042 34.032-0.040 50.968-0.042 2.304 0.766 3.208 3.122 4.016 18.598 5.688 36.468 12.958 52.204 24.714 5.004 3.718 10.218 7.438 12.312 14.004 3.676 11.606-1.792 24.024-12.312 27.21-5.774 1.796-11.542 1.262-16.718-1.372-8.25-4.058-16.242-8.55-24.152-13.292-37.328-22.832-74.524-45.898-111.742-68.878-18.984-11.652-39.614-16.972-61.782-15.606-7.122 0.464-14.042 2.352-20.222 6.324-0.726 0.472-2.376 0.558-3.144 0.172-16.992-12.312-36.23-19.152-56.692-23.258-11.796-2.266-23.73-3.632-35.828-3.164-18.77 0.77-37.070 4.106-52.46 15.992-5.344 4.164-9.746 9.636-15.028 15.008-2.29-1.458-5.196-3.464-8.168-5.606-15.926-10.946-31.618-21.89-47.458-32.836-1.476-1.024-2.204-1.964-1.968-4.020 2.16-21.164 1.114-41.984-6.946-61.95-8.68-21.446-23.964-35.124-47.118-38.308-21.122-2.954-40.958 0.296-57.208 15.472-9.832 9.282-15.176 20.868-16.418 34.188-2.606 28.878 9.622 51.54 30.528 70.29 10.262 9.148 22.058 15.878 34.676 20.782 2.156 0.808 2.606 1.836 2.52 3.886-0.124 4.898-0.040 9.602-0.040 15.070-3.718-2.328-6.84-4.532-10.348-6.454-13.808-8.020-28.606-13.64-44.464-15.328-14.926-1.52-29.418-0.11-42.070 9.11-10.648 7.738-16.118 18.684-19.368 31.168-5.988 23.45 0.446 44.316 13.168 63.918 13.972 21.498 33.296 36.844 55.914 48.4 24.18 12.346 49.852 19.198 76.832 22.040 5.52 0.578 11.098 1.016 16.872 1.562 0-19.198 0-37.978 0-56.832-7.528-0.92-15.032-1.57-22.344-2.736-21.782-3.388-42.882-9.034-61.18-22.116-9.282-6.624-16.848-14.622-18.836-26.25-0.45-3.188-0.364-6.628 0.086-9.77 0.536-4.128 1.964-5.028 6.050-4.622 7.012 0.492 13.058 3.89 18.68 7.762 16.632 11.16 28.696 26.058 36.046 44.712 0.598 1.486 1.176 2.536 3.184 2.512 16.742-0.086 33.286-0.086 50.004-0.086 0.472 0 0.812-0.042 1.454-0.126 0-24.542 0-49.042 0-74.522 11.394 4.082 22.234 7.868 33.050 11.672-2.222 6.86-4.254 13.36-6.094 19.926-5.878 20.758-8.25 41.986-6.82 63.5 1.414 22.79 6.968 44.498 19.156 64.166 7.098 11.618 16.16 21.43 28.582 27.802 13.512 6.958 27.234 5.602 40.918 0.502 22.872-8.498 35.122-25.568 38.758-49.21 3.23-20.908-0.45-41.184-6.734-61.056-7.438-23.642-18.708-45.168-33.328-65.18-1.152-1.476-0.77-2.376 0.258-3.762 5.774-6.82 13.21-10.472 21.804-12.082 8.656-1.516 17.016 0.11 25.184 3.188 1.922 0.688 2.376 1.458 1.71 3.632-4.684 13.96-7.7 28.218-7.656 42.882 0.066 20.75 5.54 39.68 20.782 54.74 10.496 10.316 23.282 16.27 37.86 18.3 17.636 2.5 34.14-0.546 48.804-10.808 14.41-10.046 21.766-24.262 23.090-41.666 0.98-13.512-1.796-26.532-6.672-39.078-0.32-0.812-0.512-1.582-0.812-2.266-0.088-0.296-0.044-0.424-0.044-1.53zM1696.136 228.396c0 0.834 0.128 1.678 0 2.47-0.808 4.754-1.172 9.628-2.52 14.162-1.5 4.618-5.004 4.95-8.124 1.124-1.368-1.648-2.476-3.548-3.376-5.514-6.2-13.682-7.738-28.136-6.84-42.936 0.316-3.41 1.454-6.852 2.968-9.998 1.348-3.090 4.124-3.29 6.624-0.856 1.39 1.488 2.844 3.286 3.786 5.25 5.474 11.426 7.354 23.664 7.482 36.298zM1834.792 168.012c-0.042 6.988-1.304 12.016-4.188 16.398-5.008 7.494-13.468 7.494-18.644 0.020-5.43-7.954-5.558-21.036-0.168-29.074 5.324-8.122 14.382-7.868 19.41 0.45 2.524 4.296 3.676 8.916 3.59 12.206zM1529.050 17.238c0-0.578-0.086-1.304 0-1.84 0.684-5.066 3.078-9.34 8.082-11.266 3.934-1.476 8.336-0.128 11.414 3.308 4.106 4.578 4.98 11.782 2.012 17.468-3.718 7.14-11.886 8.464-17.57 2.672-2.91-2.776-3.938-6.302-3.938-10.342zM2019.75 294.088c-36.938-23.686-73.496-47.202-110.524-70.888-11.586 14.302-23.21 28.572-34.992 43.108 38.882 25.216 77.73 50.302 116.656 75.546 9.708-15.934 19.156-31.658 28.86-47.766z" />
<glyph unicode="&#xe912;" glyph-name="hipercor" data-tags="hipercor" horiz-adv-x="2626" d="M-1.804 447.84h135.754v-176.308h82.93v176.308h135.756v-510.398h-135.786v212.134h-82.868v-212.134h-135.786v510.398zM388.312 447.84h137.88v-510.398h-137.88v510.398zM563.632 447.84h162.182c112.5 0 177.682-53.78 177.682-175.574 0-108.264-76.016-162.706-161.344-162.706h-42.766v-172.12h-135.784l0.030 510.4zM699.894 222.992h12.54c32.262 0 56.266 19.452 56.266 58.776 0 39.686-24.78 62.76-56.266 62.76h-12.54v-121.536zM922.862 447.84h251.488v-110.51h-118.306v-83.694h118.216v-111.21h-118.216v-90.116h118.306v-114.868h-251.428l-0.060 510.398zM1205.684 447.84h153.442c110.138 0 169.842-62.084 169.842-172.070 0-72.786-26.306-115.51-72.934-130.656l100.888-207.672h-139.256l-78.862 200.76v-200.76h-133.12v510.398zM1338.774 223.020h12.42c30.948 0 55.518 20.528 55.518 61.322 0 34.688-26.306 60.592-55.518 60.592h-12.42v-121.914zM2199.334 0.982c-36.422-49.23-89.396-77.124-144.286-77.124-54.77 0-107.772 27.116-144.706 77.754-36.362 49.204-51.056 114.176-51.056 189.912 0 75.628 14.696 141.304 51.056 190.612 36.934 50.7 89.936 77.080 144.706 77.080 54.888 0 107.864-26.412 144.792-77.080 35.854-49.248 51.056-114.984 51.056-190.612-0.024-75.68-15.2-140.592-51.562-190.542 0 0 36.362 49.95 0 0zM2107.962 191.582c0 41.736-1.168 140.048-52.914 140.048-50.938 0-52.822-98.896-52.822-140.048 0-40.508 1.946-135.022 52.822-135.022 51.27-0.060 52.914 94.512 52.914 135.022 0 0 0-40.51 0 0zM1694.952 191.582c4.432-110.33 47.438-128.198 88.948-128.198 38.52 0 60.606 20.948 63.688 24.782v-152.096c0 0-25.62-13.35-62.94-13.35-69.222 0-125.638 20.172-172.688 76.888-39.864 48.034-60.302 116.416-60.302 191.972 0 75.656 17.178 143.91 57.012 192.002 47.138 56.686 113.248 76.886 175.978 76.886 26.996 0 48.722-4.878 62.94-13.332v-143.552c-3.112 3.832-25.168 24.736-63.688 24.736-41.54 0.122-91.014-20.258-88.948-136.738 0 0-2.066 116.48 0 0zM2274.244 447.84h153.472c110.108 0 169.812-46.208 169.812-162.33 0-72.816-27.384-116.15-72.876-140.334l100.858-207.674h-139.196l-79.012 200.76v-200.76h-133.090l0.032 510.338zM2407.334 223.020h12.57c30.828 0 55.398 20.528 55.398 61.322 0 34.688-26.188 60.592-55.398 60.592h-12.57v-121.914z" />
<glyph unicode="&#xe913;" glyph-name="i-cnc" data-tags="i-cnc" horiz-adv-x="4574" d="M263.548 132.246c-26.542-24.78-50.508-40.134-87.924-40.134-56.602 0-99.284 46.486-99.284 108.126 0 61.112 42.682 107.198 99.284 107.198 30.696 0 57.1-11.808 85.612-38.29l6.186-5.744 47.394 54.586-5.628 5.378c-27.418 26.186-64.672 52.96-133.102 52.96-100.384-0.002-176.086-76.102-176.086-177.016 0-100.386 74.704-176.086 173.766-176.086 56.2 0 97.466 17.998 137.988 60.186l5.51 5.736-47.912 48.518-5.804-5.418zM441.906 370.744h-73.54v-341.94h244.724v68.426h-171.184zM670.206 370.744h73.548v-341.94h-73.548v341.94zM1074.214 132.246c-26.55-24.78-50.52-40.134-87.928-40.134-56.602 0-99.284 46.486-99.284 108.126 0 61.112 42.682 107.198 99.284 107.198 30.696 0 57.1-11.808 85.612-38.29l6.186-5.744 47.394 54.586-5.628 5.378c-27.418 26.186-64.672 52.96-133.102 52.96-100.384 0-176.086-76.1-176.086-177.016 0-100.386 74.704-176.086 173.766-176.086 56.2 0 97.466 17.998 137.988 60.186l5.51 5.736-47.912 48.518-5.8-5.418zM1344.928 221.936l143.868 148.808h-93.006l-143.222-151.39v151.39h-73.54v-341.94h73.54v99.278l41.774 42.92 107.886-142.198h89.846zM1769.912 102.624c0-28.004 22.674-47.562 55.14-47.562 20.060 0 40.082 8.468 59.624 25.194l-74.434 75.864c-26.418-12.748-40.33-31.16-40.33-53.496zM1886.14 286.576c0 21.332-13.784 35.116-35.12 35.116-22.32 0-36.738-14.846-36.738-37.822 0-15.626 5.656-27.554 22.882-47.21 34.258 13.236 48.976 28.334 48.976 49.916zM1617.616 448v-510.256h498.010v510.256h-498.010zM1983.71-21.156l-49.718 50.786c-35.4-30.99-73.414-46.078-115.98-46.078-77.432 0-131.51 48.076-131.51 116.908 0 48.546 25.628 85.46 76.212 109.844-18.832 26.598-26.98 49.854-26.98 76.272 0 51.644 40.154 103.924 116.904 103.924 63.040 0 108.796-42.112 108.796-100.138 0-46.038-25.25-79.5-77.088-101.996l49.256-50.080c11.632 18.246 23.2 39.58 34.466 63.566l3.636 7.742 64.938-34.224-3.572-7.148c-16.568-33.126-31.938-59.424-48.044-82.108l61.374-62.49-62.69-44.78zM2541.062 132.246c-26.542-24.78-50.508-40.134-87.924-40.134-56.598 0-99.284 46.486-99.284 108.126 0 61.112 42.686 107.198 99.284 107.198 30.696 0 57.1-11.808 85.612-38.29l6.188-5.744 47.39 54.586-5.628 5.378c-27.41 26.186-64.666 52.96-133.098 52.96-100.386 0-176.086-76.1-176.086-177.016 0-100.386 74.704-176.086 173.766-176.086 56.2 0 97.466 17.998 137.992 60.186l5.502 5.736-47.908 48.518-5.806-5.418zM2801.038 376.324c-100.306 0-178.876-77.754-178.876-177.016 0-100.386 76.506-176.086 177.952-176.086 100.306 0 178.876 77.754 178.876 177.016 0 100.386-76.508 176.086-177.952 176.086zM2801.038 92.112c-58.456 0-102.538 46.486-102.538 108.126 0 61.112 43.682 107.198 101.612 107.198 58.464 0 102.546-46.486 102.546-108.126 0-61.112-43.69-107.198-101.62-107.198zM3116.152 370.744h-73.54v-341.94h244.724v68.426h-171.184zM3414.748 370.744h-73.54v-341.94h244.724v68.426h-171.184zM3713.336 167.422h163.274v67.498h-163.274v68.33h184.202v67.494h-257.742v-341.94h260.070v67.498h-186.53zM4211.242 132.246c-26.542-24.78-50.508-40.134-87.924-40.134-56.598 0-99.284 46.486-99.284 108.126 0 61.112 42.686 107.198 99.284 107.198 30.696 0 57.102-11.808 85.612-38.29l6.186-5.744 47.39 54.586-5.628 5.378c-27.41 26.186-64.666 52.96-133.098 52.96-100.386 0-176.086-76.1-176.086-177.016 0-100.386 74.704-176.086 173.766-176.086 56.2 0 97.466 17.998 137.992 60.186l5.502 5.736-47.908 48.518-5.804-5.418zM4292.796 370.744v-69.356h103.264v-272.584h74.010v272.584h103.264v69.356z" />
<glyph unicode="&#xe914;" glyph-name="i-cncar" data-tags="i-cncar" horiz-adv-x="3323" d="M1885.098 285.652c0 21.32-13.778 35.096-35.1 35.096-22.308 0-36.718-14.838-36.718-37.802 0-15.618 5.654-27.538 22.87-47.184 34.238 13.232 48.948 28.32 48.948 49.89zM1768.934 101.802c0-27.984 22.662-47.532 55.11-47.532 20.052 0 40.068 8.462 59.596 25.172l-74.396 75.826c-26.4-12.748-40.31-31.146-40.31-53.466zM1616.724 446.988v-509.974h497.736v509.974h-497.736zM1982.614-21.914l-49.69 50.758c-35.38-30.972-73.372-46.050-115.916-46.050-77.388 0-131.438 48.050-131.438 116.848 0 48.52 25.614 85.412 76.17 109.78-18.822 26.582-26.964 49.826-26.964 76.23 0 51.616 40.132 103.868 116.84 103.868 63.006 0 108.736-42.088 108.736-100.082 0-46.014-25.236-79.456-77.046-101.944l49.228-50.050c11.634 18.24 23.196 39.562 34.448 63.532l3.634 7.738 64.902-34.2-3.57-7.148c-16.558-33.124-31.93-59.404-48.018-82.058l61.34-62.456-62.656-44.766zM263.402 131.404c-26.522-24.766-50.476-40.112-87.874-40.112-56.572 0-99.23 46.456-99.23 108.066 0 61.082 42.658 107.142 99.23 107.142 30.678 0 57.070-11.802 85.564-38.268l6.184-5.742 47.368 54.556-5.626 5.374c-27.404 26.172-64.636 52.93-133.028 52.93-100.33 0.002-175.99-76.056-175.99-176.916 0-100.33 74.664-175.99 173.67-175.99 56.168 0 97.414 17.992 137.912 60.154l5.506 5.73-47.886 48.496-5.8-5.42zM441.662 369.774h-73.5v-341.75h244.588v68.384h-171.088zM669.836 369.774h73.508v-341.75h-73.508v341.75zM1073.62 131.412c-26.534-24.774-50.492-40.12-87.88-40.12-56.572 0-99.23 46.456-99.23 108.066 0 61.082 42.658 107.142 99.23 107.142 30.678 0 57.070-11.802 85.564-38.268l6.184-5.742 47.368 54.556-5.626 5.374c-27.404 26.172-64.636 52.93-133.028 52.93-100.33 0-175.99-76.058-175.99-176.918 0-100.33 74.664-175.99 173.67-175.99 56.168 0 97.414 17.992 137.912 60.154l5.506 5.73-47.886 48.496-5.794-5.41zM1487.974 369.774h-92.954l-143.144-151.308v151.308h-73.5v-341.75h73.5v99.222l41.75 42.892 107.828-142.114h89.796l-147.064 193.024zM2539.658 131.404c-26.526-24.766-50.48-40.112-87.876-40.112-56.568 0-99.23 46.456-99.23 108.066 0 61.082 42.662 107.142 99.23 107.142 30.678 0 57.070-11.802 85.564-38.268l6.184-5.742 47.364 54.556-5.626 5.374c-27.396 26.172-64.632 52.93-133.024 52.93-100.33 0-175.99-76.058-175.99-176.918 0-100.33 74.664-175.99 173.67-175.99 56.168 0 97.414 17.992 137.916 60.154l5.498 5.73-47.882 48.496-5.798-5.418zM2762.534 372.1l-150.324-344.078h76.448l33.468 78.568h143.072l33.012-78.568h78.322l-150.324 344.078h-63.674zM2837.284 173.59h-87.254l43.444 101.37 43.81-101.37zM3231.926 154.998c46.344 16.766 72.656 53.906 72.656 103.41 0 68.692-49.444 111.366-129.040 111.366h-153.208v-341.75h73.5v113.436h59.204l79.962-113.438h87.484l-90.558 126.976zM3095.834 301.386h75.062c27.028 0 59.252-8.020 59.252-46.232 0-28.802-22.526-46.694-58.79-46.694h-75.524v92.926z" />
<glyph unicode="&#xe915;" glyph-name="i-cne" data-tags="i-cne" horiz-adv-x="4571" d="M264.13 131.546c-26.596-24.834-50.614-40.224-88.118-40.224-56.728 0-99.504 46.584-99.504 108.366 0 61.246 42.776 107.438 99.504 107.438 30.762 0 57.226-11.834 85.8-38.37l6.2-5.762 47.498 54.71-5.642 5.386c-27.474 26.248-64.806 53.072-133.396 53.072-100.604 0-176.472-76.268-176.472-177.402 0-100.606 74.87-176.476 174.15-176.476 56.324 0 97.682 18.042 138.294 60.32l5.522 5.746-48.018 48.63-5.818-5.434zM442.882 370.57h-73.704v-342.692h245.264v68.574h-171.56zM671.686 370.57h73.712v-342.69h-73.712v342.69zM1076.586 131.554c-26.608-24.842-50.63-40.232-88.122-40.232-56.728 0-99.504 46.584-99.504 108.366 0 61.246 42.776 107.438 99.504 107.438 30.762 0 57.226-11.834 85.8-38.37l6.2-5.762 47.498 54.71-5.642 5.386c-27.474 26.248-64.806 53.072-133.396 53.072-100.606 0-176.476-76.268-176.476-177.402 0-100.606 74.87-176.476 174.15-176.476 56.324 0 97.682 18.042 138.294 60.32l5.522 5.746-48.018 48.63-5.81-5.426zM1347.898 221.438l144.186 149.132h-93.212l-143.538-151.722v151.722h-73.704v-342.692h73.704v99.496l41.866 43.012 108.124-142.508h90.044zM1773.82 101.862c0-28.062 22.724-47.662 55.262-47.662 20.108 0 40.18 8.486 59.76 25.242l-74.602 76.036c-26.472-12.786-40.42-31.236-40.42-53.616zM1890.304 286.224c0 21.374-13.816 35.19-35.198 35.19-22.37 0-36.82-14.878-36.82-37.906 0-15.662 5.67-27.614 22.932-47.318 34.336 13.27 49.086 28.404 49.086 50.034zM1621.188 448v-511.384h499.11v511.384h-499.11zM1988.090-22.196l-49.828 50.898c-35.478-31.058-73.576-46.176-116.236-46.176-77.602 0-131.802 48.182-131.802 117.17 0 48.654 25.686 85.648 76.38 110.084-18.878 26.656-27.040 49.964-27.040 76.444 0 51.754 40.244 104.146 117.162 104.146 63.18 0 109.036-42.206 109.036-100.358 0-46.136-25.306-79.672-77.258-102.22l49.364-50.188c11.666 18.29 23.26 39.672 34.542 63.708l3.644 7.758 65.082-34.294-3.58-7.168c-16.604-33.216-32.018-59.568-48.15-82.284l61.51-62.628-62.826-44.892zM2986.608 367.794h-96.084l-112.972-109.736-25.54 109.736h-84.374l47.124-164.362-192.886-177.042h96.078l117.648 114.614 27.694-114.614h84.372l-48.868 168.752zM3249.85 333.166c-20.932 24.872-53.038 34.628-101.812 34.628h-108.272l-145.764-341.404h75.108l44.176 103.396h64.864c93.156 0 173.472 48.284 186.912 133.148 4.714 29.748-0.432 52.672-15.212 70.232zM3185.538 256.592c-6.102-38.526-43.306-60.962-93.054-60.962h-51.21l44.33 104.37h48.774c22.432 0 35.806-4.876 44.424-15.116 6.156-7.318 8.512-17.074 6.736-28.292zM2520.48 165.388l28.476 65.844h-158.508l29.582 69.744h180.452l28.63 66.818h-255.078l-145.764-341.404h257.516l28.63 66.818h-183.384l30.94 72.18zM4146.178 372.67c-73.156 0-142.382-42.92-153.428-112.664-7.956-50.236 27.764-74.134 69.288-92.178 42.912-18.534 53.56-28.286 50.932-44.872-3.398-21.458-27.588-35.604-57.824-35.604-39.018 0-66.298 15.608-88.49 44.872l-64.144-47.796c25.622-41.458 72.948-62.916 138.79-62.916 71.694 0 142.228 41.942 153.584 113.64 7.878 49.744-23.53 73.156-67.338 92.178-43.318 19.022-55.74 26.826-52.882 44.868 2.704 17.072 23.532 34.628 55.234 34.628 33.164 0 54.078-12.68 76.144-36.578l59.886 51.698c-23.912 30.728-61.224 50.724-119.752 50.724zM4451.488 372.67c-73.16 0-142.386-42.92-153.432-112.664-7.956-50.236 27.764-74.134 69.292-92.178 42.908-18.534 53.556-28.286 50.928-44.872-3.398-21.458-27.584-35.604-57.824-35.604-39.018 0-66.294 15.608-88.484 44.872l-64.144-47.796c25.622-41.458 72.948-62.916 138.786-62.916 71.694 0 142.23 41.942 153.586 113.64 7.878 49.744-23.53 73.156-67.338 92.178-43.322 19.022-55.74 26.826-52.882 44.868 2.704 17.072 23.528 34.628 55.23 34.628 33.166 0 54.078-12.68 76.144-36.578l59.886 51.698c-23.908 30.728-61.222 50.724-119.748 50.724zM3613.598 264.882c4.404 27.8-1.080 51.702-15.446 68.77-19.292 22.924-52.144 34.142-102.864 34.142h-124.37l-145.762-341.404h75.108l46.564 109.25h56.086l35.374-109.25h85.348l-39.574 116.566c75.374 17.070 119.804 60.476 129.536 121.926zM3534.072 258.544c-5.948-37.556-45.052-56.578-91.874-56.578h-66.818l41.86 98.032h62.916c23.898 0 39.712-4.876 47.51-14.142 6.158-7.316 8.26-15.606 6.406-27.312zM3771.478 300.976h180.456l28.626 66.818h-255.074l-145.768-341.404h257.52l28.626 66.818h-183.38l30.94 72.18h158.508l28.476 65.844h-158.512z" />
<glyph unicode="&#xe916;" glyph-name="i-eci-card" data-tags="i-eci-card" d="M496-64h-480c-8.836 0-16 7.164-16 16v320c0 8.836 7.164 16 16 16h480c8.836 0 16-7.164 16-16v-320c0-8.836-7.164-16-16-16zM32-32h448v288h-448v-288zM160 32v160l256-80z" />
<glyph unicode="&#xe917;" glyph-name="i-clipboard" data-tags="i-clipboard" d="M434.156 384h-82.232l0.088 23.826c0 4.418-3.582 8-8 8l-176.176 0.174c-4.418 0-8-3.582-8-8v-24h-81.756c-7.764 0-14.080-6.922-14.080-15.43v-417.106c0-8.51 6.316-15.432 14.080-15.432h355.84c7.764 0 14.080 6.922 14.080 15.43l0.024 416.938c0 8.508-6.104 15.6-13.868 15.6zM320.024 384v-32h48l-16-32h-192l-16.024 32h21.668c0.018 0 0.042 0.008 0.062 0.008l26.27-0.008 0.024 32h128zM416-31.968h-320v384l10.492-0.004 34.226-59.992c1.422-2.496 4.074-4.036 6.948-4.036h217.704c2.916 0 5.6 1.586 7.008 4.142l32.966 59.886 10.656 0.004v-384zM192 256h192.024v-32h-192.024v32zM128.024 256h32v-32h-32v32zM128.024 192h32v-32h-32v32zM128.024 128h32v-32h-32v32zM128.024 64h32v-32h-32v32zM192 192h192.024v-32h-192.024v32zM192 128h192.024v-32h-192.024v32zM192 64h192.024v-32h-192.024v32z" />
<glyph unicode="&#xe918;" glyph-name="i-shop-return" data-tags="i-shop-return" horiz-adv-x="2357" d="M794.382 392.676h-62.16v-165.010h62.16c50.722 0 87.534 34.796 87.534 82.734 0 47.674-36.814 82.276-87.534 82.276zM847.434 309.944c0-30.914-21.322-51.684-53.054-51.684h-29.054v103.822h29.054c31.238 0 53.054-21.44 53.054-52.138zM1040.998 257.804h-91.67v37.986h80.24v30.138h-80.24v36.614h90.524v30.134h-123.634v-165.010h124.78zM1189.024 392.676l-46.306-118.634-46.528 118.634h-36.52l68.576-166.152h28.030l68.582 166.152zM1320.778 395.418c-48.442 0-86.392-37.544-86.392-85.474 0-48.47 36.944-85.020 85.938-85.020 49.252 0 86.392 36.748 86.392 85.474 0 48.47-36.944 85.020-85.938 85.020zM1320.778 255.744c-29.59 0-51.908 23.498-51.908 54.654 0 30.898 22.122 54.198 51.454 54.198 29.594 0 51.912-23.498 51.912-54.654 0.002-30.898-22.122-54.198-51.458-54.198zM1558.252 258.26h-84.124v134.416h-33.11v-165.010h117.234zM1722.594 299.426v93.25h-33.104v-94.62c0-27.136-13.404-42.082-37.74-42.082-24.482 0-37.968 15.35-37.968 43.224v93.478h-33.108v-94.62c0-46.332 25.74-72.904 70.62-72.904 45.312 0 71.3 27.072 71.3 74.274zM1838.262 224.924c27.168 0 47.122 8.708 66.72 29.112l1.686 1.752-21.47 21.742-1.774-1.654c-13.32-12.428-25.37-20.132-44.25-20.132-28.684 0-50.31 23.498-50.31 54.654 0 30.898 21.626 54.198 50.31 54.198 15.5 0 28.796-5.93 43.11-19.22l1.886-1.758 21.318 24.548-1.72 1.642c-13.258 12.662-31.272 25.608-64.366 25.608-48.472 0-85.022-36.748-85.022-85.474 0.002-48.468 36.064-85.018 83.882-85.018zM1937.014 392.676h33.11v-165.010h-33.11v165.010zM2092.43 395.418c-49.252 0-86.392-36.748-86.392-85.474 0-48.47 36.944-85.020 85.934-85.020 49.252 0 86.392 40.962 86.392 89.688 0 48.47-36.946 80.806-85.934 80.806zM2143.886 309.944c0-30.898-22.122-54.198-51.454-54.198-29.59 0-51.908 23.498-51.908 54.654 0 30.898 22.118 54.198 51.45 54.198 29.594 0 51.912-23.498 51.912-54.654zM2136.188 430.484l-30.52 13.594-27.884-43.134h27.066zM2324.452 396.89v-105.842l-82.010 105.842h-29.776v-165.010h32.652v109.042l84.518-109.042h27.266v165.010zM1063.394 48.268h80.24v30.14h-80.24v36.614h90.524v30.132h-123.632v-165.010h124.774v30.14h-91.666zM1300.47 39.318l-82.010 105.836h-29.77v-165.010h32.65v109.046l84.52-109.046h27.266v165.010h-32.656zM1436.912 114.104h50.742v-133.96h33.344v133.96h50.748v31.050h-134.834zM1603.314 145.154h33.104v-165.010h-33.104v165.010zM1712.526 48.268h80.244v30.14h-80.244v36.614h90.524v30.132h-123.634v-165.010h124.778v30.14h-91.668zM1949.606 39.318l-82.010 105.836h-29.776v-165.010h32.656v109.046l84.514-109.046h27.266v165.010h-32.65zM2085.814 145.154h-62.162v-165.010h62.162c50.718 0 87.532 39.010 87.532 86.95-0.002 47.672-36.814 78.060-87.532 78.060zM2138.856 62.422c0-30.91-21.318-51.678-53.044-51.678h-29.054v103.82h29.054c31.234-0.002 53.044-21.442 53.044-52.142zM2254.234 150.514l-72.588-166.156h34.264l16.46 38.636h72.36l16.23-38.636h35.186l-72.588 166.156h-29.324zM2292.3 52.9h-47.506l23.654 55.202 23.852-55.202zM318.976 116.864h-39.128v-49.646h39.36c19.116 0 30.988 9.558 30.988 24.94 0 20.422-16.978 24.706-31.22 24.706zM468.53 49.778h48.456l-24.328 56.294zM2.022 186.76v-250.76h980.976v250.76h-980.976zM208.714 4.046l-0.872-0.746c-13.838-11.834-37.13-25.944-69.516-25.944-51.164 0-86.9 35.542-86.9 86.436 0 48.73 37.966 86.898 86.432 86.898 26.558 0 45.148-6.57 64.164-22.678l1.894-1.608-21.35-25.452-1.914 1.628c-12.206 10.402-23.816 16.844-43.954 16.844-28.196 0-50.284-24.234-50.284-55.168 0-32.894 21.728-55.866 52.842-55.866 13.466 0 26.8 4.030 36.804 11.098v26.694h-41.626v29.872h74.28v-72.008zM351.858-19.856l-39.99 56.738h-32.020v-56.738h-33.588v167.754h75.040c38.83 0 62.952-20.736 62.952-54.114 0-24.726-13.53-43.11-37.274-50.914l44.736-62.728h-39.856zM546.098-19.856l-16.51 39.298h-73.658l-16.738-39.298h-34.764l73.796 168.918h29.77l73.796-168.918h-35.692zM713.228 116.4h-51.618v-136.256h-33.822v136.256h-51.618v31.498h137.058v-31.498zM779.018-19.856h-33.594v167.754h33.594v-167.754zM882.31-22.182c-25.952 0-50.004 9.226-69.556 26.676l-1.808 1.614 20.396 24.258 1.914-1.658c16.642-14.408 31.52-20.554 49.754-20.554 16.248 0 26.336 6.974 26.336 18.2 0 10.128-5.026 15.806-34.806 22.684-35.546 8.588-56.11 19.724-56.11 51.26 0 29.394 23.878 49.926 58.068 49.926 23.18 0 43.012-6.872 60.622-21.010l1.832-1.472-18.19-25.628-2.048 1.53c-14.656 10.932-28.616 16.244-42.684 16.244-14.362 0-24.012-6.848-24.012-17.040 0-10.786 5.542-15.942 36.684-23.38 28.17-6.852 54.23-17.692 54.23-50.324 0.002-31.176-23.792-51.326-60.622-51.326z" />
<glyph unicode="&#xe919;" glyph-name="i-dgown" data-tags="i-dgown" d="M206.702 416.826l25.25 30.632c0 0 31.046-124.184 48.018-152.746 0 0-65.818 38.912-73.268 122.114zM279.97 447.458l26.078-31.046c0 0-9.934-64.576-34.772-87.756l-11.176 36.014c0 0 16.972 67.058 19.87 82.788zM238.162 447.458h35.184l-16.558-67.886zM200.94 416.594c0 0-37.288-2.25-43.912-20.050s-16.558-28.562-52.57-216.492l47.19-13.66c0 0 28.148 81.96 39.738 139.5 0 0-15.316-328.672-20.284-362.614 0 0 37.668-7.45 93.138-5.382l15.73 352.68c0-0.002-68.682 29.154-79.030 126.018zM311.846 414.746c0 0 29.386 1.252 42.22-15.718 0 0 19.042-23.594 52.984-218.562l-45.534-13.66c0 0-31.874 95.622-40.98 141.154 0 0 12.004-260.784 21.526-365.926 0 0-21.98-9.126-69.998-5.452l15.148 355.32-12.624 32.202c0-0.002 28.276 22.13 37.258 90.642z" />
<glyph unicode="&#xe91a;" glyph-name="i-pajama" data-tags="i-pajama" d="M126.5 160h37.282l5.25 68.99 16.632 63.248-3.998-105.24 64.8 0.754-0.010 196.11-10.956-12.322-22.086 52.036 0.186 0.112-42.984-17.95c0 0-5.016-8.086-7.922-13.864-2.904-5.776-31.418-161.152-31.418-161.152zM382.876 231.588l-34.090 160.482-8.152 11.646-43.078 19.984-22.040-51.82-18.232 20.466-3.29-0.006-1.536-1.728 0.010-202.862 76.53-0.088-3.678 111.214 15.314-69.89 8.36-68.99h37.974l-4.092 71.592zM257.414 228.898c-1.302 0-2.36 1.154-2.36 2.58 0 1.424 1.056 2.58 2.36 2.58 1.302 0 2.36-1.154 2.36-2.58s-1.058-2.58-2.36-2.58zM257.414 276.056c-1.302 0-2.36 1.156-2.36 2.58s1.056 2.58 2.36 2.58c1.302 0 2.36-1.154 2.36-2.58s-1.058-2.58-2.36-2.58zM257.414 323.21c-1.302 0-2.36 1.154-2.36 2.58 0 1.424 1.056 2.58 2.36 2.58 1.302 0 2.36-1.154 2.36-2.58 0-1.422-1.058-2.58-2.36-2.58zM257.414 370.368c-1.302 0-2.36 1.156-2.36 2.58s1.056 2.58 2.36 2.58c1.302 0 2.36-1.154 2.36-2.58s-1.058-2.58-2.36-2.58zM251.746 399.828l2.158 2.254-27.984 39.28-10.296-9.82 0.116-0.272 20.476-47.67zM295.318 431.542l-10.296 9.82-27.986-39.28 17.688-18.482zM230.358 443.754h50.224l-25.178-33.502zM182.718 179.262h146.244l24.266-239.016h-72.636l-19.67 195.114h-7.264l-16.812-195.114h-79.266z" />
<glyph unicode="&#xe91b;" glyph-name="i-up" data-tags="i-up" d="M255.794 383.936l-0.040 0.042-12.408-12.444-147.828-147.27 45.212-45.292 83.27 82.954v-325.926h64v325.44l82.912-82.678 45.19 45.32-160.244 159.918zM512 448.444h-512v-64.444h512z" />
<glyph unicode="&#xe91c;" glyph-name="arrow-down" data-tags="arrow-down" d="M300.584 48.435l-44.58-44.58-255.561 255.561 44.58 44.58 255.561-255.561zM255.998 3.852l-44.58 44.58 255.56 255.56 44.58-44.58-255.56-255.56z" />
<glyph unicode="&#xe91d;" glyph-name="arrow-left" data-tags="arrow-left" d="M140.583 147.416l-44.58 44.58 255.562 255.561 44.58-44.58-255.561-255.561zM96.001 192.003l44.58 44.58 255.56-255.56-44.58-44.58-255.56 255.56z" />
<glyph unicode="&#xe91e;" glyph-name="arrow-right" data-tags="arrow-right" d="M371.417 236.587l44.58-44.58-255.561-255.561-44.58 44.58 255.562 255.561zM415.999 192l-44.58-44.58-255.56 255.56 44.58 44.58 255.56-255.56z" />
<glyph unicode="&#xe91f;" glyph-name="submenu" data-tags="arrow-solid" d="M384 192.002l-160 159.998-0.166-320.166 160.166 160.166z" />
<glyph unicode="&#xe920;" glyph-name="arrow-up" data-tags="arrow-up" d="M511.56 86.509l-44.58-44.58-255.559 255.558 44.58 44.58 255.559-255.558zM45.023 41.932l-44.58 44.58 255.557 255.558 44.58-44.58-255.558-255.558z" />
<glyph unicode="&#xe921;" glyph-name="burger" data-tags="burger" horiz-adv-x="608" d="M0 448h608v-128h-608v128zM0 256h608v-128h-608v128zM0 64h608v-128h-608v128z" />
<glyph unicode="&#xe922;" glyph-name="list-2" data-tags="c2" d="M0 160h224.028v-224h-224.028v224zM0 448h224.028v-224h-224.028v224zM288 448h224v-224h-224v224zM288 160h224v-224h-224v224z" />
<glyph unicode="&#xe923;" glyph-name="list-3" data-tags="c3" d="M383.984 448h128l0.016-128h-128zM383.984 255.944h128l0.016-127.944h-128zM384 64h128l-0.016-127.998h-128zM191.984 448l128-0.002 0.016-127.998h-128zM191.984 255.944l128-0.002 0.016-127.944-128 0.002zM192 64l128-0.002-0.016-127.998-128 0.002zM0 448h127.984l0.016-128h-127.984zM0 255.944h127.984l0.016-127.944h-127.984zM0.016 64h127.984l-0.016-127.998h-127.984z" />
<glyph unicode="&#xe924;" glyph-name="list-4" data-tags="c4" d="M-0.248 448h96v-96h-96v96zM128.248 448h96v-96h-96v96zM256.248 448h96v-96h-96v96zM384.248 448h96v-96h-96v96zM-0.248 320h96v-96h-96v96zM128.248 320h96v-96h-96v96zM256.248 320h96v-96h-96v96zM384.248 320h96v-96h-96v96zM-0.248 192h96v-96h-96v96zM128.248 192h96v-96h-96v96zM256.248 192h96v-96h-96v96zM384.248 192h96v-96h-96v96zM-0.248 64h96v-96h-96v96zM128.248 64h96v-96h-96v96zM256.248 64h96v-96h-96v96zM384.248 64h96v-96h-96v96z" />
<glyph unicode="&#xe925;" glyph-name="checkbox" data-tags="checkbox" d="M64 0h384v384h-384zM416 32h-320v320h320v-320z" />
<glyph unicode="&#xe926;" glyph-name="checkbox_selected" data-tags="checkbox_selected" d="M64 384v-384h384v224h-32v-192h-320v320h256v32zM168.164 239.944l-33.942-33.942 109.248-109.248 211.822 211.85-33.936 33.942-177.898-177.898z" />
<glyph unicode="&#xe927;" glyph-name="close-session" data-tags="close-session" horiz-adv-x="544" d="M287.262 224h140.868v-64h-140.868v64zM351.262 32h-256.002v320h256.002v-64h32v96h-320.002v-384h320.002v96h-32zM425.114 106.656c-5.492-3.66-9.984-1.256-9.984 5.344v156.472c0 6.6 4.492 9.004 9.984 5.344l84.828-75.16c5.492-3.662 5.492-9.652 0-13.312l-84.828-78.688zM63.26 384l192-64v-384l-192 64z" />
<glyph unicode="&#xe928;" glyph-name="i-comment" data-tags="comment-border" d="M255.464 384c61.582 0 119.162-18.53 162.136-52.178 40.664-31.838 63.058-73.46 63.058-117.2 0-43.738-22.394-85.36-63.058-117.2-42.974-33.648-100.554-52.178-162.136-52.178-7.168 0-14.526 0.272-21.87 0.808l-11.98 0.876-9.598-7.224c-17.904-13.476-35.454-26.718-52.672-39.714v60.658l-18.852 8.496c-33.644 15.162-61.678 36.76-81.072 62.456-19.072 25.27-29.152 53.98-29.152 83.022 0 43.738 22.394 85.36 63.058 117.2 42.976 33.648 100.556 52.178 162.138 52.178zM255.464 416c-142.044 0-257.194-90.16-257.194-201.376 0-74.692 51.936-139.886 129.076-174.652 0-34.896 0-69.006 0-103.972 2.556 1.82 4.438 3.094 6.268 4.476 31.37 23.666 63.882 48.25 97.648 73.664 7.97-0.582 16.040-0.894 24.204-0.894 142.044 0 257.194 90.16 257.194 201.376s-115.15 201.378-257.196 201.378v0z" />
<glyph unicode="&#xe929;" glyph-name="i-comment-solid" data-tags="comment-solid" d="M255.464 416c-142.044 0-257.194-90.16-257.194-201.376 0-74.692 51.936-139.886 129.076-174.652 0-34.896 0-69.006 0-103.972 2.556 1.822 4.438 3.094 6.268 4.476 31.37 23.666 63.882 48.25 97.648 73.664 7.97-0.582 16.040-0.894 24.204-0.894 142.044 0 257.194 90.16 257.194 201.376s-115.15 201.378-257.196 201.378z" />
<glyph unicode="&#xe92a;" glyph-name="delete" data-tags="cross" d="M323.882 305.136l-67.882-67.882-67.882 67.882-45.254-45.254 67.882-67.882-67.882-67.882 45.254-45.254 67.882 67.882 67.882-67.882 45.254 45.254-67.882 67.882 67.882 67.882z" />
<glyph unicode="&#xe92b;" glyph-name="delivery" data-tags="delivery" horiz-adv-x="736" d="M610.758 242.738l34.816 135.262h-528l-103.888-320.084h42.426c14.036 43.248 60.472 78.302 103.716 78.302s66.93-35.054 52.892-78.302h290.012c14.038 43.252 60.464 78.302 103.71 78.302 43.25 0 66.928-35.050 52.894-78.302h21.114l43.88 105.49-113.572 79.332zM128.818 4.946c-29.208 0-50.462 23.762-47.376 52.97s29.364 52.974 58.57 52.974c29.21 0 50.464-23.766 47.378-52.974s-29.362-52.97-58.572-52.97zM575.43 4.946c-29.208 0-50.458 23.758-47.37 52.966 3.086 29.212 29.36 52.978 58.564 52.978 29.208 0 50.462-23.766 47.376-52.978-3.082-29.208-29.356-52.966-58.57-52.966z" />
<glyph unicode="&#xe92c;" glyph-name="department-stores" data-tags="department-stores-2" d="M457.332 128l-69.666 85.666-3.666-277.666h73.332zM384 368l-112 80v-512h96zM89.334-64l-6.334 288-64-48 7.666-240zM96 368l10.334-432h149.666v512l-160-80zM125.834 278.66v50.68l100.334-9.162-100.334-41.518z" />
<glyph unicode="&#xe92d;" glyph-name="doc" data-tags="doc" d="M448 192v96l-96 96h-288v-448h384v128zM416 64v-96h-320v384h224v-96h96v-64zM128 224h256v-32h-256v32zM128 288h160v-32h-160v32zM128 160h256v-32h-256v32zM128 96h256v-32h-256v32zM128 32h256v-32h-256v32z" />
<glyph unicode="&#xe92e;" glyph-name="double-arrow-left" data-tags="double-arrow-left" horiz-adv-x="640" d="M255.562 449.558l44.579-44.578-255.56-255.56-44.578 44.578 255.56 255.56zM300.14-16.981l-44.58-44.58-255.558 255.558 44.58 44.58 255.558-255.558zM575.555 449.556l44.578-44.579-255.56-255.56-44.579 44.578 255.56 255.56zM620.145-16.981l-44.58-44.58-255.558 255.558 44.58 44.58 255.558-255.558z" />
<glyph unicode="&#xe92f;" glyph-name="help" data-tags="help" d="M278.87 112h-43.112c-0.122 6.646-0.18 18.532-0.18 19.982 0 15.008 2.476 27.344 7.44 37.026 4.958 9.678 14.882 20.568 29.766 32.666 14.878 12.098 23.772 20.024 26.676 23.774 4.472 5.926 6.714 12.458 6.714 19.6 0 9.92-3.962 18.42-11.886 25.5-7.928 7.078-18.604 10.616-32.032 10.616-12.948 0-23.774-3.692-32.486-11.070-8.712-7.38-14.702-18.634-17.966-33.754l-42.712 5.806c1.33 21.656 10.554 40.044 27.676 55.17 17.116 15.122 35.478 22.684 63.31 22.684 29.276 0 52.564-7.654 69.87-22.958 17.296-15.308 23.040-33.12 23.040-53.446 0-11.252-3.16-21.9-9.512-31.94-6.352-10.046-19.87-23.714-40.674-41.016-10.77-8.956-17.518-16.152-20.118-21.598-2.606-5.444-4.060-23.012-3.814-37.042zM235.032 64v32h43.836v-32h-43.836zM255.864-64c-141.010 0-255.734 114.722-255.734 255.734s114.724 255.734 255.734 255.734c141.012 0 255.734-114.722 255.734-255.734s-114.722-255.734-255.734-255.734zM255.864 412.198c-121.562 0-220.46-98.9-220.46-220.462s98.898-220.46 220.46-220.46c121.564 0 220.46 98.898 220.46 220.46s-98.896 220.462-220.46 220.462z" />
<glyph unicode="&#xe930;" glyph-name="i-socks" data-tags="i-socks" d="M384.002 180.808c0-24.474-12.592-48.99-21.454-56.926-53.21-47.646-106.2-95.492-159.266-143.268-23.146-20.838-60.282-24.902-93.948-6.926-24.276 16.040-41.804 39.258-40.48 68.914 0.776 17.38 7.982 32.58 21.694 44.98 32.152 29.076 58.768 55.744 90.53 85.162 22.594 20.926 38.118 45.576 42.886 74.972 0.48 2.962 0.642 5.99 0.646 8.988 0.046 29.55 0.028 58.556 0.028 88.106 0 2.054 0 4.108 0 7.188 53.366 0 106.366 0 159.364 0 0-57.242 0-146.716 0-171.19zM224.002 416h160v-32.148h-160v32.148z" />
<glyph unicode="&#xe931;" glyph-name="help-solid" data-tags="help-solid" d="M255.8 447.4c-141 0-255.6-114.6-255.6-255.6s114.6-255.8 255.6-255.8 255.8 114.8 255.8 255.8-114.8 255.6-255.8 255.6zM278.8 63h-43.8v29.8h43.8v-29.8zM343.4 208.4c-6.4-10-19.8-23.8-40.6-41-10.8-9-17.6-16.2-20.2-21.6s-4-23-3.8-37h-43.2c-0.2 6.6-0.2 18.6-0.2 20 0 15 2.4 27.4 7.4 37s14.8 20.6 29.8 32.6c14.8 12 23.8 20 26.6 23.8 4.4 6 6.8 12.4 6.8 19.6 0 10-4 18.4-11.8 25.6-8 7-18.6 10.6-32 10.6-13 0-23.8-3.6-32.4-11-8.8-7.4-14.8-18.6-18-33.8l-42.8 5.8c1.4 21.6 10.6 40 27.6 55.2 17.2 15 35.6 22.6 63.4 22.6 29.2 0 52.6-7.6 69.8-23s23-33.2 23-53.4c0.2-11.2-3-22-9.4-32z" />
<glyph unicode="&#xe932;" glyph-name="i-add-list" data-tags="i-add-list" d="M400.168 335.834l-0.168 0.166-48 48h-288v-448h384v352l-47.832 47.834zM416 64v-96h-320v384h224v-96h96v-192zM288 160v62.334h-64v-62.334h-64v-64h64v-65.666h64v65.666h64v64z" />
<glyph unicode="&#xe933;" glyph-name="i-added-list" data-tags="i-added-list" d="M400.168 335.834l-0.168 0.166-48 48h-288v-448h384v352l-47.832 47.834zM416 64v-96h-320v384h224v-96h96v-192zM181.532 166.256l-45.254-45.256 89.332-89.33 158.388 158.388-45.256 45.256-113.132-113.132-44.078 44.074zM225.608 76.926v0 0 0 0z" />
<glyph unicode="&#xe934;" glyph-name="i-building" data-tags="i-building" d="M447.024 127.444c0 5.514-2.854 13.524-6.342 17.796l-48.98 60.006c-3.488 4.274-6.458 3.258-6.602-2.256l-5.82-224.804c-0.144-5.514 4.252-10.024 9.768-10.024h47.946c5.514 0 10.028 4.512 10.028 10.028l0.002 149.254zM379.342 339.088c0.206 5.512-3.304 12.638-7.796 15.836l-82.792 58.918c-4.492 3.198-8.17 1.302-8.17-4.214v-431.438c0-5.516 4.512-10.028 10.028-10.028h64.916c5.514 0 10.196 4.508 10.4 10.020l13.414 360.906zM108.876-31.838c5.514 0 9.928 4.512 9.806 10.026l-5.162 233.914c-0.122 5.514-3.836 7.324-8.254 4.022l-40.58-30.322c-4.418-3.3-7.888-10.512-7.712-16.024l6.142-191.592c0.176-5.514 4.834-10.022 10.35-10.022l35.41-0.002zM257.442 415.184l-123.662-61.602c-4.936-2.458-8.866-8.982-8.734-14.496l8.666-360.898c0.132-5.514 4.752-10.026 10.268-10.026h112.414c5.514 0 10.028 4.512 10.028 10.028v431.438c-0.004 5.516-4.044 8.016-8.98 5.556zM155.698 277.452c-0.010-0.004-0.018 0.002-0.018 0.012v41.518c0 0.010 0.008 0.020 0.020 0.018l82.54-7.508c0.010-0.002 0.012-0.006 0.002-0.008l-82.544-34.032z" />
<glyph unicode="&#xe935;" glyph-name="i-comparison" data-tags="i-comparison" d="M435.454 236.322l73.546 47.7-253 128.314-253-128.314 73.546-47.7-73.546-37.3 71.036-46.072-71.036-36.028 253-164.092 253 164.092-71.036 36.026 71.036 46.072-73.546 37.302zM67.046 280.624l188.954 95.83 188.954-95.83-188.954-122.552-188.954 122.552zM444.954 113.524l-188.954-122.552-188.954 122.552 38.034 19.29 150.92-97.884 152.042 98.612 36.912-20.018z" />
<glyph unicode="&#xe936;" glyph-name="i-contrast" data-tags="i-contrast" horiz-adv-x="533" d="M521.22 191.924c0 140.28-113.72 254-254 254v0c-140.28 0-254-113.72-254-254s113.72-254 254-254 254 113.72 254 254v0 0zM110.242 34.946c-41.93 41.93-65.022 97.68-65.022 156.978s23.092 115.048 65.022 156.978c41.93 41.93 97.68 65.022 156.978 65.022v-444c-59.298 0-115.048 23.092-156.978 65.022z" />
<glyph unicode="&#xe937;" glyph-name="i-delivery-truck" data-tags="i-delivery-truck-2" d="M225.814 69.266c-6.384 33.202-25.348 50.67-54.088 50.126-27.118-0.512-46.374-19.266-51.034-49.912-11.166 0-22.466-0.888-33.55 0.284-8.606 0.912-12.56 9.58-10.55 19.386 6.49 31.692 13.044 63.376 19.54 95.068 6.778 33.084 13.538 66.174 20.25 99.274 2.932 14.456 11.912 22.016 26.78 22.024 73.508 0.036 147.016 0.040 220.528-0.004 14.742-0.008 20.64-7.292 17.7-21.702-14.26-69.952-28.562-139.894-42.81-209.852-0.592-2.9-0.892-5.31-4.988-5.296-35.436 0.154-70.872 0.122-106.312 0.162-0.388 0.008-0.774 0.228-1.466 0.442zM173.508 33.354c-20.924 0.072-37.6 16.2-37.62 36.394-0.020 20.078 16.804 36.282 37.72 36.326 21.074 0.044 38.314-16.606 38.038-36.74-0.272-20.082-17.196-36.050-38.138-35.98zM443.436 95.032c-7.34 7.472-17.298 11.61-28.044 11.654h-0.164c-20.986 0-38.146-16.518-38.246-36.824-0.048-9.934 3.868-19.246 11.034-26.22 7.158-6.97 16.76-10.838 27.046-10.886h0.204c21.386 0 38.358 16.016 38.64 36.462 0.134 9.64-3.586 18.808-10.47 25.814zM508.692 144.22c-13.16 31.426-26.224 53.078-39.234 84.568-3.182 7.712-8.676 11.396-17.032 11.348-20.23-0.112-40.464 0-60.694-0.064-9.798-0.032-13.408-3.214-15.338-12.976-8.404-42.44-16.848-75.062-25.248-117.504-2.598-13.124-5.094-26.268-7.68-39.616 6.82 0 12.878 0 18.27 0 1.804 6.796 2.812 13.34 5.25 19.302 8.83 21.512 32.55 34.486 55.784 31.044 24.046-3.564 42.006-21.648 44.634-45.34 0.458-4.114 1.752-5.72 5.97-5.452 5.090 0.322 10.216-0.012 15.322 0.092 8.166 0.168 12.384 3.664 14.088 11.678 2.672 12.578 5.162 25.196 7.938 37.756 1.912 8.646 1.418 16.926-2.030 25.164zM397.958 190.902l4.444 26.026h45.702l19.486-40.576-69.632 14.55zM18.604 203.994h44.992v-21.664h-44.992v21.664zM21.278 158.73h29.858v-21.664h-29.858v21.664zM41.102 249.254h29.858v-21.664h-29.858v21.664zM0 113.47h44.992v-21.664h-44.992v21.664z" />
<glyph unicode="&#xe938;" glyph-name="i-gift" data-tags="i-gift" d="M32 320v-160h31.572l0.428-224h384v224h32v160zM63.572 288.38h128.428v-96.38h-128.312zM192-32h-96v192h96v-192zM320 287.874l128 0.508v-96.382h-128v95.874zM416-32h-96v192h96v-192zM121.496 349.994c12.122-6.42 26.972-11.214 44.772-14.63 32.818-6.228 53.702-16.394 66.928-25.404h42.372c13.338 8.624 33.754 18.074 64.836 23.998 23.694 4.546 42.236 11.516 55.904 21.63 6.832 5.070 12.398 11.048 16.31 17.908 3.882 6.862 5.952 14.66 5.952 22.484 0 6.2-1.24 12.4-3.47 18.35-3.774 10.222-10.91 18.654-19.84 24.11-8.926 5.484-19.508 8.156-30.584 8.156-26.064-0.082-55.272-14.3-79.904-43.974-14.49-17.496-24.274-33.78-31.104-47.832-6.862 14.384-16.782 31.162-31.77 49.264-24.66 29.672-53.84 43.892-79.904 43.946-11.106 0.028-21.686-2.646-30.614-8.156-8.926-5.456-16.036-13.86-19.81-24.082-2.232-5.98-3.472-12.152-3.472-18.35-0.028-7.826 2.040-15.624 5.952-22.482 5.868-10.36 15.404-18.518 27.446-24.936zM306.124 384.902c20.53 24.798 42.928 34.028 58.55 33.946 6.67 0 12.068-1.6 16.038-4.052 3.968-2.478 6.668-5.676 8.376-10.138 1.24-3.306 1.738-6.172 1.738-8.68-0.030-3.168-0.716-5.868-2.372-8.816-2.454-4.354-7.494-9.396-16.31-14.080-8.79-4.684-21.132-8.872-36.922-11.874-23.172-4.382-41.58-10.774-56.266-17.746 5.924 11.988 14.438 26.094 27.168 41.44zM117.582 406.064c1.708 4.49 4.38 7.688 8.348 10.166 3.968 2.424 9.368 4.022 16.064 4.022 15.594 0.082 37.996-9.12 58.522-33.918 12.732-15.376 21.272-29.456 27.166-41.438-14.684 6.97-33.090 13.362-56.234 17.742-21.050 3.968-35.956 10.166-44.524 16.616-4.328 3.224-7.054 6.392-8.708 9.34-1.654 2.92-2.342 5.648-2.37 8.816-0.002 2.508 0.496 5.374 1.736 8.654z" />
<glyph unicode="&#xe939;" glyph-name="i-language" data-tags="i-language" d="M271.344 447.944v0.39h-30.688v-0.55c-133.972-8.558-239.99-119.91-239.99-256.042 0-141.712 114.88-256.592 256.592-256.592s256.592 114.88 256.592 256.592c0 136.986-107.346 248.888-242.506 256.202zM33.192 176.398h101.332c1.172-27.68 5.16-54.826 11.75-80.88h-92.078c-11.952 25.176-19.104 52.516-21.004 80.88zM271.344 319.518v92.538c22.55-26.572 40.552-58.066 53.326-92.538h-53.326zM334.45 288.83c7.042-26.218 11.198-53.714 12.212-81.744h-75.318v81.744h63.106zM240.656 319.518h-52.252c12.57 33.918 30.208 64.946 52.252 91.244v-91.244zM240.656 288.83v-81.744h-74.244c1.012 28.030 5.17 55.526 12.212 81.744h62.032zM134.398 207.086h-101.206c1.924 28.69 9.226 56.328 21.428 81.744h90.992c-6.478-26.392-10.28-53.846-11.214-81.744zM166.552 176.398h74.104v-80.88h-61.304c-7.17 25.876-11.526 53.060-12.8 80.88zM240.656 64.83v-88.368c-21.474 25.594-38.748 55.58-51.238 88.368h51.238zM271.344 64.83h52.312c-12.7-33.338-30.334-63.794-52.312-89.666v89.666zM271.344 95.518v80.88h75.18c-1.274-27.82-5.632-55.004-12.802-80.88h-62.378zM378.552 176.398h102.774c-1.902-28.364-9.054-55.704-21.006-80.88h-93.518c6.588 26.054 10.578 53.2 11.75 80.88zM378.676 207.086c-0.932 27.896-4.736 55.352-11.212 81.744h92.434c12.2-25.416 19.504-53.054 21.428-81.744h-102.65zM442.016 319.518h-83.438c-10.876 32.428-25.928 62.73-44.684 89.638 38.316-9.912 73.452-29.882 102.174-58.604 9.658-9.658 18.316-20.048 25.948-31.034zM98.448 350.552c28.278 28.278 62.774 48.072 100.4 58.138-18.604-26.792-33.538-56.934-44.352-89.172h-81.996c7.632 10.986 16.29 21.376 25.948 31.034zM71.906 64.83h83.508c11.362-33.006 27.072-63.734 46.67-90.888-38.884 9.778-74.546 29.902-103.634 58.99-9.912 9.91-18.768 20.594-26.544 31.898zM416.068 32.932c-29.522-29.522-65.82-49.802-105.382-59.412 19.74 27.258 35.554 58.132 46.976 91.31h84.948c-7.776-11.304-16.632-21.988-26.542-31.898z" />
<glyph unicode="&#xe93a;" glyph-name="i-market-bag" data-tags="i-market-bag" d="M489.628 240.656c-37.992-0.368-75.99-0.142-113.988-0.142-1.982 0-3.964 0-6.33 0-6.204 35.828-23.122 64.8-53.646 84.902-19.334 12.732-40.776 18.506-63.924 17.732-50.072-1.672-99.126-40.206-109.19-102.634-1.834 0-3.778 0-5.718 0-38.164 0-76.328-0.22-114.488 0.138-11.080 0.102-18.622-3.702-22.372-14.278 0-2.666 0-5.334 0-8 4.32-10.5 12.404-14.63 23.366-13.512 3.676 0.376 4.768-1.414 5.7-4.526 16.862-56.396 34.174-112.658 50.54-169.198 4.676-16.148 18.704-31.774 29.4-31.774s290.25-0.012 294.014 0 9.904 3.926 14.306 6.75c6.654 4.274 10.606 10.736 12.898 18.39 17.496 58.462 35.136 116.88 52.586 175.358 1.070 3.582 2.334 5.414 6.348 4.996 10.87-1.128 18.612 3.312 22.866 13.516 0 2.666 0 5.334 0 8-3.764 10.548-11.274 14.392-22.368 14.282zM159.988 32.338c-17.042-3.218-36.438 21.252-41.818 37.076-4.060 11.948-7.376 13.886-11.208 26.596 16.986 0 36.322 0 53.028 0-0.002-19.682-0.002-44.322-0.002-63.672zM160.012 128.118c-5.032 0-12.724 0.038-17.506 0-14.84-0.118-25.978 0.064-38.964-0.050-2.732-0.028-4.112 0.638-4.916 3.51-3.084 11.046-6.7 24.25-9.708 35.312-3.57 13.114 2.394 24.296 15.802 24.848 17.25 0.704 37.47 0.172 55.296 0.172-0.004-20.064-0.004-43.786-0.004-63.792zM240 32c-24.852 0-23.214 0-48 0 0 19.698 0 44.334 0 63.99 24.836 0 23.192 0 48 0 0-19.704 0-44.338 0-63.99zM240 128c-24.804 0-23.138 0-48 0 0 19.612 0 43.774 0 63.636 24.498 0 22.828 0 48 0 0-19.748 0-43.904 0-63.636zM320 32c-24.846 0-23.208 0-48 0 0 19.698 0 44.344 0 64 24.836 0 23.196 0 48 0 0-19.702 0-44.348 0-64zM320 128c-24.808 0-23.142 0-48 0 0 19.614 0 43.342 0 63.204 24.498 0 22.822 0 48 0 0-19.746 0-43.472 0-63.204zM179.618 240.696c-2.070 27.608 35.618 63.762 69.55 66.542 47.308 3.878 78.54-33.9 83.676-66.542-51.314 0-102.274 0-153.226 0zM391.916 50.402c-5.166-12.58-26.244-19.55-39.916-17.8 0 19.518 0 43.714 0 63.398 15.31 0 37.202 0 53.208 0-4.394-13.718-7.912-32.506-13.292-45.598zM422.848 165.9c-3.028-10.728-6.282-23.694-9.7-34.3-0.454-1.416-2.59-3.594-3.886-3.6-16.256-0.064-38.944 0.13-55.278 0.164-0.462 0.002-0.922 0.268-1.93 0.578 0 5.69 0 13.784 0 19.574 0 12.5 0.084 27.002-0.050 39.498-0.038 3.222 0.958 4.356 4.274 4.32 13.996-0.152 34.442 0.106 48.438-0.116 15.308-0.24 22.252-11.532 18.132-26.118z" />
</font>
</defs>
</svg>
