<?xml version="1.0" standalone="no"?>
<!DOCTYPE svg PUBLIC "-//W3C//DTD SVG 1.1//EN" "http://www.w3.org/Graphics/SVG/1.1/DTD/svg11.dtd" >
<svg>
<metadata>
Created by FontForge 20090622 at Mon Feb 12 16:50:55 2018
 By deploy user
Copyright (c) 2017 by Tribeca Media. All rights reserved.
</metadata>
<defs>
<font id="ECIFont-Light" horiz-adv-x="0" >
  <font-face 
    font-family="ECIFont Light"
    font-weight="300"
    font-stretch="normal"
    units-per-em="1000"
    panose-1="2 0 4 0 0 0 0 0 0 0"
    ascent="800"
    descent="-200"
    x-height="526"
    cap-height="700"
    bbox="-288 -257 1417 1138"
    underline-thickness="50"
    underline-position="-50"
    unicode-range="U+000D-U+FB02"
  />
<missing-glyph horiz-adv-x="587" 
d="M40 700h507v-700h-507v700zM467 70v560h-347v-560h347z" />
    <glyph glyph-name="f_f_i" unicode="ffi" horiz-adv-x="923" 
d="M443 573q0 43 14.5 76t38 55.5t54 33.5t62.5 11q26 -1 50.5 -7.5t44.5 -19.5l-2 -70q-22 12 -45.5 19t-46.5 7q-39 0 -66 -24t-27 -72v-68h151v-62h-151v-452h-77v452h-68v62h68v59zM281 675q-38 1 -65.5 -24t-27.5 -72v-69h151v-61h-151v-449h-77v449h-68v61h68v59
q0 43 14 76t37.5 55.5t54 33.5t63.5 11q30 0 59.5 -9.5t53.5 -27.5l-32 -60q-38 27 -80 27zM789 624q-22 0 -36.5 15t-14.5 38t14.5 38t36.5 15t36.5 -15t14.5 -38t-14.5 -38t-36.5 -15zM751 526h77v-526h-77v526z" />
    <glyph glyph-name="f_f_l" unicode="ffl" horiz-adv-x="942" 
d="M443 583q0 37 13 68t35.5 53.5t53.5 35t67 12.5q26 -1 51 -7.5t45 -17.5l-2 -71q-37 27 -80 29q-23 0 -42 -8t-33.5 -23t-22.5 -36t-8 -46v-62h151v-60h-151v-450h-77v450h-68v60h68v73zM281 675q-38 1 -65.5 -24t-27.5 -72v-69h151v-61h-151v-449h-77v449h-68v61h68v59
q0 43 14 76t37.5 55.5t54 33.5t63.5 11q30 0 59.5 -9.5t53.5 -27.5l-32 -60q-38 27 -80 27zM842 742v-742h-78v742h78z" />
    <glyph glyph-name="fi" unicode="fi" horiz-adv-x="591" 
d="M111 573q0 43 14.5 76t38 55.5t54 33.5t62.5 11q26 -1 50.5 -7.5t44.5 -19.5l-2 -70q-22 12 -45.5 19t-46.5 7q-39 0 -66 -24t-27 -72v-68h151v-62h-151v-452h-77v452h-68v62h68v59zM457 624q-22 0 -36.5 15t-14.5 38t14.5 38t36.5 15t36.5 -15t14.5 -38t-14.5 -38
t-36.5 -15zM419 526h77v-526h-77v526z" />
    <glyph glyph-name="fl" unicode="fl" horiz-adv-x="610" 
d="M111 583q0 37 13 68t35.5 53.5t53.5 35t67 12.5q26 -1 51 -7.5t45 -17.5l-2 -71q-37 27 -80 29q-23 0 -42 -8t-33.5 -23t-22.5 -36t-8 -46v-62h151v-60h-151v-450h-77v450h-68v60h68v73zM510 742v-742h-78v742h78z" />
    <glyph glyph-name=".notdef" horiz-adv-x="587" 
d="M40 700h507v-700h-507v700zM467 70v560h-347v-560h347z" />
    <glyph glyph-name=".null" 
 />
    <glyph glyph-name=".null" 
 />
    <glyph glyph-name="nonmarkingreturn" unicode="&#xd;" horiz-adv-x="300" 
 />
    <glyph glyph-name="space" unicode=" " horiz-adv-x="300" 
 />
    <glyph glyph-name="Aacute.ss01" horiz-adv-x="769" 
d="M531 888l-124 -99h-75l120 135zM90 411q0 68 20 122t58 91.5t92.5 57.5t123.5 20t124 -20t93 -57.5t58.5 -91.5t20.5 -122v-411h-80v201h-430v-201h-80v411zM600 411q-1 103 -57.5 160.5t-157.5 57.5q-102 0 -158.5 -57.5t-56.5 -160.5v-136h430v136z" />
    <glyph glyph-name="Abreve" unicode="&#x102;" horiz-adv-x="718" 
d="M359 785q-27 0 -49.5 9.5t-39.5 26.5t-27 40.5t-11 52.5h55q2 -32 22 -52.5t50 -20.5t50 20.5t22 52.5h55q-1 -29 -11 -52.5t-27 -40.5t-39.5 -26.5t-49.5 -9.5zM548 179h-381l-78 -179h-85l314 700h83l313 -700h-87zM516 253l-159 360l-157 -360h316z" />
    <glyph glyph-name="Abreve.ss01" horiz-adv-x="769" 
d="M313 914q2 -32 22 -52.5t50 -20.5t50 20.5t22 52.5h55q-1 -29 -11 -52.5t-27 -40.5t-39.5 -26.5t-49.5 -9.5t-49.5 9.5t-39.5 26.5t-27 40.5t-11 52.5h55zM90 411q0 68 20 122t58 91.5t92.5 57.5t123.5 20t124 -20t93 -57.5t58.5 -91.5t20.5 -122v-411h-80v201h-430v-201
h-80v411zM600 411q-1 103 -57.5 160.5t-157.5 57.5q-102 0 -158.5 -57.5t-56.5 -160.5v-136h430v136z" />
    <glyph glyph-name="uni1EAE" unicode="&#x1eae;" horiz-adv-x="718" 
d="M397 945h-75l120 135l79 -36zM359 786q-27 0 -49.5 9.5t-39.5 26.5t-27 40.5t-11 52.5h55q2 -32 22 -52.5t50 -20.5t50 20.5t22 52.5h55q-1 -29 -11 -52.5t-27 -40.5t-39.5 -26.5t-49.5 -9.5zM548 179h-381l-78 -179h-85l314 700h83l313 -700h-87zM516 253l-159 360
l-157 -360h316z" />
    <glyph glyph-name="uni1EAE.ss01" horiz-adv-x="769" 
d="M547 1044l-124 -99h-75l120 135zM313 915q2 -32 22 -52.5t50 -20.5t50 20.5t22 52.5h55q-1 -29 -11 -52.5t-27 -40.5t-39.5 -26.5t-49.5 -9.5t-49.5 9.5t-39.5 26.5t-27 40.5t-11 52.5h55zM90 411q0 68 20 122t58 91.5t92.5 57.5t123.5 20t124 -20t93 -57.5t58.5 -91.5
t20.5 -122v-411h-80v201h-430v-201h-80v411zM600 411q-1 103 -57.5 160.5t-157.5 57.5q-102 0 -158.5 -57.5t-56.5 -160.5v-136h430v136z" />
    <glyph glyph-name="uni1EB6" unicode="&#x1eb6;" horiz-adv-x="718" 
d="M359 786q-27 0 -49.5 9.5t-39.5 26.5t-27 40.5t-11 52.5h55q2 -32 22 -52.5t50 -20.5t50 20.5t22 52.5h55q-1 -29 -11 -52.5t-27 -40.5t-39.5 -26.5t-49.5 -9.5zM627 0l-79 179h-381l-78 -179h-85l314 700h83l313 -700h-87zM516 253l-159 360l-157 -360h316zM356 -55
q22 0 36.5 -15t14.5 -38t-14.5 -38.5t-36.5 -15.5t-36.5 15.5t-14.5 38.5t14.5 38t36.5 15z" />
    <glyph glyph-name="uni1EB6.ss01" horiz-adv-x="769" 
d="M512 915q-1 -29 -11 -52.5t-27 -40.5t-39.5 -26.5t-49.5 -9.5t-49.5 9.5t-39.5 26.5t-27 40.5t-11 52.5h55q2 -32 22 -52.5t50 -20.5t50 20.5t22 52.5h55zM90 411q0 68 20 122t58 91.5t92.5 57.5t123.5 20t124 -20t93 -57.5t58.5 -91.5t20.5 -122v-411h-80v201h-430v-201
h-80v411zM600 411q-1 103 -57.5 160.5t-157.5 57.5q-102 0 -158.5 -57.5t-56.5 -160.5v-136h430v136zM385 -55q22 0 36.5 -15t14.5 -38t-14.5 -38.5t-36.5 -15.5t-36.5 15.5t-14.5 38.5t14.5 38t36.5 15z" />
    <glyph glyph-name="uni1EB0" unicode="&#x1eb0;" horiz-adv-x="718" 
d="M322 945l-124 99l79 36l120 -135h-75zM287 915q2 -32 22 -52.5t50 -20.5t50 20.5t22 52.5h55q-1 -29 -11 -52.5t-27 -40.5t-39.5 -26.5t-49.5 -9.5t-49.5 9.5t-39.5 26.5t-27 40.5t-11 52.5h55zM548 179h-381l-78 -179h-85l314 700h83l313 -700h-87zM516 253l-159 360
l-157 -360h316z" />
    <glyph glyph-name="uni1EB0.ss01" horiz-adv-x="769" 
d="M423 945h-75l-124 99l79 36zM313 915q2 -32 22 -52.5t50 -20.5t50 20.5t22 52.5h55q-1 -29 -11 -52.5t-27 -40.5t-39.5 -26.5t-49.5 -9.5t-49.5 9.5t-39.5 26.5t-27 40.5t-11 52.5h55zM90 411q0 68 20 122t58 91.5t92.5 57.5t123.5 20t124 -20t93 -57.5t58.5 -91.5
t20.5 -122v-411h-80v201h-430v-201h-80v411zM600 411q-1 103 -57.5 160.5t-157.5 57.5q-102 0 -158.5 -57.5t-56.5 -160.5v-136h430v136z" />
    <glyph glyph-name="uni1EB2" unicode="&#x1eb2;" horiz-adv-x="718" 
d="M364 1058q-22 0 -35 -12t-15 -32l-41 15q5 34 30 53.5t62 19.5q39 0 62.5 -23.5t23.5 -58.5q0 -29 -14.5 -51t-40.5 -42l-41 14q25 20 39 37.5t14 39.5q0 17 -11 28.5t-33 11.5zM359 786q-27 0 -49.5 9.5t-39.5 26.5t-27 40.5t-11 52.5h55q2 -32 22 -52.5t50 -20.5
t50 20.5t22 52.5h55q-1 -29 -11 -52.5t-27 -40.5t-39.5 -26.5t-49.5 -9.5zM548 179h-381l-78 -179h-85l314 700h83l313 -700h-87zM516 253l-159 360l-157 -360h316z" />
    <glyph glyph-name="uni1EB2.ss01" horiz-adv-x="769" 
d="M299 1029q5 34 30 53.5t62 19.5q39 0 62.5 -23.5t23.5 -58.5q0 -29 -14.5 -51t-40.5 -42l-41 14q25 20 39 37.5t14 39.5q0 17 -11 28.5t-33 11.5t-35 -12t-15 -32zM313 915q2 -32 22 -52.5t50 -20.5t50 20.5t22 52.5h55q-1 -29 -11 -52.5t-27 -40.5t-39.5 -26.5
t-49.5 -9.5t-49.5 9.5t-39.5 26.5t-27 40.5t-11 52.5h55zM90 411q0 68 20 122t58 91.5t92.5 57.5t123.5 20t124 -20t93 -57.5t58.5 -91.5t20.5 -122v-411h-80v201h-430v-201h-80v411zM600 411q-1 103 -57.5 160.5t-157.5 57.5q-102 0 -158.5 -57.5t-56.5 -160.5v-136h430
v136z" />
    <glyph glyph-name="uni1EB4" unicode="&#x1eb4;" horiz-adv-x="718" 
d="M303 996q-20 0 -31 -14t-11 -40h-53q0 112 83 112q21 0 37 -9.5t29.5 -21t26.5 -21t28 -9.5q43 0 43 53h53q0 -54 -21.5 -82.5t-61.5 -28.5q-22 0 -38.5 9.5t-30 21t-26 21t-27.5 9.5zM359 842q30 0 50 20.5t22 52.5h55q-1 -29 -11 -52.5t-27 -40.5t-39.5 -26.5
t-49.5 -9.5t-49.5 9.5t-39.5 26.5t-27 40.5t-11 52.5h55q2 -32 22 -52.5t50 -20.5zM548 179h-381l-78 -179h-85l314 700h83l313 -700h-87zM516 253l-159 360l-157 -360h316z" />
    <glyph glyph-name="uni1EB4.ss01" horiz-adv-x="769" 
d="M534 1046q0 -54 -21.5 -82.5t-61.5 -28.5q-22 0 -38.5 9.5t-30 21t-26 21t-27.5 9.5q-20 0 -31 -14t-11 -40h-53q0 112 83 112q21 0 37 -9.5t29.5 -21t26.5 -21t28 -9.5q43 0 43 53h53zM313 915q2 -32 22 -52.5t50 -20.5t50 20.5t22 52.5h55q-1 -29 -11 -52.5t-27 -40.5
t-39.5 -26.5t-49.5 -9.5t-49.5 9.5t-39.5 26.5t-27 40.5t-11 52.5h55zM90 411q0 68 20 122t58 91.5t92.5 57.5t123.5 20t124 -20t93 -57.5t58.5 -91.5t20.5 -122v-411h-80v201h-430v-201h-80v411zM600 411q-1 103 -57.5 160.5t-157.5 57.5q-102 0 -158.5 -57.5t-56.5 -160.5
v-136h430v136z" />
    <glyph glyph-name="Acircumflex" unicode="&#xc2;" horiz-adv-x="718" 
d="M287 790h-68l102 129h76l102 -129h-68l-72 91zM548 179h-381l-78 -179h-85l314 700h83l313 -700h-87zM516 253l-159 360l-157 -360h316z" />
    <glyph glyph-name="Acircumflex.ss01" horiz-adv-x="769" 
d="M423 919l102 -129h-68l-72 91l-72 -91h-68l102 129h76zM90 411q0 68 20 122t58 91.5t92.5 57.5t123.5 20t124 -20t93 -57.5t58.5 -91.5t20.5 -122v-411h-80v201h-430v-201h-80v411zM600 411q-1 103 -57.5 160.5t-157.5 57.5q-102 0 -158.5 -57.5t-56.5 -160.5v-136h430
v136z" />
    <glyph glyph-name="uni1EA4" unicode="&#x1ea4;" horiz-adv-x="718" 
d="M520 891h-64l120 135l69 -36zM287 792h-68l102 129h76l102 -129h-68l-72 91zM548 179h-381l-78 -179h-85l314 700h83l313 -700h-87zM516 253l-159 360l-157 -360h316z" />
    <glyph glyph-name="uni1EA4.ss01" horiz-adv-x="769" 
d="M671 990l-125 -99h-64l120 135zM423 921l102 -129h-68l-72 91l-72 -91h-68l102 129h76zM90 411q0 68 20 122t58 91.5t92.5 57.5t123.5 20t124 -20t93 -57.5t58.5 -91.5t20.5 -122v-411h-80v201h-430v-201h-80v411zM600 411q-1 103 -57.5 160.5t-157.5 57.5
q-102 0 -158.5 -57.5t-56.5 -160.5v-136h430v136z" />
    <glyph glyph-name="uni1EAC" unicode="&#x1eac;" horiz-adv-x="718" 
d="M287 792h-68l102 129h76l102 -129h-68l-72 91zM627 0l-79 179h-381l-78 -179h-85l314 700h83l313 -700h-87zM516 253l-159 360l-157 -360h316zM356 -55q22 0 36.5 -15t14.5 -38t-14.5 -38.5t-36.5 -15.5t-36.5 15.5t-14.5 38.5t14.5 38t36.5 15z" />
    <glyph glyph-name="uni1EAC.ss01" horiz-adv-x="769" 
d="M525 792h-68l-72 91l-72 -91h-68l102 129h76zM90 411q0 68 20 122t58 91.5t92.5 57.5t123.5 20t124 -20t93 -57.5t58.5 -91.5t20.5 -122v-411h-80v201h-430v-201h-80v411zM600 411q-1 103 -57.5 160.5t-157.5 57.5q-102 0 -158.5 -57.5t-56.5 -160.5v-136h430v136z
M385 -55q22 0 36.5 -15t14.5 -38t-14.5 -38.5t-36.5 -15.5t-36.5 15.5t-14.5 38.5t14.5 38t36.5 15z" />
    <glyph glyph-name="uni1EA6" unicode="&#x1ea6;" horiz-adv-x="718" 
d="M516 877l-124 99l68 36l120 -135h-64zM287 792h-68l102 129h76l102 -129h-68l-72 91zM548 179h-381l-78 -179h-85l314 700h83l313 -700h-87zM516 253l-159 360l-157 -360h316z" />
    <glyph glyph-name="uni1EA6.ss01" horiz-adv-x="769" 
d="M606 877h-64l-124 99l68 36zM423 921l102 -129h-68l-72 91l-72 -91h-68l102 129h76zM90 411q0 68 20 122t58 91.5t92.5 57.5t123.5 20t124 -20t93 -57.5t58.5 -91.5t20.5 -122v-411h-80v201h-430v-201h-80v411zM600 411q-1 103 -57.5 160.5t-157.5 57.5
q-102 0 -158.5 -57.5t-56.5 -160.5v-136h430v136z" />
    <glyph glyph-name="uni1EA8" unicode="&#x1ea8;" horiz-adv-x="718" 
d="M472 1016q-22 0 -35 -12t-15 -32l-41 15q5 34 30 53.5t62 19.5q39 0 62.5 -23.5t23.5 -58.5q0 -29 -14.5 -51t-40.5 -42l-41 14q25 20 39 37.5t14 39.5q0 17 -11 28.5t-33 11.5zM287 792h-68l102 129h76l102 -129h-68l-72 91zM548 179h-381l-78 -179h-85l314 700h83
l313 -700h-87zM516 253l-159 360l-157 -360h316z" />
    <glyph glyph-name="uni1EA8.ss01" horiz-adv-x="769" 
d="M407 987q5 34 30 53.5t62 19.5q39 0 62.5 -23.5t23.5 -58.5q0 -29 -14.5 -51t-40.5 -42l-41 14q25 20 39 37.5t14 39.5q0 17 -11 28.5t-33 11.5t-35 -12t-15 -32zM423 921l102 -129h-68l-72 91l-72 -91h-68l102 129h76zM90 411q0 68 20 122t58 91.5t92.5 57.5t123.5 20
t124 -20t93 -57.5t58.5 -91.5t20.5 -122v-411h-80v201h-430v-201h-80v411zM600 411q-1 103 -57.5 160.5t-157.5 57.5q-102 0 -158.5 -57.5t-56.5 -160.5v-136h430v136z" />
    <glyph glyph-name="uni1EAA" unicode="&#x1eaa;" horiz-adv-x="718" 
d="M301 995q-42 0 -42 -53h-53q0 112 83 112q21 0 37 -9.5t30 -21t27 -21t28 -9.5q42 0 42 53h53q0 -111 -83 -111q-22 0 -38.5 9.5t-30 20.5l-26 20.5t-27.5 9.5zM397 921l102 -129h-68l-72 91l-72 -91h-68l102 129h76zM548 179h-381l-78 -179h-85l314 700h83l313 -700h-87
zM516 253l-159 360l-157 -360h316z" />
    <glyph glyph-name="uni1EAA.ss01" horiz-adv-x="769" 
d="M532 1046q0 -111 -83 -111q-22 0 -38.5 9.5t-30 20.5l-26 20.5t-27.5 9.5q-42 0 -42 -53h-53q0 112 83 112q21 0 37 -9.5t30 -21t27 -21t28 -9.5q42 0 42 53h53zM423 921l102 -129h-68l-72 91l-72 -91h-68l102 129h76zM90 411q0 68 20 122t58 91.5t92.5 57.5t123.5 20
t124 -20t93 -57.5t58.5 -91.5t20.5 -122v-411h-80v201h-430v-201h-80v411zM600 411q-1 103 -57.5 160.5t-157.5 57.5q-102 0 -158.5 -57.5t-56.5 -160.5v-136h430v136z" />
    <glyph glyph-name="uni0200" unicode="&#x200;" horiz-adv-x="718" 
d="M262 789l-93 106l67 33l91 -139h-65zM409 789l-93 106l67 33l91 -139h-65zM548 179h-381l-78 -179h-85l314 700h83l313 -700h-87zM516 253l-159 360l-157 -360h316z" />
    <glyph glyph-name="uni0200.ss01" horiz-adv-x="769" 
d="M353 789h-65l-93 106l67 33zM500 789h-65l-93 106l67 33zM90 411q0 68 20 122t58 91.5t92.5 57.5t123.5 20t124 -20t93 -57.5t58.5 -91.5t20.5 -122v-411h-80v201h-430v-201h-80v411zM600 411q-1 103 -57.5 160.5t-157.5 57.5q-102 0 -158.5 -57.5t-56.5 -160.5v-136h430
v136z" />
    <glyph glyph-name="Adieresis" unicode="&#xc4;" horiz-adv-x="718" 
d="M276 802q-20 0 -33.5 14.5t-13.5 34.5q0 22 13.5 36t33.5 14t34 -14t14 -36q0 -20 -14 -34.5t-34 -14.5zM443 802q-20 0 -34 14.5t-14 34.5q0 22 14 36t34 14t33.5 -14t13.5 -36q0 -20 -13.5 -34.5t-33.5 -14.5zM548 179h-381l-78 -179h-85l314 700h83l313 -700h-87z
M516 253l-159 360l-157 -360h316z" />
    <glyph glyph-name="Adieresis.ss01" horiz-adv-x="769" 
d="M302 901q20 0 34 -14t14 -36q0 -20 -14 -34.5t-34 -14.5t-33.5 14.5t-13.5 34.5q0 22 13.5 36t33.5 14zM469 901q20 0 33.5 -14t13.5 -36q0 -20 -13.5 -34.5t-33.5 -14.5t-34 14.5t-14 34.5q0 22 14 36t34 14zM90 411q0 68 20 122t58 91.5t92.5 57.5t123.5 20t124 -20
t93 -57.5t58.5 -91.5t20.5 -122v-411h-80v201h-430v-201h-80v411zM600 411q-1 103 -57.5 160.5t-157.5 57.5q-102 0 -158.5 -57.5t-56.5 -160.5v-136h430v136z" />
    <glyph glyph-name="uni1EA0" unicode="&#x1ea0;" horiz-adv-x="718" 
d="M627 0l-79 179h-381l-78 -179h-85l314 700h83l313 -700h-87zM516 253l-159 360l-157 -360h316zM356 -55q22 0 36.5 -15t14.5 -38t-14.5 -38.5t-36.5 -15.5t-36.5 15.5t-14.5 38.5t14.5 38t36.5 15z" />
    <glyph glyph-name="uni1EA0.ss01" horiz-adv-x="769" 
d="M90 411q0 68 20 122t58 91.5t92.5 57.5t123.5 20t124 -20t93 -57.5t58.5 -91.5t20.5 -122v-411h-80v201h-430v-201h-80v411zM600 411q-1 103 -57.5 160.5t-157.5 57.5q-102 0 -158.5 -57.5t-56.5 -160.5v-136h430v136zM385 -55q22 0 36.5 -15t14.5 -38t-14.5 -38.5
t-36.5 -15.5t-36.5 15.5t-14.5 38.5t14.5 38t36.5 15z" />
    <glyph glyph-name="Agrave" unicode="&#xc0;" horiz-adv-x="718" 
d="M334 789l-125 99l80 36l120 -135h-75zM548 179h-381l-78 -179h-85l314 700h83l313 -700h-87zM516 253l-159 360l-157 -360h316z" />
    <glyph glyph-name="Agrave.ss01" horiz-adv-x="769" 
d="M435 789h-75l-125 99l80 36zM90 411q0 68 20 122t58 91.5t92.5 57.5t123.5 20t124 -20t93 -57.5t58.5 -91.5t20.5 -122v-411h-80v201h-430v-201h-80v411zM600 411q-1 103 -57.5 160.5t-157.5 57.5q-102 0 -158.5 -57.5t-56.5 -160.5v-136h430v136z" />
    <glyph glyph-name="uni1EA2" unicode="&#x1ea2;" horiz-adv-x="718" 
d="M357 885q-22 0 -35 -12t-15 -32l-41 15q5 34 30 53.5t61 19.5q40 0 63.5 -23.5t23.5 -58.5q0 -29 -14.5 -51t-40.5 -42l-41 14q25 20 39 37.5t14 39.5q0 17 -11 28.5t-33 11.5zM548 179h-381l-78 -179h-85l314 700h83l313 -700h-87zM516 253l-159 360l-157 -360h316z" />
    <glyph glyph-name="uni1EA2.ss01" horiz-adv-x="769" 
d="M292 856q5 34 30 53.5t61 19.5q40 0 63.5 -23.5t23.5 -58.5q0 -29 -14.5 -51t-40.5 -42l-41 14q25 20 39 37.5t14 39.5q0 17 -11 28.5t-33 11.5t-35 -12t-15 -32zM90 411q0 68 20 122t58 91.5t92.5 57.5t123.5 20t124 -20t93 -57.5t58.5 -91.5t20.5 -122v-411h-80v201
h-430v-201h-80v411zM600 411q-1 103 -57.5 160.5t-157.5 57.5q-102 0 -158.5 -57.5t-56.5 -160.5v-136h430v136z" />
    <glyph glyph-name="uni0202" unicode="&#x202;" horiz-adv-x="718" 
d="M359 859q-30 0 -50 -20.5t-22 -52.5h-55q1 28 11 52t27 41t39.5 26.5t49.5 9.5t49.5 -9.5t39.5 -26.5t27 -41t11 -52h-55q-2 32 -22 52.5t-50 20.5zM548 179h-381l-78 -179h-85l314 700h83l313 -700h-87zM516 253l-159 360l-157 -360h316z" />
    <glyph glyph-name="uni0202.ss01" horiz-adv-x="769" 
d="M258 786q1 28 11 52t27 41t39.5 26.5t49.5 9.5t49.5 -9.5t39.5 -26.5t27 -41t11 -52h-55q-2 32 -22 52.5t-50 20.5t-50 -20.5t-22 -52.5h-55zM90 411q0 68 20 122t58 91.5t92.5 57.5t123.5 20t124 -20t93 -57.5t58.5 -91.5t20.5 -122v-411h-80v201h-430v-201h-80v411z
M600 411q-1 103 -57.5 160.5t-157.5 57.5q-102 0 -158.5 -57.5t-56.5 -160.5v-136h430v136z" />
    <glyph glyph-name="Amacron" unicode="&#x100;" horiz-adv-x="718" 
d="M480 821h-241v59h241v-59zM548 179h-381l-78 -179h-85l314 700h83l313 -700h-87zM516 253l-159 360l-157 -360h316z" />
    <glyph glyph-name="Amacron.ss01" horiz-adv-x="769" 
d="M506 880v-59h-241v59h241zM90 411q0 68 20 122t58 91.5t92.5 57.5t123.5 20t124 -20t93 -57.5t58.5 -91.5t20.5 -122v-411h-80v201h-430v-201h-80v411zM600 411q-1 103 -57.5 160.5t-157.5 57.5q-102 0 -158.5 -57.5t-56.5 -160.5v-136h430v136z" />
    <glyph glyph-name="Aogonek" unicode="&#x104;" horiz-adv-x="718" 
d="M693 0q-30 -42 -41.5 -68.5t-11.5 -46.5q0 -18 10 -28t26 -10q14 0 27.5 9t25.5 24l25 -30q-15 -23 -38 -36.5t-48 -13.5q-29 0 -51.5 18t-22.5 56q0 26 14 56t41 70h-21l-80 179h-380l-79 -179h-84l313 700h83l313 -700h-21zM197 252h322l-161 361z" />
    <glyph glyph-name="Aogonek.ss01" horiz-adv-x="774" 
d="M90 411q0 68 20 122t58 91.5t92.5 57.5t123.5 20t124 -20t93 -57.5t58.5 -91.5t20.5 -122v-411h-15q-31 -42 -42.5 -68.5t-11.5 -46.5q0 -18 10 -28t25 -10t28.5 9t25.5 24l26 -30q-17 -23 -39.5 -36.5t-47.5 -13.5q-29 0 -51 18t-22 56q0 26 13.5 56t41.5 70h-21v202
h-430v-202h-80v411zM600 411q-1 103 -57.5 160.5t-157.5 57.5q-102 0 -158.5 -57.5t-56.5 -160.5v-136h430v136z" />
    <glyph glyph-name="Aring" unicode="&#xc5;" horiz-adv-x="718" 
d="M548 179h-381l-78 -179h-85l303 676q-29 14 -47 41.5t-18 61.5q0 24 9.5 45t25.5 37t37.5 25.5t45.5 9.5t46 -9.5t38 -25.5t25.5 -37t9.5 -45q0 -34 -18.5 -62t-48.5 -42l302 -675h-87zM282 779q0 -31 23 -52.5t55 -21.5t55.5 21.5t23.5 52.5q0 15 -6.5 29t-17 24t-25 16
t-30.5 6q-32 0 -55 -22t-23 -53zM516 253l-159 360l-157 -360h316z" />
    <glyph glyph-name="Aring.ss01" horiz-adv-x="769" 
d="M385 966q24 0 45 -9t36.5 -25t25 -36.5t9.5 -43.5t-9.5 -43.5t-25 -36t-36.5 -24.5t-45 -9t-44.5 9t-36.5 24.5t-25 36t-9 43.5t9 43.5t25 36.5t36.5 25t44.5 9zM385 926q-32 0 -54.5 -22t-22.5 -52t22.5 -51.5t54.5 -21.5t55 21.5t23 51.5t-23 52t-55 22zM90 411
q0 68 20 122t58 91.5t92.5 57.5t123.5 20t124 -20t93 -57.5t58.5 -91.5t20.5 -122v-411h-80v201h-430v-201h-80v411zM600 411q-1 103 -57.5 160.5t-157.5 57.5q-102 0 -158.5 -57.5t-56.5 -160.5v-136h430v136z" />
    <glyph glyph-name="Aringacute" unicode="&#x1fa;" horiz-adv-x="718" 
d="M387 1003h-75l120 135l79 -36zM359 739q-24 0 -44.5 9t-36.5 24.5t-25 36t-9 43.5t9 43.5t25 36.5t36.5 25t44.5 9t45 -9t36.5 -25t25 -36.5t9.5 -43.5t-9.5 -43.5t-25 -36t-36.5 -24.5t-45 -9zM359 926q-32 0 -54.5 -22t-22.5 -52t22.5 -51.5t54.5 -21.5t55 21.5
t23 51.5t-23 52t-55 22zM548 179h-381l-78 -179h-85l314 700h83l313 -700h-87zM516 253l-159 360l-157 -360h316z" />
    <glyph glyph-name="Aringacute.ss01" horiz-adv-x="769" 
d="M537 1102l-124 -99h-75l120 135zM385 966q24 0 45 -9t36.5 -25t25 -36.5t9.5 -43.5t-9.5 -43.5t-25 -36t-36.5 -24.5t-45 -9t-44.5 9t-36.5 24.5t-25 36t-9 43.5t9 43.5t25 36.5t36.5 25t44.5 9zM385 926q-32 0 -54.5 -22t-22.5 -52t22.5 -51.5t54.5 -21.5t55 21.5
t23 51.5t-23 52t-55 22zM90 411q0 68 20 122t58 91.5t92.5 57.5t123.5 20t124 -20t93 -57.5t58.5 -91.5t20.5 -122v-411h-80v201h-430v-201h-80v411zM600 411q-1 103 -57.5 160.5t-157.5 57.5q-102 0 -158.5 -57.5t-56.5 -160.5v-136h430v136z" />
    <glyph glyph-name="Atilde" unicode="&#xc3;" horiz-adv-x="718" 
d="M305 859q-43 0 -43 -53h-52q0 112 83 112q21 0 37 -9.5t29.5 -21t26.5 -21t28 -9.5q43 0 43 53h52q0 -112 -83 -112q-22 0 -38 9.5t-29.5 21t-26 21t-27.5 9.5zM548 179h-381l-78 -179h-85l314 700h83l313 -700h-87zM516 253l-159 360l-157 -360h316z" />
    <glyph glyph-name="Atilde.ss01" horiz-adv-x="769" 
d="M535 910q0 -112 -83 -112q-22 0 -38 9.5t-29.5 21t-26 21t-27.5 9.5q-43 0 -43 -53h-52q0 112 83 112q21 0 37 -9.5t29.5 -21t26.5 -21t28 -9.5q43 0 43 53h52zM90 411q0 68 20 122t58 91.5t92.5 57.5t123.5 20t124 -20t93 -57.5t58.5 -91.5t20.5 -122v-411h-80v201h-430
v-201h-80v411zM600 411q-1 103 -57.5 160.5t-157.5 57.5q-102 0 -158.5 -57.5t-56.5 -160.5v-136h430v136z" />
    <glyph glyph-name="AE" unicode="&#xc6;" horiz-adv-x="1026" 
d="M969 74v-74h-488v192h-281l-111 -192h-85l413 700h539v-74h-395v-235h354v-73h-354v-244h408zM481 257v375h-25l-218 -375h243z" />
    <glyph glyph-name="AEacute" unicode="&#x1fc;" horiz-adv-x="1026" 
d="M643 789h-75l120 135l79 -36zM969 74v-74h-488v192h-281l-111 -192h-85l413 700h539v-74h-395v-235h354v-73h-354v-244h408zM481 257v375h-25l-218 -375h243z" />
    <glyph glyph-name="B" unicode="B" horiz-adv-x="716" 
d="M401 700q106 0 166.5 -46t60.5 -129q0 -62 -34.5 -103.5t-95.5 -54.5q76 -11 118 -58t42 -119q0 -90 -66.5 -140t-186.5 -50h-299v700h295zM397 397q71 0 110 30t39 86q0 54 -39 83.5t-110 29.5h-211v-229h211zM397 74q86 -1 133 32t47 94q0 59 -47 91.5t-133 31.5h-211
v-249h211z" />
    <glyph glyph-name="C" unicode="C" horiz-adv-x="700" 
d="M613 542q-41 41 -95 64t-112 23q-59 0 -111 -21.5t-90.5 -59t-61 -88.5t-22.5 -109t22.5 -108.5t61 -88.5t90.5 -60t111 -22q58 0 111.5 22.5t95.5 61.5l49 -53q-52 -49 -119.5 -77.5t-140.5 -28.5q-76 0 -142 27.5t-115 75.5t-77 112.5t-28 138.5q0 73 28.5 137.5
t78 111.5t116 74.5t142.5 27.5q72 0 138.5 -27t117.5 -75l-48 -58v0z" />
    <glyph glyph-name="Cacute" unicode="&#x106;" horiz-adv-x="700" 
d="M511 888l-124 -99h-75l120 135zM613 542q-41 41 -95 64t-112 23q-59 0 -111 -21.5t-90.5 -59t-61 -88.5t-22.5 -109t22.5 -108.5t61 -88.5t90.5 -60t111 -22q58 0 111.5 22.5t95.5 61.5l49 -53q-52 -49 -119.5 -77.5t-140.5 -28.5q-76 0 -142 27.5t-115 75.5t-77 112.5
t-28 138.5q0 73 28.5 137.5t78 111.5t116 74.5t142.5 27.5q72 0 138.5 -27t117.5 -75z" />
    <glyph glyph-name="Ccaron" unicode="&#x10c;" horiz-adv-x="700" 
d="M291 919l72 -94l72 94h73l-104 -135h-82l-104 135h73zM613 542q-41 41 -95 64t-112 23q-59 0 -111 -21.5t-90.5 -59t-61 -88.5t-22.5 -109t22.5 -108.5t61 -88.5t90.5 -60t111 -22q58 0 111.5 22.5t95.5 61.5l49 -53q-52 -49 -119.5 -77.5t-140.5 -28.5q-76 0 -142 27.5
t-115 75.5t-77 112.5t-28 138.5q0 73 28.5 137.5t78 111.5t116 74.5t142.5 27.5q72 0 138.5 -27t117.5 -75z" />
    <glyph glyph-name="Ccedilla" unicode="&#xc7;" horiz-adv-x="700" 
d="M406 -50q31 -4 51 -23.5t20 -51.5q1 -41 -27 -65.5t-70 -24.5q-23 0 -44.5 7t-36.5 18l17 41q12 -9 28 -14.5t31 -5.5q25 0 39.5 14.5t13.5 33.5q0 17 -13 30t-37 13q-8 0 -17 -1t-16 -2l34 79q-72 4 -133.5 33t-107.5 76.5t-72 110t-26 133.5q0 73 28.5 137.5t78 111.5
t116 74.5t142.5 27.5q72 0 138.5 -27t117.5 -75l-48 -58q-41 41 -95 64t-112 23q-59 0 -111 -21.5t-90.5 -59t-61 -88.5t-22.5 -109t22.5 -108.5t61 -88.5t90.5 -60t111 -22q58 0 111.5 22.5t95.5 61.5l49 -53q-48 -45 -108.5 -72.5t-126.5 -32.5l-21 -48v0z" />
    <glyph glyph-name="uni1E08" unicode="&#x1e08;" horiz-adv-x="700" 
d="M393 789h-75l120 135l79 -36zM387 -57q31 -4 51 -23.5t20 -51.5q1 -41 -27 -65.5t-70 -24.5q-23 0 -44.5 7t-36.5 18l17 41q12 -9 28 -14.5t31 -5.5q25 0 39.5 14.5t13.5 33.5q0 17 -13 30t-37 13q-8 0 -17 -1t-16 -2l37 87q-69 7 -128 36.5t-102.5 76.5t-68 108.5
t-24.5 130.5q0 73 28.5 137.5t78 111.5t116 74.5t142.5 27.5q72 0 138.5 -27t117.5 -75l-48 -58q-41 41 -95 64t-112 23q-59 0 -111 -21.5t-90.5 -59t-61 -88.5t-22.5 -109t22.5 -108.5t61 -88.5t90.5 -60t111 -22q58 0 111.5 22.5t95.5 61.5l49 -53q-51 -48 -115.5 -76
t-135.5 -30z" />
    <glyph glyph-name="Ccircumflex" unicode="&#x108;" horiz-adv-x="700" 
d="M403 919l102 -129h-68l-72 91l-72 -91h-68l102 129h76zM613 542q-41 41 -95 64t-112 23q-59 0 -111 -21.5t-90.5 -59t-61 -88.5t-22.5 -109t22.5 -108.5t61 -88.5t90.5 -60t111 -22q58 0 111.5 22.5t95.5 61.5l49 -53q-52 -49 -119.5 -77.5t-140.5 -28.5q-76 0 -142 27.5
t-115 75.5t-77 112.5t-28 138.5q0 73 28.5 137.5t78 111.5t116 74.5t142.5 27.5q72 0 138.5 -27t117.5 -75z" />
    <glyph glyph-name="Cdotaccent" unicode="&#x10a;" horiz-adv-x="700" 
d="M365 904q22 0 36.5 -15t14.5 -38t-14.5 -38t-36.5 -15t-36.5 15t-14.5 38t14.5 38t36.5 15zM613 542q-41 41 -95 64t-112 23q-59 0 -111 -21.5t-90.5 -59t-61 -88.5t-22.5 -109t22.5 -108.5t61 -88.5t90.5 -60t111 -22q58 0 111.5 22.5t95.5 61.5l49 -53
q-52 -49 -119.5 -77.5t-140.5 -28.5q-76 0 -142 27.5t-115 75.5t-77 112.5t-28 138.5q0 73 28.5 137.5t78 111.5t116 74.5t142.5 27.5q72 0 138.5 -27t117.5 -75z" />
    <glyph glyph-name="D" unicode="D" horiz-adv-x="789" 
d="M389 700q76 0 142 -26.5t114.5 -73.5t76 -111t27.5 -139t-28 -139t-76.5 -111t-115 -73.5t-143.5 -26.5h-280v700h283zM390 74q58 0 109 21t88.5 57.5t59 87t21.5 109.5t-22 110t-60 88t-89 58t-110 21h-201v-552h204z" />
    <glyph glyph-name="uni01C4" unicode="&#x1c4;" horiz-adv-x="1449" 
d="M1050 919l72 -94l72 94h73l-104 -135h-82l-104 135h73zM389 700q76 0 142 -26.5t114.5 -73.5t76 -111t27.5 -139t-28 -139t-76.5 -111t-115 -73.5t-143.5 -26.5h-280v700h283zM1401 700v-62l-464 -564h469l-1 -74h-573v62l464 564h-451v74h556zM390 74q58 0 109 21
t88.5 57.5t59 87t21.5 109.5t-22 110t-60 88t-89 58t-110 21h-201v-552h204z" />
    <glyph glyph-name="uni01C4.ss01" horiz-adv-x="1449" 
d="M1081 784l-104 135h73l72 -94l72 94h73l-104 -135h-82zM389 700q76 0 142 -26.5t114.5 -73.5t76 -111t27.5 -139t-28 -139t-76.5 -111t-115 -73.5t-143.5 -26.5h-280v700h283zM1406 74l-1 -74h-573v62l210 255h-143v67h198l199 242h-451v74h556v-62l-212 -258h142v-68
h-198l-196 -238h469zM390 74q58 0 109 21t88.5 57.5t59 87t21.5 109.5t-22 110t-60 88t-89 58t-110 21h-201v-552h204z" />
    <glyph glyph-name="Eth" unicode="&#xd0;" horiz-adv-x="801" 
d="M401 700q76 0 142 -26.5t114.5 -73.5t76 -111t27.5 -139t-28 -139t-76.5 -111t-115 -73.5t-143.5 -26.5h-280v326h-118v51h118v323h283zM402 74q58 0 109 21t88.5 57.5t59 87t21.5 109.5t-22 110t-60 88t-89 58t-110 21h-201v-249h223v-51h-223v-252h204z" />
    <glyph glyph-name="Dcaron" unicode="&#x10e;" horiz-adv-x="789" 
d="M299 919l72 -94l72 94h73l-104 -135h-82l-104 135h73zM389 700q76 0 142 -26.5t114.5 -73.5t76 -111t27.5 -139t-28 -139t-76.5 -111t-115 -73.5t-143.5 -26.5h-280v700h283zM390 74q58 0 109 21t88.5 57.5t59 87t21.5 109.5t-22 110t-60 88t-89 58t-110 21h-201v-552
h204z" />
    <glyph glyph-name="Dcroat" unicode="&#x110;" horiz-adv-x="801" 
d="M401 700q76 0 142 -26.5t114.5 -73.5t76 -111t27.5 -139t-28 -139t-76.5 -111t-115 -73.5t-143.5 -26.5h-280v326h-118v51h118v323h283zM402 74q58 0 109 21t88.5 57.5t59 87t21.5 109.5t-22 110t-60 88t-89 58t-110 21h-201v-249h223v-51h-223v-252h204z" />
    <glyph glyph-name="uni1E0C" unicode="&#x1e0c;" horiz-adv-x="789" 
d="M389 700q76 0 142 -26.5t114.5 -73.5t76 -111t27.5 -139t-28 -139t-76.5 -111t-115 -73.5t-143.5 -26.5h-280v700h283zM390 74q58 0 109 21t88.5 57.5t59 87t21.5 109.5t-22 110t-60 88t-89 58t-110 21h-201v-552h204zM403 -56q22 0 36.5 -15t14.5 -38t-14.5 -38
t-36.5 -15t-36.5 15t-14.5 38t14.5 38t36.5 15z" />
    <glyph glyph-name="uni1E0E" unicode="&#x1e0e;" horiz-adv-x="789" 
d="M389 700q76 0 142 -26.5t114.5 -73.5t76 -111t27.5 -139t-28 -139t-76.5 -111t-115 -73.5t-143.5 -26.5h-280v700h283zM390 74q58 0 109 21t88.5 57.5t59 87t21.5 109.5t-22 110t-60 88t-89 58t-110 21h-201v-552h204zM523 -63v-59h-241v59h241z" />
    <glyph glyph-name="uni01C5" unicode="&#x1c5;" horiz-adv-x="1316" 
d="M981 745l72 -94l72 94h73l-104 -135h-82l-104 135h73zM389 700q76 0 142 -26.5t114.5 -73.5t76 -111t27.5 -139t-28 -139t-76.5 -111t-115 -73.5t-143.5 -26.5h-280v700h283zM390 74q58 0 109 21t88.5 57.5t59 87t21.5 109.5t-22 110t-60 88t-89 58t-110 21h-201v-552
h204zM1265 526v-58l-330 -402l338 -1v-66l-432 1v58l330 402l-321 1v65h415z" />
    <glyph glyph-name="uni01C5.ss01" horiz-adv-x="1316" 
d="M1018 610l-104 135h73l72 -94l72 94h73l-104 -135h-82zM389 700q76 0 142 -26.5t114.5 -73.5t76 -111t27.5 -139t-28 -139t-76.5 -111t-115 -73.5t-143.5 -26.5h-280v700h283zM390 74q58 0 109 21t88.5 57.5t59 87t21.5 109.5t-22 110t-60 88t-89 58t-110 21h-201v-552
h204zM1273 65v-66l-432 1v58l145 177h-107v64h159l132 161l-320 1v65l415 -1v-57l-142 -173h106v-64h-158l-136 -166h338z" />
    <glyph glyph-name="E" unicode="E" horiz-adv-x="651" 
d="M581 700v-74h-395v-235h353v-73h-353v-244h408v-74h-488v700h475z" />
    <glyph glyph-name="E.ss01" horiz-adv-x="566" 
d="M320 329q-41 0 -75.5 -10t-59.5 -27.5t-39 -42t-14 -52.5q0 -29 14.5 -52.5t39.5 -40.5t59 -26t74 -9q24 0 51 4t53 11t49.5 16t40.5 18l32 -64q-20 -12 -47 -22.5t-57.5 -18t-62.5 -12t-62 -4.5q-58 0 -106.5 14.5t-84 40t-55 61t-19.5 77.5q0 33 12.5 62.5t35 53.5
t53.5 40.5t69 23.5q-30 6 -55 21t-43.5 35.5t-28.5 46t-10 54.5q0 39 17.5 71t49.5 55.5t76 36.5t97 13q24 0 50.5 -3t52 -8.5t48.5 -13.5t41 -17l-28 -64q-32 16 -76.5 24.5t-83.5 8.5q-36 0 -67 -7.5t-53.5 -22t-35.5 -35t-13 -46.5q0 -25 12 -46t33 -36.5t50.5 -24.5
t65.5 -9h129v-74h-129v0z" />
    <glyph glyph-name="Eacute" unicode="&#xc9;" horiz-adv-x="651" 
d="M497 888l-124 -99h-75l120 135zM581 700v-74h-395v-235h353v-73h-353v-244h408v-74h-488v700h475z" />
    <glyph glyph-name="Eacute.ss01" horiz-adv-x="566" 
d="M470 888l-124 -99h-75l120 135zM320 329q-41 0 -75.5 -10t-59.5 -27.5t-39 -42t-14 -52.5q0 -29 14.5 -52.5t39.5 -40.5t59 -26t74 -9q24 0 51 4t53 11t49.5 16t40.5 18l32 -64q-20 -12 -47 -22.5t-57.5 -18t-62.5 -12t-62 -4.5q-58 0 -106.5 14.5t-84 40t-55 61
t-19.5 77.5q0 33 12.5 62.5t35 53.5t53.5 40.5t69 23.5q-30 6 -55 21t-43.5 35.5t-28.5 46t-10 54.5q0 39 17.5 71t49.5 55.5t76 36.5t97 13q24 0 50.5 -3t52 -8.5t48.5 -13.5t41 -17l-28 -64q-32 16 -76.5 24.5t-83.5 8.5q-36 0 -67 -7.5t-53.5 -22t-35.5 -35t-13 -46.5
q0 -25 12 -46t33 -36.5t50.5 -24.5t65.5 -9h129v-74h-129z" />
    <glyph glyph-name="Ebreve" unicode="&#x114;" horiz-adv-x="651" 
d="M279 914q2 -32 22 -52.5t50 -20.5t50 20.5t22 52.5h55q-1 -29 -11 -52.5t-27 -40.5t-39.5 -26.5t-49.5 -9.5t-49.5 9.5t-39.5 26.5t-27 40.5t-11 52.5h55zM581 700v-74h-395v-235h353v-73h-353v-244h408v-74h-488v700h475z" />
    <glyph glyph-name="Ebreve.ss01" horiz-adv-x="566" 
d="M252 914q2 -32 22 -52.5t50 -20.5t50 20.5t22 52.5h55q-1 -29 -11 -52.5t-27 -40.5t-39.5 -26.5t-49.5 -9.5t-49.5 9.5t-39.5 26.5t-27 40.5t-11 52.5h55zM320 329q-41 0 -75.5 -10t-59.5 -27.5t-39 -42t-14 -52.5q0 -29 14.5 -52.5t39.5 -40.5t59 -26t74 -9q24 0 51 4
t53 11t49.5 16t40.5 18l32 -64q-20 -12 -47 -22.5t-57.5 -18t-62.5 -12t-62 -4.5q-58 0 -106.5 14.5t-84 40t-55 61t-19.5 77.5q0 33 12.5 62.5t35 53.5t53.5 40.5t69 23.5q-30 6 -55 21t-43.5 35.5t-28.5 46t-10 54.5q0 39 17.5 71t49.5 55.5t76 36.5t97 13q24 0 50.5 -3
t52 -8.5t48.5 -13.5t41 -17l-28 -64q-32 16 -76.5 24.5t-83.5 8.5q-36 0 -67 -7.5t-53.5 -22t-35.5 -35t-13 -46.5q0 -25 12 -46t33 -36.5t50.5 -24.5t65.5 -9h129v-74h-129z" />
    <glyph glyph-name="Ecaron" unicode="&#x11a;" horiz-adv-x="651" 
d="M277 919l72 -94l72 94h73l-104 -135h-82l-104 135h73zM581 700v-74h-395v-235h353v-73h-353v-244h408v-74h-488v700h475z" />
    <glyph glyph-name="Ecaron.ss01" horiz-adv-x="566" 
d="M250 919l72 -94l72 94h73l-104 -135h-82l-104 135h73zM320 329q-41 0 -75.5 -10t-59.5 -27.5t-39 -42t-14 -52.5q0 -29 14.5 -52.5t39.5 -40.5t59 -26t74 -9q24 0 51 4t53 11t49.5 16t40.5 18l32 -64q-20 -12 -47 -22.5t-57.5 -18t-62.5 -12t-62 -4.5q-58 0 -106.5 14.5
t-84 40t-55 61t-19.5 77.5q0 33 12.5 62.5t35 53.5t53.5 40.5t69 23.5q-30 6 -55 21t-43.5 35.5t-28.5 46t-10 54.5q0 39 17.5 71t49.5 55.5t76 36.5t97 13q24 0 50.5 -3t52 -8.5t48.5 -13.5t41 -17l-28 -64q-32 16 -76.5 24.5t-83.5 8.5q-36 0 -67 -7.5t-53.5 -22
t-35.5 -35t-13 -46.5q0 -25 12 -46t33 -36.5t50.5 -24.5t65.5 -9h129v-74h-129z" />
    <glyph glyph-name="uni1E1C" unicode="&#x1e1c;" horiz-adv-x="651" 
d="M351 786q-27 0 -49.5 9.5t-39.5 26.5t-27 40.5t-11 52.5h55q2 -32 22 -52.5t50 -20.5t50 20.5t22 52.5h55q-1 -29 -11 -52.5t-27 -40.5t-39.5 -26.5t-49.5 -9.5zM375 0l-26 -57q31 -4 51 -23.5t20 -51.5q1 -41 -27 -65.5t-70 -24.5q-23 0 -44.5 7t-36.5 18l17 41
q12 -9 28 -14.5t31 -5.5q25 0 39.5 14.5t13.5 33.5q0 17 -13 30t-37 13q-8 0 -17 -1t-16 -2l38 88h-220v700h475v-74h-395v-235h353v-73h-353v-244h408v-74h-219z" />
    <glyph glyph-name="uni1E1C.ss01" horiz-adv-x="566" 
d="M324 786q-27 0 -49.5 9.5t-39.5 26.5t-27 40.5t-11 52.5h55q2 -32 22 -52.5t50 -20.5t50 20.5t22 52.5h55q-1 -29 -11 -52.5t-27 -40.5t-39.5 -26.5t-49.5 -9.5zM317 -57q31 -4 51 -23.5t20 -51.5q1 -41 -27 -65.5t-70 -24.5q-23 0 -44.5 7t-36.5 18l17 41
q12 -9 28 -14.5t31 -5.5q25 0 39.5 14.5t13.5 33.5q0 17 -13 30t-37 13q-8 0 -17 -1t-16 -2l37 86q-53 3 -97.5 18t-76.5 40.5t-50 59.5t-18 74q0 33 12.5 62.5t35 53.5t53.5 40.5t69 23.5q-30 6 -55 21t-43.5 35.5t-28.5 46t-10 54.5q0 39 17.5 71t49.5 55.5t76 36.5t97 13
q24 0 50.5 -3t52 -8.5t48.5 -13.5t41 -17l-28 -64q-32 16 -76.5 24.5t-83.5 8.5q-36 0 -67 -7.5t-53.5 -22t-35.5 -35t-13 -46.5q0 -25 12 -46t33 -36.5t50.5 -24.5t65.5 -9h129v-74h-129q-41 0 -75.5 -10t-59.5 -27.5t-39 -42t-14 -52.5q0 -29 14.5 -52.5t39.5 -40.5
t59 -26t74 -9q24 0 51 4t53 11t49.5 16t40.5 18l32 -64q-36 -22 -91.5 -37.5t-111.5 -18.5z" />
    <glyph glyph-name="Ecircumflex" unicode="&#xca;" horiz-adv-x="651" 
d="M389 919l102 -129h-68l-72 91l-72 -91h-68l102 129h76zM581 700v-74h-395v-235h353v-73h-353v-244h408v-74h-488v700h475z" />
    <glyph glyph-name="Ecircumflex.ss01" horiz-adv-x="566" 
d="M362 919l102 -129h-68l-72 91l-72 -91h-68l102 129h76zM320 329q-41 0 -75.5 -10t-59.5 -27.5t-39 -42t-14 -52.5q0 -29 14.5 -52.5t39.5 -40.5t59 -26t74 -9q24 0 51 4t53 11t49.5 16t40.5 18l32 -64q-20 -12 -47 -22.5t-57.5 -18t-62.5 -12t-62 -4.5q-58 0 -106.5 14.5
t-84 40t-55 61t-19.5 77.5q0 33 12.5 62.5t35 53.5t53.5 40.5t69 23.5q-30 6 -55 21t-43.5 35.5t-28.5 46t-10 54.5q0 39 17.5 71t49.5 55.5t76 36.5t97 13q24 0 50.5 -3t52 -8.5t48.5 -13.5t41 -17l-28 -64q-32 16 -76.5 24.5t-83.5 8.5q-36 0 -67 -7.5t-53.5 -22
t-35.5 -35t-13 -46.5q0 -25 12 -46t33 -36.5t50.5 -24.5t65.5 -9h129v-74h-129z" />
    <glyph glyph-name="uni1EBE" unicode="&#x1ebe;" horiz-adv-x="651" 
d="M637 990l-125 -99h-64l120 135zM389 921l102 -129h-68l-72 91l-72 -91h-68l102 129h76zM581 700v-74h-395v-235h353v-73h-353v-244h408v-74h-488v700h475z" />
    <glyph glyph-name="uni1EBE.ss01" horiz-adv-x="566" 
d="M610 990l-125 -99h-64l120 135zM362 921l102 -129h-68l-72 91l-72 -91h-68l102 129h76zM320 329q-41 0 -75.5 -10t-59.5 -27.5t-39 -42t-14 -52.5q0 -29 14.5 -52.5t39.5 -40.5t59 -26t74 -9q24 0 51 4t53 11t49.5 16t40.5 18l32 -64q-20 -12 -47 -22.5t-57.5 -18
t-62.5 -12t-62 -4.5q-58 0 -106.5 14.5t-84 40t-55 61t-19.5 77.5q0 33 12.5 62.5t35 53.5t53.5 40.5t69 23.5q-30 6 -55 21t-43.5 35.5t-28.5 46t-10 54.5q0 39 17.5 71t49.5 55.5t76 36.5t97 13q24 0 50.5 -3t52 -8.5t48.5 -13.5t41 -17l-28 -64q-32 16 -76.5 24.5
t-83.5 8.5q-36 0 -67 -7.5t-53.5 -22t-35.5 -35t-13 -46.5q0 -25 12 -46t33 -36.5t50.5 -24.5t65.5 -9h129v-74h-129z" />
    <glyph glyph-name="uni1EC6" unicode="&#x1ec6;" horiz-adv-x="651" 
d="M491 792h-68l-72 91l-72 -91h-68l102 129h76zM581 700v-74h-395v-235h353v-73h-353v-244h408v-74h-488v700h475zM350 -55q22 0 36.5 -15t14.5 -38t-14.5 -38.5t-36.5 -15.5t-36.5 15.5t-14.5 38.5t14.5 38t36.5 15z" />
    <glyph glyph-name="uni1EC6.ss01" horiz-adv-x="566" 
d="M464 792h-68l-72 91l-72 -91h-68l102 129h76zM320 329q-41 0 -75.5 -10t-59.5 -27.5t-39 -42t-14 -52.5q0 -29 14.5 -52.5t39.5 -40.5t59 -26t74 -9q24 0 51 4t53 11t49.5 16t40.5 18l32 -64q-20 -12 -47 -22.5t-57.5 -18t-62.5 -12t-62 -4.5q-58 0 -106.5 14.5t-84 40
t-55 61t-19.5 77.5q0 33 12.5 62.5t35 53.5t53.5 40.5t69 23.5q-30 6 -55 21t-43.5 35.5t-28.5 46t-10 54.5q0 39 17.5 71t49.5 55.5t76 36.5t97 13q24 0 50.5 -3t52 -8.5t48.5 -13.5t41 -17l-28 -64q-32 16 -76.5 24.5t-83.5 8.5q-36 0 -67 -7.5t-53.5 -22t-35.5 -35
t-13 -46.5q0 -25 12 -46t33 -36.5t50.5 -24.5t65.5 -9h129v-74h-129zM318 -55q22 0 36.5 -15t14.5 -38t-14.5 -38.5t-36.5 -15.5t-36.5 15.5t-14.5 38.5t14.5 38t36.5 15z" />
    <glyph glyph-name="uni1EC0" unicode="&#x1ec0;" horiz-adv-x="651" 
d="M572 877h-64l-124 99l68 36zM389 921l102 -129h-68l-72 91l-72 -91h-68l102 129h76zM581 700v-74h-395v-235h353v-73h-353v-244h408v-74h-488v700h475z" />
    <glyph glyph-name="uni1EC0.ss01" horiz-adv-x="566" 
d="M545 877h-64l-124 99l68 36zM362 921l102 -129h-68l-72 91l-72 -91h-68l102 129h76zM320 329q-41 0 -75.5 -10t-59.5 -27.5t-39 -42t-14 -52.5q0 -29 14.5 -52.5t39.5 -40.5t59 -26t74 -9q24 0 51 4t53 11t49.5 16t40.5 18l32 -64q-20 -12 -47 -22.5t-57.5 -18t-62.5 -12
t-62 -4.5q-58 0 -106.5 14.5t-84 40t-55 61t-19.5 77.5q0 33 12.5 62.5t35 53.5t53.5 40.5t69 23.5q-30 6 -55 21t-43.5 35.5t-28.5 46t-10 54.5q0 39 17.5 71t49.5 55.5t76 36.5t97 13q24 0 50.5 -3t52 -8.5t48.5 -13.5t41 -17l-28 -64q-32 16 -76.5 24.5t-83.5 8.5
q-36 0 -67 -7.5t-53.5 -22t-35.5 -35t-13 -46.5q0 -25 12 -46t33 -36.5t50.5 -24.5t65.5 -9h129v-74h-129z" />
    <glyph glyph-name="uni1EC2" unicode="&#x1ec2;" horiz-adv-x="651" 
d="M373 987q5 34 30 53.5t62 19.5q39 0 62.5 -23.5t23.5 -58.5q0 -29 -14.5 -51t-40.5 -42l-41 14q25 20 39 37.5t14 39.5q0 17 -11 28.5t-33 11.5t-35 -12t-15 -32zM389 921l102 -129h-68l-72 91l-72 -91h-68l102 129h76zM581 700v-74h-395v-235h353v-73h-353v-244h408v-74
h-488v700h475z" />
    <glyph glyph-name="uni1EC2.ss01" horiz-adv-x="566" 
d="M346 987q5 34 30 53.5t62 19.5q39 0 62.5 -23.5t23.5 -58.5q0 -29 -14.5 -51t-40.5 -42l-41 14q25 20 39 37.5t14 39.5q0 17 -11 28.5t-33 11.5t-35 -12t-15 -32zM362 921l102 -129h-68l-72 91l-72 -91h-68l102 129h76zM320 329q-41 0 -75.5 -10t-59.5 -27.5t-39 -42
t-14 -52.5q0 -29 14.5 -52.5t39.5 -40.5t59 -26t74 -9q24 0 51 4t53 11t49.5 16t40.5 18l32 -64q-20 -12 -47 -22.5t-57.5 -18t-62.5 -12t-62 -4.5q-58 0 -106.5 14.5t-84 40t-55 61t-19.5 77.5q0 33 12.5 62.5t35 53.5t53.5 40.5t69 23.5q-30 6 -55 21t-43.5 35.5t-28.5 46
t-10 54.5q0 39 17.5 71t49.5 55.5t76 36.5t97 13q24 0 50.5 -3t52 -8.5t48.5 -13.5t41 -17l-28 -64q-32 16 -76.5 24.5t-83.5 8.5q-36 0 -67 -7.5t-53.5 -22t-35.5 -35t-13 -46.5q0 -25 12 -46t33 -36.5t50.5 -24.5t65.5 -9h129v-74h-129z" />
    <glyph glyph-name="uni1EC4" unicode="&#x1ec4;" horiz-adv-x="651" 
d="M498 1046q0 -111 -83 -111q-22 0 -38.5 9.5t-30 20.5l-26 20.5t-27.5 9.5q-42 0 -42 -53h-53q0 112 83 112q21 0 37 -9.5t30 -21t27 -21t28 -9.5q42 0 42 53h53zM389 921l102 -129h-68l-72 91l-72 -91h-68l102 129h76zM581 700v-74h-395v-235h353v-73h-353v-244h408v-74
h-488v700h475z" />
    <glyph glyph-name="uni1EC4.ss01" horiz-adv-x="566" 
d="M471 1046q0 -111 -83 -111q-22 0 -38.5 9.5t-30 20.5l-26 20.5t-27.5 9.5q-42 0 -42 -53h-53q0 112 83 112q21 0 37 -9.5t30 -21t27 -21t28 -9.5q42 0 42 53h53zM362 921l102 -129h-68l-72 91l-72 -91h-68l102 129h76zM320 329q-41 0 -75.5 -10t-59.5 -27.5t-39 -42
t-14 -52.5q0 -29 14.5 -52.5t39.5 -40.5t59 -26t74 -9q24 0 51 4t53 11t49.5 16t40.5 18l32 -64q-20 -12 -47 -22.5t-57.5 -18t-62.5 -12t-62 -4.5q-58 0 -106.5 14.5t-84 40t-55 61t-19.5 77.5q0 33 12.5 62.5t35 53.5t53.5 40.5t69 23.5q-30 6 -55 21t-43.5 35.5t-28.5 46
t-10 54.5q0 39 17.5 71t49.5 55.5t76 36.5t97 13q24 0 50.5 -3t52 -8.5t48.5 -13.5t41 -17l-28 -64q-32 16 -76.5 24.5t-83.5 8.5q-36 0 -67 -7.5t-53.5 -22t-35.5 -35t-13 -46.5q0 -25 12 -46t33 -36.5t50.5 -24.5t65.5 -9h129v-74h-129z" />
    <glyph glyph-name="uni0204" unicode="&#x204;" horiz-adv-x="651" 
d="M319 789h-65l-93 106l67 33zM466 789h-65l-93 106l67 33zM581 700v-74h-395v-235h353v-73h-353v-244h408v-74h-488v700h475z" />
    <glyph glyph-name="uni0204.ss01" horiz-adv-x="566" 
d="M292 789h-65l-93 106l67 33zM439 789h-65l-93 106l67 33zM320 329q-41 0 -75.5 -10t-59.5 -27.5t-39 -42t-14 -52.5q0 -29 14.5 -52.5t39.5 -40.5t59 -26t74 -9q24 0 51 4t53 11t49.5 16t40.5 18l32 -64q-20 -12 -47 -22.5t-57.5 -18t-62.5 -12t-62 -4.5
q-58 0 -106.5 14.5t-84 40t-55 61t-19.5 77.5q0 33 12.5 62.5t35 53.5t53.5 40.5t69 23.5q-30 6 -55 21t-43.5 35.5t-28.5 46t-10 54.5q0 39 17.5 71t49.5 55.5t76 36.5t97 13q24 0 50.5 -3t52 -8.5t48.5 -13.5t41 -17l-28 -64q-32 16 -76.5 24.5t-83.5 8.5q-36 0 -67 -7.5
t-53.5 -22t-35.5 -35t-13 -46.5q0 -25 12 -46t33 -36.5t50.5 -24.5t65.5 -9h129v-74h-129z" />
    <glyph glyph-name="Edieresis" unicode="&#xcb;" horiz-adv-x="651" 
d="M268 901q20 0 34 -14t14 -36q0 -20 -14 -34.5t-34 -14.5t-33.5 14.5t-13.5 34.5q0 22 13.5 36t33.5 14zM435 901q20 0 33.5 -14t13.5 -36q0 -20 -13.5 -34.5t-33.5 -14.5t-34 14.5t-14 34.5q0 22 14 36t34 14zM581 700v-74h-395v-235h353v-73h-353v-244h408v-74h-488v700
h475z" />
    <glyph glyph-name="Edieresis.ss01" horiz-adv-x="566" 
d="M241 901q20 0 34 -14t14 -36q0 -20 -14 -34.5t-34 -14.5t-33.5 14.5t-13.5 34.5q0 22 13.5 36t33.5 14zM408 901q20 0 33.5 -14t13.5 -36q0 -20 -13.5 -34.5t-33.5 -14.5t-34 14.5t-14 34.5q0 22 14 36t34 14zM320 329q-41 0 -75.5 -10t-59.5 -27.5t-39 -42t-14 -52.5
q0 -29 14.5 -52.5t39.5 -40.5t59 -26t74 -9q24 0 51 4t53 11t49.5 16t40.5 18l32 -64q-20 -12 -47 -22.5t-57.5 -18t-62.5 -12t-62 -4.5q-58 0 -106.5 14.5t-84 40t-55 61t-19.5 77.5q0 33 12.5 62.5t35 53.5t53.5 40.5t69 23.5q-30 6 -55 21t-43.5 35.5t-28.5 46t-10 54.5
q0 39 17.5 71t49.5 55.5t76 36.5t97 13q24 0 50.5 -3t52 -8.5t48.5 -13.5t41 -17l-28 -64q-32 16 -76.5 24.5t-83.5 8.5q-36 0 -67 -7.5t-53.5 -22t-35.5 -35t-13 -46.5q0 -25 12 -46t33 -36.5t50.5 -24.5t65.5 -9h129v-74h-129z" />
    <glyph glyph-name="Edotaccent" unicode="&#x116;" horiz-adv-x="651" 
d="M351 904q22 0 36.5 -15t14.5 -38t-14.5 -38t-36.5 -15t-36.5 15t-14.5 38t14.5 38t36.5 15zM581 700v-74h-395v-235h353v-73h-353v-244h408v-74h-488v700h475z" />
    <glyph glyph-name="Edotaccent.ss01" horiz-adv-x="566" 
d="M324 904q22 0 36.5 -15t14.5 -38t-14.5 -38t-36.5 -15t-36.5 15t-14.5 38t14.5 38t36.5 15zM320 329q-41 0 -75.5 -10t-59.5 -27.5t-39 -42t-14 -52.5q0 -29 14.5 -52.5t39.5 -40.5t59 -26t74 -9q24 0 51 4t53 11t49.5 16t40.5 18l32 -64q-20 -12 -47 -22.5t-57.5 -18
t-62.5 -12t-62 -4.5q-58 0 -106.5 14.5t-84 40t-55 61t-19.5 77.5q0 33 12.5 62.5t35 53.5t53.5 40.5t69 23.5q-30 6 -55 21t-43.5 35.5t-28.5 46t-10 54.5q0 39 17.5 71t49.5 55.5t76 36.5t97 13q24 0 50.5 -3t52 -8.5t48.5 -13.5t41 -17l-28 -64q-32 16 -76.5 24.5
t-83.5 8.5q-36 0 -67 -7.5t-53.5 -22t-35.5 -35t-13 -46.5q0 -25 12 -46t33 -36.5t50.5 -24.5t65.5 -9h129v-74h-129z" />
    <glyph glyph-name="uni1EB8" unicode="&#x1eb8;" horiz-adv-x="651" 
d="M581 700v-74h-395v-235h353v-73h-353v-244h408v-74h-488v700h475zM350 -55q22 0 36.5 -15t14.5 -38t-14.5 -38.5t-36.5 -15.5t-36.5 15.5t-14.5 38.5t14.5 38t36.5 15z" />
    <glyph glyph-name="uni1EB8.ss01" horiz-adv-x="566" 
d="M320 329q-41 0 -75.5 -10t-59.5 -27.5t-39 -42t-14 -52.5q0 -29 14.5 -52.5t39.5 -40.5t59 -26t74 -9q24 0 51 4t53 11t49.5 16t40.5 18l32 -64q-20 -12 -47 -22.5t-57.5 -18t-62.5 -12t-62 -4.5q-58 0 -106.5 14.5t-84 40t-55 61t-19.5 77.5q0 33 12.5 62.5t35 53.5
t53.5 40.5t69 23.5q-30 6 -55 21t-43.5 35.5t-28.5 46t-10 54.5q0 39 17.5 71t49.5 55.5t76 36.5t97 13q24 0 50.5 -3t52 -8.5t48.5 -13.5t41 -17l-28 -64q-32 16 -76.5 24.5t-83.5 8.5q-36 0 -67 -7.5t-53.5 -22t-35.5 -35t-13 -46.5q0 -25 12 -46t33 -36.5t50.5 -24.5
t65.5 -9h129v-74h-129zM318 -55q22 0 36.5 -15t14.5 -38t-14.5 -38.5t-36.5 -15.5t-36.5 15.5t-14.5 38.5t14.5 38t36.5 15z" />
    <glyph glyph-name="Egrave" unicode="&#xc8;" horiz-adv-x="651" 
d="M401 789h-75l-125 99l80 36zM581 700v-74h-395v-235h353v-73h-353v-244h408v-74h-488v700h475z" />
    <glyph glyph-name="Egrave.ss01" horiz-adv-x="566" 
d="M374 789h-75l-125 99l80 36zM320 329q-41 0 -75.5 -10t-59.5 -27.5t-39 -42t-14 -52.5q0 -29 14.5 -52.5t39.5 -40.5t59 -26t74 -9q24 0 51 4t53 11t49.5 16t40.5 18l32 -64q-20 -12 -47 -22.5t-57.5 -18t-62.5 -12t-62 -4.5q-58 0 -106.5 14.5t-84 40t-55 61t-19.5 77.5
q0 33 12.5 62.5t35 53.5t53.5 40.5t69 23.5q-30 6 -55 21t-43.5 35.5t-28.5 46t-10 54.5q0 39 17.5 71t49.5 55.5t76 36.5t97 13q24 0 50.5 -3t52 -8.5t48.5 -13.5t41 -17l-28 -64q-32 16 -76.5 24.5t-83.5 8.5q-36 0 -67 -7.5t-53.5 -22t-35.5 -35t-13 -46.5q0 -25 12 -46
t33 -36.5t50.5 -24.5t65.5 -9h129v-74h-129z" />
    <glyph glyph-name="uni1EBA" unicode="&#x1eba;" horiz-adv-x="651" 
d="M258 856q5 34 30 53.5t61 19.5q40 0 63.5 -23.5t23.5 -58.5q0 -29 -14.5 -51t-40.5 -42l-41 14q25 20 39 37.5t14 39.5q0 17 -11 28.5t-33 11.5t-35 -12t-15 -32zM581 700v-74h-395v-235h353v-73h-353v-244h408v-74h-488v700h475z" />
    <glyph glyph-name="uni1EBA.ss01" horiz-adv-x="566" 
d="M231 856q5 34 30 53.5t61 19.5q40 0 63.5 -23.5t23.5 -58.5q0 -29 -14.5 -51t-40.5 -42l-41 14q25 20 39 37.5t14 39.5q0 17 -11 28.5t-33 11.5t-35 -12t-15 -32zM320 329q-41 0 -75.5 -10t-59.5 -27.5t-39 -42t-14 -52.5q0 -29 14.5 -52.5t39.5 -40.5t59 -26t74 -9
q24 0 51 4t53 11t49.5 16t40.5 18l32 -64q-20 -12 -47 -22.5t-57.5 -18t-62.5 -12t-62 -4.5q-58 0 -106.5 14.5t-84 40t-55 61t-19.5 77.5q0 33 12.5 62.5t35 53.5t53.5 40.5t69 23.5q-30 6 -55 21t-43.5 35.5t-28.5 46t-10 54.5q0 39 17.5 71t49.5 55.5t76 36.5t97 13
q24 0 50.5 -3t52 -8.5t48.5 -13.5t41 -17l-28 -64q-32 16 -76.5 24.5t-83.5 8.5q-36 0 -67 -7.5t-53.5 -22t-35.5 -35t-13 -46.5q0 -25 12 -46t33 -36.5t50.5 -24.5t65.5 -9h129v-74h-129z" />
    <glyph glyph-name="uni0206" unicode="&#x206;" horiz-adv-x="651" 
d="M224 786q1 28 11 52t27 41t39.5 26.5t49.5 9.5t49.5 -9.5t39.5 -26.5t27 -41t11 -52h-55q-2 32 -22 52.5t-50 20.5t-50 -20.5t-22 -52.5h-55zM581 700v-74h-395v-235h353v-73h-353v-244h408v-74h-488v700h475z" />
    <glyph glyph-name="uni0206.ss01" horiz-adv-x="566" 
d="M197 786q1 28 11 52t27 41t39.5 26.5t49.5 9.5t49.5 -9.5t39.5 -26.5t27 -41t11 -52h-55q-2 32 -22 52.5t-50 20.5t-50 -20.5t-22 -52.5h-55zM320 329q-41 0 -75.5 -10t-59.5 -27.5t-39 -42t-14 -52.5q0 -29 14.5 -52.5t39.5 -40.5t59 -26t74 -9q24 0 51 4t53 11t49.5 16
t40.5 18l32 -64q-20 -12 -47 -22.5t-57.5 -18t-62.5 -12t-62 -4.5q-58 0 -106.5 14.5t-84 40t-55 61t-19.5 77.5q0 33 12.5 62.5t35 53.5t53.5 40.5t69 23.5q-30 6 -55 21t-43.5 35.5t-28.5 46t-10 54.5q0 39 17.5 71t49.5 55.5t76 36.5t97 13q24 0 50.5 -3t52 -8.5
t48.5 -13.5t41 -17l-28 -64q-32 16 -76.5 24.5t-83.5 8.5q-36 0 -67 -7.5t-53.5 -22t-35.5 -35t-13 -46.5q0 -25 12 -46t33 -36.5t50.5 -24.5t65.5 -9h129v-74h-129z" />
    <glyph glyph-name="Emacron" unicode="&#x112;" horiz-adv-x="651" 
d="M472 880v-59h-241v59h241zM581 700v-74h-395v-235h353v-73h-353v-244h408v-74h-488v700h475z" />
    <glyph glyph-name="Emacron.ss01" horiz-adv-x="566" 
d="M445 880v-59h-241v59h241zM320 329q-41 0 -75.5 -10t-59.5 -27.5t-39 -42t-14 -52.5q0 -29 14.5 -52.5t39.5 -40.5t59 -26t74 -9q24 0 51 4t53 11t49.5 16t40.5 18l32 -64q-20 -12 -47 -22.5t-57.5 -18t-62.5 -12t-62 -4.5q-58 0 -106.5 14.5t-84 40t-55 61t-19.5 77.5
q0 33 12.5 62.5t35 53.5t53.5 40.5t69 23.5q-30 6 -55 21t-43.5 35.5t-28.5 46t-10 54.5q0 39 17.5 71t49.5 55.5t76 36.5t97 13q24 0 50.5 -3t52 -8.5t48.5 -13.5t41 -17l-28 -64q-32 16 -76.5 24.5t-83.5 8.5q-36 0 -67 -7.5t-53.5 -22t-35.5 -35t-13 -46.5q0 -25 12 -46
t33 -36.5t50.5 -24.5t65.5 -9h129v-74h-129z" />
    <glyph glyph-name="uni1E16" unicode="&#x1e16;" horiz-adv-x="651" 
d="M503 1030l-124 -99h-75l120 135zM471 860v-59h-241v59h241zM581 700v-74h-395v-235h353v-73h-353v-244h408v-74h-488v700h475z" />
    <glyph glyph-name="uni1E16.ss01" horiz-adv-x="566" 
d="M476 1030l-124 -99h-75l120 135zM444 860v-59h-241v59h241zM320 329q-41 0 -75.5 -10t-59.5 -27.5t-39 -42t-14 -52.5q0 -29 14.5 -52.5t39.5 -40.5t59 -26t74 -9q24 0 51 4t53 11t49.5 16t40.5 18l32 -64q-20 -12 -47 -22.5t-57.5 -18t-62.5 -12t-62 -4.5
q-58 0 -106.5 14.5t-84 40t-55 61t-19.5 77.5q0 33 12.5 62.5t35 53.5t53.5 40.5t69 23.5q-30 6 -55 21t-43.5 35.5t-28.5 46t-10 54.5q0 39 17.5 71t49.5 55.5t76 36.5t97 13q24 0 50.5 -3t52 -8.5t48.5 -13.5t41 -17l-28 -64q-32 16 -76.5 24.5t-83.5 8.5q-36 0 -67 -7.5
t-53.5 -22t-35.5 -35t-13 -46.5q0 -25 12 -46t33 -36.5t50.5 -24.5t65.5 -9h129v-74h-129z" />
    <glyph glyph-name="uni1E14" unicode="&#x1e14;" horiz-adv-x="651" 
d="M398 931h-75l-125 99l80 36zM471 860v-59h-241v59h241zM581 700v-74h-395v-235h353v-73h-353v-244h408v-74h-488v700h475z" />
    <glyph glyph-name="uni1E14.ss01" horiz-adv-x="566" 
d="M371 931h-75l-125 99l80 36zM444 860v-59h-241v59h241zM320 329q-41 0 -75.5 -10t-59.5 -27.5t-39 -42t-14 -52.5q0 -29 14.5 -52.5t39.5 -40.5t59 -26t74 -9q24 0 51 4t53 11t49.5 16t40.5 18l32 -64q-20 -12 -47 -22.5t-57.5 -18t-62.5 -12t-62 -4.5q-58 0 -106.5 14.5
t-84 40t-55 61t-19.5 77.5q0 33 12.5 62.5t35 53.5t53.5 40.5t69 23.5q-30 6 -55 21t-43.5 35.5t-28.5 46t-10 54.5q0 39 17.5 71t49.5 55.5t76 36.5t97 13q24 0 50.5 -3t52 -8.5t48.5 -13.5t41 -17l-28 -64q-32 16 -76.5 24.5t-83.5 8.5q-36 0 -67 -7.5t-53.5 -22
t-35.5 -35t-13 -46.5q0 -25 12 -46t33 -36.5t50.5 -24.5t65.5 -9h129v-74h-129z" />
    <glyph glyph-name="Eogonek" unicode="&#x118;" horiz-adv-x="657" 
d="M537 0q-31 -42 -42.5 -68.5t-11.5 -46.5q0 -18 10.5 -28t25.5 -10q14 0 27.5 9t25.5 24l26 -30q-16 -23 -39 -36.5t-48 -13.5q-29 0 -51 18t-22 56q0 26 13 55.5t42 70.5h-387v700h481v-68h-401v-241h359v-68h-359v-255h414v-68h-63v0z" />
    <glyph glyph-name="Eogonek.ss01" horiz-adv-x="566" 
d="M430 -153q14 0 27.5 9t25.5 24l26 -30q-16 -23 -39 -36.5t-48 -13.5q-29 0 -51 18t-22 56q0 28 14.5 59.5t44.5 72.5q-47 -9 -93 -9q-57 0 -106 14.5t-84 40t-55 61t-20 77.5q0 33 12.5 62.5t35 53.5t53.5 40.5t69 23.5q-30 6 -55 21t-43 35.5t-28.5 46t-10.5 54.5
q0 39 18 71t50 55.5t76 36.5t97 13q24 0 50.5 -3t52 -8.5t48.5 -13.5t40 -17l-27 -64q-32 16 -76.5 24.5t-84.5 8.5q-36 0 -67 -7.5t-53.5 -22t-35 -35t-12.5 -46.5q0 -25 12 -46t33 -36.5t50.5 -24.5t64.5 -9h130v-74h-130q-41 0 -75 -10t-59 -27.5t-39 -42t-14 -52.5
q0 -29 14 -52.5t39 -40.5t59.5 -26t74.5 -9q24 0 51 4t53 11t49.5 16t40.5 18l32 -64q-17 -10 -38.5 -18.5t-45.5 -16.5q-37 -48 -52 -79.5t-15 -54.5q0 -18 10 -28t26 -10z" />
    <glyph glyph-name="uni1EBC" unicode="&#x1ebc;" horiz-adv-x="651" 
d="M501 910q0 -112 -83 -112q-22 0 -38 9.5t-29.5 21t-26 21t-27.5 9.5q-43 0 -43 -53h-52q0 112 83 112q21 0 37 -9.5t29.5 -21t26.5 -21t28 -9.5q43 0 43 53h52zM581 700v-74h-395v-235h353v-73h-353v-244h408v-74h-488v700h475z" />
    <glyph glyph-name="uni1EBC.ss01" horiz-adv-x="566" 
d="M474 910q0 -112 -83 -112q-22 0 -38 9.5t-29.5 21t-26 21t-27.5 9.5q-43 0 -43 -53h-52q0 112 83 112q21 0 37 -9.5t29.5 -21t26.5 -21t28 -9.5q43 0 43 53h52zM320 329q-41 0 -75.5 -10t-59.5 -27.5t-39 -42t-14 -52.5q0 -29 14.5 -52.5t39.5 -40.5t59 -26t74 -9
q24 0 51 4t53 11t49.5 16t40.5 18l32 -64q-20 -12 -47 -22.5t-57.5 -18t-62.5 -12t-62 -4.5q-58 0 -106.5 14.5t-84 40t-55 61t-19.5 77.5q0 33 12.5 62.5t35 53.5t53.5 40.5t69 23.5q-30 6 -55 21t-43.5 35.5t-28.5 46t-10 54.5q0 39 17.5 71t49.5 55.5t76 36.5t97 13
q24 0 50.5 -3t52 -8.5t48.5 -13.5t41 -17l-28 -64q-32 16 -76.5 24.5t-83.5 8.5q-36 0 -67 -7.5t-53.5 -22t-35.5 -35t-13 -46.5q0 -25 12 -46t33 -36.5t50.5 -24.5t65.5 -9h129v-74h-129z" />
    <glyph glyph-name="F" unicode="F" horiz-adv-x="563" 
d="M551 700v-74h-365v-251h327v-73h-327v-302h-80v700h445z" />
    <glyph glyph-name="F.ss01" horiz-adv-x="516" 
d="M313 629q-66 0 -104.5 -38.5t-38.5 -104.5v-122h281v-74h-281v-290h-80v487q0 49 15.5 89t43.5 68t68 43.5t90 15.5q54 0 107 -11.5t93 -31.5l-21 -72q-38 18 -85 29.5t-88 11.5z" />
    <glyph glyph-name="G" unicode="G" horiz-adv-x="753" 
d="M594 342h71v-254q-52 -42 -120.5 -66.5t-139.5 -24.5q-76 0 -142.5 27.5t-116 75t-78 112t-28.5 138.5t28.5 138t78.5 111.5t117.5 75t144.5 27.5q73 0 140 -25.5t118 -70.5l-46 -58q-43 38 -98 59.5t-114 21.5q-60 0 -112.5 -22t-91.5 -59.5t-61.5 -88.5t-22.5 -109
q0 -59 22.5 -110t62 -88.5t92 -59.5t112.5 -22q48 0 95.5 15.5t88.5 43.5v213z" />
    <glyph glyph-name="G.ss01" horiz-adv-x="754" 
d="M594 351h71v-351h-62v74q-43 -35 -95.5 -56t-109.5 -21q-75 0 -140 27.5t-113.5 75t-76.5 112t-28 138.5t28.5 138t78.5 111.5t117 75t144 27.5q73 0 140.5 -25.5t118.5 -70.5l-46 -58q-43 38 -97.5 59.5t-114.5 21.5t-112.5 -22t-91.5 -59.5t-61.5 -88.5t-22.5 -109
q0 -59 22.5 -110t61 -88.5t90 -59.5t110.5 -22q55 0 104 21.5t85 59.5v200z" />
    <glyph glyph-name="Gbreve" unicode="&#x11e;" horiz-adv-x="753" 
d="M384 785q-27 0 -49.5 9.5t-39.5 26.5t-27 40.5t-11 52.5h55q2 -32 22 -52.5t50 -20.5t50 20.5t22 52.5h55q-1 -29 -11 -52.5t-27 -40.5t-39.5 -26.5t-49.5 -9.5zM594 342h71v-254q-52 -42 -120.5 -66.5t-139.5 -24.5q-76 0 -142.5 27.5t-116 75t-78 112t-28.5 138.5
t28.5 138t78.5 111.5t117.5 75t144.5 27.5q73 0 140 -25.5t118 -70.5l-46 -58q-43 38 -98 59.5t-114 21.5q-60 0 -112.5 -22t-91.5 -59.5t-61.5 -88.5t-22.5 -109q0 -59 22.5 -110t62 -88.5t92 -59.5t112.5 -22q48 0 95.5 15.5t88.5 43.5v213z" />
    <glyph glyph-name="Gbreve.ss01" horiz-adv-x="754" 
d="M378 785q-27 0 -49.5 9.5t-39.5 26.5t-27 40.5t-11 52.5h55q2 -32 22 -52.5t50 -20.5t50 20.5t22 52.5h55q-1 -29 -11 -52.5t-27 -40.5t-39.5 -26.5t-49.5 -9.5zM594 351h71v-351h-62v74q-43 -35 -95.5 -56t-109.5 -21q-75 0 -140 27.5t-113.5 75t-76.5 112t-28 138.5
t28.5 138t78.5 111.5t117 75t144 27.5q73 0 140.5 -25.5t118.5 -70.5l-46 -58q-43 38 -97.5 59.5t-114.5 21.5t-112.5 -22t-91.5 -59.5t-61.5 -88.5t-22.5 -109q0 -59 22.5 -110t61 -88.5t90 -59.5t110.5 -22q55 0 104 21.5t85 59.5v200z" />
    <glyph glyph-name="Gcaron" unicode="&#x1e6;" horiz-adv-x="753" 
d="M343 786l-104 135h73l72 -94l72 94h73l-104 -135h-82zM594 342h71v-254q-52 -42 -120.5 -66.5t-139.5 -24.5q-76 0 -142.5 27.5t-116 75t-78 112t-28.5 138.5t28.5 138t78.5 111.5t117.5 75t144.5 27.5q73 0 140 -25.5t118 -70.5l-46 -58q-43 38 -98 59.5t-114 21.5
q-60 0 -112.5 -22t-91.5 -59.5t-61.5 -88.5t-22.5 -109q0 -59 22.5 -110t62 -88.5t92 -59.5t112.5 -22q48 0 95.5 15.5t88.5 43.5v213z" />
    <glyph glyph-name="Gcaron.ss01" horiz-adv-x="754" 
d="M337 786l-104 135h73l72 -94l72 94h73l-104 -135h-82zM594 351h71v-351h-62v74q-43 -35 -95.5 -56t-109.5 -21q-75 0 -140 27.5t-113.5 75t-76.5 112t-28 138.5t28.5 138t78.5 111.5t117 75t144 27.5q73 0 140.5 -25.5t118.5 -70.5l-46 -58q-43 38 -97.5 59.5
t-114.5 21.5t-112.5 -22t-91.5 -59.5t-61.5 -88.5t-22.5 -109q0 -59 22.5 -110t61 -88.5t90 -59.5t110.5 -22q55 0 104 21.5t85 59.5v200z" />
    <glyph glyph-name="Gcircumflex" unicode="&#x11c;" horiz-adv-x="753" 
d="M312 790h-68l102 129h76l102 -129h-68l-72 91zM594 342h71v-254q-52 -42 -120.5 -66.5t-139.5 -24.5q-76 0 -142.5 27.5t-116 75t-78 112t-28.5 138.5t28.5 138t78.5 111.5t117.5 75t144.5 27.5q73 0 140 -25.5t118 -70.5l-46 -58q-43 38 -98 59.5t-114 21.5
q-60 0 -112.5 -22t-91.5 -59.5t-61.5 -88.5t-22.5 -109q0 -59 22.5 -110t62 -88.5t92 -59.5t112.5 -22q48 0 95.5 15.5t88.5 43.5v213z" />
    <glyph glyph-name="Gcircumflex.ss01" horiz-adv-x="754" 
d="M306 790h-68l102 129h76l102 -129h-68l-72 91zM594 351h71v-351h-62v74q-43 -35 -95.5 -56t-109.5 -21q-75 0 -140 27.5t-113.5 75t-76.5 112t-28 138.5t28.5 138t78.5 111.5t117 75t144 27.5q73 0 140.5 -25.5t118.5 -70.5l-46 -58q-43 38 -97.5 59.5t-114.5 21.5
t-112.5 -22t-91.5 -59.5t-61.5 -88.5t-22.5 -109q0 -59 22.5 -110t61 -88.5t90 -59.5t110.5 -22q55 0 104 21.5t85 59.5v200z" />
    <glyph glyph-name="Gcommaaccent" unicode="&#x122;" horiz-adv-x="753" 
d="M594 342h71v-254q-52 -42 -120.5 -66.5t-139.5 -24.5q-76 0 -142.5 27.5t-116 75t-78 112t-28.5 138.5t28.5 138t78.5 111.5t117.5 75t144.5 27.5q73 0 140 -25.5t118 -70.5l-46 -58q-43 38 -98 59.5t-114 21.5q-60 0 -112.5 -22t-91.5 -59.5t-61.5 -88.5t-22.5 -109
q0 -59 22.5 -110t62 -88.5t92 -59.5t112.5 -22q48 0 95.5 15.5t88.5 43.5v213zM384 -55q19 0 33 -13.5t14 -36.5q0 -20 -14 -42l-47 -71h-44l33 72q-12 7 -17.5 18t-5.5 24q0 21 14 35t34 14z" />
    <glyph glyph-name="Gcommaaccent.ss01" horiz-adv-x="754" 
d="M594 351h71v-351h-62v74q-43 -35 -95.5 -56t-109.5 -21q-75 0 -140 27.5t-113.5 75t-76.5 112t-28 138.5t28.5 138t78.5 111.5t117 75t144 27.5q73 0 140.5 -25.5t118.5 -70.5l-46 -58q-43 38 -97.5 59.5t-114.5 21.5t-112.5 -22t-91.5 -59.5t-61.5 -88.5t-22.5 -109
q0 -59 22.5 -110t61 -88.5t90 -59.5t110.5 -22q55 0 104 21.5t85 59.5v200zM378 -55q19 0 33 -13.5t14 -36.5q0 -20 -14 -42l-47 -71h-44l33 72q-12 7 -17.5 18t-5.5 24q0 21 14 35t34 14z" />
    <glyph glyph-name="Gdotaccent" unicode="&#x120;" horiz-adv-x="753" 
d="M384 798q-22 0 -36.5 15t-14.5 38t14.5 38t36.5 15t36.5 -15t14.5 -38t-14.5 -38t-36.5 -15zM594 342h71v-254q-52 -42 -120.5 -66.5t-139.5 -24.5q-76 0 -142.5 27.5t-116 75t-78 112t-28.5 138.5t28.5 138t78.5 111.5t117.5 75t144.5 27.5q73 0 140 -25.5t118 -70.5
l-46 -58q-43 38 -98 59.5t-114 21.5q-60 0 -112.5 -22t-91.5 -59.5t-61.5 -88.5t-22.5 -109q0 -59 22.5 -110t62 -88.5t92 -59.5t112.5 -22q48 0 95.5 15.5t88.5 43.5v213z" />
    <glyph glyph-name="Gdotaccent.ss01" horiz-adv-x="754" 
d="M378 798q-22 0 -36.5 15t-14.5 38t14.5 38t36.5 15t36.5 -15t14.5 -38t-14.5 -38t-36.5 -15zM594 351h71v-351h-62v74q-43 -35 -95.5 -56t-109.5 -21q-75 0 -140 27.5t-113.5 75t-76.5 112t-28 138.5t28.5 138t78.5 111.5t117 75t144 27.5q73 0 140.5 -25.5t118.5 -70.5
l-46 -58q-43 38 -97.5 59.5t-114.5 21.5t-112.5 -22t-91.5 -59.5t-61.5 -88.5t-22.5 -109q0 -59 22.5 -110t61 -88.5t90 -59.5t110.5 -22q55 0 104 21.5t85 59.5v200z" />
    <glyph glyph-name="uni1E20" unicode="&#x1e20;" horiz-adv-x="753" 
d="M504 801h-241v59h241v-59zM594 342h71v-254q-52 -42 -120.5 -66.5t-139.5 -24.5q-76 0 -142.5 27.5t-116 75t-78 112t-28.5 138.5t28.5 138t78.5 111.5t117.5 75t144.5 27.5q73 0 140 -25.5t118 -70.5l-46 -58q-43 38 -98 59.5t-114 21.5q-60 0 -112.5 -22t-91.5 -59.5
t-61.5 -88.5t-22.5 -109q0 -59 22.5 -110t62 -88.5t92 -59.5t112.5 -22q48 0 95.5 15.5t88.5 43.5v213z" />
    <glyph glyph-name="uni1E20.ss01" horiz-adv-x="754" 
d="M498 801h-241v59h241v-59zM594 351h71v-351h-62v74q-43 -35 -95.5 -56t-109.5 -21q-75 0 -140 27.5t-113.5 75t-76.5 112t-28 138.5t28.5 138t78.5 111.5t117 75t144 27.5q73 0 140.5 -25.5t118.5 -70.5l-46 -58q-43 38 -97.5 59.5t-114.5 21.5t-112.5 -22t-91.5 -59.5
t-61.5 -88.5t-22.5 -109q0 -59 22.5 -110t61 -88.5t90 -59.5t110.5 -22q55 0 104 21.5t85 59.5v200z" />
    <glyph glyph-name="H" unicode="H" horiz-adv-x="794" 
d="M186 700v-317h422v317h80v-700h-80v310h-422v-310h-80v700h80z" />
    <glyph glyph-name="Hbar" unicode="&#x126;" horiz-adv-x="839" 
d="M796 520h-86v-520h-80v310h-422v-310h-80v520h-86v60h86v120h80v-120h422v120h80v-120h86v-60zM630 520h-422v-137h422v137z" />
    <glyph glyph-name="uni1E2A" unicode="&#x1e2a;" horiz-adv-x="794" 
d="M186 700v-317h422v317h80v-700h-80v310h-422v-310h-80v700h80zM325 -50q2 -32 22 -52.5t50 -20.5t50 20.5t22 52.5h55q-1 -29 -11 -52.5t-27 -40.5t-39.5 -26.5t-49.5 -9.5t-49.5 9.5t-39.5 26.5t-27 40.5t-11 52.5h55z" />
    <glyph glyph-name="Hcircumflex" unicode="&#x124;" horiz-adv-x="794" 
d="M438 919l102 -129h-68l-72 91l-72 -91h-68l102 129h76zM186 700v-317h422v317h80v-700h-80v310h-422v-310h-80v700h80z" />
    <glyph glyph-name="uni1E24" unicode="&#x1e24;" horiz-adv-x="794" 
d="M186 700v-317h422v317h80v-700h-80v310h-422v-310h-80v700h80zM397 -56q22 0 36.5 -15t14.5 -38t-14.5 -38t-36.5 -15t-36.5 15t-14.5 38t14.5 38t36.5 15z" />
    <glyph glyph-name="I" unicode="I" horiz-adv-x="292" 
d="M186 700v-700h-80v700h80z" />
    <glyph glyph-name="I.ss01" horiz-adv-x="470" 
d="M275 626v-552h141v-74h-361v74h140v552h-140v74h361v-74h-141z" />
    <glyph glyph-name="IJ" unicode="&#x132;" horiz-adv-x="775" 
d="M186 700v-700h-80v700h80zM686 209q0 -103 -53 -157.5t-147 -54.5q-59 0 -108 25.5t-86 73.5l40 62q33 -40 72.5 -61t80.5 -21q58 0 89 34.5t31 100.5v415h-250v74h331v-491z" />
    <glyph glyph-name="IJ.ss01" horiz-adv-x="953" 
d="M416 626h-141v-552h141v-74h-361v74h140v552h-140v74h361v-74zM863 700v-591q0 -103 -52.5 -157.5t-147.5 -54.5q-58 0 -107 25.5t-86 73.5l40 62q33 -40 72.5 -61t80.5 -21q58 0 89 34.5t31 100.5v515h-250v74h330z" />
    <glyph glyph-name="Iacute" unicode="&#xcd;" horiz-adv-x="292" 
d="M292 888l-124 -99h-75l120 135zM186 700v-700h-80v700h80z" />
    <glyph glyph-name="Iacute.ss01" horiz-adv-x="470" 
d="M257 789h-75l120 135l79 -36zM275 626v-552h141v-74h-361v74h140v552h-140v74h361v-74h-141z" />
    <glyph glyph-name="Iacute_J.loclNLD" horiz-adv-x="593" 
d="M669 888l-124 -99h-75l120 135zM199 877l-124 -99h-75l120 135zM186 700v-700h-80v700h80zM686 209q0 -103 -53 -157.5t-147 -54.5q-59 0 -108 25.5t-86 73.5l40 62q33 -40 72.5 -61t80.5 -21q58 0 89 34.5t31 100.5v415h-250v74h331v-491z" />
    <glyph glyph-name="Iacute_J.loclNLD.ss01" horiz-adv-x="953" 
d="M263 789h-75l120 135l79 -36zM719 788h-75l120 135l79 -36zM416 626h-141v-552h141v-74h-361v74h140v552h-140v74h361v-74zM863 700v-591q0 -103 -52.5 -157.5t-147.5 -54.5q-58 0 -107 25.5t-86 73.5l40 62q33 -40 72.5 -61t80.5 -21q58 0 89 34.5t31 100.5v515h-250v74
h330z" />
    <glyph glyph-name="Ibreve" unicode="&#x12c;" horiz-adv-x="292" 
d="M74 914q2 -32 22 -52.5t50 -20.5t50 20.5t22 52.5h55q-1 -29 -11 -52.5t-27 -40.5t-39.5 -26.5t-49.5 -9.5t-49.5 9.5t-39.5 26.5t-27 40.5t-11 52.5h55zM186 700v-700h-80v700h80z" />
    <glyph glyph-name="Ibreve.ss01" horiz-adv-x="470" 
d="M235 785q-27 0 -49.5 9.5t-39.5 26.5t-27 40.5t-11 52.5h55q2 -32 22 -52.5t50 -20.5t50 20.5t22 52.5h55q-1 -29 -11 -52.5t-27 -40.5t-39.5 -26.5t-49.5 -9.5zM275 626v-552h141v-74h-361v74h140v552h-140v74h361v-74h-141z" />
    <glyph glyph-name="Icircumflex" unicode="&#xce;" horiz-adv-x="292" 
d="M184 919l102 -129h-68l-72 91l-72 -91h-68l102 129h76zM186 700v-700h-80v700h80z" />
    <glyph glyph-name="Icircumflex.ss01" horiz-adv-x="470" 
d="M163 790h-68l102 129h76l102 -129h-68l-72 91zM275 626v-552h141v-74h-361v74h140v552h-140v74h361v-74h-141z" />
    <glyph glyph-name="uni0208" unicode="&#x208;" horiz-adv-x="292" 
d="M114 789h-65l-93 106l67 33zM261 789h-65l-93 106l67 33zM186 700v-700h-80v700h80z" />
    <glyph glyph-name="uni0208.ss01" horiz-adv-x="470" 
d="M138 789l-93 106l67 33l91 -139h-65zM285 789l-93 106l67 33l91 -139h-65zM275 626v-552h141v-74h-361v74h140v552h-140v74h361v-74h-141z" />
    <glyph glyph-name="Idieresis" unicode="&#xcf;" horiz-adv-x="292" 
d="M63 901q20 0 34 -14t14 -36q0 -20 -14 -34.5t-34 -14.5t-33.5 14.5t-13.5 34.5q0 22 13.5 36t33.5 14zM230 901q20 0 33.5 -14t13.5 -36q0 -20 -13.5 -34.5t-33.5 -14.5t-34 14.5t-14 34.5q0 22 14 36t34 14zM186 700v-700h-80v700h80z" />
    <glyph glyph-name="Idieresis.ss01" horiz-adv-x="470" 
d="M152 802q-20 0 -33.5 14.5t-13.5 34.5q0 22 13.5 36t33.5 14t34 -14t14 -36q0 -20 -14 -34.5t-34 -14.5zM319 802q-20 0 -34 14.5t-14 34.5q0 22 14 36t34 14t33.5 -14t13.5 -36q0 -20 -13.5 -34.5t-33.5 -14.5zM275 626v-552h141v-74h-361v74h140v552h-140v74h361v-74
h-141z" />
    <glyph glyph-name="uni1E2E" unicode="&#x1e2e;" horiz-adv-x="292" 
d="M298 1053l-124 -99h-75l120 135zM62 901q20 0 34 -14t14 -36q0 -20 -14 -34.5t-34 -14.5t-33.5 14.5t-13.5 34.5q0 22 13.5 36t33.5 14zM229 901q20 0 33.5 -14t13.5 -36q0 -20 -13.5 -34.5t-33.5 -14.5t-34 14.5t-14 34.5q0 22 14 36t34 14zM186 700v-700h-80v700h80z
" />
    <glyph glyph-name="uni1E2E.ss01" horiz-adv-x="470" 
d="M263 954h-75l120 135l79 -36zM151 802q-20 0 -33.5 14.5t-13.5 34.5q0 22 13.5 36t33.5 14t34 -14t14 -36q0 -20 -14 -34.5t-34 -14.5zM270 851q0 22 14 36t34 14t33.5 -14t13.5 -36q0 -20 -13.5 -34.5t-33.5 -14.5t-34 14.5t-14 34.5zM275 626v-552h141v-74h-361v74h140
v552h-140v74h361v-74h-141z" />
    <glyph glyph-name="Idotaccent" unicode="&#x130;" horiz-adv-x="292" 
d="M146 904q22 0 36.5 -15t14.5 -38t-14.5 -38t-36.5 -15t-36.5 15t-14.5 38t14.5 38t36.5 15zM186 700v-700h-80v700h80z" />
    <glyph glyph-name="Idotaccent.ss01" horiz-adv-x="470" 
d="M235 798q-22 0 -36.5 15t-14.5 38t14.5 38t36.5 15t36.5 -15t14.5 -38t-14.5 -38t-36.5 -15zM275 626v-552h141v-74h-361v74h140v552h-140v74h361v-74h-141z" />
    <glyph glyph-name="uni1ECA" unicode="&#x1eca;" horiz-adv-x="292" 
d="M186 700v-700h-80v700h80zM146 -55q22 0 36.5 -15t14.5 -38t-14.5 -38.5t-36.5 -15.5t-36.5 15.5t-14.5 38.5t14.5 38t36.5 15z" />
    <glyph glyph-name="uni1ECA.ss01" horiz-adv-x="470" 
d="M275 626v-552h141v-74h-361v74h140v552h-140v74h361v-74h-141zM235 -55q22 0 36.5 -15t14.5 -38t-14.5 -38.5t-36.5 -15.5t-36.5 15.5t-14.5 38.5t14.5 38t36.5 15z" />
    <glyph glyph-name="Igrave" unicode="&#xcc;" horiz-adv-x="292" 
d="M196 789h-75l-125 99l80 36zM186 700v-700h-80v700h80z" />
    <glyph glyph-name="Igrave.ss01" horiz-adv-x="470" 
d="M210 789l-125 99l80 36l120 -135h-75zM275 626v-552h141v-74h-361v74h140v552h-140v74h361v-74h-141z" />
    <glyph glyph-name="uni1EC8" unicode="&#x1ec8;" horiz-adv-x="292" 
d="M53 856q5 34 30 53.5t61 19.5q40 0 63.5 -23.5t23.5 -58.5q0 -29 -14.5 -51t-40.5 -42l-41 14q25 20 39 37.5t14 39.5q0 17 -11 28.5t-33 11.5t-35 -12t-15 -32zM186 700v-700h-80v700h80z" />
    <glyph glyph-name="uni1EC8.ss01" horiz-adv-x="470" 
d="M233 885q-22 0 -35 -12t-15 -32l-41 15q5 34 30 53.5t61 19.5q40 0 63.5 -23.5t23.5 -58.5q0 -29 -14.5 -51t-40.5 -42l-41 14q25 20 39 37.5t14 39.5q0 17 -11 28.5t-33 11.5zM275 626v-552h141v-74h-361v74h140v552h-140v74h361v-74h-141z" />
    <glyph glyph-name="uni020A" unicode="&#x20a;" horiz-adv-x="292" 
d="M19 786q1 28 11 52t27 41t39.5 26.5t49.5 9.5t49.5 -9.5t39.5 -26.5t27 -41t11 -52h-55q-2 32 -22 52.5t-50 20.5t-50 -20.5t-22 -52.5h-55zM186 700v-700h-80v700h80z" />
    <glyph glyph-name="uni020A.ss01" horiz-adv-x="470" 
d="M235 859q-30 0 -50 -20.5t-22 -52.5h-55q1 28 11 52t27 41t39.5 26.5t49.5 9.5t49.5 -9.5t39.5 -26.5t27 -41t11 -52h-55q-2 32 -22 52.5t-50 20.5zM275 626v-552h141v-74h-361v74h140v552h-140v74h361v-74h-141z" />
    <glyph glyph-name="Imacron" unicode="&#x12a;" horiz-adv-x="292" 
d="M266 860v-59h-241v59h241zM186 700v-700h-80v700h80z" />
    <glyph glyph-name="Imacron.ss01" horiz-adv-x="470" 
d="M356 821h-241v59h241v-59zM275 626v-552h141v-74h-361v74h140v552h-140v74h361v-74h-141z" />
    <glyph glyph-name="Iogonek" unicode="&#x12e;" horiz-adv-x="292" 
d="M171 0q-30 -42 -41.5 -68.5t-11.5 -46.5q0 -18 10 -28t25 -10t28.5 9t25.5 24l25 -30q-16 -23 -38.5 -36.5t-48.5 -13.5q-28 0 -50.5 18t-22.5 56q0 26 14 57t42 70h-22v699h80v-700h-15v0z" />
    <glyph glyph-name="Iogonek.ss01" horiz-adv-x="470" 
d="M423 -150q-17 -23 -39.5 -36.5t-47.5 -13.5q-29 0 -51 18t-22 56q0 26 13 56.5t42 69.5h-263v74h140v552h-140v74h361v-74h-141v-552h141v-74h-54q-30 -41 -42 -68t-12 -47q0 -18 10 -28t25 -10t28.5 9t25.5 24z" />
    <glyph glyph-name="Itilde" unicode="&#x128;" horiz-adv-x="292" 
d="M296 910q0 -112 -83 -112q-22 0 -38 9.5t-29.5 21t-26 21t-27.5 9.5q-43 0 -43 -53h-52q0 112 83 112q21 0 37 -9.5t29.5 -21t26.5 -21t28 -9.5q43 0 43 53h52zM186 700v-700h-80v700h80z" />
    <glyph glyph-name="Itilde.ss01" horiz-adv-x="470" 
d="M181 859q-43 0 -43 -53h-52q0 112 83 112q21 0 37 -9.5t29.5 -21t26.5 -21t28 -9.5q43 0 43 53h52q0 -112 -83 -112q-22 0 -38 9.5t-29.5 21t-26 21t-27.5 9.5zM275 626v-552h141v-74h-361v74h140v552h-140v74h361v-74h-141z" />
    <glyph glyph-name="J" unicode="J" horiz-adv-x="483" 
d="M394 209q0 -103 -53 -157.5t-147 -54.5q-59 0 -108 25.5t-86 73.5l40 62q33 -40 72.5 -61t80.5 -21q58 0 89 34.5t31 100.5v489h81v-491v0z" />
    <glyph glyph-name="J.ss01" horiz-adv-x="483" 
d="M393 109q0 -103 -52.5 -157.5t-147.5 -54.5q-58 0 -107 25.5t-86 73.5l40 62q33 -40 72.5 -61t80.5 -21q58 0 89 34.5t31 100.5v515h-250v74h330v-591v0z" />
    <glyph glyph-name="Jcircumflex" unicode="&#x134;" horiz-adv-x="483" 
d="M263 919l102 -129h-68l-72 91l-72 -91h-68l102 129h76zM394 209q0 -103 -53 -157.5t-147 -54.5q-59 0 -108 25.5t-86 73.5l40 62q33 -40 72.5 -61t80.5 -21q58 0 89 34.5t31 100.5v415h-250v74h331v-491z" />
    <glyph glyph-name="Jcircumflex.ss01" horiz-adv-x="483" 
d="M283 921l102 -129h-68l-72 91l-72 -91h-68l102 129h76zM393 109q0 -103 -52.5 -157.5t-147.5 -54.5q-58 0 -107 25.5t-86 73.5l40 62q33 -40 72.5 -61t80.5 -21q58 0 89 34.5t31 100.5v515h-250v74h330v-591z" />
    <glyph glyph-name="K" unicode="K" horiz-adv-x="699" 
d="M580 0l-258 333l-136 -150v-183h-80v700h80v-407l376 407h95l-278 -305l299 -395h-98z" />
    <glyph glyph-name="Kcommaaccent" unicode="&#x136;" horiz-adv-x="699" 
d="M678 0h-98l-258 333l-136 -150v-183h-80v700h80v-407l376 407h95l-278 -305zM346 -55q19 0 33 -13.5t14 -36.5q0 -20 -14 -42l-47 -71h-44l33 72q-12 7 -17.5 18t-5.5 24q0 21 14 35t34 14z" />
    <glyph glyph-name="L" unicode="L" horiz-adv-x="517" 
d="M186 700v-626h307v-74h-387v700h80z" />
    <glyph glyph-name="uni01C7" unicode="&#x1c7;" horiz-adv-x="1000" 
d="M186 700v-626h307v-74h-387v700h80zM911 209q0 -103 -53 -157.5t-147 -54.5q-59 0 -108 25.5t-86 73.5l40 62q33 -40 72.5 -61t80.5 -21q58 0 89 34.5t31 100.5v415h-250v74h331v-491z" />
    <glyph glyph-name="uni01C7.ss01" horiz-adv-x="1000" 
d="M186 700v-626h307v-74h-387v700h80zM910 109q0 -103 -52.5 -157.5t-147.5 -54.5q-58 0 -107 25.5t-86 73.5l40 62q33 -40 72.5 -61t80.5 -21q58 0 89 34.5t31 100.5v515h-250v74h330v-591z" />
    <glyph glyph-name="Lacute" unicode="&#x139;" horiz-adv-x="517" 
d="M297 888l-124 -99h-75l120 135zM186 700v-626h307v-74h-387v700h80z" />
    <glyph glyph-name="Lcaron" unicode="&#x13d;" horiz-adv-x="517" 
d="M186 700v-626h307v-74h-387v700h80zM493 700l-20 -193h-54v193h74z" />
    <glyph glyph-name="Lcommaaccent" unicode="&#x13b;" horiz-adv-x="517" 
d="M493 74v-74h-387v700h80v-626h307zM300 -55q19 0 33 -13.5t14 -36.5q0 -20 -14 -42l-47 -71h-44l33 72q-12 7 -17.5 18t-5.5 24q0 21 14 35t34 14z" />
    <glyph glyph-name="Ldot" unicode="&#x13f;" horiz-adv-x="517" 
d="M186 700v-626h307v-74h-387v700h80zM403 448q20 0 33.5 -14t13.5 -35t-13.5 -35.5t-33.5 -14.5t-33.5 14.5t-13.5 35.5t13.5 35t33.5 14z" />
    <glyph glyph-name="uni1E36" unicode="&#x1e36;" horiz-adv-x="517" 
d="M186 700v-626h307v-74h-387v700h80zM300 -56q22 0 36.5 -15t14.5 -38t-14.5 -38t-36.5 -15t-36.5 15t-14.5 38t14.5 38t36.5 15z" />
    <glyph glyph-name="uni01C8" unicode="&#x1c8;" horiz-adv-x="784" 
d="M648 731q23 0 38 -15.5t15 -38.5t-15 -38t-38 -15t-38 15t-15 38t15 38.5t38 15.5zM186 700v-626h307v-74h-387v700h80zM687 -20q0 -45 -12 -78.5t-32.5 -55.5t-48 -32.5t-58.5 -10.5q-29 0 -56.5 9.5t-50.5 26.5l28 62q17 -13 36.5 -20t39.5 -7q35 -1 55.5 22.5
t20.5 73.5v556h78v-546z" />
    <glyph glyph-name="uni1E3A" unicode="&#x1e3a;" horiz-adv-x="517" 
d="M186 700v-626h307v-74h-387v700h80zM420 -63v-59h-241v59h241z" />
    <glyph glyph-name="Lslash" unicode="&#x141;" horiz-adv-x="517" 
d="M493 74v-74h-387v393l-96 -28v58l96 28v249h80v-225l191 56v-60l-191 -55v-342h307z" />
    <glyph glyph-name="M" unicode="M" horiz-adv-x="921" 
d="M205 700l256 -508l255 508h98v-700h-74l-1 582l-255 -508h-48l-254 508v-582h-76v700h99z" />
    <glyph glyph-name="M.ss01" horiz-adv-x="1207" 
d="M887 700q50 0 92.5 -19t73 -53t48 -81t17.5 -103v-444h-81v427q0 43 -13 78.5t-36 61.5t-55 40.5t-71 14.5q-46 -1 -84.5 -19.5t-66.5 -49t-43.5 -72t-15.5 -89.5l-1 1v-393h-80v427q0 43 -13 78.5t-36.5 61.5t-55.5 40.5t-70 14.5q-43 -1 -79.5 -17t-64.5 -44t-45 -65.5
t-21 -80.5v-415h-80v700h80v-131q35 60 96 94.5t139 36.5q78 0 135.5 -44t80.5 -118q31 73 96.5 116.5t153.5 45.5z" />
    <glyph glyph-name="uni1E42" unicode="&#x1e42;" horiz-adv-x="921" 
d="M205 700l256 -508l255 508h98v-700h-74l-1 582l-255 -508h-48l-254 508v-582h-76v700h99zM461 -56q22 0 36.5 -15t14.5 -38t-14.5 -38t-36.5 -15t-36.5 15t-14.5 38t14.5 38t36.5 15z" />
    <glyph glyph-name="uni1E42.ss01" horiz-adv-x="1207" 
d="M887 700q50 0 92.5 -19t73 -53t48 -81t17.5 -103v-444h-81v427q0 43 -13 78.5t-36 61.5t-55 40.5t-71 14.5q-46 -1 -84.5 -19.5t-66.5 -49t-43.5 -72t-15.5 -89.5l-1 1v-393h-80v427q0 43 -13 78.5t-36.5 61.5t-55.5 40.5t-70 14.5q-43 -1 -79.5 -17t-64.5 -44t-45 -65.5
t-21 -80.5v-415h-80v700h80v-131q35 60 96 94.5t139 36.5q78 0 135.5 -44t80.5 -118q31 73 96.5 116.5t153.5 45.5zM611 -56q22 0 36.5 -15t14.5 -38t-14.5 -38t-36.5 -15t-36.5 15t-14.5 38t14.5 38t36.5 15z" />
    <glyph glyph-name="N" unicode="N" horiz-adv-x="795" 
d="M189 700l420 -569v569h79v-700h-82l-420 568v-568h-80v700h83z" />
    <glyph glyph-name="N.ss01" horiz-adv-x="778" 
d="M442 700q54 0 99 -19t77.5 -52.5t51 -80.5t18.5 -104v-444h-80v427q0 43 -14 78.5t-39.5 61.5t-60.5 40.5t-77 14.5q-48 -1 -88.5 -17.5t-70.5 -44t-49 -65.5t-23 -81v-414h-80v700h80v-136q37 62 103 98t153 38z" />
    <glyph glyph-name="uni01CA" unicode="&#x1ca;" horiz-adv-x="1278" 
d="M189 700l420 -569v569h79v-700h-82l-420 568v-568h-80v700h83zM1189 209q0 -103 -53 -157.5t-147 -54.5q-59 0 -108 25.5t-86 73.5l40 62q33 -40 72.5 -61t80.5 -21q58 0 89 34.5t31 100.5v415h-250v74h331v-491z" />
    <glyph glyph-name="uni01CA.ss01" horiz-adv-x="1261" 
d="M442 700q54 0 99 -19t77.5 -52.5t51 -80.5t18.5 -104v-444h-80v427q0 43 -14 78.5t-39.5 61.5t-60.5 40.5t-77 14.5q-48 -1 -88.5 -17.5t-70.5 -44t-49 -65.5t-23 -81v-414h-80v700h80v-136q37 62 103 98t153 38zM1171 700v-591q0 -103 -52.5 -157.5t-147.5 -54.5
q-58 0 -107 25.5t-86 73.5l40 62q33 -40 72.5 -61t80.5 -21q58 0 89 34.5t31 100.5v515h-250v74h330z" />
    <glyph glyph-name="Nacute" unicode="&#x143;" horiz-adv-x="795" 
d="M556 888l-124 -99h-75l120 135zM189 700l420 -569v569h79v-700h-82l-420 568v-568h-80v700h83z" />
    <glyph glyph-name="Nacute.ss01" horiz-adv-x="778" 
d="M441 789h-75l120 135l79 -36zM442 700q54 0 99 -19t77.5 -52.5t51 -80.5t18.5 -104v-444h-80v427q0 43 -14 78.5t-39.5 61.5t-60.5 40.5t-77 14.5q-48 -1 -88.5 -17.5t-70.5 -44t-49 -65.5t-23 -81v-414h-80v700h80v-136q37 62 103 98t153 38z" />
    <glyph glyph-name="Ncaron" unicode="&#x147;" horiz-adv-x="795" 
d="M336 919l72 -94l72 94h73l-104 -135h-82l-104 135h73zM189 700l420 -569v569h79v-700h-82l-420 568v-568h-80v700h83z" />
    <glyph glyph-name="Ncaron.ss01" horiz-adv-x="778" 
d="M376 784l-104 135h73l72 -94l72 94h73l-104 -135h-82zM442 700q54 0 99 -19t77.5 -52.5t51 -80.5t18.5 -104v-444h-80v427q0 43 -14 78.5t-39.5 61.5t-60.5 40.5t-77 14.5q-48 -1 -88.5 -17.5t-70.5 -44t-49 -65.5t-23 -81v-414h-80v700h80v-136q37 62 103 98t153 38z
" />
    <glyph glyph-name="Ncommaaccent" unicode="&#x145;" horiz-adv-x="795" 
d="M688 700v-700h-82l-420 568v-568h-80v700h83l420 -569v569h79zM396 -55q19 0 33 -13.5t14 -36.5q0 -20 -14 -42l-47 -71h-44l33 72q-12 7 -17.5 18t-5.5 24q0 21 14 35t34 14z" />
    <glyph glyph-name="Ncommaaccent.ss01" horiz-adv-x="778" 
d="M442 700q54 0 99 -19t77.5 -52.5t51 -80.5t18.5 -104v-444h-80v427q0 43 -14 78.5t-39.5 61.5t-60.5 40.5t-77 14.5q-48 -1 -88.5 -17.5t-70.5 -44t-49 -65.5t-23 -81v-414h-80v700h80v-136q37 62 103 98t153 38zM393 -55q19 0 33 -13.5t14 -36.5q0 -20 -14 -42l-47 -71
h-44l33 72q-12 7 -17.5 18t-5.5 24q0 21 14 35t34 14z" />
    <glyph glyph-name="uni1E44" unicode="&#x1e44;" horiz-adv-x="795" 
d="M410 904q22 0 36.5 -15t14.5 -38t-14.5 -38t-36.5 -15t-36.5 15t-14.5 38t14.5 38t36.5 15zM189 700l420 -569v569h79v-700h-82l-420 568v-568h-80v700h83z" />
    <glyph glyph-name="uni1E44.ss01" horiz-adv-x="778" 
d="M419 798q-22 0 -36.5 15t-14.5 38t14.5 38t36.5 15t36.5 -15t14.5 -38t-14.5 -38t-36.5 -15zM442 700q54 0 99 -19t77.5 -52.5t51 -80.5t18.5 -104v-444h-80v427q0 43 -14 78.5t-39.5 61.5t-60.5 40.5t-77 14.5q-48 -1 -88.5 -17.5t-70.5 -44t-49 -65.5t-23 -81v-414h-80
v700h80v-136q37 62 103 98t153 38z" />
    <glyph glyph-name="uni1E46" unicode="&#x1e46;" horiz-adv-x="795" 
d="M189 700l420 -569v569h79v-700h-82l-420 568v-568h-80v700h83zM396 -56q22 0 36.5 -15t14.5 -38t-14.5 -38t-36.5 -15t-36.5 15t-14.5 38t14.5 38t36.5 15z" />
    <glyph glyph-name="uni1E46.ss01" horiz-adv-x="778" 
d="M442 700q54 0 99 -19t77.5 -52.5t51 -80.5t18.5 -104v-444h-80v427q0 43 -14 78.5t-39.5 61.5t-60.5 40.5t-77 14.5q-48 -1 -88.5 -17.5t-70.5 -44t-49 -65.5t-23 -81v-414h-80v700h80v-136q37 62 103 98t153 38zM393 -56q22 0 36.5 -15t14.5 -38t-14.5 -38t-36.5 -15
t-36.5 15t-14.5 38t14.5 38t36.5 15z" />
    <glyph glyph-name="Eng" unicode="&#x14a;" horiz-adv-x="795" 
d="M688 700v-700q0 -94 -53 -147.5t-147 -53.5q-57 0 -104.5 22t-82.5 64l39 62q32 -34 70.5 -51t76.5 -17q54 0 85.5 30.5t35.5 90.5h-2l-420 568v-568h-80v700h83l420 -569v569h79z" />
    <glyph glyph-name="Eng.ss01" horiz-adv-x="779" 
d="M442 700q54 0 99 -19t77.5 -52.5t51 -80.5t18.5 -104v-444q0 -94 -53 -147.5t-147 -53.5q-57 0 -104.5 22t-82.5 64l39 62q32 -34 70.5 -51t76.5 -17q57 0 89 34.5t32 100.5v413q0 43 -14 78.5t-39.5 61.5t-60.5 40.5t-77 14.5q-48 -1 -88.5 -17.5t-70.5 -44t-49 -65.5
t-23 -81v-414h-80v700h80v-136q37 62 103 98t153 38z" />
    <glyph glyph-name="uni01CB" unicode="&#x1cb;" horiz-adv-x="1062" 
d="M926 731q23 0 38 -15.5t15 -38.5t-15 -38t-38 -15t-38 15t-15 38t15 38.5t38 15.5zM189 700l420 -569v569h79v-700h-82l-420 568v-568h-80v700h83zM965 -20q0 -45 -12 -78.5t-32.5 -55.5t-48 -32.5t-58.5 -10.5q-29 0 -56.5 9.5t-50.5 26.5l28 62q17 -13 36.5 -20
t39.5 -7q35 -1 55.5 22.5t20.5 73.5v556h78v-546z" />
    <glyph glyph-name="uni01CB.ss01" horiz-adv-x="1045" 
d="M909 624q-23 0 -38 15t-15 38t15 38.5t38 15.5t38 -15.5t15 -38.5t-15 -38t-38 -15zM442 700q54 0 99 -19t77.5 -52.5t51 -80.5t18.5 -104v-444h-80v427q0 43 -14 78.5t-39.5 61.5t-60.5 40.5t-77 14.5q-48 -1 -88.5 -17.5t-70.5 -44t-49 -65.5t-23 -81v-414h-80v700h80
v-136q37 62 103 98t153 38zM870 526h78v-546q0 -45 -12 -78.5t-32.5 -55.5t-48 -32.5t-58.5 -10.5q-29 0 -56.5 9.5t-50.5 26.5l28 62q17 -13 36.5 -20t39.5 -7q35 -1 55.5 22.5t20.5 73.5v556z" />
    <glyph glyph-name="uni1E48" unicode="&#x1e48;" horiz-adv-x="795" 
d="M189 700l420 -569v569h79v-700h-82l-420 568v-568h-80v700h83zM516 -63v-59h-241v59h241z" />
    <glyph glyph-name="uni1E48.ss01" horiz-adv-x="778" 
d="M442 700q54 0 99 -19t77.5 -52.5t51 -80.5t18.5 -104v-444h-80v427q0 43 -14 78.5t-39.5 61.5t-60.5 40.5t-77 14.5q-48 -1 -88.5 -17.5t-70.5 -44t-49 -65.5t-23 -81v-414h-80v700h80v-136q37 62 103 98t153 38zM272 -63h241v-59h-241v59z" />
    <glyph glyph-name="Ntilde" unicode="&#xd1;" horiz-adv-x="795" 
d="M560 910q0 -112 -83 -112q-22 0 -38 9.5t-29.5 21t-26 21t-27.5 9.5q-43 0 -43 -53h-52q0 112 83 112q21 0 37 -9.5t29.5 -21t26.5 -21t28 -9.5q43 0 43 53h52zM189 700l420 -569v569h79v-700h-82l-420 568v-568h-80v700h83z" />
    <glyph glyph-name="Ntilde.ss01" horiz-adv-x="778" 
d="M365 859q-43 0 -43 -53h-52q0 112 83 112q21 0 37 -9.5t29.5 -21t26.5 -21t28 -9.5q43 0 43 53h52q0 -112 -83 -112q-22 0 -38 9.5t-29.5 21t-26 21t-27.5 9.5zM442 700q54 0 99 -19t77.5 -52.5t51 -80.5t18.5 -104v-444h-80v427q0 43 -14 78.5t-39.5 61.5t-60.5 40.5
t-77 14.5q-48 -1 -88.5 -17.5t-70.5 -44t-49 -65.5t-23 -81v-414h-80v700h80v-136q37 62 103 98t153 38z" />
    <glyph glyph-name="O" unicode="O" horiz-adv-x="813" 
d="M407 702q76 0 143 -27.5t116.5 -75t78 -111.5t28.5 -138t-28.5 -138.5t-78 -112t-116.5 -75t-143 -27.5q-77 0 -144 27.5t-116.5 75t-78 112t-28.5 138.5t28.5 138t78 111.5t116.5 75t144 27.5zM407 628q-59 0 -111 -21.5t-91 -59t-61.5 -88.5t-22.5 -109t22.5 -109
t61.5 -89t91 -60t111 -22q58 0 110 22t90.5 60t61 89t22.5 109t-22.5 109t-61 88.5t-90.5 59t-110 21.5z" />
    <glyph glyph-name="Oacute" unicode="&#xd3;" horiz-adv-x="813" 
d="M550 888l-124 -99h-75l120 135zM407 702q76 0 143 -27.5t116.5 -75t78 -111.5t28.5 -138t-28.5 -138.5t-78 -112t-116.5 -75t-143 -27.5q-77 0 -144 27.5t-116.5 75t-78 112t-28.5 138.5t28.5 138t78 111.5t116.5 75t144 27.5zM407 628q-59 0 -111 -21.5t-91 -59
t-61.5 -88.5t-22.5 -109t22.5 -109t61.5 -89t91 -60t111 -22q58 0 110 22t90.5 60t61 89t22.5 109t-22.5 109t-61 88.5t-90.5 59t-110 21.5z" />
    <glyph glyph-name="Obreve" unicode="&#x14e;" horiz-adv-x="813" 
d="M332 914q2 -32 22 -52.5t50 -20.5t50 20.5t22 52.5h55q-1 -29 -11 -52.5t-27 -40.5t-39.5 -26.5t-49.5 -9.5t-49.5 9.5t-39.5 26.5t-27 40.5t-11 52.5h55zM407 702q76 0 143 -27.5t116.5 -75t78 -111.5t28.5 -138t-28.5 -138.5t-78 -112t-116.5 -75t-143 -27.5
q-77 0 -144 27.5t-116.5 75t-78 112t-28.5 138.5t28.5 138t78 111.5t116.5 75t144 27.5zM407 628q-59 0 -111 -21.5t-91 -59t-61.5 -88.5t-22.5 -109t22.5 -109t61.5 -89t91 -60t111 -22q58 0 110 22t90.5 60t61 89t22.5 109t-22.5 109t-61 88.5t-90.5 59t-110 21.5z" />
    <glyph glyph-name="Ocircumflex" unicode="&#xd4;" horiz-adv-x="813" 
d="M442 919l102 -129h-68l-72 91l-72 -91h-68l102 129h76zM407 702q76 0 143 -27.5t116.5 -75t78 -111.5t28.5 -138t-28.5 -138.5t-78 -112t-116.5 -75t-143 -27.5q-77 0 -144 27.5t-116.5 75t-78 112t-28.5 138.5t28.5 138t78 111.5t116.5 75t144 27.5zM407 628
q-59 0 -111 -21.5t-91 -59t-61.5 -88.5t-22.5 -109t22.5 -109t61.5 -89t91 -60t111 -22q58 0 110 22t90.5 60t61 89t22.5 109t-22.5 109t-61 88.5t-90.5 59t-110 21.5z" />
    <glyph glyph-name="uni1ED0" unicode="&#x1ed0;" horiz-adv-x="813" 
d="M690 990l-125 -99h-64l120 135zM442 921l102 -129h-68l-72 91l-72 -91h-68l102 129h76zM407 702q76 0 143 -27.5t116.5 -75t78 -111.5t28.5 -138t-28.5 -138.5t-78 -112t-116.5 -75t-143 -27.5q-77 0 -144 27.5t-116.5 75t-78 112t-28.5 138.5t28.5 138t78 111.5
t116.5 75t144 27.5zM407 628q-59 0 -111 -21.5t-91 -59t-61.5 -88.5t-22.5 -109t22.5 -109t61.5 -89t91 -60t111 -22q58 0 110 22t90.5 60t61 89t22.5 109t-22.5 109t-61 88.5t-90.5 59t-110 21.5z" />
    <glyph glyph-name="uni1ED8" unicode="&#x1ed8;" horiz-adv-x="813" 
d="M544 792h-68l-72 91l-72 -91h-68l102 129h76zM407 702q76 0 143 -27.5t116.5 -75t78 -111.5t28.5 -138t-28.5 -138.5t-78 -112t-116.5 -75t-143 -27.5q-77 0 -144 27.5t-116.5 75t-78 112t-28.5 138.5t28.5 138t78 111.5t116.5 75t144 27.5zM407 628q-59 0 -111 -21.5
t-91 -59t-61.5 -88.5t-22.5 -109t22.5 -109t61.5 -89t91 -60t111 -22q58 0 110 22t90.5 60t61 89t22.5 109t-22.5 109t-61 88.5t-90.5 59t-110 21.5zM407 -55q22 0 36.5 -15t14.5 -38t-14.5 -38.5t-36.5 -15.5t-36.5 15.5t-14.5 38.5t14.5 38t36.5 15z" />
    <glyph glyph-name="uni1ED2" unicode="&#x1ed2;" horiz-adv-x="813" 
d="M625 877h-64l-124 99l68 36zM442 921l102 -129h-68l-72 91l-72 -91h-68l102 129h76zM407 702q76 0 143 -27.5t116.5 -75t78 -111.5t28.5 -138t-28.5 -138.5t-78 -112t-116.5 -75t-143 -27.5q-77 0 -144 27.5t-116.5 75t-78 112t-28.5 138.5t28.5 138t78 111.5t116.5 75
t144 27.5zM407 628q-59 0 -111 -21.5t-91 -59t-61.5 -88.5t-22.5 -109t22.5 -109t61.5 -89t91 -60t111 -22q58 0 110 22t90.5 60t61 89t22.5 109t-22.5 109t-61 88.5t-90.5 59t-110 21.5z" />
    <glyph glyph-name="uni1ED4" unicode="&#x1ed4;" horiz-adv-x="813" 
d="M426 987q5 34 30 53.5t62 19.5q39 0 62.5 -23.5t23.5 -58.5q0 -29 -14.5 -51t-40.5 -42l-41 14q25 20 39 37.5t14 39.5q0 17 -11 28.5t-33 11.5t-35 -12t-15 -32zM442 921l102 -129h-68l-72 91l-72 -91h-68l102 129h76zM407 702q76 0 143 -27.5t116.5 -75t78 -111.5
t28.5 -138t-28.5 -138.5t-78 -112t-116.5 -75t-143 -27.5q-77 0 -144 27.5t-116.5 75t-78 112t-28.5 138.5t28.5 138t78 111.5t116.5 75t144 27.5zM407 628q-59 0 -111 -21.5t-91 -59t-61.5 -88.5t-22.5 -109t22.5 -109t61.5 -89t91 -60t111 -22q58 0 110 22t90.5 60t61 89
t22.5 109t-22.5 109t-61 88.5t-90.5 59t-110 21.5z" />
    <glyph glyph-name="uni1ED6" unicode="&#x1ed6;" horiz-adv-x="813" 
d="M551 1046q0 -111 -83 -111q-22 0 -38.5 9.5t-30 20.5l-26 20.5t-27.5 9.5q-42 0 -42 -53h-53q0 112 83 112q21 0 37 -9.5t30 -21t27 -21t28 -9.5q42 0 42 53h53zM442 921l102 -129h-68l-72 91l-72 -91h-68l102 129h76zM407 702q76 0 143 -27.5t116.5 -75t78 -111.5
t28.5 -138t-28.5 -138.5t-78 -112t-116.5 -75t-143 -27.5q-77 0 -144 27.5t-116.5 75t-78 112t-28.5 138.5t28.5 138t78 111.5t116.5 75t144 27.5zM407 628q-59 0 -111 -21.5t-91 -59t-61.5 -88.5t-22.5 -109t22.5 -109t61.5 -89t91 -60t111 -22q58 0 110 22t90.5 60t61 89
t22.5 109t-22.5 109t-61 88.5t-90.5 59t-110 21.5z" />
    <glyph glyph-name="uni020C" unicode="&#x20c;" horiz-adv-x="813" 
d="M372 789h-65l-93 106l67 33zM519 789h-65l-93 106l67 33zM407 702q76 0 143 -27.5t116.5 -75t78 -111.5t28.5 -138t-28.5 -138.5t-78 -112t-116.5 -75t-143 -27.5q-77 0 -144 27.5t-116.5 75t-78 112t-28.5 138.5t28.5 138t78 111.5t116.5 75t144 27.5zM407 628
q-59 0 -111 -21.5t-91 -59t-61.5 -88.5t-22.5 -109t22.5 -109t61.5 -89t91 -60t111 -22q58 0 110 22t90.5 60t61 89t22.5 109t-22.5 109t-61 88.5t-90.5 59t-110 21.5z" />
    <glyph glyph-name="Odieresis" unicode="&#xd6;" horiz-adv-x="813" 
d="M321 901q20 0 34 -14t14 -36q0 -20 -14 -34.5t-34 -14.5t-33.5 14.5t-13.5 34.5q0 22 13.5 36t33.5 14zM488 901q20 0 33.5 -14t13.5 -36q0 -20 -13.5 -34.5t-33.5 -14.5t-34 14.5t-14 34.5q0 22 14 36t34 14zM407 702q76 0 143 -27.5t116.5 -75t78 -111.5t28.5 -138
t-28.5 -138.5t-78 -112t-116.5 -75t-143 -27.5q-77 0 -144 27.5t-116.5 75t-78 112t-28.5 138.5t28.5 138t78 111.5t116.5 75t144 27.5zM407 628q-59 0 -111 -21.5t-91 -59t-61.5 -88.5t-22.5 -109t22.5 -109t61.5 -89t91 -60t111 -22q58 0 110 22t90.5 60t61 89t22.5 109
t-22.5 109t-61 88.5t-90.5 59t-110 21.5z" />
    <glyph glyph-name="uni022A" unicode="&#x22a;" horiz-adv-x="813" 
d="M524 1025v-59h-241v59h241zM320 901q20 0 34 -14t14 -36q0 -20 -14 -34.5t-34 -14.5t-33.5 14.5t-13.5 34.5q0 22 13.5 36t33.5 14zM487 901q20 0 33.5 -14t13.5 -36q0 -20 -13.5 -34.5t-33.5 -14.5t-34 14.5t-14 34.5q0 22 14 36t34 14zM407 702q76 0 143 -27.5
t116.5 -75t78 -111.5t28.5 -138t-28.5 -138.5t-78 -112t-116.5 -75t-143 -27.5q-77 0 -144 27.5t-116.5 75t-78 112t-28.5 138.5t28.5 138t78 111.5t116.5 75t144 27.5zM407 628q-59 0 -111 -21.5t-91 -59t-61.5 -88.5t-22.5 -109t22.5 -109t61.5 -89t91 -60t111 -22
q58 0 110 22t90.5 60t61 89t22.5 109t-22.5 109t-61 88.5t-90.5 59t-110 21.5z" />
    <glyph glyph-name="uni0230" unicode="&#x230;" horiz-adv-x="813" 
d="M524 1002v-59h-241v59h241zM404 904q22 0 36.5 -15t14.5 -38t-14.5 -38t-36.5 -15t-36.5 15t-14.5 38t14.5 38t36.5 15zM407 702q76 0 143 -27.5t116.5 -75t78 -111.5t28.5 -138t-28.5 -138.5t-78 -112t-116.5 -75t-143 -27.5q-77 0 -144 27.5t-116.5 75t-78 112
t-28.5 138.5t28.5 138t78 111.5t116.5 75t144 27.5zM407 628q-59 0 -111 -21.5t-91 -59t-61.5 -88.5t-22.5 -109t22.5 -109t61.5 -89t91 -60t111 -22q58 0 110 22t90.5 60t61 89t22.5 109t-22.5 109t-61 88.5t-90.5 59t-110 21.5z" />
    <glyph glyph-name="uni1ECC" unicode="&#x1ecc;" horiz-adv-x="813" 
d="M407 702q76 0 143 -27.5t116.5 -75t78 -111.5t28.5 -138t-28.5 -138.5t-78 -112t-116.5 -75t-143 -27.5q-77 0 -144 27.5t-116.5 75t-78 112t-28.5 138.5t28.5 138t78 111.5t116.5 75t144 27.5zM407 628q-59 0 -111 -21.5t-91 -59t-61.5 -88.5t-22.5 -109t22.5 -109
t61.5 -89t91 -60t111 -22q58 0 110 22t90.5 60t61 89t22.5 109t-22.5 109t-61 88.5t-90.5 59t-110 21.5zM407 -55q22 0 36.5 -15t14.5 -38t-14.5 -38.5t-36.5 -15.5t-36.5 15.5t-14.5 38.5t14.5 38t36.5 15z" />
    <glyph glyph-name="Ograve" unicode="&#xd2;" horiz-adv-x="813" 
d="M454 789h-75l-125 99l80 36zM407 702q76 0 143 -27.5t116.5 -75t78 -111.5t28.5 -138t-28.5 -138.5t-78 -112t-116.5 -75t-143 -27.5q-77 0 -144 27.5t-116.5 75t-78 112t-28.5 138.5t28.5 138t78 111.5t116.5 75t144 27.5zM407 628q-59 0 -111 -21.5t-91 -59
t-61.5 -88.5t-22.5 -109t22.5 -109t61.5 -89t91 -60t111 -22q58 0 110 22t90.5 60t61 89t22.5 109t-22.5 109t-61 88.5t-90.5 59t-110 21.5z" />
    <glyph glyph-name="uni1ECE" unicode="&#x1ece;" horiz-adv-x="813" 
d="M311 856q5 34 30 53.5t61 19.5q40 0 63.5 -23.5t23.5 -58.5q0 -29 -14.5 -51t-40.5 -42l-41 14q25 20 39 37.5t14 39.5q0 17 -11 28.5t-33 11.5t-35 -12t-15 -32zM407 702q76 0 143 -27.5t116.5 -75t78 -111.5t28.5 -138t-28.5 -138.5t-78 -112t-116.5 -75t-143 -27.5
q-77 0 -144 27.5t-116.5 75t-78 112t-28.5 138.5t28.5 138t78 111.5t116.5 75t144 27.5zM407 628q-59 0 -111 -21.5t-91 -59t-61.5 -88.5t-22.5 -109t22.5 -109t61.5 -89t91 -60t111 -22q58 0 110 22t90.5 60t61 89t22.5 109t-22.5 109t-61 88.5t-90.5 59t-110 21.5z" />
    <glyph glyph-name="Ohorn" unicode="&#x1a0;" horiz-adv-x="813" 
d="M580 661q43 -22 79 -54.5t61 -72.5t39 -86.5t14 -97.5q0 -74 -28.5 -138.5t-78 -112t-116.5 -75t-143 -27.5q-77 0 -144 27.5t-116.5 75t-78 112t-28.5 138.5t28.5 138t78 111.5t116.5 75t144 27.5q46 0 92 -11q39 5 62.5 31.5t23.5 66.5h62q-1 -42 -18.5 -75t-48.5 -53z
M407 70q58 0 110 22t90.5 60t61 89t22.5 109t-22.5 109t-61 88.5t-90.5 59t-110 21.5q-59 0 -111 -21.5t-91 -59t-61.5 -88.5t-22.5 -109t22.5 -109t61.5 -89t91 -60t111 -22z" />
    <glyph glyph-name="uni1EDA" unicode="&#x1eda;" horiz-adv-x="813" 
d="M432 789h-75l120 135l79 -36zM580 661q43 -22 79 -54.5t61 -72.5t39 -86.5t14 -97.5q0 -74 -28.5 -138.5t-78 -112t-116.5 -75t-143 -27.5q-77 0 -144 27.5t-116.5 75t-78 112t-28.5 138.5t28.5 138t78 111.5t116.5 75t144 27.5q46 0 92 -11q39 5 62.5 31.5t23.5 66.5h62
q-1 -42 -18.5 -75t-48.5 -53zM407 70q58 0 110 22t90.5 60t61 89t22.5 109t-22.5 109t-61 88.5t-90.5 59t-110 21.5q-59 0 -111 -21.5t-91 -59t-61.5 -88.5t-22.5 -109t22.5 -109t61.5 -89t91 -60t111 -22z" />
    <glyph glyph-name="uni1EE2" unicode="&#x1ee2;" horiz-adv-x="813" 
d="M580 661q43 -22 79 -54.5t61 -72.5t39 -86.5t14 -97.5q0 -74 -28.5 -138.5t-78 -112t-116.5 -75t-143 -27.5q-77 0 -144 27.5t-116.5 75t-78 112t-28.5 138.5t28.5 138t78 111.5t116.5 75t144 27.5q46 0 92 -11q39 5 62.5 31.5t23.5 66.5h62q-1 -42 -18.5 -75t-48.5 -53z
M407 70q58 0 110 22t90.5 60t61 89t22.5 109t-22.5 109t-61 88.5t-90.5 59t-110 21.5q-59 0 -111 -21.5t-91 -59t-61.5 -88.5t-22.5 -109t22.5 -109t61.5 -89t91 -60t111 -22zM407 -55q22 0 36.5 -15t14.5 -38t-14.5 -38.5t-36.5 -15.5t-36.5 15.5t-14.5 38.5t14.5 38
t36.5 15z" />
    <glyph glyph-name="uni1EDC" unicode="&#x1edc;" horiz-adv-x="813" 
d="M376 789l-125 99l80 36l120 -135h-75zM580 661q43 -22 79 -54.5t61 -72.5t39 -86.5t14 -97.5q0 -74 -28.5 -138.5t-78 -112t-116.5 -75t-143 -27.5q-77 0 -144 27.5t-116.5 75t-78 112t-28.5 138.5t28.5 138t78 111.5t116.5 75t144 27.5q46 0 92 -11q39 5 62.5 31.5
t23.5 66.5h62q-1 -42 -18.5 -75t-48.5 -53zM407 70q58 0 110 22t90.5 60t61 89t22.5 109t-22.5 109t-61 88.5t-90.5 59t-110 21.5q-59 0 -111 -21.5t-91 -59t-61.5 -88.5t-22.5 -109t22.5 -109t61.5 -89t91 -60t111 -22z" />
    <glyph glyph-name="uni1EDE" unicode="&#x1ede;" horiz-adv-x="813" 
d="M402 885q-22 0 -35 -12t-15 -32l-41 15q5 34 30 53.5t61 19.5q40 0 63.5 -23.5t23.5 -58.5q0 -29 -14.5 -51t-40.5 -42l-41 14q25 20 39 37.5t14 39.5q0 17 -11 28.5t-33 11.5zM580 661q43 -22 79 -54.5t61 -72.5t39 -86.5t14 -97.5q0 -74 -28.5 -138.5t-78 -112
t-116.5 -75t-143 -27.5q-77 0 -144 27.5t-116.5 75t-78 112t-28.5 138.5t28.5 138t78 111.5t116.5 75t144 27.5q46 0 92 -11q39 5 62.5 31.5t23.5 66.5h62q-1 -42 -18.5 -75t-48.5 -53zM407 70q58 0 110 22t90.5 60t61 89t22.5 109t-22.5 109t-61 88.5t-90.5 59t-110 21.5
q-59 0 -111 -21.5t-91 -59t-61.5 -88.5t-22.5 -109t22.5 -109t61.5 -89t91 -60t111 -22z" />
    <glyph glyph-name="uni1EE0" unicode="&#x1ee0;" horiz-adv-x="813" 
d="M350 859q-43 0 -43 -53h-52q0 112 83 112q21 0 37 -9.5t29.5 -21t26.5 -21t28 -9.5q43 0 43 53h52q0 -112 -83 -112q-22 0 -38 9.5t-29.5 21t-26 21t-27.5 9.5zM580 661q43 -22 79 -54.5t61 -72.5t39 -86.5t14 -97.5q0 -74 -28.5 -138.5t-78 -112t-116.5 -75t-143 -27.5
q-77 0 -144 27.5t-116.5 75t-78 112t-28.5 138.5t28.5 138t78 111.5t116.5 75t144 27.5q46 0 92 -11q39 5 62.5 31.5t23.5 66.5h62q-1 -42 -18.5 -75t-48.5 -53zM407 70q58 0 110 22t90.5 60t61 89t22.5 109t-22.5 109t-61 88.5t-90.5 59t-110 21.5q-59 0 -111 -21.5
t-91 -59t-61.5 -88.5t-22.5 -109t22.5 -109t61.5 -89t91 -60t111 -22z" />
    <glyph glyph-name="Ohungarumlaut" unicode="&#x150;" horiz-adv-x="813" 
d="M433 893l-92 -106h-65l91 139zM580 893l-92 -106h-65l91 139zM407 702q76 0 143 -27.5t116.5 -75t78 -111.5t28.5 -138t-28.5 -138.5t-78 -112t-116.5 -75t-143 -27.5q-77 0 -144 27.5t-116.5 75t-78 112t-28.5 138.5t28.5 138t78 111.5t116.5 75t144 27.5zM407 628
q-59 0 -111 -21.5t-91 -59t-61.5 -88.5t-22.5 -109t22.5 -109t61.5 -89t91 -60t111 -22q58 0 110 22t90.5 60t61 89t22.5 109t-22.5 109t-61 88.5t-90.5 59t-110 21.5z" />
    <glyph glyph-name="uni020E" unicode="&#x20e;" horiz-adv-x="813" 
d="M277 786q1 28 11 52t27 41t39.5 26.5t49.5 9.5t49.5 -9.5t39.5 -26.5t27 -41t11 -52h-55q-2 32 -22 52.5t-50 20.5t-50 -20.5t-22 -52.5h-55zM407 702q76 0 143 -27.5t116.5 -75t78 -111.5t28.5 -138t-28.5 -138.5t-78 -112t-116.5 -75t-143 -27.5q-77 0 -144 27.5
t-116.5 75t-78 112t-28.5 138.5t28.5 138t78 111.5t116.5 75t144 27.5zM407 628q-59 0 -111 -21.5t-91 -59t-61.5 -88.5t-22.5 -109t22.5 -109t61.5 -89t91 -60t111 -22q58 0 110 22t90.5 60t61 89t22.5 109t-22.5 109t-61 88.5t-90.5 59t-110 21.5z" />
    <glyph glyph-name="Omacron" unicode="&#x14c;" horiz-adv-x="813" 
d="M525 880v-59h-241v59h241zM407 702q76 0 143 -27.5t116.5 -75t78 -111.5t28.5 -138t-28.5 -138.5t-78 -112t-116.5 -75t-143 -27.5q-77 0 -144 27.5t-116.5 75t-78 112t-28.5 138.5t28.5 138t78 111.5t116.5 75t144 27.5zM407 628q-59 0 -111 -21.5t-91 -59t-61.5 -88.5
t-22.5 -109t22.5 -109t61.5 -89t91 -60t111 -22q58 0 110 22t90.5 60t61 89t22.5 109t-22.5 109t-61 88.5t-90.5 59t-110 21.5z" />
    <glyph glyph-name="uni1E52" unicode="&#x1e52;" horiz-adv-x="813" 
d="M556 1030l-124 -99h-75l120 135zM524 860v-59h-241v59h241zM407 702q76 0 143 -27.5t116.5 -75t78 -111.5t28.5 -138t-28.5 -138.5t-78 -112t-116.5 -75t-143 -27.5q-77 0 -144 27.5t-116.5 75t-78 112t-28.5 138.5t28.5 138t78 111.5t116.5 75t144 27.5zM407 628
q-59 0 -111 -21.5t-91 -59t-61.5 -88.5t-22.5 -109t22.5 -109t61.5 -89t91 -60t111 -22q58 0 110 22t90.5 60t61 89t22.5 109t-22.5 109t-61 88.5t-90.5 59t-110 21.5z" />
    <glyph glyph-name="uni1E50" unicode="&#x1e50;" horiz-adv-x="813" 
d="M451 931h-75l-125 99l80 36zM524 860v-59h-241v59h241zM407 702q76 0 143 -27.5t116.5 -75t78 -111.5t28.5 -138t-28.5 -138.5t-78 -112t-116.5 -75t-143 -27.5q-77 0 -144 27.5t-116.5 75t-78 112t-28.5 138.5t28.5 138t78 111.5t116.5 75t144 27.5zM407 628
q-59 0 -111 -21.5t-91 -59t-61.5 -88.5t-22.5 -109t22.5 -109t61.5 -89t91 -60t111 -22q58 0 110 22t90.5 60t61 89t22.5 109t-22.5 109t-61 88.5t-90.5 59t-110 21.5z" />
    <glyph glyph-name="uni01EA" unicode="&#x1ea;" horiz-adv-x="813" 
d="M773 350q0 -72 -27 -135t-74.5 -110.5t-111.5 -76t-137 -31.5q-29 -38 -40 -64.5t-11 -46.5q0 -18 10 -28t25 -10t28.5 9t25.5 24l26 -30q-17 -23 -39.5 -36.5t-47.5 -13.5q-29 0 -51 18t-22 56q0 26 13 55.5t40 67.5q-72 5 -134 34t-108 76.5t-72 109t-26 132.5
q0 74 28.5 138t78 111.5t116.5 75t144 27.5q76 0 143 -27.5t116.5 -75t78 -111.5t28.5 -138zM121 350q0 -58 22.5 -109t61.5 -89t91 -60t111 -22q58 0 110 22t90.5 60t61 89t22.5 109t-22.5 109t-61 88.5t-90.5 59t-110 21.5q-59 0 -111 -21.5t-91 -59t-61.5 -88.5
t-22.5 -109z" />
    <glyph glyph-name="Oslash" unicode="&#xd8;" horiz-adv-x="813" 
d="M628 632q66 -48 105.5 -121t39.5 -161q0 -74 -28.5 -138.5t-78 -112t-116.5 -75t-143 -27.5q-52 0 -99 12.5t-88 35.5l-70 -100h-50l85 123q-66 48 -105.5 121t-39.5 161q0 74 28.5 138t78 111.5t116.5 75t144 27.5q51 0 97.5 -12t87.5 -35l70 100h51zM121 350
q0 -67 29.5 -124t78.5 -95l319 460q-63 37 -141 37q-59 0 -111 -21.5t-91 -59t-61.5 -88.5t-22.5 -109zM407 70q58 0 110 22t90.5 60t61 89t22.5 109q0 67 -29 123.5t-79 94.5l-320 -460q32 -18 68.5 -28t75.5 -10z" />
    <glyph glyph-name="Oslashacute" unicode="&#x1fe;" horiz-adv-x="813" 
d="M435 789h-75l120 135l79 -36zM628 632q66 -48 105.5 -121t39.5 -161q0 -74 -28.5 -138.5t-78 -112t-116.5 -75t-143 -27.5q-52 0 -99 12.5t-88 35.5l-70 -100h-50l85 123q-66 48 -105.5 121t-39.5 161q0 74 28.5 138t78 111.5t116.5 75t144 27.5q51 0 97.5 -12t87.5 -35
l70 100h51zM121 350q0 -67 29.5 -124t78.5 -95l319 460q-63 37 -141 37q-59 0 -111 -21.5t-91 -59t-61.5 -88.5t-22.5 -109zM407 70q58 0 110 22t90.5 60t61 89t22.5 109q0 67 -29 123.5t-79 94.5l-320 -460q32 -18 68.5 -28t75.5 -10z" />
    <glyph glyph-name="Otilde" unicode="&#xd5;" horiz-adv-x="813" 
d="M554 910q0 -112 -83 -112q-22 0 -38 9.5t-29.5 21t-26 21t-27.5 9.5q-43 0 -43 -53h-52q0 112 83 112q21 0 37 -9.5t29.5 -21t26.5 -21t28 -9.5q43 0 43 53h52zM407 702q76 0 143 -27.5t116.5 -75t78 -111.5t28.5 -138t-28.5 -138.5t-78 -112t-116.5 -75t-143 -27.5
q-77 0 -144 27.5t-116.5 75t-78 112t-28.5 138.5t28.5 138t78 111.5t116.5 75t144 27.5zM407 628q-59 0 -111 -21.5t-91 -59t-61.5 -88.5t-22.5 -109t22.5 -109t61.5 -89t91 -60t111 -22q58 0 110 22t90.5 60t61 89t22.5 109t-22.5 109t-61 88.5t-90.5 59t-110 21.5z" />
    <glyph glyph-name="uni1E4C" unicode="&#x1e4c;" horiz-adv-x="813" 
d="M556 1065l-124 -99h-75l120 135zM554 910q0 -112 -83 -112q-22 0 -38 9.5t-29.5 21t-26 21t-27.5 9.5q-43 0 -43 -53h-52q0 112 83 112q21 0 37 -9.5t29.5 -21t26.5 -21t28 -9.5q43 0 43 53h52zM407 702q76 0 143 -27.5t116.5 -75t78 -111.5t28.5 -138t-28.5 -138.5
t-78 -112t-116.5 -75t-143 -27.5q-77 0 -144 27.5t-116.5 75t-78 112t-28.5 138.5t28.5 138t78 111.5t116.5 75t144 27.5zM407 628q-59 0 -111 -21.5t-91 -59t-61.5 -88.5t-22.5 -109t22.5 -109t61.5 -89t91 -60t111 -22q58 0 110 22t90.5 60t61 89t22.5 109t-22.5 109
t-61 88.5t-90.5 59t-110 21.5z" />
    <glyph glyph-name="uni1E4E" unicode="&#x1e4e;" horiz-adv-x="813" 
d="M320 1078q20 0 34 -14t14 -36q0 -20 -14 -34.5t-34 -14.5t-33.5 14.5t-13.5 34.5q0 22 13.5 36t33.5 14zM487 1078q20 0 33.5 -14t13.5 -36q0 -20 -13.5 -34.5t-33.5 -14.5t-34 14.5t-14 34.5q0 22 14 36t34 14zM554 910q0 -112 -83 -112q-22 0 -38 9.5t-29.5 21t-26 21
t-27.5 9.5q-43 0 -43 -53h-52q0 112 83 112q21 0 37 -9.5t29.5 -21t26.5 -21t28 -9.5q43 0 43 53h52zM407 702q76 0 143 -27.5t116.5 -75t78 -111.5t28.5 -138t-28.5 -138.5t-78 -112t-116.5 -75t-143 -27.5q-77 0 -144 27.5t-116.5 75t-78 112t-28.5 138.5t28.5 138
t78 111.5t116.5 75t144 27.5zM407 628q-59 0 -111 -21.5t-91 -59t-61.5 -88.5t-22.5 -109t22.5 -109t61.5 -89t91 -60t111 -22q58 0 110 22t90.5 60t61 89t22.5 109t-22.5 109t-61 88.5t-90.5 59t-110 21.5z" />
    <glyph glyph-name="uni022C" unicode="&#x22c;" horiz-adv-x="813" 
d="M524 1037v-59h-241v59h241zM554 910q0 -112 -83 -112q-22 0 -38 9.5t-29.5 21t-26 21t-27.5 9.5q-43 0 -43 -53h-52q0 112 83 112q21 0 37 -9.5t29.5 -21t26.5 -21t28 -9.5q43 0 43 53h52zM407 702q76 0 143 -27.5t116.5 -75t78 -111.5t28.5 -138t-28.5 -138.5t-78 -112
t-116.5 -75t-143 -27.5q-77 0 -144 27.5t-116.5 75t-78 112t-28.5 138.5t28.5 138t78 111.5t116.5 75t144 27.5zM407 628q-59 0 -111 -21.5t-91 -59t-61.5 -88.5t-22.5 -109t22.5 -109t61.5 -89t91 -60t111 -22q58 0 110 22t90.5 60t61 89t22.5 109t-22.5 109t-61 88.5
t-90.5 59t-110 21.5z" />
    <glyph glyph-name="OE" unicode="&#x152;" horiz-adv-x="1094" 
d="M1037 74v-74h-631q-77 0 -143.5 27t-116 74.5t-78 111t-28.5 137.5q0 73 28.5 137t78 111t116 74.5t143.5 27.5h618v-74h-396v-235h354v-73h-354v-244h409zM549 72v554h-142q-60 0 -112 -21.5t-90.5 -58.5t-61 -88t-22.5 -109t22.5 -108.5t61 -87.5t90.5 -58.5t112 -21.5
z" />
    <glyph glyph-name="P" unicode="P" horiz-adv-x="669" 
d="M369 700q131 0 202 -61.5t71 -173.5q0 -116 -71 -179.5t-202 -63.5h-183v-222h-80v700h263zM366 296q95 0 147 42t52 125q0 81 -52 122t-147 41h-180v-330h180z" />
    <glyph glyph-name="Thorn" unicode="&#xde;" horiz-adv-x="672" 
d="M348 596q146 0 221.5 -58.5t75.5 -170.5q0 -116 -75.5 -176.5t-221.5 -60.5h-162v-130h-80v700h80v-104h162zM345 198q218 0 218 167q0 163 -218 163h-159v-330h159z" />
    <glyph glyph-name="Q" unicode="Q" horiz-adv-x="825" 
d="M407 702q76 0 143 -27.5t116.5 -75t78 -111.5t28.5 -138q0 -60 -19 -113.5t-53 -98.5l82 -81l-57 -57l-81 81q-48 -40 -108.5 -62t-129.5 -22q-77 0 -144 27.5t-116.5 75t-78 112t-28.5 138.5t28.5 138t78 111.5t116.5 75t144 27.5zM554 286l90 -90q22 33 34.5 72
t12.5 82q0 58 -22.5 109t-61 88.5t-90.5 59t-110 21.5q-59 0 -111 -21.5t-91 -59t-61.5 -88.5t-22.5 -109t22.5 -109t61.5 -89t91 -60t111 -22q52 0 98.5 17.5t84.5 48.5l-93 93z" />
    <glyph glyph-name="Q.ss01" horiz-adv-x="813" 
d="M773 350q0 -70 -26 -131.5t-71 -109t-106 -76.5t-132 -35v-127h-70v128q-70 7 -130 36.5t-104 76.5t-69 108t-25 130q0 74 28.5 138t78 111.5t116.5 75t144 27.5q76 0 143 -27.5t116.5 -75t78 -111.5t28.5 -138zM438 72q53 6 99.5 29.5t80.5 60.5t53.5 85.5t19.5 102.5
q0 58 -22.5 109t-61 88.5t-90.5 59t-110 21.5q-59 0 -111 -21.5t-91 -59t-61.5 -88.5t-22.5 -109q0 -53 19 -100.5t52.5 -84.5t78.5 -61t97 -31v179h70v-180z" />
    <glyph glyph-name="R" unicode="R" horiz-adv-x="723" 
d="M564 0l-147 224q-11 -1 -22 -1.5t-23 -0.5h-186v-222h-80v700h266q132 0 204 -61.5t72 -173.5q0 -87 -41 -144.5t-117 -81.5l165 -239h-91zM372 296q96 0 147.5 42t51.5 125q0 81 -51.5 122t-147.5 41h-186v-330h186z" />
    <glyph glyph-name="Racute" unicode="&#x154;" horiz-adv-x="723" 
d="M372 789h-75l120 135l79 -36zM564 0l-147 224q-11 -1 -22 -1.5t-23 -0.5h-186v-222h-80v700h266q132 0 204 -61.5t72 -173.5q0 -87 -41 -144.5t-117 -81.5l165 -239h-91zM372 296q96 0 147.5 42t51.5 125q0 81 -51.5 122t-147.5 41h-186v-330h186z" />
    <glyph glyph-name="Rcaron" unicode="&#x158;" horiz-adv-x="723" 
d="M307 784l-104 135h73l72 -94l72 94h73l-104 -135h-82zM564 0l-147 224q-11 -1 -22 -1.5t-23 -0.5h-186v-222h-80v700h266q132 0 204 -61.5t72 -173.5q0 -87 -41 -144.5t-117 -81.5l165 -239h-91zM372 296q96 0 147.5 42t51.5 125q0 81 -51.5 122t-147.5 41h-186v-330h186
z" />
    <glyph glyph-name="Rcommaaccent" unicode="&#x156;" horiz-adv-x="723" 
d="M564 0l-147 224q-11 -1 -22 -1.5t-23 -0.5h-186v-222h-80v700h266q132 0 204 -61.5t72 -173.5q0 -87 -41 -144.5t-117 -81.5l165 -239h-91zM372 296q96 0 147.5 42t51.5 125q0 81 -51.5 122t-147.5 41h-186v-330h186zM360 -55q19 0 33 -13.5t14 -36.5q0 -20 -14 -42
l-47 -71h-44l33 72q-12 7 -17.5 18t-5.5 24q0 21 14 35t34 14z" />
    <glyph glyph-name="uni0210" unicode="&#x210;" horiz-adv-x="723" 
d="M253 789l-93 106l67 33l91 -139h-65zM400 789l-93 106l67 33l91 -139h-65zM564 0l-147 224q-11 -1 -22 -1.5t-23 -0.5h-186v-222h-80v700h266q132 0 204 -61.5t72 -173.5q0 -87 -41 -144.5t-117 -81.5l165 -239h-91zM372 296q96 0 147.5 42t51.5 125q0 81 -51.5 122
t-147.5 41h-186v-330h186z" />
    <glyph glyph-name="uni1E5A" unicode="&#x1e5a;" horiz-adv-x="723" 
d="M564 0l-147 224q-11 -1 -22 -1.5t-23 -0.5h-186v-222h-80v700h266q132 0 204 -61.5t72 -173.5q0 -87 -41 -144.5t-117 -81.5l165 -239h-91zM372 296q96 0 147.5 42t51.5 125q0 81 -51.5 122t-147.5 41h-186v-330h186zM360 -56q22 0 36.5 -15t14.5 -38t-14.5 -38
t-36.5 -15t-36.5 15t-14.5 38t14.5 38t36.5 15z" />
    <glyph glyph-name="uni0212" unicode="&#x212;" horiz-adv-x="723" 
d="M350 859q-30 0 -50 -20.5t-22 -52.5h-55q1 28 11 52t27 41t39.5 26.5t49.5 9.5t49.5 -9.5t39.5 -26.5t27 -41t11 -52h-55q-2 32 -22 52.5t-50 20.5zM564 0l-147 224q-11 -1 -22 -1.5t-23 -0.5h-186v-222h-80v700h266q132 0 204 -61.5t72 -173.5q0 -87 -41 -144.5
t-117 -81.5l165 -239h-91zM372 296q96 0 147.5 42t51.5 125q0 81 -51.5 122t-147.5 41h-186v-330h186z" />
    <glyph glyph-name="uni1E5E" unicode="&#x1e5e;" horiz-adv-x="723" 
d="M655 0h-91l-147 224q-11 -1 -22 -1.5t-23 -0.5h-186v-222h-80v700h266q132 0 204 -61.5t72 -173.5q0 -87 -41 -144.5t-117 -81.5zM372 296q96 0 147.5 42t51.5 125q0 81 -51.5 122t-147.5 41h-186v-330h186zM239 -63h241v-59h-241v59z" />
    <glyph glyph-name="S" unicode="S" horiz-adv-x="611" 
d="M502 567q-48 31 -99.5 44.5t-93.5 13.5q-68 0 -108.5 -25.5t-40.5 -70.5q0 -34 17 -56.5t44.5 -38t63 -26.5l72.5 -22.5t72 -26t63 -36.5t44.5 -54.5t16.5 -80.5q0 -44 -18.5 -79t-52 -60t-80 -38.5t-102.5 -13.5q-77 0 -147.5 29.5t-120.5 77.5l36 69q49 -47 111 -72.5
t122 -25.5q76 0 120 29t44 80q0 35 -16.5 58t-44.5 38.5t-63 26.5l-72 22.5t-72.5 25.5t-63 35.5t-44.5 53.5t-17 79q0 41 17.5 74.5t49 57t76.5 36t99 12.5q61 0 119.5 -18t102.5 -47l-34 -71v0z" />
    <glyph glyph-name="Sacute" unicode="&#x15a;" horiz-adv-x="611" 
d="M453 888l-124 -99h-75l120 135zM502 567q-48 31 -99.5 44.5t-93.5 13.5q-68 0 -108.5 -25.5t-40.5 -70.5q0 -34 17 -56.5t44.5 -38t63 -26.5l72.5 -22.5t72 -26t63 -36.5t44.5 -54.5t16.5 -80.5q0 -44 -18.5 -79t-52 -60t-80 -38.5t-102.5 -13.5q-77 0 -147.5 29.5
t-120.5 77.5l36 69q49 -47 111 -72.5t122 -25.5q76 0 120 29t44 80q0 35 -16.5 58t-44.5 38.5t-63 26.5l-72 22.5t-72.5 25.5t-63 35.5t-44.5 53.5t-17 79q0 41 17.5 74.5t49 57t76.5 36t99 12.5q61 0 119.5 -18t102.5 -47z" />
    <glyph glyph-name="uni1E64" unicode="&#x1e64;" horiz-adv-x="611" 
d="M307 1072q22 0 36.5 -15t14.5 -38t-14.5 -38t-36.5 -15t-36.5 15t-14.5 38t14.5 38t36.5 15zM459 888l-124 -99h-75l120 135zM502 567q-48 31 -99.5 44.5t-93.5 13.5q-68 0 -108.5 -25.5t-40.5 -70.5q0 -34 17 -56.5t44.5 -38t63 -26.5l72.5 -22.5t72 -26t63 -36.5
t44.5 -54.5t16.5 -80.5q0 -44 -18.5 -79t-52 -60t-80 -38.5t-102.5 -13.5q-77 0 -147.5 29.5t-120.5 77.5l36 69q49 -47 111 -72.5t122 -25.5q76 0 120 29t44 80q0 35 -16.5 58t-44.5 38.5t-63 26.5l-72 22.5t-72.5 25.5t-63 35.5t-44.5 53.5t-17 79q0 41 17.5 74.5t49 57
t76.5 36t99 12.5q61 0 119.5 -18t102.5 -47z" />
    <glyph glyph-name="Scaron" unicode="&#x160;" horiz-adv-x="611" 
d="M233 919l72 -94l72 94h73l-104 -135h-82l-104 135h73zM502 567q-48 31 -99.5 44.5t-93.5 13.5q-68 0 -108.5 -25.5t-40.5 -70.5q0 -34 17 -56.5t44.5 -38t63 -26.5l72.5 -22.5t72 -26t63 -36.5t44.5 -54.5t16.5 -80.5q0 -44 -18.5 -79t-52 -60t-80 -38.5t-102.5 -13.5
q-77 0 -147.5 29.5t-120.5 77.5l36 69q49 -47 111 -72.5t122 -25.5q76 0 120 29t44 80q0 35 -16.5 58t-44.5 38.5t-63 26.5l-72 22.5t-72.5 25.5t-63 35.5t-44.5 53.5t-17 79q0 41 17.5 74.5t49 57t76.5 36t99 12.5q61 0 119.5 -18t102.5 -47z" />
    <glyph glyph-name="uni1E66" unicode="&#x1e66;" horiz-adv-x="611" 
d="M307 1077q22 0 36.5 -15t14.5 -38t-14.5 -38t-36.5 -15t-36.5 15t-14.5 38t14.5 38t36.5 15zM235 921l72 -94l72 94h73l-104 -135h-82l-104 135h73zM502 567q-48 31 -99.5 44.5t-93.5 13.5q-68 0 -108.5 -25.5t-40.5 -70.5q0 -34 17 -56.5t44.5 -38t63 -26.5l72.5 -22.5
t72 -26t63 -36.5t44.5 -54.5t16.5 -80.5q0 -44 -18.5 -79t-52 -60t-80 -38.5t-102.5 -13.5q-77 0 -147.5 29.5t-120.5 77.5l36 69q49 -47 111 -72.5t122 -25.5q76 0 120 29t44 80q0 35 -16.5 58t-44.5 38.5t-63 26.5l-72 22.5t-72.5 25.5t-63 35.5t-44.5 53.5t-17 79
q0 41 17.5 74.5t49 57t76.5 36t99 12.5q61 0 119.5 -18t102.5 -47z" />
    <glyph glyph-name="Scedilla" unicode="&#x15e;" horiz-adv-x="611" 
d="M160 529q0 -34 17 -56.5t44.5 -38t63 -26.5l72.5 -22.5t72 -26t63 -36.5t44.5 -54.5t16.5 -80.5q0 -78 -55.5 -127.5t-148.5 -60.5l-22 -50q31 -4 51 -23.5t20 -51.5q1 -41 -27 -65.5t-70 -24.5q-23 0 -44.5 7t-36.5 18l17 41q12 -9 28 -14.5t31 -5.5q25 0 39.5 14.5
t13.5 33.5q0 17 -13 30t-37 13q-8 0 -17 -1t-16 -2l33 78q-76 0 -146.5 29.5t-120.5 77.5l36 69q49 -47 111 -72.5t122 -25.5q76 0 120 29t44 80q0 35 -16.5 58t-44.5 38.5t-63 26.5l-72 22.5t-72.5 25.5t-63 35.5t-44.5 53.5t-17 79q0 41 17.5 74.5t49 57t76.5 36t99 12.5
q61 0 119.5 -18t102.5 -47l-34 -71q-48 31 -99.5 44.5t-93.5 13.5q-68 0 -108.5 -25.5t-40.5 -70.5z" />
    <glyph glyph-name="Scircumflex" unicode="&#x15c;" horiz-adv-x="611" 
d="M345 919l102 -129h-68l-72 91l-72 -91h-68l102 129h76zM502 567q-48 31 -99.5 44.5t-93.5 13.5q-68 0 -108.5 -25.5t-40.5 -70.5q0 -34 17 -56.5t44.5 -38t63 -26.5l72.5 -22.5t72 -26t63 -36.5t44.5 -54.5t16.5 -80.5q0 -44 -18.5 -79t-52 -60t-80 -38.5t-102.5 -13.5
q-77 0 -147.5 29.5t-120.5 77.5l36 69q49 -47 111 -72.5t122 -25.5q76 0 120 29t44 80q0 35 -16.5 58t-44.5 38.5t-63 26.5l-72 22.5t-72.5 25.5t-63 35.5t-44.5 53.5t-17 79q0 41 17.5 74.5t49 57t76.5 36t99 12.5q61 0 119.5 -18t102.5 -47z" />
    <glyph glyph-name="Scommaaccent" unicode="&#x218;" horiz-adv-x="611" 
d="M160 529q0 -34 17 -56.5t44.5 -38t63 -26.5l72.5 -22.5t72 -26t63 -36.5t44.5 -54.5t16.5 -80.5q0 -44 -18.5 -79t-52 -60t-80 -38.5t-102.5 -13.5q-77 0 -147.5 29.5t-120.5 77.5l36 69q49 -47 111 -72.5t122 -25.5q76 0 120 29t44 80q0 35 -16.5 58t-44.5 38.5
t-63 26.5l-72 22.5t-72.5 25.5t-63 35.5t-44.5 53.5t-17 79q0 41 17.5 74.5t49 57t76.5 36t99 12.5q61 0 119.5 -18t102.5 -47l-34 -71q-48 31 -99.5 44.5t-93.5 13.5q-68 0 -108.5 -25.5t-40.5 -70.5zM309 -55q19 0 33 -13.5t14 -36.5q0 -20 -14 -42l-47 -71h-44l33 72
q-12 7 -17.5 18t-5.5 24q0 21 14 35t34 14z" />
    <glyph glyph-name="uni1E60" unicode="&#x1e60;" horiz-adv-x="611" 
d="M307 904q22 0 36.5 -15t14.5 -38t-14.5 -38t-36.5 -15t-36.5 15t-14.5 38t14.5 38t36.5 15zM502 567q-48 31 -99.5 44.5t-93.5 13.5q-68 0 -108.5 -25.5t-40.5 -70.5q0 -34 17 -56.5t44.5 -38t63 -26.5l72.5 -22.5t72 -26t63 -36.5t44.5 -54.5t16.5 -80.5
q0 -44 -18.5 -79t-52 -60t-80 -38.5t-102.5 -13.5q-77 0 -147.5 29.5t-120.5 77.5l36 69q49 -47 111 -72.5t122 -25.5q76 0 120 29t44 80q0 35 -16.5 58t-44.5 38.5t-63 26.5l-72 22.5t-72.5 25.5t-63 35.5t-44.5 53.5t-17 79q0 41 17.5 74.5t49 57t76.5 36t99 12.5
q61 0 119.5 -18t102.5 -47z" />
    <glyph glyph-name="uni1E62" unicode="&#x1e62;" horiz-adv-x="611" 
d="M502 567q-48 31 -99.5 44.5t-93.5 13.5q-68 0 -108.5 -25.5t-40.5 -70.5q0 -34 17 -56.5t44.5 -38t63 -26.5l72.5 -22.5t72 -26t63 -36.5t44.5 -54.5t16.5 -80.5q0 -44 -18.5 -79t-52 -60t-80 -38.5t-102.5 -13.5q-77 0 -147.5 29.5t-120.5 77.5l36 69q49 -47 111 -72.5
t122 -25.5q76 0 120 29t44 80q0 35 -16.5 58t-44.5 38.5t-63 26.5l-72 22.5t-72.5 25.5t-63 35.5t-44.5 53.5t-17 79q0 41 17.5 74.5t49 57t76.5 36t99 12.5q61 0 119.5 -18t102.5 -47zM309 -56q22 0 36.5 -15t14.5 -38t-14.5 -38t-36.5 -15t-36.5 15t-14.5 38t14.5 38
t36.5 15z" />
    <glyph glyph-name="uni1E68" unicode="&#x1e68;" horiz-adv-x="611" 
d="M307 904q22 0 36.5 -15t14.5 -38t-14.5 -38t-36.5 -15t-36.5 15t-14.5 38t14.5 38t36.5 15zM502 567q-48 31 -99.5 44.5t-93.5 13.5q-68 0 -108.5 -25.5t-40.5 -70.5q0 -34 17 -56.5t44.5 -38t63 -26.5l72.5 -22.5t72 -26t63 -36.5t44.5 -54.5t16.5 -80.5
q0 -44 -18.5 -79t-52 -60t-80 -38.5t-102.5 -13.5q-77 0 -147.5 29.5t-120.5 77.5l36 69q49 -47 111 -72.5t122 -25.5q76 0 120 29t44 80q0 35 -16.5 58t-44.5 38.5t-63 26.5l-72 22.5t-72.5 25.5t-63 35.5t-44.5 53.5t-17 79q0 41 17.5 74.5t49 57t76.5 36t99 12.5
q61 0 119.5 -18t102.5 -47zM309 -56q22 0 36.5 -15t14.5 -38t-14.5 -38t-36.5 -15t-36.5 15t-14.5 38t14.5 38t36.5 15z" />
    <glyph glyph-name="uni1E9E" unicode="&#x1e9e;" horiz-adv-x="675" 
d="M448 398q91 -14 137.5 -66.5t46.5 -129.5q0 -47 -16.5 -84t-47.5 -63.5t-75.5 -40.5t-100.5 -14h-83v73h83q74 0 116.5 34.5t42.5 94.5q0 59 -42 92.5t-120 33.5h-30v74l161 187q-29 17 -66 28t-87 11q-93 0 -146 -50t-53 -143v-435h-80v435q0 63 19 113t55 84t87 52
t116 18q77 0 131.5 -22t90.5 -50v-70l-139 -162v0z" />
    <glyph glyph-name="uni018F" unicode="&#x18f;" horiz-adv-x="784" 
d="M391 -3q-77 0 -142 28t-112.5 78t-74.5 118.5t-27 148.5h630q-3 54 -26 101.5t-60 82t-85 54.5t-102 20q-68 0 -126 -28t-97 -77l-57 56q51 57 120 90t159 33q74 0 138.5 -27.5t112 -75t75 -111.5t27.5 -138t-27.5 -138.5t-75 -112t-112 -75t-138.5 -27.5zM392 70
q51 0 96.5 17t81 47t59 71.5t31.5 90.5h-539q7 -49 30.5 -90.5t59.5 -71.5t82 -47t99 -17z" />
    <glyph glyph-name="uni018F.ss01" horiz-adv-x="759" 
d="M366 702q74 0 138.5 -27.5t112 -75t75 -111.5t27.5 -138t-27.5 -138.5t-75 -112t-112 -75t-138.5 -27.5q-64 0 -117.5 19.5t-96 52.5t-73 77.5t-47.5 94.5l581 230q-33 71 -98.5 114t-147.5 43q-68 0 -125.5 -28t-97.5 -77l-57 56q51 57 120.5 90t158.5 33zM367 70
q60 0 110.5 22.5t86.5 60.5t56.5 88.5t20.5 106.5q0 14 -1.5 26.5t-3.5 25.5l-505 -200q16 -26 39 -49.5t53 -41.5t66 -28.5t78 -10.5z" />
    <glyph glyph-name="T" unicode="T" horiz-adv-x="558" 
d="M548 700v-74h-229v-626h-80v626h-228v74h537z" />
    <glyph glyph-name="T.ss01" horiz-adv-x="633" 
d="M569 563q-48 25 -102.5 40t-111.5 19v-622h-80v623q-57 -5 -111.5 -20t-102.5 -40l-28 71q62 33 134 51t147 18t147.5 -18t135.5 -52z" />
    <glyph glyph-name="Tbar" unicode="&#x166;" horiz-adv-x="558" 
d="M319 626v-228h163v-59h-163v-339h-80v339h-162v59h162v228h-228v74h537v-74h-229z" />
    <glyph glyph-name="Tbar.ss01" horiz-adv-x="633" 
d="M569 563q-48 26 -102.5 40.5t-111.5 19.5v-225h163v-59h-163v-339h-80v339h-162v59h162v225q-57 -5 -111.5 -20t-102.5 -40l-28 71q62 33 134 51t147 18t147.5 -18t135.5 -52l-28 -70v0z" />
    <glyph glyph-name="Tcaron" unicode="&#x164;" horiz-adv-x="558" 
d="M210 919l72 -94l72 94h73l-104 -135h-82l-104 135h73zM548 700v-74h-229v-626h-80v626h-228v74h537z" />
    <glyph glyph-name="Tcaron.ss01" horiz-adv-x="633" 
d="M274 784l-104 135h73l72 -94l72 94h73l-104 -135h-82zM569 563q-48 25 -102.5 40t-111.5 19v-622h-80v623q-57 -5 -111.5 -20t-102.5 -40l-28 71q62 33 134 51t147 18t147.5 -18t135.5 -52z" />
    <glyph glyph-name="uni0162" unicode="&#x162;" horiz-adv-x="558" 
d="M319 626v-618h4l-26 -58q31 -4 51 -23.5t20 -51.5q1 -41 -27 -65.5t-70 -24.5q-23 0 -44.5 7t-36.5 18l17 41q12 -9 28 -14.5t31 -5.5q25 0 39.5 14.5t13.5 33.5q0 17 -13 30t-37 13q-8 0 -17 -1t-16 -2l35 81h-32v626h-228v74h537v-74h-229z" />
    <glyph glyph-name="uni0162.ss01" horiz-adv-x="633" 
d="M569 563q-48 25 -102.5 40t-111.5 19v-614h4l-26 -58q31 -4 51 -23.5t20 -51.5q1 -41 -27 -65.5t-70 -24.5q-23 0 -44.5 7t-36.5 18l17 41q12 -9 28 -14.5t31 -5.5q25 0 39.5 14.5t13.5 33.5q0 17 -13 30t-37 13q-8 0 -17 -1t-16 -2l35 81h-32v623q-57 -5 -111.5 -20
t-102.5 -40l-28 71q62 33 134 51t147 18t147.5 -18t135.5 -52l-28 -70v0z" />
    <glyph glyph-name="uni021A" unicode="&#x21a;" horiz-adv-x="558" 
d="M548 700v-74h-229v-626h-80v626h-228v74h537zM279 -55q19 0 33 -13.5t14 -36.5q0 -20 -14 -42l-47 -71h-44l33 72q-12 7 -17.5 18t-5.5 24q0 21 14 35t34 14z" />
    <glyph glyph-name="uni021A.ss01" horiz-adv-x="633" 
d="M314 703q75 0 147.5 -18t135.5 -52l-28 -70q-48 25 -102.5 40t-111.5 19v-622h-80v623q-57 -5 -111.5 -20t-102.5 -40l-28 71q62 33 134 51t147 18zM315 -55q19 0 33 -13.5t14 -36.5q0 -20 -14 -42l-47 -71h-44l33 72q-12 7 -17.5 18t-5.5 24q0 21 14 35t34 14z" />
    <glyph glyph-name="uni1E6C" unicode="&#x1e6c;" horiz-adv-x="558" 
d="M548 700v-74h-229v-626h-80v626h-228v74h537zM279 -56q22 0 36.5 -15t14.5 -38t-14.5 -38t-36.5 -15t-36.5 15t-14.5 38t14.5 38t36.5 15z" />
    <glyph glyph-name="uni1E6C.ss01" horiz-adv-x="633" 
d="M314 703q75 0 147.5 -18t135.5 -52l-28 -70q-48 25 -102.5 40t-111.5 19v-622h-80v623q-57 -5 -111.5 -20t-102.5 -40l-28 71q62 33 134 51t147 18zM315 -56q22 0 36.5 -15t14.5 -38t-14.5 -38t-36.5 -15t-36.5 15t-14.5 38t14.5 38t36.5 15z" />
    <glyph glyph-name="uni1E6E" unicode="&#x1e6e;" horiz-adv-x="558" 
d="M548 700v-74h-229v-626h-80v626h-228v74h537zM399 -63v-59h-241v59h241z" />
    <glyph glyph-name="uni1E6E.ss01" horiz-adv-x="633" 
d="M314 703q75 0 147.5 -18t135.5 -52l-28 -70q-48 25 -102.5 40t-111.5 19v-622h-80v623q-57 -5 -111.5 -20t-102.5 -40l-28 71q62 33 134 51t147 18zM194 -63h241v-59h-241v59z" />
    <glyph glyph-name="U" unicode="U" horiz-adv-x="768" 
d="M170 288q0 -104 57.5 -161t157.5 -57t156.5 57t56.5 161v412h80v-412q0 -69 -20 -123t-58 -91.5t-92 -57t-123 -19.5t-123.5 19.5t-93 57t-58.5 91.5t-20 123v412h80v-412v0z" />
    <glyph glyph-name="U.ss01" horiz-adv-x="778" 
d="M672 700v-700h-80v136q-37 -62 -103 -98t-153 -38q-54 0 -99 19t-77.5 52.5t-51 80.5t-18.5 104v444h80v-427q0 -43 14 -78.5t39.5 -61.5t60.5 -40.5t77 -14.5q48 1 88.5 17.5t70.5 44t49 65t23 81.5v414h80z" />
    <glyph glyph-name="Uacute" unicode="&#xda;" horiz-adv-x="768" 
d="M530 888l-124 -99h-75l120 135zM170 288q0 -104 57.5 -161t157.5 -57t156.5 57t56.5 161v412h80v-412q0 -69 -20 -123t-58 -91.5t-92 -57t-123 -19.5t-123.5 19.5t-93 57t-58.5 91.5t-20 123v412h80v-412z" />
    <glyph glyph-name="Uacute.ss01" horiz-adv-x="778" 
d="M392 789h-75l120 135l79 -36zM672 700v-700h-80v136q-37 -62 -103 -98t-153 -38q-54 0 -99 19t-77.5 52.5t-51 80.5t-18.5 104v444h80v-427q0 -43 14 -78.5t39.5 -61.5t60.5 -40.5t77 -14.5q48 1 88.5 17.5t70.5 44t49 65t23 81.5v414h80z" />
    <glyph glyph-name="Ubreve" unicode="&#x16c;" horiz-adv-x="768" 
d="M312 914q2 -32 22 -52.5t50 -20.5t50 20.5t22 52.5h55q-1 -29 -11 -52.5t-27 -40.5t-39.5 -26.5t-49.5 -9.5t-49.5 9.5t-39.5 26.5t-27 40.5t-11 52.5h55zM170 288q0 -104 57.5 -161t157.5 -57t156.5 57t56.5 161v412h80v-412q0 -69 -20 -123t-58 -91.5t-92 -57
t-123 -19.5t-123.5 19.5t-93 57t-58.5 91.5t-20 123v412h80v-412z" />
    <glyph glyph-name="Ubreve.ss01" horiz-adv-x="778" 
d="M370 785q-27 0 -49.5 9.5t-39.5 26.5t-27 40.5t-11 52.5h55q2 -32 22 -52.5t50 -20.5t50 20.5t22 52.5h55q-1 -29 -11 -52.5t-27 -40.5t-39.5 -26.5t-49.5 -9.5zM672 700v-700h-80v136q-37 -62 -103 -98t-153 -38q-54 0 -99 19t-77.5 52.5t-51 80.5t-18.5 104v444h80
v-427q0 -43 14 -78.5t39.5 -61.5t60.5 -40.5t77 -14.5q48 1 88.5 17.5t70.5 44t49 65t23 81.5v414h80z" />
    <glyph glyph-name="Ucircumflex" unicode="&#xdb;" horiz-adv-x="768" 
d="M422 919l102 -129h-68l-72 91l-72 -91h-68l102 129h76zM170 288q0 -104 57.5 -161t157.5 -57t156.5 57t56.5 161v412h80v-412q0 -69 -20 -123t-58 -91.5t-92 -57t-123 -19.5t-123.5 19.5t-93 57t-58.5 91.5t-20 123v412h80v-412z" />
    <glyph glyph-name="Ucircumflex.ss01" horiz-adv-x="778" 
d="M298 790h-68l102 129h76l102 -129h-68l-72 91zM672 700v-700h-80v136q-37 -62 -103 -98t-153 -38q-54 0 -99 19t-77.5 52.5t-51 80.5t-18.5 104v444h80v-427q0 -43 14 -78.5t39.5 -61.5t60.5 -40.5t77 -14.5q48 1 88.5 17.5t70.5 44t49 65t23 81.5v414h80z" />
    <glyph glyph-name="uni0214" unicode="&#x214;" horiz-adv-x="768" 
d="M352 789h-65l-93 106l67 33zM499 789h-65l-93 106l67 33zM170 288q0 -104 57.5 -161t157.5 -57t156.5 57t56.5 161v412h80v-412q0 -69 -20 -123t-58 -91.5t-92 -57t-123 -19.5t-123.5 19.5t-93 57t-58.5 91.5t-20 123v412h80v-412z" />
    <glyph glyph-name="uni0214.ss01" horiz-adv-x="778" 
d="M273 789l-93 106l67 33l91 -139h-65zM420 789l-93 106l67 33l91 -139h-65zM672 700v-700h-80v136q-37 -62 -103 -98t-153 -38q-54 0 -99 19t-77.5 52.5t-51 80.5t-18.5 104v444h80v-427q0 -43 14 -78.5t39.5 -61.5t60.5 -40.5t77 -14.5q48 1 88.5 17.5t70.5 44t49 65
t23 81.5v414h80z" />
    <glyph glyph-name="Udieresis" unicode="&#xdc;" horiz-adv-x="768" 
d="M301 901q20 0 34 -14t14 -36q0 -20 -14 -34.5t-34 -14.5t-33.5 14.5t-13.5 34.5q0 22 13.5 36t33.5 14zM468 901q20 0 33.5 -14t13.5 -36q0 -20 -13.5 -34.5t-33.5 -14.5t-34 14.5t-14 34.5q0 22 14 36t34 14zM170 288q0 -104 57.5 -161t157.5 -57t156.5 57t56.5 161v412
h80v-412q0 -69 -20 -123t-58 -91.5t-92 -57t-123 -19.5t-123.5 19.5t-93 57t-58.5 91.5t-20 123v412h80v-412z" />
    <glyph glyph-name="Udieresis.ss01" horiz-adv-x="778" 
d="M287 802q-20 0 -33.5 14.5t-13.5 34.5q0 22 13.5 36t33.5 14t34 -14t14 -36q0 -20 -14 -34.5t-34 -14.5zM454 802q-20 0 -34 14.5t-14 34.5q0 22 14 36t34 14t33.5 -14t13.5 -36q0 -20 -13.5 -34.5t-33.5 -14.5zM672 700v-700h-80v136q-37 -62 -103 -98t-153 -38
q-54 0 -99 19t-77.5 52.5t-51 80.5t-18.5 104v444h80v-427q0 -43 14 -78.5t39.5 -61.5t60.5 -40.5t77 -14.5q48 1 88.5 17.5t70.5 44t49 65t23 81.5v414h80z" />
    <glyph glyph-name="uni1EE4" unicode="&#x1ee4;" horiz-adv-x="768" 
d="M170 288q0 -104 57.5 -161t157.5 -57t156.5 57t56.5 161v412h80v-412q0 -69 -20 -123t-58 -91.5t-92 -57t-123 -19.5t-123.5 19.5t-93 57t-58.5 91.5t-20 123v412h80v-412zM385 -55q22 0 36.5 -15t14.5 -38t-14.5 -38.5t-36.5 -15.5t-36.5 15.5t-14.5 38.5t14.5 38
t36.5 15z" />
    <glyph glyph-name="uni1EE4.ss01" horiz-adv-x="778" 
d="M672 700v-700h-80v136q-37 -62 -103 -98t-153 -38q-54 0 -99 19t-77.5 52.5t-51 80.5t-18.5 104v444h80v-427q0 -43 14 -78.5t39.5 -61.5t60.5 -40.5t77 -14.5q48 1 88.5 17.5t70.5 44t49 65t23 81.5v414h80zM380 -55q22 0 36.5 -15t14.5 -38t-14.5 -38.5t-36.5 -15.5
t-36.5 15.5t-14.5 38.5t14.5 38t36.5 15z" />
    <glyph glyph-name="Ugrave" unicode="&#xd9;" horiz-adv-x="768" 
d="M434 789h-75l-125 99l80 36zM170 288q0 -104 57.5 -161t157.5 -57t156.5 57t56.5 161v412h80v-412q0 -69 -20 -123t-58 -91.5t-92 -57t-123 -19.5t-123.5 19.5t-93 57t-58.5 91.5t-20 123v412h80v-412z" />
    <glyph glyph-name="Ugrave.ss01" horiz-adv-x="778" 
d="M345 789l-125 99l80 36l120 -135h-75zM672 700v-700h-80v136q-37 -62 -103 -98t-153 -38q-54 0 -99 19t-77.5 52.5t-51 80.5t-18.5 104v444h80v-427q0 -43 14 -78.5t39.5 -61.5t60.5 -40.5t77 -14.5q48 1 88.5 17.5t70.5 44t49 65t23 81.5v414h80z" />
    <glyph glyph-name="uni1EE6" unicode="&#x1ee6;" horiz-adv-x="768" 
d="M291 856q5 34 30 53.5t61 19.5q40 0 63.5 -23.5t23.5 -58.5q0 -29 -14.5 -51t-40.5 -42l-41 14q25 20 39 37.5t14 39.5q0 17 -11 28.5t-33 11.5t-35 -12t-15 -32zM170 288q0 -104 57.5 -161t157.5 -57t156.5 57t56.5 161v412h80v-412q0 -69 -20 -123t-58 -91.5t-92 -57
t-123 -19.5t-123.5 19.5t-93 57t-58.5 91.5t-20 123v412h80v-412z" />
    <glyph glyph-name="uni1EE6.ss01" horiz-adv-x="778" 
d="M368 885q-22 0 -35 -12t-15 -32l-41 15q5 34 30 53.5t61 19.5q40 0 63.5 -23.5t23.5 -58.5q0 -29 -14.5 -51t-40.5 -42l-41 14q25 20 39 37.5t14 39.5q0 17 -11 28.5t-33 11.5zM672 700v-700h-80v136q-37 -62 -103 -98t-153 -38q-54 0 -99 19t-77.5 52.5t-51 80.5
t-18.5 104v444h80v-427q0 -43 14 -78.5t39.5 -61.5t60.5 -40.5t77 -14.5q48 1 88.5 17.5t70.5 44t49 65t23 81.5v414h80z" />
    <glyph glyph-name="Uhorn" unicode="&#x1af;" horiz-adv-x="768" 
d="M776 789q-1 -51 -27 -89t-71 -55v-357q0 -69 -20 -123t-58 -91.5t-92 -57t-123 -19.5t-123.5 19.5t-93 57t-58.5 91.5t-20 123v412h80v-412q0 -104 57.5 -161t157.5 -57t156.5 57t56.5 161v412h62q25 11 39.5 34t14.5 55h62v0z" />
    <glyph glyph-name="Uhorn.ss01" horiz-adv-x="778" 
d="M762 789q-1 -49 -24.5 -85.5t-65.5 -55.5v-648h-80v136q-37 -62 -103 -98t-153 -38q-54 0 -99 19t-77.5 52.5t-51 80.5t-18.5 104v444h80v-427q0 -43 14 -78.5t39.5 -61.5t60.5 -40.5t77 -14.5q48 1 88.5 17.5t70.5 44t49 65t23 81.5v414h54q25 11 39.5 34t14.5 55h62v0z
" />
    <glyph glyph-name="uni1EE8" unicode="&#x1ee8;" horiz-adv-x="768" 
d="M412 789h-75l120 135l79 -36zM776 789q-1 -51 -27 -89t-71 -55v-357q0 -69 -20 -123t-58 -91.5t-92 -57t-123 -19.5t-123.5 19.5t-93 57t-58.5 91.5t-20 123v412h80v-412q0 -104 57.5 -161t157.5 -57t156.5 57t56.5 161v412h62q25 11 39.5 34t14.5 55h62z" />
    <glyph glyph-name="uni1EE8.ss01" horiz-adv-x="778" 
d="M398 789h-75l120 135l79 -36zM762 789q-1 -49 -24.5 -85.5t-65.5 -55.5v-648h-80v136q-37 -62 -103 -98t-153 -38q-54 0 -99 19t-77.5 52.5t-51 80.5t-18.5 104v444h80v-427q0 -43 14 -78.5t39.5 -61.5t60.5 -40.5t77 -14.5q48 1 88.5 17.5t70.5 44t49 65t23 81.5v414h54
q25 11 39.5 34t14.5 55h62z" />
    <glyph glyph-name="uni1EF0" unicode="&#x1ef0;" horiz-adv-x="768" 
d="M776 789q-1 -51 -27 -89t-71 -55v-357q0 -69 -20 -123t-58 -91.5t-92 -57t-123 -19.5t-123.5 19.5t-93 57t-58.5 91.5t-20 123v412h80v-412q0 -104 57.5 -161t157.5 -57t156.5 57t56.5 161v412h62q25 11 39.5 34t14.5 55h62zM385 -55q22 0 36.5 -15t14.5 -38t-14.5 -38.5
t-36.5 -15.5t-36.5 15.5t-14.5 38.5t14.5 38t36.5 15z" />
    <glyph glyph-name="uni1EF0.ss01" horiz-adv-x="778" 
d="M762 789q-1 -49 -24.5 -85.5t-65.5 -55.5v-648h-80v136q-37 -62 -103 -98t-153 -38q-54 0 -99 19t-77.5 52.5t-51 80.5t-18.5 104v444h80v-427q0 -43 14 -78.5t39.5 -61.5t60.5 -40.5t77 -14.5q48 1 88.5 17.5t70.5 44t49 65t23 81.5v414h54q25 11 39.5 34t14.5 55h62z
M380 -55q22 0 36.5 -15t14.5 -38t-14.5 -38.5t-36.5 -15.5t-36.5 15.5t-14.5 38.5t14.5 38t36.5 15z" />
    <glyph glyph-name="uni1EEA" unicode="&#x1eea;" horiz-adv-x="768" 
d="M356 789l-125 99l80 36l120 -135h-75zM776 789q-1 -51 -27 -89t-71 -55v-357q0 -69 -20 -123t-58 -91.5t-92 -57t-123 -19.5t-123.5 19.5t-93 57t-58.5 91.5t-20 123v412h80v-412q0 -104 57.5 -161t157.5 -57t156.5 57t56.5 161v412h62q25 11 39.5 34t14.5 55h62z" />
    <glyph glyph-name="uni1EEA.ss01" horiz-adv-x="778" 
d="M342 789l-125 99l80 36l120 -135h-75zM762 789q-1 -49 -24.5 -85.5t-65.5 -55.5v-648h-80v136q-37 -62 -103 -98t-153 -38q-54 0 -99 19t-77.5 52.5t-51 80.5t-18.5 104v444h80v-427q0 -43 14 -78.5t39.5 -61.5t60.5 -40.5t77 -14.5q48 1 88.5 17.5t70.5 44t49 65
t23 81.5v414h54q25 11 39.5 34t14.5 55h62z" />
    <glyph glyph-name="uni1EEC" unicode="&#x1eec;" horiz-adv-x="768" 
d="M382 885q-22 0 -35 -12t-15 -32l-41 15q5 34 30 53.5t61 19.5q40 0 63.5 -23.5t23.5 -58.5q0 -29 -14.5 -51t-40.5 -42l-41 14q25 20 39 37.5t14 39.5q0 17 -11 28.5t-33 11.5zM776 789q-1 -51 -27 -89t-71 -55v-357q0 -69 -20 -123t-58 -91.5t-92 -57t-123 -19.5
t-123.5 19.5t-93 57t-58.5 91.5t-20 123v412h80v-412q0 -104 57.5 -161t157.5 -57t156.5 57t56.5 161v412h62q25 11 39.5 34t14.5 55h62z" />
    <glyph glyph-name="uni1EEC.ss01" horiz-adv-x="778" 
d="M368 885q-22 0 -35 -12t-15 -32l-41 15q5 34 30 53.5t61 19.5q40 0 63.5 -23.5t23.5 -58.5q0 -29 -14.5 -51t-40.5 -42l-41 14q25 20 39 37.5t14 39.5q0 17 -11 28.5t-33 11.5zM762 789q-1 -49 -24.5 -85.5t-65.5 -55.5v-648h-80v136q-37 -62 -103 -98t-153 -38
q-54 0 -99 19t-77.5 52.5t-51 80.5t-18.5 104v444h80v-427q0 -43 14 -78.5t39.5 -61.5t60.5 -40.5t77 -14.5q48 1 88.5 17.5t70.5 44t49 65t23 81.5v414h54q25 11 39.5 34t14.5 55h62z" />
    <glyph glyph-name="uni1EEE" unicode="&#x1eee;" horiz-adv-x="768" 
d="M330 859q-43 0 -43 -53h-52q0 112 83 112q21 0 37 -9.5t29.5 -21t26.5 -21t28 -9.5q43 0 43 53h52q0 -112 -83 -112q-22 0 -38 9.5t-29.5 21t-26 21t-27.5 9.5zM776 789q-1 -51 -27 -89t-71 -55v-357q0 -69 -20 -123t-58 -91.5t-92 -57t-123 -19.5t-123.5 19.5t-93 57
t-58.5 91.5t-20 123v412h80v-412q0 -104 57.5 -161t157.5 -57t156.5 57t56.5 161v412h62q25 11 39.5 34t14.5 55h62z" />
    <glyph glyph-name="uni1EEE.ss01" horiz-adv-x="778" 
d="M316 859q-43 0 -43 -53h-52q0 112 83 112q21 0 37 -9.5t29.5 -21t26.5 -21t28 -9.5q43 0 43 53h52q0 -112 -83 -112q-22 0 -38 9.5t-29.5 21t-26 21t-27.5 9.5zM762 789q-1 -49 -24.5 -85.5t-65.5 -55.5v-648h-80v136q-37 -62 -103 -98t-153 -38q-54 0 -99 19t-77.5 52.5
t-51 80.5t-18.5 104v444h80v-427q0 -43 14 -78.5t39.5 -61.5t60.5 -40.5t77 -14.5q48 1 88.5 17.5t70.5 44t49 65t23 81.5v414h54q25 11 39.5 34t14.5 55h62z" />
    <glyph glyph-name="Uhungarumlaut" unicode="&#x170;" horiz-adv-x="768" 
d="M413 893l-92 -106h-65l91 139zM560 893l-92 -106h-65l91 139zM170 288q0 -104 57.5 -161t157.5 -57t156.5 57t56.5 161v412h80v-412q0 -69 -20 -123t-58 -91.5t-92 -57t-123 -19.5t-123.5 19.5t-93 57t-58.5 91.5t-20 123v412h80v-412z" />
    <glyph glyph-name="Uhungarumlaut.ss01" horiz-adv-x="778" 
d="M307 787h-65l91 139l66 -33zM389 787l91 139l66 -33l-92 -106h-65zM672 700v-700h-80v136q-37 -62 -103 -98t-153 -38q-54 0 -99 19t-77.5 52.5t-51 80.5t-18.5 104v444h80v-427q0 -43 14 -78.5t39.5 -61.5t60.5 -40.5t77 -14.5q48 1 88.5 17.5t70.5 44t49 65t23 81.5
v414h80z" />
    <glyph glyph-name="uni0216" unicode="&#x216;" horiz-adv-x="768" 
d="M257 786q1 28 11 52t27 41t39.5 26.5t49.5 9.5t49.5 -9.5t39.5 -26.5t27 -41t11 -52h-55q-2 32 -22 52.5t-50 20.5t-50 -20.5t-22 -52.5h-55zM170 288q0 -104 57.5 -161t157.5 -57t156.5 57t56.5 161v412h80v-412q0 -69 -20 -123t-58 -91.5t-92 -57t-123 -19.5
t-123.5 19.5t-93 57t-58.5 91.5t-20 123v412h80v-412z" />
    <glyph glyph-name="uni0216.ss01" horiz-adv-x="778" 
d="M370 859q-30 0 -50 -20.5t-22 -52.5h-55q1 28 11 52t27 41t39.5 26.5t49.5 9.5t49.5 -9.5t39.5 -26.5t27 -41t11 -52h-55q-2 32 -22 52.5t-50 20.5zM672 700v-700h-80v136q-37 -62 -103 -98t-153 -38q-54 0 -99 19t-77.5 52.5t-51 80.5t-18.5 104v444h80v-427
q0 -43 14 -78.5t39.5 -61.5t60.5 -40.5t77 -14.5q48 1 88.5 17.5t70.5 44t49 65t23 81.5v414h80z" />
    <glyph glyph-name="Umacron" unicode="&#x16a;" horiz-adv-x="768" 
d="M505 880v-59h-241v59h241zM170 288q0 -104 57.5 -161t157.5 -57t156.5 57t56.5 161v412h80v-412q0 -69 -20 -123t-58 -91.5t-92 -57t-123 -19.5t-123.5 19.5t-93 57t-58.5 91.5t-20 123v412h80v-412z" />
    <glyph glyph-name="Umacron.ss01" horiz-adv-x="778" 
d="M491 821h-241v59h241v-59zM672 700v-700h-80v136q-37 -62 -103 -98t-153 -38q-54 0 -99 19t-77.5 52.5t-51 80.5t-18.5 104v444h80v-427q0 -43 14 -78.5t39.5 -61.5t60.5 -40.5t77 -14.5q48 1 88.5 17.5t70.5 44t49 65t23 81.5v414h80z" />
    <glyph glyph-name="uni1E7A" unicode="&#x1e7a;" horiz-adv-x="768" 
d="M300 1043q20 0 34 -14t14 -36q0 -20 -14 -34.5t-34 -14.5t-33.5 14.5t-13.5 34.5q0 22 13.5 36t33.5 14zM467 1043q20 0 33.5 -14t13.5 -36q0 -20 -13.5 -34.5t-33.5 -14.5t-34 14.5t-14 34.5q0 22 14 36t34 14zM504 860v-59h-241v59h241zM170 288q0 -104 57.5 -161
t157.5 -57t156.5 57t56.5 161v412h80v-412q0 -69 -20 -123t-58 -91.5t-92 -57t-123 -19.5t-123.5 19.5t-93 57t-58.5 91.5t-20 123v412h80v-412z" />
    <glyph glyph-name="uni1E7A.ss01" horiz-adv-x="778" 
d="M286 944q-20 0 -33.5 14.5t-13.5 34.5q0 22 13.5 36t33.5 14t34 -14t14 -36q0 -20 -14 -34.5t-34 -14.5zM453 944q-20 0 -34 14.5t-14 34.5q0 22 14 36t34 14t33.5 -14t13.5 -36q0 -20 -13.5 -34.5t-33.5 -14.5zM249 860h241v-59h-241v59zM672 700v-700h-80v136
q-37 -62 -103 -98t-153 -38q-54 0 -99 19t-77.5 52.5t-51 80.5t-18.5 104v444h80v-427q0 -43 14 -78.5t39.5 -61.5t60.5 -40.5t77 -14.5q48 1 88.5 17.5t70.5 44t49 65t23 81.5v414h80z" />
    <glyph glyph-name="Uogonek" unicode="&#x172;" horiz-adv-x="769" 
d="M678 700v-412q0 -111 -51 -183t-145 -96q-33 -45 -46.5 -74t-13.5 -50q0 -18 10 -28t25 -10t28.5 9t25.5 24l26 -30q-17 -23 -39.5 -36.5t-47.5 -13.5q-29 0 -51 18t-22 56q0 26 13 56.5t41 68.5q-11 -1 -22.5 -1.5t-23.5 -0.5q-69 0 -123.5 20t-93 57.5t-58.5 91.5
t-20 122v412h80v-412q0 -103 57.5 -160.5t157.5 -57.5t156.5 57t56.5 161v412h80z" />
    <glyph glyph-name="Uogonek.ss01" horiz-adv-x="778" 
d="M706 -150q-17 -23 -39.5 -36.5t-47.5 -13.5q-29 0 -51 18t-22 56q0 26 13 56.5t42 69.5h-9v136q-37 -62 -103 -98t-153 -38q-54 0 -99 19t-77.5 52.5t-51 80.5t-18.5 104v444h80v-427q0 -43 14 -78.5t39.5 -61.5t60.5 -40.5t77 -14.5q48 1 88.5 17.5t70.5 44t49 65
t23 81.5v414h80v-700h-27q-30 -41 -42 -68t-12 -47q0 -18 10 -28t25 -10t28.5 9t25.5 24z" />
    <glyph glyph-name="Uring" unicode="&#x16e;" horiz-adv-x="768" 
d="M384 966q24 0 45 -9t36.5 -25t25 -36.5t9.5 -43.5t-9.5 -43.5t-25 -36t-36.5 -24.5t-45 -9t-44.5 9t-36.5 24.5t-25 36t-9 43.5t9 43.5t25 36.5t36.5 25t44.5 9zM384 926q-32 0 -54.5 -22t-22.5 -52t22.5 -51.5t54.5 -21.5t55 21.5t23 51.5t-23 52t-55 22zM170 288
q0 -104 57.5 -161t157.5 -57t156.5 57t56.5 161v412h80v-412q0 -69 -20 -123t-58 -91.5t-92 -57t-123 -19.5t-123.5 19.5t-93 57t-58.5 91.5t-20 123v412h80v-412z" />
    <glyph glyph-name="Uring.ss01" horiz-adv-x="778" 
d="M370 739q-24 0 -44.5 9t-36.5 24.5t-25 36t-9 43.5t9 43.5t25 36.5t36.5 25t44.5 9t45 -9t36.5 -25t25 -36.5t9.5 -43.5t-9.5 -43.5t-25 -36t-36.5 -24.5t-45 -9zM370 926q-32 0 -54.5 -22t-22.5 -52t22.5 -51.5t54.5 -21.5t55 21.5t23 51.5t-23 52t-55 22zM672 700v-700
h-80v136q-37 -62 -103 -98t-153 -38q-54 0 -99 19t-77.5 52.5t-51 80.5t-18.5 104v444h80v-427q0 -43 14 -78.5t39.5 -61.5t60.5 -40.5t77 -14.5q48 1 88.5 17.5t70.5 44t49 65t23 81.5v414h80z" />
    <glyph glyph-name="Utilde" unicode="&#x168;" horiz-adv-x="768" 
d="M534 910q0 -112 -83 -112q-22 0 -38 9.5t-29.5 21t-26 21t-27.5 9.5q-43 0 -43 -53h-52q0 112 83 112q21 0 37 -9.5t29.5 -21t26.5 -21t28 -9.5q43 0 43 53h52zM170 288q0 -104 57.5 -161t157.5 -57t156.5 57t56.5 161v412h80v-412q0 -69 -20 -123t-58 -91.5t-92 -57
t-123 -19.5t-123.5 19.5t-93 57t-58.5 91.5t-20 123v412h80v-412z" />
    <glyph glyph-name="Utilde.ss01" horiz-adv-x="778" 
d="M316 859q-43 0 -43 -53h-52q0 112 83 112q21 0 37 -9.5t29.5 -21t26.5 -21t28 -9.5q43 0 43 53h52q0 -112 -83 -112q-22 0 -38 9.5t-29.5 21t-26 21t-27.5 9.5zM672 700v-700h-80v136q-37 -62 -103 -98t-153 -38q-54 0 -99 19t-77.5 52.5t-51 80.5t-18.5 104v444h80v-427
q0 -43 14 -78.5t39.5 -61.5t60.5 -40.5t77 -14.5q48 1 88.5 17.5t70.5 44t49 65t23 81.5v414h80z" />
    <glyph glyph-name="uni1E78" unicode="&#x1e78;" horiz-adv-x="768" 
d="M536 1065l-124 -99h-75l120 135zM534 910q0 -112 -83 -112q-22 0 -38 9.5t-29.5 21t-26 21t-27.5 9.5q-43 0 -43 -53h-52q0 112 83 112q21 0 37 -9.5t29.5 -21t26.5 -21t28 -9.5q43 0 43 53h52zM170 288q0 -104 57.5 -161t157.5 -57t156.5 57t56.5 161v412h80v-412
q0 -69 -20 -123t-58 -91.5t-92 -57t-123 -19.5t-123.5 19.5t-93 57t-58.5 91.5t-20 123v412h80v-412z" />
    <glyph glyph-name="uni1E78.ss01" horiz-adv-x="778" 
d="M398 966h-75l120 135l79 -36zM316 859q-43 0 -43 -53h-52q0 112 83 112q21 0 37 -9.5t29.5 -21t26.5 -21t28 -9.5q43 0 43 53h52q0 -112 -83 -112q-22 0 -38 9.5t-29.5 21t-26 21t-27.5 9.5zM672 700v-700h-80v136q-37 -62 -103 -98t-153 -38q-54 0 -99 19t-77.5 52.5
t-51 80.5t-18.5 104v444h80v-427q0 -43 14 -78.5t39.5 -61.5t60.5 -40.5t77 -14.5q48 1 88.5 17.5t70.5 44t49 65t23 81.5v414h80z" />
    <glyph glyph-name="V" unicode="V" horiz-adv-x="665" 
d="M92 700l241 -610l242 610h84l-286 -700h-83l-284 700h86z" />
    <glyph glyph-name="W" unicode="W" horiz-adv-x="1017" 
d="M92 700l192 -610l190 610h80l192 -610l190 610h83l-235 -700h-82l-189 593l-191 -593h-82l-234 700h86z" />
    <glyph glyph-name="W.ss01" horiz-adv-x="1188" 
d="M1098 250q0 -57 -18.5 -103.5t-52.5 -79.5t-81.5 -51.5t-105.5 -18.5q-88 0 -153.5 39.5t-91.5 104.5q-13 -32 -36.5 -58.5t-55.5 -45.5t-71 -29.5t-83 -10.5q-58 0 -105.5 18.5t-81.5 51.5t-53 79.5t-19 103.5v450h80v-450q0 -41 13.5 -74t38.5 -56.5t60 -36.5t78 -13
q44 0 80 13t61.5 36.5t39.5 56.5t14 74v450h80v-450q0 -41 14 -74t39.5 -56.5t61.5 -36.5t80 -13q43 0 77.5 13t59 36.5t38 56.5t13.5 74v450h80v-450v0z" />
    <glyph glyph-name="Wacute" unicode="&#x1e82;" horiz-adv-x="1017" 
d="M655 888l-124 -99h-75l120 135zM92 700l192 -610l190 610h80l192 -610l190 610h83l-235 -700h-82l-189 593l-191 -593h-82l-234 700h86z" />
    <glyph glyph-name="Wacute.ss01" horiz-adv-x="1188" 
d="M740 888l-124 -99h-75l120 135zM1098 250q0 -57 -18.5 -103.5t-52.5 -79.5t-81.5 -51.5t-105.5 -18.5q-88 0 -153.5 39.5t-91.5 104.5q-13 -32 -36.5 -58.5t-55.5 -45.5t-71 -29.5t-83 -10.5q-58 0 -105.5 18.5t-81.5 51.5t-53 79.5t-19 103.5v450h80v-450
q0 -41 13.5 -74t38.5 -56.5t60 -36.5t78 -13q44 0 80 13t61.5 36.5t39.5 56.5t14 74v450h80v-450q0 -41 14 -74t39.5 -56.5t61.5 -36.5t80 -13q43 0 77.5 13t59 36.5t38 56.5t13.5 74v450h80v-450z" />
    <glyph glyph-name="Wcircumflex" unicode="&#x174;" horiz-adv-x="1017" 
d="M547 919l102 -129h-68l-72 91l-72 -91h-68l102 129h76zM92 700l192 -610l190 610h80l192 -610l190 610h83l-235 -700h-82l-189 593l-191 -593h-82l-234 700h86z" />
    <glyph glyph-name="Wcircumflex.ss01" horiz-adv-x="1188" 
d="M632 919l102 -129h-68l-72 91l-72 -91h-68l102 129h76zM1098 250q0 -57 -18.5 -103.5t-52.5 -79.5t-81.5 -51.5t-105.5 -18.5q-88 0 -153.5 39.5t-91.5 104.5q-13 -32 -36.5 -58.5t-55.5 -45.5t-71 -29.5t-83 -10.5q-58 0 -105.5 18.5t-81.5 51.5t-53 79.5t-19 103.5v450
h80v-450q0 -41 13.5 -74t38.5 -56.5t60 -36.5t78 -13q44 0 80 13t61.5 36.5t39.5 56.5t14 74v450h80v-450q0 -41 14 -74t39.5 -56.5t61.5 -36.5t80 -13q43 0 77.5 13t59 36.5t38 56.5t13.5 74v450h80v-450z" />
    <glyph glyph-name="Wdieresis" unicode="&#x1e84;" horiz-adv-x="1017" 
d="M426 901q20 0 34 -14t14 -36q0 -20 -14 -34.5t-34 -14.5t-33.5 14.5t-13.5 34.5q0 22 13.5 36t33.5 14zM593 901q20 0 33.5 -14t13.5 -36q0 -20 -13.5 -34.5t-33.5 -14.5t-34 14.5t-14 34.5q0 22 14 36t34 14zM92 700l192 -610l190 610h80l192 -610l190 610h83l-235 -700
h-82l-189 593l-191 -593h-82l-234 700h86z" />
    <glyph glyph-name="Wdieresis.ss01" horiz-adv-x="1188" 
d="M511 901q20 0 34 -14t14 -36q0 -20 -14 -34.5t-34 -14.5t-33.5 14.5t-13.5 34.5q0 22 13.5 36t33.5 14zM678 901q20 0 33.5 -14t13.5 -36q0 -20 -13.5 -34.5t-33.5 -14.5t-34 14.5t-14 34.5q0 22 14 36t34 14zM1098 250q0 -57 -18.5 -103.5t-52.5 -79.5t-81.5 -51.5
t-105.5 -18.5q-88 0 -153.5 39.5t-91.5 104.5q-13 -32 -36.5 -58.5t-55.5 -45.5t-71 -29.5t-83 -10.5q-58 0 -105.5 18.5t-81.5 51.5t-53 79.5t-19 103.5v450h80v-450q0 -41 13.5 -74t38.5 -56.5t60 -36.5t78 -13q44 0 80 13t61.5 36.5t39.5 56.5t14 74v450h80v-450
q0 -41 14 -74t39.5 -56.5t61.5 -36.5t80 -13q43 0 77.5 13t59 36.5t38 56.5t13.5 74v450h80v-450z" />
    <glyph glyph-name="Wgrave" unicode="&#x1e80;" horiz-adv-x="1017" 
d="M559 789h-75l-125 99l80 36zM92 700l192 -610l190 610h80l192 -610l190 610h83l-235 -700h-82l-189 593l-191 -593h-82l-234 700h86z" />
    <glyph glyph-name="Wgrave.ss01" horiz-adv-x="1188" 
d="M644 789h-75l-125 99l80 36zM1098 250q0 -57 -18.5 -103.5t-52.5 -79.5t-81.5 -51.5t-105.5 -18.5q-88 0 -153.5 39.5t-91.5 104.5q-13 -32 -36.5 -58.5t-55.5 -45.5t-71 -29.5t-83 -10.5q-58 0 -105.5 18.5t-81.5 51.5t-53 79.5t-19 103.5v450h80v-450q0 -41 13.5 -74
t38.5 -56.5t60 -36.5t78 -13q44 0 80 13t61.5 36.5t39.5 56.5t14 74v450h80v-450q0 -41 14 -74t39.5 -56.5t61.5 -36.5t80 -13q43 0 77.5 13t59 36.5t38 56.5t13.5 74v450h80v-450z" />
    <glyph glyph-name="X" unicode="X" horiz-adv-x="665" 
d="M134 700l193 -273l195 273h94l-238 -336l258 -364h-96l-213 295l-211 -295h-94l257 360l-239 340h94z" />
    <glyph glyph-name="Y" unicode="Y" horiz-adv-x="625" 
d="M354 243v-243h-79v241l-271 459h83l227 -367l224 367h82z" />
    <glyph glyph-name="Y.ss01" horiz-adv-x="737" 
d="M647 700v-538q0 -59 -20.5 -107.5t-57.5 -83.5t-87.5 -54.5t-111.5 -19.5q-40 0 -80.5 8.5t-76.5 23.5t-66.5 36t-51.5 46l40 57q18 -21 43.5 -39t55.5 -31t62.5 -20.5t64.5 -7.5q45 0 83 14.5t65.5 40t43 61.5t15.5 78v125q-34 -60 -91.5 -95t-132.5 -37
q-56 0 -102.5 19t-80.5 53.5t-52.5 82.5t-18.5 105v283h80v-276q0 -42 14 -77.5t39 -61t59.5 -39.5t75.5 -14q43 1 79.5 16.5t64.5 43t45 65.5t21 83v260h79z" />
    <glyph glyph-name="Yacute" unicode="&#xdd;" horiz-adv-x="625" 
d="M334 789h-75l120 135l79 -36zM354 243v-243h-79v241l-271 459h83l227 -367l224 367h82z" />
    <glyph glyph-name="Yacute.ss01" horiz-adv-x="737" 
d="M391 789h-75l120 135l79 -36zM647 700v-538q0 -59 -20.5 -107.5t-57.5 -83.5t-87.5 -54.5t-111.5 -19.5q-40 0 -80.5 8.5t-76.5 23.5t-66.5 36t-51.5 46l40 57q18 -21 43.5 -39t55.5 -31t62.5 -20.5t64.5 -7.5q45 0 83 14.5t65.5 40t43 61.5t15.5 78v125
q-34 -60 -91.5 -95t-132.5 -37q-56 0 -102.5 19t-80.5 53.5t-52.5 82.5t-18.5 105v283h80v-276q0 -42 14 -77.5t39 -61t59.5 -39.5t75.5 -14q43 1 79.5 16.5t64.5 43t45 65.5t21 83v260h79z" />
    <glyph glyph-name="Ycircumflex" unicode="&#x176;" horiz-adv-x="625" 
d="M240 790h-68l102 129h76l102 -129h-68l-72 91zM354 243v-243h-79v241l-271 459h83l227 -367l224 367h82z" />
    <glyph glyph-name="Ycircumflex.ss01" horiz-adv-x="737" 
d="M297 790h-68l102 129h76l102 -129h-68l-72 91zM647 700v-538q0 -59 -20.5 -107.5t-57.5 -83.5t-87.5 -54.5t-111.5 -19.5q-40 0 -80.5 8.5t-76.5 23.5t-66.5 36t-51.5 46l40 57q18 -21 43.5 -39t55.5 -31t62.5 -20.5t64.5 -7.5q45 0 83 14.5t65.5 40t43 61.5t15.5 78v125
q-34 -60 -91.5 -95t-132.5 -37q-56 0 -102.5 19t-80.5 53.5t-52.5 82.5t-18.5 105v283h80v-276q0 -42 14 -77.5t39 -61t59.5 -39.5t75.5 -14q43 1 79.5 16.5t64.5 43t45 65.5t21 83v260h79z" />
    <glyph glyph-name="Ydieresis" unicode="&#x178;" horiz-adv-x="625" 
d="M229 802q-20 0 -33.5 14.5t-13.5 34.5q0 22 13.5 36t33.5 14t34 -14t14 -36q0 -20 -14 -34.5t-34 -14.5zM396 802q-20 0 -34 14.5t-14 34.5q0 22 14 36t34 14t33.5 -14t13.5 -36q0 -20 -13.5 -34.5t-33.5 -14.5zM354 243v-243h-79v241l-271 459h83l227 -367l224 367h82z
" />
    <glyph glyph-name="Ydieresis.ss01" horiz-adv-x="737" 
d="M286 802q-20 0 -33.5 14.5t-13.5 34.5q0 22 13.5 36t33.5 14t34 -14t14 -36q0 -20 -14 -34.5t-34 -14.5zM453 802q-20 0 -34 14.5t-14 34.5q0 22 14 36t34 14t33.5 -14t13.5 -36q0 -20 -13.5 -34.5t-33.5 -14.5zM647 700v-538q0 -59 -20.5 -107.5t-57.5 -83.5
t-87.5 -54.5t-111.5 -19.5q-40 0 -80.5 8.5t-76.5 23.5t-66.5 36t-51.5 46l40 57q18 -21 43.5 -39t55.5 -31t62.5 -20.5t64.5 -7.5q45 0 83 14.5t65.5 40t43 61.5t15.5 78v125q-34 -60 -91.5 -95t-132.5 -37q-56 0 -102.5 19t-80.5 53.5t-52.5 82.5t-18.5 105v283h80v-276
q0 -42 14 -77.5t39 -61t59.5 -39.5t75.5 -14q43 1 79.5 16.5t64.5 43t45 65.5t21 83v260h79z" />
    <glyph glyph-name="uni1E8E" unicode="&#x1e8e;" horiz-adv-x="625" 
d="M312 798q-22 0 -36.5 15t-14.5 38t14.5 38t36.5 15t36.5 -15t14.5 -38t-14.5 -38t-36.5 -15zM354 243v-243h-79v241l-271 459h83l227 -367l224 367h82z" />
    <glyph glyph-name="uni1E8E.ss01" horiz-adv-x="737" 
d="M369 798q-22 0 -36.5 15t-14.5 38t14.5 38t36.5 15t36.5 -15t14.5 -38t-14.5 -38t-36.5 -15zM647 700v-538q0 -59 -20.5 -107.5t-57.5 -83.5t-87.5 -54.5t-111.5 -19.5q-40 0 -80.5 8.5t-76.5 23.5t-66.5 36t-51.5 46l40 57q18 -21 43.5 -39t55.5 -31t62.5 -20.5
t64.5 -7.5q45 0 83 14.5t65.5 40t43 61.5t15.5 78v125q-34 -60 -91.5 -95t-132.5 -37q-56 0 -102.5 19t-80.5 53.5t-52.5 82.5t-18.5 105v283h80v-276q0 -42 14 -77.5t39 -61t59.5 -39.5t75.5 -14q43 1 79.5 16.5t64.5 43t45 65.5t21 83v260h79z" />
    <glyph glyph-name="uni1EF4" unicode="&#x1ef4;" horiz-adv-x="625" 
d="M275 241l-271 459h83l227 -367l224 367h82l-266 -457v-243h-79v241zM315 -55q22 0 36.5 -15t14.5 -38t-14.5 -38.5t-36.5 -15.5t-36.5 15.5t-14.5 38.5t14.5 38t36.5 15z" />
    <glyph glyph-name="uni1EF4.ss01" horiz-adv-x="737" 
d="M647 700v-538q0 -59 -20.5 -107.5t-57.5 -83.5t-87.5 -54.5t-111.5 -19.5q-40 0 -80.5 8.5t-76.5 23.5t-66.5 36t-51.5 46l40 57q18 -21 43.5 -39t55.5 -31t62.5 -20.5t64.5 -7.5q45 0 83 14.5t65.5 40t43 61.5t15.5 78v125q-34 -60 -91.5 -95t-132.5 -37
q-56 0 -102.5 19t-80.5 53.5t-52.5 82.5t-18.5 105v283h80v-276q0 -42 14 -77.5t39 -61t59.5 -39.5t75.5 -14q43 1 79.5 16.5t64.5 43t45 65.5t21 83v260h79zM380 -150q22 0 36.5 -15t14.5 -38t-14.5 -38.5t-36.5 -15.5t-36.5 15.5t-14.5 38.5t14.5 38t36.5 15z" />
    <glyph glyph-name="Ygrave" unicode="&#x1ef2;" horiz-adv-x="625" 
d="M287 789l-125 99l80 36l120 -135h-75zM354 243v-243h-79v241l-271 459h83l227 -367l224 367h82z" />
    <glyph glyph-name="Ygrave.ss01" horiz-adv-x="737" 
d="M344 789l-125 99l80 36l120 -135h-75zM647 700v-538q0 -59 -20.5 -107.5t-57.5 -83.5t-87.5 -54.5t-111.5 -19.5q-40 0 -80.5 8.5t-76.5 23.5t-66.5 36t-51.5 46l40 57q18 -21 43.5 -39t55.5 -31t62.5 -20.5t64.5 -7.5q45 0 83 14.5t65.5 40t43 61.5t15.5 78v125
q-34 -60 -91.5 -95t-132.5 -37q-56 0 -102.5 19t-80.5 53.5t-52.5 82.5t-18.5 105v283h80v-276q0 -42 14 -77.5t39 -61t59.5 -39.5t75.5 -14q43 1 79.5 16.5t64.5 43t45 65.5t21 83v260h79z" />
    <glyph glyph-name="uni1EF6" unicode="&#x1ef6;" horiz-adv-x="625" 
d="M310 885q-22 0 -35 -12t-15 -32l-41 15q5 34 30 53.5t61 19.5q40 0 63.5 -23.5t23.5 -58.5q0 -29 -14.5 -51t-40.5 -42l-41 14q25 20 39 37.5t14 39.5q0 17 -11 28.5t-33 11.5zM354 243v-243h-79v241l-271 459h83l227 -367l224 367h82z" />
    <glyph glyph-name="uni1EF6.ss01" horiz-adv-x="737" 
d="M367 885q-22 0 -35 -12t-15 -32l-41 15q5 34 30 53.5t61 19.5q40 0 63.5 -23.5t23.5 -58.5q0 -29 -14.5 -51t-40.5 -42l-41 14q25 20 39 37.5t14 39.5q0 17 -11 28.5t-33 11.5zM647 700v-538q0 -59 -20.5 -107.5t-57.5 -83.5t-87.5 -54.5t-111.5 -19.5q-40 0 -80.5 8.5
t-76.5 23.5t-66.5 36t-51.5 46l40 57q18 -21 43.5 -39t55.5 -31t62.5 -20.5t64.5 -7.5q45 0 83 14.5t65.5 40t43 61.5t15.5 78v125q-34 -60 -91.5 -95t-132.5 -37q-56 0 -102.5 19t-80.5 53.5t-52.5 82.5t-18.5 105v283h80v-276q0 -42 14 -77.5t39 -61t59.5 -39.5t75.5 -14
q43 1 79.5 16.5t64.5 43t45 65.5t21 83v260h79z" />
    <glyph glyph-name="uni0232" unicode="&#x232;" horiz-adv-x="625" 
d="M432 801h-241v59h241v-59zM354 243v-243h-79v241l-271 459h83l227 -367l224 367h82z" />
    <glyph glyph-name="uni0232.ss01" horiz-adv-x="737" 
d="M489 801h-241v59h241v-59zM647 700v-538q0 -59 -20.5 -107.5t-57.5 -83.5t-87.5 -54.5t-111.5 -19.5q-40 0 -80.5 8.5t-76.5 23.5t-66.5 36t-51.5 46l40 57q18 -21 43.5 -39t55.5 -31t62.5 -20.5t64.5 -7.5q45 0 83 14.5t65.5 40t43 61.5t15.5 78v125q-34 -60 -91.5 -95
t-132.5 -37q-56 0 -102.5 19t-80.5 53.5t-52.5 82.5t-18.5 105v283h80v-276q0 -42 14 -77.5t39 -61t59.5 -39.5t75.5 -14q43 1 79.5 16.5t64.5 43t45 65.5t21 83v260h79z" />
    <glyph glyph-name="uni1EF8" unicode="&#x1ef8;" horiz-adv-x="625" 
d="M258 859q-43 0 -43 -53h-52q0 112 83 112q21 0 37 -9.5t29.5 -21t26.5 -21t28 -9.5q43 0 43 53h52q0 -112 -83 -112q-22 0 -38 9.5t-29.5 21t-26 21t-27.5 9.5zM354 243v-243h-79v241l-271 459h83l227 -367l224 367h82z" />
    <glyph glyph-name="uni1EF8.ss01" horiz-adv-x="737" 
d="M315 859q-43 0 -43 -53h-52q0 112 83 112q21 0 37 -9.5t29.5 -21t26.5 -21t28 -9.5q43 0 43 53h52q0 -112 -83 -112q-22 0 -38 9.5t-29.5 21t-26 21t-27.5 9.5zM647 700v-538q0 -59 -20.5 -107.5t-57.5 -83.5t-87.5 -54.5t-111.5 -19.5q-40 0 -80.5 8.5t-76.5 23.5
t-66.5 36t-51.5 46l40 57q18 -21 43.5 -39t55.5 -31t62.5 -20.5t64.5 -7.5q45 0 83 14.5t65.5 40t43 61.5t15.5 78v125q-34 -60 -91.5 -95t-132.5 -37q-56 0 -102.5 19t-80.5 53.5t-52.5 82.5t-18.5 105v283h80v-276q0 -42 14 -77.5t39 -61t59.5 -39.5t75.5 -14
q43 1 79.5 16.5t64.5 43t45 65.5t21 83v260h79z" />
    <glyph glyph-name="Z" unicode="Z" horiz-adv-x="660" 
d="M612 700v-62l-464 -564h469l-1 -74h-573v62l464 564h-451v74h556z" />
    <glyph glyph-name="Z.ss01" horiz-adv-x="660" 
d="M617 74l-1 -74h-573v62l210 255h-143v67h198l199 242h-451v74h556v-62l-212 -258h142v-68h-198l-196 -238h469z" />
    <glyph glyph-name="Zacute" unicode="&#x179;" horiz-adv-x="660" 
d="M481 888l-124 -99h-75l120 135zM612 700v-62l-464 -564h469l-1 -74h-573v62l464 564h-451v74h556z" />
    <glyph glyph-name="Zacute.ss01" horiz-adv-x="660" 
d="M357 789h-75l120 135l79 -36zM617 74l-1 -74h-573v62l210 255h-143v67h198l199 242h-451v74h556v-62l-212 -258h142v-68h-198l-196 -238h469z" />
    <glyph glyph-name="Zcaron" unicode="&#x17d;" horiz-adv-x="660" 
d="M261 919l72 -94l72 94h73l-104 -135h-82l-104 135h73zM612 700v-62l-464 -564h469l-1 -74h-573v62l464 564h-451v74h556z" />
    <glyph glyph-name="Zcaron.ss01" horiz-adv-x="660" 
d="M292 784l-104 135h73l72 -94l72 94h73l-104 -135h-82zM617 74l-1 -74h-573v62l210 255h-143v67h198l199 242h-451v74h556v-62l-212 -258h142v-68h-198l-196 -238h469z" />
    <glyph glyph-name="Zdotaccent" unicode="&#x17b;" horiz-adv-x="660" 
d="M335 904q22 0 36.5 -15t14.5 -38t-14.5 -38t-36.5 -15t-36.5 15t-14.5 38t14.5 38t36.5 15zM612 700v-62l-464 -564h469l-1 -74h-573v62l464 564h-451v74h556z" />
    <glyph glyph-name="Zdotaccent.ss01" horiz-adv-x="660" 
d="M335 798q-22 0 -36.5 15t-14.5 38t14.5 38t36.5 15t36.5 -15t14.5 -38t-14.5 -38t-36.5 -15zM617 74l-1 -74h-573v62l210 255h-143v67h198l199 242h-451v74h556v-62l-212 -258h142v-68h-198l-196 -238h469z" />
    <glyph glyph-name="uni1E92" unicode="&#x1e92;" horiz-adv-x="660" 
d="M612 700v-62l-464 -564h469l-1 -74h-573v62l464 564h-451v74h556zM330 -56q22 0 36.5 -15t14.5 -38t-14.5 -38t-36.5 -15t-36.5 15t-14.5 38t14.5 38t36.5 15z" />
    <glyph glyph-name="uni1E92.ss01" horiz-adv-x="660" 
d="M617 74l-1 -74h-573v62l210 255h-143v67h198l199 242h-451v74h556v-62l-212 -258h142v-68h-198l-196 -238h469zM330 -56q22 0 36.5 -15t14.5 -38t-14.5 -38t-36.5 -15t-36.5 15t-14.5 38t14.5 38t36.5 15z" />
    <glyph glyph-name="a" unicode="a" horiz-adv-x="577" 
d="M422 0v82q-32 -43 -81 -64t-112 -21q-41 0 -74 12t-56.5 33.5t-36 50.5t-12.5 63q0 69 51.5 109.5t145.5 41.5h173v33q0 58 -35.5 91t-105.5 33q-44 0 -84.5 -16t-82.5 -45l-33 55q25 17 49.5 30t50 22t53.5 14t62 5q98 0 150 -48t53 -133l1 -348h-76zM244 62
q67 0 114.5 31t62.5 88v64h-164q-134 0 -134 -86q0 -44 32.5 -70.5t88.5 -26.5z" />
    <glyph glyph-name="a.ss01" horiz-adv-x="672" 
d="M578 526v-526h-78v112q-29 -55 -81.5 -85.5t-122.5 -30.5q-56 0 -103 20t-80.5 55.5t-52 84.5t-18.5 108q0 58 18.5 107t51.5 84.5t79 55t102 19.5q72 1 124.5 -29.5t82.5 -86.5v112h78zM311 63q39 0 72 13t58 36.5t40.5 56.5t18.5 73v40q-3 40 -18.5 73t-40.5 57t-58 37
t-72 13q-42 0 -77 -15t-60.5 -41.5t-39.5 -63.5t-14 -80q0 -44 14 -80.5t39.5 -62.5t60.5 -41t77 -15z" />
    <glyph glyph-name="aacute" unicode="&#xe1;" horiz-adv-x="577" 
d="M306 615h-75l120 135l79 -36zM422 0v82q-32 -43 -81 -64t-112 -21q-41 0 -74 12t-56.5 33.5t-36 50.5t-12.5 63q0 69 51.5 109.5t145.5 41.5h173v33q0 58 -35.5 91t-105.5 33q-44 0 -84.5 -16t-82.5 -45l-33 55q25 17 49.5 30t50 22t53.5 14t62 5q98 0 150 -48t53 -133
l1 -348h-76zM244 62q67 0 114.5 31t62.5 88v64h-164q-134 0 -134 -86q0 -44 32.5 -70.5t88.5 -26.5z" />
    <glyph glyph-name="aacute.ss01" horiz-adv-x="672" 
d="M355 615h-75l120 135l79 -36zM578 526v-526h-78v112q-29 -55 -81.5 -85.5t-122.5 -30.5q-56 0 -103 20t-80.5 55.5t-52 84.5t-18.5 108q0 58 18.5 107t51.5 84.5t79 55t102 19.5q72 1 124.5 -29.5t82.5 -86.5v112h78zM311 63q39 0 72 13t58 36.5t40.5 56.5t18.5 73v40
q-3 40 -18.5 73t-40.5 57t-58 37t-72 13q-42 0 -77 -15t-60.5 -41.5t-39.5 -63.5t-14 -80q0 -44 14 -80.5t39.5 -62.5t60.5 -41t77 -15z" />
    <glyph glyph-name="abreve" unicode="&#x103;" horiz-adv-x="577" 
d="M284 611q-27 0 -49.5 9.5t-39.5 26.5t-27 40.5t-11 52.5h55q2 -32 22 -52.5t50 -20.5t50 20.5t22 52.5h55q-1 -29 -11 -52.5t-27 -40.5t-39.5 -26.5t-49.5 -9.5zM422 0v82q-32 -43 -81 -64t-112 -21q-41 0 -74 12t-56.5 33.5t-36 50.5t-12.5 63q0 69 51.5 109.5
t145.5 41.5h173v33q0 58 -35.5 91t-105.5 33q-44 0 -84.5 -16t-82.5 -45l-33 55q25 17 49.5 30t50 22t53.5 14t62 5q98 0 150 -48t53 -133l1 -348h-76zM244 62q67 0 114.5 31t62.5 88v64h-164q-134 0 -134 -86q0 -44 32.5 -70.5t88.5 -26.5z" />
    <glyph glyph-name="abreve.ss01" horiz-adv-x="672" 
d="M333 611q-27 0 -49.5 9.5t-39.5 26.5t-27 40.5t-11 52.5h55q2 -32 22 -52.5t50 -20.5t50 20.5t22 52.5h55q-1 -29 -11 -52.5t-27 -40.5t-39.5 -26.5t-49.5 -9.5zM578 526v-526h-78v112q-29 -55 -81.5 -85.5t-122.5 -30.5q-56 0 -103 20t-80.5 55.5t-52 84.5t-18.5 108
q0 58 18.5 107t51.5 84.5t79 55t102 19.5q72 1 124.5 -29.5t82.5 -86.5v112h78zM311 63q39 0 72 13t58 36.5t40.5 56.5t18.5 73v40q-3 40 -18.5 73t-40.5 57t-58 37t-72 13q-42 0 -77 -15t-60.5 -41.5t-39.5 -63.5t-14 -80q0 -44 14 -80.5t39.5 -62.5t60.5 -41t77 -15z" />
    <glyph glyph-name="uni1EAF" unicode="&#x1eaf;" horiz-adv-x="577" 
d="M322 771h-75l120 135l79 -36zM284 612q-27 0 -49.5 9.5t-39.5 26.5t-27 40.5t-11 52.5h55q2 -32 22 -52.5t50 -20.5t50 20.5t22 52.5h55q-1 -29 -11 -52.5t-27 -40.5t-39.5 -26.5t-49.5 -9.5zM422 0v82q-32 -43 -81 -64t-112 -21q-41 0 -74 12t-56.5 33.5t-36 50.5
t-12.5 63q0 69 51.5 109.5t145.5 41.5h173v33q0 58 -35.5 91t-105.5 33q-44 0 -84.5 -16t-82.5 -45l-33 55q25 17 49.5 30t50 22t53.5 14t62 5q98 0 150 -48t53 -133l1 -348h-76zM244 62q67 0 114.5 31t62.5 88v64h-164q-134 0 -134 -86q0 -44 32.5 -70.5t88.5 -26.5z" />
    <glyph glyph-name="uni1EAF.ss01" horiz-adv-x="672" 
d="M371 771h-75l120 135l79 -36zM333 612q-27 0 -49.5 9.5t-39.5 26.5t-27 40.5t-11 52.5h55q2 -32 22 -52.5t50 -20.5t50 20.5t22 52.5h55q-1 -29 -11 -52.5t-27 -40.5t-39.5 -26.5t-49.5 -9.5zM578 526v-526h-78v112q-29 -55 -81.5 -85.5t-122.5 -30.5q-56 0 -103 20
t-80.5 55.5t-52 84.5t-18.5 108q0 58 18.5 107t51.5 84.5t79 55t102 19.5q72 1 124.5 -29.5t82.5 -86.5v112h78zM311 63q39 0 72 13t58 36.5t40.5 56.5t18.5 73v40q-3 40 -18.5 73t-40.5 57t-58 37t-72 13q-42 0 -77 -15t-60.5 -41.5t-39.5 -63.5t-14 -80q0 -44 14 -80.5
t39.5 -62.5t60.5 -41t77 -15z" />
    <glyph glyph-name="uni1EB7" unicode="&#x1eb7;" horiz-adv-x="577" 
d="M284 612q-27 0 -49.5 9.5t-39.5 26.5t-27 40.5t-11 52.5h55q2 -32 22 -52.5t50 -20.5t50 20.5t22 52.5h55q-1 -29 -11 -52.5t-27 -40.5t-39.5 -26.5t-49.5 -9.5zM422 0v82q-32 -43 -81 -64t-112 -21q-41 0 -74 12t-56.5 33.5t-36 50.5t-12.5 63q0 69 51.5 109.5
t145.5 41.5h173v33q0 58 -35.5 91t-105.5 33q-44 0 -84.5 -16t-82.5 -45l-33 55q25 17 49.5 30t50 22t53.5 14t62 5q98 0 150 -48t53 -133l1 -348h-76zM244 62q67 0 114.5 31t62.5 88v64h-164q-134 0 -134 -86q0 -44 32.5 -70.5t88.5 -26.5zM285 -55q22 0 36.5 -15t14.5 -38
t-14.5 -38.5t-36.5 -15.5t-36.5 15.5t-14.5 38.5t14.5 38t36.5 15z" />
    <glyph glyph-name="uni1EB7.ss01" horiz-adv-x="672" 
d="M333 612q-27 0 -49.5 9.5t-39.5 26.5t-27 40.5t-11 52.5h55q2 -32 22 -52.5t50 -20.5t50 20.5t22 52.5h55q-1 -29 -11 -52.5t-27 -40.5t-39.5 -26.5t-49.5 -9.5zM578 526v-526h-78v112q-29 -55 -81.5 -85.5t-122.5 -30.5q-56 0 -103 20t-80.5 55.5t-52 84.5t-18.5 108
q0 58 18.5 107t51.5 84.5t79 55t102 19.5q72 1 124.5 -29.5t82.5 -86.5v112h78zM311 63q39 0 72 13t58 36.5t40.5 56.5t18.5 73v40q-3 40 -18.5 73t-40.5 57t-58 37t-72 13q-42 0 -77 -15t-60.5 -41.5t-39.5 -63.5t-14 -80q0 -44 14 -80.5t39.5 -62.5t60.5 -41t77 -15z
M333 -55q22 0 36.5 -15t14.5 -38t-14.5 -38.5t-36.5 -15.5t-36.5 15.5t-14.5 38.5t14.5 38t36.5 15z" />
    <glyph glyph-name="uni1EB1" unicode="&#x1eb1;" horiz-adv-x="577" 
d="M247 771l-124 99l79 36l120 -135h-75zM212 741q2 -32 22 -52.5t50 -20.5t50 20.5t22 52.5h55q-1 -29 -11 -52.5t-27 -40.5t-39.5 -26.5t-49.5 -9.5t-49.5 9.5t-39.5 26.5t-27 40.5t-11 52.5h55zM422 0v82q-32 -43 -81 -64t-112 -21q-41 0 -74 12t-56.5 33.5t-36 50.5
t-12.5 63q0 69 51.5 109.5t145.5 41.5h173v33q0 58 -35.5 91t-105.5 33q-44 0 -84.5 -16t-82.5 -45l-33 55q25 17 49.5 30t50 22t53.5 14t62 5q98 0 150 -48t53 -133l1 -348h-76zM244 62q67 0 114.5 31t62.5 88v64h-164q-134 0 -134 -86q0 -44 32.5 -70.5t88.5 -26.5z" />
    <glyph glyph-name="uni1EB1.ss01" horiz-adv-x="672" 
d="M296 771l-124 99l79 36l120 -135h-75zM261 741q2 -32 22 -52.5t50 -20.5t50 20.5t22 52.5h55q-1 -29 -11 -52.5t-27 -40.5t-39.5 -26.5t-49.5 -9.5t-49.5 9.5t-39.5 26.5t-27 40.5t-11 52.5h55zM578 526v-526h-78v112q-29 -55 -81.5 -85.5t-122.5 -30.5q-56 0 -103 20
t-80.5 55.5t-52 84.5t-18.5 108q0 58 18.5 107t51.5 84.5t79 55t102 19.5q72 1 124.5 -29.5t82.5 -86.5v112h78zM311 63q39 0 72 13t58 36.5t40.5 56.5t18.5 73v40q-3 40 -18.5 73t-40.5 57t-58 37t-72 13q-42 0 -77 -15t-60.5 -41.5t-39.5 -63.5t-14 -80q0 -44 14 -80.5
t39.5 -62.5t60.5 -41t77 -15z" />
    <glyph glyph-name="uni1EB3" unicode="&#x1eb3;" horiz-adv-x="577" 
d="M289 884q-22 0 -35 -12t-15 -32l-41 15q5 34 30 53.5t62 19.5q39 0 62.5 -23.5t23.5 -58.5q0 -29 -14.5 -51t-40.5 -42l-41 14q25 20 39 37.5t14 39.5q0 17 -11 28.5t-33 11.5zM284 612q-27 0 -49.5 9.5t-39.5 26.5t-27 40.5t-11 52.5h55q2 -32 22 -52.5t50 -20.5
t50 20.5t22 52.5h55q-1 -29 -11 -52.5t-27 -40.5t-39.5 -26.5t-49.5 -9.5zM422 0v82q-32 -43 -81 -64t-112 -21q-41 0 -74 12t-56.5 33.5t-36 50.5t-12.5 63q0 69 51.5 109.5t145.5 41.5h173v33q0 58 -35.5 91t-105.5 33q-44 0 -84.5 -16t-82.5 -45l-33 55q25 17 49.5 30
t50 22t53.5 14t62 5q98 0 150 -48t53 -133l1 -348h-76zM244 62q67 0 114.5 31t62.5 88v64h-164q-134 0 -134 -86q0 -44 32.5 -70.5t88.5 -26.5z" />
    <glyph glyph-name="uni1EB3.ss01" horiz-adv-x="672" 
d="M338 884q-22 0 -35 -12t-15 -32l-41 15q5 34 30 53.5t62 19.5q39 0 62.5 -23.5t23.5 -58.5q0 -29 -14.5 -51t-40.5 -42l-41 14q25 20 39 37.5t14 39.5q0 17 -11 28.5t-33 11.5zM333 612q-27 0 -49.5 9.5t-39.5 26.5t-27 40.5t-11 52.5h55q2 -32 22 -52.5t50 -20.5
t50 20.5t22 52.5h55q-1 -29 -11 -52.5t-27 -40.5t-39.5 -26.5t-49.5 -9.5zM578 526v-526h-78v112q-29 -55 -81.5 -85.5t-122.5 -30.5q-56 0 -103 20t-80.5 55.5t-52 84.5t-18.5 108q0 58 18.5 107t51.5 84.5t79 55t102 19.5q72 1 124.5 -29.5t82.5 -86.5v112h78zM311 63
q39 0 72 13t58 36.5t40.5 56.5t18.5 73v40q-3 40 -18.5 73t-40.5 57t-58 37t-72 13q-42 0 -77 -15t-60.5 -41.5t-39.5 -63.5t-14 -80q0 -44 14 -80.5t39.5 -62.5t60.5 -41t77 -15z" />
    <glyph glyph-name="uni1EB5" unicode="&#x1eb5;" horiz-adv-x="577" 
d="M228 822q-20 0 -31 -14t-11 -40h-53q0 112 83 112q21 0 37 -9.5t29.5 -21t26.5 -21t28 -9.5q43 0 43 53h53q0 -54 -21.5 -82.5t-61.5 -28.5q-22 0 -38.5 9.5t-30 21t-26 21t-27.5 9.5zM284 668q30 0 50 20.5t22 52.5h55q-1 -29 -11 -52.5t-27 -40.5t-39.5 -26.5
t-49.5 -9.5t-49.5 9.5t-39.5 26.5t-27 40.5t-11 52.5h55q2 -32 22 -52.5t50 -20.5zM422 0v82q-32 -43 -81 -64t-112 -21q-41 0 -74 12t-56.5 33.5t-36 50.5t-12.5 63q0 69 51.5 109.5t145.5 41.5h173v33q0 58 -35.5 91t-105.5 33q-44 0 -84.5 -16t-82.5 -45l-33 55
q25 17 49.5 30t50 22t53.5 14t62 5q98 0 150 -48t53 -133l1 -348h-76zM244 62q67 0 114.5 31t62.5 88v64h-164q-134 0 -134 -86q0 -44 32.5 -70.5t88.5 -26.5z" />
    <glyph glyph-name="uni1EB5.ss01" horiz-adv-x="672" 
d="M277 822q-20 0 -31 -14t-11 -40h-53q0 112 83 112q21 0 37 -9.5t29.5 -21t26.5 -21t28 -9.5q43 0 43 53h53q0 -54 -21.5 -82.5t-61.5 -28.5q-22 0 -38.5 9.5t-30 21t-26 21t-27.5 9.5zM333 668q30 0 50 20.5t22 52.5h55q-1 -29 -11 -52.5t-27 -40.5t-39.5 -26.5
t-49.5 -9.5t-49.5 9.5t-39.5 26.5t-27 40.5t-11 52.5h55q2 -32 22 -52.5t50 -20.5zM578 526v-526h-78v112q-29 -55 -81.5 -85.5t-122.5 -30.5q-56 0 -103 20t-80.5 55.5t-52 84.5t-18.5 108q0 58 18.5 107t51.5 84.5t79 55t102 19.5q72 1 124.5 -29.5t82.5 -86.5v112h78z
M311 63q39 0 72 13t58 36.5t40.5 56.5t18.5 73v40q-3 40 -18.5 73t-40.5 57t-58 37t-72 13q-42 0 -77 -15t-60.5 -41.5t-39.5 -63.5t-14 -80q0 -44 14 -80.5t39.5 -62.5t60.5 -41t77 -15z" />
    <glyph glyph-name="acircumflex" unicode="&#xe2;" horiz-adv-x="577" 
d="M212 616h-68l102 129h76l102 -129h-68l-72 91zM422 0v82q-32 -43 -81 -64t-112 -21q-41 0 -74 12t-56.5 33.5t-36 50.5t-12.5 63q0 69 51.5 109.5t145.5 41.5h173v33q0 58 -35.5 91t-105.5 33q-44 0 -84.5 -16t-82.5 -45l-33 55q25 17 49.5 30t50 22t53.5 14t62 5
q98 0 150 -48t53 -133l1 -348h-76zM244 62q67 0 114.5 31t62.5 88v64h-164q-134 0 -134 -86q0 -44 32.5 -70.5t88.5 -26.5z" />
    <glyph glyph-name="acircumflex.ss01" horiz-adv-x="672" 
d="M261 616h-68l102 129h76l102 -129h-68l-72 91zM578 526v-526h-78v112q-29 -55 -81.5 -85.5t-122.5 -30.5q-56 0 -103 20t-80.5 55.5t-52 84.5t-18.5 108q0 58 18.5 107t51.5 84.5t79 55t102 19.5q72 1 124.5 -29.5t82.5 -86.5v112h78zM311 63q39 0 72 13t58 36.5
t40.5 56.5t18.5 73v40q-3 40 -18.5 73t-40.5 57t-58 37t-72 13q-42 0 -77 -15t-60.5 -41.5t-39.5 -63.5t-14 -80q0 -44 14 -80.5t39.5 -62.5t60.5 -41t77 -15z" />
    <glyph glyph-name="uni1EA5" unicode="&#x1ea5;" horiz-adv-x="577" 
d="M445 717h-64l120 135l69 -36zM212 618h-68l102 129h76l102 -129h-68l-72 91zM294 529q98 0 150 -48t53 -133l1 -348h-76v82q-32 -43 -81 -64t-112 -21q-41 0 -74 12t-56.5 33.5t-36 50.5t-12.5 63q0 69 51.5 109.5t145.5 41.5h173v33q0 58 -35.5 91t-105.5 33
q-44 0 -84.5 -16t-82.5 -45l-33 55q25 17 49.5 30t50 22t53.5 14t62 5zM244 62q67 0 114.5 31t62.5 88v64h-164q-134 0 -134 -86q0 -44 32.5 -70.5t88.5 -26.5z" />
    <glyph glyph-name="uni1EA5.ss01" horiz-adv-x="672" 
d="M494 717h-64l120 135l69 -36zM261 618h-68l102 129h76l102 -129h-68l-72 91zM500 526h78v-526h-78v112q-29 -55 -81.5 -85.5t-122.5 -30.5q-56 0 -103 20t-80.5 55.5t-52 84.5t-18.5 108q0 58 18.5 107t51.5 84.5t79 55t102 19.5q72 1 124.5 -29.5t82.5 -86.5v112z
M311 63q39 0 72 13t58 36.5t40.5 56.5t18.5 73v40q-3 40 -18.5 73t-40.5 57t-58 37t-72 13q-42 0 -77 -15t-60.5 -41.5t-39.5 -63.5t-14 -80q0 -44 14 -80.5t39.5 -62.5t60.5 -41t77 -15z" />
    <glyph glyph-name="uni1EAD" unicode="&#x1ead;" horiz-adv-x="577" 
d="M212 618h-68l102 129h76l102 -129h-68l-72 91zM422 0v82q-32 -43 -81 -64t-112 -21q-41 0 -74 12t-56.5 33.5t-36 50.5t-12.5 63q0 69 51.5 109.5t145.5 41.5h173v33q0 58 -35.5 91t-105.5 33q-44 0 -84.5 -16t-82.5 -45l-33 55q25 17 49.5 30t50 22t53.5 14t62 5
q98 0 150 -48t53 -133l1 -348h-76zM244 62q67 0 114.5 31t62.5 88v64h-164q-134 0 -134 -86q0 -44 32.5 -70.5t88.5 -26.5zM285 -55q22 0 36.5 -15t14.5 -38t-14.5 -38.5t-36.5 -15.5t-36.5 15.5t-14.5 38.5t14.5 38t36.5 15z" />
    <glyph glyph-name="uni1EAD.ss01" horiz-adv-x="672" 
d="M261 618h-68l102 129h76l102 -129h-68l-72 91zM578 526v-526h-78v112q-29 -55 -81.5 -85.5t-122.5 -30.5q-56 0 -103 20t-80.5 55.5t-52 84.5t-18.5 108q0 58 18.5 107t51.5 84.5t79 55t102 19.5q72 1 124.5 -29.5t82.5 -86.5v112h78zM311 63q39 0 72 13t58 36.5
t40.5 56.5t18.5 73v40q-3 40 -18.5 73t-40.5 57t-58 37t-72 13q-42 0 -77 -15t-60.5 -41.5t-39.5 -63.5t-14 -80q0 -44 14 -80.5t39.5 -62.5t60.5 -41t77 -15zM333 -55q22 0 36.5 -15t14.5 -38t-14.5 -38.5t-36.5 -15.5t-36.5 15.5t-14.5 38.5t14.5 38t36.5 15z" />
    <glyph glyph-name="uni1EA7" unicode="&#x1ea7;" horiz-adv-x="577" 
d="M441 703l-124 99l68 36l120 -135h-64zM212 618h-68l102 129h76l102 -129h-68l-72 91zM294 529q98 0 150 -48t53 -133l1 -348h-76v82q-32 -43 -81 -64t-112 -21q-41 0 -74 12t-56.5 33.5t-36 50.5t-12.5 63q0 69 51.5 109.5t145.5 41.5h173v33q0 58 -35.5 91t-105.5 33
q-44 0 -84.5 -16t-82.5 -45l-33 55q25 17 49.5 30t50 22t53.5 14t62 5zM244 62q67 0 114.5 31t62.5 88v64h-164q-134 0 -134 -86q0 -44 32.5 -70.5t88.5 -26.5z" />
    <glyph glyph-name="uni1EA7.ss01" horiz-adv-x="672" 
d="M490 703l-124 99l68 36l120 -135h-64zM261 618h-68l102 129h76l102 -129h-68l-72 91zM578 526v-526h-78v112q-29 -55 -81.5 -85.5t-122.5 -30.5q-56 0 -103 20t-80.5 55.5t-52 84.5t-18.5 108q0 58 18.5 107t51.5 84.5t79 55t102 19.5q72 1 124.5 -29.5t82.5 -86.5v112
h78zM311 63q39 0 72 13t58 36.5t40.5 56.5t18.5 73v40q-3 40 -18.5 73t-40.5 57t-58 37t-72 13q-42 0 -77 -15t-60.5 -41.5t-39.5 -63.5t-14 -80q0 -44 14 -80.5t39.5 -62.5t60.5 -41t77 -15z" />
    <glyph glyph-name="uni1EA9" unicode="&#x1ea9;" horiz-adv-x="577" 
d="M397 842q-22 0 -35 -12t-15 -32l-41 15q5 34 30 53.5t62 19.5q39 0 62.5 -23.5t23.5 -58.5q0 -29 -14.5 -51t-40.5 -42l-41 14q25 20 39 37.5t14 39.5q0 17 -11 28.5t-33 11.5zM212 618h-68l102 129h76l102 -129h-68l-72 91zM422 0v82q-32 -43 -81 -64t-112 -21
q-41 0 -74 12t-56.5 33.5t-36 50.5t-12.5 63q0 69 51.5 109.5t145.5 41.5h173v33q0 58 -35.5 91t-105.5 33q-44 0 -84.5 -16t-82.5 -45l-33 55q25 17 49.5 30t50 22t53.5 14t62 5q98 0 150 -48t53 -133l1 -348h-76zM244 62q67 0 114.5 31t62.5 88v64h-164q-134 0 -134 -86
q0 -44 32.5 -70.5t88.5 -26.5z" />
    <glyph glyph-name="uni1EA9.ss01" horiz-adv-x="672" 
d="M446 842q-22 0 -35 -12t-15 -32l-41 15q5 34 30 53.5t62 19.5q39 0 62.5 -23.5t23.5 -58.5q0 -29 -14.5 -51t-40.5 -42l-41 14q25 20 39 37.5t14 39.5q0 17 -11 28.5t-33 11.5zM261 618h-68l102 129h76l102 -129h-68l-72 91zM578 526v-526h-78v112q-29 -55 -81.5 -85.5
t-122.5 -30.5q-56 0 -103 20t-80.5 55.5t-52 84.5t-18.5 108q0 58 18.5 107t51.5 84.5t79 55t102 19.5q72 1 124.5 -29.5t82.5 -86.5v112h78zM311 63q39 0 72 13t58 36.5t40.5 56.5t18.5 73v40q-3 40 -18.5 73t-40.5 57t-58 37t-72 13q-42 0 -77 -15t-60.5 -41.5
t-39.5 -63.5t-14 -80q0 -44 14 -80.5t39.5 -62.5t60.5 -41t77 -15z" />
    <glyph glyph-name="uni1EAB" unicode="&#x1eab;" horiz-adv-x="577" 
d="M226 821q-42 0 -42 -53h-53q0 112 83 112q21 0 37 -9.5t30 -21t27 -21t28 -9.5q42 0 42 53h53q0 -111 -83 -111q-22 0 -38.5 9.5t-30 20.5l-26 20.5t-27.5 9.5zM322 747l102 -129h-68l-72 91l-72 -91h-68l102 129h76zM422 0v82q-32 -43 -81 -64t-112 -21q-41 0 -74 12
t-56.5 33.5t-36 50.5t-12.5 63q0 69 51.5 109.5t145.5 41.5h173v33q0 58 -35.5 91t-105.5 33q-44 0 -84.5 -16t-82.5 -45l-33 55q25 17 49.5 30t50 22t53.5 14t62 5q98 0 150 -48t53 -133l1 -348h-76zM244 62q67 0 114.5 31t62.5 88v64h-164q-134 0 -134 -86
q0 -44 32.5 -70.5t88.5 -26.5z" />
    <glyph glyph-name="uni1EAB.ss01" horiz-adv-x="672" 
d="M275 821q-42 0 -42 -53h-53q0 112 83 112q21 0 37 -9.5t30 -21t27 -21t28 -9.5q42 0 42 53h53q0 -111 -83 -111q-22 0 -38.5 9.5t-30 20.5l-26 20.5t-27.5 9.5zM371 747l102 -129h-68l-72 91l-72 -91h-68l102 129h76zM578 526v-526h-78v112q-29 -55 -81.5 -85.5
t-122.5 -30.5q-56 0 -103 20t-80.5 55.5t-52 84.5t-18.5 108q0 58 18.5 107t51.5 84.5t79 55t102 19.5q72 1 124.5 -29.5t82.5 -86.5v112h78zM311 63q39 0 72 13t58 36.5t40.5 56.5t18.5 73v40q-3 40 -18.5 73t-40.5 57t-58 37t-72 13q-42 0 -77 -15t-60.5 -41.5
t-39.5 -63.5t-14 -80q0 -44 14 -80.5t39.5 -62.5t60.5 -41t77 -15z" />
    <glyph glyph-name="uni0201" unicode="&#x201;" horiz-adv-x="577" 
d="M187 615l-93 106l67 33l91 -139h-65zM334 615l-93 106l67 33l91 -139h-65zM422 0v82q-32 -43 -81 -64t-112 -21q-41 0 -74 12t-56.5 33.5t-36 50.5t-12.5 63q0 69 51.5 109.5t145.5 41.5h173v33q0 58 -35.5 91t-105.5 33q-44 0 -84.5 -16t-82.5 -45l-33 55q25 17 49.5 30
t50 22t53.5 14t62 5q98 0 150 -48t53 -133l1 -348h-76zM244 62q67 0 114.5 31t62.5 88v64h-164q-134 0 -134 -86q0 -44 32.5 -70.5t88.5 -26.5z" />
    <glyph glyph-name="uni0201.ss01" horiz-adv-x="672" 
d="M236 615l-93 106l67 33l91 -139h-65zM383 615l-93 106l67 33l91 -139h-65zM578 526v-526h-78v112q-29 -55 -81.5 -85.5t-122.5 -30.5q-56 0 -103 20t-80.5 55.5t-52 84.5t-18.5 108q0 58 18.5 107t51.5 84.5t79 55t102 19.5q72 1 124.5 -29.5t82.5 -86.5v112h78zM311 63
q39 0 72 13t58 36.5t40.5 56.5t18.5 73v40q-3 40 -18.5 73t-40.5 57t-58 37t-72 13q-42 0 -77 -15t-60.5 -41.5t-39.5 -63.5t-14 -80q0 -44 14 -80.5t39.5 -62.5t60.5 -41t77 -15z" />
    <glyph glyph-name="adieresis" unicode="&#xe4;" horiz-adv-x="577" 
d="M201 628q-20 0 -33.5 14.5t-13.5 34.5q0 22 13.5 36t33.5 14t34 -14t14 -36q0 -20 -14 -34.5t-34 -14.5zM368 628q-20 0 -34 14.5t-14 34.5q0 22 14 36t34 14t33.5 -14t13.5 -36q0 -20 -13.5 -34.5t-33.5 -14.5zM422 0v82q-32 -43 -81 -64t-112 -21q-41 0 -74 12
t-56.5 33.5t-36 50.5t-12.5 63q0 69 51.5 109.5t145.5 41.5h173v33q0 58 -35.5 91t-105.5 33q-44 0 -84.5 -16t-82.5 -45l-33 55q25 17 49.5 30t50 22t53.5 14t62 5q98 0 150 -48t53 -133l1 -348h-76zM244 62q67 0 114.5 31t62.5 88v64h-164q-134 0 -134 -86
q0 -44 32.5 -70.5t88.5 -26.5z" />
    <glyph glyph-name="adieresis.ss01" horiz-adv-x="672" 
d="M250 628q-20 0 -33.5 14.5t-13.5 34.5q0 22 13.5 36t33.5 14t34 -14t14 -36q0 -20 -14 -34.5t-34 -14.5zM417 628q-20 0 -34 14.5t-14 34.5q0 22 14 36t34 14t33.5 -14t13.5 -36q0 -20 -13.5 -34.5t-33.5 -14.5zM578 526v-526h-78v112q-29 -55 -81.5 -85.5t-122.5 -30.5
q-56 0 -103 20t-80.5 55.5t-52 84.5t-18.5 108q0 58 18.5 107t51.5 84.5t79 55t102 19.5q72 1 124.5 -29.5t82.5 -86.5v112h78zM311 63q39 0 72 13t58 36.5t40.5 56.5t18.5 73v40q-3 40 -18.5 73t-40.5 57t-58 37t-72 13q-42 0 -77 -15t-60.5 -41.5t-39.5 -63.5t-14 -80
q0 -44 14 -80.5t39.5 -62.5t60.5 -41t77 -15z" />
    <glyph glyph-name="uni1EA1" unicode="&#x1ea1;" horiz-adv-x="577" 
d="M422 0v82q-32 -43 -81 -64t-112 -21q-41 0 -74 12t-56.5 33.5t-36 50.5t-12.5 63q0 69 51.5 109.5t145.5 41.5h173v33q0 58 -35.5 91t-105.5 33q-44 0 -84.5 -16t-82.5 -45l-33 55q25 17 49.5 30t50 22t53.5 14t62 5q98 0 150 -48t53 -133l1 -348h-76zM244 62
q67 0 114.5 31t62.5 88v64h-164q-134 0 -134 -86q0 -44 32.5 -70.5t88.5 -26.5zM285 -55q22 0 36.5 -15t14.5 -38t-14.5 -38.5t-36.5 -15.5t-36.5 15.5t-14.5 38.5t14.5 38t36.5 15z" />
    <glyph glyph-name="uni1EA1.ss01" horiz-adv-x="672" 
d="M578 526v-526h-78v112q-29 -55 -81.5 -85.5t-122.5 -30.5q-56 0 -103 20t-80.5 55.5t-52 84.5t-18.5 108q0 58 18.5 107t51.5 84.5t79 55t102 19.5q72 1 124.5 -29.5t82.5 -86.5v112h78zM311 63q39 0 72 13t58 36.5t40.5 56.5t18.5 73v40q-3 40 -18.5 73t-40.5 57t-58 37
t-72 13q-42 0 -77 -15t-60.5 -41.5t-39.5 -63.5t-14 -80q0 -44 14 -80.5t39.5 -62.5t60.5 -41t77 -15zM333 -55q22 0 36.5 -15t14.5 -38t-14.5 -38.5t-36.5 -15.5t-36.5 15.5t-14.5 38.5t14.5 38t36.5 15z" />
    <glyph glyph-name="agrave" unicode="&#xe0;" horiz-adv-x="577" 
d="M259 615l-125 99l80 36l120 -135h-75zM422 0v82q-32 -43 -81 -64t-112 -21q-41 0 -74 12t-56.5 33.5t-36 50.5t-12.5 63q0 69 51.5 109.5t145.5 41.5h173v33q0 58 -35.5 91t-105.5 33q-44 0 -84.5 -16t-82.5 -45l-33 55q25 17 49.5 30t50 22t53.5 14t62 5q98 0 150 -48
t53 -133l1 -348h-76zM244 62q67 0 114.5 31t62.5 88v64h-164q-134 0 -134 -86q0 -44 32.5 -70.5t88.5 -26.5z" />
    <glyph glyph-name="agrave.ss01" horiz-adv-x="672" 
d="M308 615l-125 99l80 36l120 -135h-75zM578 526v-526h-78v112q-29 -55 -81.5 -85.5t-122.5 -30.5q-56 0 -103 20t-80.5 55.5t-52 84.5t-18.5 108q0 58 18.5 107t51.5 84.5t79 55t102 19.5q72 1 124.5 -29.5t82.5 -86.5v112h78zM311 63q39 0 72 13t58 36.5t40.5 56.5
t18.5 73v40q-3 40 -18.5 73t-40.5 57t-58 37t-72 13q-42 0 -77 -15t-60.5 -41.5t-39.5 -63.5t-14 -80q0 -44 14 -80.5t39.5 -62.5t60.5 -41t77 -15z" />
    <glyph glyph-name="uni1EA3" unicode="&#x1ea3;" horiz-adv-x="577" 
d="M282 711q-22 0 -35 -12t-15 -32l-41 15q5 34 30 53.5t61 19.5q40 0 63.5 -23.5t23.5 -58.5q0 -29 -14.5 -51t-40.5 -42l-41 14q25 20 39 37.5t14 39.5q0 17 -11 28.5t-33 11.5zM422 0v82q-32 -43 -81 -64t-112 -21q-41 0 -74 12t-56.5 33.5t-36 50.5t-12.5 63
q0 69 51.5 109.5t145.5 41.5h173v33q0 58 -35.5 91t-105.5 33q-44 0 -84.5 -16t-82.5 -45l-33 55q25 17 49.5 30t50 22t53.5 14t62 5q98 0 150 -48t53 -133l1 -348h-76zM244 62q67 0 114.5 31t62.5 88v64h-164q-134 0 -134 -86q0 -44 32.5 -70.5t88.5 -26.5z" />
    <glyph glyph-name="uni1EA3.ss01" horiz-adv-x="672" 
d="M331 711q-22 0 -35 -12t-15 -32l-41 15q5 34 30 53.5t61 19.5q40 0 63.5 -23.5t23.5 -58.5q0 -29 -14.5 -51t-40.5 -42l-41 14q25 20 39 37.5t14 39.5q0 17 -11 28.5t-33 11.5zM578 526v-526h-78v112q-29 -55 -81.5 -85.5t-122.5 -30.5q-56 0 -103 20t-80.5 55.5
t-52 84.5t-18.5 108q0 58 18.5 107t51.5 84.5t79 55t102 19.5q72 1 124.5 -29.5t82.5 -86.5v112h78zM311 63q39 0 72 13t58 36.5t40.5 56.5t18.5 73v40q-3 40 -18.5 73t-40.5 57t-58 37t-72 13q-42 0 -77 -15t-60.5 -41.5t-39.5 -63.5t-14 -80q0 -44 14 -80.5t39.5 -62.5
t60.5 -41t77 -15z" />
    <glyph glyph-name="uni0203" unicode="&#x203;" horiz-adv-x="577" 
d="M284 685q-30 0 -50 -20.5t-22 -52.5h-55q1 28 11 52t27 41t39.5 26.5t49.5 9.5t49.5 -9.5t39.5 -26.5t27 -41t11 -52h-55q-2 32 -22 52.5t-50 20.5zM422 0v82q-32 -43 -81 -64t-112 -21q-41 0 -74 12t-56.5 33.5t-36 50.5t-12.5 63q0 69 51.5 109.5t145.5 41.5h173v33
q0 58 -35.5 91t-105.5 33q-44 0 -84.5 -16t-82.5 -45l-33 55q25 17 49.5 30t50 22t53.5 14t62 5q98 0 150 -48t53 -133l1 -348h-76zM244 62q67 0 114.5 31t62.5 88v64h-164q-134 0 -134 -86q0 -44 32.5 -70.5t88.5 -26.5z" />
    <glyph glyph-name="uni0203.ss01" horiz-adv-x="672" 
d="M333 685q-30 0 -50 -20.5t-22 -52.5h-55q1 28 11 52t27 41t39.5 26.5t49.5 9.5t49.5 -9.5t39.5 -26.5t27 -41t11 -52h-55q-2 32 -22 52.5t-50 20.5zM578 526v-526h-78v112q-29 -55 -81.5 -85.5t-122.5 -30.5q-56 0 -103 20t-80.5 55.5t-52 84.5t-18.5 108q0 58 18.5 107
t51.5 84.5t79 55t102 19.5q72 1 124.5 -29.5t82.5 -86.5v112h78zM311 63q39 0 72 13t58 36.5t40.5 56.5t18.5 73v40q-3 40 -18.5 73t-40.5 57t-58 37t-72 13q-42 0 -77 -15t-60.5 -41.5t-39.5 -63.5t-14 -80q0 -44 14 -80.5t39.5 -62.5t60.5 -41t77 -15z" />
    <glyph glyph-name="amacron" unicode="&#x101;" horiz-adv-x="577" 
d="M405 647h-241v59h241v-59zM422 0v82q-32 -43 -81 -64t-112 -21q-41 0 -74 12t-56.5 33.5t-36 50.5t-12.5 63q0 69 51.5 109.5t145.5 41.5h173v33q0 58 -35.5 91t-105.5 33q-44 0 -84.5 -16t-82.5 -45l-33 55q25 17 49.5 30t50 22t53.5 14t62 5q98 0 150 -48t53 -133
l1 -348h-76zM244 62q67 0 114.5 31t62.5 88v64h-164q-134 0 -134 -86q0 -44 32.5 -70.5t88.5 -26.5z" />
    <glyph glyph-name="amacron.ss01" horiz-adv-x="672" 
d="M454 647h-241v59h241v-59zM578 526v-526h-78v112q-29 -55 -81.5 -85.5t-122.5 -30.5q-56 0 -103 20t-80.5 55.5t-52 84.5t-18.5 108q0 58 18.5 107t51.5 84.5t79 55t102 19.5q72 1 124.5 -29.5t82.5 -86.5v112h78zM311 63q39 0 72 13t58 36.5t40.5 56.5t18.5 73v40
q-3 40 -18.5 73t-40.5 57t-58 37t-72 13q-42 0 -77 -15t-60.5 -41.5t-39.5 -63.5t-14 -80q0 -44 14 -80.5t39.5 -62.5t60.5 -41t77 -15z" />
    <glyph glyph-name="aogonek" unicode="&#x105;" horiz-adv-x="581" 
d="M478 0q-37 -42 -51 -68.5t-14 -46.5q0 -18 10 -28t25 -10t28 9t26 24l25 -30q-17 -23 -39.5 -36.5t-47.5 -13.5q-29 0 -51 18t-22 55q0 28 16.5 59t52.5 70h-14v80q-32 -45 -81.5 -65t-108.5 -20q-43 0 -76.5 12.5t-57 34t-36 50.5t-12.5 62q0 70 51.5 110t145.5 41h175
v32q-1 59 -36.5 92t-105.5 33q-45 0 -85.5 -16t-82.5 -45l-33 55q25 17 49.5 30t50 22t54 14t63.5 5q97 0 149.5 -48t53.5 -133v-348h-21zM258 245q-68 0 -101.5 -21t-33.5 -66q0 -42 32 -69t92 -27q31 0 59.5 8t52 23t40 36.5t23.5 48.5v67h-164z" />
    <glyph glyph-name="aogonek.ss01" horiz-adv-x="672" 
d="M623 -150q-17 -23 -39.5 -36.5t-47.5 -13.5q-29 0 -51 18t-22 56q0 26 13 56.5t42 69.5h-18v112q-29 -55 -81.5 -85.5t-122.5 -30.5q-56 0 -103 20t-80.5 55.5t-52 84.5t-18.5 108q0 58 18.5 107t51.5 84.5t79 55t102 19.5q72 1 124.5 -29.5t82.5 -86.5v112h78v-526h-16
q-30 -41 -42 -68t-12 -47q0 -18 10 -28t25 -10t28.5 9t25.5 24zM311 63q39 0 72 13t58 36.5t40.5 56.5t18.5 73v40q-3 40 -18.5 73t-40.5 57t-58 37t-72 13q-42 0 -77 -15t-60.5 -41.5t-39.5 -63.5t-14 -80q0 -44 14 -80.5t39.5 -62.5t60.5 -41t77 -15z" />
    <glyph glyph-name="aring" unicode="&#xe5;" horiz-adv-x="577" 
d="M284 565q-24 0 -44.5 9t-36.5 24.5t-25 36t-9 43.5t9 43.5t25 36.5t36.5 25t44.5 9t45 -9t36.5 -25t25 -36.5t9.5 -43.5t-9.5 -43.5t-25 -36t-36.5 -24.5t-45 -9zM284 752q-32 0 -54.5 -22t-22.5 -52t22.5 -51.5t54.5 -21.5t55 21.5t23 51.5t-23 52t-55 22zM422 0v82
q-32 -43 -81 -64t-112 -21q-41 0 -74 12t-56.5 33.5t-36 50.5t-12.5 63q0 69 51.5 109.5t145.5 41.5h173v33q0 58 -35.5 91t-105.5 33q-44 0 -84.5 -16t-82.5 -45l-33 55q25 17 49.5 30t50 22t53.5 14t62 5q98 0 150 -48t53 -133l1 -348h-76zM244 62q67 0 114.5 31t62.5 88
v64h-164q-134 0 -134 -86q0 -44 32.5 -70.5t88.5 -26.5z" />
    <glyph glyph-name="aring.ss01" horiz-adv-x="672" 
d="M333 565q-24 0 -44.5 9t-36.5 24.5t-25 36t-9 43.5t9 43.5t25 36.5t36.5 25t44.5 9t45 -9t36.5 -25t25 -36.5t9.5 -43.5t-9.5 -43.5t-25 -36t-36.5 -24.5t-45 -9zM333 752q-32 0 -54.5 -22t-22.5 -52t22.5 -51.5t54.5 -21.5t55 21.5t23 51.5t-23 52t-55 22zM578 526v-526
h-78v112q-29 -55 -81.5 -85.5t-122.5 -30.5q-56 0 -103 20t-80.5 55.5t-52 84.5t-18.5 108q0 58 18.5 107t51.5 84.5t79 55t102 19.5q72 1 124.5 -29.5t82.5 -86.5v112h78zM311 63q39 0 72 13t58 36.5t40.5 56.5t18.5 73v40q-3 40 -18.5 73t-40.5 57t-58 37t-72 13
q-42 0 -77 -15t-60.5 -41.5t-39.5 -63.5t-14 -80q0 -44 14 -80.5t39.5 -62.5t60.5 -41t77 -15z" />
    <glyph glyph-name="aringacute" unicode="&#x1fb;" horiz-adv-x="577" 
d="M312 829h-75l120 135l79 -36zM284 565q-24 0 -44.5 9t-36.5 24.5t-25 36t-9 43.5t9 43.5t25 36.5t36.5 25t44.5 9t45 -9t36.5 -25t25 -36.5t9.5 -43.5t-9.5 -43.5t-25 -36t-36.5 -24.5t-45 -9zM284 752q-32 0 -54.5 -22t-22.5 -52t22.5 -51.5t54.5 -21.5t55 21.5t23 51.5
t-23 52t-55 22zM422 0v82q-32 -43 -81 -64t-112 -21q-41 0 -74 12t-56.5 33.5t-36 50.5t-12.5 63q0 69 51.5 109.5t145.5 41.5h173v33q0 58 -35.5 91t-105.5 33q-44 0 -84.5 -16t-82.5 -45l-33 55q25 17 49.5 30t50 22t53.5 14t62 5q98 0 150 -48t53 -133l1 -348h-76z
M244 62q67 0 114.5 31t62.5 88v64h-164q-134 0 -134 -86q0 -44 32.5 -70.5t88.5 -26.5z" />
    <glyph glyph-name="aringacute.ss01" horiz-adv-x="672" 
d="M361 829h-75l120 135l79 -36zM333 565q-24 0 -44.5 9t-36.5 24.5t-25 36t-9 43.5t9 43.5t25 36.5t36.5 25t44.5 9t45 -9t36.5 -25t25 -36.5t9.5 -43.5t-9.5 -43.5t-25 -36t-36.5 -24.5t-45 -9zM333 752q-32 0 -54.5 -22t-22.5 -52t22.5 -51.5t54.5 -21.5t55 21.5t23 51.5
t-23 52t-55 22zM578 526v-526h-78v112q-29 -55 -81.5 -85.5t-122.5 -30.5q-56 0 -103 20t-80.5 55.5t-52 84.5t-18.5 108q0 58 18.5 107t51.5 84.5t79 55t102 19.5q72 1 124.5 -29.5t82.5 -86.5v112h78zM311 63q39 0 72 13t58 36.5t40.5 56.5t18.5 73v40q-3 40 -18.5 73
t-40.5 57t-58 37t-72 13q-42 0 -77 -15t-60.5 -41.5t-39.5 -63.5t-14 -80q0 -44 14 -80.5t39.5 -62.5t60.5 -41t77 -15z" />
    <glyph glyph-name="atilde" unicode="&#xe3;" horiz-adv-x="577" 
d="M230 685q-43 0 -43 -53h-52q0 112 83 112q21 0 37 -9.5t29.5 -21t26.5 -21t28 -9.5q43 0 43 53h52q0 -112 -83 -112q-22 0 -38 9.5t-29.5 21t-26 21t-27.5 9.5zM422 0v82q-32 -43 -81 -64t-112 -21q-41 0 -74 12t-56.5 33.5t-36 50.5t-12.5 63q0 69 51.5 109.5
t145.5 41.5h173v33q0 58 -35.5 91t-105.5 33q-44 0 -84.5 -16t-82.5 -45l-33 55q25 17 49.5 30t50 22t53.5 14t62 5q98 0 150 -48t53 -133l1 -348h-76zM244 62q67 0 114.5 31t62.5 88v64h-164q-134 0 -134 -86q0 -44 32.5 -70.5t88.5 -26.5z" />
    <glyph glyph-name="atilde.ss01" horiz-adv-x="672" 
d="M279 685q-43 0 -43 -53h-52q0 112 83 112q21 0 37 -9.5t29.5 -21t26.5 -21t28 -9.5q43 0 43 53h52q0 -112 -83 -112q-22 0 -38 9.5t-29.5 21t-26 21t-27.5 9.5zM578 526v-526h-78v112q-29 -55 -81.5 -85.5t-122.5 -30.5q-56 0 -103 20t-80.5 55.5t-52 84.5t-18.5 108
q0 58 18.5 107t51.5 84.5t79 55t102 19.5q72 1 124.5 -29.5t82.5 -86.5v112h78zM311 63q39 0 72 13t58 36.5t40.5 56.5t18.5 73v40q-3 40 -18.5 73t-40.5 57t-58 37t-72 13q-42 0 -77 -15t-60.5 -41.5t-39.5 -63.5t-14 -80q0 -44 14 -80.5t39.5 -62.5t60.5 -41t77 -15z" />
    <glyph glyph-name="ae" unicode="&#xe6;" horiz-adv-x="980" 
d="M501 229q0 -33 15.5 -63t42 -53t61.5 -36.5t73 -13.5q49 0 90.5 17t72.5 50l43 -46q-39 -42 -93 -64.5t-118 -22.5q-80 0 -141 37t-90 102q-65 -139 -228 -139q-40 0 -73 11.5t-56.5 32t-36.5 49t-13 63.5q0 68 52 105.5t146 38.5h174v43q-1 60 -37.5 92t-105.5 32
q-84 0 -178 -61l-22 57q111 69 215 69q72 0 120 -27.5t66 -78.5q32 51 85.5 78.5t120.5 27.5q58 0 105.5 -20.5t81 -57t51.5 -88.5t17 -115h-440v-19zM863 294q-2 39 -16 71.5t-37 55.5t-54.5 35.5t-68.5 12.5q-38 0 -70.5 -12.5t-56.5 -35.5t-39.5 -55.5t-18.5 -71.5h361z
M262 251q-66 0 -102.5 -23.5t-36.5 -68.5q0 -47 33.5 -75.5t88.5 -28.5q65 0 108 28.5t70 90.5v77h-161z" />
    <glyph glyph-name="ae.ss01" horiz-adv-x="968" 
d="M700 62q98 0 167 77l46 -43q-84 -99 -218 -99q-78 0 -141 35.5t-96 98.5q-66 -134 -228 -134q-40 0 -73 12t-57 33t-37 50t-13 64q0 70 52 110t145 41h174v32q-1 61 -37.5 93t-105.5 32q-80 0 -166 -61l-33 55q30 19 56 33t51.5 22t51.5 12t56 4q71 0 118.5 -27t66.5 -78
q32 50 88 77.5t126 27.5q48 0 88 -14t70.5 -41t50.5 -65t27 -86l-407 -139q20 -56 67.5 -89t110.5 -33zM693 463q-87 0 -136.5 -54t-48.5 -149v-8t1 -8l342 118q-42 101 -158 101zM422 245h-164q-135 0 -135 -86q0 -45 33 -71t88 -26q69 0 115 32t63 91v60z" />
    <glyph glyph-name="aeacute" unicode="&#x1fd;" horiz-adv-x="980" 
d="M642 714l-124 -99h-75l120 135zM501 229q0 -33 15.5 -63t42 -53t61.5 -36.5t73 -13.5q49 0 90.5 17t72.5 50l43 -46q-39 -42 -93 -64.5t-118 -22.5q-80 0 -141 37t-90 102q-65 -139 -228 -139q-40 0 -73 11.5t-56.5 32t-36.5 49t-13 63.5q0 68 52 105.5t146 38.5h174v43
q-1 60 -37.5 92t-105.5 32q-84 0 -178 -61l-22 57q111 69 215 69q72 0 120 -27.5t66 -78.5q32 51 85.5 78.5t120.5 27.5q58 0 105.5 -20.5t81 -57t51.5 -88.5t17 -115h-440v-19zM863 294q-2 39 -16 71.5t-37 55.5t-54.5 35.5t-68.5 12.5q-38 0 -70.5 -12.5t-56.5 -35.5
t-39.5 -55.5t-18.5 -71.5h361zM262 251q-66 0 -102.5 -23.5t-36.5 -68.5q0 -47 33.5 -75.5t88.5 -28.5q65 0 108 28.5t70 90.5v77h-161z" />
    <glyph glyph-name="aeacute.ss01" horiz-adv-x="968" 
d="M509 615h-75l120 135l79 -36zM700 62q98 0 167 77l46 -43q-84 -99 -218 -99q-78 0 -141 35.5t-96 98.5q-66 -134 -228 -134q-40 0 -73 12t-57 33t-37 50t-13 64q0 70 52 110t145 41h174v32q-1 61 -37.5 93t-105.5 32q-80 0 -166 -61l-33 55q30 19 56 33t51.5 22t51.5 12
t56 4q71 0 118.5 -27t66.5 -78q32 50 88 77.5t126 27.5q48 0 88 -14t70.5 -41t50.5 -65t27 -86l-407 -139q20 -56 67.5 -89t110.5 -33zM693 463q-87 0 -136.5 -54t-48.5 -149v-8t1 -8l342 118q-42 101 -158 101zM422 245h-164q-135 0 -135 -86q0 -45 33 -71t88 -26
q69 0 115 32t63 91v60z" />
    <glyph glyph-name="b" unicode="b" horiz-adv-x="676" 
d="M381 529q56 0 102.5 -19.5t80 -55t52 -84.5t18.5 -108t-18.5 -107.5t-51.5 -83.5t-79 -54.5t-102 -19.5q-71 0 -123.5 30.5t-81.5 85.5v-113h-78v742h78v-329q29 55 81.5 85.5t121.5 30.5zM367 66q41 0 75.5 15t59.5 41t39 62.5t14 79.5t-14 79t-39 62.5t-59.5 41.5
t-75.5 15q-42 0 -76.5 -15t-59.5 -41t-39 -62.5t-14 -79.5q0 -44 14 -80t39 -62.5t59.5 -41t76.5 -14.5z" />
    <glyph glyph-name="c" unicode="c" horiz-adv-x="561" 
d="M463 397q-30 29 -69.5 45.5t-87.5 16.5q-41 0 -75.5 -14.5t-59 -40t-38.5 -62t-14 -79.5q0 -44 14 -80t38.5 -62t59 -40.5t75.5 -14.5q106 0 163 68l45 -46q-35 -43 -88.5 -67t-122.5 -24q-57 0 -105 19.5t-82.5 54.5t-54 84t-19.5 108q0 58 19.5 107t54 84.5t82.5 55
t105 19.5q64 0 115.5 -20.5t87.5 -57.5l-43 -54v0z" />
    <glyph glyph-name="cacute" unicode="&#x107;" horiz-adv-x="561" 
d="M440 714l-124 -99h-75l120 135zM463 397q-30 29 -69.5 45.5t-87.5 16.5q-41 0 -75.5 -14.5t-59 -40t-38.5 -62t-14 -79.5q0 -44 14 -80t38.5 -62t59 -40.5t75.5 -14.5q106 0 163 68l45 -46q-35 -43 -88.5 -67t-122.5 -24q-57 0 -105 19.5t-82.5 54.5t-54 84t-19.5 108
q0 58 19.5 107t54 84.5t82.5 55t105 19.5q64 0 115.5 -20.5t87.5 -57.5z" />
    <glyph glyph-name="ccaron" unicode="&#x10d;" horiz-adv-x="561" 
d="M220 745l72 -94l72 94h73l-104 -135h-82l-104 135h73zM463 397q-30 29 -69.5 45.5t-87.5 16.5q-41 0 -75.5 -14.5t-59 -40t-38.5 -62t-14 -79.5q0 -44 14 -80t38.5 -62t59 -40.5t75.5 -14.5q106 0 163 68l45 -46q-35 -43 -88.5 -67t-122.5 -24q-57 0 -105 19.5
t-82.5 54.5t-54 84t-19.5 108q0 58 19.5 107t54 84.5t82.5 55t105 19.5q64 0 115.5 -20.5t87.5 -57.5z" />
    <glyph glyph-name="ccedilla" unicode="&#xe7;" horiz-adv-x="561" 
d="M514 88q-32 -39 -79 -62t-107 -28l-21 -48q31 -4 51 -23.5t20 -51.5q1 -41 -27 -65.5t-70 -24.5q-23 0 -44.5 7t-36.5 18l17 41q12 -9 28 -14.5t31 -5.5q25 0 39.5 14.5t13.5 33.5q0 17 -13 30t-37 13q-8 0 -17 -1t-16 -2l34 79q-53 4 -96.5 25t-75 55.5t-49 81.5
t-17.5 103q0 58 19.5 107t54 84.5t82.5 55t105 19.5q64 0 115.5 -20.5t87.5 -57.5l-43 -54q-30 29 -69.5 45.5t-87.5 16.5q-41 0 -75.5 -14.5t-59 -40t-38.5 -62t-14 -79.5q0 -44 14 -80t38.5 -62t59 -40.5t75.5 -14.5q106 0 163 68l45 -46v0z" />
    <glyph glyph-name="uni1E09" unicode="&#x1e09;" horiz-adv-x="561" 
d="M322 615h-75l120 135l79 -36zM514 88q-34 -42 -85 -65.5t-117 -25.5l-24 -54q31 -4 51 -23.5t20 -51.5q1 -41 -27 -65.5t-70 -24.5q-23 0 -44.5 7t-36.5 18l17 41q12 -9 28 -14.5t31 -5.5q25 0 39.5 14.5t13.5 33.5q0 17 -13 30t-37 13q-8 0 -17 -1t-16 -2l37 87
q-50 6 -90.5 28t-70 56.5t-45.5 80t-16 99.5q0 58 19.5 107t54 84.5t82.5 55t105 19.5q64 0 115.5 -20.5t87.5 -57.5l-43 -54q-30 29 -69.5 45.5t-87.5 16.5q-41 0 -75.5 -14.5t-59 -40t-38.5 -62t-14 -79.5q0 -44 14 -80t38.5 -62t59 -40.5t75.5 -14.5q106 0 163 68z" />
    <glyph glyph-name="ccircumflex" unicode="&#x109;" horiz-adv-x="561" 
d="M332 745l102 -129h-68l-72 91l-72 -91h-68l102 129h76zM463 397q-30 29 -69.5 45.5t-87.5 16.5q-41 0 -75.5 -14.5t-59 -40t-38.5 -62t-14 -79.5q0 -44 14 -80t38.5 -62t59 -40.5t75.5 -14.5q106 0 163 68l45 -46q-35 -43 -88.5 -67t-122.5 -24q-57 0 -105 19.5
t-82.5 54.5t-54 84t-19.5 108q0 58 19.5 107t54 84.5t82.5 55t105 19.5q64 0 115.5 -20.5t87.5 -57.5z" />
    <glyph glyph-name="cdotaccent" unicode="&#x10b;" horiz-adv-x="561" 
d="M294 730q22 0 36.5 -15t14.5 -38t-14.5 -38t-36.5 -15t-36.5 15t-14.5 38t14.5 38t36.5 15zM463 397q-30 29 -69.5 45.5t-87.5 16.5q-41 0 -75.5 -14.5t-59 -40t-38.5 -62t-14 -79.5q0 -44 14 -80t38.5 -62t59 -40.5t75.5 -14.5q106 0 163 68l45 -46q-35 -43 -88.5 -67
t-122.5 -24q-57 0 -105 19.5t-82.5 54.5t-54 84t-19.5 108q0 58 19.5 107t54 84.5t82.5 55t105 19.5q64 0 115.5 -20.5t87.5 -57.5z" />
    <glyph glyph-name="d" unicode="d" horiz-adv-x="679" 
d="M579 742v-742h-78v113q-29 -56 -81.5 -86.5t-123.5 -30.5q-56 0 -103 20t-80.5 55.5t-52 84.5t-18.5 108t18.5 108t52 84t80 54.5t102.5 19.5q71 0 124 -30.5t82 -87.5v330h78zM311 63q42 0 76.5 15t60 41t39.5 62.5t14 80.5q0 43 -14 80t-39.5 63.5t-60 41.5t-76.5 15
t-77 -15t-60.5 -41.5t-39.5 -63.5t-14 -80q0 -44 14 -80.5t39.5 -62.5t60.5 -41t77 -15z" />
    <glyph glyph-name="eth" unicode="&#xf0;" horiz-adv-x="581" 
d="M373 612q79 -78 123 -171.5t44 -190.5q0 -58 -18 -104.5t-52 -79.5t-81.5 -51t-106.5 -18q-54 0 -97.5 16t-74 45.5t-47.5 71.5t-17 94q0 49 16 89t45.5 68.5t71.5 44t94 15.5q62 0 113 -26t75 -71q-19 65 -60.5 127.5t-99.5 117.5l-145 -46l-13 44l117 38q-29 23 -60 43
t-64 37l51 40q41 -20 77.5 -44.5t69.5 -52.5l126 41l14 -45zM288 67q78 0 124 42t46 113q0 73 -46 116.5t-124 43.5q-77 0 -122 -41.5t-45 -112.5q0 -74 45 -117.5t122 -43.5z" />
    <glyph glyph-name="dcaron" unicode="&#x10f;" horiz-adv-x="712" 
d="M501 742h78v-742h-78v113q-29 -56 -81.5 -86.5t-123.5 -30.5q-56 0 -103 20t-80.5 55.5t-52 84.5t-18.5 108t18.5 108t52 84t80 54.5t102.5 19.5q71 0 124 -30.5t82 -87.5v330zM734 742l-20 -193h-54v193h74zM311 63q42 0 76.5 15t60 41t39.5 62.5t14 80.5q0 43 -14 80
t-39.5 63.5t-60 41.5t-76.5 15t-77 -15t-60.5 -41.5t-39.5 -63.5t-14 -80q0 -44 14 -80.5t39.5 -62.5t60.5 -41t77 -15z" />
    <glyph glyph-name="dcroat" unicode="&#x111;" horiz-adv-x="678" 
d="M650 631h-71v-631h-78v113q-29 -56 -81.5 -86.5t-123.5 -30.5q-56 0 -103 20t-80.5 55.5t-52 84.5t-18.5 108t18.5 108t52 84t80 54.5t102.5 19.5q71 0 124 -30.5t82 -87.5v219h-108v49h108v62h78v-62h71v-49zM311 63q42 0 76.5 15t60 41t39.5 62.5t14 80.5q0 43 -14 80
t-39.5 63.5t-60 41.5t-76.5 15t-77 -15t-60.5 -41.5t-39.5 -63.5t-14 -80q0 -44 14 -80.5t39.5 -62.5t60.5 -41t77 -15z" />
    <glyph glyph-name="uni1E0D" unicode="&#x1e0d;" horiz-adv-x="679" 
d="M579 742v-742h-78v113q-29 -56 -81.5 -86.5t-123.5 -30.5q-56 0 -103 20t-80.5 55.5t-52 84.5t-18.5 108t18.5 108t52 84t80 54.5t102.5 19.5q71 0 124 -30.5t82 -87.5v330h78zM311 63q42 0 76.5 15t60 41t39.5 62.5t14 80.5q0 43 -14 80t-39.5 63.5t-60 41.5t-76.5 15
t-77 -15t-60.5 -41.5t-39.5 -63.5t-14 -80q0 -44 14 -80.5t39.5 -62.5t60.5 -41t77 -15zM347 -56q22 0 36.5 -15t14.5 -38t-14.5 -38t-36.5 -15t-36.5 15t-14.5 38t14.5 38t36.5 15z" />
    <glyph glyph-name="uni1E0F" unicode="&#x1e0f;" horiz-adv-x="679" 
d="M579 742v-742h-78v113q-29 -56 -81.5 -86.5t-123.5 -30.5q-56 0 -103 20t-80.5 55.5t-52 84.5t-18.5 108t18.5 108t52 84t80 54.5t102.5 19.5q71 0 124 -30.5t82 -87.5v330h78zM311 63q42 0 76.5 15t60 41t39.5 62.5t14 80.5q0 43 -14 80t-39.5 63.5t-60 41.5t-76.5 15
t-77 -15t-60.5 -41.5t-39.5 -63.5t-14 -80q0 -44 14 -80.5t39.5 -62.5t60.5 -41t77 -15zM226 -63h241v-59h-241v59z" />
    <glyph glyph-name="uni01C6" unicode="&#x1c6;" horiz-adv-x="1206" 
d="M902 610l-104 135h73l72 -94l72 94h73l-104 -135h-82zM501 742h78v-742h-78v113q-29 -56 -81.5 -86.5t-123.5 -30.5q-56 0 -103 20t-80.5 55.5t-52 84.5t-18.5 108t18.5 108t52 84t80 54.5t102.5 19.5q71 0 124 -30.5t82 -87.5v330zM1163 65v-66l-432 1v58l330 402
l-321 1v65h415v-58l-330 -402zM311 63q42 0 76.5 15t60 41t39.5 62.5t14 80.5q0 43 -14 80t-39.5 63.5t-60 41.5t-76.5 15t-77 -15t-60.5 -41.5t-39.5 -63.5t-14 -80q0 -44 14 -80.5t39.5 -62.5t60.5 -41t77 -15z" />
    <glyph glyph-name="uni01C6.ss01" horiz-adv-x="1206" 
d="M908 610l-104 135h73l72 -94l72 94h73l-104 -135h-82zM501 742h78v-742h-78v113q-29 -56 -81.5 -86.5t-123.5 -30.5q-56 0 -103 20t-80.5 55.5t-52 84.5t-18.5 108t18.5 108t52 84t80 54.5t102.5 19.5q71 0 124 -30.5t82 -87.5v330zM1163 65v-66l-432 1v58l145 177h-107
v64h159l132 161l-320 1v65l415 -1v-57l-142 -173h106v-64h-158l-136 -166h338zM311 63q42 0 76.5 15t60 41t39.5 62.5t14 80.5q0 43 -14 80t-39.5 63.5t-60 41.5t-76.5 15t-77 -15t-60.5 -41.5t-39.5 -63.5t-14 -80q0 -44 14 -80.5t39.5 -62.5t60.5 -41t77 -15z" />
    <glyph glyph-name="e" unicode="e" horiz-adv-x="588" 
d="M303 529q64 0 111.5 -21t78.5 -59.5t45 -93t11 -121.5h-430q5 -39 21 -71t41 -54.5t57.5 -34.5t71.5 -12q49 0 90.5 17.5t72.5 49.5l43 -45q-38 -42 -92 -64.5t-120 -22.5q-58 0 -106.5 19.5t-83 54.5t-53.5 84t-19 108t19.5 107.5t54 84t82.5 55t105 19.5zM479 296
q-4 77 -51 122.5t-125 45.5q-76 0 -126 -45.5t-58 -122.5h360z" />
    <glyph glyph-name="e.ss01" horiz-adv-x="576" 
d="M314 62q99 0 168 84l47 -42q-86 -107 -220 -107q-59 0 -108 19.5t-84.5 54.5t-55 84.5t-19.5 108.5q0 57 18.5 105.5t53 84t82 55.5t106.5 20q49 0 90 -14t72.5 -40.5t52 -64.5t26.5 -86l-409 -139q20 -57 67.5 -90t112.5 -33zM306 463q-42 0 -76 -13.5t-58.5 -39
t-38 -61.5t-13.5 -82v-11.5t1 -11.5l344 119q-20 51 -61 75.5t-98 24.5z" />
    <glyph glyph-name="eacute" unicode="&#xe9;" horiz-adv-x="588" 
d="M319 615h-75l120 135l79 -36zM303 529q64 0 111.5 -21t78.5 -59.5t45 -93t11 -121.5h-430q5 -39 21 -71t41 -54.5t57.5 -34.5t71.5 -12q49 0 90.5 17.5t72.5 49.5l43 -45q-38 -42 -92 -64.5t-120 -22.5q-58 0 -106.5 19.5t-83 54.5t-53.5 84t-19 108t19.5 107.5t54 84
t82.5 55t105 19.5zM479 296q-4 77 -51 122.5t-125 45.5q-76 0 -126 -45.5t-58 -122.5h360z" />
    <glyph glyph-name="eacute.ss01" horiz-adv-x="576" 
d="M322 615h-75l120 135l79 -36zM314 62q99 0 168 84l47 -42q-86 -107 -220 -107q-59 0 -108 19.5t-84.5 54.5t-55 84.5t-19.5 108.5q0 57 18.5 105.5t53 84t82 55.5t106.5 20q49 0 90 -14t72.5 -40.5t52 -64.5t26.5 -86l-409 -139q20 -57 67.5 -90t112.5 -33zM306 463
q-42 0 -76 -13.5t-58.5 -39t-38 -61.5t-13.5 -82v-11.5t1 -11.5l344 119q-20 51 -61 75.5t-98 24.5z" />
    <glyph glyph-name="ebreve" unicode="&#x115;" horiz-adv-x="588" 
d="M297 611q-27 0 -49.5 9.5t-39.5 26.5t-27 40.5t-11 52.5h55q2 -32 22 -52.5t50 -20.5t50 20.5t22 52.5h55q-1 -29 -11 -52.5t-27 -40.5t-39.5 -26.5t-49.5 -9.5zM303 529q64 0 111.5 -21t78.5 -59.5t45 -93t11 -121.5h-430q5 -39 21 -71t41 -54.5t57.5 -34.5t71.5 -12
q49 0 90.5 17.5t72.5 49.5l43 -45q-38 -42 -92 -64.5t-120 -22.5q-58 0 -106.5 19.5t-83 54.5t-53.5 84t-19 108t19.5 107.5t54 84t82.5 55t105 19.5zM479 296q-4 77 -51 122.5t-125 45.5q-76 0 -126 -45.5t-58 -122.5h360z" />
    <glyph glyph-name="ebreve.ss01" horiz-adv-x="576" 
d="M300 611q-27 0 -49.5 9.5t-39.5 26.5t-27 40.5t-11 52.5h55q2 -32 22 -52.5t50 -20.5t50 20.5t22 52.5h55q-1 -29 -11 -52.5t-27 -40.5t-39.5 -26.5t-49.5 -9.5zM314 62q99 0 168 84l47 -42q-86 -107 -220 -107q-59 0 -108 19.5t-84.5 54.5t-55 84.5t-19.5 108.5
q0 57 18.5 105.5t53 84t82 55.5t106.5 20q49 0 90 -14t72.5 -40.5t52 -64.5t26.5 -86l-409 -139q20 -57 67.5 -90t112.5 -33zM306 463q-42 0 -76 -13.5t-58.5 -39t-38 -61.5t-13.5 -82v-11.5t1 -11.5l344 119q-20 51 -61 75.5t-98 24.5z" />
    <glyph glyph-name="ecaron" unicode="&#x11b;" horiz-adv-x="588" 
d="M254 610l-104 135h73l72 -94l72 94h73l-104 -135h-82zM303 529q64 0 111.5 -21t78.5 -59.5t45 -93t11 -121.5h-430q5 -39 21 -71t41 -54.5t57.5 -34.5t71.5 -12q49 0 90.5 17.5t72.5 49.5l43 -45q-38 -42 -92 -64.5t-120 -22.5q-58 0 -106.5 19.5t-83 54.5t-53.5 84
t-19 108t19.5 107.5t54 84t82.5 55t105 19.5zM479 296q-4 77 -51 122.5t-125 45.5q-76 0 -126 -45.5t-58 -122.5h360z" />
    <glyph glyph-name="ecaron.ss01" horiz-adv-x="576" 
d="M257 610l-104 135h73l72 -94l72 94h73l-104 -135h-82zM314 62q99 0 168 84l47 -42q-86 -107 -220 -107q-59 0 -108 19.5t-84.5 54.5t-55 84.5t-19.5 108.5q0 57 18.5 105.5t53 84t82 55.5t106.5 20q49 0 90 -14t72.5 -40.5t52 -64.5t26.5 -86l-409 -139q20 -57 67.5 -90
t112.5 -33zM306 463q-42 0 -76 -13.5t-58.5 -39t-38 -61.5t-13.5 -82v-11.5t1 -11.5l344 119q-20 51 -61 75.5t-98 24.5z" />
    <glyph glyph-name="uni1E1D" unicode="&#x1e1d;" horiz-adv-x="588" 
d="M297 612q-27 0 -49.5 9.5t-39.5 26.5t-27 40.5t-11 52.5h55q2 -32 22 -52.5t50 -20.5t50 20.5t22 52.5h55q-1 -29 -11 -52.5t-27 -40.5t-39.5 -26.5t-49.5 -9.5zM303 529q64 0 111.5 -21t78.5 -59.5t45 -93t11 -121.5h-430q5 -39 21 -71t41 -54.5t57.5 -34.5t71.5 -12
q49 0 90.5 17.5t72.5 49.5l43 -45q-35 -38 -84.5 -61t-110.5 -26l-24 -54q31 -4 51 -23.5t20 -51.5q1 -41 -27 -65.5t-70 -24.5q-23 0 -44.5 7t-36.5 18l17 41q12 -9 28 -14.5t31 -5.5q25 0 39.5 14.5t13.5 33.5q0 17 -13 30t-37 13q-8 0 -17 -1t-16 -2l37 87
q-52 5 -94.5 26.5t-73 56t-47 80.5t-16.5 101q0 59 19.5 107.5t54 84t82.5 55t105 19.5zM479 296q-4 77 -51 122.5t-125 45.5q-76 0 -126 -45.5t-58 -122.5h360z" />
    <glyph glyph-name="uni1E1D.ss01" horiz-adv-x="576" 
d="M300 612q-27 0 -49.5 9.5t-39.5 26.5t-27 40.5t-11 52.5h55q2 -32 22 -52.5t50 -20.5t50 20.5t22 52.5h55q-1 -29 -11 -52.5t-27 -40.5t-39.5 -26.5t-49.5 -9.5zM314 62q99 0 168 84l47 -42q-82 -101 -206 -107l-24 -54q31 -4 51 -23.5t20 -51.5q1 -41 -27 -65.5
t-70 -24.5q-23 0 -44.5 7t-36.5 18l17 41q12 -9 28 -14.5t31 -5.5q25 0 39.5 14.5t13.5 33.5q0 17 -13 30t-37 13q-8 0 -17 -1t-16 -2l37 87q-52 5 -95 26.5t-73.5 56.5t-47.5 81t-17 101q0 57 18.5 105.5t53 84t82 55.5t106.5 20q49 0 90 -14t72.5 -40.5t52 -64.5t26.5 -86
l-409 -139q20 -57 67.5 -90t112.5 -33zM306 463q-42 0 -76 -13.5t-58.5 -39t-38 -61.5t-13.5 -82v-11.5t1 -11.5l344 119q-20 51 -61 75.5t-98 24.5z" />
    <glyph glyph-name="ecircumflex" unicode="&#xea;" horiz-adv-x="588" 
d="M225 616h-68l102 129h76l102 -129h-68l-72 91zM303 529q64 0 111.5 -21t78.5 -59.5t45 -93t11 -121.5h-430q5 -39 21 -71t41 -54.5t57.5 -34.5t71.5 -12q49 0 90.5 17.5t72.5 49.5l43 -45q-38 -42 -92 -64.5t-120 -22.5q-58 0 -106.5 19.5t-83 54.5t-53.5 84t-19 108
t19.5 107.5t54 84t82.5 55t105 19.5zM479 296q-4 77 -51 122.5t-125 45.5q-76 0 -126 -45.5t-58 -122.5h360z" />
    <glyph glyph-name="ecircumflex.ss01" horiz-adv-x="576" 
d="M228 616h-68l102 129h76l102 -129h-68l-72 91zM314 62q99 0 168 84l47 -42q-86 -107 -220 -107q-59 0 -108 19.5t-84.5 54.5t-55 84.5t-19.5 108.5q0 57 18.5 105.5t53 84t82 55.5t106.5 20q49 0 90 -14t72.5 -40.5t52 -64.5t26.5 -86l-409 -139q20 -57 67.5 -90
t112.5 -33zM306 463q-42 0 -76 -13.5t-58.5 -39t-38 -61.5t-13.5 -82v-11.5t1 -11.5l344 119q-20 51 -61 75.5t-98 24.5z" />
    <glyph glyph-name="uni1EBF" unicode="&#x1ebf;" horiz-adv-x="588" 
d="M458 717h-64l120 135l69 -36zM225 618h-68l102 129h76l102 -129h-68l-72 91zM303 529q64 0 111.5 -21t78.5 -59.5t45 -93t11 -121.5h-430q5 -39 21 -71t41 -54.5t57.5 -34.5t71.5 -12q49 0 90.5 17.5t72.5 49.5l43 -45q-38 -42 -92 -64.5t-120 -22.5q-58 0 -106.5 19.5
t-83 54.5t-53.5 84t-19 108t19.5 107.5t54 84t82.5 55t105 19.5zM479 296q-4 77 -51 122.5t-125 45.5q-76 0 -126 -45.5t-58 -122.5h360z" />
    <glyph glyph-name="uni1EBF.ss01" horiz-adv-x="576" 
d="M461 717h-64l120 135l69 -36zM228 618h-68l102 129h76l102 -129h-68l-72 91zM302 529q49 0 90 -14t72.5 -40.5t52 -64.5t26.5 -86l-409 -139q20 -57 67.5 -90t112.5 -33q99 0 168 84l47 -42q-86 -107 -220 -107q-59 0 -108 19.5t-84.5 54.5t-55 84.5t-19.5 108.5
q0 57 18.5 105.5t53 84t82 55.5t106.5 20zM465 363q-20 51 -61 75.5t-98 24.5q-42 0 -76 -13.5t-58.5 -39t-38 -61.5t-13.5 -82v-11.5t1 -11.5z" />
    <glyph glyph-name="uni1EC7" unicode="&#x1ec7;" horiz-adv-x="588" 
d="M225 618h-68l102 129h76l102 -129h-68l-72 91zM303 529q64 0 111.5 -21t78.5 -59.5t45 -93t11 -121.5h-430q5 -39 21 -71t41 -54.5t57.5 -34.5t71.5 -12q49 0 90.5 17.5t72.5 49.5l43 -45q-38 -42 -92 -64.5t-120 -22.5q-58 0 -106.5 19.5t-83 54.5t-53.5 84t-19 108
t19.5 107.5t54 84t82.5 55t105 19.5zM479 296q-4 77 -51 122.5t-125 45.5q-76 0 -126 -45.5t-58 -122.5h360zM298 -55q22 0 36.5 -15t14.5 -38t-14.5 -38.5t-36.5 -15.5t-36.5 15.5t-14.5 38.5t14.5 38t36.5 15z" />
    <glyph glyph-name="uni1EC7.ss01" horiz-adv-x="576" 
d="M228 618h-68l102 129h76l102 -129h-68l-72 91zM314 62q99 0 168 84l47 -42q-86 -107 -220 -107q-59 0 -108 19.5t-84.5 54.5t-55 84.5t-19.5 108.5q0 57 18.5 105.5t53 84t82 55.5t106.5 20q49 0 90 -14t72.5 -40.5t52 -64.5t26.5 -86l-409 -139q20 -57 67.5 -90
t112.5 -33zM306 463q-42 0 -76 -13.5t-58.5 -39t-38 -61.5t-13.5 -82v-11.5t1 -11.5l344 119q-20 51 -61 75.5t-98 24.5zM300 -55q22 0 36.5 -15t14.5 -38t-14.5 -38.5t-36.5 -15.5t-36.5 15.5t-14.5 38.5t14.5 38t36.5 15z" />
    <glyph glyph-name="uni1EC1" unicode="&#x1ec1;" horiz-adv-x="588" 
d="M454 703l-124 99l68 36l120 -135h-64zM225 618h-68l102 129h76l102 -129h-68l-72 91zM303 529q64 0 111.5 -21t78.5 -59.5t45 -93t11 -121.5h-430q5 -39 21 -71t41 -54.5t57.5 -34.5t71.5 -12q49 0 90.5 17.5t72.5 49.5l43 -45q-38 -42 -92 -64.5t-120 -22.5
q-58 0 -106.5 19.5t-83 54.5t-53.5 84t-19 108t19.5 107.5t54 84t82.5 55t105 19.5zM479 296q-4 77 -51 122.5t-125 45.5q-76 0 -126 -45.5t-58 -122.5h360z" />
    <glyph glyph-name="uni1EC1.ss01" horiz-adv-x="576" 
d="M457 703l-124 99l68 36l120 -135h-64zM228 618h-68l102 129h76l102 -129h-68l-72 91zM314 62q99 0 168 84l47 -42q-86 -107 -220 -107q-59 0 -108 19.5t-84.5 54.5t-55 84.5t-19.5 108.5q0 57 18.5 105.5t53 84t82 55.5t106.5 20q49 0 90 -14t72.5 -40.5t52 -64.5
t26.5 -86l-409 -139q20 -57 67.5 -90t112.5 -33zM306 463q-42 0 -76 -13.5t-58.5 -39t-38 -61.5t-13.5 -82v-11.5t1 -11.5l344 119q-20 51 -61 75.5t-98 24.5z" />
    <glyph glyph-name="uni1EC3" unicode="&#x1ec3;" horiz-adv-x="588" 
d="M410 842q-22 0 -35 -12t-15 -32l-41 15q5 34 30 53.5t62 19.5q39 0 62.5 -23.5t23.5 -58.5q0 -29 -14.5 -51t-40.5 -42l-41 14q25 20 39 37.5t14 39.5q0 17 -11 28.5t-33 11.5zM225 618h-68l102 129h76l102 -129h-68l-72 91zM303 529q64 0 111.5 -21t78.5 -59.5t45 -93
t11 -121.5h-430q5 -39 21 -71t41 -54.5t57.5 -34.5t71.5 -12q49 0 90.5 17.5t72.5 49.5l43 -45q-38 -42 -92 -64.5t-120 -22.5q-58 0 -106.5 19.5t-83 54.5t-53.5 84t-19 108t19.5 107.5t54 84t82.5 55t105 19.5zM479 296q-4 77 -51 122.5t-125 45.5q-76 0 -126 -45.5
t-58 -122.5h360z" />
    <glyph glyph-name="uni1EC3.ss01" horiz-adv-x="576" 
d="M413 842q-22 0 -35 -12t-15 -32l-41 15q5 34 30 53.5t62 19.5q39 0 62.5 -23.5t23.5 -58.5q0 -29 -14.5 -51t-40.5 -42l-41 14q25 20 39 37.5t14 39.5q0 17 -11 28.5t-33 11.5zM228 618h-68l102 129h76l102 -129h-68l-72 91zM314 62q99 0 168 84l47 -42
q-86 -107 -220 -107q-59 0 -108 19.5t-84.5 54.5t-55 84.5t-19.5 108.5q0 57 18.5 105.5t53 84t82 55.5t106.5 20q49 0 90 -14t72.5 -40.5t52 -64.5t26.5 -86l-409 -139q20 -57 67.5 -90t112.5 -33zM306 463q-42 0 -76 -13.5t-58.5 -39t-38 -61.5t-13.5 -82v-11.5t1 -11.5
l344 119q-20 51 -61 75.5t-98 24.5z" />
    <glyph glyph-name="uni1EC5" unicode="&#x1ec5;" horiz-adv-x="588" 
d="M239 821q-42 0 -42 -53h-53q0 112 83 112q21 0 37 -9.5t30 -21t27 -21t28 -9.5q42 0 42 53h53q0 -111 -83 -111q-22 0 -38.5 9.5t-30 20.5l-26 20.5t-27.5 9.5zM335 747l102 -129h-68l-72 91l-72 -91h-68l102 129h76zM303 529q64 0 111.5 -21t78.5 -59.5t45 -93
t11 -121.5h-430q5 -39 21 -71t41 -54.5t57.5 -34.5t71.5 -12q49 0 90.5 17.5t72.5 49.5l43 -45q-38 -42 -92 -64.5t-120 -22.5q-58 0 -106.5 19.5t-83 54.5t-53.5 84t-19 108t19.5 107.5t54 84t82.5 55t105 19.5zM479 296q-4 77 -51 122.5t-125 45.5q-76 0 -126 -45.5
t-58 -122.5h360z" />
    <glyph glyph-name="uni1EC5.ss01" horiz-adv-x="576" 
d="M242 821q-42 0 -42 -53h-53q0 112 83 112q21 0 37 -9.5t30 -21t27 -21t28 -9.5q42 0 42 53h53q0 -111 -83 -111q-22 0 -38.5 9.5t-30 20.5l-26 20.5t-27.5 9.5zM338 747l102 -129h-68l-72 91l-72 -91h-68l102 129h76zM314 62q99 0 168 84l47 -42q-86 -107 -220 -107
q-59 0 -108 19.5t-84.5 54.5t-55 84.5t-19.5 108.5q0 57 18.5 105.5t53 84t82 55.5t106.5 20q49 0 90 -14t72.5 -40.5t52 -64.5t26.5 -86l-409 -139q20 -57 67.5 -90t112.5 -33zM306 463q-42 0 -76 -13.5t-58.5 -39t-38 -61.5t-13.5 -82v-11.5t1 -11.5l344 119
q-20 51 -61 75.5t-98 24.5z" />
    <glyph glyph-name="uni0205" unicode="&#x205;" horiz-adv-x="588" 
d="M200 615l-93 106l67 33l91 -139h-65zM347 615l-93 106l67 33l91 -139h-65zM303 529q64 0 111.5 -21t78.5 -59.5t45 -93t11 -121.5h-430q5 -39 21 -71t41 -54.5t57.5 -34.5t71.5 -12q49 0 90.5 17.5t72.5 49.5l43 -45q-38 -42 -92 -64.5t-120 -22.5q-58 0 -106.5 19.5
t-83 54.5t-53.5 84t-19 108t19.5 107.5t54 84t82.5 55t105 19.5zM479 296q-4 77 -51 122.5t-125 45.5q-76 0 -126 -45.5t-58 -122.5h360z" />
    <glyph glyph-name="uni0205.ss01" horiz-adv-x="576" 
d="M203 615l-93 106l67 33l91 -139h-65zM350 615l-93 106l67 33l91 -139h-65zM314 62q99 0 168 84l47 -42q-86 -107 -220 -107q-59 0 -108 19.5t-84.5 54.5t-55 84.5t-19.5 108.5q0 57 18.5 105.5t53 84t82 55.5t106.5 20q49 0 90 -14t72.5 -40.5t52 -64.5t26.5 -86
l-409 -139q20 -57 67.5 -90t112.5 -33zM306 463q-42 0 -76 -13.5t-58.5 -39t-38 -61.5t-13.5 -82v-11.5t1 -11.5l344 119q-20 51 -61 75.5t-98 24.5z" />
    <glyph glyph-name="edieresis" unicode="&#xeb;" horiz-adv-x="588" 
d="M214 628q-20 0 -33.5 14.5t-13.5 34.5q0 22 13.5 36t33.5 14t34 -14t14 -36q0 -20 -14 -34.5t-34 -14.5zM381 628q-20 0 -34 14.5t-14 34.5q0 22 14 36t34 14t33.5 -14t13.5 -36q0 -20 -13.5 -34.5t-33.5 -14.5zM303 529q64 0 111.5 -21t78.5 -59.5t45 -93t11 -121.5
h-430q5 -39 21 -71t41 -54.5t57.5 -34.5t71.5 -12q49 0 90.5 17.5t72.5 49.5l43 -45q-38 -42 -92 -64.5t-120 -22.5q-58 0 -106.5 19.5t-83 54.5t-53.5 84t-19 108t19.5 107.5t54 84t82.5 55t105 19.5zM479 296q-4 77 -51 122.5t-125 45.5q-76 0 -126 -45.5t-58 -122.5h360z
" />
    <glyph glyph-name="edieresis.ss01" horiz-adv-x="576" 
d="M217 628q-20 0 -33.5 14.5t-13.5 34.5q0 22 13.5 36t33.5 14t34 -14t14 -36q0 -20 -14 -34.5t-34 -14.5zM384 628q-20 0 -34 14.5t-14 34.5q0 22 14 36t34 14t33.5 -14t13.5 -36q0 -20 -13.5 -34.5t-33.5 -14.5zM314 62q99 0 168 84l47 -42q-86 -107 -220 -107
q-59 0 -108 19.5t-84.5 54.5t-55 84.5t-19.5 108.5q0 57 18.5 105.5t53 84t82 55.5t106.5 20q49 0 90 -14t72.5 -40.5t52 -64.5t26.5 -86l-409 -139q20 -57 67.5 -90t112.5 -33zM306 463q-42 0 -76 -13.5t-58.5 -39t-38 -61.5t-13.5 -82v-11.5t1 -11.5l344 119
q-20 51 -61 75.5t-98 24.5z" />
    <glyph glyph-name="edotaccent" unicode="&#x117;" horiz-adv-x="588" 
d="M297 624q-22 0 -36.5 15t-14.5 38t14.5 38t36.5 15t36.5 -15t14.5 -38t-14.5 -38t-36.5 -15zM303 529q64 0 111.5 -21t78.5 -59.5t45 -93t11 -121.5h-430q5 -39 21 -71t41 -54.5t57.5 -34.5t71.5 -12q49 0 90.5 17.5t72.5 49.5l43 -45q-38 -42 -92 -64.5t-120 -22.5
q-58 0 -106.5 19.5t-83 54.5t-53.5 84t-19 108t19.5 107.5t54 84t82.5 55t105 19.5zM479 296q-4 77 -51 122.5t-125 45.5q-76 0 -126 -45.5t-58 -122.5h360z" />
    <glyph glyph-name="edotaccent.ss01" horiz-adv-x="576" 
d="M300 624q-22 0 -36.5 15t-14.5 38t14.5 38t36.5 15t36.5 -15t14.5 -38t-14.5 -38t-36.5 -15zM314 62q99 0 168 84l47 -42q-86 -107 -220 -107q-59 0 -108 19.5t-84.5 54.5t-55 84.5t-19.5 108.5q0 57 18.5 105.5t53 84t82 55.5t106.5 20q49 0 90 -14t72.5 -40.5t52 -64.5
t26.5 -86l-409 -139q20 -57 67.5 -90t112.5 -33zM306 463q-42 0 -76 -13.5t-58.5 -39t-38 -61.5t-13.5 -82v-11.5t1 -11.5l344 119q-20 51 -61 75.5t-98 24.5z" />
    <glyph glyph-name="uni1EB9" unicode="&#x1eb9;" horiz-adv-x="588" 
d="M303 529q64 0 111.5 -21t78.5 -59.5t45 -93t11 -121.5h-430q5 -39 21 -71t41 -54.5t57.5 -34.5t71.5 -12q49 0 90.5 17.5t72.5 49.5l43 -45q-38 -42 -92 -64.5t-120 -22.5q-58 0 -106.5 19.5t-83 54.5t-53.5 84t-19 108t19.5 107.5t54 84t82.5 55t105 19.5zM479 296
q-4 77 -51 122.5t-125 45.5q-76 0 -126 -45.5t-58 -122.5h360zM298 -55q22 0 36.5 -15t14.5 -38t-14.5 -38.5t-36.5 -15.5t-36.5 15.5t-14.5 38.5t14.5 38t36.5 15z" />
    <glyph glyph-name="uni1EB9.ss01" horiz-adv-x="576" 
d="M314 62q99 0 168 84l47 -42q-86 -107 -220 -107q-59 0 -108 19.5t-84.5 54.5t-55 84.5t-19.5 108.5q0 57 18.5 105.5t53 84t82 55.5t106.5 20q49 0 90 -14t72.5 -40.5t52 -64.5t26.5 -86l-409 -139q20 -57 67.5 -90t112.5 -33zM306 463q-42 0 -76 -13.5t-58.5 -39
t-38 -61.5t-13.5 -82v-11.5t1 -11.5l344 119q-20 51 -61 75.5t-98 24.5zM300 -55q22 0 36.5 -15t14.5 -38t-14.5 -38.5t-36.5 -15.5t-36.5 15.5t-14.5 38.5t14.5 38t36.5 15z" />
    <glyph glyph-name="egrave" unicode="&#xe8;" horiz-adv-x="588" 
d="M272 615l-125 99l80 36l120 -135h-75zM303 529q64 0 111.5 -21t78.5 -59.5t45 -93t11 -121.5h-430q5 -39 21 -71t41 -54.5t57.5 -34.5t71.5 -12q49 0 90.5 17.5t72.5 49.5l43 -45q-38 -42 -92 -64.5t-120 -22.5q-58 0 -106.5 19.5t-83 54.5t-53.5 84t-19 108t19.5 107.5
t54 84t82.5 55t105 19.5zM479 296q-4 77 -51 122.5t-125 45.5q-76 0 -126 -45.5t-58 -122.5h360z" />
    <glyph glyph-name="egrave.ss01" horiz-adv-x="576" 
d="M275 615l-125 99l80 36l120 -135h-75zM314 62q99 0 168 84l47 -42q-86 -107 -220 -107q-59 0 -108 19.5t-84.5 54.5t-55 84.5t-19.5 108.5q0 57 18.5 105.5t53 84t82 55.5t106.5 20q49 0 90 -14t72.5 -40.5t52 -64.5t26.5 -86l-409 -139q20 -57 67.5 -90t112.5 -33z
M306 463q-42 0 -76 -13.5t-58.5 -39t-38 -61.5t-13.5 -82v-11.5t1 -11.5l344 119q-20 51 -61 75.5t-98 24.5z" />
    <glyph glyph-name="uni1EBB" unicode="&#x1ebb;" horiz-adv-x="588" 
d="M295 711q-22 0 -35 -12t-15 -32l-41 15q5 34 30 53.5t61 19.5q40 0 63.5 -23.5t23.5 -58.5q0 -29 -14.5 -51t-40.5 -42l-41 14q25 20 39 37.5t14 39.5q0 17 -11 28.5t-33 11.5zM303 529q64 0 111.5 -21t78.5 -59.5t45 -93t11 -121.5h-430q5 -39 21 -71t41 -54.5
t57.5 -34.5t71.5 -12q49 0 90.5 17.5t72.5 49.5l43 -45q-38 -42 -92 -64.5t-120 -22.5q-58 0 -106.5 19.5t-83 54.5t-53.5 84t-19 108t19.5 107.5t54 84t82.5 55t105 19.5zM479 296q-4 77 -51 122.5t-125 45.5q-76 0 -126 -45.5t-58 -122.5h360z" />
    <glyph glyph-name="uni1EBB.ss01" horiz-adv-x="576" 
d="M298 711q-22 0 -35 -12t-15 -32l-41 15q5 34 30 53.5t61 19.5q40 0 63.5 -23.5t23.5 -58.5q0 -29 -14.5 -51t-40.5 -42l-41 14q25 20 39 37.5t14 39.5q0 17 -11 28.5t-33 11.5zM314 62q99 0 168 84l47 -42q-86 -107 -220 -107q-59 0 -108 19.5t-84.5 54.5t-55 84.5
t-19.5 108.5q0 57 18.5 105.5t53 84t82 55.5t106.5 20q49 0 90 -14t72.5 -40.5t52 -64.5t26.5 -86l-409 -139q20 -57 67.5 -90t112.5 -33zM306 463q-42 0 -76 -13.5t-58.5 -39t-38 -61.5t-13.5 -82v-11.5t1 -11.5l344 119q-20 51 -61 75.5t-98 24.5z" />
    <glyph glyph-name="uni0207" unicode="&#x207;" horiz-adv-x="588" 
d="M297 685q-30 0 -50 -20.5t-22 -52.5h-55q1 28 11 52t27 41t39.5 26.5t49.5 9.5t49.5 -9.5t39.5 -26.5t27 -41t11 -52h-55q-2 32 -22 52.5t-50 20.5zM303 529q64 0 111.5 -21t78.5 -59.5t45 -93t11 -121.5h-430q5 -39 21 -71t41 -54.5t57.5 -34.5t71.5 -12q49 0 90.5 17.5
t72.5 49.5l43 -45q-38 -42 -92 -64.5t-120 -22.5q-58 0 -106.5 19.5t-83 54.5t-53.5 84t-19 108t19.5 107.5t54 84t82.5 55t105 19.5zM479 296q-4 77 -51 122.5t-125 45.5q-76 0 -126 -45.5t-58 -122.5h360z" />
    <glyph glyph-name="uni0207.ss01" horiz-adv-x="576" 
d="M300 685q-30 0 -50 -20.5t-22 -52.5h-55q1 28 11 52t27 41t39.5 26.5t49.5 9.5t49.5 -9.5t39.5 -26.5t27 -41t11 -52h-55q-2 32 -22 52.5t-50 20.5zM314 62q99 0 168 84l47 -42q-86 -107 -220 -107q-59 0 -108 19.5t-84.5 54.5t-55 84.5t-19.5 108.5q0 57 18.5 105.5
t53 84t82 55.5t106.5 20q49 0 90 -14t72.5 -40.5t52 -64.5t26.5 -86l-409 -139q20 -57 67.5 -90t112.5 -33zM306 463q-42 0 -76 -13.5t-58.5 -39t-38 -61.5t-13.5 -82v-11.5t1 -11.5l344 119q-20 51 -61 75.5t-98 24.5z" />
    <glyph glyph-name="emacron" unicode="&#x113;" horiz-adv-x="588" 
d="M418 647h-241v59h241v-59zM303 529q64 0 111.5 -21t78.5 -59.5t45 -93t11 -121.5h-430q5 -39 21 -71t41 -54.5t57.5 -34.5t71.5 -12q49 0 90.5 17.5t72.5 49.5l43 -45q-38 -42 -92 -64.5t-120 -22.5q-58 0 -106.5 19.5t-83 54.5t-53.5 84t-19 108t19.5 107.5t54 84
t82.5 55t105 19.5zM479 296q-4 77 -51 122.5t-125 45.5q-76 0 -126 -45.5t-58 -122.5h360z" />
    <glyph glyph-name="emacron.ss01" horiz-adv-x="576" 
d="M421 647h-241v59h241v-59zM314 62q99 0 168 84l47 -42q-86 -107 -220 -107q-59 0 -108 19.5t-84.5 54.5t-55 84.5t-19.5 108.5q0 57 18.5 105.5t53 84t82 55.5t106.5 20q49 0 90 -14t72.5 -40.5t52 -64.5t26.5 -86l-409 -139q20 -57 67.5 -90t112.5 -33zM306 463
q-42 0 -76 -13.5t-58.5 -39t-38 -61.5t-13.5 -82v-11.5t1 -11.5l344 119q-20 51 -61 75.5t-98 24.5z" />
    <glyph glyph-name="uni1E17" unicode="&#x1e17;" horiz-adv-x="588" 
d="M325 757h-75l120 135l79 -36zM417 627h-241v59h241v-59zM303 529q64 0 111.5 -21t78.5 -59.5t45 -93t11 -121.5h-430q5 -39 21 -71t41 -54.5t57.5 -34.5t71.5 -12q49 0 90.5 17.5t72.5 49.5l43 -45q-38 -42 -92 -64.5t-120 -22.5q-58 0 -106.5 19.5t-83 54.5t-53.5 84
t-19 108t19.5 107.5t54 84t82.5 55t105 19.5zM479 296q-4 77 -51 122.5t-125 45.5q-76 0 -126 -45.5t-58 -122.5h360z" />
    <glyph glyph-name="uni1E17.ss01" horiz-adv-x="576" 
d="M328 757h-75l120 135l79 -36zM420 627h-241v59h241v-59zM314 62q99 0 168 84l47 -42q-86 -107 -220 -107q-59 0 -108 19.5t-84.5 54.5t-55 84.5t-19.5 108.5q0 57 18.5 105.5t53 84t82 55.5t106.5 20q49 0 90 -14t72.5 -40.5t52 -64.5t26.5 -86l-409 -139
q20 -57 67.5 -90t112.5 -33zM306 463q-42 0 -76 -13.5t-58.5 -39t-38 -61.5t-13.5 -82v-11.5t1 -11.5l344 119q-20 51 -61 75.5t-98 24.5z" />
    <glyph glyph-name="uni1E15" unicode="&#x1e15;" horiz-adv-x="588" 
d="M269 757l-125 99l80 36l120 -135h-75zM176 686h241v-59h-241v59zM303 529q64 0 111.5 -21t78.5 -59.5t45 -93t11 -121.5h-430q5 -39 21 -71t41 -54.5t57.5 -34.5t71.5 -12q49 0 90.5 17.5t72.5 49.5l43 -45q-38 -42 -92 -64.5t-120 -22.5q-58 0 -106.5 19.5t-83 54.5
t-53.5 84t-19 108t19.5 107.5t54 84t82.5 55t105 19.5zM479 296q-4 77 -51 122.5t-125 45.5q-76 0 -126 -45.5t-58 -122.5h360z" />
    <glyph glyph-name="uni1E15.ss01" horiz-adv-x="576" 
d="M272 757l-125 99l80 36l120 -135h-75zM179 686h241v-59h-241v59zM314 62q99 0 168 84l47 -42q-86 -107 -220 -107q-59 0 -108 19.5t-84.5 54.5t-55 84.5t-19.5 108.5q0 57 18.5 105.5t53 84t82 55.5t106.5 20q49 0 90 -14t72.5 -40.5t52 -64.5t26.5 -86l-409 -139
q20 -57 67.5 -90t112.5 -33zM306 463q-42 0 -76 -13.5t-58.5 -39t-38 -61.5t-13.5 -82v-11.5t1 -11.5l344 119q-20 51 -61 75.5t-98 24.5z" />
    <glyph glyph-name="eogonek" unicode="&#x119;" horiz-adv-x="588" 
d="M516 84q-101 -125 -101 -198q0 -20 10 -29.5t25 -9.5t28.5 9.5t24.5 23.5l25 -30q-16 -22 -38 -36t-48 -14q-28 0 -50.5 18t-22.5 57q0 33 16.5 73.5t51.5 88.5q-61 -40 -135 -40q-57 0 -105 19.5t-82.5 54.5t-53.5 84.5t-19 108.5q0 56 18 104t51.5 83t82 55.5
t109.5 21.5t108.5 -19t79 -58.5t46.5 -93.5t12 -123h-429q4 -38 19 -70t40 -54.5t58 -35t73 -12.5q48 0 90 17.5t73 50.5zM479 296q-2 37 -15 68t-36 53t-54.5 34.5t-69.5 12.5t-70.5 -12.5t-57 -34.5t-39.5 -53t-18 -68h360z" />
    <glyph glyph-name="eogonek.ss01" horiz-adv-x="596" 
d="M455 -153q14 0 27 9t25 24l25 -30q-16 -23 -38.5 -36.5t-46.5 -13.5q-29 0 -51.5 18t-22.5 56q0 34 16 73.5t52 89.5q-29 -19 -62 -29.5t-70 -10.5q-59 0 -108 19.5t-84.5 54.5t-55 84.5t-19.5 108.5q0 57 18.5 105.5t53 84t82 55.5t106.5 20q49 0 90 -14t72.5 -40.5
t52 -64.5t26.5 -86l-409 -139q20 -57 67.5 -90t112.5 -33q48 0 90.5 17.5t72.5 50.5l43 -46q-101 -125 -101 -199q0 -18 10 -28t26 -10zM306 463q-42 0 -76 -13.5t-58.5 -39t-38 -61.5t-13.5 -82v-11.5t1 -11.5l344 119q-20 51 -61 75.5t-98 24.5z" />
    <glyph glyph-name="uni1EBD" unicode="&#x1ebd;" horiz-adv-x="588" 
d="M243 685q-43 0 -43 -53h-52q0 112 83 112q21 0 37 -9.5t29.5 -21t26.5 -21t28 -9.5q43 0 43 53h52q0 -112 -83 -112q-22 0 -38 9.5t-29.5 21t-26 21t-27.5 9.5zM303 529q64 0 111.5 -21t78.5 -59.5t45 -93t11 -121.5h-430q5 -39 21 -71t41 -54.5t57.5 -34.5t71.5 -12
q49 0 90.5 17.5t72.5 49.5l43 -45q-38 -42 -92 -64.5t-120 -22.5q-58 0 -106.5 19.5t-83 54.5t-53.5 84t-19 108t19.5 107.5t54 84t82.5 55t105 19.5zM479 296q-4 77 -51 122.5t-125 45.5q-76 0 -126 -45.5t-58 -122.5h360z" />
    <glyph glyph-name="uni1EBD.ss01" horiz-adv-x="576" 
d="M246 685q-43 0 -43 -53h-52q0 112 83 112q21 0 37 -9.5t29.5 -21t26.5 -21t28 -9.5q43 0 43 53h52q0 -112 -83 -112q-22 0 -38 9.5t-29.5 21t-26 21t-27.5 9.5zM314 62q99 0 168 84l47 -42q-86 -107 -220 -107q-59 0 -108 19.5t-84.5 54.5t-55 84.5t-19.5 108.5
q0 57 18.5 105.5t53 84t82 55.5t106.5 20q49 0 90 -14t72.5 -40.5t52 -64.5t26.5 -86l-409 -139q20 -57 67.5 -90t112.5 -33zM306 463q-42 0 -76 -13.5t-58.5 -39t-38 -61.5t-13.5 -82v-11.5t1 -11.5l344 119q-20 51 -61 75.5t-98 24.5z" />
    </font>
</defs>
</svg>
