<svg xmlns="http://www.w3.org/2000/svg" viewBox="0 0 80 80"  width="80" height="80"><path d="M62.9 42.321v-24.3H18v44.9h44.9v-13.1c-.1 0 0-7.5 0-7.5" fill="#006fcf"/><path d="M57.4 39.821h3.4v-7.9h-3.7v1.1l-.7-1.1h-3.2v1.4l-.6-1.4h-5.9c-.2 0-.4.1-.6.1s-.3.1-.5.2-.3.1-.5.2v-.5H28.2l-.5 1.3-.5-1.3h-4v1.4l-.6-1.4h-3.2l-1.4 3.4v4.5h2.3l.4-1.1h.8l.4 1.1h17.6v-1l.7 1h4.9v-.6c.1.1.3.1.4.2s.3.1.4.2a1.268 1.268 0 0 0 .6.1h3.6l.4-1.1h.8l.4 1.1h4.9v-1zm5.5 10v-7.4H35.4l-.7 1-.7-1h-8v7.9h8l.7-1 .7 1h5v-1.7h-.2a4.844 4.844 0 0 0 1.8-.3v2.1h3.6v-1l.7 1h14.9a8.51 8.51 0 0 0 1.7-.6z" fill="#fff"/><path d="M61.2 47.921h-2.7v1.1h2.6a1.655 1.655 0 0 0 1.8-1.7 1.4 1.4 0 0 0-1.6-1.5h-1.2a.5.5 0 0 1 0-1h2.3l.5-1.1h-2.7a1.636 1.636 0 0 0-1.8 1.6 1.4 1.4 0 0 0 1.6 1.5h1.2a.472.472 0 0 1 .5.5c.1.4-.1.6-.5.6zm-4.9 0h-2.7v1.1h2.6a1.655 1.655 0 0 0 1.8-1.7 1.4 1.4 0 0 0-1.6-1.5h-1.2a.5.5 0 0 1 0-1h2.3l.5-1.1h-2.7a1.636 1.636 0 0 0-1.8 1.6 1.4 1.4 0 0 0 1.6 1.5h1.2a.472.472 0 0 1 .5.5.466.466 0 0 1-.5.6zm-3.5-3.2v-1.1h-4.2v5.3h4.2v-1.1h-3v-1.1h2.9v-1.1h-2.9v-1h3v.1zm-6.8 0c.5 0 .7.3.7.6s-.2.6-.7.6h-1.5v-1.3l1.5.1zm-1.5 2.3h.6l1.6 1.9h1.5l-1.8-2a1.6 1.6 0 0 0 1.4-1.6 1.655 1.655 0 0 0-1.8-1.7h-2.8v5.3h1.2l.1-1.9zm-3.2-1.6a.632.632 0 0 1-.7.7H39v-1.4h1.5a.713.713 0 0 1 .8.7zm-3.5-1.8v5.3H39v-1.8h1.6a1.76 1.76 0 0 0 1.9-1.8 1.733 1.733 0 0 0-1.8-1.8l-2.9.1zm-1.8 5.3h1.5l-2.1-2.7 2.1-2.6H36l-1.3 1.7-1.3-1.7h-1.5l2.1 2.6-2.1 2.6h1.5l1.3-1.7zm-4.5-4.2v-1.1h-4.2v5.3h4.2v-1.1h-3v-1.1h2.9v-1.1h-2.9v-1h3zm24.3-9.4l2.1 3.2h1.5v-5.3h-1.2v3.5l-.3-.5-1.9-3h-1.6v5.3h1.2v-3.6zm-5.2-.1l.4-1.1.4 1.1.5 1.2h-1.8zm2.1 3.3H54l-2.3-5.3h-1.6l-2.3 5.3h1.3l.5-1.1h2.6zm-5.6 0l.5-1.1h-.3a1.342 1.342 0 0 1-1.4-1.5v-.1a1.342 1.342 0 0 1 1.4-1.5h1.3v-1.1h-1.4a2.389 2.389 0 0 0-2.5 2.6v.1a2.317 2.317 0 0 0 2.4 2.6zm-4.5 0h1.2v-5.2h-1.2v5.2zm-2.6-4.2c.5 0 .7.3.7.6s-.2.6-.7.6h-1.5v-1.3l1.5.1zm-1.5 2.3h.6l1.6 1.9h1.5l-1.8-2a1.6 1.6 0 0 0 1.4-1.6 1.655 1.655 0 0 0-1.8-1.7h-2.8v5.3h1.2l.1-1.9zm-2.2-2.3v-1.1h-4.2v5.3h4.2v-1.1h-3v-1.1h2.9v-1.1h-2.9v-1h3zm-9.1 4.2h1.1l1.5-4.3v4.3H31v-5.3h-2l-1.2 3.6-1.2-3.6h-2v5.3h1.2v-4.3zm-6.5-3.3l.4-1.1.4 1.1.5 1.2h-1.8zm2.1 3.3h1.3l-2.3-5.3h-1.5l-2.3 5.3h1.3l.5-1.1h2.6z" fill="#006fcf"/></svg>