<svg xmlns="http://www.w3.org/2000/svg" viewBox="0 0 80 80"  width="80" height="80"><path d="M46.163 48.091H32.894V24.245h13.269z" fill="#6c6bbd"/><path d="M33.744 36.166a15.14 15.14 0 0 1 5.792-11.923A15.1 15.1 0 0 0 30.164 21 15.165 15.165 0 0 0 15 36.166a15.165 15.165 0 0 0 15.164 15.166 15.1 15.1 0 0 0 9.372-3.243 15.14 15.14 0 0 1-5.792-11.923" fill="#eb001b"/><path d="M64.059 36.166a15.165 15.165 0 0 1-15.164 15.166 15.1 15.1 0 0 1-9.372-3.243 15.138 15.138 0 0 0 5.793-11.923 15.138 15.138 0 0 0-5.793-11.923A15.1 15.1 0 0 1 48.896 21a15.165 15.165 0 0 1 15.163 15.166" fill="#0099df"/><path d="M50.637 54.825a1.869 1.869 0 0 1 .624.11l-.27.825a1.419 1.419 0 0 0-.548-.1c-.573 0-.859.37-.859 1.036v2.257h-.873v-4.027h.868v.489a1.188 1.188 0 0 1 1.062-.59m-3.238.9h-1.432v1.821c0 .4.143.674.581.674a1.614 1.614 0 0 0 .774-.228l.253.749a2.055 2.055 0 0 1-1.098.313c-1.037 0-1.4-.556-1.4-1.492v-1.835h-.818v-.8h.818v-1.222h.884v1.222h1.432zm-11.213.859a1.038 1.038 0 0 1 1.07-.978 1 1 0 0 1 1.019.978zm3 .354a1.931 1.931 0 0 0-1.913-2.114 1.967 1.967 0 0 0-2 2.114 1.986 1.986 0 0 0 2.056 2.115 2.447 2.447 0 0 0 1.65-.564l-.43-.649a1.915 1.915 0 0 1-1.171.421 1.118 1.118 0 0 1-1.2-.985h2.99c.009-.11.017-.219.017-.337m3.849-.985a2.582 2.582 0 0 0-1.254-.346c-.48 0-.767.177-.767.472 0 .269.3.345.682.4l.413.059c.876.127 1.407.5 1.407 1.205 0 .767-.674 1.314-1.836 1.314a2.905 2.905 0 0 1-1.748-.526l.413-.683a2.147 2.147 0 0 0 1.34.422c.6 0 .918-.176.918-.489 0-.227-.228-.354-.708-.42l-.413-.059c-.9-.127-1.39-.531-1.39-1.188 0-.8.658-1.289 1.677-1.289a3.009 3.009 0 0 1 1.642.421zm10.8-.3a1.327 1.327 0 0 0-.5.094 1.206 1.206 0 0 0-.4.266 1.234 1.234 0 0 0-.266.41 1.385 1.385 0 0 0-.1.525 1.382 1.382 0 0 0 .1.525 1.234 1.234 0 0 0 .266.41 1.206 1.206 0 0 0 .4.266 1.309 1.309 0 0 0 .5.094 1.305 1.305 0 0 0 .5-.094 1.2 1.2 0 0 0 .4-.266 1.226 1.226 0 0 0 .269-.41 1.382 1.382 0 0 0 .1-.525 1.385 1.385 0 0 0-.1-.525 1.226 1.226 0 0 0-.269-.41 1.2 1.2 0 0 0-.4-.266 1.324 1.324 0 0 0-.5-.094m0-.832a2.268 2.268 0 0 1 .868.163 2.107 2.107 0 0 1 .69.447 2.048 2.048 0 0 1 .456.673 2.142 2.142 0 0 1 .165.845 2.142 2.142 0 0 1-.165.845 2.052 2.052 0 0 1-.455.676 2.122 2.122 0 0 1-.69.447 2.286 2.286 0 0 1-.868.162 2.286 2.286 0 0 1-.868-.161 2.1 2.1 0 0 1-.687-.448 2.077 2.077 0 0 1-.454-.674 2.142 2.142 0 0 1-.165-.845 2.142 2.142 0 0 1 .165-.845 2.073 2.073 0 0 1 .454-.673 2.084 2.084 0 0 1 .687-.447 2.268 2.268 0 0 1 .868-.163m-22.771 2.114a1.208 1.208 0 0 1 1.222-1.289 1.207 1.207 0 0 1 1.213 1.289 1.206 1.206 0 0 1-1.213 1.288 1.208 1.208 0 0 1-1.222-1.288m3.26 0v-2.012h-.875v.489a1.528 1.528 0 0 0-1.272-.59 2.017 2.017 0 0 0-2.013 2.114 2.017 2.017 0 0 0 2.013 2.115 1.528 1.528 0 0 0 1.272-.59v.489h.875zm-4.935 2.015v-2.527a1.5 1.5 0 0 0-1.583-1.6 1.558 1.558 0 0 0-1.415.716 1.48 1.48 0 0 0-1.332-.716 1.333 1.333 0 0 0-1.179.6v-.5h-.875v4.027h.884v-2.232a.942.942 0 0 1 .985-1.07c.581 0 .876.379.876 1.062v2.24h.884v-2.232a.95.95 0 0 1 .985-1.07c.6 0 .885.379.885 1.062v2.24z" fill="#231f20"/></svg>