<svg xmlns="http://www.w3.org/2000/svg" viewBox="0 0 80 80"  width="80" height="80"><path d="M37.042 31.002a1.381 1.381 0 0 1 .594-.134h8.629a18 18 0 0 1 2.844.207q.365.058.727.139.512.113 1.011.276a7.786 7.786 0 0 1 1.193.5c.432-2.755 0-4.628-1.492-6.325-1.64-1.868-4.6-2.669-8.393-2.669h-11a1.575 1.575 0 0 0-1.562 1.333l-4.581 29.055a.944.944 0 0 0 .932 1.092h6.793l3.539-22.446a1.378 1.378 0 0 1 .766-1.028z" fill="#27346a"/><path d="M51.922 32.638c-1.45 7.449-6.415 10.025-12.755 10.025h-3.228a1.568 1.568 0 0 0-1.549 1.329l-2.122 13.453a.827.827 0 0 0 .816.956h5.725a1.378 1.378 0 0 0 1.36-1.162l.056-.292 1.079-6.839.07-.378a1.378 1.378 0 0 1 1.36-1.162h.857c5.546 0 9.889-2.253 11.158-8.77.53-2.723.256-5-1.146-6.594a5.47 5.47 0 0 0-1.568-1.209c-.033.21-.069.427-.113.643z" fill="#2790c3"/><path d="M50.518 31.389q-.339-.1-.684-.175-.361-.079-.727-.138a17.9 17.9 0 0 0-2.846-.208h-8.624a1.378 1.378 0 0 0-1.36 1.163l-1.833 11.623-.053.339a1.569 1.569 0 0 1 1.549-1.329h3.228c6.34 0 11.3-2.575 12.755-10.025.043-.22.079-.434.113-.644a7.83 7.83 0 0 0-1.193-.5q-.162-.054-.326-.1" fill="#1f264f"/></svg>