<svg xmlns="http://www.w3.org/2000/svg" viewBox="0 0 80 80"  width="80" height="80"><path d="M24 49.217V29.583a2.488 2.488 0 0 1 .759-1.824A2.488 2.488 0 0 1 26.583 27h25.834A2.591 2.591 0 0 1 55 29.583v19.634a2.591 2.591 0 0 1-2.583 2.583H26.583a2.488 2.488 0 0 1-1.824-.759A2.488 2.488 0 0 1 24 49.217zm2.067 0a.524.524 0 0 0 .517.517h25.833a.524.524 0 0 0 .517-.517V39.4H26.067zm0-16.017h26.866v-3.617a.524.524 0 0 0-.517-.517H26.583a.524.524 0 0 0-.517.517zm2.066 14.467V45.6h4.134v2.067zm6.2 0V45.6h6.2v2.067z" fill="#484848"/></svg>