<svg xmlns="http://www.w3.org/2000/svg" viewBox="0 0 80 80"  width="80" height="80"><path d="M36.819 48.3h-3.906l2.456-15.06h3.906zm-7.208-15.061l-3.745 10.349-.443-2.215-1.329-6.8a1.682 1.682 0 0 0-1.852-1.369h-6.161l-.081.282a14.932 14.932 0 0 1 4.107 1.731L23.53 48.3h4.07l6.239-15.06zm30.8 15.061H64l-3.141-15.06h-3.141a1.815 1.815 0 0 0-1.811 1.128l-5.8 13.932h4.067l.8-2.255h4.993zm-4.309-5.36l2.054-5.638 1.167 5.638zm-5.718-6.076l.564-3.222a11.6 11.6 0 0 0-3.544-.644c-1.933 0-6.564.846-6.564 4.993 0 3.906 5.436 3.946 5.436 6s-4.872 1.691-6.483.4l-.563 3.386a10.931 10.931 0 0 0 4.43.846c2.658 0 6.725-1.369 6.725-5.154 0-3.906-5.476-4.268-5.476-6 .004-1.769 3.791-1.529 5.48-.603z" fill="#005ca4"/><path d="M25.423 41.335l-1.329-6.765a1.682 1.682 0 0 0-1.852-1.369h-6.161l-.081.282a14.679 14.679 0 0 1 5.8 2.94 11.517 11.517 0 0 1 3.623 4.912z" fill="#e2ab3b"/></svg>