<svg xmlns="http://www.w3.org/2000/svg" viewBox="0 0 80 80"  width="80" height="80"><path d="M24.911 58.917v-2.522a1.48 1.48 0 0 0-1.6-1.6 1.659 1.659 0 0 0-1.43.715 1.47 1.47 0 0 0-1.345-.715 1.358 1.358 0 0 0-1.177.588v-.5h-.883v4.036h.883v-2.228c0-.715.378-1.051.967-1.051s.883.378.883 1.051v2.228h.883v-2.228a.93.93 0 0 1 .967-1.051c.588 0 .883.378.883 1.051v2.228zm13.073-4.036h-1.429v-1.219h-.883v1.219h-.8v.8h.8v1.849c0 .925.378 1.471 1.387 1.471a2.354 2.354 0 0 0 1.093-.294l-.252-.757a1.383 1.383 0 0 1-.757.21c-.42 0-.588-.252-.588-.672V55.68h1.429zm7.482-.084a1.185 1.185 0 0 0-1.051.588v-.5h-.883v4.036h.883v-2.27c0-.673.294-1.051.841-1.051a2.465 2.465 0 0 1 .547.084l.252-.841a2.762 2.762 0 0 0-.588-.042zm-11.308.42a2.884 2.884 0 0 0-1.639-.42c-1.009 0-1.681.5-1.681 1.3 0 .673.5 1.051 1.387 1.177l.421.042c.462.084.715.21.715.42 0 .294-.336.5-.925.5a2.32 2.32 0 0 1-1.345-.421l-.421.672a2.969 2.969 0 0 0 1.724.5c1.177 0 1.849-.546 1.849-1.3 0-.715-.546-1.093-1.387-1.219l-.42-.042c-.379-.042-.673-.126-.673-.378 0-.294.294-.462.757-.462a3.024 3.024 0 0 1 1.261.337zm23.456-.42a1.185 1.185 0 0 0-1.051.588v-.5h-.883v4.036h.883v-2.27c0-.673.295-1.051.841-1.051a2.461 2.461 0 0 1 .546.084l.253-.841a2.767 2.767 0 0 0-.589-.042zm-11.266 2.1a2.019 2.019 0 0 0 2.144 2.1 2.093 2.093 0 0 0 1.43-.462l-.421-.715a1.7 1.7 0 0 1-1.051.378 1.193 1.193 0 0 1-1.219-1.3 1.241 1.241 0 0 1 1.219-1.3 1.7 1.7 0 0 1 1.051.379l.421-.715a2.094 2.094 0 0 0-1.43-.462 2.019 2.019 0 0 0-2.144 2.1zm8.155 0v-2.018h-.883v.5a1.519 1.519 0 0 0-1.261-.588 2.1 2.1 0 0 0 0 4.2 1.415 1.415 0 0 0 1.261-.588v.5h.883zm-3.236 0a1.222 1.222 0 1 1 2.438 0 1.221 1.221 0 1 1-2.437 0zm-10.551-2.1a2.1 2.1 0 0 0 .042 4.2 2.569 2.569 0 0 0 1.64-.546l-.42-.63a2.009 2.009 0 0 1-1.177.421 1.135 1.135 0 0 1-1.219-.968h2.984v-.336a1.857 1.857 0 0 0-1.849-2.144zm0 .757a.983.983 0 0 1 1.009.967h-2.1a1.065 1.065 0 0 1 1.093-.967zm21.9 1.345v-3.615h-.883v2.1a1.519 1.519 0 0 0-1.261-.588 2.1 2.1 0 0 0 0 4.2 1.416 1.416 0 0 0 1.261-.588v.5h.883zm-3.237 0a1.222 1.222 0 1 1 2.438 0 1.222 1.222 0 1 1-2.438 0zm-29.508 0v-2.018h-.883v.5a1.52 1.52 0 0 0-1.261-.588 2.1 2.1 0 0 0 0 4.2 1.416 1.416 0 0 0 1.261-.588v.5h.883zm-3.279 0a1.222 1.222 0 1 1 2.438 0 1.222 1.222 0 1 1-2.438 0z"/><path fill="#ff5f00" d="M33.865 24.237h13.241v23.792H33.865z"/><path d="M34.705 36.133a15.171 15.171 0 0 1 5.759-11.9 15.133 15.133 0 1 0 0 23.792 15.11 15.11 0 0 1-5.759-11.892z" fill="#eb001b"/><path d="M64.971 36.133a15.117 15.117 0 0 1-24.465 11.9 15.166 15.166 0 0 0 0-23.792 15.116 15.116 0 0 1 24.465 11.9z" fill="#f79e1b"/></svg>