<svg xmlns="http://www.w3.org/2000/svg" viewBox="0 0 80 80"  width="80" height="80"><path d="M73.999 40.275L6.999 21v38.026z" fill="#4a8455" fill-rule="evenodd"/><path d="M36.302 34.512c0 .064.033.161.033.226.032.452.064.9.129 1.386.033.387.064.774.1 1.129s.064.742.1 1.129c0 .161.032.29.032.452a1.865 1.865 0 0 1 2.032 1.129 1.144 1.144 0 0 1 .549-.387 1.377 1.377 0 0 1 1.838.581c0 .032.033.064.033.1a2.918 2.918 0 0 1 .29 1.033c.033.483 0 1 .033 1.484v.161h-1.33v-1.52a.767.767 0 0 0-.1-.387.42.42 0 0 0-.774 0 .952.952 0 0 0-.064.323v1.871h-1.256a.693.693 0 0 0-.032-.258c-.033-.516-.064-1.064-.1-1.581a1.859 1.859 0 0 0-.032-.419.8.8 0 0 0-.581-.613.235.235 0 0 0-.314.11l-.005.016c0 .033-.033.065 0 .1v.226c.032.387.1.774.129 1.162.032.419.032.839.032 1.225a6.738 6.738 0 0 1-.226 1.806 2.884 2.884 0 0 1-.419.839 1.286 1.286 0 0 1-.71.452h-.29a1.3 1.3 0 0 1-.58-.322 1.9 1.9 0 0 1-.452-.774 3.894 3.894 0 0 1-.193-1.032 5.8 5.8 0 0 1 0-1.065 6.36 6.36 0 0 1 .9-2.935 7.037 7.037 0 0 1 .452-.613c.032-.033.064-.064.032-.129a9.85 9.85 0 0 1-.064-.969c-.033-.29-.033-.548-.064-.838-.033-.258-.033-.517-.064-.774-.033-.323-.064-.677-.1-1 0-.193-.033-.355-.033-.549-.032-.226-.032-.452-.064-.709h.452c.226 0 .452-.033.677-.033-.064-.032-.032-.032 0-.032zm-.519 8.257c0-.226-.032-.452-.032-.645l-.1-.387c-.033-.064-.064-.064-.129 0a.243.243 0 0 0-.065.129 2.732 2.732 0 0 0-.129.871 6.712 6.712 0 0 0 0 1.129l.1.387a.065.065 0 1 0 .129 0 .46.46 0 0 0 .064-.193 4.4 4.4 0 0 0 .162-1.291zM8.917 38.477c.033-.129.064-.29.1-.419a2.423 2.423 0 0 1 1.383-1.581 2.8 2.8 0 0 1 1.452-.291 2.323 2.323 0 0 1 .936.194.069.069 0 0 1 .064.064v1.419a.108.108 0 0 1-.064-.032 2.465 2.465 0 0 0-.968-.194 1.466 1.466 0 0 0-1.387.968 1.644 1.644 0 0 0 0 .968l.064-.032a1.542 1.542 0 0 1 .9-.323 1.209 1.209 0 0 1 .968.452 1.271 1.271 0 0 1 .323.871 1.048 1.048 0 0 1-.677 1 1.61 1.61 0 0 1-.677.161h-.419a.758.758 0 0 0 .419.355 1.281 1.281 0 0 0 .774.065 2.557 2.557 0 0 0 .968-.387.062.062 0 0 0 .042-.077.051.051 0 0 0-.011-.02 8.352 8.352 0 0 1-.1-1.258 4.474 4.474 0 0 1 .322-1.71 1.932 1.932 0 0 1 .646-.871.987.987 0 0 1 .645-.226.732.732 0 0 1 .613.323 1.486 1.486 0 0 1 .323.806 4.179 4.179 0 0 1-.1 1.548 7.019 7.019 0 0 1-.549 1.581c0 .033-.032.065-.032.1a.145.145 0 0 0 0 .161l.032.033a.42.42 0 0 0 .194.032 1.14 1.14 0 0 0 .839-.258h.043v1.064c0 .033 0 .065-.064.1a1.811 1.811 0 0 1-1.806.1 1.178 1.178 0 0 1-.323-.226 3.129 3.129 0 0 1-.452.258 3.334 3.334 0 0 1-1.225.356 2.969 2.969 0 0 1-1.484-.194 1.94 1.94 0 0 1-1.225-1.612 2.28 2.28 0 0 1 .032-.807v-.064a6.489 6.489 0 0 1-.516-1.386 3.489 3.489 0 0 1-.003-1.011zm5.645 1.258c0-.064-.032-.193-.032-.29 0-.064-.033-.161-.13-.161s-.129.064-.161.13a2.162 2.162 0 0 0-.16 1.193c0 .064.032.1.064.161a.167.167 0 0 0 .129.064.032.032 0 0 0 .033-.033c.032-.032.064-.1.1-.129a3.164 3.164 0 0 0 .156-.933zm-3.323 1.1a.291.291 0 1 0-.29-.29.291.291 0 0 0 .29.29zm15.29-.356a.881.881 0 0 1 .839-.419c.033 0 .064 0 .064.064v1.129c-.064 0-.161.033-.226.033a.533.533 0 0 0-.419.58v1.193h-1.033v-1.1a.505.505 0 0 0-.452-.549h-.226c0 .064-.032.161-.032.226a1.712 1.712 0 0 1-.613.936 1.922 1.922 0 0 1-1.226.452 2.038 2.038 0 0 1-1.065-.291.208.208 0 0 0-.193 0 5.159 5.159 0 0 1-1.678.71 2.969 2.969 0 0 1-1.968-.193 2.6 2.6 0 0 1-1.1-1.033 4.108 4.108 0 0 1-.258-3.709 3.35 3.35 0 0 1 2.328-1.931 4.714 4.714 0 0 1 1.645-.1c.1 0 .161.032.258.032v1.323c-.1-.033-.226-.033-.322-.065a3.02 3.02 0 0 0-1.42.033 1.932 1.932 0 0 0-1.355 1.322 2.685 2.685 0 0 0 .291 2.323 1.58 1.58 0 0 0 1.1.709 1.958 1.958 0 0 0 .968-.129 4.336 4.336 0 0 0 .839-.484c.033-.032.033-.032.033-.064a1.19 1.19 0 0 1 .16-.871.911.911 0 0 1 .839-.42.461.461 0 0 1 .452.452v.484a.865.865 0 0 0 .1.387.558.558 0 0 0 .677.355c.064-.033.1-.033.129-.064a.545.545 0 0 0 .194-.194.248.248 0 0 0-.033-.322.121.121 0 0 0-.1-.033c-.1-.032-.226-.064-.322-.1a1.2 1.2 0 0 1-.549-.419 1.109 1.109 0 0 1-.161-.839 1.368 1.368 0 0 1 .613-.9 1.015 1.015 0 0 1 1.226.033 2.288 2.288 0 0 1 .613.742c.032.032.064.064.1.064a1.721 1.721 0 0 1 1.162.419.407.407 0 0 0 .129.226zm-2.419-.419a.241.241 0 0 0-.193-.226.21.21 0 0 0-.033.419h.033c.066.033.16-.064.192-.193zm3.673 1.193v-1.16h.387c.064-.871.1-1.71.161-2.581h1.129c-.064.9-.129 1.806-.226 2.741h.323c.032 0 .032-.032.064-.064a4.437 4.437 0 0 1 .645-.935 2.265 2.265 0 0 1 1.033-.613 1.219 1.219 0 0 1 1.229 1.936 2.794 2.794 0 0 1-.9.839c-.16.1-.322.161-.483.258-.033 0-.033.032-.064.032a.915.915 0 0 0 .645.387 1.366 1.366 0 0 0 .871-.226 2.171 2.171 0 0 0 .355-.226v1.226a.169.169 0 0 1-.064.129 1.624 1.624 0 0 1-.936.387 2.061 2.061 0 0 1-2.29-1.387.862.862 0 0 0-.161-.29.323.323 0 0 0-.161-.129.155.155 0 0 0-.194.064v1.484h-1.134v-1.839a.726.726 0 0 1-.229-.033zm3.742-1.258c0-.161-.1-.194-.226-.129a.658.658 0 0 0-.194.129.686.686 0 0 0-.222.482c0 .13.064.194.194.13a.8.8 0 0 0 .452-.612zm20.458 1.517l.29-.1a7.39 7.39 0 0 0 1.1-.613 18.887 18.887 0 0 1 1.741-1.032 4.013 4.013 0 0 1 1.033-.387 1.856 1.856 0 0 1 1.032.1 1.2 1.2 0 0 1 .774 1.032 2.305 2.305 0 0 1-.484 1.774 3.1 3.1 0 0 1-1.974 1.191 2.91 2.91 0 0 1-.548.064v-1.256c0-.064.032-.064.064-.1a4.107 4.107 0 0 0 1.193-.581.7.7 0 0 0 .29-.322.467.467 0 0 0-.265-.6l-.025-.009a.545.545 0 0 0-.387.032c-.193.1-.387.194-.549.291-.871.516-1.709 1.064-2.58 1.581a2.459 2.459 0 0 1-1.42.355.772.772 0 0 1-.452-.161h-.063a3.8 3.8 0 0 1-1.29.549 3.554 3.554 0 0 1-.838.064 2.257 2.257 0 0 1-1.194-.355 3.752 3.752 0 0 1-.355-.356.669.669 0 0 0-.193.13 21.23 21.23 0 0 1-1.1.742c-.032.032-.064.064-.032.1a3.039 3.039 0 0 1-.161 1.42 1.294 1.294 0 0 1-1.1.871 1.509 1.509 0 0 1-1.317-.359 1.2 1.2 0 0 1-.387-.774 1.858 1.858 0 0 1 .71-1.613 3.332 3.332 0 0 1 .806-.483c.033 0 .064-.033.064-.1v-.355a1.38 1.38 0 0 0-.226.161 2.328 2.328 0 0 1-1.032.355 1.469 1.469 0 0 1-.968-.193 1.291 1.291 0 0 1-.452-.71 1.872 1.872 0 0 1 .29-1.484 3.026 3.026 0 0 1 1.29-1.1 4.9 4.9 0 0 1 1.774-.516c.129 0 .258-.032.387-.032v1.322c-.161.033-.355.033-.516.064a3.152 3.152 0 0 0-1.419.516.835.835 0 0 0-.42.613v.229c0 .1.033.129.13.1a.991.991 0 0 0 .419-.194 2.178 2.178 0 0 0 .839-1.032.068.068 0 0 1 .064-.064h1.193v1.709a7.387 7.387 0 0 1 .774-.258 3.26 3.26 0 0 1-.129-.452 4.437 4.437 0 0 1-.161-1.452 3.061 3.061 0 0 1 .452-1.484 2.048 2.048 0 0 1 .645-.646 1.061 1.061 0 0 1 .936 0 1.374 1.374 0 0 1 .9 1.129 3.035 3.035 0 0 1-.161 1.419 4.355 4.355 0 0 1-.774 1.484.061.061 0 0 0-.012.085l.012.012a.759.759 0 0 0 .516.291 1.21 1.21 0 0 0 .581-.065c.032 0 .064-.032.032-.1a3.436 3.436 0 0 1-.161-1 1.672 1.672 0 0 1 .484-1.258 1.6 1.6 0 0 1 2-.161 1.176 1.176 0 0 1 .516.968 1.732 1.732 0 0 1-.16.9c0 .033 0 .033-.033.064v.033zm-4.129-1.968v-.067a1.154 1.154 0 0 0-.064-.323c-.033-.1-.13-.129-.194-.033a.252.252 0 0 0-.064.13 2.12 2.12 0 0 0-.161 1 .616.616 0 0 0 .064.226c.033.065.1.065.161.033a.437.437 0 0 0 .1-.129 1.511 1.511 0 0 0 .154-.837zm3.193 1.386a.857.857 0 0 0-.1-.386.224.224 0 0 0-.3-.111.145.145 0 0 0-.027.014l-.1.1a.642.642 0 0 0 0 .677.223.223 0 0 0 .3.11.145.145 0 0 0 .027-.014.248.248 0 0 0 .129-.129.6.6 0 0 0 .064-.258zm-7.031 3.484a.282.282 0 0 0 .193.29.251.251 0 0 0 .258-.064.294.294 0 0 0 .032-.387.236.236 0 0 0-.3-.136l-.018.008c-.033 0-.064.033-.1.064a.378.378 0 0 0-.064.226zm11.29-6.354c-.839.548-1.678 1.1-2.548 1.645-.258-.323-.549-.646-.807-1 .9-.58 1.775-1.162 2.678-1.742.226.355.452.71.677 1.1z" fill="#fff"/></svg>